<svg width="500" height="301" viewBox="0 0 500 301" fill="none" xmlns="http://www.w3.org/2000/svg">
<g clip-path="url(#clip0_12587_219606)">
<path d="M443.829 198.196C440.337 208.776 428.284 218.177 431.885 225.957C433.255 228.914 434.63 232.008 435.263 235.167C435.673 237.051 435.742 238.994 435.464 240.902C434.166 249.141 426.456 254.613 419.287 258.875C418.844 259.137 418.398 259.403 417.95 259.671C411.157 263.741 404.042 268.428 401.86 275.942C400.648 280.116 401.183 284.58 400.681 288.894C400.206 292.861 398.858 296.673 396.736 300.058H350.951C346.886 295.578 347.225 288.049 350.318 282.767C353.63 277.114 359.223 273.273 364.272 269.094C368.632 265.482 372.883 261.133 374.547 255.83C374.811 254.99 375.006 254.131 375.13 253.26C375.534 250.39 375.316 235.729 380.292 226.705C387.985 212.77 400.464 216.202 404.277 208.339C405.74 205.327 407 168.318 431.307 175.155C433.678 175.789 435.894 176.899 437.821 178.417C439.748 179.935 441.347 181.83 442.518 183.986C443.689 186.141 444.41 188.513 444.635 190.956C444.861 193.399 444.586 195.863 443.829 198.196Z" fill="#D5FAFD" fill-opacity="0.5"/>
<path d="M488.291 256.064C487.594 256.545 486.843 256.944 486.054 257.254C479.496 259.715 461.256 259.442 458.59 265.919C457.335 268.964 457.035 272.324 455.96 275.439C453.524 282.505 447.083 287.803 439.88 289.795C437.288 290.51 434.604 290.842 432.04 291.639C427.085 293.183 422.982 296.29 419.376 300.056H360.246C360.219 296.135 361.184 292.27 363.049 288.821C364.915 285.372 367.621 282.45 370.918 280.326C377.493 276.179 385.797 275.404 392.252 271.072C396.507 268.213 399.568 264.083 401.997 259.516C403.542 256.528 404.907 253.451 406.084 250.301C407.89 245.613 409.778 240.583 413.881 237.68C415.893 236.373 418.124 235.438 420.467 234.919C426.392 233.369 430.948 234.281 435.264 235.165C440.502 236.234 445.39 237.255 451.954 233.768C463.598 227.581 480.621 196.724 497.633 226.042C504.452 237.803 495.041 251.547 488.291 256.064Z" fill="#AAE5EA" fill-opacity="0.5"/>
<path d="M56.1709 198.196C59.6632 208.776 71.7162 218.177 68.1147 225.957C66.7454 228.914 65.3699 232.008 64.737 235.167C64.3262 237.051 64.2577 238.994 64.5349 240.902C65.8334 249.141 73.5435 254.613 80.7126 258.875C81.1555 259.137 81.6018 259.403 82.0492 259.671C88.8424 263.741 95.9572 268.428 98.1394 275.942C99.351 280.116 98.8161 284.58 99.3183 288.894C99.7938 292.861 101.141 296.673 103.263 300.058H149.046C153.111 295.578 152.773 288.049 149.679 282.767C146.367 277.114 140.775 273.273 135.725 269.094C131.366 265.482 127.115 261.133 125.451 255.83C125.187 254.99 124.991 254.131 124.867 253.26C124.464 250.39 124.682 235.729 119.706 226.705C112.012 212.77 99.5342 216.202 95.7202 208.339C94.2583 205.327 92.9975 168.318 68.6906 175.155C66.3207 175.789 64.1047 176.899 62.1776 178.417C60.2505 179.936 58.6526 181.83 57.4813 183.986C56.31 186.142 55.5897 188.513 55.3645 190.956C55.1392 193.399 55.4136 195.863 56.1709 198.196Z" fill="#D5FAFD" fill-opacity="0.5"/>
<path d="M11.7091 256.064C12.4068 256.545 13.1572 256.944 13.9456 257.254C20.5039 259.715 38.7442 259.442 41.4104 265.918C42.6652 268.964 42.9653 272.324 44.0401 275.439C46.4792 282.505 52.9174 287.803 60.1197 289.795C62.7111 290.509 65.3956 290.842 67.9599 291.639C72.9141 293.183 77.0172 296.29 80.6236 300.056H139.755C139.781 296.134 138.816 292.27 136.951 288.821C135.085 285.372 132.379 282.45 129.082 280.326C122.508 276.179 114.203 275.404 107.748 271.072C103.493 268.213 100.432 264.083 98.0029 259.516C96.4581 256.528 95.0935 253.451 93.9164 250.301C92.1101 245.613 90.2225 240.583 86.1193 237.68C84.1071 236.373 81.8764 235.438 79.5333 234.919C73.6085 233.369 69.0524 234.281 64.7367 235.165C59.4984 236.234 54.6096 237.255 48.0457 233.768C36.4036 227.581 19.3804 196.728 2.36777 226.044C-4.45247 237.802 4.9592 251.547 11.7091 256.064Z" fill="#AAE5EA" fill-opacity="0.5"/>
<path d="M347.951 250.095H154.229V0H306.723L347.951 43.5699V250.095Z" fill="#F4FBFC"/>
<path d="M306.724 0V43.5699H347.951L306.724 0Z" fill="#F4F4F4"/>
<path d="M290.787 106.349V117.385C290.787 119.263 290.041 121.064 288.713 122.392C287.385 123.72 285.584 124.466 283.707 124.466H141.662C139.784 124.466 137.983 125.212 136.655 126.54C135.327 127.868 134.581 129.669 134.581 131.547V292.976C134.581 294.854 135.327 296.655 136.655 297.983C137.983 299.311 139.784 300.057 141.662 300.057H360.519C361.449 300.057 362.37 299.874 363.229 299.518C364.088 299.162 364.869 298.641 365.526 297.983C366.184 297.326 366.705 296.545 367.061 295.686C367.417 294.827 367.6 293.906 367.6 292.976V106.349C367.6 105.419 367.417 104.498 367.061 103.639C366.705 102.78 366.184 101.999 365.526 101.342C364.869 100.684 364.088 100.163 363.229 99.807C362.37 99.4512 361.449 99.2681 360.519 99.2681H297.868C296.938 99.268 296.018 99.4511 295.158 99.8069C294.299 100.163 293.519 100.684 292.861 101.342C292.204 101.999 291.682 102.78 291.326 103.639C290.97 104.498 290.787 105.419 290.787 106.349Z" fill="#AAE5EA"/>
<path d="M251.091 265.221C280.434 265.221 304.222 241.433 304.222 212.089C304.222 182.745 280.434 158.958 251.091 158.958C221.747 158.958 197.959 182.745 197.959 212.089C197.959 241.433 221.747 265.221 251.091 265.221Z" fill="#F4FBFC"/>
<path d="M271.653 202.68H268.724V196.137C268.698 191.478 266.828 187.018 263.524 183.732C260.22 180.447 255.75 178.602 251.09 178.602C246.43 178.602 241.96 180.447 238.656 183.732C235.352 187.018 233.482 191.478 233.456 196.137V202.68H230.528C229.189 202.68 227.905 203.212 226.959 204.159C226.012 205.105 225.48 206.389 225.48 207.727V240.627C225.48 241.966 226.012 243.249 226.959 244.196C227.905 245.143 229.189 245.674 230.528 245.674H271.652C272.315 245.674 272.971 245.544 273.584 245.29C274.196 245.036 274.752 244.665 275.221 244.196C275.69 243.727 276.061 243.171 276.315 242.559C276.569 241.946 276.699 241.29 276.699 240.627V207.727C276.699 206.389 276.168 205.106 275.221 204.159C274.275 203.212 272.992 202.681 271.653 202.68ZM239.19 196.137C239.19 192.981 240.443 189.954 242.675 187.722C244.907 185.49 247.934 184.236 251.091 184.236C254.247 184.236 257.274 185.49 259.506 187.722C261.738 189.954 262.992 192.981 262.992 196.137V202.68H239.19V196.137Z" fill="#1E858E"/>
<path d="M251.091 231.819C255.125 231.819 258.394 228.549 258.394 224.516C258.394 220.483 255.125 217.213 251.091 217.213C247.058 217.213 243.788 220.483 243.788 224.516C243.788 228.549 247.058 231.819 251.091 231.819Z" fill="white"/>
</g>
<defs>
<clipPath id="clip0_12587_219606">
<rect width="500" height="300.058" fill="white"/>
</clipPath>
</defs>
</svg>
