<svg width="16" height="16" viewBox="0 0 16 16" fill="none" xmlns="http://www.w3.org/2000/svg">
<path d="M8.00065 1.33334C11.6825 1.33334 14.6673 4.31811 14.6673 8C14.6673 11.6819 11.6825 14.6667 8.00065 14.6667C4.31875 14.6667 1.33398 11.6819 1.33398 8C1.33398 4.31811 4.31875 1.33334 8.00065 1.33334Z" fill="#B78101"/>
<path d="M8.00065 4.66667C8.36884 4.66667 8.66732 4.96514 8.66732 5.33333C8.66732 5.70152 8.36884 6 8.00065 6C7.63246 6 7.33398 5.70152 7.33398 5.33333C7.33398 4.96514 7.63246 4.66667 8.00065 4.66667Z" fill="#FFFBDF"/>
<path d="M8.00065 7.33333C7.82384 7.33333 7.65427 7.40357 7.52925 7.52859C7.40422 7.65361 7.33398 7.82318 7.33398 7.99999V10.6667C7.33398 10.8435 7.40422 11.013 7.52925 11.1381C7.65427 11.2631 7.82384 11.3333 8.00065 11.3333C8.17746 11.3333 8.34703 11.2631 8.47206 11.1381C8.59708 11.013 8.66732 10.8435 8.66732 10.6667V7.99999C8.66732 7.82318 8.59708 7.65361 8.47206 7.52859C8.34703 7.40357 8.17746 7.33333 8.00065 7.33333Z" fill="#FFFBDF"/>
</svg>
