<svg width="16" height="16" viewBox="0 0 16 16" fill="none" xmlns="http://www.w3.org/2000/svg">
<path d="M8.00065 14.6673C11.6825 14.6673 14.6673 11.6825 14.6673 8.00065C14.6673 4.31875 11.6825 1.33398 8.00065 1.33398C4.31875 1.33398 1.33398 4.31875 1.33398 8.00065C1.33398 11.6825 4.31875 14.6673 8.00065 14.6673Z" fill="#1A727A"/>
<path d="M8.00065 11.3333C8.36884 11.3333 8.66732 11.0349 8.66732 10.6667C8.66732 10.2985 8.36884 10 8.00065 10C7.63246 10 7.33398 10.2985 7.33398 10.6667C7.33398 11.0349 7.63246 11.3333 8.00065 11.3333Z" fill="#F4FBFC"/>
<path d="M8.00065 8.66602C7.82384 8.66602 7.65427 8.59578 7.52925 8.47075C7.40422 8.34573 7.33398 8.17616 7.33398 7.99935V5.33268C7.33398 5.15587 7.40422 4.9863 7.52925 4.86128C7.65427 4.73625 7.82384 4.66602 8.00065 4.66602C8.17746 4.66602 8.34703 4.73625 8.47206 4.86128C8.59708 4.9863 8.66732 5.15587 8.66732 5.33268V7.99935C8.66732 8.17616 8.59708 8.34573 8.47206 8.47075C8.34703 8.59578 8.17746 8.66602 8.00065 8.66602Z" fill="#F4FBFC"/>
</svg>
