<svg width="16" height="16" viewBox="0 0 16 16" fill="none" xmlns="http://www.w3.org/2000/svg">
<path d="M10.2665 6.58687L7.20654 3.52687C7.08163 3.4027 6.91266 3.33301 6.73653 3.33301C6.56041 3.33301 6.39144 3.4027 6.26653 3.52687C6.20405 3.58884 6.15445 3.66258 6.12061 3.74382C6.08676 3.82506 6.06934 3.9122 6.06934 4.0002C6.06934 4.08821 6.08676 4.17535 6.12061 4.25659C6.15445 4.33783 6.20405 4.41156 6.26653 4.47354L9.3332 7.52687C9.39569 7.58885 9.44528 7.66258 9.47913 7.74382C9.51298 7.82506 9.5304 7.9122 9.5304 8.0002C9.5304 8.08821 9.51298 8.17535 9.47913 8.25659C9.44528 8.33783 9.39569 8.41156 9.3332 8.47354L6.26653 11.5269C6.141 11.6515 6.07012 11.8209 6.0695 11.9978C6.06887 12.1748 6.13855 12.3447 6.2632 12.4702C6.38785 12.5957 6.55727 12.6666 6.73418 12.6672C6.91109 12.6679 7.081 12.5982 7.20654 12.4735L10.2665 9.41354C10.6411 9.03854 10.8514 8.53021 10.8514 8.0002C10.8514 7.4702 10.6411 6.96187 10.2665 6.58687Z" fill="#2771C7"/>
</svg>
