<svg width="24" height="24" viewBox="0 0 24 24" fill="none" xmlns="http://www.w3.org/2000/svg">
<g clip-path="url(#clip0_10684_16596)">
<path d="M11.9997 1.99979C13.3262 2.00414 14.6387 2.27153 15.8612 2.78647C17.0837 3.30142 18.1919 4.05371 19.1217 4.99979H15.9997C15.7345 4.99979 15.4801 5.10515 15.2926 5.29268C15.1051 5.48022 14.9997 5.73457 14.9997 5.99979C14.9997 6.26501 15.1051 6.51936 15.2926 6.7069C15.4801 6.89443 15.7345 6.99979 15.9997 6.99979H20.1427C20.6351 6.99952 21.1073 6.80379 21.4555 6.45559C21.8037 6.1074 21.9994 5.63521 21.9997 5.14279V0.999788C21.9997 0.734571 21.8944 0.480217 21.7068 0.292681C21.5193 0.105145 21.2649 -0.000212317 20.9997 -0.000212317C20.7345 -0.000212317 20.4801 0.105145 20.2926 0.292681C20.1051 0.480217 19.9997 0.734571 19.9997 0.999788V3.07779C18.3469 1.58924 16.3123 0.590197 14.1238 0.192537C11.9353 -0.205124 9.67934 0.0142996 7.6085 0.826235C5.53766 1.63817 3.73373 3.01056 2.39873 4.78971C1.06372 6.56886 0.250356 8.68453 0.0497142 10.8998C0.0367976 11.039 0.05303 11.1795 0.0973772 11.3121C0.141724 11.4447 0.213214 11.5667 0.307291 11.6702C0.401367 11.7737 0.515969 11.8564 0.643792 11.9132C0.771616 11.9699 0.909859 11.9994 1.04971 11.9998C1.2943 12.0029 1.53125 11.9146 1.71417 11.7522C1.8971 11.5898 2.01283 11.365 2.03871 11.1218C2.26133 8.63254 3.40669 6.31649 5.24979 4.62863C7.0929 2.94076 9.50053 2.00308 11.9997 1.99979Z" fill="#EB008B"/>
<path d="M22.9505 12.0001C22.7059 11.997 22.469 12.0852 22.2861 12.2476C22.1031 12.41 21.9874 12.6348 21.9615 12.8781C21.7962 14.7813 21.0884 16.5972 19.9222 18.1103C18.7559 19.6234 17.1801 20.7702 15.3817 21.4147C13.5832 22.0591 11.6377 22.1742 9.77586 21.7462C7.91402 21.3182 6.21401 20.3652 4.87751 19.0001H7.99951C8.26473 19.0001 8.51908 18.8947 8.70662 18.7072C8.89416 18.5197 8.99951 18.2653 8.99951 18.0001C8.99951 17.7349 8.89416 17.4805 8.70662 17.293C8.51908 17.1054 8.26473 17.0001 7.99951 17.0001H3.85651C3.61261 17 3.37107 17.0479 3.14571 17.1412C2.92035 17.2345 2.71559 17.3712 2.54312 17.5437C2.37066 17.7162 2.23388 17.9209 2.1406 18.1463C2.04732 18.3717 1.99938 18.6132 1.99951 18.8571V23.0001C1.99951 23.2653 2.10487 23.5197 2.29241 23.7072C2.47994 23.8948 2.7343 24.0001 2.99951 24.0001C3.26473 24.0001 3.51908 23.8948 3.70662 23.7072C3.89416 23.5197 3.99951 23.2653 3.99951 23.0001V20.9221C5.65234 22.4107 7.68692 23.4097 9.87541 23.8074C12.0639 24.205 14.3199 23.9856 16.3907 23.1737C18.4616 22.3617 20.2655 20.9893 21.6005 19.2102C22.9355 17.431 23.7489 15.3153 23.9495 13.1001C23.9624 12.9608 23.9462 12.8204 23.9018 12.6878C23.8575 12.5551 23.786 12.4332 23.6919 12.3297C23.5979 12.2262 23.4833 12.1435 23.3554 12.0867C23.2276 12.03 23.0894 12.0005 22.9495 12.0001H22.9505Z" fill="#EB008B"/>
</g>
<defs>
<clipPath id="clip0_10684_16596">
<rect width="24" height="24" fill="white"/>
</clipPath>
</defs>
</svg>
