<svg width="16" height="16" viewBox="0 0 16 16" fill="none" xmlns="http://www.w3.org/2000/svg">
<path d="M10.2665 6.58589L7.20654 3.52589C7.08163 3.40173 6.91266 3.33203 6.73653 3.33203C6.56041 3.33203 6.39144 3.40173 6.26653 3.52589C6.20405 3.58787 6.15445 3.6616 6.12061 3.74284C6.08676 3.82408 6.06934 3.91122 6.06934 3.99923C6.06934 4.08723 6.08676 4.17437 6.12061 4.25561C6.15445 4.33685 6.20405 4.41058 6.26653 4.47256L9.3332 7.52589C9.39569 7.58787 9.44528 7.6616 9.47913 7.74284C9.51298 7.82408 9.5304 7.91122 9.5304 7.99923C9.5304 8.08723 9.51298 8.17437 9.47913 8.25561C9.44528 8.33685 9.39569 8.41059 9.3332 8.47256L6.26653 11.5259C6.141 11.6505 6.07012 11.82 6.0695 11.9969C6.06887 12.1738 6.13855 12.3437 6.2632 12.4692C6.38785 12.5948 6.55727 12.6656 6.73418 12.6663C6.91109 12.6669 7.081 12.5972 7.20654 12.4726L10.2665 9.41256C10.6411 9.03756 10.8514 8.52923 10.8514 7.99923C10.8514 7.46923 10.6411 6.96089 10.2665 6.58589Z" fill="white"/>
</svg>
