<svg width="6" height="10" viewBox="0 0 6 10" fill="none" xmlns="http://www.w3.org/2000/svg">
<path d="M2.0669 5.47256C2.00441 5.41058 1.95482 5.33685 1.92097 5.25561C1.88713 5.17437 1.8697 5.08723 1.8697 4.99923C1.8697 4.91122 1.88713 4.82408 1.92097 4.74284C1.95482 4.6616 2.00441 4.58787 2.0669 4.52589L5.1269 1.47256C5.18938 1.41058 5.23898 1.33685 5.27283 1.25561C5.30667 1.17437 5.3241 1.08723 5.3241 0.999226C5.3241 0.911218 5.30667 0.824081 5.27283 0.742842C5.23898 0.661602 5.18938 0.587868 5.1269 0.525893C5.00199 0.401726 4.83302 0.332031 4.6569 0.332031C4.48078 0.332031 4.31181 0.401726 4.1869 0.525893L1.1269 3.58589C0.752364 3.96089 0.541992 4.46922 0.541992 4.99923C0.541992 5.52923 0.752364 6.03756 1.1269 6.41256L4.1869 9.47256C4.31107 9.59572 4.47867 9.66516 4.65357 9.66589C4.7413 9.6664 4.82828 9.64958 4.9095 9.61641C4.99073 9.58323 5.06461 9.53435 5.1269 9.47256C5.18938 9.41058 5.23898 9.33685 5.27283 9.25561C5.30667 9.17437 5.3241 9.08723 5.3241 8.99923C5.3241 8.91122 5.30667 8.82408 5.27283 8.74284C5.23898 8.6616 5.18938 8.58787 5.1269 8.52589L2.0669 5.47256Z" fill="#2771C7"/>
</svg>
