<svg width="32" height="32" viewBox="0 0 32 32" fill="none" xmlns="http://www.w3.org/2000/svg">
<g clip-path="url(#clip0_3926_117968)">
<path d="M25.3333 0H6.66667C4.89921 0.00211714 3.20474 0.705176 1.95496 1.95496C0.705176 3.20474 0.00211714 4.89921 0 6.66667L0 25.3333C0.00211714 27.1008 0.705176 28.7953 1.95496 30.045C3.20474 31.2948 4.89921 31.9979 6.66667 32H25.3333C27.1008 31.9979 28.7953 31.2948 30.045 30.045C31.2948 28.7953 31.9979 27.1008 32 25.3333V6.66667C31.9979 4.89921 31.2948 3.20474 30.045 1.95496C28.7953 0.705176 27.1008 0.00211714 25.3333 0V0ZM6.66667 2.66667H25.3333C26.3942 2.66667 27.4116 3.08809 28.1618 3.83824C28.9119 4.58839 29.3333 5.6058 29.3333 6.66667V25.3333C29.331 25.9273 29.1943 26.5131 28.9333 27.0467L16.716 14.8293C16.0969 14.2101 15.3619 13.7189 14.553 13.3837C13.744 13.0486 12.877 12.8761 12.0013 12.8761C11.1257 12.8761 10.2587 13.0486 9.44971 13.3837C8.64075 13.7189 7.90575 14.2101 7.28667 14.8293L2.66667 19.448V6.66667C2.66667 5.6058 3.08809 4.58839 3.83824 3.83824C4.58839 3.08809 5.6058 2.66667 6.66667 2.66667ZM6.66667 29.3333C5.6058 29.3333 4.58839 28.9119 3.83824 28.1618C3.08809 27.4116 2.66667 26.3942 2.66667 25.3333V23.2187L9.17067 16.7147C9.54213 16.343 9.9832 16.0481 10.4687 15.8469C10.9541 15.6457 11.4745 15.5422 12 15.5422C12.5255 15.5422 13.0459 15.6457 13.5313 15.8469C14.0168 16.0481 14.4579 16.343 14.8293 16.7147L27.0467 28.9333C26.5131 29.1943 25.9273 29.331 25.3333 29.3333H6.66667Z" fill="#AAAAAA"/>
<path d="M21.3346 13.9996C22.2576 13.9996 23.1599 13.7259 23.9273 13.2131C24.6947 12.7003 25.2929 11.9715 25.6461 11.1188C25.9993 10.2661 26.0917 9.32775 25.9116 8.42251C25.7316 7.51726 25.2871 6.68574 24.6345 6.0331C23.9818 5.38045 23.1503 4.93599 22.2451 4.75593C21.3398 4.57587 20.4015 4.66828 19.5488 5.02149C18.6961 5.3747 17.9672 5.97284 17.4544 6.74027C16.9417 7.5077 16.668 8.40995 16.668 9.33293C16.668 10.5706 17.1596 11.7576 18.0348 12.6328C18.91 13.5079 20.097 13.9996 21.3346 13.9996ZM21.3346 7.33293C21.7302 7.33293 22.1169 7.45023 22.4458 7.66999C22.7747 7.88975 23.031 8.20211 23.1824 8.56756C23.3338 8.93301 23.3734 9.33515 23.2962 9.72311C23.219 10.1111 23.0286 10.4674 22.7488 10.7471C22.4691 11.0268 22.1128 11.2173 21.7248 11.2945C21.3369 11.3717 20.9347 11.3321 20.5693 11.1807C20.2038 11.0293 19.8915 10.773 19.6717 10.4441C19.4519 10.1152 19.3346 9.72849 19.3346 9.33293C19.3346 8.8025 19.5453 8.29379 19.9204 7.91872C20.2955 7.54364 20.8042 7.33293 21.3346 7.33293Z" fill="#AAAAAA"/>
</g>
<defs>
<clipPath id="clip0_3926_117968">
<rect width="32" height="32" fill="white"/>
</clipPath>
</defs>
</svg>
