<svg width="16" height="16" viewBox="0 0 16 16" fill="none" xmlns="http://www.w3.org/2000/svg">
<g clip-path="url(#clip0_10674_297907)">
<path d="M7.99981 1.33327C8.88415 1.33617 9.75913 1.51443 10.5741 1.85773C11.3891 2.20103 12.1279 2.70255 12.7478 3.33327H10.6665C10.4897 3.33327 10.3201 3.40351 10.1951 3.52854C10.07 3.65356 9.99981 3.82313 9.99981 3.99994C9.99981 4.17675 10.07 4.34632 10.1951 4.47134C10.3201 4.59637 10.4897 4.66661 10.6665 4.66661H13.4285C13.7568 4.66643 14.0715 4.53594 14.3037 4.30381C14.5358 4.07168 14.6663 3.75689 14.6665 3.42861V0.666607C14.6665 0.489796 14.5962 0.320226 14.4712 0.195202C14.3462 0.0701777 14.1766 -6.01644e-05 13.9998 -6.01644e-05C13.823 -6.01644e-05 13.6534 0.0701777 13.5284 0.195202C13.4034 0.320226 13.3331 0.489796 13.3331 0.666607V2.05194C12.2313 1.05958 10.8749 0.393546 9.41587 0.128439C7.95688 -0.136668 6.45289 0.00961447 5.07233 0.550905C3.69177 1.0922 2.48915 2.00712 1.59915 3.19322C0.709148 4.37932 0.166904 5.78977 0.0331428 7.26661C0.0245317 7.35945 0.0353533 7.45306 0.0649181 7.54149C0.0944829 7.62991 0.142143 7.71121 0.20486 7.7802C0.267578 7.84919 0.343979 7.90436 0.429195 7.94219C0.514411 7.98002 0.606573 7.99969 0.699809 7.99994C0.862868 8.00202 1.02083 7.94317 1.14278 7.8349C1.26473 7.72664 1.34189 7.57676 1.35914 7.41461C1.50755 5.75511 2.27113 4.21108 3.49986 3.08583C4.7286 1.96059 6.33369 1.33547 7.99981 1.33327Z" fill="black"/>
<path d="M15.3003 8.00005C15.1373 7.99798 14.9793 8.05683 14.8574 8.16509C14.7354 8.27335 14.6583 8.42323 14.641 8.58539C14.5308 9.85421 14.059 11.0648 13.2814 12.0735C12.5039 13.0823 11.4534 13.8468 10.2544 14.2764C9.0555 14.7061 7.75847 14.7828 6.51724 14.4975C5.27601 14.2122 4.14267 13.5768 3.25167 12.6667H5.33301C5.50982 12.6667 5.67939 12.5965 5.80441 12.4715C5.92944 12.3464 5.99967 12.1769 5.99967 12.0001C5.99967 11.8233 5.92944 11.6537 5.80441 11.5287C5.67939 11.4036 5.50982 11.3334 5.33301 11.3334H2.57101C2.40841 11.3333 2.24738 11.3653 2.09714 11.4275C1.9469 11.4896 1.81039 11.5808 1.69541 11.6958C1.58044 11.8108 1.48925 11.9473 1.42707 12.0975C1.36488 12.2478 1.33292 12.4088 1.33301 12.5714V15.3334C1.33301 15.5102 1.40325 15.6798 1.52827 15.8048C1.65329 15.9298 1.82286 16.0001 1.99967 16.0001C2.17649 16.0001 2.34606 15.9298 2.47108 15.8048C2.5961 15.6798 2.66634 15.5102 2.66634 15.3334V13.9481C3.76823 14.9404 5.12462 15.6065 6.58361 15.8716C8.0426 16.1367 9.54659 15.9904 10.9272 15.4491C12.3077 14.9078 13.5103 13.9929 14.4003 12.8068C15.2903 11.6207 15.8326 10.2102 15.9663 8.73339C15.975 8.64055 15.9641 8.54694 15.9346 8.45851C15.905 8.37008 15.8573 8.28879 15.7946 8.2198C15.7319 8.15081 15.6555 8.09564 15.5703 8.0578C15.4851 8.01997 15.3929 8.0003 15.2997 8.00005H15.3003Z" fill="black"/>
</g>
<defs>
<clipPath id="clip0_10674_297907">
<rect width="16" height="16" fill="white"/>
</clipPath>
</defs>
</svg>
