<svg width="16" height="9" viewBox="0 0 16 9" xmlns="http://www.w3.org/2000/svg">
<path d="M15.0611 0.853742C14.9218 0.714352 14.7564 0.603777 14.5744 0.528335C14.3923 0.452893 14.1972 0.414062 14.0001 0.414062C13.8031 0.414062 13.6079 0.452893 13.4259 0.528335C13.2438 0.603777 13.0784 0.714352 12.9391 0.853742L8.35313 5.43874C8.25936 5.53248 8.13221 5.58514 7.99963 5.58514C7.86704 5.58514 7.73989 5.53248 7.64613 5.43874L3.06113 0.853742C2.77986 0.572347 2.39834 0.414209 2.00048 0.414115C1.60262 0.414021 1.22102 0.57198 0.939627 0.853242C0.658232 1.1345 0.500094 1.51603 0.5 1.91389C0.499906 2.31175 0.657865 2.69335 0.939127 2.97474L5.52513 7.56074C5.85014 7.88579 6.23599 8.14363 6.66065 8.31954C7.08531 8.49545 7.54047 8.586 8.00013 8.586C8.45978 8.586 8.91494 8.49545 9.3396 8.31954C9.76426 8.14363 10.1501 7.88579 10.4751 7.56074L15.0611 2.97474C15.3423 2.69345 15.5003 2.31199 15.5003 1.91424C15.5003 1.5165 15.3423 1.13503 15.0611 0.853742Z"/>
</svg>
