<svg width="31" height="31" viewBox="0 0 31 31" fill="none" xmlns="http://www.w3.org/2000/svg">
<rect width="31" height="31" rx="3" fill="#D5FAFD"/>
<path d="M12.8534 12.5254L17.4394 7.93937C17.7208 7.65811 18.1024 7.50015 18.5002 7.50024C18.8981 7.50034 19.2796 7.65848 19.5609 7.93987C19.8421 8.22127 20.0001 8.60287 20 9.00072C19.9999 9.39858 19.8418 9.78011 19.5604 10.0614L14.9744 14.6464C14.9278 14.6928 14.8909 14.748 14.8657 14.8087C14.8405 14.8695 14.8275 14.9346 14.8275 15.0004C14.8275 15.0661 14.8405 15.1313 14.8657 15.192C14.8909 15.2528 14.9278 15.3079 14.9744 15.3544L19.5604 19.9394C19.8418 20.2206 19.9999 20.6022 20 21C20.0001 21.3979 19.8421 21.7795 19.5609 22.0609C19.2796 22.3423 18.8981 22.5004 18.5002 22.5005C18.1024 22.5006 17.7208 22.3426 17.4394 22.0614L12.8534 17.4754C12.1982 16.8183 11.8302 15.9283 11.8302 15.0004C11.8302 14.0725 12.1982 13.1824 12.8534 12.5254Z" fill="#2BBECB"/>
</svg>
