<svg width="31" height="31" viewBox="0 0 31 31" fill="none" xmlns="http://www.w3.org/2000/svg">
<rect width="31" height="31" rx="3" fill="#D5FAFD"/>
<g clip-path="url(#clip0_1145_51636)">
<path d="M24.75 17.3335H7.25C6.55965 17.3335 6 17.8931 6 18.5835C6 19.2738 6.55965 19.8335 7.25 19.8335H24.75C25.4404 19.8335 26 19.2738 26 18.5835C26 17.8931 25.4404 17.3335 24.75 17.3335Z" fill="#2BBECB"/>
<path d="M7.25 14.0003H24.75C25.4404 14.0003 26 13.4406 26 12.7502C26 12.0599 25.4404 11.5002 24.75 11.5002H7.25C6.55965 11.5002 6 12.0599 6 12.7502C6 13.4406 6.55965 14.0003 7.25 14.0003Z" fill="#2BBECB"/>
<path d="M18.3609 7.23268L11.3476 23.2659C11.0709 23.8983 11.3594 24.6354 11.9919 24.912C12.6244 25.1887 13.3614 24.9003 13.6381 24.2678L20.6514 8.23458C20.9281 7.6021 20.6396 6.86507 20.0071 6.5884C19.3746 6.31173 18.6376 6.60019 18.3609 7.23268Z" fill="#2BBECB"/>
</g>
<defs>
<clipPath id="clip0_1145_51636">
<rect width="20" height="20" fill="white" transform="translate(6 5.5)"/>
</clipPath>
</defs>
</svg>
