<svg width="31" height="31" viewBox="0 0 31 31" fill="none" xmlns="http://www.w3.org/2000/svg">
<rect width="31" height="31" rx="3" fill="#D5FAFD"/>
<path d="M19.1466 12.5254L14.5606 7.93937C14.2792 7.65811 13.8976 7.50015 13.4998 7.50024C13.1019 7.50034 12.7204 7.65848 12.4391 7.93987C12.1579 8.22127 11.9999 8.60287 12 9.00072C12.0001 9.39858 12.1582 9.78011 12.4396 10.0614L17.0256 14.6464C17.0722 14.6928 17.1091 14.748 17.1343 14.8087C17.1595 14.8695 17.1725 14.9346 17.1725 15.0004C17.1725 15.0661 17.1595 15.1313 17.1343 15.192C17.1091 15.2528 17.0722 15.3079 17.0256 15.3544L12.4396 19.9394C12.1582 20.2206 12.0001 20.6022 12 21C11.9999 21.3979 12.1579 21.7795 12.4391 22.0609C12.7204 22.3423 13.1019 22.5004 13.4998 22.5005C13.8976 22.5006 14.2792 22.3426 14.5606 22.0614L19.1466 17.4754C19.8018 16.8183 20.1698 15.9283 20.1698 15.0004C20.1698 14.0725 19.8018 13.1824 19.1466 12.5254Z" fill="#2BBECB"/>
</svg>
