<svg width="31" height="31" viewBox="0 0 31 31" fill="none" xmlns="http://www.w3.org/2000/svg">
<rect width="31" height="31" rx="3" fill="#D5FAFD"/>
<path d="M11.625 22.5002H20.375C20.7202 22.5002 21 22.948 21 23.5002C21 24.0525 20.7202 24.5002 20.375 24.5002H11.625C11.2798 24.5002 11 24.0525 11 23.5002C11 22.948 11.2798 22.5002 11.625 22.5002Z" fill="#2BBECB"/>
<path d="M12.8534 11.0254L17.4394 6.43937C17.7208 6.15811 18.1024 6.00015 18.5002 6.00024C18.8981 6.00034 19.2796 6.15848 19.5609 6.43987C19.8421 6.72127 20.0001 7.10287 20 7.50072C19.9999 7.89858 19.8418 8.28011 19.5604 8.56137L14.9744 13.1464C14.9278 13.1928 14.8909 13.248 14.8657 13.3087C14.8405 13.3695 14.8275 13.4346 14.8275 13.5004C14.8275 13.5661 14.8405 13.6313 14.8657 13.692C14.8909 13.7528 14.9278 13.8079 14.9744 13.8544L19.5604 18.4394C19.8418 18.7206 19.9999 19.1022 20 19.5C20.0001 19.8979 19.8421 20.2795 19.5609 20.5609C19.2796 20.8423 18.8981 21.0004 18.5002 21.0005C18.1024 21.0006 17.7208 20.8426 17.4394 20.5614L12.8534 15.9754C12.1982 15.3183 11.8302 14.4283 11.8302 13.5004C11.8302 12.5725 12.1982 11.6824 12.8534 11.0254Z" fill="#2BBECB"/>
</svg>
