<svg width="31" height="32" viewBox="0 0 31 32" fill="none" xmlns="http://www.w3.org/2000/svg">
<rect y="0.5" width="31" height="31" rx="3" fill="#D5FAFD"/>
<g clip-path="url(#clip0_1145_51649)">
<path d="M6.83333 9.95855H9.11333C9.2922 10.6167 9.68264 11.1976 10.2244 11.6118C10.7662 12.026 11.4293 12.2504 12.1112 12.2504C12.7932 12.2504 13.4563 12.026 13.9981 11.6118C14.5399 11.1976 14.9303 10.6167 15.1092 9.95855H25.1667C25.3877 9.95855 25.5996 9.87075 25.7559 9.71447C25.9122 9.55819 26 9.34623 26 9.12522C26 8.9042 25.9122 8.69224 25.7559 8.53596C25.5996 8.37968 25.3877 8.29188 25.1667 8.29188H15.1092C14.9303 7.63377 14.5399 7.0528 13.9981 6.63861C13.4563 6.22441 12.7932 6 12.1112 6C11.4293 6 10.7662 6.22441 10.2244 6.63861C9.68264 7.0528 9.2922 7.63377 9.11333 8.29188H6.83333C6.61232 8.29188 6.40036 8.37968 6.24408 8.53596C6.0878 8.69224 6 8.9042 6 9.12522C6 9.34623 6.0878 9.55819 6.24408 9.71447C6.40036 9.87075 6.61232 9.95855 6.83333 9.95855ZM12.1108 7.66688C12.3993 7.66688 12.6812 7.75241 12.921 7.91266C13.1609 8.0729 13.3478 8.30066 13.4582 8.56714C13.5685 8.83361 13.5974 9.12683 13.5411 9.40972C13.4849 9.69261 13.346 9.95246 13.142 10.1564C12.9381 10.3604 12.6782 10.4993 12.3953 10.5555C12.1125 10.6118 11.8192 10.5829 11.5528 10.4725C11.2863 10.3622 11.0585 10.1752 10.8983 9.93542C10.738 9.6956 10.6525 9.41365 10.6525 9.12522C10.6529 8.73858 10.8067 8.3679 11.0801 8.09451C11.3535 7.82111 11.7242 7.66732 12.1108 7.66688Z" fill="#2BBECB"/>
<path d="M25.1667 15.166H22.8867C22.7081 14.5077 22.3178 13.9265 21.7761 13.5122C21.2343 13.0978 20.5712 12.8733 19.8892 12.8733C19.2071 12.8733 18.544 13.0978 18.0023 13.5122C17.4605 13.9265 17.0702 14.5077 16.8917 15.166H6.83333C6.61232 15.166 6.40036 15.2538 6.24408 15.4101C6.0878 15.5663 6 15.7783 6 15.9993C6 16.2203 6.0878 16.4323 6.24408 16.5886C6.40036 16.7448 6.61232 16.8326 6.83333 16.8326H16.8917C17.0702 17.4909 17.4605 18.0721 18.0023 18.4865C18.544 18.9008 19.2071 19.1253 19.8892 19.1253C20.5712 19.1253 21.2343 18.9008 21.7761 18.4865C22.3178 18.0721 22.7081 17.4909 22.8867 16.8326H25.1667C25.3877 16.8326 25.5996 16.7448 25.7559 16.5886C25.9122 16.4323 26 16.2203 26 15.9993C26 15.7783 25.9122 15.5663 25.7559 15.4101C25.5996 15.2538 25.3877 15.166 25.1667 15.166ZM19.8892 17.4576C19.6007 17.4576 19.3188 17.3721 19.079 17.2119C18.8391 17.0516 18.6522 16.8239 18.5418 16.5574C18.4315 16.2909 18.4026 15.9977 18.4589 15.7148C18.5151 15.4319 18.654 15.1721 18.858 14.9681C19.0619 14.7642 19.3218 14.6253 19.6047 14.569C19.8875 14.5127 20.1808 14.5416 20.4472 14.652C20.7137 14.7624 20.9415 14.9493 21.1017 15.1891C21.262 15.4289 21.3475 15.7109 21.3475 15.9993C21.3471 16.386 21.1933 16.7566 20.9199 17.03C20.6465 17.3034 20.2758 17.4572 19.8892 17.4576Z" fill="#2BBECB"/>
<path d="M25.1667 22.0419H15.1092C14.9303 21.3838 14.5399 20.8028 13.9981 20.3886C13.4563 19.9744 12.7932 19.75 12.1112 19.75C11.4293 19.75 10.7662 19.9744 10.2244 20.3886C9.68264 20.8028 9.2922 21.3838 9.11333 22.0419H6.83333C6.61232 22.0419 6.40036 22.1297 6.24408 22.286C6.0878 22.4422 6 22.6542 6 22.8752C6 23.0962 6.0878 23.3082 6.24408 23.4645C6.40036 23.6207 6.61232 23.7085 6.83333 23.7085H9.11333C9.2922 24.3666 9.68264 24.9476 10.2244 25.3618C10.7662 25.776 11.4293 26.0004 12.1112 26.0004C12.7932 26.0004 13.4563 25.776 13.9981 25.3618C14.5399 24.9476 14.9303 24.3666 15.1092 23.7085H25.1667C25.3877 23.7085 25.5996 23.6207 25.7559 23.4645C25.9122 23.3082 26 23.0962 26 22.8752C26 22.6542 25.9122 22.4422 25.7559 22.286C25.5996 22.1297 25.3877 22.0419 25.1667 22.0419ZM12.1108 24.3335C11.8224 24.3335 11.5404 24.248 11.3006 24.0878C11.0608 23.9275 10.8739 23.6998 10.7635 23.4333C10.6531 23.1668 10.6243 22.8736 10.6805 22.5907C10.7368 22.3078 10.8757 22.048 11.0796 21.844C11.2836 21.6401 11.5434 21.5012 11.8263 21.4449C12.1092 21.3886 12.4024 21.4175 12.6689 21.5279C12.9354 21.6383 13.1631 21.8252 13.3234 22.065C13.4836 22.3048 13.5692 22.5868 13.5692 22.8752C13.5685 23.2618 13.4146 23.6323 13.1413 23.9057C12.868 24.179 12.4974 24.3329 12.1108 24.3335Z" fill="#2BBECB"/>
</g>
<defs>
<clipPath id="clip0_1145_51649">
<rect width="20" height="20" fill="white" transform="translate(6 6)"/>
</clipPath>
</defs>
</svg>
