<svg width="31" height="31" viewBox="0 0 31 31" fill="none" xmlns="http://www.w3.org/2000/svg">
<rect width="31" height="31" rx="3" fill="#D5FAFD"/>
<path d="M24.75 17.3335H7.25C6.55965 17.3335 6 17.8931 6 18.5835C6 19.2738 6.55965 19.8335 7.25 19.8335H24.75C25.4404 19.8335 26 19.2738 26 18.5835C26 17.8931 25.4404 17.3335 24.75 17.3335Z" fill="#2BBECB"/>
<path d="M7.25 14.0003H24.75C25.4404 14.0003 26 13.4406 26 12.7502C26 12.0599 25.4404 11.5002 24.75 11.5002H7.25C6.55965 11.5002 6 12.0599 6 12.7502C6 13.4406 6.55965 14.0003 7.25 14.0003Z" fill="#2BBECB"/>
</svg>
