<svg width="31" height="31" viewBox="0 0 31 31" fill="none" xmlns="http://www.w3.org/2000/svg">
<rect width="31" height="31" rx="3" fill="#D5FAFD"/>
<path d="M20.375 22.5002H11.625C11.2798 22.5002 11 22.948 11 23.5002C11 24.0525 11.2798 24.5002 11.625 24.5002H20.375C20.7202 24.5002 21 24.0525 21 23.5002C21 22.948 20.7202 22.5002 20.375 22.5002Z" fill="#2BBECB"/>
<path d="M19.1466 11.0254L14.5606 6.43937C14.2792 6.15811 13.8976 6.00015 13.4998 6.00024C13.1019 6.00034 12.7204 6.15848 12.4391 6.43987C12.1579 6.72127 11.9999 7.10287 12 7.50072C12.0001 7.89858 12.1582 8.28011 12.4396 8.56137L17.0256 13.1464C17.0722 13.1928 17.1091 13.248 17.1343 13.3087C17.1595 13.3695 17.1725 13.4346 17.1725 13.5004C17.1725 13.5661 17.1595 13.6313 17.1343 13.692C17.1091 13.7528 17.0722 13.8079 17.0256 13.8544L12.4396 18.4394C12.1582 18.7206 12.0001 19.1022 12 19.5C11.9999 19.8979 12.1579 20.2795 12.4391 20.5609C12.7204 20.8423 13.1019 21.0004 13.4998 21.0005C13.8976 21.0006 14.2792 20.8426 14.5606 20.5614L19.1466 15.9754C19.8018 15.3183 20.1698 14.4283 20.1698 13.5004C20.1698 12.5725 19.8018 11.6824 19.1466 11.0254Z" fill="#2BBECB"/>
</svg>
