<svg width="31" height="32" viewBox="0 0 31 32" fill="none" xmlns="http://www.w3.org/2000/svg">
<rect y="0.5" width="31" height="31" rx="3" fill="#D5FAFD"/>
<path d="M25.8327 12.5559V21.167C25.8313 22.3085 25.3773 23.4028 24.5701 24.2099C23.763 25.0171 22.6686 25.4712 21.5271 25.4725H9.47157C8.33009 25.4712 7.23575 25.0171 6.42859 24.2099C5.62144 23.4028 5.16738 22.3085 5.16602 21.167V10.8336C5.16738 9.69215 5.62144 8.59781 6.42859 7.79065C7.23575 6.9835 8.33009 6.52944 9.47157 6.52808H11.6485C12.0492 6.52841 12.4445 6.62155 12.8032 6.80019L15.5209 8.16419C15.641 8.22182 15.7726 8.25127 15.9058 8.2503H21.5271C22.6686 8.25167 23.763 8.70572 24.5701 9.51288C25.3773 10.32 25.8313 11.4144 25.8327 12.5559ZM6.88824 10.8336V11.6947H23.952C23.7746 11.1928 23.4463 10.7579 23.0123 10.4497C22.5782 10.1414 22.0595 9.97473 21.5271 9.97252H15.9058C15.505 9.97219 15.1098 9.87905 14.751 9.70041L12.0334 8.34072C11.9137 8.2816 11.782 8.25067 11.6485 8.2503H9.47157C8.78643 8.2503 8.12935 8.52247 7.64488 9.00694C7.16041 9.49141 6.88824 10.1485 6.88824 10.8336ZM24.1105 21.167V13.417H6.88824V21.167C6.88824 21.8521 7.16041 22.5092 7.64488 22.9937C8.12935 23.4781 8.78643 23.7503 9.47157 23.7503H21.5271C22.2123 23.7503 22.8694 23.4781 23.3538 22.9937C23.8383 22.5092 24.1105 21.8521 24.1105 21.167Z" fill="#2BBECB"/>
<path d="M18.0825 18.5794C18.0804 18.3528 17.9891 18.1363 17.8284 17.9766L15.9814 16.1252C15.9007 16.045 15.7916 16 15.6778 16C15.5641 16 15.4549 16.045 15.3743 16.1252C15.3339 16.1652 15.3019 16.2128 15.28 16.2653C15.2582 16.3178 15.2469 16.3741 15.2469 16.4309C15.2469 16.4877 15.2582 16.544 15.28 16.5965C15.3019 16.6489 15.3339 16.6966 15.3743 16.7366L16.7908 18.1488H12.4852C12.3711 18.1488 12.2615 18.1942 12.1808 18.2749C12.1 18.3557 12.0547 18.4652 12.0547 18.5794C12.0547 18.6936 12.1 18.8031 12.1808 18.8838C12.2615 18.9646 12.3711 19.0099 12.4852 19.0099H16.7908L15.3743 20.4264C15.2932 20.507 15.2474 20.6164 15.247 20.7306C15.2466 20.8449 15.2916 20.9546 15.3721 21.0357C15.4526 21.1168 15.562 21.1625 15.6763 21.1629C15.7905 21.1633 15.9003 21.1183 15.9814 21.0378L17.8284 19.1864C17.9901 19.0257 18.0815 18.8074 18.0825 18.5794Z" fill="#2BBECB"/>
</svg>
