<svg width="24" height="24" viewBox="0 0 24 24" fill="none" xmlns="http://www.w3.org/2000/svg">
<g clip-path="url(#clip0_957_11297)">
<path d="M4.5 17.5003H2C1.46957 17.5003 0.960859 17.711 0.585786 18.0861C0.210714 18.4612 0 18.9699 0 19.5003L0 22.0003C0 22.5307 0.210714 23.0394 0.585786 23.4145C0.960859 23.7896 1.46957 24.0003 2 24.0003H4.5C5.03043 24.0003 5.53914 23.7896 5.91421 23.4145C6.28929 23.0394 6.5 22.5307 6.5 22.0003V19.5003C6.5 18.9699 6.28929 18.4612 5.91421 18.0861C5.53914 17.711 5.03043 17.5003 4.5 17.5003ZM4.5 22.0003H2V19.5003H4.5V22.0003Z" fill="#444444"/>
<path d="M22.0001 17.5003H19.5001C18.9697 17.5003 18.4609 17.711 18.0859 18.0861C17.7108 18.4612 17.5001 18.9699 17.5001 19.5003V22.0003C17.5001 22.5307 17.7108 23.0394 18.0859 23.4145C18.4609 23.7896 18.9697 24.0003 19.5001 24.0003H22.0001C22.5305 24.0003 23.0392 23.7896 23.4143 23.4145C23.7894 23.0394 24.0001 22.5307 24.0001 22.0003V19.5003C24.0001 18.9699 23.7894 18.4612 23.4143 18.0861C23.0392 17.711 22.5305 17.5003 22.0001 17.5003ZM22.0001 22.0003H19.5001V19.5003H22.0001V22.0003Z" fill="#444444"/>
<path d="M4.5 8.74969H2C1.46957 8.74969 0.960859 8.96041 0.585786 9.33548C0.210714 9.71055 0 10.2193 0 10.7497L0 13.2497C0 13.7801 0.210714 14.2888 0.585786 14.6639C0.960859 15.039 1.46957 15.2497 2 15.2497H4.5C5.03043 15.2497 5.53914 15.039 5.91421 14.6639C6.28929 14.2888 6.5 13.7801 6.5 13.2497V10.7497C6.5 10.2193 6.28929 9.71055 5.91421 9.33548C5.53914 8.96041 5.03043 8.74969 4.5 8.74969ZM4.5 13.2497H2V10.7497H4.5V13.2497Z" fill="#444444"/>
<path d="M22.0001 8.74969H19.5001C18.9697 8.74969 18.4609 8.96041 18.0859 9.33548C17.7108 9.71055 17.5001 10.2193 17.5001 10.7497V13.2497C17.5001 13.7801 17.7108 14.2888 18.0859 14.6639C18.4609 15.039 18.9697 15.2497 19.5001 15.2497H22.0001C22.5305 15.2497 23.0392 15.039 23.4143 14.6639C23.7894 14.2888 24.0001 13.7801 24.0001 13.2497V10.7497C24.0001 10.2193 23.7894 9.71055 23.4143 9.33548C23.0392 8.96041 22.5305 8.74969 22.0001 8.74969ZM22.0001 13.2497H19.5001V10.7497H22.0001V13.2497Z" fill="#444444"/>
<path d="M4.5 0H2C1.46957 0 0.960859 0.210714 0.585786 0.585786C0.210714 0.960859 0 1.46957 0 2L0 4.5C0 5.03043 0.210714 5.53914 0.585786 5.91421C0.960859 6.28929 1.46957 6.5 2 6.5H4.5C5.03043 6.5 5.53914 6.28929 5.91421 5.91421C6.28929 5.53914 6.5 5.03043 6.5 4.5V2C6.5 1.46957 6.28929 0.960859 5.91421 0.585786C5.53914 0.210714 5.03043 0 4.5 0V0ZM4.5 4.5H2V2H4.5V4.5Z" fill="#444444"/>
<path d="M13.2499 17.5003H10.7499C10.2195 17.5003 9.7108 17.711 9.33572 18.0861C8.96065 18.4612 8.74994 18.9699 8.74994 19.5003V22.0003C8.74994 22.5307 8.96065 23.0394 9.33572 23.4145C9.7108 23.7896 10.2195 24.0003 10.7499 24.0003H13.2499C13.7804 24.0003 14.2891 23.7896 14.6641 23.4145C15.0392 23.0394 15.2499 22.5307 15.2499 22.0003V19.5003C15.2499 18.9699 15.0392 18.4612 14.6641 18.0861C14.2891 17.711 13.7804 17.5003 13.2499 17.5003ZM13.2499 22.0003H10.7499V19.5003H13.2499V22.0003Z" fill="#444444"/>
<path d="M13.2499 8.74969H10.7499C10.2195 8.74969 9.7108 8.96041 9.33572 9.33548C8.96065 9.71055 8.74994 10.2193 8.74994 10.7497V13.2497C8.74994 13.7801 8.96065 14.2888 9.33572 14.6639C9.7108 15.039 10.2195 15.2497 10.7499 15.2497H13.2499C13.7804 15.2497 14.2891 15.039 14.6641 14.6639C15.0392 14.2888 15.2499 13.7801 15.2499 13.2497V10.7497C15.2499 10.2193 15.0392 9.71055 14.6641 9.33548C14.2891 8.96041 13.7804 8.74969 13.2499 8.74969ZM13.2499 13.2497H10.7499V10.7497H13.2499V13.2497Z" fill="#444444"/>
<path d="M13.2499 0H10.7499C10.2195 0 9.7108 0.210714 9.33572 0.585786C8.96065 0.960859 8.74994 1.46957 8.74994 2V4.5C8.74994 5.03043 8.96065 5.53914 9.33572 5.91421C9.7108 6.28929 10.2195 6.5 10.7499 6.5H13.2499C13.7804 6.5 14.2891 6.28929 14.6641 5.91421C15.0392 5.53914 15.2499 5.03043 15.2499 4.5V2C15.2499 1.46957 15.0392 0.960859 14.6641 0.585786C14.2891 0.210714 13.7804 0 13.2499 0V0ZM13.2499 4.5H10.7499V2H13.2499V4.5Z" fill="#444444"/>
<path d="M22.0001 0H19.5001C18.9697 0 18.4609 0.210714 18.0859 0.585786C17.7108 0.960859 17.5001 1.46957 17.5001 2V4.5C17.5001 5.03043 17.7108 5.53914 18.0859 5.91421C18.4609 6.28929 18.9697 6.5 19.5001 6.5H22.0001C22.5305 6.5 23.0392 6.28929 23.4143 5.91421C23.7894 5.53914 24.0001 5.03043 24.0001 4.5V2C24.0001 1.46957 23.7894 0.960859 23.4143 0.585786C23.0392 0.210714 22.5305 0 22.0001 0V0ZM22.0001 4.5H19.5001V2H22.0001V4.5Z" fill="#444444"/>
</g>
<defs>
<clipPath id="clip0_957_11297">
<rect width="24" height="24" fill="white"/>
</clipPath>
</defs>
</svg>
