<svg width="16" height="16" viewBox="0 0 16 16" fill="none" xmlns="http://www.w3.org/2000/svg">
<path d="M12.7074 5.2355C12.6146 5.14258 12.5043 5.06886 12.3829 5.01856C12.2615 4.96827 12.1315 4.94238 12.0001 4.94238C11.8687 4.94238 11.7386 4.96827 11.6173 5.01856C11.4959 5.06886 11.3856 5.14258 11.2928 5.2355L8.23542 8.29217C8.17291 8.35466 8.08814 8.38976 7.99975 8.38976C7.91136 8.38976 7.82659 8.35466 7.76409 8.29217L4.70742 5.2355C4.51991 5.04791 4.26556 4.94248 4.00032 4.94242C3.73508 4.94236 3.48068 5.04766 3.29308 5.23517C3.10549 5.42268 3.00006 5.67703 3 5.94227C2.99994 6.20751 3.10524 6.46191 3.29275 6.6495L6.35008 9.70684C6.56676 9.92353 6.82399 10.0954 7.1071 10.2127C7.39021 10.33 7.69365 10.3903 8.00009 10.3903C8.30652 10.3903 8.60996 10.33 8.89307 10.2127C9.17618 10.0954 9.43341 9.92353 9.65009 9.70684L12.7074 6.6495C12.8949 6.46197 13.0002 6.20767 13.0002 5.9425C13.0002 5.67734 12.8949 5.42303 12.7074 5.2355Z" fill="#2771C7"/>
</svg>
