<svg width="auto" height="auto" viewBox="0 0 15 16" fill="none" xmlns="http://www.w3.org/2000/svg">
<path d="M10.8887 9.33335C10.8887 9.51016 10.8184 9.67973 10.6934 9.80475C10.5684 9.92978 10.3988 10 10.222 10H4.88867C4.71186 10 4.54229 9.92978 4.41727 9.80475C4.29224 9.67973 4.22201 9.51016 4.22201 9.33335C4.22201 9.15654 4.29224 8.98697 4.41727 8.86194C4.54229 8.73692 4.71186 8.66668 4.88867 8.66668H10.222C10.3988 8.66668 10.5684 8.73692 10.6934 8.86194C10.8184 8.98697 10.8887 9.15654 10.8887 9.33335ZM8.22201 11.3333H4.88867C4.71186 11.3333 4.54229 11.4036 4.41727 11.5286C4.29224 11.6536 4.22201 11.8232 4.22201 12C4.22201 12.1768 4.29224 12.3464 4.41727 12.4714C4.54229 12.5964 4.71186 12.6667 4.88867 12.6667H8.22201C8.39882 12.6667 8.56839 12.5964 8.69341 12.4714C8.81843 12.3464 8.88867 12.1768 8.88867 12C8.88867 11.8232 8.81843 11.6536 8.69341 11.5286C8.56839 11.4036 8.39882 11.3333 8.22201 11.3333ZM14.222 6.99002V12.6667C14.2209 13.5504 13.8694 14.3976 13.2445 15.0225C12.6196 15.6474 11.7724 15.999 10.8887 16H4.22201C3.33828 15.999 2.49104 15.6474 1.86615 15.0225C1.24126 14.3976 0.88973 13.5504 0.888672 12.6667V3.33335C0.88973 2.44962 1.24126 1.60239 1.86615 0.977495C2.49104 0.352603 3.33828 0.00107394 4.22201 1.53658e-05H7.23201C7.84508 -0.00156258 8.45239 0.118407 9.01882 0.352988C9.58525 0.587569 10.0996 0.932107 10.532 1.36668L12.8547 3.69068C13.2895 4.12284 13.6342 4.63699 13.869 5.20333C14.1037 5.76968 14.2237 6.37696 14.222 6.99002V6.99002ZM9.58934 2.30935C9.37953 2.10612 9.14396 1.9313 8.88867 1.78935V4.66668C8.88867 4.84349 8.95891 5.01306 9.08393 5.13809C9.20896 5.26311 9.37853 5.33335 9.55534 5.33335H12.4327C12.2906 5.07814 12.1156 4.84278 11.912 4.63335L9.58934 2.30935ZM12.8887 6.99002C12.8887 6.88002 12.8673 6.77468 12.8573 6.66668H9.55534C9.02491 6.66668 8.5162 6.45597 8.14112 6.0809C7.76605 5.70582 7.55534 5.19712 7.55534 4.66668V1.36468C7.44734 1.35468 7.34134 1.33335 7.23201 1.33335H4.22201C3.69157 1.33335 3.18286 1.54406 2.80779 1.91914C2.43272 2.29421 2.22201 2.80292 2.22201 3.33335V12.6667C2.22201 13.1971 2.43272 13.7058 2.80779 14.0809C3.18286 14.456 3.69157 14.6667 4.22201 14.6667H10.8887C11.4191 14.6667 11.9278 14.456 12.3029 14.0809C12.678 13.7058 12.8887 13.1971 12.8887 12.6667V6.99002Z" fill="#2BBECB"/>
</svg>
