<svg width="20" height="20" viewBox="0 0 20 20" fill="none" xmlns="http://www.w3.org/2000/svg">
<path d="M1.875 18.75H3.75V1.875C3.75 1.37772 3.94754 0.900805 4.29917 0.549175C4.65081 0.197544 5.12772 0 5.625 0L15.625 0C16.1223 0 16.5992 0.197544 16.9508 0.549175C17.3025 0.900805 17.5 1.37772 17.5 1.875V9.375C17.5 9.54076 17.4342 9.69973 17.3169 9.81694C17.1997 9.93415 17.0408 10 16.875 10C16.7092 10 16.5503 9.93415 16.4331 9.81694C16.3158 9.69973 16.25 9.54076 16.25 9.375V1.875C16.25 1.70924 16.1842 1.55027 16.0669 1.43306C15.9497 1.31585 15.7908 1.25 15.625 1.25H5.625C5.45924 1.25 5.30027 1.31585 5.18306 1.43306C5.06585 1.55027 5 1.70924 5 1.875V18.75H9.375C9.54076 18.75 9.69973 18.8158 9.81694 18.9331C9.93415 19.0503 10 19.2092 10 19.375C10 19.5408 9.93415 19.6997 9.81694 19.8169C9.69973 19.9342 9.54076 20 9.375 20H1.875C1.70924 20 1.55027 19.9342 1.43306 19.8169C1.31585 19.6997 1.25 19.5408 1.25 19.375C1.25 19.2092 1.31585 19.0503 1.43306 18.9331C1.55027 18.8158 1.70924 18.75 1.875 18.75Z" fill="#2BBECB"/>
<path d="M6.38742 8.04379L7.36606 7.06515C7.38575 7.04477 7.4093 7.02851 7.43533 7.01733C7.46137 7.00614 7.48937 7.00025 7.5177 7.00001C7.54604 6.99976 7.57414 7.00516 7.60036 7.01589C7.62659 7.02662 7.65042 7.04247 7.67045 7.0625C7.69049 7.08254 7.70633 7.10637 7.71706 7.13259C7.72779 7.15882 7.73319 7.18692 7.73295 7.21525C7.7327 7.24359 7.72681 7.27159 7.71563 7.29762C7.70445 7.32366 7.68819 7.34721 7.66781 7.36689L6.75831 8.27661L9.9868 8.28301C10.0434 8.28301 10.0977 8.30549 10.1377 8.34551C10.1777 8.38553 10.2002 8.43981 10.2002 8.4964C10.2002 8.553 10.1777 8.60728 10.1377 8.6473C10.0977 8.68732 10.0434 8.7098 9.9868 8.7098L6.74572 8.70319L7.66823 9.62592C7.68862 9.6456 7.70487 9.66915 7.71606 9.69519C7.72724 9.72122 7.73313 9.74922 7.73337 9.77756C7.73362 9.80589 7.72822 9.83399 7.71749 9.86022C7.70676 9.88644 7.69092 9.91027 7.67088 9.93031C7.65084 9.95034 7.62702 9.96619 7.60079 9.97692C7.57456 9.98765 7.54646 9.99305 7.51813 9.9928C7.48979 9.99256 7.46179 9.98667 7.43576 9.97548C7.40972 9.9643 7.38618 9.94804 7.36649 9.92766L6.38785 8.94902C6.26777 8.82902 6.20028 8.66625 6.2002 8.49649C6.20012 8.32674 6.26746 8.1639 6.38742 8.04379Z" fill="#2BBECB"/>
<g clip-path="url(#clip0_1878_10205)">
<path d="M11.9502 13.25H13.4502V14.22C13.4502 14.2943 13.4207 14.3655 13.3682 14.418C13.3157 14.4705 13.2445 14.5 13.1702 14.5H12.2302C12.1559 14.5 12.0847 14.4705 12.0322 14.418C11.9797 14.3655 11.9502 14.2943 11.9502 14.22V13.25Z" fill="#AAE5EA"/>
<path d="M18.0527 16.25L17.6677 15.865L17.2452 14.5925C17.2121 14.4927 17.1484 14.4059 17.0631 14.3444C16.9778 14.2829 16.8753 14.2499 16.7702 14.25H15.2002V13.75C15.2002 13.5511 15.1212 13.3603 14.9805 13.2197C14.8399 13.079 14.6491 13 14.4502 13H10.9502C10.7513 13 10.5605 13.079 10.4199 13.2197C10.2792 13.3603 10.2002 13.5511 10.2002 13.75V17.5C10.2002 17.6989 10.2792 17.8897 10.4199 18.0303C10.5605 18.171 10.7513 18.25 10.9502 18.25H11.2352C11.296 18.4857 11.4408 18.691 11.6422 18.8277C11.8436 18.9643 12.088 19.0227 12.3294 18.992C12.5709 18.9614 12.7929 18.8437 12.9538 18.6611C13.1147 18.4784 13.2034 18.2434 13.2034 18C13.2034 17.7566 13.1147 17.5216 12.9538 17.3389C12.7929 17.1563 12.5709 17.0386 12.3294 17.008C12.088 16.9773 11.8436 17.0357 11.6422 17.1723C11.4408 17.309 11.296 17.5143 11.2352 17.75H10.9502C10.8839 17.75 10.8203 17.7237 10.7734 17.6768C10.7265 17.6299 10.7002 17.5663 10.7002 17.5V13.75C10.7002 13.6837 10.7265 13.6201 10.7734 13.5732C10.8203 13.5263 10.8839 13.5 10.9502 13.5H14.4502C14.5165 13.5 14.5801 13.5263 14.627 13.5732C14.6739 13.6201 14.7002 13.6837 14.7002 13.75V17.75H13.9502C13.8839 17.75 13.8203 17.7763 13.7734 17.8232C13.7265 17.8701 13.7002 17.9337 13.7002 18C13.7002 18.0663 13.7265 18.1299 13.7734 18.1768C13.8203 18.2237 13.8839 18.25 13.9502 18.25H15.4852C15.5428 18.4618 15.6684 18.6489 15.8428 18.7822C16.0172 18.9155 16.2307 18.9878 16.4502 18.9878C16.6697 18.9878 16.8831 18.9155 17.0575 18.7822C17.2319 18.6489 17.3576 18.4618 17.4152 18.25H17.7002C17.8328 18.25 17.96 18.1973 18.0537 18.1036C18.1475 18.0098 18.2002 17.8826 18.2002 17.75V16.6025C18.1996 16.4701 18.1466 16.3433 18.0527 16.25ZM12.2002 17.5C12.2991 17.5 12.3958 17.5293 12.478 17.5843C12.5602 17.6392 12.6243 17.7173 12.6621 17.8087C12.7 17.9 12.7099 18.0006 12.6906 18.0975C12.6713 18.1945 12.6237 18.2836 12.5537 18.3536C12.4838 18.4235 12.3947 18.4711 12.2977 18.4904C12.2007 18.5097 12.1002 18.4998 12.0089 18.4619C11.9175 18.4241 11.8394 18.36 11.7845 18.2778C11.7295 18.1956 11.7002 18.0989 11.7002 18C11.7002 17.8674 11.7529 17.7402 11.8466 17.6464C11.9404 17.5527 12.0676 17.5 12.2002 17.5ZM17.1027 15.75H16.2002V14.75H16.7702L17.1027 15.75ZM16.4502 18.5C16.3513 18.5 16.2546 18.4707 16.1724 18.4157C16.0902 18.3608 16.0261 18.2827 15.9883 18.1913C15.9504 18.1 15.9405 17.9994 15.9598 17.9025C15.9791 17.8055 16.0267 17.7164 16.0966 17.6464C16.1666 17.5765 16.2557 17.5289 16.3527 17.5096C16.4496 17.4903 16.5502 17.5002 16.6415 17.5381C16.7329 17.5759 16.811 17.64 16.8659 17.7222C16.9209 17.8044 16.9502 17.9011 16.9502 18C16.9502 18.1326 16.8975 18.2598 16.8037 18.3536C16.71 18.4473 16.5828 18.5 16.4502 18.5ZM17.7002 17.75H17.4152C17.3576 17.5382 17.2319 17.3511 17.0575 17.2178C16.8831 17.0845 16.6697 17.0123 16.4502 17.0123C16.2307 17.0123 16.0172 17.0845 15.8428 17.2178C15.6684 17.3511 15.5428 17.5382 15.4852 17.75H15.2002V14.75H15.7002V16C15.7002 16.0663 15.7265 16.1299 15.7734 16.1768C15.8203 16.2237 15.8839 16.25 15.9502 16.25H17.3477L17.7002 16.6025V17.75Z" fill="#2BBECB"/>
</g>
<defs>
<clipPath id="clip0_1878_10205">
<rect width="8" height="8" fill="white" transform="translate(10.2002 12)"/>
</clipPath>
</defs>
</svg>
