<svg width="20" height="20" viewBox="0 0 20 20" fill="none" xmlns="http://www.w3.org/2000/svg">
<g id="IC_Delivery Truck" clip-path="url(#clip0_1878_10144)">
<g id="14. Delivery Truck">
<path id="Vector" d="M4.375 3.125H8.125V5.55C8.125 5.73565 8.05125 5.9137 7.91997 6.04497C7.7887 6.17625 7.61065 6.25 7.425 6.25H5.075C4.88935 6.25 4.7113 6.17625 4.58003 6.04497C4.44875 5.9137 4.375 5.73565 4.375 5.55V3.125Z" fill="#AAE5EA"/>
<path id="Vector_2" d="M19.6313 10.625L18.6688 9.6625L17.6125 6.48125C17.5297 6.23181 17.3704 6.0148 17.1572 5.86109C16.944 5.70737 16.6878 5.62476 16.425 5.625H12.5V4.375C12.5 3.87772 12.3025 3.40081 11.9508 3.04917C11.5992 2.69754 11.1223 2.5 10.625 2.5H1.875C1.37772 2.5 0.900805 2.69754 0.549175 3.04917C0.197544 3.40081 0 3.87772 0 4.375L0 13.75C0 14.2473 0.197544 14.7242 0.549175 15.0758C0.900805 15.4275 1.37772 15.625 1.875 15.625H2.5875C2.73962 16.2142 3.10139 16.7276 3.605 17.0691C4.10862 17.4106 4.71949 17.5567 5.32312 17.4801C5.92676 17.4034 6.48171 17.1092 6.88395 16.6526C7.28619 16.1961 7.50811 15.6085 7.50811 15C7.50811 14.3915 7.28619 13.8039 6.88395 13.3474C6.48171 12.8908 5.92676 12.5966 5.32312 12.5199C4.71949 12.4433 4.10862 12.5894 3.605 12.9309C3.10139 13.2724 2.73962 13.7858 2.5875 14.375H1.875C1.70924 14.375 1.55027 14.3092 1.43306 14.1919C1.31585 14.0747 1.25 13.9158 1.25 13.75V4.375C1.25 4.20924 1.31585 4.05027 1.43306 3.93306C1.55027 3.81585 1.70924 3.75 1.875 3.75H10.625C10.7908 3.75 10.9497 3.81585 11.0669 3.93306C11.1842 4.05027 11.25 4.20924 11.25 4.375V14.375H9.375C9.20924 14.375 9.05027 14.4408 8.93306 14.5581C8.81585 14.6753 8.75 14.8342 8.75 15C8.75 15.1658 8.81585 15.3247 8.93306 15.4419C9.05027 15.5592 9.20924 15.625 9.375 15.625H13.2125C13.3564 16.1546 13.6706 16.6221 14.1066 16.9555C14.5426 17.2888 15.0762 17.4694 15.625 17.4694C16.1738 17.4694 16.7074 17.2888 17.1434 16.9555C17.5794 16.6221 17.8936 16.1546 18.0375 15.625H18.75C19.0815 15.625 19.3995 15.4933 19.6339 15.2589C19.8683 15.0245 20 14.7065 20 14.375V11.5063C19.9986 11.1753 19.866 10.8583 19.6313 10.625ZM5 13.75C5.24723 13.75 5.4889 13.8233 5.69446 13.9607C5.90002 14.098 6.06024 14.2932 6.15485 14.5216C6.24946 14.7501 6.27421 15.0014 6.22598 15.2439C6.17775 15.4863 6.0587 15.7091 5.88388 15.8839C5.70907 16.0587 5.48634 16.1778 5.24386 16.226C5.00139 16.2742 4.75005 16.2495 4.52165 16.1549C4.29324 16.0602 4.09801 15.9 3.96066 15.6945C3.82331 15.4889 3.75 15.2472 3.75 15C3.75 14.6685 3.8817 14.3505 4.11612 14.1161C4.35054 13.8817 4.66848 13.75 5 13.75ZM17.2563 9.375H15V6.875H16.425L17.2563 9.375ZM15.625 16.25C15.3778 16.25 15.1361 16.1767 14.9305 16.0393C14.725 15.902 14.5648 15.7068 14.4701 15.4784C14.3755 15.2499 14.3508 14.9986 14.399 14.7561C14.4472 14.5137 14.5663 14.2909 14.7411 14.1161C14.9159 13.9413 15.1387 13.8222 15.3811 13.774C15.6236 13.7258 15.8749 13.7505 16.1034 13.8451C16.3318 13.9398 16.527 14.1 16.6643 14.3055C16.8017 14.5111 16.875 14.7528 16.875 15C16.875 15.3315 16.7433 15.6495 16.5089 15.8839C16.2745 16.1183 15.9565 16.25 15.625 16.25ZM18.75 14.375H18.0375C17.8936 13.8454 17.5794 13.3779 17.1434 13.0445C16.7074 12.7112 16.1738 12.5306 15.625 12.5306C15.0762 12.5306 14.5426 12.7112 14.1066 13.0445C13.6706 13.3779 13.3564 13.8454 13.2125 14.375H12.5V6.875H13.75V10C13.75 10.1658 13.8158 10.3247 13.9331 10.4419C14.0503 10.5592 14.2092 10.625 14.375 10.625H17.8687L18.75 11.5063V14.375Z" fill="#2BBECB"/>
</g>
</g>
<defs>
<clipPath id="clip0_1878_10144">
<rect width="20" height="20" fill="white"/>
</clipPath>
</defs>
</svg>
