<svg width="20" height="20" viewBox="0 0 20 20" fill="none" xmlns="http://www.w3.org/2000/svg">
<g id="7952177_delivery_package_time_box_service_icon 1" clip-path="url(#clip0_1878_10157)">
<g id="20. Delivery">
<path id="Vector" d="M6.25 0.625H10V3.83125C10 3.97546 9.94271 4.11377 9.84074 4.21574C9.73877 4.31771 9.60046 4.375 9.45625 4.375H6.79375C6.64954 4.375 6.51123 4.31771 6.40926 4.21574C6.30729 4.11377 6.25 3.97546 6.25 3.83125V0.625Z" fill="#AAE5EA"/>
<path id="Vector_2" d="M6.875 16.25H1.875C1.37772 16.25 0.900805 16.0525 0.549175 15.7008C0.197544 15.3492 0 14.8723 0 14.375L0 1.875C0 1.37772 0.197544 0.900805 0.549175 0.549175C0.900805 0.197544 1.37772 0 1.875 0L14.375 0C14.8723 0 15.3492 0.197544 15.7008 0.549175C16.0525 0.900805 16.25 1.37772 16.25 1.875V6.875C16.25 7.04076 16.1842 7.19973 16.0669 7.31694C15.9497 7.43415 15.7908 7.5 15.625 7.5C15.4592 7.5 15.3003 7.43415 15.1831 7.31694C15.0658 7.19973 15 7.04076 15 6.875V1.875C15 1.70924 14.9342 1.55027 14.8169 1.43306C14.6997 1.31585 14.5408 1.25 14.375 1.25H1.875C1.70924 1.25 1.55027 1.31585 1.43306 1.43306C1.31585 1.55027 1.25 1.70924 1.25 1.875V14.375C1.25 14.5408 1.31585 14.6997 1.43306 14.8169C1.55027 14.9342 1.70924 15 1.875 15H6.875C7.04076 15 7.19973 15.0658 7.31694 15.1831C7.43415 15.3003 7.5 15.4592 7.5 15.625C7.5 15.7908 7.43415 15.9497 7.31694 16.0669C7.19973 16.1842 7.04076 16.25 6.875 16.25Z" fill="#2BBECB"/>
<path id="Vector_3" d="M4.375 13.75H3.125C2.95924 13.75 2.80027 13.6842 2.68306 13.5669C2.56585 13.4497 2.5 13.2908 2.5 13.125C2.5 12.9592 2.56585 12.8003 2.68306 12.6831C2.80027 12.5658 2.95924 12.5 3.125 12.5H4.375C4.54076 12.5 4.69973 12.5658 4.81694 12.6831C4.93415 12.8003 5 12.9592 5 13.125C5 13.2908 4.93415 13.4497 4.81694 13.5669C4.69973 13.6842 4.54076 13.75 4.375 13.75Z" fill="#2BBECB"/>
<path id="Vector_4" d="M14.375 20C13.2625 20 12.1749 19.6701 11.2499 19.052C10.3249 18.4339 9.60392 17.5554 9.17818 16.5276C8.75244 15.4998 8.64104 14.3688 8.85809 13.2776C9.07513 12.1865 9.61086 11.1842 10.3975 10.3975C11.1842 9.61086 12.1865 9.07513 13.2776 8.85809C14.3688 8.64104 15.4998 8.75244 16.5276 9.17818C17.5554 9.60392 18.4339 10.3249 19.052 11.2499C19.6701 12.1749 20 13.2625 20 14.375C20 15.8668 19.4074 17.2976 18.3525 18.3525C17.2976 19.4074 15.8668 20 14.375 20ZM14.375 10C13.5097 10 12.6638 10.2566 11.9444 10.7373C11.2249 11.2181 10.6642 11.9013 10.333 12.7008C10.0019 13.5002 9.91526 14.3799 10.0841 15.2285C10.2529 16.0772 10.6696 16.8567 11.2814 17.4686C11.8933 18.0804 12.6728 18.4971 13.5215 18.6659C14.3701 18.8347 15.2498 18.7481 16.0492 18.417C16.8487 18.0858 17.532 17.5251 18.0127 16.8056C18.4934 16.0862 18.75 15.2403 18.75 14.375C18.75 13.2147 18.2891 12.1019 17.4686 11.2814C16.6481 10.4609 15.5353 10 14.375 10Z" fill="#2BBECB"/>
<path id="Vector_5" d="M12.4997 16.875C12.4175 16.8755 12.3359 16.8597 12.2598 16.8286C12.1836 16.7975 12.1144 16.7517 12.056 16.6937C11.9974 16.6356 11.9509 16.5665 11.9192 16.4904C11.8874 16.4142 11.8711 16.3325 11.8711 16.25C11.8711 16.1675 11.8874 16.0858 11.9192 16.0096C11.9509 15.9335 11.9974 15.8644 12.056 15.8063L13.7497 14.1188V11.875C13.7497 11.7092 13.8156 11.5503 13.9328 11.4331C14.05 11.3158 14.209 11.25 14.3747 11.25C14.5405 11.25 14.6994 11.3158 14.8167 11.4331C14.9339 11.5503 14.9997 11.7092 14.9997 11.875V14.375C15.0002 14.4573 14.9844 14.5388 14.9533 14.6149C14.9222 14.6911 14.8764 14.7603 14.8185 14.8187L12.9435 16.6937C12.8851 16.7517 12.8158 16.7975 12.7397 16.8286C12.6635 16.8597 12.582 16.8755 12.4997 16.875Z" fill="#AAE5EA"/>
</g>
</g>
<defs>
<clipPath id="clip0_1878_10157">
<rect width="20" height="20" fill="white"/>
</clipPath>
</defs>
</svg>
