<svg width="20" height="20" viewBox="0 0 20 20" fill="none" xmlns="http://www.w3.org/2000/svg">
<g id="7952191_door_delivery_service_home_untact_icon 1">
<g id="2. Door Delivery">
<path id="Vector" d="M1.875 18.75H3.75V1.875C3.75 1.37772 3.94754 0.900805 4.29917 0.549175C4.65081 0.197544 5.12772 0 5.625 0L15.625 0C16.1223 0 16.5992 0.197544 16.9508 0.549175C17.3025 0.900805 17.5 1.37772 17.5 1.875V9.375C17.5 9.54076 17.4342 9.69973 17.3169 9.81694C17.1997 9.93415 17.0408 10 16.875 10C16.7092 10 16.5503 9.93415 16.4331 9.81694C16.3158 9.69973 16.25 9.54076 16.25 9.375V1.875C16.25 1.70924 16.1842 1.55027 16.0669 1.43306C15.9497 1.31585 15.7908 1.25 15.625 1.25H5.625C5.45924 1.25 5.30027 1.31585 5.18306 1.43306C5.06585 1.55027 5 1.70924 5 1.875V18.75H9.375C9.54076 18.75 9.69973 18.8158 9.81694 18.9331C9.93415 19.0503 10 19.2092 10 19.375C10 19.5408 9.93415 19.6997 9.81694 19.8169C9.69973 19.9342 9.54076 20 9.375 20H1.875C1.70924 20 1.55027 19.9342 1.43306 19.8169C1.31585 19.6997 1.25 19.5408 1.25 19.375C1.25 19.2092 1.31585 19.0503 1.43306 18.9331C1.55027 18.8158 1.70924 18.75 1.875 18.75Z" fill="#2BBECB"/>
<path id="Vector_2" d="M6.58762 8.04379L7.56626 7.06515C7.58594 7.04477 7.60949 7.02851 7.63553 7.01733C7.66156 7.00614 7.68956 7.00025 7.7179 7.00001C7.74623 6.99976 7.77433 7.00516 7.80056 7.01589C7.82678 7.02662 7.85061 7.04247 7.87065 7.0625C7.89068 7.08254 7.90653 7.10637 7.91726 7.13259C7.92799 7.15882 7.93339 7.18692 7.93314 7.21525C7.9329 7.24359 7.92701 7.27159 7.91582 7.29762C7.90464 7.32366 7.88838 7.34721 7.868 7.36689L6.9585 8.27661L10.187 8.28301C10.2436 8.28301 10.2979 8.30549 10.3379 8.34551C10.3779 8.38553 10.4004 8.43981 10.4004 8.4964C10.4004 8.553 10.3779 8.60728 10.3379 8.6473C10.2979 8.68732 10.2436 8.7098 10.187 8.7098L6.94591 8.70319L7.86843 9.62592C7.88881 9.6456 7.90507 9.66915 7.91625 9.69519C7.92744 9.72122 7.93332 9.74922 7.93357 9.77756C7.93382 9.80589 7.92842 9.83399 7.91769 9.86022C7.90696 9.88644 7.89111 9.91027 7.87107 9.93031C7.85104 9.95034 7.82721 9.96619 7.80099 9.97692C7.77476 9.98765 7.74666 9.99305 7.71832 9.9928C7.68999 9.99256 7.66199 9.98667 7.63595 9.97548C7.60992 9.9643 7.58637 9.94804 7.56669 9.92766L6.58804 8.94902C6.46797 8.82902 6.40047 8.66625 6.40039 8.49649C6.40031 8.32674 6.46766 8.1639 6.58762 8.04379Z" fill="#2BBECB"/>
<g id="Group 1000002823">
<path id="Vector_3" d="M14.7998 19C14.0087 19 13.2353 18.7654 12.5775 18.3259C11.9197 17.8864 11.407 17.2616 11.1043 16.5307C10.8015 15.7998 10.7223 14.9956 10.8767 14.2196C11.031 13.4437 11.412 12.731 11.9714 12.1716C12.5308 11.6122 13.2435 11.2312 14.0194 11.0769C14.7954 10.9225 15.5996 11.0017 16.3305 11.3045C17.0614 11.6072 17.6862 12.1199 18.1257 12.7777C18.5652 13.4355 18.7998 14.2089 18.7998 15C18.7998 16.0609 18.3784 17.0783 17.6282 17.8284C16.8781 18.5786 15.8607 19 14.7998 19ZM14.7998 11.8889C14.1845 11.8889 13.583 12.0714 13.0714 12.4132C12.5597 12.7551 12.161 13.2409 11.9255 13.8094C11.69 14.3779 11.6284 15.0035 11.7485 15.6069C11.8685 16.2104 12.1648 16.7648 12.5999 17.1999C13.035 17.635 13.5894 17.9313 14.1929 18.0513C14.7964 18.1714 15.4219 18.1098 15.9904 17.8743C16.5589 17.6388 17.0447 17.2401 17.3866 16.7284C17.7285 16.2168 17.9109 15.6153 17.9109 15C17.9109 14.1749 17.5831 13.3836 16.9997 12.8001C16.4162 12.2167 15.6249 11.8889 14.7998 11.8889Z" fill="#2BBECB"/>
<path id="Vector_4" d="M13.4666 16.7778C13.4081 16.7781 13.3501 16.7669 13.2959 16.7448C13.2418 16.7227 13.1925 16.6901 13.151 16.6489C13.1093 16.6076 13.0763 16.5584 13.0537 16.5043C13.0311 16.4501 13.0195 16.392 13.0195 16.3333C13.0195 16.2747 13.0311 16.2166 13.0537 16.1624C13.0763 16.1083 13.1093 16.0591 13.151 16.0178L14.3554 14.8178V13.2222C14.3554 13.1043 14.4023 12.9913 14.4856 12.908C14.569 12.8246 14.682 12.7778 14.7999 12.7778C14.9178 12.7778 15.0308 12.8246 15.1142 12.908C15.1975 12.9913 15.2443 13.1043 15.2443 13.2222V15C15.2447 15.0585 15.2335 15.1165 15.2113 15.1706C15.1892 15.2248 15.1566 15.274 15.1154 15.3156L13.7821 16.6489C13.7406 16.6901 13.6913 16.7227 13.6372 16.7448C13.583 16.7669 13.525 16.7781 13.4666 16.7778Z" fill="#AAE5EA"/>
</g>
</g>
</g>
</svg>
