<svg width="32" height="32" viewBox="0 0 32 32" fill="none" xmlns="http://www.w3.org/2000/svg">
<g clip-path="url(#clip0_2923_5389)">
<path d="M16.0001 16C16.7912 16 17.5645 15.7654 18.2223 15.3259C18.8801 14.8864 19.3928 14.2616 19.6956 13.5307C19.9983 12.7998 20.0775 11.9956 19.9232 11.2196C19.7689 10.4437 19.3879 9.73098 18.8285 9.17157C18.2691 8.61216 17.5563 8.2312 16.7804 8.07686C16.0045 7.92252 15.2002 8.00173 14.4693 8.30448C13.7384 8.60723 13.1137 9.11992 12.6742 9.77772C12.2347 10.4355 12.0001 11.2089 12.0001 12C12.0001 13.0609 12.4215 14.0783 13.1716 14.8284C13.9218 15.5786 14.9392 16 16.0001 16ZM16.0001 10C16.3956 10 16.7823 10.1173 17.1112 10.3371C17.4401 10.5568 17.6964 10.8692 17.8478 11.2346C17.9992 11.6001 18.0388 12.0022 17.9616 12.3902C17.8845 12.7781 17.694 13.1345 17.4143 13.4142C17.1346 13.6939 16.7782 13.8844 16.3902 13.9616C16.0023 14.0387 15.6001 13.9991 15.2347 13.8478C14.8692 13.6964 14.5569 13.44 14.3371 13.1111C14.1174 12.7822 14.0001 12.3956 14.0001 12C14.0001 11.4696 14.2108 10.9609 14.5858 10.5858C14.9609 10.2107 15.4696 10 16.0001 10ZM24.6601 13.157L23.9411 12.918C24.0704 11.7979 23.9616 10.6631 23.6217 9.58809C23.2817 8.51302 22.7184 7.52196 21.9686 6.67989C21.2187 5.83782 20.2994 5.16376 19.2708 4.70191C18.2422 4.24007 17.1276 4.00087 16.0001 4C14.8578 4.00044 13.7289 4.24569 12.6895 4.71924C11.65 5.19278 10.7241 5.8836 9.97418 6.74518C9.22424 7.60675 8.66767 8.61905 8.34197 9.71387C8.01627 10.8087 7.929 11.9606 8.08606 13.092C7.12909 13.2704 6.24418 13.7219 5.53806 14.392C5.04923 14.8567 4.66063 15.4166 4.39613 16.037C4.13164 16.6575 3.99685 17.3255 4.00006 18V22.075C4.00216 23.1563 4.35385 24.208 5.00265 25.0731C5.65145 25.9381 6.56257 26.5702 7.60006 26.875L10.4701 27.775C10.9521 27.925 11.4542 28.0009 11.9591 28C12.417 27.9994 12.8728 27.9368 13.3141 27.814L19.0941 26.104C19.609 25.9635 20.1521 25.9635 20.6671 26.104L23.0541 26.904C23.6424 27.0472 24.2555 27.055 24.8472 26.9267C25.439 26.7985 25.9939 26.5376 26.4701 26.1637C26.9464 25.7898 27.3315 25.3127 27.5965 24.7683C27.8615 24.2239 27.9995 23.6265 28.0001 23.021V17.872C27.9978 16.8374 27.6756 15.8288 27.0776 14.9845C26.4797 14.1402 25.6352 13.5015 24.6601 13.156V13.157ZM11.7581 7.762C12.3143 7.20349 12.9754 6.76032 13.7033 6.45793C14.4313 6.15554 15.2118 5.99988 16.0001 5.99988C16.7883 5.99988 17.5688 6.15554 18.2968 6.45793C19.0247 6.76032 19.6858 7.20349 20.2421 7.762C21.3642 8.89114 21.995 10.4178 21.997 12.0097C21.9991 13.6017 21.3723 15.13 20.2531 16.262L16.7001 19.717C16.5146 19.8988 16.2653 20.0007 16.0056 20.0007C15.7458 20.0007 15.4965 19.8988 15.3111 19.717L11.7581 16.277C10.6335 15.1454 10.0024 13.6148 10.0024 12.0195C10.0024 10.4242 10.6335 8.89361 11.7581 7.762ZM26.0001 23.021C26.0007 23.3239 25.9322 23.6229 25.7998 23.8953C25.6674 24.1677 25.4746 24.4063 25.2361 24.593C25.0107 24.7742 24.7481 24.9035 24.4671 24.9718C24.1861 25.0401 23.8935 25.0456 23.6101 24.988L21.2651 24.2C20.3781 23.9452 19.438 23.9396 18.5481 24.184L12.7641 25.892C12.2083 26.0453 11.6202 26.0352 11.0701 25.863L8.17606 24.963C7.54971 24.7819 6.99901 24.4025 6.60665 23.8817C6.2143 23.361 6.00144 22.727 6.00006 22.075V18C5.99781 17.5958 6.07826 17.1954 6.23648 16.8234C6.39469 16.4514 6.62732 16.1157 6.92006 15.837C7.37831 15.4003 7.96207 15.1184 8.58906 15.031C8.99216 16.0302 9.59244 16.9379 10.3541 17.7L13.9211 21.153C14.4786 21.6989 15.2278 22.0046 16.0081 22.0046C16.7883 22.0046 17.5375 21.6989 18.0951 21.153L21.6581 17.69C22.4558 16.889 23.0738 15.9274 23.4711 14.869L24.0081 15.047C24.5904 15.2557 25.0942 15.639 25.4507 16.1445C25.8072 16.6501 25.9991 17.2534 26.0001 17.872V23.021Z" fill="#444444"/>
</g>
<defs>
<clipPath id="clip0_2923_5389">
<rect width="24" height="24" fill="white" transform="translate(4 4)"/>
</clipPath>
</defs>
</svg>
