<svg width="32" height="32" viewBox="0 0 32 32" fill="none" xmlns="http://www.w3.org/2000/svg">
<g clip-path="url(#clip0_3345_4118)">
<path d="M26.0575 9.22985L18.6835 5.71685C17.0603 4.74729 15.04 4.73009 13.4005 5.67185L5.94355 9.22985C5.91557 9.24387 5.88655 9.25887 5.85955 9.27485C4.08993 10.2867 3.47558 12.5415 4.48743 14.3112C4.83041 14.9111 5.33493 15.4026 5.94355 15.7299L8.00057 16.7099V21.6099C8.00178 23.8009 9.42749 25.7367 11.5196 26.3879C12.9755 26.8091 14.4851 27.0153 16.0006 26.9999C17.5159 27.0169 19.0255 26.8124 20.4816 26.3929C22.5737 25.7418 23.9994 23.806 24.0006 21.6149V16.7079L26.0006 15.7519V23.9998C26.0006 24.5521 26.4483 24.9998 27.0006 24.9998C27.5529 24.9998 28.0006 24.5521 28.0006 23.9998V11.9998C28.0072 10.8256 27.0801 9.74079 26.0575 9.22985ZM22.0005 21.6149C22.0011 22.9255 21.1507 24.0847 19.9005 24.4779C18.6328 24.8401 17.319 25.0159 16.0005 24.9999C14.6821 25.0159 13.3683 24.8401 12.1005 24.4779C10.8503 24.0847 10 22.9255 10.0005 21.6149V17.6629L13.3176 19.2429C14.136 19.7289 15.0707 19.9843 16.0226 19.9819C16.9286 19.9883 17.8193 19.7485 18.5996 19.2879L22.0005 17.6629V21.6149ZM25.2006 13.9249L17.6586 17.5249C16.607 18.1372 15.3035 18.1198 14.2686 17.4799L6.88953 13.9699C6.06702 13.5263 5.7598 12.5 6.20333 11.6775C6.35333 11.3994 6.57824 11.1688 6.85255 11.0119L14.3475 7.43187C15.3995 6.8209 16.7022 6.8382 17.7375 7.47687L25.1115 10.9899C25.6538 11.291 25.9931 11.8596 26.0005 12.4799C26.0015 13.0674 25.699 13.6138 25.2006 13.9249Z" fill="#444444"/>
</g>
<defs>
<clipPath id="clip0_3345_4118">
<rect width="24" height="24" fill="white" transform="translate(4 4)"/>
</clipPath>
</defs>
</svg>
