<svg width="32" height="32" viewBox="0 0 32 32" fill="none" xmlns="http://www.w3.org/2000/svg">
<g clip-path="url(#clip0_3345_5512)">
<path d="M23.535 7.12202L21.879 5.46402C21.4157 4.99833 20.8646 4.62916 20.2576 4.37786C19.6507 4.12657 18.9999 3.99814 18.343 4.00002H12C10.6744 4.00161 9.40356 4.5289 8.46622 5.46624C7.52888 6.40358 7.00159 7.67443 7 9.00002V23C7.00159 24.3256 7.52888 25.5965 8.46622 26.5338C9.40356 27.4711 10.6744 27.9984 12 28H20C21.3256 27.9984 22.5964 27.4711 23.5338 26.5338C24.4711 25.5965 24.9984 24.3256 25 23V10.657C25.0016 10.0002 24.873 9.34959 24.6215 8.74281C24.37 8.13604 24.0007 7.58515 23.535 7.12202ZM22.121 8.53602C22.2628 8.67734 22.3898 8.83282 22.5 9.00002H20V6.50002C20.1669 6.61134 20.3227 6.7386 20.465 6.88002L22.121 8.53602ZM23 23C23 23.7957 22.6839 24.5587 22.1213 25.1213C21.5587 25.684 20.7956 26 20 26H12C11.2043 26 10.4413 25.684 9.87868 25.1213C9.31607 24.5587 9 23.7957 9 23V9.00002C9 8.20437 9.31607 7.44131 9.87868 6.8787C10.4413 6.31609 11.2043 6.00002 12 6.00002H18V9.00002C18 9.53045 18.2107 10.0392 18.5858 10.4142C18.9609 10.7893 19.4696 11 20 11H23V23ZM20 13C20.2652 13 20.5196 13.1054 20.7071 13.2929C20.8946 13.4805 21 13.7348 21 14C21 14.2652 20.8946 14.5196 20.7071 14.7071C20.5196 14.8947 20.2652 15 20 15H12C11.7348 15 11.4804 14.8947 11.2929 14.7071C11.1054 14.5196 11 14.2652 11 14C11 13.7348 11.1054 13.4805 11.2929 13.2929C11.4804 13.1054 11.7348 13 12 13H20ZM21 18C21 18.2652 20.8946 18.5196 20.7071 18.7071C20.5196 18.8947 20.2652 19 20 19H12C11.7348 19 11.4804 18.8947 11.2929 18.7071C11.1054 18.5196 11 18.2652 11 18C11 17.7348 11.1054 17.4805 11.2929 17.2929C11.4804 17.1054 11.7348 17 12 17H20C20.2652 17 20.5196 17.1054 20.7071 17.2929C20.8946 17.4805 21 17.7348 21 18ZM20.808 21.413C20.9634 21.6269 21.0279 21.8936 20.9872 22.1548C20.9466 22.416 20.8041 22.6505 20.591 22.807C19.5778 23.529 18.3778 23.9432 17.135 24C16.4089 23.9965 15.7048 23.7501 15.135 23.3C14.807 23.075 14.682 23 14.435 23C13.7664 23.1035 13.1356 23.3769 12.603 23.794C12.3917 23.9446 12.1302 24.0072 11.8737 23.9686C11.6171 23.93 11.3856 23.7932 11.2281 23.5871C11.0705 23.381 10.9992 23.1217 11.0292 22.864C11.0593 22.6063 11.1883 22.3704 11.389 22.206C12.2702 21.522 13.3283 21.1036 14.439 21C15.1051 21.0107 15.7491 21.2409 16.271 21.655C16.5089 21.869 16.8152 21.9913 17.135 22C17.9527 21.9388 18.739 21.6594 19.412 21.191C19.6266 21.0355 19.8942 20.9715 20.1559 21.0131C20.4177 21.0547 20.6522 21.1986 20.808 21.413Z" fill="#444444"/>
</g>
<defs>
<clipPath id="clip0_3345_5512">
<rect width="24" height="24" fill="white" transform="translate(4 4)"/>
</clipPath>
</defs>
</svg>
