<svg width="32" height="32" viewBox="0 0 32 32" fill="none" xmlns="http://www.w3.org/2000/svg">
<g clip-path="url(#clip0_3345_4256)">
<path d="M24.0004 16C23.3869 15.9999 22.7817 16.1411 22.2316 16.4127C21.6815 16.6843 21.2014 17.0789 20.8284 17.566L20.7584 17.536C21.0334 16.6841 21.0747 15.7739 20.8778 14.9005C20.6809 14.0272 20.2531 13.2227 19.6392 12.5711C19.0252 11.9195 18.2475 11.4448 17.3874 11.1964C16.5273 10.948 15.6162 10.9351 14.7494 11.159L14.6584 10.987C15.3848 10.3408 15.8506 9.45178 15.9684 8.48669C16.0863 7.5216 15.8482 6.54664 15.2987 5.74455C14.7492 4.94245 13.926 4.36828 12.9835 4.12962C12.041 3.89096 11.0438 4.00421 10.1788 4.44813C9.3138 4.89206 8.64038 5.63619 8.28474 6.54108C7.9291 7.44596 7.91565 8.44948 8.24692 9.36357C8.57819 10.2777 9.23144 11.0396 10.0842 11.5065C10.937 11.9734 11.9308 12.1134 12.8794 11.9L12.9524 12.037C11.9525 12.8044 11.2798 13.9216 11.0695 15.1643C10.8591 16.4071 11.1267 17.6834 11.8184 18.737L9.93341 20.5C9.08138 20.0293 8.08693 19.8854 7.13641 20.0953C6.18588 20.3053 5.34453 20.8546 4.77001 21.6404C4.19549 22.4262 3.92724 23.3945 4.01551 24.364C4.10379 25.3334 4.54254 26.2373 5.24955 26.9064C5.95656 27.5755 6.88329 27.9639 7.8561 27.9987C8.8289 28.0334 9.78101 27.7123 10.534 27.0954C11.287 26.4785 11.7892 25.6082 11.9465 24.6475C12.1038 23.6869 11.9053 22.7019 11.3884 21.877L13.2264 20.159C14.2359 20.8338 15.4567 21.1175 16.6602 20.9572C17.8638 20.7969 18.9677 20.2035 19.7654 19.288L20.0444 19.407C19.9234 20.2145 20.0523 21.0397 20.414 21.7717C20.7756 22.5037 21.3526 23.1076 22.0674 23.5021C22.7822 23.8966 23.6007 24.0629 24.4128 23.9787C25.2249 23.8945 25.9918 23.5638 26.6105 23.031C27.2292 22.4981 27.67 21.7888 27.8737 20.9981C28.0774 20.2075 28.0343 19.3734 27.7502 18.608C27.466 17.8425 26.9544 17.1824 26.2841 16.7162C25.6138 16.25 24.8169 16.0001 24.0004 16ZM10.0004 8.00005C10.0004 7.60448 10.1177 7.2178 10.3375 6.88891C10.5572 6.56001 10.8696 6.30366 11.235 6.15229C11.6005 6.00091 12.0026 5.9613 12.3906 6.03848C12.7786 6.11565 13.1349 6.30613 13.4146 6.58583C13.6943 6.86554 13.8848 7.2219 13.962 7.60987C14.0392 7.99783 13.9996 8.39996 13.8482 8.76541C13.6968 9.13087 13.4405 9.44322 13.1116 9.66298C12.7827 9.88275 12.396 10 12.0004 10C11.47 10 10.9613 9.78933 10.5862 9.41426C10.2111 9.03919 10.0004 8.53048 10.0004 8.00005ZM8.00041 26C7.60485 26 7.21817 25.8827 6.88927 25.663C6.56038 25.4432 6.30403 25.1309 6.15266 24.7654C6.00128 24.4 5.96167 23.9978 6.03884 23.6099C6.11601 23.2219 6.3065 22.8655 6.5862 22.5858C6.86591 22.3061 7.22227 22.1156 7.61023 22.0385C7.9982 21.9613 8.40033 22.0009 8.76578 22.1523C9.13123 22.3037 9.44359 22.56 9.66335 22.8889C9.88312 23.2178 10.0004 23.6045 10.0004 24C10.0004 24.5305 9.7897 25.0392 9.41463 25.4143C9.03956 25.7893 8.53085 26 8.00041 26ZM16.0004 19C15.3511 18.9988 14.7197 18.7869 14.2011 18.3962C13.6825 18.0055 13.3047 17.4571 13.1243 16.8333C12.944 16.2095 12.9709 15.5441 13.201 14.9369C13.4311 14.3297 13.852 13.8136 14.4004 13.466L14.8074 13.249C15.2164 13.0712 15.6598 12.9867 16.1056 13.0018C16.5513 13.0169 16.988 13.1311 17.384 13.3363C17.78 13.5414 18.1253 13.8323 18.3947 14.1876C18.6641 14.543 18.851 14.954 18.9415 15.3907C19.0321 15.8274 19.0242 16.2788 18.9184 16.712C18.8125 17.1452 18.6114 17.5494 18.3297 17.8951C18.048 18.2409 17.6928 18.5194 17.2898 18.7106C16.8869 18.9017 16.4464 19.0006 16.0004 19ZM24.0004 22C23.6049 22 23.2182 21.8827 22.8893 21.663C22.5604 21.4432 22.304 21.1309 22.1527 20.7654C22.0013 20.4 21.9617 19.9978 22.0388 19.6099C22.116 19.2219 22.3065 18.8655 22.5862 18.5858C22.8659 18.3061 23.2223 18.1156 23.6102 18.0385C23.9982 17.9613 24.4003 18.0009 24.7658 18.1523C25.1312 18.3037 25.4436 18.56 25.6634 18.8889C25.8831 19.2178 26.0004 19.6045 26.0004 20C26.0004 20.5305 25.7897 21.0392 25.4146 21.4143C25.0396 21.7893 24.5308 22 24.0004 22Z" fill="#444444"/>
</g>
<defs>
<clipPath id="clip0_3345_4256">
<rect width="24" height="24" fill="white" transform="translate(4 4)"/>
</clipPath>
</defs>
</svg>
