<svg width="32" height="32" viewBox="0 0 32 32" fill="none" xmlns="http://www.w3.org/2000/svg">
<g clip-path="url(#clip0_3345_5526)">
<path d="M26.766 8.56594C26.4006 8.41373 25.9981 8.37372 25.6099 8.45101C25.2217 8.52829 24.8653 8.71939 24.586 8.99994L22 11.5859L17.414 6.99994C17.0389 6.625 16.5303 6.41437 16 6.41437C15.4697 6.41437 14.9611 6.625 14.586 6.99994L10 11.5859L7.414 8.99994C7.1343 8.72032 6.77797 8.52991 6.39006 8.45277C6.00216 8.37564 5.60009 8.41524 5.23469 8.56658C4.86929 8.71792 4.55697 8.9742 4.3372 9.30302C4.11743 9.63184 4.00008 10.0184 4 10.4139V20.9999C4.00159 22.3255 4.52888 23.5964 5.46622 24.5337C6.40356 25.4711 7.67441 25.9984 9 25.9999H23C24.3256 25.9984 25.5964 25.4711 26.5338 24.5337C27.4711 23.5964 27.9984 22.3255 28 20.9999V10.4139C28.0001 10.0184 27.8829 9.63173 27.6633 9.30279C27.4436 8.97385 27.1314 8.71743 26.766 8.56594ZM26 20.9999C26 21.7956 25.6839 22.5587 25.1213 23.1213C24.5587 23.6839 23.7956 23.9999 23 23.9999H9C8.20435 23.9999 7.44129 23.6839 6.87868 23.1213C6.31607 22.5587 6 21.7956 6 20.9999V10.4139L9.293 13.7069C9.48053 13.8944 9.73484 13.9997 10 13.9997C10.2652 13.9997 10.5195 13.8944 10.707 13.7069L16 8.41394L21.293 13.7069C21.4805 13.8944 21.7348 13.9997 22 13.9997C22.2652 13.9997 22.5195 13.8944 22.707 13.7069L26 10.4139V20.9999Z" fill="#444444"/>
</g>
<defs>
<clipPath id="clip0_3345_5526">
<rect width="24" height="24" fill="white" transform="translate(4 4)"/>
</clipPath>
</defs>
</svg>
