<svg width="32" height="32" viewBox="0 0 32 32" fill="none" xmlns="http://www.w3.org/2000/svg">
<g clip-path="url(#clip0_3345_5484)">
<path d="M9 18C9.55228 18 10 17.5523 10 17C10 16.4477 9.55228 16 9 16C8.44771 16 8 16.4477 8 17C8 17.5523 8.44771 18 9 18Z" fill="#444444"/>
<path d="M5 14.0001C5.55228 14.0001 6 13.5524 6 13.0001C6 12.4478 5.55228 12.0001 5 12.0001C4.44772 12.0001 4 12.4478 4 13.0001C4 13.5524 4.44772 14.0001 5 14.0001Z" fill="#444444"/>
<path d="M9 9.99975C9.55228 9.99975 10 9.55204 10 8.99975C10 8.44747 9.55228 7.99976 9 7.99976C8.44771 7.99976 8 8.44747 8 8.99975C8 9.55204 8.44771 9.99975 9 9.99975Z" fill="#444444"/>
<path d="M5 6C5.55228 6 6 5.55228 6 5C6 4.44772 5.55228 4 5 4C4.44772 4 4 4.44772 4 5C4 5.55228 4.44772 6 5 6Z" fill="#444444"/>
<path d="M27 18C27.5523 18 28 17.5523 28 17C28 16.4477 27.5523 16 27 16C26.4477 16 26 16.4477 26 17C26 17.5523 26.4477 18 27 18Z" fill="#444444"/>
<path d="M23 14.0001C23.5523 14.0001 24 13.5524 24 13.0001C24 12.4478 23.5523 12.0001 23 12.0001C22.4477 12.0001 22 12.4478 22 13.0001C22 13.5524 22.4477 14.0001 23 14.0001Z" fill="#444444"/>
<path d="M27 9.99975C27.5523 9.99975 28 9.55204 28 8.99975C28 8.44747 27.5523 7.99976 27 7.99976C26.4477 7.99976 26 8.44747 26 8.99975C26 9.55204 26.4477 9.99975 27 9.99975Z" fill="#444444"/>
<path d="M23 6C23.5523 6 24 5.55228 24 5C24 4.44772 23.5523 4 23 4C22.4477 4 22 4.44772 22 5C22 5.55228 22.4477 6 23 6Z" fill="#444444"/>
<path d="M18 27.9999C18.5523 27.9999 19 27.5522 19 26.9999C19 26.4476 18.5523 25.9999 18 25.9999C17.4477 25.9999 17 26.4476 17 26.9999C17 27.5522 17.4477 27.9999 18 27.9999Z" fill="#444444"/>
<path d="M14 24C14.5523 24 15 23.5523 15 23C15 22.4477 14.5523 22 14 22C13.4477 22 13 22.4477 13 23C13 23.5523 13.4477 24 14 24Z" fill="#444444"/>
<path d="M18 20.0001C18.5523 20.0001 19 19.5524 19 19.0001C19 18.4478 18.5523 18.0001 18 18.0001C17.4477 18.0001 17 18.4478 17 19.0001C17 19.5524 17.4477 20.0001 18 20.0001Z" fill="#444444"/>
<path d="M14 15.9998C14.5523 15.9998 15 15.5521 15 14.9998C15 14.4475 14.5523 13.9998 14 13.9998C13.4477 13.9998 13 14.4475 13 14.9998C13 15.5521 13.4477 15.9998 14 15.9998Z" fill="#444444"/>
<path d="M19 7C18.4696 7 17.9608 6.78929 17.5858 6.41421C17.2107 6.03914 17 5.53043 17 5C17 4.73478 16.8946 4.48043 16.7071 4.29289C16.5196 4.10536 16.2652 4 16 4C15.7348 4 15.4804 4.10536 15.2929 4.29289C15.1054 4.48043 15 4.73478 15 5C15 5.53043 14.7893 6.03914 14.4142 6.41421C14.0391 6.78929 13.5304 7 13 7C12.7348 7 12.4804 7.10536 12.2929 7.29289C12.1054 7.48043 12 7.73478 12 8C12 8.26522 12.1054 8.51957 12.2929 8.70711C12.4804 8.89464 12.7348 9 13 9C13.5304 9 14.0391 9.21071 14.4142 9.58579C14.7893 9.96086 15 10.4696 15 11C15 11.2652 15.1054 11.5196 15.2929 11.7071C15.4804 11.8946 15.7348 12 16 12C16.2652 12 16.5196 11.8946 16.7071 11.7071C16.8946 11.5196 17 11.2652 17 11C17 10.4696 17.2107 9.96086 17.5858 9.58579C17.9608 9.21071 18.4696 9 19 9C19.2652 9 19.5196 8.89464 19.7071 8.70711C19.8946 8.51957 20 8.26522 20 8C20 7.73478 19.8946 7.48043 19.7071 7.29289C19.5196 7.10536 19.2652 7 19 7Z" fill="#444444"/>
<path d="M11 22.9999C10.4696 22.9999 9.96086 22.7892 9.58579 22.4141C9.21071 22.039 9 21.5303 9 20.9999C9 20.7347 8.89464 20.4803 8.70711 20.2928C8.51957 20.1052 8.26522 19.9999 8 19.9999C7.73478 19.9999 7.48043 20.1052 7.29289 20.2928C7.10536 20.4803 7 20.7347 7 20.9999C7 21.5303 6.78929 22.039 6.41421 22.4141C6.03914 22.7892 5.53043 22.9999 5 22.9999C4.73478 22.9999 4.48043 23.1052 4.29289 23.2928C4.10536 23.4803 4 23.7347 4 23.9999C4 24.2651 4.10536 24.5194 4.29289 24.707C4.48043 24.8945 4.73478 24.9999 5 24.9999C5.53043 24.9999 6.03914 25.2106 6.41421 25.5857C6.78929 25.9607 7 26.4694 7 26.9999C7 27.2651 7.10536 27.5194 7.29289 27.707C7.48043 27.8945 7.73478 27.9999 8 27.9999C8.26522 27.9999 8.51957 27.8945 8.70711 27.707C8.89464 27.5194 9 27.2651 9 26.9999C9 26.4694 9.21071 25.9607 9.58579 25.5857C9.96086 25.2106 10.4696 24.9999 11 24.9999C11.2652 24.9999 11.5196 24.8945 11.7071 24.707C11.8946 24.5194 12 24.2651 12 23.9999C12 23.7347 11.8946 23.4803 11.7071 23.2928C11.5196 23.1052 11.2652 22.9999 11 22.9999Z" fill="#444444"/>
<path d="M27 22.9999C26.4696 22.9999 25.9608 22.7892 25.5858 22.4141C25.2107 22.0391 25 21.5304 25 20.9999C25 20.7347 24.8946 20.4804 24.7071 20.2928C24.5196 20.1053 24.2652 19.9999 24 19.9999C23.7348 19.9999 23.4804 20.1053 23.2929 20.2928C23.1054 20.4804 23 20.7347 23 20.9999C23 21.5304 22.7893 22.0391 22.4142 22.4141C22.0391 22.7892 21.5304 22.9999 21 22.9999C20.7348 22.9999 20.4804 23.1053 20.2929 23.2928C20.1054 23.4804 20 23.7347 20 23.9999C20 24.2651 20.1054 24.5195 20.2929 24.707C20.4804 24.8946 20.7348 24.9999 21 24.9999C21.5304 24.9999 22.0391 25.2106 22.4142 25.5857C22.7893 25.9608 23 26.4695 23 26.9999C23 27.2651 23.1054 27.5195 23.2929 27.707C23.4804 27.8946 23.7348 27.9999 24 27.9999C24.2652 27.9999 24.5196 27.8946 24.7071 27.707C24.8946 27.5195 25 27.2651 25 26.9999C25 26.4695 25.2107 25.9608 25.5858 25.5857C25.9608 25.2106 26.4696 24.9999 27 24.9999C27.2652 24.9999 27.5196 24.8946 27.7071 24.707C27.8946 24.5195 28 24.2651 28 23.9999C28 23.7347 27.8946 23.4804 27.7071 23.2928C27.5196 23.1053 27.2652 22.9999 27 22.9999Z" fill="#444444"/>
</g>
<defs>
<clipPath id="clip0_3345_5484">
<rect width="24" height="24" fill="white" transform="translate(4 4)"/>
</clipPath>
</defs>
</svg>
