<svg width="32" height="32" viewBox="0 0 32 32" fill="none" xmlns="http://www.w3.org/2000/svg">
<g clip-path="url(#clip0_3345_5540)">
<path d="M23 4.99988H9C7.67441 5.00147 6.40356 5.52876 5.46622 6.4661C4.52888 7.40344 4.00159 8.67428 4 9.99988L4 21.9999C4.00159 23.3255 4.52888 24.5963 5.46622 25.5337C6.40356 26.471 7.67441 26.9983 9 26.9999H23C24.3256 26.9983 25.5964 26.471 26.5338 25.5337C27.4711 24.5963 27.9984 23.3255 28 21.9999V9.99988C27.9984 8.67428 27.4711 7.40344 26.5338 6.4661C25.5964 5.52876 24.3256 5.00147 23 4.99988ZM9 6.99988H23C23.5988 7.00106 24.1835 7.18139 24.679 7.51768C25.1744 7.85397 25.5579 8.33082 25.78 8.88688L18.122 16.5459C17.5584 17.1072 16.7954 17.4223 16 17.4223C15.2046 17.4223 14.4416 17.1072 13.878 16.5459L6.22 8.88688C6.44215 8.33082 6.82561 7.85397 7.32105 7.51768C7.81648 7.18139 8.40121 7.00106 9 6.99988ZM23 24.9999H9C8.20435 24.9999 7.44129 24.6838 6.87868 24.1212C6.31607 23.5586 6 22.7955 6 21.9999V11.4999L12.464 17.9599C13.4026 18.8961 14.6743 19.4219 16 19.4219C17.3257 19.4219 18.5974 18.8961 19.536 17.9599L26 11.4999V21.9999C26 22.7955 25.6839 23.5586 25.1213 24.1212C24.5587 24.6838 23.7956 24.9999 23 24.9999Z" fill="#444444"/>
</g>
<defs>
<clipPath id="clip0_3345_5540">
<rect width="24" height="24" fill="white" transform="translate(4 4)"/>
</clipPath>
</defs>
</svg>
