<svg width="32" height="32" viewBox="0 0 32 32" fill="none" xmlns="http://www.w3.org/2000/svg">
<g clip-path="url(#clip0_3345_5469)">
<path d="M14 13.9997C13.2043 13.9997 12.4413 14.3158 11.8787 14.8784C11.3161 15.441 11 16.2041 11 16.9997C11 17.7954 11.3161 18.5584 11.8787 19.121C12.4413 19.6836 13.2043 19.9997 14 19.9997H18C18.7956 19.9997 19.5587 19.6836 20.1213 19.121C20.6839 18.5584 21 17.7954 21 16.9997C21 16.2041 20.6839 15.441 20.1213 14.8784C19.5587 14.3158 18.7956 13.9997 18 13.9997H14ZM19 16.9997C19 17.2649 18.8946 17.5193 18.7071 17.7068C18.5196 17.8944 18.2652 17.9997 18 17.9997H14C13.7348 17.9997 13.4804 17.8944 13.2929 17.7068C13.1054 17.5193 13 17.2649 13 16.9997C13 16.7345 13.1054 16.4801 13.2929 16.2926C13.4804 16.1051 13.7348 15.9997 14 15.9997H18C18.2652 15.9997 18.5196 16.1051 18.7071 16.2926C18.8946 16.4801 19 16.7345 19 16.9997ZM21 22.9997C21 23.2649 20.8946 23.5193 20.7071 23.7068C20.5196 23.8944 20.2652 23.9997 20 23.9997H12C11.7348 23.9997 11.4804 23.8944 11.2929 23.7068C11.1054 23.5193 11 23.2649 11 22.9997C11 22.7345 11.1054 22.4801 11.2929 22.2926C11.4804 22.1051 11.7348 21.9997 12 21.9997H20C20.2652 21.9997 20.5196 22.1051 20.7071 22.2926C20.8946 22.4801 21 22.7345 21 22.9997ZM23.536 7.12071L21.878 5.46471C21.4149 4.99896 20.864 4.62967 20.2572 4.37821C19.6504 4.12674 18.9998 3.9981 18.343 3.99971H12C10.6744 4.0013 9.40356 4.52859 8.46622 5.46593C7.52888 6.40327 7.00159 7.67411 7 8.99971V22.9997C7.00159 24.3253 7.52888 25.5962 8.46622 26.5335C9.40356 27.4708 10.6744 27.9981 12 27.9997H20C21.3256 27.9981 22.5964 27.4708 23.5338 26.5335C24.4711 25.5962 24.9984 24.3253 25 22.9997V10.6567C25.0019 9.9998 24.8734 9.34903 24.6222 8.74208C24.3709 8.13513 24.0017 7.58404 23.536 7.12071ZM22.122 8.53471C22.2627 8.67714 22.3893 8.83287 22.5 8.99971H20V6.49971C20.1671 6.60924 20.3226 6.73556 20.464 6.87671L22.122 8.53471ZM23 22.9997C23 23.7954 22.6839 24.5584 22.1213 25.121C21.5587 25.6836 20.7956 25.9997 20 25.9997H12C11.2043 25.9997 10.4413 25.6836 9.87868 25.121C9.31607 24.5584 9 23.7954 9 22.9997V8.99971C9 8.20406 9.31607 7.441 9.87868 6.87839C10.4413 6.31578 11.2043 5.99971 12 5.99971H18V8.99971C18 9.53014 18.2107 10.0389 18.5858 10.4139C18.9609 10.789 19.4696 10.9997 20 10.9997H23V22.9997Z" fill="#444444"/>
</g>
<defs>
<clipPath id="clip0_3345_5469">
<rect width="24" height="24" fill="white" transform="translate(4 4)"/>
</clipPath>
</defs>
</svg>
