<svg width="32" height="32" viewBox="0 0 32 32" fill="none" xmlns="http://www.w3.org/2000/svg">
<g clip-path="url(#clip0_3345_5140)">
<path d="M23 8H19V7C19 6.20435 18.6839 5.44129 18.1213 4.87868C17.5587 4.31607 16.7956 4 16 4C15.2044 4 14.4413 4.31607 13.8787 4.87868C13.3161 5.44129 13 6.20435 13 7V8H9C7.67441 8.00159 6.40356 8.52888 5.46622 9.46622C4.52888 10.4036 4.00159 11.6744 4 13L4 23C4.00159 24.3256 4.52888 25.5964 5.46622 26.5338C6.40356 27.4711 7.67441 27.9984 9 28H23C24.3256 27.9984 25.5964 27.4711 26.5338 26.5338C27.4711 25.5964 27.9984 24.3256 28 23V13C27.9984 11.6744 27.4711 10.4036 26.5338 9.46622C25.5964 8.52888 24.3256 8.00159 23 8ZM15 7C15 6.73478 15.1054 6.48043 15.2929 6.29289C15.4804 6.10536 15.7348 6 16 6C16.2652 6 16.5196 6.10536 16.7071 6.29289C16.8946 6.48043 17 6.73478 17 7V9C17 9.26522 16.8946 9.51957 16.7071 9.70711C16.5196 9.89464 16.2652 10 16 10C15.7348 10 15.4804 9.89464 15.2929 9.70711C15.1054 9.51957 15 9.26522 15 9V7ZM26 23C26 23.7956 25.6839 24.5587 25.1213 25.1213C24.5587 25.6839 23.7956 26 23 26H9C8.20435 26 7.44129 25.6839 6.87868 25.1213C6.31607 24.5587 6 23.7956 6 23V13C6 12.2044 6.31607 11.4413 6.87868 10.8787C7.44129 10.3161 8.20435 10 9 10H13.184C13.3876 10.5845 13.7682 11.0912 14.2727 11.4498C14.7773 11.8083 15.381 12.0009 16 12.0009C16.619 12.0009 17.2227 11.8083 17.7273 11.4498C18.2318 11.0912 18.6124 10.5845 18.816 10H23C23.7956 10 24.5587 10.3161 25.1213 10.8787C25.6839 11.4413 26 12.2044 26 13V23ZM14 14H9C8.73478 14 8.48043 14.1054 8.29289 14.2929C8.10536 14.4804 8 14.7348 8 15V23C8 23.2652 8.10536 23.5196 8.29289 23.7071C8.48043 23.8946 8.73478 24 9 24H14C14.2652 24 14.5196 23.8946 14.7071 23.7071C14.8946 23.5196 15 23.2652 15 23V15C15 14.7348 14.8946 14.4804 14.7071 14.2929C14.5196 14.1054 14.2652 14 14 14ZM13 22H10V16H13V22ZM24 19C24 19.2652 23.8946 19.5196 23.7071 19.7071C23.5196 19.8946 23.2652 20 23 20H18C17.7348 20 17.4804 19.8946 17.2929 19.7071C17.1054 19.5196 17 19.2652 17 19C17 18.7348 17.1054 18.4804 17.2929 18.2929C17.4804 18.1054 17.7348 18 18 18H23C23.2652 18 23.5196 18.1054 23.7071 18.2929C23.8946 18.4804 24 18.7348 24 19ZM24 15C24 15.2652 23.8946 15.5196 23.7071 15.7071C23.5196 15.8946 23.2652 16 23 16H18C17.7348 16 17.4804 15.8946 17.2929 15.7071C17.1054 15.5196 17 15.2652 17 15C17 14.7348 17.1054 14.4804 17.2929 14.2929C17.4804 14.1054 17.7348 14 18 14H23C23.2652 14 23.5196 14.1054 23.7071 14.2929C23.8946 14.4804 24 14.7348 24 15ZM22 23C22 23.2652 21.8946 23.5196 21.7071 23.7071C21.5196 23.8946 21.2652 24 21 24H18C17.7348 24 17.4804 23.8946 17.2929 23.7071C17.1054 23.5196 17 23.2652 17 23C17 22.7348 17.1054 22.4804 17.2929 22.2929C17.4804 22.1054 17.7348 22 18 22H21C21.2652 22 21.5196 22.1054 21.7071 22.2929C21.8946 22.4804 22 22.7348 22 23Z" fill="#444444"/>
</g>
<defs>
<clipPath id="clip0_3345_5140">
<rect width="24" height="24" fill="white" transform="translate(4 4)"/>
</clipPath>
</defs>
</svg>
