<svg width="32" height="32" viewBox="0 0 32 32" fill="none" xmlns="http://www.w3.org/2000/svg">
<g clip-path="url(#clip0_3345_5438)">
<path d="M23 4H9C7.67441 4.00159 6.40356 4.52888 5.46622 5.46622C4.52888 6.40356 4.00159 7.67441 4 9L4 23C4.00159 24.3256 4.52888 25.5964 5.46622 26.5338C6.40356 27.4711 7.67441 27.9984 9 28H23C24.3256 27.9984 25.5964 27.4711 26.5338 26.5338C27.4711 25.5964 27.9984 24.3256 28 23V9C27.9984 7.67441 27.4711 6.40356 26.5338 5.46622C25.5964 4.52888 24.3256 4.00159 23 4V4ZM11 26V25C11 23.6739 11.5268 22.4021 12.4645 21.4645C13.4021 20.5268 14.6739 20 16 20C17.3261 20 18.5979 20.5268 19.5355 21.4645C20.4732 22.4021 21 23.6739 21 25V26H11ZM26 23C26 23.7956 25.6839 24.5587 25.1213 25.1213C24.5587 25.6839 23.7956 26 23 26V25C23 23.1435 22.2625 21.363 20.9497 20.0503C19.637 18.7375 17.8565 18 16 18C14.1435 18 12.363 18.7375 11.0503 20.0503C9.7375 21.363 9 23.1435 9 25V26C8.20435 26 7.44129 25.6839 6.87868 25.1213C6.31607 24.5587 6 23.7956 6 23V9C6 8.20435 6.31607 7.44129 6.87868 6.87868C7.44129 6.31607 8.20435 6 9 6H23C23.7956 6 24.5587 6.31607 25.1213 6.87868C25.6839 7.44129 26 8.20435 26 9V23Z" fill="#444444"/>
<path d="M16 8.00049C15.2089 8.00049 14.4355 8.23508 13.7777 8.67461C13.1199 9.11414 12.6072 9.73885 12.3045 10.4698C12.0017 11.2007 11.9225 12.0049 12.0769 12.7808C12.2312 13.5568 12.6122 14.2695 13.1716 14.8289C13.731 15.3883 14.4437 15.7693 15.2196 15.9236C15.9956 16.078 16.7998 15.9988 17.5307 15.696C18.2616 15.3933 18.8864 14.8806 19.3259 14.2228C19.7654 13.565 20 12.7916 20 12.0005C20 10.9396 19.5786 9.92221 18.8284 9.17206C18.0783 8.42192 17.0609 8.00049 16 8.00049ZM16 14.0005C15.6044 14.0005 15.2178 13.8832 14.8889 13.6634C14.56 13.4437 14.3036 13.1313 14.1522 12.7659C14.0009 12.4004 13.9613 11.9983 14.0384 11.6103C14.1156 11.2223 14.3061 10.866 14.5858 10.5863C14.8655 10.3066 15.2219 10.1161 15.6098 10.0389C15.9978 9.96175 16.3999 10.0014 16.7654 10.1527C17.1308 10.3041 17.4432 10.5604 17.6629 10.8893C17.8827 11.2182 18 11.6049 18 12.0005C18 12.5309 17.7893 13.0396 17.4142 13.4147C17.0391 13.7898 16.5304 14.0005 16 14.0005Z" fill="#444444"/>
</g>
<defs>
<clipPath id="clip0_3345_5438">
<rect width="24" height="24" fill="white" transform="translate(4 4)"/>
</clipPath>
</defs>
</svg>
