<svg width="24" height="24" viewBox="0 0 24 24" fill="none" xmlns="http://www.w3.org/2000/svg">
<g clip-path="url(#clip0_3554_190308)">
<path d="M16.7818 2H10.1366H9.62165L9.25782 2.36383L4.22735 7.39461L3.86353 7.75844V8.27312V18.6448C3.86353 20.4948 5.36849 22 7.2188 22H16.7818C18.6315 22 20.1365 20.4948 20.1365 18.6448V5.35531C20.1365 3.505 18.6315 2 16.7818 2ZM18.8944 18.6447C18.8944 19.8118 17.9486 20.7577 16.7818 20.7577H7.2188C6.05145 20.7577 5.1056 19.8118 5.1056 18.6447V8.27309H8.37579C9.34786 8.27309 10.1366 7.48488 10.1366 6.51254V3.24234H16.7818C17.9486 3.24234 18.8944 4.1882 18.8944 5.35531V18.6447Z" fill="#444444"/>
<path d="M8.68724 13.8204L9.22837 13.1145C9.28673 13.0351 9.31892 12.95 9.31892 12.8706C9.31892 12.6955 9.18091 12.5469 8.98998 12.5469C8.87814 12.5469 8.76685 12.5998 8.68177 12.7114L8.26283 13.2631H8.2574L7.83845 12.7114C7.75337 12.5998 7.64209 12.5469 7.5308 12.5469C7.33986 12.5469 7.20189 12.6955 7.20189 12.8706C7.20189 12.95 7.23353 13.0351 7.29189 13.1145L7.83302 13.8204L7.22806 14.6108C7.1697 14.6904 7.13806 14.7752 7.13806 14.8549C7.13806 15.03 7.27607 15.1786 7.46697 15.1786C7.57822 15.1786 7.69005 15.1255 7.77462 15.0142L8.25736 14.3773H8.26279L8.74552 15.0142C8.83064 15.1255 8.94189 15.1786 9.05318 15.1786C9.24412 15.1786 9.38209 15.03 9.38209 14.8549C9.38209 14.7752 9.35044 14.6904 9.29209 14.6108L8.68724 13.8204Z" fill="#444444"/>
<path d="M10.8632 14.531C10.7464 14.51 10.6935 14.4462 10.6935 14.2978V11.8996C10.6935 11.6555 10.5342 11.5068 10.322 11.5068C10.1044 11.5068 9.95056 11.6555 9.95056 11.8996V14.3614C9.95056 14.8867 10.1524 15.1785 10.741 15.1785H10.7732C11.0437 15.1785 11.1604 15.035 11.1604 14.8548C11.1604 14.6903 11.0754 14.5684 10.8632 14.531Z" fill="#444444"/>
<path d="M12.8583 13.5444L12.5768 13.5125C12.285 13.4808 12.2217 13.417 12.2217 13.3003C12.2217 13.1784 12.3172 13.0987 12.5452 13.0987C12.7307 13.0987 12.9058 13.1358 13.065 13.2103C13.1659 13.258 13.2243 13.2738 13.2772 13.2738C13.4523 13.2738 13.5691 13.1464 13.5691 12.982C13.5691 12.8546 13.4949 12.7646 13.3514 12.6902C13.1343 12.5789 12.8583 12.5205 12.5713 12.5205C11.8977 12.5205 11.5104 12.844 11.5104 13.348C11.5104 13.7937 11.7913 14.0697 12.3488 14.1332L12.6297 14.1652C12.9324 14.197 13.0012 14.2606 13.0012 14.3828C13.0012 14.526 12.8741 14.6215 12.6035 14.6215C12.3542 14.6215 12.1579 14.5418 11.9718 14.4357C11.8873 14.388 11.8234 14.3667 11.7542 14.3667C11.5845 14.3667 11.4465 14.4995 11.4465 14.664C11.4465 14.7859 11.4995 14.8814 11.6271 14.961C11.8393 15.0936 12.1633 15.2051 12.5664 15.2051C13.293 15.2051 13.7125 14.8497 13.7125 14.3244C13.7125 13.8946 13.4633 13.6134 12.8583 13.5444Z" fill="#444444"/>
<path d="M15.7135 13.8204L16.2547 13.1145C16.313 13.0351 16.3452 12.95 16.3452 12.8706C16.3452 12.6955 16.2072 12.5469 16.0163 12.5469C15.9045 12.5469 15.7932 12.5998 15.7081 12.7114L15.2891 13.2631H15.2837L14.8647 12.7114C14.7797 12.5998 14.6684 12.5469 14.5571 12.5469C14.3661 12.5469 14.2281 12.6955 14.2281 12.8706C14.2281 12.95 14.2598 13.0351 14.3181 13.1145L14.8592 13.8204L14.2543 14.6108C14.1959 14.6904 14.1643 14.7752 14.1643 14.8549C14.1643 15.03 14.3024 15.1786 14.4932 15.1786C14.6045 15.1786 14.7163 15.1255 14.8009 15.0142L15.2836 14.3773H15.2891L15.7718 15.0142C15.8569 15.1255 15.9682 15.1786 16.0795 15.1786C16.2704 15.1786 16.4084 15.03 16.4084 14.8549C16.4084 14.7752 16.3768 14.6904 16.3184 14.6108L15.7135 13.8204Z" fill="#444444"/>
</g>
<defs>
<clipPath id="clip0_3554_190308">
<rect width="20" height="20" fill="white" transform="translate(2 2)"/>
</clipPath>
</defs>
</svg>
