<svg width="32" height="32" viewBox="0 0 32 32" fill="none" xmlns="http://www.w3.org/2000/svg">
<g clip-path="url(#clip0_3345_5175)">
<path d="M23 24.0003H9C7.67441 23.9987 6.40356 23.4714 5.46622 22.5341C4.52888 21.5967 4.00159 20.3259 4 19.0003V13.0003C4.00159 11.6747 4.52888 10.4039 5.46622 9.46653C6.40356 8.52919 7.67441 8.00189 9 8.00031H23C24.3256 8.00189 25.5964 8.52919 26.5338 9.46653C27.4711 10.4039 27.9984 11.6747 28 13.0003V19.0003C27.9984 20.3259 27.4711 21.5967 26.5338 22.5341C25.5964 23.4714 24.3256 23.9987 23 24.0003ZM9 10.0003C8.20435 10.0003 7.44129 10.3164 6.87868 10.879C6.31607 11.4416 6 12.2047 6 13.0003V19.0003C6 19.796 6.31607 20.559 6.87868 21.1216C7.44129 21.6842 8.20435 22.0003 9 22.0003H23C23.7956 22.0003 24.5587 21.6842 25.1213 21.1216C25.6839 20.559 26 19.796 26 19.0003V13.0003C26 12.2047 25.6839 11.4416 25.1213 10.879C24.5587 10.3164 23.7956 10.0003 23 10.0003H9ZM16 20.0003C15.2089 20.0003 14.4355 19.7657 13.7777 19.3262C13.1199 18.8867 12.6072 18.2619 12.3045 17.531C12.0017 16.8001 11.9225 15.9959 12.0769 15.2199C12.2312 14.444 12.6122 13.7313 13.1716 13.1719C13.731 12.6125 14.4437 12.2315 15.2196 12.0772C15.9956 11.9228 16.7998 12.002 17.5307 12.3048C18.2616 12.6075 18.8864 13.1202 19.3259 13.778C19.7654 14.4358 20 15.2092 20 16.0003C20 17.0612 19.5786 18.0786 18.8284 18.8287C18.0783 19.5789 17.0609 20.0003 16 20.0003ZM16 14.0003C15.6044 14.0003 15.2178 14.1176 14.8889 14.3374C14.56 14.5571 14.3036 14.8695 14.1522 15.2349C14.0009 15.6004 13.9613 16.0025 14.0384 16.3905C14.1156 16.7784 14.3061 17.1348 14.5858 17.4145C14.8655 17.6942 15.2219 17.8847 15.6098 17.9619C15.9978 18.039 16.3999 17.9994 16.7654 17.8481C17.1308 17.6967 17.4432 17.4403 17.6629 17.1114C17.8827 16.7825 18 16.3959 18 16.0003C18 15.4699 17.7893 14.9612 17.4142 14.5861C17.0391 14.211 16.5304 14.0003 16 14.0003ZM9 12.0003C8.80222 12.0003 8.60888 12.059 8.44443 12.1688C8.27998 12.2787 8.15181 12.4349 8.07612 12.6176C8.00043 12.8003 7.98063 13.0014 8.01921 13.1954C8.0578 13.3894 8.15304 13.5676 8.29289 13.7074C8.43275 13.8473 8.61093 13.9425 8.80491 13.9811C8.99889 14.0197 9.19996 13.9999 9.38268 13.9242C9.56541 13.8485 9.72159 13.7203 9.83147 13.5559C9.94135 13.3914 10 13.1981 10 13.0003C10 12.7351 9.89464 12.4807 9.70711 12.2932C9.51957 12.1057 9.26522 12.0003 9 12.0003ZM22 13.0003C22 13.1981 22.0586 13.3914 22.1685 13.5559C22.2784 13.7203 22.4346 13.8485 22.6173 13.9242C22.8 13.9999 23.0011 14.0197 23.1951 13.9811C23.3891 13.9425 23.5673 13.8473 23.7071 13.7074C23.847 13.5676 23.9422 13.3894 23.9808 13.1954C24.0194 13.0014 23.9996 12.8003 23.9239 12.6176C23.8482 12.4349 23.72 12.2787 23.5556 12.1688C23.3911 12.059 23.1978 12.0003 23 12.0003C22.7348 12.0003 22.4804 12.1057 22.2929 12.2932C22.1054 12.4807 22 12.7351 22 13.0003ZM9 18.0003C8.80222 18.0003 8.60888 18.059 8.44443 18.1688C8.27998 18.2787 8.15181 18.4349 8.07612 18.6176C8.00043 18.8003 7.98063 19.0014 8.01921 19.1954C8.0578 19.3894 8.15304 19.5676 8.29289 19.7074C8.43275 19.8473 8.61093 19.9425 8.80491 19.9811C8.99889 20.0197 9.19996 19.9999 9.38268 19.9242C9.56541 19.8485 9.72159 19.7203 9.83147 19.5559C9.94135 19.3914 10 19.1981 10 19.0003C10 18.7351 9.89464 18.4807 9.70711 18.2932C9.51957 18.1057 9.26522 18.0003 9 18.0003ZM22 19.0003C22 19.1981 22.0586 19.3914 22.1685 19.5559C22.2784 19.7203 22.4346 19.8485 22.6173 19.9242C22.8 19.9999 23.0011 20.0197 23.1951 19.9811C23.3891 19.9425 23.5673 19.8473 23.7071 19.7074C23.847 19.5676 23.9422 19.3894 23.9808 19.1954C24.0194 19.0014 23.9996 18.8003 23.9239 18.6176C23.8482 18.4349 23.72 18.2787 23.5556 18.1688C23.3911 18.059 23.1978 18.0003 23 18.0003C22.7348 18.0003 22.4804 18.1057 22.2929 18.2932C22.1054 18.4807 22 18.7351 22 19.0003Z" fill="#444444"/>
</g>
<defs>
<clipPath id="clip0_3345_5175">
<rect width="24" height="24" fill="white" transform="translate(4 4)"/>
</clipPath>
</defs>
</svg>
