<svg width="32" height="32" viewBox="0 0 32 32" fill="none" xmlns="http://www.w3.org/2000/svg">
<g clip-path="url(#clip0_2923_2750)">
<path d="M25.7359 20.4001C25.4001 19.41 24.7628 18.5498 23.9135 17.9401C23.0642 17.3303 22.0454 17.0017 20.9999 17.0001H16.9999V15.9161C18.4833 15.6653 19.8184 14.8665 20.7406 13.6778C21.6627 12.4891 22.1047 10.9974 21.9789 9.49824C21.8531 7.99907 21.1687 6.60187 20.0613 5.58352C18.9539 4.56517 17.5044 4 15.9999 4C14.4955 4 13.0459 4.56517 11.9385 5.58352C10.8312 6.60187 10.1467 7.99907 10.0209 9.49824C9.89513 10.9974 10.3371 12.4891 11.2593 13.6778C12.1814 14.8665 13.5165 15.6653 14.9999 15.9161V17.0001H10.9999C9.95441 17.0017 8.93561 17.3303 8.0863 17.9401C7.23699 18.5498 6.59976 19.41 6.26392 20.4001C5.40601 20.814 4.72396 21.5204 4.34047 22.3923C3.95697 23.2642 3.89721 24.2444 4.17194 25.1564C4.44666 26.0685 5.03784 26.8525 5.83911 27.3676C6.64038 27.8826 7.59914 28.0948 8.54291 27.966C9.48669 27.8372 10.3535 27.3758 10.9874 26.6649C11.6214 25.9539 11.9808 25.0401 12.0011 24.0878C12.0213 23.1355 11.7011 22.2072 11.0979 21.47C10.4948 20.7327 9.64836 20.2349 8.71092 20.0661C8.99205 19.7327 9.34248 19.4646 9.7378 19.2805C10.1331 19.0964 10.5638 19.0007 10.9999 19.0001H14.9999V20.1271C14.0573 20.3705 13.2357 20.9493 12.6893 21.7551C12.1429 22.5609 11.9091 23.5383 12.0318 24.5041C12.1545 25.4699 12.6252 26.3578 13.3557 27.0014C14.0862 27.645 15.0263 28.0001 15.9999 28.0001C16.9735 28.0001 17.9136 27.645 18.6442 27.0014C19.3747 26.3578 19.8454 25.4699 19.968 24.5041C20.0907 23.5383 19.8569 22.5609 19.3105 21.7551C18.7641 20.9493 17.9426 20.3705 16.9999 20.1271V19.0001H20.9999C21.4358 19.0003 21.8663 19.0956 22.2616 19.2792C22.6569 19.4627 23.0075 19.7303 23.2889 20.0631C22.3515 20.2319 21.505 20.7297 20.9019 21.467C20.2988 22.2042 19.9785 23.1325 19.9988 24.0848C20.019 25.0371 20.3785 25.9509 21.0124 26.6619C21.6463 27.3728 22.5132 27.8342 23.4569 27.963C24.4007 28.0918 25.3595 27.8796 26.1607 27.3646C26.962 26.8495 27.5532 26.0655 27.8279 25.1534C28.1026 24.2414 28.0429 23.2612 27.6594 22.3893C27.2759 21.5174 26.5938 20.811 25.7359 20.3971V20.4001ZM11.9999 10.0001C11.9999 9.20895 12.2345 8.4356 12.674 7.7778C13.1136 7.12 13.7383 6.60731 14.4692 6.30456C15.2001 6.00181 16.0044 5.9226 16.7803 6.07694C17.5562 6.23128 18.2689 6.61224 18.8283 7.17165C19.3878 7.73106 19.7687 8.44379 19.9231 9.21972C20.0774 9.99564 19.9982 10.7999 19.6954 11.5308C19.3927 12.2617 18.88 12.8864 18.2222 13.326C17.5644 13.7655 16.791 14.0001 15.9999 14.0001C14.9391 14.0001 13.9216 13.5787 13.1715 12.8285C12.4213 12.0784 11.9999 11.0609 11.9999 10.0001ZM9.99992 24.0001C9.99992 24.3956 9.88262 24.7823 9.66286 25.1112C9.4431 25.4401 9.13074 25.6965 8.76529 25.8478C8.39983 25.9992 7.9977 26.0388 7.60974 25.9617C7.22178 25.8845 6.86541 25.694 6.58571 25.4143C6.306 25.1346 6.11552 24.7782 6.03835 24.3903C5.96118 24.0023 6.00078 23.6002 6.15216 23.2347C6.30353 22.8693 6.55988 22.5569 6.88878 22.3371C7.21768 22.1174 7.60436 22.0001 7.99992 22.0001C8.53035 22.0001 9.03906 22.2108 9.41413 22.5859C9.78921 22.9609 9.99992 23.4696 9.99992 24.0001ZM17.9999 24.0001C17.9999 24.3956 17.8826 24.7823 17.6629 25.1112C17.4431 25.4401 17.1307 25.6965 16.7653 25.8478C16.3998 25.9992 15.9977 26.0388 15.6097 25.9617C15.2218 25.8845 14.8654 25.694 14.5857 25.4143C14.306 25.1346 14.1155 24.7782 14.0383 24.3903C13.9612 24.0023 14.0008 23.6002 14.1522 23.2347C14.3035 22.8693 14.5599 22.5569 14.8888 22.3371C15.2177 22.1174 15.6044 22.0001 15.9999 22.0001C16.5304 22.0001 17.0391 22.2108 17.4141 22.5859C17.7892 22.9609 17.9999 23.4696 17.9999 24.0001ZM23.9999 26.0001C23.6044 26.0001 23.2177 25.8828 22.8888 25.663C22.5599 25.4433 22.3035 25.1309 22.1522 24.7654C22.0008 24.4 21.9612 23.9979 22.0383 23.6099C22.1155 23.2219 22.306 22.8656 22.5857 22.5859C22.8654 22.3062 23.2218 22.1157 23.6097 22.0385C23.9977 21.9613 24.3998 22.0009 24.7653 22.1523C25.1307 22.3037 25.4431 22.56 25.6629 22.8889C25.8826 23.2178 25.9999 23.6045 25.9999 24.0001C25.9999 24.5305 25.7892 25.0392 25.4141 25.4143C25.0391 25.7894 24.5304 26.0001 23.9999 26.0001Z" fill="#444444"/>
</g>
<defs>
<clipPath id="clip0_2923_2750">
<rect width="24" height="24" fill="white" transform="translate(4 4)"/>
</clipPath>
</defs>
</svg>
