<svg width="32" height="32" viewBox="0 0 32 32" fill="none" xmlns="http://www.w3.org/2000/svg">
<g clip-path="url(#clip0_3345_5505)">
<path d="M11 18C11 18.2652 10.8946 18.5196 10.7071 18.7071C10.5196 18.8946 10.2652 19 10 19H9C8.73478 19 8.48043 18.8946 8.29289 18.7071C8.10536 18.5196 8 18.2652 8 18C8 17.7348 8.10536 17.4804 8.29289 17.2929C8.48043 17.1054 8.73478 17 9 17H10C10.2652 17 10.5196 17.1054 10.7071 17.2929C10.8946 17.4804 11 17.7348 11 18ZM15 17H14C13.7348 17 13.4804 17.1054 13.2929 17.2929C13.1054 17.4804 13 17.7348 13 18C13 18.2652 13.1054 18.5196 13.2929 18.7071C13.4804 18.8946 13.7348 19 14 19H15C15.2652 19 15.5196 18.8946 15.7071 18.7071C15.8946 18.5196 16 18.2652 16 18C16 17.7348 15.8946 17.4804 15.7071 17.2929C15.5196 17.1054 15.2652 17 15 17ZM10 21H9C8.73478 21 8.48043 21.1054 8.29289 21.2929C8.10536 21.4804 8 21.7348 8 22C8 22.2652 8.10536 22.5196 8.29289 22.7071C8.48043 22.8946 8.73478 23 9 23H10C10.2652 23 10.5196 22.8946 10.7071 22.7071C10.8946 22.5196 11 22.2652 11 22C11 21.7348 10.8946 21.4804 10.7071 21.2929C10.5196 21.1054 10.2652 21 10 21ZM15 21H14C13.7348 21 13.4804 21.1054 13.2929 21.2929C13.1054 21.4804 13 21.7348 13 22C13 22.2652 13.1054 22.5196 13.2929 22.7071C13.4804 22.8946 13.7348 23 14 23H15C15.2652 23 15.5196 22.8946 15.7071 22.7071C15.8946 22.5196 16 22.2652 16 22C16 21.7348 15.8946 21.4804 15.7071 21.2929C15.5196 21.1054 15.2652 21 15 21ZM10 9H9C8.73478 9 8.48043 9.10536 8.29289 9.29289C8.10536 9.48043 8 9.73478 8 10C8 10.2652 8.10536 10.5196 8.29289 10.7071C8.48043 10.8946 8.73478 11 9 11H10C10.2652 11 10.5196 10.8946 10.7071 10.7071C10.8946 10.5196 11 10.2652 11 10C11 9.73478 10.8946 9.48043 10.7071 9.29289C10.5196 9.10536 10.2652 9 10 9ZM15 9H14C13.7348 9 13.4804 9.10536 13.2929 9.29289C13.1054 9.48043 13 9.73478 13 10C13 10.2652 13.1054 10.5196 13.2929 10.7071C13.4804 10.8946 13.7348 11 14 11H15C15.2652 11 15.5196 10.8946 15.7071 10.7071C15.8946 10.5196 16 10.2652 16 10C16 9.73478 15.8946 9.48043 15.7071 9.29289C15.5196 9.10536 15.2652 9 15 9ZM10 13H9C8.73478 13 8.48043 13.1054 8.29289 13.2929C8.10536 13.4804 8 13.7348 8 14C8 14.2652 8.10536 14.5196 8.29289 14.7071C8.48043 14.8946 8.73478 15 9 15H10C10.2652 15 10.5196 14.8946 10.7071 14.7071C10.8946 14.5196 11 14.2652 11 14C11 13.7348 10.8946 13.4804 10.7071 13.2929C10.5196 13.1054 10.2652 13 10 13ZM15 13H14C13.7348 13 13.4804 13.1054 13.2929 13.2929C13.1054 13.4804 13 13.7348 13 14C13 14.2652 13.1054 14.5196 13.2929 14.7071C13.4804 14.8946 13.7348 15 14 15H15C15.2652 15 15.5196 14.8946 15.7071 14.7071C15.8946 14.5196 16 14.2652 16 14C16 13.7348 15.8946 13.4804 15.7071 13.2929C15.5196 13.1054 15.2652 13 15 13ZM28 14V23C27.9984 24.3256 27.4711 25.5964 26.5338 26.5338C25.5964 27.4711 24.3256 27.9984 23 28H9C7.67441 27.9984 6.40356 27.4711 5.46622 26.5338C4.52888 25.5964 4.00159 24.3256 4 23V9C4.00159 7.67441 4.52888 6.40356 5.46622 5.46622C6.40356 4.52888 7.67441 4.00159 9 4H15C16.3256 4.00159 17.5964 4.52888 18.5338 5.46622C19.4711 6.40356 19.9984 7.67441 20 9H23C24.3256 9.00159 25.5964 9.52888 26.5338 10.4662C27.4711 11.4036 27.9984 12.6744 28 14ZM9 26H18V9C18 8.20435 17.6839 7.44129 17.1213 6.87868C16.5587 6.31607 15.7956 6 15 6H9C8.20435 6 7.44129 6.31607 6.87868 6.87868C6.31607 7.44129 6 8.20435 6 9V23C6 23.7956 6.31607 24.5587 6.87868 25.1213C7.44129 25.6839 8.20435 26 9 26ZM26 14C26 13.2044 25.6839 12.4413 25.1213 11.8787C24.5587 11.3161 23.7956 11 23 11H20V26H23C23.7956 26 24.5587 25.6839 25.1213 25.1213C25.6839 24.5587 26 23.7956 26 23V14ZM23 17C22.8022 17 22.6089 17.0586 22.4444 17.1685C22.28 17.2784 22.1518 17.4346 22.0761 17.6173C22.0004 17.8 21.9806 18.0011 22.0192 18.1951C22.0578 18.3891 22.153 18.5673 22.2929 18.7071C22.4327 18.847 22.6109 18.9422 22.8049 18.9808C22.9989 19.0194 23.2 18.9996 23.3827 18.9239C23.5654 18.8482 23.7216 18.72 23.8315 18.5556C23.9414 18.3911 24 18.1978 24 18C24 17.7348 23.8946 17.4804 23.7071 17.2929C23.5196 17.1054 23.2652 17 23 17ZM23 21C22.8022 21 22.6089 21.0586 22.4444 21.1685C22.28 21.2784 22.1518 21.4346 22.0761 21.6173C22.0004 21.8 21.9806 22.0011 22.0192 22.1951C22.0578 22.3891 22.153 22.5673 22.2929 22.7071C22.4327 22.847 22.6109 22.9422 22.8049 22.9808C22.9989 23.0194 23.2 22.9996 23.3827 22.9239C23.5654 22.8482 23.7216 22.72 23.8315 22.5556C23.9414 22.3911 24 22.1978 24 22C24 21.7348 23.8946 21.4804 23.7071 21.2929C23.5196 21.1054 23.2652 21 23 21ZM23 13C22.8022 13 22.6089 13.0586 22.4444 13.1685C22.28 13.2784 22.1518 13.4346 22.0761 13.6173C22.0004 13.8 21.9806 14.0011 22.0192 14.1951C22.0578 14.3891 22.153 14.5673 22.2929 14.7071C22.4327 14.847 22.6109 14.9422 22.8049 14.9808C22.9989 15.0194 23.2 14.9996 23.3827 14.9239C23.5654 14.8482 23.7216 14.72 23.8315 14.5556C23.9414 14.3911 24 14.1978 24 14C24 13.7348 23.8946 13.4804 23.7071 13.2929C23.5196 13.1054 23.2652 13 23 13Z" fill="#444444"/>
</g>
<defs>
<clipPath id="clip0_3345_5505">
<rect width="24" height="24" fill="white" transform="translate(4 4)"/>
</clipPath>
</defs>
</svg>
