<svg width="32" height="32" viewBox="0 0 32 32" fill="none" xmlns="http://www.w3.org/2000/svg">
<g clip-path="url(#clip0_3345_4777)">
<path d="M23 6H22V5C22 4.73478 21.8946 4.48043 21.7071 4.29289C21.5196 4.10536 21.2652 4 21 4C20.7348 4 20.4804 4.10536 20.2929 4.29289C20.1054 4.48043 20 4.73478 20 5V6H12V5C12 4.73478 11.8946 4.48043 11.7071 4.29289C11.5196 4.10536 11.2652 4 11 4C10.7348 4 10.4804 4.10536 10.2929 4.29289C10.1054 4.48043 10 4.73478 10 5V6H9C7.67441 6.00159 6.40356 6.52888 5.46622 7.46622C4.52888 8.40356 4.00159 9.67441 4 11L4 23C4.00159 24.3256 4.52888 25.5964 5.46622 26.5338C6.40356 27.4711 7.67441 27.9984 9 28H23C24.3256 27.9984 25.5964 27.4711 26.5338 26.5338C27.4711 25.5964 27.9984 24.3256 28 23V11C27.9984 9.67441 27.4711 8.40356 26.5338 7.46622C25.5964 6.52888 24.3256 6.00159 23 6ZM6 11C6 10.2044 6.31607 9.44129 6.87868 8.87868C7.44129 8.31607 8.20435 8 9 8H23C23.7956 8 24.5587 8.31607 25.1213 8.87868C25.6839 9.44129 26 10.2044 26 11V12H6V11ZM23 26H9C8.20435 26 7.44129 25.6839 6.87868 25.1213C6.31607 24.5587 6 23.7956 6 23V14H26V23C26 23.7956 25.6839 24.5587 25.1213 25.1213C24.5587 25.6839 23.7956 26 23 26Z" fill="#444444"/>
<path d="M16 20.5C16.8284 20.5 17.5 19.8284 17.5 19C17.5 18.1716 16.8284 17.5 16 17.5C15.1716 17.5 14.5 18.1716 14.5 19C14.5 19.8284 15.1716 20.5 16 20.5Z" fill="#444444"/>
<path d="M11 20.5C11.8284 20.5 12.5 19.8284 12.5 19C12.5 18.1716 11.8284 17.5 11 17.5C10.1716 17.5 9.5 18.1716 9.5 19C9.5 19.8284 10.1716 20.5 11 20.5Z" fill="#444444"/>
<path d="M21 20.5C21.8284 20.5 22.5 19.8284 22.5 19C22.5 18.1716 21.8284 17.5 21 17.5C20.1716 17.5 19.5 18.1716 19.5 19C19.5 19.8284 20.1716 20.5 21 20.5Z" fill="#444444"/>
</g>
<defs>
<clipPath id="clip0_3345_4777">
<rect width="24" height="24" fill="white" transform="translate(4 4)"/>
</clipPath>
</defs>
</svg>
