<svg width="32" height="32" viewBox="0 0 32 32" fill="none" xmlns="http://www.w3.org/2000/svg">
<g clip-path="url(#clip0_2923_1430)">
<path d="M23 8H21.9C21.6679 6.87141 21.0538 5.85735 20.1613 5.12872C19.2687 4.40009 18.1522 4.00145 17 4L15 4C13.8478 4.00145 12.7313 4.40009 11.8387 5.12872C10.9462 5.85735 10.3321 6.87141 10.1 8H9C7.67441 8.00159 6.40356 8.52888 5.46622 9.46622C4.52888 10.4036 4.00159 11.6744 4 13L4 23C4.00159 24.3256 4.52888 25.5964 5.46622 26.5338C6.40356 27.4711 7.67441 27.9984 9 28H23C24.3256 27.9984 25.5964 27.4711 26.5338 26.5338C27.4711 25.5964 27.9984 24.3256 28 23V13C27.9984 11.6744 27.4711 10.4036 26.5338 9.46622C25.5964 8.52888 24.3256 8.00159 23 8ZM15 6H17C17.6183 6.00256 18.2206 6.19608 18.7247 6.55409C19.2288 6.91209 19.6099 7.41709 19.816 8H12.184C12.3901 7.41709 12.7712 6.91209 13.2753 6.55409C13.7794 6.19608 14.3817 6.00256 15 6ZM9 10H23C23.7956 10 24.5587 10.3161 25.1213 10.8787C25.6839 11.4413 26 12.2044 26 13V16H6V13C6 12.2044 6.31607 11.4413 6.87868 10.8787C7.44129 10.3161 8.20435 10 9 10ZM23 26H9C8.20435 26 7.44129 25.6839 6.87868 25.1213C6.31607 24.5587 6 23.7956 6 23V18H15V19C15 19.2652 15.1054 19.5196 15.2929 19.7071C15.4804 19.8946 15.7348 20 16 20C16.2652 20 16.5196 19.8946 16.7071 19.7071C16.8946 19.5196 17 19.2652 17 19V18H26V23C26 23.7956 25.6839 24.5587 25.1213 25.1213C24.5587 25.6839 23.7956 26 23 26Z" fill="#444444"/>
</g>
<defs>
<clipPath id="clip0_2923_1430">
<rect width="24" height="24" fill="white" transform="translate(4 4)"/>
</clipPath>
</defs>
</svg>
