<svg width="194" height="159" viewBox="0 0 194 159" fill="none" xmlns="http://www.w3.org/2000/svg">
<path d="M178.534 158.999C180.622 158.999 182.689 158.572 184.61 157.742C186.531 156.913 188.265 155.699 189.709 154.174C191.153 152.649 192.276 150.844 193.011 148.868C193.746 146.892 194.077 144.787 193.984 142.678C193.476 131.048 186.162 114.38 166.226 99.3258C138.564 78.4388 155.259 29.5356 118.949 24.5554C59.2661 16.3697 64.5778 71.1147 27.7251 90.6328C4.26666 103.056 0.00153264 127.365 0 143.394C0.00377295 147.536 1.63514 151.507 4.53535 154.433C7.43556 157.359 11.3671 159.002 15.4655 158.999H178.534Z" fill="#F4FBFC"/>
<path d="M142.162 11.188H42.7981C39.5031 11.188 36.832 13.8703 36.832 17.1791V95.702C36.832 99.0108 39.5031 101.693 42.7981 101.693H142.162C145.457 101.693 148.128 99.0108 148.128 95.702V17.1791C148.128 13.8703 145.457 11.188 142.162 11.188Z" fill="white"/>
<path d="M142.162 101.881H42.7981C41.1666 101.879 39.6024 101.228 38.4488 100.069C37.2952 98.9109 36.6463 97.3401 36.6445 95.7018V17.1794C36.6463 15.5411 37.2952 13.9704 38.4488 12.8119C39.6024 11.6534 41.1666 11.0018 42.7981 11H142.162C143.794 11.0018 145.358 11.6534 146.512 12.8119C147.665 13.9704 148.314 15.5411 148.316 17.1794V95.7019C148.314 97.3402 147.665 98.9109 146.511 100.069C145.358 101.228 143.794 101.879 142.162 101.881ZM42.7981 11.3761C41.2659 11.3779 39.7971 11.9899 38.7137 13.0778C37.6303 14.1658 37.0209 15.6409 37.0192 17.1794V95.7019C37.021 97.2405 37.6304 98.7155 38.7138 99.8034C39.7971 100.891 41.266 101.503 42.7981 101.505H142.162C143.694 101.503 145.163 100.891 146.247 99.8035C147.33 98.7156 147.939 97.2405 147.941 95.7019V17.1794C147.939 15.6408 147.33 14.1657 146.247 13.0778C145.163 11.9898 143.694 11.3778 142.162 11.3761H42.7981Z" fill="#444444"/>
<path opacity="0.2" d="M139.406 27.4583H133.305C132.019 27.4583 130.977 28.5051 130.977 29.7965V35.9232C130.977 37.2146 132.019 38.2615 133.305 38.2615H139.406C140.692 38.2615 141.735 37.2146 141.735 35.9232V29.7965C141.735 28.5051 140.692 27.4583 139.406 27.4583Z" fill="#2BBECB"/>
<path opacity="0.2" d="M139.596 41.104H133.541C132.242 41.104 131.189 42.1614 131.189 43.4658V49.5455C131.189 50.8498 132.242 51.9072 133.541 51.9072H139.596C140.894 51.9072 141.947 50.8498 141.947 49.5455V43.4658C141.947 42.1614 140.894 41.104 139.596 41.104Z" fill="#2BBECB"/>
<path opacity="0.2" d="M139.596 56.302H133.541C132.242 56.302 131.189 57.3594 131.189 58.6638V64.7435C131.189 66.0478 132.242 67.1052 133.541 67.1052H139.596C140.894 67.1052 141.947 66.0478 141.947 64.7435V58.6638C141.947 57.3594 140.894 56.302 139.596 56.302Z" fill="#2BBECB"/>
<path opacity="0.2" d="M139.383 70.7224H133.328C132.03 70.7224 130.977 71.7798 130.977 73.0842V79.1639C130.977 80.4682 132.03 81.5256 133.328 81.5256H139.383C140.682 81.5256 141.735 80.4682 141.735 79.1639V73.0842C141.735 71.7798 140.682 70.7224 139.383 70.7224Z" fill="#2BBECB"/>
<g opacity="0.15">
<path d="M95.5369 27.4583H89.4359C88.1499 27.4583 87.1074 28.5051 87.1074 29.7965V35.9232C87.1074 37.2146 88.1499 38.2615 89.4359 38.2615H95.5369C96.8229 38.2615 97.8654 37.2146 97.8654 35.9232V29.7965C97.8654 28.5051 96.8229 27.4583 95.5369 27.4583Z" fill="#2BBECB"/>
<path d="M80.9158 27.4583H74.8148C73.5288 27.4583 72.4863 28.5051 72.4863 29.7965V35.9232C72.4863 37.2146 73.5288 38.2615 74.8148 38.2615H80.9158C82.2018 38.2615 83.2443 37.2146 83.2443 35.9232V29.7965C83.2443 28.5051 82.2018 27.4583 80.9158 27.4583Z" fill="#2BBECB"/>
<path d="M66.5057 27.4583H60.4046C59.1186 27.4583 58.0762 28.5051 58.0762 29.7965V35.9232C58.0762 37.2146 59.1186 38.2615 60.4046 38.2615H66.5057C67.7916 38.2615 68.8341 37.2146 68.8341 35.9232V29.7965C68.8341 28.5051 67.7916 27.4583 66.5057 27.4583Z" fill="#2BBECB"/>
<path d="M66.3889 28.8518H60.6061C59.8895 28.8518 59.3086 29.4352 59.3086 30.1548V35.9619C59.3086 36.6816 59.8895 37.2649 60.6061 37.2649H66.3889C67.1056 37.2649 67.6865 36.6816 67.6865 35.9619V30.1548C67.6865 29.4352 67.1056 28.8518 66.3889 28.8518Z" fill="white"/>
<path d="M51.8826 27.4583H45.7816C44.4956 27.4583 43.4531 28.5051 43.4531 29.7965V35.9232C43.4531 37.2146 44.4956 38.2615 45.7816 38.2615H51.8826C53.1686 38.2615 54.2111 37.2146 54.2111 35.9232V29.7965C54.2111 28.5051 53.1686 27.4583 51.8826 27.4583Z" fill="#2BBECB"/>
<path d="M110.16 27.4583H104.059C102.773 27.4583 101.73 28.5051 101.73 29.7965V35.9232C101.73 37.2146 102.773 38.2615 104.059 38.2615H110.16C111.446 38.2615 112.488 37.2146 112.488 35.9232V29.7965C112.488 28.5051 111.446 27.4583 110.16 27.4583Z" fill="#2BBECB"/>
<path d="M124.783 27.4583H118.682C117.396 27.4583 116.354 28.5051 116.354 29.7965V35.9232C116.354 37.2146 117.396 38.2615 118.682 38.2615H124.783C126.069 38.2615 127.111 37.2146 127.111 35.9232V29.7965C127.111 28.5051 126.069 27.4583 124.783 27.4583Z" fill="#2BBECB"/>
<path d="M95.7264 41.104H89.6722C88.3733 41.104 87.3203 42.1614 87.3203 43.4658V49.5455C87.3203 50.8498 88.3733 51.9072 89.6722 51.9072H95.7264C97.0253 51.9072 98.0783 50.8498 98.0783 49.5455V43.4658C98.0783 42.1614 97.0253 41.104 95.7264 41.104Z" fill="#2BBECB"/>
<path d="M110.349 41.104H104.295C102.996 41.104 101.943 42.1614 101.943 43.4658V49.5455C101.943 50.8498 102.996 51.9072 104.295 51.9072H110.349C111.648 51.9072 112.701 50.8498 112.701 49.5455V43.4658C112.701 42.1614 111.648 41.104 110.349 41.104Z" fill="#2BBECB"/>
<path d="M124.972 41.104H118.918C117.619 41.104 116.566 42.1614 116.566 43.4658V49.5455C116.566 50.8498 117.619 51.9072 118.918 51.9072H124.972C126.271 51.9072 127.324 50.8498 127.324 49.5455V43.4658C127.324 42.1614 126.271 41.104 124.972 41.104Z" fill="#2BBECB"/>
<path d="M51.8592 41.104H45.805C44.5061 41.104 43.4531 42.1614 43.4531 43.4658V49.5455C43.4531 50.8498 44.5061 51.9072 45.805 51.9072H51.8592C53.1581 51.9072 54.2111 50.8498 54.2111 49.5455V43.4658C54.2111 42.1614 53.1581 41.104 51.8592 41.104Z" fill="#2BBECB"/>
<path d="M66.4823 41.104H60.428C59.1291 41.104 58.0762 42.1614 58.0762 43.4658V49.5455C58.0762 50.8498 59.1291 51.9072 60.428 51.9072H66.4823C67.7812 51.9072 68.8341 50.8498 68.8341 49.5455V43.4658C68.8341 42.1614 67.7812 41.104 66.4823 41.104Z" fill="#2BBECB"/>
<path d="M81.1053 41.104H75.0511C73.7522 41.104 72.6992 42.1614 72.6992 43.4658V49.5455C72.6992 50.8498 73.7522 51.9072 75.0511 51.9072H81.1053C82.4042 51.9072 83.4572 50.8498 83.4572 49.5455V43.4658C83.4572 42.1614 82.4042 41.104 81.1053 41.104Z" fill="#2BBECB"/>
<path d="M95.7264 56.302H89.6722C88.3733 56.302 87.3203 57.3594 87.3203 58.6638V64.7435C87.3203 66.0478 88.3733 67.1052 89.6722 67.1052H95.7264C97.0253 67.1052 98.0783 66.0478 98.0783 64.7435V58.6638C98.0783 57.3594 97.0253 56.302 95.7264 56.302Z" fill="#2BBECB"/>
<path d="M110.349 56.302H104.295C102.996 56.302 101.943 57.3594 101.943 58.6638V64.7435C101.943 66.0478 102.996 67.1052 104.295 67.1052H110.349C111.648 67.1052 112.701 66.0478 112.701 64.7435V58.6638C112.701 57.3594 111.648 56.302 110.349 56.302Z" fill="#2BBECB"/>
<path d="M124.972 56.302H118.918C117.619 56.302 116.566 57.3594 116.566 58.6638V64.7435C116.566 66.0478 117.619 67.1052 118.918 67.1052H124.972C126.271 67.1052 127.324 66.0478 127.324 64.7435V58.6638C127.324 57.3594 126.271 56.302 124.972 56.302Z" fill="#2BBECB"/>
<path d="M51.8592 56.302H45.805C44.5061 56.302 43.4531 57.3594 43.4531 58.6638V64.7435C43.4531 66.0478 44.5061 67.1052 45.805 67.1052H51.8592C53.1581 67.1052 54.2111 66.0478 54.2111 64.7435V58.6638C54.2111 57.3594 53.1581 56.302 51.8592 56.302Z" fill="#2BBECB"/>
<path d="M66.4823 56.302H60.428C59.1291 56.302 58.0762 57.3594 58.0762 58.6638V64.7435C58.0762 66.0478 59.1291 67.1052 60.428 67.1052H66.4823C67.7812 67.1052 68.8341 66.0478 68.8341 64.7435V58.6638C68.8341 57.3594 67.7812 56.302 66.4823 56.302Z" fill="#2BBECB"/>
<path d="M81.1053 56.302H75.0511C73.7522 56.302 72.6992 57.3594 72.6992 58.6638V64.7435C72.6992 66.0478 73.7522 67.1052 75.0511 67.1052H81.1053C82.4042 67.1052 83.4572 66.0478 83.4572 64.7435V58.6638C83.4572 57.3594 82.4042 56.302 81.1053 56.302Z" fill="#2BBECB"/>
<path d="M95.7264 70.936H89.6722C88.3733 70.936 87.3203 71.9934 87.3203 73.2978V79.3775C87.3203 80.6819 88.3733 81.7392 89.6722 81.7392H95.7264C97.0253 81.7392 98.0783 80.6819 98.0783 79.3775V73.2978C98.0783 71.9934 97.0253 70.936 95.7264 70.936Z" fill="#2BBECB"/>
<path d="M110.137 70.7224H104.082C102.783 70.7224 101.73 71.7798 101.73 73.0842V79.1639C101.73 80.4682 102.783 81.5256 104.082 81.5256H110.137C111.435 81.5256 112.488 80.4682 112.488 79.1639V73.0842C112.488 71.7798 111.435 70.7224 110.137 70.7224Z" fill="#2BBECB"/>
<path d="M124.76 70.7224H118.705C117.406 70.7224 116.354 71.7798 116.354 73.0842V79.1639C116.354 80.4682 117.406 81.5256 118.705 81.5256H124.76C126.058 81.5256 127.111 80.4682 127.111 79.1639V73.0842C127.111 71.7798 126.058 70.7224 124.76 70.7224Z" fill="#2BBECB"/>
<path d="M51.8592 70.936H45.805C44.5061 70.936 43.4531 71.9934 43.4531 73.2978V79.3775C43.4531 80.6819 44.5061 81.7392 45.805 81.7392H51.8592C53.1581 81.7392 54.2111 80.6819 54.2111 79.3775V73.2978C54.2111 71.9934 53.1581 70.936 51.8592 70.936Z" fill="#2BBECB"/>
<path d="M66.4823 70.936H60.428C59.1291 70.936 58.0762 71.9934 58.0762 73.2978V79.3775C58.0762 80.6819 59.1291 81.7392 60.428 81.7392H66.4823C67.7812 81.7392 68.8341 80.6819 68.8341 79.3775V73.2978C68.8341 71.9934 67.7812 70.936 66.4823 70.936Z" fill="#2BBECB"/>
<path d="M81.1053 70.936H75.0511C73.7522 70.936 72.6992 71.9934 72.6992 73.2978V79.3775C72.6992 80.6819 73.7522 81.7392 75.0511 81.7392H81.1053C82.4042 81.7392 83.4572 80.6819 83.4572 79.3775V73.2978C83.4572 71.9934 82.4042 70.936 81.1053 70.936Z" fill="#2BBECB"/>
<path d="M95.5135 84.1909H89.4593C88.1604 84.1909 87.1074 85.2483 87.1074 86.5527V92.6324C87.1074 93.9367 88.1604 94.9941 89.4593 94.9941H95.5135C96.8124 94.9941 97.8654 93.9367 97.8654 92.6324V86.5527C97.8654 85.2483 96.8124 84.1909 95.5135 84.1909Z" fill="#2BBECB"/>
<path d="M51.6463 84.1909H45.5921C44.2932 84.1909 43.2402 85.2483 43.2402 86.5527V92.6324C43.2402 93.9367 44.2932 94.9941 45.5921 94.9941H51.6463C52.9452 94.9941 53.9982 93.9367 53.9982 92.6324V86.5527C53.9982 85.2483 52.9452 84.1909 51.6463 84.1909Z" fill="#2BBECB"/>
<path d="M66.2694 84.1909H60.2151C58.9162 84.1909 57.8633 85.2483 57.8633 86.5527V92.6324C57.8633 93.9367 58.9162 94.9941 60.2151 94.9941H66.2694C67.5683 94.9941 68.6212 93.9367 68.6212 92.6324V86.5527C68.6212 85.2483 67.5683 84.1909 66.2694 84.1909Z" fill="#2BBECB"/>
<path d="M80.8924 84.1909H74.8382C73.5393 84.1909 72.4863 85.2483 72.4863 86.5527V92.6324C72.4863 93.9367 73.5393 94.9941 74.8382 94.9941H80.8924C82.1913 94.9941 83.2443 93.9367 83.2443 92.6324V86.5527C83.2443 85.2483 82.1913 84.1909 80.8924 84.1909Z" fill="#2BBECB"/>
</g>
<path d="M148.128 17.1794V21.0204H36.832V17.1794C36.8318 16.3925 36.9859 15.6133 37.2856 14.8863C37.5853 14.1593 38.0247 13.4987 38.5787 12.9422C39.1327 12.3858 39.7904 11.9443 40.5143 11.6432C41.2381 11.342 42.014 11.187 42.7976 11.187H142.162C142.945 11.1871 143.721 11.3422 144.445 11.6434C145.169 11.9446 145.827 12.386 146.381 12.9424C146.935 13.4989 147.374 14.1594 147.674 14.8864C147.974 15.6134 148.128 16.3925 148.128 17.1794Z" fill="#AAE5EA"/>
<path d="M51.226 67.6349L44.0865 66.3376C43.8842 66.3008 43.7047 66.1848 43.5875 66.0151C43.4703 65.8454 43.425 65.6359 43.4616 65.4326L44.5657 59.3062L46.7632 57.8369L52.7941 58.9331C52.9965 58.9698 53.176 59.0858 53.2932 59.2555C53.4104 59.4252 53.4557 59.6347 53.4191 59.8379L52.127 67.0074C52.1089 67.108 52.0712 67.2041 52.0161 67.2901C51.9611 67.3761 51.8896 67.4503 51.806 67.5086C51.7223 67.5669 51.628 67.608 51.5285 67.6297C51.429 67.6514 51.3262 67.6532 51.226 67.6349Z" fill="#2BBECB"/>
<path opacity="0.29" d="M46.7639 57.8369L44.5664 59.3062L46.4431 59.6799L46.7639 57.8369Z" fill="white"/>
<g opacity="0.88">
<path d="M51.783 63.4548C51.7758 63.4549 51.7685 63.4544 51.7614 63.453L45.0807 62.2123C45.0525 62.2071 45.0275 62.1908 45.0113 62.1671C44.995 62.1433 44.9888 62.1141 44.994 62.0857C44.9992 62.0574 45.0154 62.0323 45.0391 62.016C45.0627 61.9996 45.0918 61.9934 45.1201 61.9986L51.8008 63.2393C51.827 63.2443 51.8505 63.2588 51.8668 63.2801C51.883 63.3014 51.8908 63.328 51.8887 63.3548C51.8866 63.3815 51.8747 63.4065 51.8553 63.425C51.8359 63.4435 51.8104 63.4541 51.7837 63.4548H51.783Z" fill="white"/>
<path d="M51.5451 64.862C51.5378 64.8621 51.5305 64.8615 51.5234 64.8603L44.8428 63.6196C44.8284 63.6175 44.8145 63.6125 44.8021 63.6049C44.7896 63.5973 44.7788 63.5872 44.7703 63.5753C44.7618 63.5634 44.7558 63.5499 44.7526 63.5356C44.7494 63.5213 44.7492 63.5066 44.7518 63.4921C44.7544 63.4777 44.76 63.464 44.768 63.4518C44.7761 63.4396 44.7865 63.4292 44.7987 63.4211C44.8108 63.413 44.8245 63.4075 44.8388 63.4049C44.8532 63.4022 44.8679 63.4025 44.8822 63.4057L51.5627 64.6464C51.5891 64.6512 51.6129 64.6656 51.6293 64.687C51.6457 64.7084 51.6536 64.7351 51.6515 64.762C51.6494 64.7889 51.6373 64.814 51.6178 64.8325C51.5982 64.851 51.5725 64.8615 51.5456 64.862H51.5451Z" fill="white"/>
<path d="M47.6245 65.4343C47.6173 65.4345 47.6101 65.4339 47.603 65.4326L44.6397 64.8823C44.6253 64.8802 44.6114 64.8752 44.599 64.8676C44.5865 64.86 44.5757 64.8499 44.5672 64.838C44.5587 64.8261 44.5527 64.8126 44.5495 64.7983C44.5463 64.784 44.546 64.7692 44.5487 64.7548C44.5513 64.7404 44.5568 64.7267 44.5649 64.7145C44.5729 64.7023 44.5834 64.6918 44.5955 64.6838C44.6077 64.6757 44.6214 64.6702 44.6357 64.6676C44.6501 64.6649 44.6648 64.6652 44.679 64.6684L47.6423 65.2189C47.6686 65.2238 47.6921 65.2384 47.7083 65.2597C47.7246 65.281 47.7324 65.3076 47.7303 65.3343C47.7281 65.3611 47.7162 65.3861 47.6968 65.4046C47.6774 65.423 47.6519 65.4336 47.6252 65.4343H47.6245Z" fill="white"/>
</g>
<path d="M51.8151 62.3111C51.7887 62.311 51.7623 62.3086 51.7363 62.3039L50.2907 62.0392C50.2337 62.0287 50.1793 62.0071 50.1306 61.9755C50.082 61.9439 50.04 61.9029 50.0072 61.855C49.9743 61.807 49.9512 61.753 49.9392 61.6961C49.9272 61.6392 49.9265 61.5804 49.9372 61.5232L50.1801 59.9818C50.2012 59.8674 50.2661 59.766 50.361 59.6993C50.4558 59.6326 50.5729 59.606 50.6871 59.6252L52.1371 59.8741C52.1946 59.8839 52.2497 59.9051 52.299 59.9364C52.3482 59.9677 52.3908 60.0086 52.4242 60.0566C52.4577 60.1046 52.4812 60.1589 52.4935 60.2161C52.5059 60.2734 52.5067 60.3325 52.4961 60.3901L52.2487 61.9485C52.2298 62.0502 52.1762 62.1421 52.097 62.2083C52.0178 62.2745 51.9181 62.3108 51.8151 62.3111ZM50.6134 59.7905C50.5507 59.7907 50.4899 59.8128 50.4416 59.853C50.3933 59.8932 50.3604 59.9491 50.3485 60.0109L50.1056 61.5524C50.0988 61.5875 50.0989 61.6237 50.1061 61.6587C50.1133 61.6938 50.1273 61.7271 50.1474 61.7567C50.1675 61.7863 50.1932 61.8116 50.2231 61.8311C50.253 61.8506 50.2864 61.864 50.3215 61.8704L51.7671 62.1351C51.837 62.1475 51.9089 62.1317 51.9673 62.0914C52.0258 62.051 52.0662 61.9891 52.0797 61.9192L52.3274 60.3596C52.334 60.3243 52.3335 60.2881 52.326 60.253C52.3185 60.218 52.3042 60.1847 52.2838 60.1553C52.2634 60.1259 52.2374 60.1008 52.2072 60.0815C52.1771 60.0623 52.1434 60.0493 52.1082 60.0432L50.6582 59.7943C50.6434 59.7918 50.6284 59.7905 50.6134 59.7905Z" fill="white"/>
<path d="M142.294 34.4926L136.276 38.5623C136.192 38.6195 136.097 38.6595 135.997 38.6799C135.897 38.7003 135.794 38.7007 135.694 38.6811C135.594 38.6615 135.499 38.6223 135.414 38.5657C135.329 38.5091 135.256 38.4363 135.199 38.3513L131.736 33.1874L132.291 30.5954L137.375 27.1574C137.46 27.1002 137.555 27.0603 137.655 27.04C137.754 27.0196 137.857 27.0192 137.957 27.0388C138.057 27.0584 138.153 27.0976 138.237 27.1542C138.322 27.2107 138.395 27.2835 138.452 27.3684L142.505 33.4117C142.562 33.4965 142.601 33.5918 142.622 33.6921C142.642 33.7923 142.642 33.8956 142.623 33.9959C142.603 34.0963 142.564 34.1918 142.508 34.2771C142.451 34.3623 142.379 34.4355 142.294 34.4926Z" fill="#2BBECB"/>
<path opacity="0.29" d="M132.291 30.5952L131.736 33.1873L133.341 32.1409L132.291 30.5952Z" fill="white"/>
<g opacity="0.88">
<path d="M139.791 31.1057C139.786 31.1109 139.78 31.1155 139.774 31.1196L134.124 34.9086C134.101 34.9229 134.072 34.9274 134.045 34.9212C134.018 34.915 133.994 34.8986 133.979 34.8754C133.964 34.8522 133.958 34.8239 133.963 34.7964C133.967 34.769 133.983 34.7444 134.005 34.7278L139.655 30.9388C139.677 30.9241 139.704 30.9181 139.73 30.9221C139.757 30.9261 139.781 30.9398 139.798 30.9605C139.815 30.9812 139.823 31.0075 139.822 31.0343C139.821 31.0611 139.81 31.0865 139.791 31.1057H139.791Z" fill="white"/>
<path d="M140.596 32.2819C140.591 32.2871 140.585 32.2918 140.579 32.2958L134.929 36.0849C134.905 36.0991 134.877 36.1036 134.85 36.0975C134.823 36.0913 134.799 36.0749 134.784 36.0517C134.768 36.0284 134.762 36.0002 134.767 35.9727C134.772 35.9452 134.787 35.9207 134.81 35.9041L140.459 32.1151C140.482 32.1003 140.509 32.0944 140.535 32.0984C140.561 32.1024 140.585 32.1161 140.602 32.1368C140.619 32.1575 140.628 32.1838 140.627 32.2106C140.626 32.2374 140.615 32.2628 140.596 32.2819Z" fill="white"/>
<path d="M138.185 35.4372C138.18 35.4424 138.174 35.4471 138.168 35.4511L135.663 37.1317C135.651 37.1405 135.638 37.1467 135.623 37.1501C135.609 37.1535 135.594 37.1539 135.58 37.1514C135.565 37.1488 135.552 37.1434 135.539 37.1353C135.527 37.1272 135.516 37.1168 135.508 37.1045C135.5 37.0922 135.495 37.0785 135.492 37.064C135.489 37.0495 135.49 37.0346 135.493 37.0203C135.496 37.0059 135.502 36.9924 135.511 36.9805C135.52 36.9686 135.53 36.9585 135.543 36.951L138.049 35.2704C138.071 35.2556 138.098 35.2497 138.125 35.2537C138.151 35.2577 138.175 35.2713 138.192 35.292C138.209 35.3128 138.218 35.339 138.217 35.3658C138.216 35.3926 138.205 35.4181 138.186 35.4372H138.185Z" fill="white"/>
</g>
<path d="M143.672 159H32.4947C32.4629 159 32.4325 158.987 32.41 158.965C32.3876 158.942 32.375 158.912 32.375 158.88C32.375 158.848 32.3876 158.817 32.41 158.795C32.4325 158.772 32.4629 158.76 32.4947 158.76H143.672C143.704 158.76 143.734 158.772 143.757 158.795C143.779 158.817 143.792 158.848 143.792 158.88C143.792 158.912 143.779 158.942 143.757 158.965C143.734 158.987 143.704 159 143.672 159Z" fill="#444444"/>
<path d="M123.418 151.418C123.418 151.418 122.646 155.435 118.9 155.659C115.155 155.884 115.967 158.88 115.967 158.88H130.281V151.698L123.418 151.418Z" fill="#1A727A"/>
<path d="M127.833 78.135C127.833 78.135 127.788 76.9275 127.797 79.6668C127.833 89.8851 128.351 101.557 128.783 108.387C129.476 119.366 130.912 153.982 130.912 153.982L120.823 153.903L112.391 77.72L127.833 78.135Z" fill="#444444"/>
<path d="M117.011 90.3188C117.011 90.3188 116.622 97.7342 116.55 99.4751C116.383 103.501 116.233 107.696 116.233 112.422L114.842 100.006C114.842 100.006 115.926 96.1231 117.011 90.3188Z" fill="#D5FAFD"/>
<path d="M104.965 151.418C104.965 151.418 104.193 155.435 100.447 155.659C96.7015 155.884 97.5138 158.88 97.5138 158.88H111.827V151.698L104.965 151.418Z" fill="#1A727A"/>
<path d="M102.119 78.9285C102.119 78.9285 101.115 114.195 101.237 115.902L102.683 153.717L112.959 153.889L113.767 114.18C113.767 114.18 113.89 103.226 116.526 93.0538C117.874 87.8334 118.686 82.4878 118.948 77.1011L102.119 78.9285Z" fill="#444444"/>
<path d="M127.936 78.1339L127.966 78.1356C127.966 78.1356 127.944 77.54 127.936 78.1339Z" fill="#F4FBFC"/>
<path d="M108.408 48.0922C108.439 48.0882 108.777 53.7264 115.3 53.2348C119.815 52.8951 121.426 48.0841 121.529 48.0841C121.042 47.9811 120.222 47.8292 120.006 47.7133C119.295 47.3297 118.282 46.9304 118.053 45.5438C117.921 44.7446 118.145 40.6561 118.076 39.8474L111.277 41.401C111.374 43.1088 112.052 47.0677 109.676 47.7693C109.281 47.8843 108.855 47.9911 108.408 48.0922Z" fill="#E98862"/>
<path d="M111.468 44.0644C114.205 44.2765 117.719 43.1102 118.38 39.442L118.977 36.1322C119.639 32.4642 118.257 29.1417 114.818 28.5162C111.378 27.8906 108.271 30.3967 107.61 34.0647L107.346 35.5299C107.263 36.0346 107.216 36.5443 107.203 37.0555C107.159 38.4064 107.096 40.4611 107.762 41.9702C108.39 43.3951 109.719 43.9289 111.468 44.0644Z" fill="#E98862"/>
<path d="M117.607 28.3284C116.52 27.988 115.393 27.7954 114.256 27.7557C114.218 27.5562 114.134 27.3687 114.009 27.2091C113.884 27.0495 113.722 26.9226 113.538 26.8391C112.936 26.6033 112.202 26.9831 111.713 27.7154C111.458 27.2775 111.059 26.9425 110.585 26.7677C109.239 26.3468 109.172 28.2891 109.172 28.2891C109.172 28.2891 107.037 26.1736 106.97 28.8716C106.89 32.1361 107.487 33.0943 107.923 33.3346C108.783 33.8119 109.424 33.7311 109.765 34.4331C110.796 36.5596 109.785 42.5491 110.978 43.2991C112.807 44.448 116.552 44.4876 117.769 44.4004C118.236 44.3661 118.674 43.8221 118.871 43.3949C119.507 42.015 120.926 38.8868 121.321 37.5931C122.051 35.2066 121.997 29.7677 117.607 28.3284Z" fill="#444444"/>
<path d="M110.163 41.1602C111.219 41.0452 111.953 39.8174 111.838 38.7571C111.724 37.6968 110.805 37.2052 109.749 37.3204L109.281 38.0902L109.256 41.2594L110.163 41.1602Z" fill="#E98862"/>
<path d="M100.795 59.5431C100.989 61.8316 101.932 76.109 102.119 78.9278H127.822C127.968 76.3855 128.619 65.2685 129.17 60.297C129.696 55.5529 130.727 53.1778 129.971 51.7752C128.736 49.483 125.361 48.1585 123.059 47.8456C121.654 47.6546 119.54 47.5176 119.54 47.5176H109.643C108.703 47.5176 103.222 47.9618 102.011 48.8987C99.8925 50.5378 100.383 54.694 100.795 59.5431Z" fill="#1A727A"/>
<path d="M100.439 56.6764C100.418 56.6765 100.397 56.6681 100.381 56.653C100.365 56.638 100.355 56.6173 100.354 56.5954L100.147 52.9616C100.145 52.9389 100.153 52.9166 100.168 52.8996C100.183 52.8826 100.204 52.8723 100.227 52.8709C100.25 52.8699 100.272 52.8778 100.288 52.8928C100.305 52.9079 100.316 52.929 100.317 52.9516L100.525 56.5856C100.525 56.5969 100.524 56.6082 100.52 56.6188C100.516 56.6295 100.51 56.6393 100.503 56.6477C100.496 56.6561 100.486 56.663 100.476 56.6679C100.466 56.6728 100.455 56.6756 100.444 56.6763L100.439 56.6764Z" fill="#444444"/>
<path d="M133.379 78.7789C134.135 78.7788 134.88 78.5953 135.55 78.244C136.22 77.8927 136.796 77.384 137.228 76.7612C137.66 76.1383 137.936 75.4199 138.033 74.6669C138.129 73.9139 138.043 73.1487 137.781 72.4364C137.516 71.7133 131.291 55.1587 130.106 52.0913L121.33 55.6617C121.997 57.3862 124.411 63.9234 126.35 69.1896L123.128 68.8379L122.114 78.2075L132.871 78.7511C133.04 78.7696 133.209 78.7789 133.379 78.7789Z" fill="#1A727A"/>
<path d="M128.372 60.3939L127.74 78.9263L127.912 78.9322L128.543 60.3998L128.372 60.3939Z" fill="#444444"/>
<path d="M82.0093 40.6272L74.2276 44.074C74.0591 44.1486 73.868 44.1529 73.6962 44.086C73.5245 44.0191 73.3863 43.8865 73.3119 43.7173L70.4297 37.1549L71.5546 34.3989L78.0167 31.5366C78.1001 31.4996 78.19 31.4795 78.2811 31.4775C78.3723 31.4754 78.463 31.4914 78.548 31.5245C78.633 31.5576 78.7107 31.6072 78.7766 31.6705C78.8425 31.7338 78.8954 31.8095 78.9322 31.8933L82.3645 39.7079C82.4388 39.8771 82.4431 40.069 82.3765 40.2414C82.3098 40.4138 82.1778 40.5526 82.0093 40.6272Z" fill="#2BBECB"/>
<path opacity="0.29" d="M71.5546 34.3992L70.4297 37.1552L72.4106 36.3174L71.5546 34.3992Z" fill="white"/>
<g opacity="0.88">
<path d="M79.157 35.1273C79.1503 35.132 79.1431 35.136 79.1356 35.1393L72.1401 38.2056C72.1111 38.2157 72.0795 38.2145 72.0515 38.2021C72.0234 38.1898 72.001 38.1674 71.9888 38.1392C71.9765 38.1111 71.9752 38.0793 71.9852 38.0503C71.9952 38.0212 72.0157 37.997 72.0426 37.9825L79.0383 34.9161C79.0659 34.9043 79.0969 34.903 79.1253 34.9127C79.1538 34.9224 79.1776 34.9423 79.1923 34.9686C79.2071 34.9948 79.2116 35.0256 79.2051 35.0551C79.1985 35.0845 79.1814 35.1104 79.157 35.1279V35.1273Z" fill="white"/>
<path d="M79.7483 36.456C79.7417 36.4608 79.7346 36.4648 79.7271 36.4681L72.7314 39.5344C72.7024 39.545 72.6704 39.5441 72.642 39.5319C72.6136 39.5197 72.5909 39.4971 72.5786 39.4687C72.5662 39.4402 72.565 39.4082 72.5753 39.3789C72.5857 39.3497 72.6067 39.3255 72.6341 39.3113L79.6297 36.2449C79.6573 36.2326 79.6886 36.231 79.7173 36.2406C79.746 36.2501 79.7702 36.2701 79.785 36.2966C79.7998 36.3231 79.8043 36.3542 79.7975 36.3838C79.7907 36.4134 79.7732 36.4394 79.7483 36.4567V36.456Z" fill="white"/>
<path d="M80.4065 37.9165C80.3999 37.9212 80.3928 37.9253 80.3853 37.9285L73.3896 40.9949C73.3606 41.0055 73.3286 41.0046 73.3002 40.9923C73.2718 40.9801 73.2491 40.9575 73.2368 40.9291C73.2244 40.9007 73.2232 40.8686 73.2335 40.8394C73.2439 40.8102 73.2649 40.786 73.2923 40.7717L80.2879 37.7054C80.3155 37.693 80.3468 37.6915 80.3755 37.701C80.4042 37.7106 80.4284 37.7306 80.4432 37.757C80.458 37.7835 80.4625 37.8146 80.4557 37.8442C80.4489 37.8739 80.4314 37.8999 80.4065 37.9172V37.9165Z" fill="white"/>
<path d="M77.1179 40.9261C77.1111 40.9308 77.104 40.9348 77.0965 40.9381L73.9936 42.2981C73.9647 42.3081 73.933 42.3069 73.905 42.2946C73.877 42.2823 73.8546 42.2598 73.8423 42.2317C73.83 42.2035 73.8287 42.1718 73.8387 42.1427C73.8487 42.1137 73.8692 42.0895 73.8961 42.0749L76.9992 40.715C77.0268 40.7031 77.0578 40.7019 77.0862 40.7115C77.1147 40.7212 77.1385 40.7411 77.1532 40.7674C77.1679 40.7937 77.1725 40.8245 77.1659 40.8539C77.1594 40.8833 77.1423 40.9093 77.1179 40.9268V40.9261Z" fill="white"/>
</g>
<path d="M75.578 40.0284C75.5425 39.9338 75.4882 39.8475 75.4184 39.7747C75.3486 39.7019 75.2647 39.6441 75.172 39.605C75.0792 39.5658 74.9794 39.546 74.8788 39.5468C74.7781 39.5476 74.6787 39.569 74.5866 39.6097C74.4111 39.6947 74.2743 39.8433 74.2038 40.0257C74.1332 40.208 74.1342 40.4104 74.2064 40.5921L74.4528 41.6168C74.5049 41.8336 74.4762 42.062 74.3721 42.259C74.2681 42.456 74.0958 42.6079 73.8878 42.686C73.684 42.7627 73.4595 42.7634 73.2552 42.688C73.0509 42.6125 72.8804 42.466 72.7746 42.2749C72.7746 42.2749 71.2398 39.0192 71.2107 38.8867C70.9589 39.1334 70.5198 39.7402 70.4297 40.1976C70.4265 40.2 70.8741 43.8538 71.1244 44.1113L73.721 48.133C74.7825 49.2253 78.3456 47.408 78.3456 47.408L75.578 40.0284Z" fill="#E98862"/>
<path d="M86.2477 70.0581C85.3782 70.058 84.5235 69.8322 83.7665 69.4025C83.0096 68.9728 82.3762 68.3538 81.9277 67.6057L70.75 48.9594L79.3904 43.7366L87.8873 57.9124L102.012 48.9007L107.996 56.958L88.9768 69.2534C88.1629 69.779 87.2155 70.0584 86.2477 70.0581Z" fill="#1A727A"/>
<path d="M100.937 61.6006C100.918 61.6006 100.899 61.5942 100.884 61.5823C100.869 61.5704 100.859 61.5538 100.854 61.5351C100.849 61.5164 100.851 61.4968 100.859 61.4793C100.867 61.4618 100.881 61.4474 100.898 61.4386L103.338 60.1739C103.358 60.1634 103.382 60.1614 103.404 60.1684C103.425 60.1753 103.443 60.1905 103.453 60.2108C103.464 60.231 103.466 60.2546 103.459 60.2763C103.452 60.298 103.437 60.316 103.417 60.3265L100.976 61.591C100.964 61.5973 100.951 61.6006 100.937 61.6006Z" fill="#444444"/>
<path d="M108.281 48.0531L109.493 46.151C109.546 46.0677 109.619 45.9991 109.706 45.9516C109.792 45.9041 109.889 45.8791 109.987 45.8792H119.121C119.203 45.8791 119.284 45.8965 119.359 45.9301C119.434 45.9638 119.502 46.0129 119.557 46.0743L121.331 48.0531H108.281Z" fill="#1A727A"/>
<path d="M37.7326 124.235L37.4375 124.268L41.0815 157.708L41.3766 157.675L37.7326 124.235Z" fill="#444444"/>
<path d="M47.1716 138.834L45.3789 156.643L45.6743 156.673L47.467 138.864L47.1716 138.834Z" fill="#444444"/>
<path d="M50.2531 154.49H36.9512V158.826H50.2531V154.49Z" fill="#444444"/>
<path opacity="0.2" d="M50.2531 154.49H36.9512V158.826H50.2531V154.49Z" fill="white"/>
<path d="M58.2728 146.508C60.7927 143.145 59.5914 137.968 55.5897 134.944C51.5881 131.921 46.3013 132.196 43.7814 135.559C41.2615 138.922 42.4628 144.1 46.4644 147.123C50.4661 150.147 55.7529 149.872 58.2728 146.508Z" fill="#2BBECB"/>
<path opacity="0.2" d="M58.2728 146.508C60.7927 143.145 59.5914 137.968 55.5897 134.944C51.5881 131.921 46.3013 132.196 43.7814 135.559C41.2615 138.922 42.4628 144.1 46.4644 147.123C50.4661 150.147 55.7529 149.872 58.2728 146.508Z" fill="white"/>
<path opacity="0.5" d="M58.2728 146.509C58.1036 146.736 57.919 146.951 57.7202 147.152C54.9463 148.932 50.852 148.651 47.604 146.197C43.6026 143.174 42.4016 137.996 44.9219 134.633C45.0913 134.407 45.2755 134.192 45.4731 133.99C48.2484 132.209 52.3413 132.491 55.5907 134.944C59.5919 137.968 60.7929 143.146 58.2728 146.509Z" fill="white"/>
<path d="M39.7088 133.749C43.6731 130.676 44.7505 125.406 42.1154 121.977C39.4802 118.549 34.1304 118.261 30.1662 121.334C26.2019 124.407 25.1245 129.677 27.7596 133.105C30.3948 136.534 35.7446 136.822 39.7088 133.749Z" fill="#2BBECB"/>
<path opacity="0.2" d="M38.4543 132.867C35.3842 135.248 31.4825 135.611 28.6542 134.061C28.3269 133.771 28.0279 133.451 27.7614 133.104C25.125 129.677 26.2024 124.406 30.1665 121.334C33.2366 118.954 37.1383 118.59 39.9651 120.139C40.2931 120.428 40.5925 120.749 40.8591 121.097C43.4949 124.524 42.4175 129.795 38.4543 132.867Z" fill="white"/>
<circle cx="53.0682" cy="22.1214" r="13.2088" fill="#FF4D53"/>
<rect x="50.8984" y="13.4287" width="6.64935" height="19.3939" rx="3.32468" fill="#FFE4E5"/>
<rect x="50.9199" y="34.7766" width="6.64935" height="6.64935" rx="3.32468" fill="#FFE4E5"/>
<circle cx="43" cy="24" r="24" fill="#FFA3A6"/>
<circle cx="43.1039" cy="24.1039" r="20.3636" fill="#FF4D53"/>
<rect x="39.7559" y="10.7029" width="6.64935" height="19.3939" rx="3.32468" fill="#FFE4E5"/>
<rect x="39.7773" y="32.0508" width="6.64935" height="6.64935" rx="3.32468" fill="#FFE4E5"/>
</svg>
