<svg width="11" height="12" viewBox="0 0 11 12" fill="none" xmlns="http://www.w3.org/2000/svg">
<path d="M9.5013 4.66675H6.83464V2.00008C6.83464 1.64646 6.69416 1.30732 6.44411 1.05727C6.19406 0.807224 5.85492 0.666748 5.5013 0.666748C5.14768 0.666748 4.80854 0.807224 4.55849 1.05727C4.30844 1.30732 4.16797 1.64646 4.16797 2.00008V4.66675H1.5013C1.14768 4.66675 0.808541 4.80722 0.558493 5.05727C0.308444 5.30732 0.167969 5.64646 0.167969 6.00008C0.167969 6.3537 0.308444 6.69284 0.558493 6.94289C0.808541 7.19294 1.14768 7.33341 1.5013 7.33341H4.16797V10.0001C4.16797 10.3537 4.30844 10.6928 4.55849 10.9429C4.80854 11.1929 5.14768 11.3334 5.5013 11.3334C5.85492 11.3334 6.19406 11.1929 6.44411 10.9429C6.69416 10.6928 6.83464 10.3537 6.83464 10.0001V7.33341H9.5013C9.85492 7.33341 10.1941 7.19294 10.4441 6.94289C10.6942 6.69284 10.8346 6.3537 10.8346 6.00008C10.8346 5.64646 10.6942 5.30732 10.4441 5.05727C10.1941 4.80722 9.85492 4.66675 9.5013 4.66675Z" fill="#2771C7"/>
</svg>
