<svg width="20" height="20" viewBox="0 0 20 20" fill="none" xmlns="http://www.w3.org/2000/svg">
<g id="7952178_pallet_box_storage_shipping_delivery_icon 1" clip-path="url(#clip0_1878_10173)">
<g id="21. Pallet">
<path id="Vector" d="M4.375 3.125H6.875V5C6.875 5.16576 6.80915 5.32473 6.69194 5.44194C6.57473 5.55915 6.41576 5.625 6.25 5.625H5C4.83424 5.625 4.67527 5.55915 4.55806 5.44194C4.44085 5.32473 4.375 5.16576 4.375 5V3.125Z" fill="#AAE5EA"/>
<path id="Vector_2" d="M13.125 3.125H15.625V5C15.625 5.16576 15.5592 5.32473 15.4419 5.44194C15.3247 5.55915 15.1658 5.625 15 5.625H13.75C13.5842 5.625 13.4253 5.55915 13.3081 5.44194C13.1908 5.32473 13.125 5.16576 13.125 5V3.125Z" fill="#AAE5EA"/>
<path id="Vector_3" d="M19.375 11.25H19.2625C19.3353 11.0496 19.3733 10.8382 19.375 10.625V4.375C19.375 3.87772 19.1775 3.40081 18.8258 3.04917C18.4742 2.69754 17.9973 2.5 17.5 2.5H11.25C10.7875 2.50276 10.3423 2.67638 10 2.9875C9.65773 2.67638 9.21253 2.50276 8.75 2.5H2.5C2.00272 2.5 1.52581 2.69754 1.17417 3.04917C0.822544 3.40081 0.625 3.87772 0.625 4.375V10.625C0.62669 10.8382 0.664736 11.0496 0.7375 11.25H0.625C0.45924 11.25 0.300269 11.3158 0.183058 11.4331C0.065848 11.5503 0 11.7092 0 11.875L0 14.375C0 14.5408 0.065848 14.6997 0.183058 14.8169C0.300269 14.9342 0.45924 15 0.625 15H1.25V16.875C1.25 17.0408 1.31585 17.1997 1.43306 17.3169C1.55027 17.4342 1.70924 17.5 1.875 17.5H4.375C4.54076 17.5 4.69973 17.4342 4.81694 17.3169C4.93415 17.1997 5 17.0408 5 16.875V15H8.125V16.875C8.125 17.0408 8.19085 17.1997 8.30806 17.3169C8.42527 17.4342 8.58424 17.5 8.75 17.5H11.25C11.4158 17.5 11.5747 17.4342 11.6919 17.3169C11.8092 17.1997 11.875 17.0408 11.875 16.875V15H15V16.875C15 17.0408 15.0658 17.1997 15.1831 17.3169C15.3003 17.4342 15.4592 17.5 15.625 17.5H18.125C18.2908 17.5 18.4497 17.4342 18.5669 17.3169C18.6842 17.1997 18.75 17.0408 18.75 16.875V15H19.375C19.5408 15 19.6997 14.9342 19.8169 14.8169C19.9342 14.6997 20 14.5408 20 14.375V11.875C20 11.7092 19.9342 11.5503 19.8169 11.4331C19.6997 11.3158 19.5408 11.25 19.375 11.25ZM11.25 3.75H17.5C17.6658 3.75 17.8247 3.81585 17.9419 3.93306C18.0592 4.05027 18.125 4.20924 18.125 4.375V10.625C18.125 10.7908 18.0592 10.9497 17.9419 11.0669C17.8247 11.1842 17.6658 11.25 17.5 11.25H11.25C11.0842 11.25 10.9253 11.1842 10.8081 11.0669C10.6908 10.9497 10.625 10.7908 10.625 10.625V4.375C10.625 4.20924 10.6908 4.05027 10.8081 3.93306C10.9253 3.81585 11.0842 3.75 11.25 3.75ZM1.875 10.625V4.375C1.875 4.20924 1.94085 4.05027 2.05806 3.93306C2.17527 3.81585 2.33424 3.75 2.5 3.75H8.75C8.91576 3.75 9.07473 3.81585 9.19194 3.93306C9.30915 4.05027 9.375 4.20924 9.375 4.375V10.625C9.375 10.7908 9.30915 10.9497 9.19194 11.0669C9.07473 11.1842 8.91576 11.25 8.75 11.25H2.5C2.33424 11.25 2.17527 11.1842 2.05806 11.0669C1.94085 10.9497 1.875 10.7908 1.875 10.625ZM3.75 16.25H2.5V15H3.75V16.25ZM10.625 16.25H9.375V15H10.625V16.25ZM17.5 16.25H16.25V15H17.5V16.25ZM18.75 13.75H1.25V12.5H18.75V13.75Z" fill="#2BBECB"/>
<path id="Vector_4" d="M5 10H3.75C3.58424 10 3.42527 9.93415 3.30806 9.81694C3.19085 9.69973 3.125 9.54076 3.125 9.375C3.125 9.20924 3.19085 9.05027 3.30806 8.93306C3.42527 8.81585 3.58424 8.75 3.75 8.75H5C5.16576 8.75 5.32473 8.81585 5.44194 8.93306C5.55915 9.05027 5.625 9.20924 5.625 9.375C5.625 9.54076 5.55915 9.69973 5.44194 9.81694C5.32473 9.93415 5.16576 10 5 10Z" fill="#2BBECB"/>
<path id="Vector_5" d="M13.75 10H12.5C12.3342 10 12.1753 9.93415 12.0581 9.81694C11.9408 9.69973 11.875 9.54076 11.875 9.375C11.875 9.20924 11.9408 9.05027 12.0581 8.93306C12.1753 8.81585 12.3342 8.75 12.5 8.75H13.75C13.9158 8.75 14.0747 8.81585 14.1919 8.93306C14.3092 9.05027 14.375 9.20924 14.375 9.375C14.375 9.54076 14.3092 9.69973 14.1919 9.81694C14.0747 9.93415 13.9158 10 13.75 10Z" fill="#2BBECB"/>
</g>
</g>
<defs>
<clipPath id="clip0_1878_10173">
<rect width="20" height="20" fill="white"/>
</clipPath>
</defs>
</svg>
