<svg width="12" height="11" viewBox="0 0 12 11" fill="none" xmlns="http://www.w3.org/2000/svg">
<g id="Close ">
<rect id="Rectangle 233" x="3.36206" y="3" width="5.25" height="5.90625" fill="white"/>
<path id="Vector" d="M5.98706 0.375C3.09956 0.375 0.737061 2.7375 0.737061 5.625C0.737061 8.5125 3.09956 10.875 5.98706 10.875C8.87456 10.875 11.2371 8.5125 11.2371 5.625C11.2371 2.7375 8.87456 0.375 5.98706 0.375ZM7.92956 6.8325C8.13956 7.0425 8.13956 7.3575 7.92956 7.5675C7.71956 7.7775 7.40456 7.7775 7.19456 7.5675L5.98706 6.36L4.77956 7.5675C4.56956 7.7775 4.25456 7.7775 4.04456 7.5675C3.83456 7.3575 3.83456 7.0425 4.04456 6.8325L5.25206 5.625L4.04456 4.4175C3.83456 4.2075 3.83456 3.8925 4.04456 3.6825C4.25456 3.4725 4.56956 3.4725 4.77956 3.6825L5.98706 4.89L7.19456 3.6825C7.40456 3.4725 7.71956 3.4725 7.92956 3.6825C8.13956 3.8925 8.13956 4.2075 7.92956 4.4175L6.72206 5.625L7.92956 6.8325Z" fill="#ED1C24"/>
</g>
</svg>
