<svg width="95" height="50" viewBox="0 0 95 50" fill="none" xmlns="http://www.w3.org/2000/svg">
<g id="vector">
<g clip-path="url(#clip0_551_12738)">
<g id="Shipment">
<g id="state/berhasil masuk keranjang">
<g id="Rectangle">
<mask id="mask0_551_12738" style="mask-type:alpha" maskUnits="userSpaceOnUse" x="-1" y="5" width="99" height="47">
<g id="mask 3">
<path id="Vector" d="M83.0923 51.9997C58.3954 51.9997 33.452 51.9997 10.2569 51.9997C6.86252 51.9997 -0.0257775 52.0491 -0.115332 50.8748C-1.21544 36.4495 6.80741 28.52 38.1489 25.7835C50.8273 24.6765 70.8558 0.210519 84.9335 6.8455C97.0115 12.538 107.789 51.9997 83.0923 51.9997Z" fill="white"/>
</g>
</mask>
<g mask="url(#mask0_551_12738)">
<path id="Mask" d="M83.0923 51.9997C58.3954 51.9997 33.452 51.9997 10.2569 51.9997C6.86252 51.9997 -0.0257775 52.0491 -0.115332 50.8748C-1.21544 36.4495 6.80741 28.52 38.1489 25.7835C50.8273 24.6765 70.8558 0.210519 84.9334 6.8455C97.0115 12.538 107.789 51.9997 83.0923 51.9997Z" fill="url(#paint0_linear_551_12738)"/>
<path id="Vector_2" fill-rule="evenodd" clip-rule="evenodd" d="M4.07816 51.7522L11.3359 48.6151L14.4166 56.0057L7.15888 59.1428L4.07816 51.7522Z" stroke="#C1F0F6"/>
</g>
</g>
<path id="Rectangle_2" fill-rule="evenodd" clip-rule="evenodd" d="M25.9475 14.8234L26.9588 16.4522L25.3405 17.4699L24.3293 15.8411L25.9475 14.8234Z" stroke="#90D9E4"/>
<path id="Rectangle_3" fill-rule="evenodd" clip-rule="evenodd" d="M21.5911 32.154L23.1542 33.2556L22.0596 34.8289L20.4965 33.7273L21.5911 32.154Z" fill="#ABE1E8"/>
<path id="Rectangle_4" fill-rule="evenodd" clip-rule="evenodd" d="M58.6833 40.381L63.991 42.5393L61.8465 47.8812L56.5389 45.7229L58.6833 40.381Z" fill="#CEF1F5"/>
<path id="Rectangle_5" fill-rule="evenodd" clip-rule="evenodd" d="M67.9243 0L68.9355 1.62884L67.3173 2.64666L66.3061 1.01781L67.9243 0Z" stroke="#D9F9FE"/>
</g>
<g id="Group 34396">
<g id="_x36_">
<g id="Group">
<g id="Group_2">
<rect id="Rectangle 435" width="30.158" height="9.71189" transform="matrix(-1 0 0 1 66.3752 17.8903)" fill="#2BBECB"/>
<g id="Group_3">
<path id="Vector_3" fill-rule="evenodd" clip-rule="evenodd" d="M68.3533 15.4548C68.3533 16.4374 68.3533 17.3204 68.3533 18.287C69.1129 18.287 69.7722 18.3007 70.4308 18.2837C72.0647 18.242 73.6983 18.1923 75.3315 18.1317C75.6528 18.1197 75.8932 18.2083 76.1205 18.4433C77.601 19.9719 79.0876 21.4938 80.5872 23.0044C80.8858 23.305 81.0218 23.616 81.0258 24.0466C81.0742 28.8504 81.1408 33.6541 81.1985 38.4584C81.2012 38.6977 81.1638 38.9371 81.1405 39.24C80.7202 39.2567 80.3572 39.2797 79.9936 39.284C77.8147 39.311 75.6352 39.337 73.456 39.3557C72.711 39.3617 72.7233 39.3474 72.485 38.6414C71.9607 37.0838 70.7231 36.3169 69.2369 36.0372C67.9783 35.8003 66.7257 36.0796 65.5925 36.7535C64.7998 37.2252 64.1552 37.8228 63.9076 38.7381C63.7726 39.2357 63.4863 39.3944 62.9943 39.3854C61.6577 39.3597 60.3201 39.365 58.9825 39.3644C55.5897 39.3634 52.1966 39.3674 48.8035 39.3654C48.0775 39.365 48.0565 39.4797 47.7856 38.6184C47.6496 38.1871 47.3996 37.7505 47.0899 37.4212C45.845 36.0952 44.2814 35.6866 42.5472 36.1279C41.8196 36.3136 41.119 36.6812 40.4657 37.0658C39.6257 37.5611 39.2454 38.4014 39.1014 39.3347C39.0044 39.3737 38.9398 39.4224 38.8728 39.4247C37.6608 39.4707 36.4483 39.5117 35.236 39.552C35.112 39.5564 34.9877 39.558 34.8647 39.547C34.2484 39.492 34.0981 39.337 34.0874 38.7114C34.0697 37.6965 34.0557 36.6805 34.0544 35.6656C34.0454 29.722 34.0391 23.7783 34.0354 17.8344C34.0351 17.2901 34.0484 16.7444 34.0767 16.2011C34.1071 15.6108 34.2177 15.5228 34.7877 15.5092C45.2377 15.2535 55.6884 15.3399 66.1391 15.3895C66.8284 15.3929 67.5173 15.4295 68.3533 15.4548ZM67.6463 16.1305C67.3077 16.1141 67.0644 16.0951 66.821 16.0925C64.8145 16.0751 62.808 16.0438 60.8014 16.0481C53.1472 16.0655 45.4924 16.0891 37.8382 16.1245C36.8306 16.1288 35.823 16.2098 34.7757 16.2571C34.749 16.8801 34.701 17.4461 34.7034 18.0124C34.7187 21.9014 34.7497 25.7902 34.7654 29.6793C34.7764 32.5275 34.7704 35.3763 34.7764 38.2251C34.777 38.4144 34.819 38.6037 34.8514 38.8751C36.0929 38.8347 37.2922 38.7964 38.4471 38.7591C39.3707 36.3742 41.2053 35.4846 43.4805 35.3183C46.0373 35.1306 47.6312 36.5469 48.7635 38.6581C53.5695 38.6581 58.3662 38.6581 63.1946 38.6581C63.5106 37.6851 64.0672 36.9218 64.9138 36.3772C65.6088 35.9302 66.3497 35.6036 67.1544 35.4179C67.3157 35.3809 67.4713 35.3173 67.6463 35.2603C67.6463 28.8883 67.6463 22.5527 67.6463 16.1305ZM68.3976 19.0436C68.3976 24.47 68.3976 29.854 68.3976 35.2373C70.8078 35.3623 72.4054 36.5892 73.3943 38.6038C75.0409 38.6038 76.6428 38.6038 78.3387 38.6038C78.3387 36.9365 78.3387 35.3426 78.3387 33.6544C79.0826 33.6544 79.7359 33.6544 80.3945 33.6544C80.4242 33.4671 80.4519 33.3724 80.4515 33.2784C80.4379 30.2833 80.4192 27.2881 80.4075 24.2933C80.4065 23.9493 80.2879 23.6763 80.0482 23.4324C78.6453 22.0018 77.2461 20.5669 75.8508 19.1293C75.6092 18.8806 75.3362 18.7886 74.9889 18.7993C72.886 18.8643 70.7831 18.9136 68.6799 18.9706C68.6096 18.9726 68.5403 19.0053 68.3976 19.0436ZM78.7973 35.6943C78.8053 36.7152 78.7703 37.6348 78.8186 38.5711C79.4379 38.5711 79.9646 38.5711 80.4362 38.5711C80.4362 37.5755 80.4362 36.6335 80.4362 35.6943C79.8552 35.6943 79.3716 35.6943 78.7973 35.6943ZM78.8496 34.1827C78.8496 34.562 78.8496 34.8406 78.8496 35.1316C79.4026 35.1316 79.9019 35.1316 80.4215 35.1316C80.4215 34.7956 80.4215 34.513 80.4215 34.1827C79.8846 34.1827 79.3856 34.1827 78.8496 34.1827Z" fill="#CAEDF0"/>
<path id="Vector_4" fill-rule="evenodd" clip-rule="evenodd" d="M67.6464 16.1306C67.6464 22.5528 67.6464 28.8884 67.6464 35.2604C67.4714 35.3174 67.3157 35.3807 67.1544 35.418C66.3495 35.6037 65.6089 35.9303 64.9139 36.3773C64.0669 36.9219 63.5106 37.6852 63.1947 38.6582C58.3663 38.6582 53.5696 38.6582 48.7636 38.6582C47.6313 36.547 46.0374 35.1311 43.4806 35.3184C41.2054 35.4847 39.3708 36.3743 38.4472 38.7592C37.2923 38.7962 36.093 38.8348 34.8514 38.8752C34.8191 38.6038 34.7771 38.4145 34.7764 38.2252C34.7704 35.3764 34.7764 32.5276 34.7654 29.6794C34.7498 25.7903 34.7191 21.9015 34.7034 18.0125C34.7014 17.4465 34.7491 16.8805 34.7758 16.2572C35.823 16.2096 36.8303 16.1286 37.8382 16.1246C45.4924 16.0896 53.1473 16.0656 60.8015 16.0482C62.808 16.0436 64.8146 16.0752 66.8211 16.0926C67.0644 16.0952 67.3077 16.1142 67.6464 16.1306ZM36.791 18.3348C36.7623 18.6388 36.7286 18.8304 36.7286 19.0224C36.725 21.5472 36.726 24.0724 36.7263 26.5979C36.7263 26.6972 36.7303 26.7962 36.7296 26.8949C36.728 27.1972 36.882 27.3525 37.1796 27.3652C37.3276 27.3715 37.4766 27.3675 37.6252 27.3675C46.8597 27.3675 56.0941 27.3675 65.3289 27.3672C65.5019 27.3672 65.6755 27.3675 65.8485 27.3632C66.1125 27.3565 66.2651 27.2259 66.2781 26.9562C66.2868 26.7839 66.2858 26.6106 66.2858 26.4366C66.2865 24.0358 66.2875 21.6339 66.2861 19.2327C66.2858 18.3371 66.2828 18.3354 65.3819 18.3354C56.0978 18.3348 46.8137 18.3348 37.5296 18.3348C37.3116 18.3348 37.0929 18.3348 36.791 18.3348ZM52.3457 29.0401C52.155 29.0081 52.0137 28.9638 51.8724 28.9638C47.1 28.9624 42.3276 28.9641 37.5549 28.9708C37.3463 28.9711 37.1383 29.0204 36.8876 29.0521C36.8876 29.5737 36.8876 30.016 36.8876 30.459C36.8876 30.92 36.8876 31.3803 36.8876 31.8116C37.6109 32.0073 51.6987 32.0069 52.3457 31.8239C52.3457 30.914 52.3457 29.9904 52.3457 29.0401Z" fill="#2BBECB"/>
<path id="Vector_5" fill-rule="evenodd" clip-rule="evenodd" d="M68.3977 19.0437C68.5404 19.0054 68.6097 18.9728 68.68 18.9704C70.7832 18.9134 72.8861 18.8644 74.989 18.7991C75.3363 18.7884 75.6093 18.8804 75.8509 19.1291C77.2462 20.5667 78.6454 22.0016 80.0483 23.4321C80.288 23.6761 80.4066 23.9491 80.4076 24.2931C80.4193 27.2879 80.438 30.2831 80.4516 33.2782C80.452 33.3722 80.4243 33.4669 80.3946 33.6542C79.736 33.6542 79.0827 33.6542 78.3388 33.6542C78.3388 35.3421 78.3388 36.9363 78.3388 38.6035C76.6429 38.6035 75.041 38.6035 73.3944 38.6035C72.4055 36.589 70.8079 35.3621 68.3977 35.2371C68.3977 29.8541 68.3977 24.4701 68.3977 19.0437ZM78.6677 28.4088C78.7137 28.2009 78.7617 28.0832 78.7627 27.9659C78.7701 27.0743 78.7931 26.182 78.7541 25.2924C78.7437 25.055 78.5844 24.7807 78.4121 24.6014C77.5018 23.6565 76.5589 22.7442 75.6429 21.8046C75.3729 21.5276 75.0666 21.4636 74.705 21.4653C73.3187 21.4739 71.9325 21.4643 70.5462 21.4699C69.8573 21.4726 69.8276 21.4973 69.8246 22.1826C69.8173 24.0888 69.8196 25.995 69.8246 27.9009C69.825 28.0635 69.8756 28.2268 69.9063 28.4085C72.8368 28.4088 75.7229 28.4088 78.6677 28.4088ZM73.1774 29.6511C73.1577 29.5851 73.1381 29.5191 73.1184 29.4531C72.0871 29.4531 71.0559 29.4481 70.0246 29.4604C69.9283 29.4621 69.8333 29.5731 69.6643 29.6791C69.8469 29.7901 69.9603 29.9181 70.0729 29.9177C71.0595 29.9157 72.0465 29.8944 73.0328 29.8637C73.0834 29.8627 73.1294 29.7254 73.1774 29.6511Z" fill="#2BBECB"/>
<path id="Vector_6" fill-rule="evenodd" clip-rule="evenodd" d="M78.7971 35.6943C79.371 35.6943 79.8547 35.6943 80.436 35.6943C80.436 36.6335 80.436 37.5755 80.436 38.5711C79.9643 38.5711 79.4377 38.5711 78.8184 38.5711C78.7704 37.6351 78.8054 36.7152 78.7971 35.6943Z" fill="#63CBD5"/>
<path id="Vector_7" fill-rule="evenodd" clip-rule="evenodd" d="M78.8496 34.1828C79.3852 34.1828 79.8845 34.1828 80.4215 34.1828C80.4215 34.5127 80.4215 34.7957 80.4215 35.1317C79.9015 35.1317 79.4026 35.1317 78.8496 35.1317C78.8496 34.8407 78.8496 34.5621 78.8496 34.1828Z" fill="#63CBD5"/>
<path id="Vector_8" fill-rule="evenodd" clip-rule="evenodd" d="M52.3455 29.0401C52.3455 29.9903 52.3455 30.9136 52.3455 31.8236C51.6985 32.0065 37.6104 32.0069 36.8875 31.8112C36.8875 31.3799 36.8875 30.9196 36.8875 30.4586C36.8875 30.0157 36.8875 29.5737 36.8875 29.0517C37.1381 29.0201 37.3461 28.9707 37.5547 28.9704C42.3274 28.9637 47.0998 28.9624 51.8722 28.9634C52.0135 28.9641 52.1548 29.0084 52.3455 29.0401ZM37.4021 31.3729C42.2485 31.3729 47.0518 31.3729 51.8682 31.3729C51.8682 30.7186 51.8682 30.1163 51.8682 29.523C50.7099 29.354 37.9127 29.4157 37.4021 29.588C37.4021 30.168 37.4021 30.7513 37.4021 31.3729Z" fill="#2BBECB"/>
<path id="Vector_9" fill-rule="evenodd" clip-rule="evenodd" d="M78.6675 28.4088C75.7226 28.4088 72.8365 28.4088 69.9057 28.4088C69.875 28.2268 69.8243 28.0638 69.824 27.9012C69.819 25.9953 69.8167 24.0887 69.824 22.1828C69.827 21.4976 69.8567 21.4729 70.5456 21.4702C71.9319 21.4646 73.3181 21.4746 74.7044 21.4656C75.066 21.4636 75.3727 21.5279 75.6423 21.8049C76.5583 22.7441 77.5009 23.6568 78.4115 24.6017C78.5838 24.781 78.7431 25.0553 78.7535 25.2927C78.7928 26.1823 78.7698 27.0745 78.7621 27.9662C78.7615 28.0831 78.7135 28.2008 78.6675 28.4088ZM76.7622 23.6348C76.4329 23.7964 76.1639 23.9187 75.9043 24.0577C74.2284 24.955 72.5542 25.856 70.8806 26.7569C70.2356 27.1045 70.2376 27.1079 70.3933 27.9505C71.1239 28.0288 71.8109 28.0185 72.5112 27.6188C74.0974 26.7142 75.7306 25.892 77.3425 25.033C77.5035 24.9467 77.6502 24.834 77.8502 24.703C77.4622 24.3214 77.1306 23.9961 76.7622 23.6348ZM73.0991 27.7938C73.1245 27.8485 73.1498 27.9028 73.1751 27.9572C74.847 27.9572 76.5183 27.9572 78.2408 27.9572C78.2408 27.0292 78.2408 26.1343 78.2408 25.0907C76.4593 26.0273 74.779 26.9109 73.0991 27.7938ZM70.3666 25.0987C72.0965 24.1571 73.7504 23.2564 75.5646 22.2692C75.2053 22.1132 75.0237 21.9875 74.828 21.9592C74.4044 21.8982 74.0041 21.9845 73.6198 22.2048C72.7625 22.6951 71.8902 23.1595 71.0226 23.6318C70.259 24.0471 70.2583 24.0457 70.3666 25.0987ZM70.3846 26.4689C72.3722 25.4023 74.3364 24.347 76.3803 23.2494C76.1489 23.0285 75.9823 22.8705 75.797 22.6935C74.0967 23.6144 72.4482 24.506 70.8009 25.4016C70.2683 25.691 70.27 25.6943 70.3846 26.4689ZM72.7685 22.1302C72.7538 22.0869 72.7388 22.0435 72.7238 22.0002C71.9372 22.0002 71.1503 22.0002 70.349 22.0002C70.349 22.4818 70.349 22.9078 70.349 23.4541C71.2142 22.9808 71.9915 22.5552 72.7685 22.1302Z" fill="#2BBECB"/>
<path id="Vector_10" fill-rule="evenodd" clip-rule="evenodd" d="M73.1772 29.6509C73.1288 29.7252 73.0832 29.8626 73.0325 29.8639C72.0466 29.8946 71.0596 29.9159 70.0727 29.9179C69.9604 29.9182 69.8471 29.7902 69.6641 29.6792C69.8331 29.5732 69.928 29.4623 70.0244 29.4606C71.0553 29.4483 72.0869 29.4533 73.1182 29.4533C73.1378 29.5193 73.1575 29.5849 73.1772 29.6509Z" fill="#2BBECB"/>
<path id="Vector_11" fill-rule="evenodd" clip-rule="evenodd" d="M37.4021 31.3729C37.4021 30.7513 37.4021 30.168 37.4021 29.5884C37.9127 29.4157 50.7099 29.3544 51.8682 29.5234C51.8682 30.1167 51.8682 30.719 51.8682 31.3733C47.0518 31.3729 42.2485 31.3729 37.4021 31.3729Z" fill="#C7F2F6"/>
<path id="Vector_12" fill-rule="evenodd" clip-rule="evenodd" d="M76.7626 23.6347C77.1309 23.996 77.4622 24.3217 77.8502 24.7027C77.6499 24.834 77.5036 24.9463 77.3426 25.0326C75.7307 25.8916 74.0974 26.7139 72.5112 27.6185C71.8112 28.0181 71.1239 28.0285 70.3933 27.9501C70.238 27.1075 70.236 27.1042 70.8806 26.7565C72.5542 25.8556 74.2284 24.955 75.9043 24.0574C76.1646 23.9184 76.4333 23.7964 76.7626 23.6347Z" fill="#C7F2F6"/>
<path id="Vector_13" fill-rule="evenodd" clip-rule="evenodd" d="M73.0991 27.794C74.779 26.911 76.4592 26.0274 78.2405 25.0911C78.2405 26.1348 78.2405 27.0294 78.2405 27.9576C76.5182 27.9576 74.8467 27.9576 73.1748 27.9576C73.1498 27.903 73.1245 27.8486 73.0991 27.794Z" fill="#63CBD5"/>
<path id="Vector_14" fill-rule="evenodd" clip-rule="evenodd" d="M70.3668 25.0988C70.2585 24.0458 70.2588 24.0472 71.0224 23.6322C71.89 23.1599 72.7623 22.6952 73.6196 22.2053C74.0039 21.985 74.4042 21.8986 74.8278 21.9596C75.0235 21.988 75.2051 22.1136 75.5645 22.2696C73.7506 23.2565 72.0967 24.1572 70.3668 25.0988Z" fill="#C7F2F6"/>
<path id="Vector_15" fill-rule="evenodd" clip-rule="evenodd" d="M70.3846 26.4691C70.27 25.6948 70.268 25.6911 70.8013 25.4018C72.4485 24.5062 74.0971 23.6146 75.7973 22.6936C75.9826 22.8706 76.1489 23.0286 76.3806 23.2496C74.3367 24.3469 72.3725 25.4021 70.3846 26.4691Z" fill="#63CBD5"/>
<path id="Vector_16" fill-rule="evenodd" clip-rule="evenodd" d="M72.7686 22.1302C71.9917 22.5552 71.2144 22.9809 70.3491 23.4545C70.3491 22.9079 70.3491 22.4822 70.3491 22.0006C71.1504 22.0006 71.9374 22.0006 72.724 22.0006C72.739 22.0436 72.754 22.0869 72.7686 22.1302Z" fill="#63CBD5"/>
<path id="Union" fill-rule="evenodd" clip-rule="evenodd" d="M64.2336 25.2037C65.2736 24.4031 65.2736 22.8347 64.2336 22.034L61.5514 19.9693C60.7183 19.328 59.6486 19.4691 58.9763 20.0806H39.1023C37.9977 20.0806 37.1023 20.9761 37.1023 22.0806V25.157C37.1023 26.2616 37.9977 27.157 39.1023 27.157H58.9762C59.6485 27.7686 60.7183 27.9098 61.5514 27.2684L64.2336 25.2037Z" fill="#F4FBFC"/>
</g>
</g>
</g>
</g>
<path id="Vector_17" fill-rule="evenodd" clip-rule="evenodd" d="M68.0703 44.7274C65.7762 44.7451 63.9406 42.5682 63.8919 40.6723C63.8439 38.8111 65.4188 36.2312 68.118 36.2929C70.4275 36.3456 72.1674 38.4301 72.2078 40.433C72.2538 42.7059 70.3352 44.6804 68.0703 44.7274ZM71.4865 40.5267C71.5575 38.8321 69.9866 36.9885 68.1917 36.9842C66.1971 36.9789 64.6122 38.5721 64.6132 40.5377C64.6136 42.1916 66.0718 44.0408 67.9604 44.0498C69.9292 44.0598 71.4818 42.4792 71.4865 40.5267Z" fill="#1DA8B4"/>
<path id="Vector_18" fill-rule="evenodd" clip-rule="evenodd" d="M43.329 44.7273C41.2678 44.774 39.2302 42.7704 39.1489 40.6809C39.0806 38.9263 40.6298 36.2215 43.3633 36.2938C45.6328 36.3535 47.3511 38.3094 47.477 40.4272C47.5787 42.1398 45.8751 44.8016 43.329 44.7273ZM39.8802 40.5479C39.8935 42.3701 41.5281 44.086 43.223 44.0557C45.1785 44.0207 46.7491 42.4454 46.7511 40.5172C46.7531 38.6647 45.1139 36.9548 43.3596 36.9791C41.3978 37.0061 39.8665 38.577 39.8802 40.5479Z" fill="#1DA8B4"/>
<path id="Vector_19" fill-rule="evenodd" clip-rule="evenodd" d="M71.4868 40.5272C71.4821 42.4797 69.9295 44.0603 67.9607 44.0503C66.0718 44.0413 64.6139 42.1921 64.6135 40.5382C64.6129 38.5726 66.1974 36.9794 68.192 36.9847C69.9869 36.9891 71.5578 38.8326 71.4868 40.5272ZM68.166 37.9787C66.5717 37.9373 65.6348 39.5356 65.6465 40.5742C65.6605 41.8361 66.9497 43.0997 68.21 43.0644C69.5186 43.0274 70.6998 41.8058 70.6905 40.4982C70.6822 39.1929 69.4492 37.9633 68.166 37.9787Z" fill="#2BBECB"/>
<path id="Vector_20" fill-rule="evenodd" clip-rule="evenodd" d="M39.8802 40.5478C39.8662 38.5769 41.3978 37.006 43.3597 36.979C45.1142 36.9547 46.7531 38.6649 46.7511 40.5171C46.7488 42.4453 45.1782 44.0206 43.223 44.0556C41.5281 44.0862 39.8936 42.37 39.8802 40.5478ZM45.8665 40.5435C45.8845 39.2472 44.6636 37.9836 43.3873 37.978C42.0334 37.9723 40.8522 39.1479 40.8248 40.5285C40.8008 41.7577 42.0251 43.0303 43.266 43.065C44.5953 43.1023 45.8475 41.887 45.8665 40.5435Z" fill="#2BBECB"/>
<path id="Vector_21" fill-rule="evenodd" clip-rule="evenodd" d="M68.1653 37.9783C69.4485 37.9627 70.6815 39.1926 70.6901 40.4979C70.6991 41.8054 69.5182 43.027 68.2096 43.064C66.9494 43.0994 65.6601 41.8358 65.6461 40.5739C65.6341 39.5352 66.5711 37.937 68.1653 37.9783ZM68.163 42.6391C69.3032 42.6381 70.2612 41.6501 70.2485 40.4885C70.2368 39.3766 69.2422 38.3643 68.1763 38.3787C67.0327 38.3947 66.0784 39.3826 66.0901 40.5385C66.1021 41.6654 67.063 42.6401 68.163 42.6391Z" fill="#1DA8B4"/>
<path id="Vector_22" fill-rule="evenodd" clip-rule="evenodd" d="M45.8669 40.5435C45.8482 41.8871 44.5956 43.1027 43.2667 43.065C42.0258 43.0304 40.8015 41.7578 40.8255 40.5285C40.8525 39.1476 42.0338 37.9724 43.3881 37.978C44.6636 37.9837 45.8846 39.2473 45.8669 40.5435ZM43.3914 42.6371C44.5256 42.6157 45.4619 41.6025 45.4239 40.4375C45.3889 39.3609 44.4097 38.3753 43.3764 38.3773C42.2055 38.3783 41.2302 39.4019 41.2675 40.5899C41.3028 41.7201 42.2758 42.6581 43.3914 42.6371Z" fill="#1DA8B4"/>
<path id="Vector_23" fill-rule="evenodd" clip-rule="evenodd" d="M68.1631 42.6389C67.0631 42.6399 66.1022 41.6653 66.0902 40.5384C66.0785 39.3821 67.0328 38.3942 68.1764 38.3785C69.2423 38.3642 70.2369 39.3764 70.2486 40.4884C70.2613 41.65 69.3033 42.6379 68.1631 42.6389Z" fill="#C7F2F6"/>
<path id="Vector_24" fill-rule="evenodd" clip-rule="evenodd" d="M43.3913 42.6371C42.2757 42.6581 41.3027 41.7201 41.2674 40.5899C41.2297 39.4023 42.2054 38.3783 43.3763 38.3773C44.4096 38.3753 45.3888 39.3606 45.4238 40.4375C45.4618 41.6025 44.5255 42.6157 43.3913 42.6371Z" fill="#C7F2F6"/>
</g>
</g>
</g>
</g>
<defs>
<linearGradient id="paint0_linear_551_12738" x1="48.894" y1="28.8531" x2="48.894" y2="59.8909" gradientUnits="userSpaceOnUse">
<stop stop-color="#F2FEFF"/>
<stop offset="1" stop-color="#D0F1F5"/>
</linearGradient>
<clipPath id="clip0_551_12738">
<rect width="95" height="50" rx="6" fill="white"/>
</clipPath>
</defs>
</svg>
