<svg width="95" height="50" viewBox="0 0 95 50" fill="none" xmlns="http://www.w3.org/2000/svg">
<g clip-path="url(#clip0_551_12785)">
<mask id="mask0_551_12785" style="mask-type:alpha" maskUnits="userSpaceOnUse" x="-1" y="5" width="99" height="47">
<path d="M83.0923 51.9997C58.3954 51.9997 33.452 51.9997 10.2569 51.9997C6.86252 51.9997 -0.0257775 52.0491 -0.115332 50.8748C-1.21544 36.4495 6.80741 28.52 38.1489 25.7835C50.8273 24.6765 70.8558 0.210519 84.9335 6.8455C97.0115 12.538 107.789 51.9997 83.0923 51.9997Z" fill="white"/>
</mask>
<g mask="url(#mask0_551_12785)">
<path d="M83.0923 51.9997C58.3954 51.9997 33.452 51.9997 10.2569 51.9997C6.86252 51.9997 -0.0257775 52.0491 -0.115332 50.8748C-1.21544 36.4495 6.80741 28.52 38.1489 25.7835C50.8273 24.6765 70.8558 0.210519 84.9334 6.8455C97.0115 12.538 107.789 51.9997 83.0923 51.9997Z" fill="url(#paint0_linear_551_12785)"/>
<path fill-rule="evenodd" clip-rule="evenodd" d="M4.07816 51.7522L11.3359 48.6151L14.4166 56.0057L7.15888 59.1428L4.07816 51.7522Z" stroke="#C1F0F6"/>
</g>
<path fill-rule="evenodd" clip-rule="evenodd" d="M25.9475 14.8234L26.9588 16.4522L25.3405 17.4699L24.3293 15.8411L25.9475 14.8234Z" stroke="#90D9E4"/>
<path fill-rule="evenodd" clip-rule="evenodd" d="M21.5911 32.154L23.1542 33.2556L22.0596 34.8289L20.4965 33.7273L21.5911 32.154Z" fill="#ABE1E8"/>
<path fill-rule="evenodd" clip-rule="evenodd" d="M58.6833 40.381L63.991 42.5393L61.8465 47.8812L56.5389 45.7229L58.6833 40.381Z" fill="#CEF1F5"/>
<path fill-rule="evenodd" clip-rule="evenodd" d="M67.9243 0L68.9355 1.62884L67.3173 2.64666L66.3061 1.01781L67.9243 0Z" stroke="#D9F9FE"/>
<path d="M66.4767 31.7933L59.8043 28.2885C59.7119 28.2399 59.602 28.2399 59.5095 28.2885L56.9239 29.6467C56.8184 29.702 56.7529 29.8116 56.7536 29.9307C56.7542 30.0499 56.8212 30.1588 56.9273 30.2129L63.296 33.4604C63.3654 33.4959 63.407 33.5552 63.4296 33.5988C63.456 33.6502 63.4697 33.699 63.4697 33.7445V38.1293C63.4697 38.3051 63.3273 38.4479 63.152 38.4479C62.9767 38.4479 62.8342 38.3051 62.8342 38.1293V34.1353C62.8342 34.0156 62.7124 33.8781 62.6057 33.8236L62.6052 33.8232L55.8339 30.3704C55.7426 30.324 55.6343 30.3247 55.5425 30.3723L52.8371 31.7933C52.8338 31.7951 52.8371 31.7978 52.8344 31.7997C52.736 31.8538 52.6667 31.9549 52.6667 32.0755V39.7223C52.6667 39.8409 52.7322 39.9495 52.8371 40.0046L59.5095 43.5093C59.5567 43.5342 59.607 43.5458 59.6566 43.5458C59.7074 43.5458 59.756 43.5292 59.8009 43.5061C59.802 43.5059 59.8032 43.5099 59.8043 43.5093L66.4768 40.0046C66.5817 39.9495 66.6471 39.8409 66.6471 39.7223V32.0755C66.6471 31.9569 66.5816 31.8483 66.4767 31.7933Z" fill="#2BBECB"/>
<path d="M59.6568 42.5899L53.6653 39.2881V32.0755L59.6569 35.377V42.5899H59.6568Z" fill="white"/>
<path d="M52.81 31.7933L46.1376 28.2885C46.0451 28.2399 45.9352 28.2399 45.8428 28.2885L43.2572 29.6467C43.1517 29.702 43.0862 29.8116 43.0868 29.9307C43.0874 30.0499 43.1545 30.1588 43.2606 30.2129L49.6292 33.4604C49.6986 33.4959 49.7403 33.5552 49.7629 33.5988C49.7892 33.6502 49.803 33.699 49.803 33.7445V38.1293C49.803 38.3051 49.6605 38.4479 49.4852 38.4479C49.3099 38.4479 49.1675 38.3051 49.1675 38.1293V34.1353C49.1675 34.0156 49.0457 33.8781 48.9389 33.8236L48.9385 33.8232L42.1671 30.3704C42.0759 30.324 41.9676 30.3247 41.8758 30.3723L39.1704 31.7933C39.167 31.7951 39.1703 31.7978 39.1677 31.7997C39.0693 31.8538 39 31.9549 39 32.0755V39.7223C39 39.8409 39.0655 39.9495 39.1704 40.0046L45.8428 43.5093C45.8899 43.5342 45.9402 43.5458 45.9899 43.5458C46.0407 43.5458 46.0892 43.5292 46.1342 43.5061C46.1353 43.5059 46.1365 43.5099 46.1376 43.5093L52.81 40.0046C52.9149 39.9495 52.9804 39.8409 52.9804 39.7223V32.0755C52.9804 31.9569 52.9149 31.8483 52.81 31.7933Z" fill="#2BBECB"/>
<path d="M45.9901 42.5899L39.9985 39.2881V32.0755L45.9901 35.377V42.5899H45.9901Z" fill="white"/>
<path d="M59.4482 20.4694L52.7757 16.9646C52.6833 16.9161 52.5734 16.9161 52.481 16.9646L49.8953 18.3228C49.7898 18.3782 49.7244 18.4877 49.725 18.6069C49.7256 18.7261 49.7926 18.8349 49.8987 18.8891L56.2674 22.1366C56.3368 22.172 56.3784 22.2314 56.4011 22.2749C56.4274 22.3263 56.4411 22.3752 56.4411 22.4207V26.8054C56.4411 26.9812 56.2987 27.1241 56.1234 27.1241C55.9481 27.1241 55.8057 26.9812 55.8057 26.8054V22.8115C55.8057 22.6917 55.6839 22.5542 55.5771 22.4998L55.5767 22.4994L48.8053 19.0466C48.7141 19.0002 48.6058 19.0008 48.5139 19.0484L45.8085 20.4695C45.8052 20.4712 45.8085 20.474 45.8059 20.4759C45.7075 20.53 45.6382 20.6311 45.6382 20.7517V28.3985C45.6382 28.5171 45.7037 28.6256 45.8085 28.6807L52.481 32.1855C52.5281 32.2104 52.5784 32.2219 52.6281 32.2219C52.6789 32.2219 52.7274 32.2054 52.7724 32.1823C52.7735 32.1821 52.7746 32.1861 52.7758 32.1855L59.4482 28.6807C59.5531 28.6256 59.6186 28.5171 59.6186 28.3985V20.7516C59.6186 20.6331 59.5531 20.5245 59.4482 20.4694Z" fill="#2BBECB"/>
<path d="M52.6283 31.2661L46.6367 27.9643V20.7516L52.6283 24.0532V31.2661H52.6283Z" fill="white"/>
<g clip-path="url(#clip1_551_12785)">
<path d="M74.3334 28H67.6701C67.2845 27.9997 66.9036 27.9162 66.5534 27.7551C66.2031 27.5941 65.8918 27.3592 65.6407 27.0666C65.3932 26.7804 65.2104 26.4442 65.1049 26.0808C64.9994 25.7174 64.9737 25.3355 65.0294 24.9613C65.3873 23.0116 66.4274 21.2529 67.9634 20C66.4274 18.7465 65.3875 16.9873 65.0301 15.0373C64.9744 14.6633 65.0002 14.2817 65.1056 13.9186C65.211 13.5555 65.3935 13.2194 65.6407 12.9333C65.8918 12.6407 66.2031 12.4059 66.5534 12.2448C66.9036 12.0837 67.2845 12.0002 67.6701 12H74.3334C74.7189 12.0003 75.0998 12.0839 75.45 12.2449C75.8003 12.406 76.1116 12.6408 76.3627 12.9333C76.61 13.2193 76.7927 13.5552 76.8983 13.9182C77.0039 14.2811 77.03 14.6626 76.9747 15.0366C76.6136 16.9873 75.5715 18.7462 74.0341 20C75.5706 21.2548 76.6115 23.0144 76.9714 24.9653C77.0267 25.3394 77.0006 25.721 76.895 26.0841C76.7894 26.4472 76.6067 26.7832 76.3594 27.0693C76.1084 27.3608 75.7975 27.5949 75.4479 27.7555C75.0982 27.9161 74.7181 27.9995 74.3334 28ZM74.3334 13.3333H67.6701C67.4767 13.3332 67.2856 13.3748 67.1098 13.4553C66.934 13.5359 66.7776 13.6534 66.6514 13.8C66.5282 13.9402 66.4371 14.1058 66.3846 14.285C66.3321 14.4642 66.3194 14.6527 66.3474 14.8373C66.5981 16.504 67.6301 18.064 69.4141 19.4753C69.4929 19.5377 69.5566 19.6171 69.6004 19.7077C69.6442 19.7982 69.6669 19.8974 69.6669 19.998C69.6669 20.0985 69.6442 20.1977 69.6004 20.2883C69.5566 20.3788 69.4929 20.4582 69.4141 20.5206C67.6301 21.9333 66.6001 23.4946 66.3474 25.1606C66.3191 25.3455 66.3316 25.5344 66.3841 25.714C66.4367 25.8936 66.5279 26.0594 66.6514 26.2C66.7776 26.3465 66.934 26.464 67.1098 26.5446C67.2856 26.6251 67.4767 26.6667 67.6701 26.6666H74.3334C74.5268 26.6668 74.7179 26.6252 74.8937 26.5446C75.0696 26.4641 75.2259 26.3465 75.3521 26.2C75.4753 26.0599 75.5663 25.8946 75.6188 25.7156C75.6714 25.5367 75.6841 25.3484 75.6561 25.164C75.4074 23.506 74.3761 21.9446 72.5894 20.5226C72.5111 20.4602 72.4478 20.3809 72.4043 20.2906C72.3608 20.2004 72.3383 20.1015 72.3383 20.0013C72.3383 19.9011 72.3608 19.8022 72.4043 19.712C72.4478 19.6217 72.5111 19.5424 72.5894 19.48C74.3767 18.058 75.4081 16.4966 75.6561 14.838C75.684 14.653 75.6709 14.4641 75.6178 14.2848C75.5647 14.1054 75.4728 13.9399 75.3487 13.8C75.2229 13.6538 75.0671 13.5365 74.8919 13.456C74.7167 13.3754 74.5262 13.3336 74.3334 13.3333ZM73.4541 25.3333H68.5454C68.4363 25.3332 68.3289 25.3064 68.2326 25.2552C68.1363 25.204 68.054 25.1299 67.993 25.0395C67.932 24.9491 67.8941 24.845 67.8827 24.7366C67.8713 24.6281 67.8866 24.5185 67.9274 24.4173C68.4495 23.29 69.2449 22.311 70.2414 21.5693L70.5867 21.2946C70.7047 21.2008 70.851 21.1497 71.0017 21.1497C71.1525 21.1497 71.2988 21.2008 71.4167 21.2946L71.7561 21.5653C72.7512 22.31 73.5466 23.2893 74.0714 24.416C74.1125 24.5171 74.128 24.6268 74.1168 24.7355C74.1055 24.8441 74.0677 24.9482 74.0067 25.0388C73.9458 25.1294 73.8635 25.2036 73.7671 25.255C73.6708 25.3063 73.5633 25.3332 73.4541 25.3333ZM69.6894 24H72.3081C71.9277 23.5042 71.4885 23.0564 71.0001 22.6666C70.5095 23.0549 70.0692 23.5028 69.6894 24Z" fill="#2BBECB"/>
</g>
</g>
<defs>
<linearGradient id="paint0_linear_551_12785" x1="48.894" y1="28.8531" x2="48.894" y2="59.8909" gradientUnits="userSpaceOnUse">
<stop stop-color="#F2FEFF"/>
<stop offset="1" stop-color="#D0F1F5"/>
</linearGradient>
<clipPath id="clip0_551_12785">
<rect width="95" height="50" rx="6" fill="white"/>
</clipPath>
<clipPath id="clip1_551_12785">
<rect width="16" height="16" fill="white" transform="translate(63 12)"/>
</clipPath>
</defs>
</svg>
