<svg width="13" height="12" viewBox="0 0 13 12" fill="none" xmlns="http://www.w3.org/2000/svg">
<path d="M4.7919 2.04502C5.55185 0.681677 5.9319 0 6.49999 0C7.06809 0 7.44813 0.681677 8.20809 2.04502L8.40474 2.39774C8.62067 2.78516 8.72867 2.97887 8.89703 3.10668C9.06538 3.23449 9.2751 3.28194 9.69446 3.37683L10.0763 3.46321C11.5521 3.79715 12.29 3.96409 12.4655 4.52865C12.6411 5.09315 12.138 5.68143 11.1319 6.85792L10.8717 7.1623C10.5857 7.49668 10.4428 7.66383 10.3785 7.87065C10.3142 8.0774 10.3358 8.30046 10.379 8.74651L10.4183 9.1526C10.5705 10.7223 10.6465 11.5072 10.1869 11.8561C9.72729 12.205 9.03637 11.8869 7.6546 11.2507L7.29708 11.0861C6.90446 10.9053 6.70809 10.8149 6.49999 10.8149C6.2919 10.8149 6.09552 10.9053 5.70291 11.0861L5.34538 11.2507C3.9636 11.8869 3.2727 12.205 2.81309 11.8561C2.35347 11.5072 2.42953 10.7223 2.58164 9.1526L2.62099 8.74651C2.66421 8.30046 2.68583 8.0774 2.62151 7.87065C2.55721 7.66383 2.41425 7.49668 2.12835 7.1623L1.86805 6.85792C0.861947 5.68143 0.358893 5.09315 0.534453 4.52865C0.710006 3.96409 1.44791 3.79715 2.92372 3.46321L3.30553 3.37683C3.7249 3.28194 3.93459 3.23449 4.10296 3.10668C4.27133 2.97887 4.37931 2.78516 4.59528 2.39774L4.7919 2.04502Z" fill="#FFB400"/>
</svg>
