<svg width="30" height="32" viewBox="0 0 30 32" fill="none" xmlns="http://www.w3.org/2000/svg">
<rect y="0.384766" width="30" height="30.8678" rx="3" fill="#D5FAFD"/>
<path fill-rule="evenodd" clip-rule="evenodd" d="M6.48911 9.88872C6.65493 8.42993 7.85617 7.33008 9.28361 7.33008H20.0263C20.2084 7.33008 20.3843 7.39825 20.5211 7.52189L23.2816 10.0158C23.9022 10.5765 23.901 11.3944 23.8714 12.2436V22.0939C23.8182 23.6161 22.6035 24.8218 21.1232 24.8218H9.11291C7.78328 24.8218 6.66076 23.8053 6.49191 22.4483C6.49194 18.391 6.49997 14.2753 6.42822 10.4243L6.48911 9.88872ZM9.28361 8.87347C8.61718 8.87347 8.05637 9.38695 7.97895 10.068L7.91807 10.6036C7.97977 14.2753 8 18.391 7.97977 22.2523C8.05277 22.839 8.53807 23.2785 9.11291 23.2785H9.75V18.9055C9.75 17.9111 10.5335 17.1049 11.5 17.1049H18.5C19.4665 17.1049 20.25 17.9111 20.25 18.9055V23.2785H21.1232C21.7961 23.2785 22.3482 22.7304 22.3724 22.0385L22.2919 12.2436C22.3054 11.8576 22.2919 11.5487 22.2919 11.1756L19.75 8.87913V11.2914C19.75 12.2859 18.9665 13.092 18 13.092H12C11.0335 13.092 10.25 12.2859 10.25 11.2914V8.87347H9.28361ZM11.75 8.87347V11.2914C11.75 11.4335 11.8619 11.5487 12 11.5487H18C18.1381 11.5487 18.25 11.4335 18.25 11.2914V8.87347H11.75ZM18.75 23.2785H11.25V18.9055C11.25 18.7634 11.3619 18.6483 11.5 18.6483H18.5C18.6381 18.6483 18.75 18.7634 18.75 18.9055V23.2785Z" fill="#2BBECB"/>
</svg>
