<svg width="12" height="12" viewBox="0 0 12 12" fill="none" xmlns="http://www.w3.org/2000/svg">
<g clip-path="url(#clip0_957_11280)">
<path d="M10.4122 0.297923L7.66124 0.283781C7.59523 0.28351 7.52982 0.296312 7.46878 0.321449C7.40774 0.346587 7.35228 0.38356 7.3056 0.430238C7.25892 0.476917 7.22195 0.532375 7.19681 0.593416C7.17167 0.654455 7.15887 0.719869 7.15914 0.785881C7.15954 0.917988 7.21219 1.04457 7.3056 1.13799C7.39902 1.2314 7.5256 1.28405 7.65771 1.28445L10.1859 1.29505L2.97615 8.5048C2.88237 8.59858 2.82968 8.72577 2.82968 8.85839C2.82968 8.99102 2.88237 9.11821 2.97615 9.21199V9.21199C3.06992 9.30576 3.19712 9.35845 3.32974 9.35845C3.46236 9.35845 3.58955 9.30576 3.68333 9.21199L10.9143 1.98102L10.9108 4.5375C10.9105 4.60351 10.9233 4.66892 10.9484 4.72996C10.9736 4.791 11.0105 4.84646 11.0572 4.89314C11.1039 4.93982 11.1594 4.97679 11.2204 5.00193C11.2814 5.02706 11.3468 5.03987 11.4129 5.0396C11.4789 5.03987 11.5443 5.02706 11.6053 5.00193C11.6664 4.97679 11.7218 4.93982 11.7685 4.89314C11.8152 4.84646 11.8522 4.791 11.8773 4.72996C11.9024 4.66892 11.9152 4.60351 11.915 4.5375L11.9114 1.79715C11.9112 1.39961 11.7531 1.01842 11.472 0.737312C11.1909 0.456205 10.8097 0.298171 10.4122 0.297923Z" fill="#888888"/>
<path d="M11.5 10.988H2.5C2.10218 10.988 1.72064 10.83 1.43934 10.5487C1.15804 10.2674 1 9.88582 1 9.488V0.5C1 0.367392 0.947322 0.240215 0.853553 0.146447C0.759785 0.0526784 0.632608 0 0.5 0C0.367392 0 0.240215 0.0526784 0.146447 0.146447C0.0526784 0.240215 0 0.367392 0 0.5L0 9.488C0.000793929 10.1508 0.264441 10.7862 0.73311 11.2549C1.20178 11.7236 1.8372 11.9872 2.5 11.988H11.5C11.6326 11.988 11.7598 11.9353 11.8536 11.8416C11.9473 11.7478 12 11.6206 12 11.488C12 11.3554 11.9473 11.2282 11.8536 11.1344C11.7598 11.0407 11.6326 10.988 11.5 10.988Z" fill="#888888"/>
</g>
<defs>
<clipPath id="clip0_957_11280">
<rect width="12" height="12" fill="white"/>
</clipPath>
</defs>
</svg>
