<svg width="29" height="28" viewBox="0 0 29 28" fill="none" xmlns="http://www.w3.org/2000/svg">
<g id="Plus">
<path id="Vector" d="M14.4375 3.5C12.3608 3.5 10.3307 4.11581 8.60402 5.26957C6.8773 6.42332 5.53149 8.0632 4.73677 9.98182C3.94205 11.9004 3.73411 14.0116 4.13926 16.0484C4.5444 18.0852 5.54443 19.9562 7.01288 21.4246C8.48133 22.8931 10.3523 23.8931 12.3891 24.2982C14.4259 24.7034 16.5371 24.4955 18.4557 23.7007C20.3743 22.906 22.0142 21.5602 23.1679 19.8335C24.3217 18.1068 24.9375 16.0767 24.9375 14C24.9375 12.6211 24.6659 11.2557 24.1382 9.98182C23.6106 8.7079 22.8371 7.55039 21.8621 6.57538C20.8871 5.60036 19.7296 4.82694 18.4557 4.29926C17.1818 3.77159 15.8164 3.5 14.4375 3.5ZM14.4375 22.4C12.7761 22.4 11.1521 21.9073 9.77071 20.9843C8.38934 20.0613 7.31269 18.7494 6.67692 17.2145C6.04114 15.6796 5.87479 13.9907 6.19891 12.3612C6.52302 10.7318 7.32305 9.23506 8.49781 8.0603C9.67257 6.88554 11.1693 6.08552 12.7987 5.7614C14.4282 5.43729 16.1171 5.60364 17.652 6.23941C19.1869 6.87519 20.4988 7.95184 21.4218 9.33321C22.3448 10.7146 22.8375 12.3386 22.8375 14C22.8375 16.2278 21.9525 18.3644 20.3772 19.9397C18.8019 21.515 16.6653 22.4 14.4375 22.4ZM18.6375 12.95H15.4875V9.8C15.4875 9.52152 15.3769 9.25445 15.18 9.05754C14.9831 8.86062 14.716 8.75 14.4375 8.75C14.159 8.75 13.892 8.86062 13.695 9.05754C13.4981 9.25445 13.3875 9.52152 13.3875 9.8V12.95H10.2375C9.95903 12.95 9.69196 13.0606 9.49504 13.2575C9.29813 13.4544 9.1875 13.7215 9.1875 14C9.1875 14.2785 9.29813 14.5455 9.49504 14.7425C9.69196 14.9394 9.95903 15.05 10.2375 15.05H13.3875V18.2C13.3875 18.4785 13.4981 18.7455 13.695 18.9425C13.892 19.1394 14.159 19.25 14.4375 19.25C14.716 19.25 14.9831 19.1394 15.18 18.9425C15.3769 18.7455 15.4875 18.4785 15.4875 18.2V15.05H18.6375C18.916 15.05 19.1831 14.9394 19.38 14.7425C19.5769 14.5455 19.6875 14.2785 19.6875 14C19.6875 13.7215 19.5769 13.4544 19.38 13.2575C19.1831 13.0606 18.916 12.95 18.6375 12.95Z" fill="#EB008B"/>
</g>
</svg>
