<svg width="16" height="16" viewBox="0 0 16 16" fill="none" xmlns="http://www.w3.org/2000/svg">
<g id="ic_company">
<path id="Vector" d="M13.0233 2.08136L11.9193 0.976029C11.6104 0.66557 11.2431 0.419454 10.8384 0.251925C10.4338 0.0843948 9.99994 -0.00122207 9.562 2.87691e-05H5.33333C4.4496 0.00108734 3.60237 0.352617 2.97748 0.977509C2.35259 1.6024 2.00106 2.44963 2 3.33336V12.6667C2.00106 13.5504 2.35259 14.3977 2.97748 15.0226C3.60237 15.6474 4.4496 15.999 5.33333 16H10.6667C11.5504 15.999 12.3976 15.6474 13.0225 15.0226C13.6474 14.3977 13.9989 13.5504 14 12.6667V4.43803C14.0011 4.00015 13.9153 3.56641 13.7477 3.16189C13.58 2.75737 13.3338 2.39012 13.0233 2.08136ZM12.0807 3.02403C12.1752 3.11824 12.2599 3.22189 12.3333 3.33336H10.6667V1.6667C10.778 1.74091 10.8818 1.82575 10.9767 1.92003L12.0807 3.02403ZM12.6667 12.6667C12.6667 13.1971 12.456 13.7058 12.0809 14.0809C11.7058 14.456 11.1971 14.6667 10.6667 14.6667H5.33333C4.8029 14.6667 4.29419 14.456 3.91912 14.0809C3.54405 13.7058 3.33333 13.1971 3.33333 12.6667V3.33336C3.33333 2.80293 3.54405 2.29422 3.91912 1.91915C4.29419 1.54408 4.8029 1.33336 5.33333 1.33336H9.33333V3.33336C9.33333 3.68698 9.47381 4.02612 9.72386 4.27617C9.97391 4.52622 10.313 4.6667 10.6667 4.6667H12.6667V12.6667ZM10.6667 6.00003C10.8435 6.00003 11.013 6.07027 11.1381 6.19529C11.2631 6.32032 11.3333 6.48988 11.3333 6.6667C11.3333 6.84351 11.2631 7.01308 11.1381 7.1381C11.013 7.26312 10.8435 7.33336 10.6667 7.33336H5.33333C5.15652 7.33336 4.98695 7.26312 4.86193 7.1381C4.7369 7.01308 4.66667 6.84351 4.66667 6.6667C4.66667 6.48988 4.7369 6.32032 4.86193 6.19529C4.98695 6.07027 5.15652 6.00003 5.33333 6.00003H10.6667ZM11.3333 9.33336C11.3333 9.51017 11.2631 9.67974 11.1381 9.80477C11.013 9.92979 10.8435 10 10.6667 10H5.33333C5.15652 10 4.98695 9.92979 4.86193 9.80477C4.7369 9.67974 4.66667 9.51017 4.66667 9.33336C4.66667 9.15655 4.7369 8.98698 4.86193 8.86196C4.98695 8.73693 5.15652 8.6667 5.33333 8.6667H10.6667C10.8435 8.6667 11.013 8.73693 11.1381 8.86196C11.2631 8.98698 11.3333 9.15655 11.3333 9.33336ZM11.2053 11.6087C11.309 11.7513 11.3519 11.9291 11.3248 12.1032C11.2977 12.2774 11.2027 12.4337 11.0607 12.538C10.3852 13.0193 9.5852 13.2955 8.75667 13.3334C8.27259 13.331 7.80321 13.1667 7.42333 12.8667C7.20467 12.7167 7.12133 12.6667 6.95667 12.6667C6.51095 12.7357 6.09041 12.9179 5.73533 13.196C5.5945 13.2964 5.42016 13.3382 5.24913 13.3124C5.0781 13.2867 4.92377 13.1955 4.81872 13.0581C4.71368 12.9207 4.66615 12.7478 4.68616 12.576C4.70618 12.4042 4.79218 12.2469 4.926 12.1374C5.51345 11.6813 6.21885 11.4024 6.95933 11.3334C7.40342 11.3405 7.83275 11.494 8.18067 11.77C8.33926 11.9127 8.54344 11.9942 8.75667 12C9.30178 11.9592 9.82598 11.773 10.2747 11.4607C10.4177 11.357 10.5961 11.3143 10.7706 11.3421C10.9451 11.3698 11.1015 11.4657 11.2053 11.6087Z" fill="white"/>
</g>
</svg>
