<svg width="16" height="16" viewBox="0 0 16 16" fill="none" xmlns="http://www.w3.org/2000/svg">
<g clip-path="url(#clip0_957_5981)">
<path d="M11.3334 0H4.66677C3.78304 0.00105857 2.93581 0.352588 2.31091 0.97748C1.68602 1.60237 1.33449 2.4496 1.33344 3.33333V12.6667C1.33449 13.5504 1.68602 14.3976 2.31091 15.0225C2.93581 15.6474 3.78304 15.9989 4.66677 16H11.3334C12.2172 15.9989 13.0644 15.6474 13.6893 15.0225C14.3142 14.3976 14.6657 13.5504 14.6668 12.6667V3.33333C14.6657 2.4496 14.3142 1.60237 13.6893 0.97748C13.0644 0.352588 12.2172 0.00105857 11.3334 0V0ZM4.66677 1.33333H11.3334C11.8639 1.33333 12.3726 1.54405 12.7476 1.91912C13.1227 2.29419 13.3334 2.8029 13.3334 3.33333V7.33333H2.66677V3.33333C2.66677 2.8029 2.87748 2.29419 3.25255 1.91912C3.62763 1.54405 4.13634 1.33333 4.66677 1.33333ZM11.3334 14.6667H4.66677C4.13634 14.6667 3.62763 14.4559 3.25255 14.0809C2.87748 13.7058 2.66677 13.1971 2.66677 12.6667V8.66666H13.3334V12.6667C13.3334 13.1971 13.1227 13.7058 12.7476 14.0809C12.3726 14.4559 11.8639 14.6667 11.3334 14.6667Z" fill="white"/>
<path d="M7.33323 4.66671H8.66656C8.84337 4.66671 9.01294 4.59647 9.13796 4.47144C9.26299 4.34642 9.33323 4.17685 9.33323 4.00004C9.33323 3.82323 9.26299 3.65366 9.13796 3.52864C9.01294 3.40361 8.84337 3.33337 8.66656 3.33337H7.33323C7.15642 3.33337 6.98685 3.40361 6.86183 3.52864C6.7368 3.65366 6.66656 3.82323 6.66656 4.00004C6.66656 4.17685 6.7368 4.34642 6.86183 4.47144C6.98685 4.59647 7.15642 4.66671 7.33323 4.66671Z" fill="white"/>
<path d="M8.66656 11.3334H7.33323C7.15642 11.3334 6.98685 11.4036 6.86183 11.5286C6.7368 11.6537 6.66656 11.8232 6.66656 12C6.66656 12.1769 6.7368 12.3464 6.86183 12.4715C6.98685 12.5965 7.15642 12.6667 7.33323 12.6667H8.66656C8.84337 12.6667 9.01294 12.5965 9.13796 12.4715C9.26299 12.3464 9.33323 12.1769 9.33323 12C9.33323 11.8232 9.26299 11.6537 9.13796 11.5286C9.01294 11.4036 8.84337 11.3334 8.66656 11.3334Z" fill="white"/>
</g>
<defs>
<clipPath id="clip0_957_5981">
<rect width="16" height="16" fill="white"/>
</clipPath>
</defs>
</svg>
