<svg width="16" height="16" viewBox="0 0 16 16" fill="none" xmlns="http://www.w3.org/2000/svg">
<g clip-path="url(#clip0_957_15583)">
<path d="M4.66667 0H2.66667C1.95942 0 1.28115 0.280952 0.781049 0.781049C0.280952 1.28115 0 1.95942 0 2.66667L0 4.66667C0 5.37391 0.280952 6.05219 0.781049 6.55229C1.28115 7.05238 1.95942 7.33333 2.66667 7.33333H4.66667C5.37391 7.33333 6.05219 7.05238 6.55229 6.55229C7.05238 6.05219 7.33333 5.37391 7.33333 4.66667V2.66667C7.33333 1.95942 7.05238 1.28115 6.55229 0.781049C6.05219 0.280952 5.37391 0 4.66667 0V0ZM6 4.66667C6 5.02029 5.85952 5.35943 5.60948 5.60948C5.35943 5.85952 5.02029 6 4.66667 6H2.66667C2.31304 6 1.97391 5.85952 1.72386 5.60948C1.47381 5.35943 1.33333 5.02029 1.33333 4.66667V2.66667C1.33333 2.31304 1.47381 1.97391 1.72386 1.72386C1.97391 1.47381 2.31304 1.33333 2.66667 1.33333H4.66667C5.02029 1.33333 5.35943 1.47381 5.60948 1.72386C5.85952 1.97391 6 2.31304 6 2.66667V4.66667Z" fill="white"/>
<path d="M4.66667 8.66663H2.66667C1.95942 8.66663 1.28115 8.94758 0.781049 9.44768C0.280952 9.94777 0 10.6261 0 11.3333L0 13.3333C0 14.0405 0.280952 14.7188 0.781049 15.2189C1.28115 15.719 1.95942 16 2.66667 16H4.66667C5.37391 16 6.05219 15.719 6.55229 15.2189C7.05238 14.7188 7.33333 14.0405 7.33333 13.3333V11.3333C7.33333 10.6261 7.05238 9.94777 6.55229 9.44768C6.05219 8.94758 5.37391 8.66663 4.66667 8.66663ZM6 13.3333C6 13.6869 5.85952 14.0261 5.60948 14.2761C5.35943 14.5262 5.02029 14.6666 4.66667 14.6666H2.66667C2.31304 14.6666 1.97391 14.5262 1.72386 14.2761C1.47381 14.0261 1.33333 13.6869 1.33333 13.3333V11.3333C1.33333 10.9797 1.47381 10.6405 1.72386 10.3905C1.97391 10.1404 2.31304 9.99996 2.66667 9.99996H4.66667C5.02029 9.99996 5.35943 10.1404 5.60948 10.3905C5.85952 10.6405 6 10.9797 6 11.3333V13.3333Z" fill="white"/>
<path d="M14.8622 12.6993L13.3335 14.226V1.75531L14.8622 3.28198C14.9241 3.34388 14.9976 3.39297 15.0785 3.42645C15.1594 3.45993 15.2462 3.47715 15.3337 3.47712C15.4213 3.47708 15.508 3.45981 15.5889 3.42627C15.6698 3.39273 15.7433 3.34359 15.8052 3.28165C15.867 3.21971 15.9161 3.14618 15.9496 3.06527C15.9831 2.98436 16.0003 2.89764 16.0003 2.81008C16.0003 2.72251 15.983 2.63581 15.9494 2.55492C15.9159 2.47403 15.8668 2.40054 15.8048 2.33865L14.0802 0.616645C13.7052 0.242111 13.1968 0.0317383 12.6668 0.0317383C12.1368 0.0317383 11.6285 0.242111 11.2535 0.616645L9.52883 2.33865C9.46689 2.40054 9.41774 2.47403 9.38421 2.55492C9.35067 2.63581 9.33339 2.72251 9.33336 2.81008C9.33333 2.89764 9.35054 2.98436 9.38403 3.06527C9.41751 3.14618 9.4666 3.21971 9.52849 3.28165C9.59039 3.34359 9.66388 3.39273 9.74477 3.42627C9.82566 3.45981 9.91236 3.47708 9.99992 3.47712C10.0875 3.47715 10.1742 3.45993 10.2551 3.42645C10.336 3.39297 10.4096 3.34388 10.4715 3.28198L12.0002 1.75531V14.226L10.4715 12.6993C10.4096 12.6374 10.336 12.5883 10.2551 12.5549C10.1742 12.5214 10.0875 12.5042 9.99992 12.5042C9.91236 12.5042 9.82566 12.5215 9.74477 12.555C9.66388 12.5886 9.59039 12.6377 9.52849 12.6997C9.4666 12.7616 9.41751 12.8351 9.38403 12.916C9.35054 12.9969 9.33333 13.0837 9.33336 13.1712C9.33339 13.2588 9.35067 13.3455 9.38421 13.4264C9.41774 13.5073 9.46689 13.5808 9.52883 13.6427L11.2535 15.3647C11.6285 15.7392 12.1368 15.9496 12.6668 15.9496C13.1968 15.9496 13.7052 15.7392 14.0802 15.3647L15.8048 13.6427C15.8668 13.5808 15.9159 13.5073 15.9494 13.4264C15.983 13.3455 16.0003 13.2588 16.0003 13.1712C16.0003 13.0837 15.9831 12.9969 15.9496 12.916C15.9161 12.8351 15.867 12.7616 15.8052 12.6997C15.7433 12.6377 15.6698 12.5886 15.5889 12.555C15.508 12.5215 15.4213 12.5042 15.3337 12.5042C15.2462 12.5042 15.1594 12.5214 15.0785 12.5549C14.9976 12.5883 14.9241 12.6374 14.8622 12.6993Z" fill="white"/>
</g>
<defs>
<clipPath id="clip0_957_15583">
<rect width="16" height="16" fill="white"/>
</clipPath>
</defs>
</svg>
