<svg width="16" height="16" viewBox="0 0 16 16" fill="none" xmlns="http://www.w3.org/2000/svg">
<g clip-path="url(#clip0_957_2034)">
<path d="M6.0001 9.33334H10.0001C10.1769 9.33334 10.3465 9.2631 10.4715 9.13808C10.5965 9.01305 10.6668 8.84348 10.6668 8.66667C10.6668 8.48986 10.5965 8.32029 10.4715 8.19526C10.3465 8.07024 10.1769 8 10.0001 8H6.0001C5.82329 8 5.65372 8.07024 5.5287 8.19526C5.40367 8.32029 5.33344 8.48986 5.33344 8.66667C5.33344 8.84348 5.40367 9.01305 5.5287 9.13808C5.65372 9.2631 5.82329 9.33334 6.0001 9.33334Z" fill="white"/>
<path d="M12.6667 0H3.33333C2.4496 0.00105857 1.60237 0.352588 0.97748 0.97748C0.352588 1.60237 0.00105857 2.4496 0 3.33333V4C0.000193872 4.28116 0.0596672 4.55912 0.174539 4.81575C0.289412 5.07237 0.457101 5.30189 0.666667 5.48933V12.6667C0.667725 13.5504 1.01925 14.3976 1.64415 15.0225C3.33333 16.3333 3.78294 14.6656 4.66667 14.6667L7 15.3333L10 14.3333L12 15.3333C12.8837 15.3323 13.731 15.6474 14.3559 15.0225C14.9807 14.3976 15.3323 13.5504 15.3333 12.6667V5.48933C15.5429 5.30189 15.7106 5.07237 15.8255 4.81575C15.9403 4.55912 15.9998 4.28116 16 4V3.33333C15.9989 2.4496 15.6474 1.60237 15.0225 0.97748C14.3976 0.352588 13.5504 0.00105857 12.6667 0ZM1.33333 3.33333C1.33333 2.8029 1.54405 2.29419 1.91912 1.91912C2.29419 1.54405 2.8029 1.33333 3.33333 1.33333H12.6667C13.1971 1.33333 13.7058 1.54405 14.0809 1.91912C14.456 2.29419 14.6667 2.8029 14.6667 3.33333V4C14.6667 4.17681 14.5964 4.34638 14.4714 4.4714C14.3464 4.59643 14.1768 4.66667 14 4.66667H2C1.82319 4.66667 1.65362 4.59643 1.5286 4.4714C1.40357 4.34638 1.33333 4.17681 1.33333 4V3.33333ZM14 12.6667C14 13.1971 13.7893 13.7058 13.4142 14.0809C13.0391 14.456 12.5304 14.0809 12 14.0809L9.66667 13L7 14.0809L4.33333 13C3.8029 13 2.96086 14.456 2.58579 14.0809C2.21071 13.7058 2 13.1971 2 12.6667V6H14V12.6667Z" fill="white"/>
</g>
<defs>
<clipPath id="clip0_957_2034">
<rect width="16" height="16" fill="white"/>
</clipPath>
</defs>
</svg>
