<svg width="16" height="16" viewBox="0 0 16 16" fill="none" xmlns="http://www.w3.org/2000/svg">
<g clip-path="url(#clip0_957_17212)">
<path d="M6.67133 2L5.33333 1.99067C5.33087 1.46185 5.11906 0.955539 4.74426 0.582483C4.36945 0.209426 3.86215 -5.75817e-06 3.33333 1.18739e-10L2 1.1874e-10C1.46957 1.1874e-10 0.960859 0.210714 0.585786 0.585786C0.210714 0.960859 0 1.46957 0 2L0 3.33333C-1.44175e-06 3.86296 0.210072 4.37096 0.584136 4.7459C0.9582 5.12084 1.46571 5.3321 1.99533 5.33333L1.986 6.662C1.98539 6.7496 2.00204 6.83647 2.03502 6.91763C2.068 6.9988 2.11665 7.07266 2.17819 7.13501C2.23974 7.19736 2.31296 7.24697 2.39369 7.281C2.47442 7.31502 2.56106 7.33281 2.64867 7.33333H2.65267C2.82867 7.33334 2.99754 7.26374 3.12243 7.13972C3.24732 7.01571 3.3181 6.84733 3.31933 6.67133L3.32867 5.33333H3.33333C3.86377 5.33333 4.37247 5.12262 4.74755 4.74755C5.12262 4.37247 5.33333 3.86377 5.33333 3.33333V3.324L6.662 3.33333H6.66667C6.75421 3.33364 6.84097 3.3167 6.92197 3.28348C7.00297 3.25026 7.07663 3.20141 7.13875 3.13972C7.20088 3.07803 7.25024 3.00471 7.28403 2.92394C7.31781 2.84318 7.33536 2.75655 7.33567 2.669C7.33597 2.58145 7.31903 2.4947 7.28581 2.4137C7.25259 2.3327 7.20374 2.25903 7.14205 2.19691C7.08037 2.13479 7.00704 2.08543 6.92628 2.05164C6.84551 2.01785 6.75888 2.00031 6.67133 2ZM4 3.33333C4 3.51014 3.92976 3.67971 3.80474 3.80474C3.67971 3.92976 3.51014 4 3.33333 4H2C1.82319 4 1.65362 3.92976 1.5286 3.80474C1.40357 3.67971 1.33333 3.51014 1.33333 3.33333V2C1.33333 1.82319 1.40357 1.65362 1.5286 1.5286C1.65362 1.40357 1.82319 1.33333 2 1.33333H3.33333C3.51014 1.33333 3.67971 1.40357 3.80474 1.5286C3.92976 1.65362 4 1.82319 4 2V3.33333Z" fill="white"/>
<path d="M13.9998 0H12.6665C12.1369 -1.44175e-06 11.6289 0.210072 11.2539 0.584136C10.879 0.9582 10.6677 1.46571 10.6665 1.99533L9.33717 1.986H9.33317C9.15636 1.98538 8.98655 2.05503 8.86109 2.17961C8.73562 2.3042 8.66479 2.47352 8.66417 2.65033C8.66355 2.82714 8.7332 2.99696 8.85779 3.12242C8.98237 3.24788 9.1517 3.31871 9.32851 3.31933L10.6665 3.32867V3.33333C10.6665 3.86377 10.8772 4.37247 11.2523 4.74755C11.6274 5.12262 12.1361 5.33333 12.6665 5.33333H12.6758L12.6665 6.662C12.6659 6.74955 12.6825 6.83636 12.7155 6.91748C12.7484 6.9986 12.797 7.07244 12.8585 7.13478C12.9199 7.19712 12.9931 7.24674 13.0737 7.28081C13.1544 7.31487 13.241 7.33272 13.3285 7.33333H13.3332C13.5092 7.33334 13.678 7.26374 13.8029 7.13972C13.9278 7.01571 13.9986 6.84733 13.9998 6.67133L14.0092 5.33333C14.538 5.33087 15.0443 5.11906 15.4174 4.74426C15.7904 4.36945 15.9998 3.86215 15.9998 3.33333V2C15.9998 1.46957 15.7891 0.960859 15.4141 0.585786C15.039 0.210714 14.5303 0 13.9998 0V0ZM14.6665 3.33333C14.6665 3.51014 14.5963 3.67971 14.4712 3.80474C14.3462 3.92976 14.1767 4 13.9998 4H12.6665C12.4897 4 12.3201 3.92976 12.1951 3.80474C12.0701 3.67971 11.9998 3.51014 11.9998 3.33333V2C11.9998 1.82319 12.0701 1.65362 12.1951 1.5286C12.3201 1.40357 12.4897 1.33333 12.6665 1.33333H13.9998C14.1767 1.33333 14.3462 1.40357 14.4712 1.5286C14.5963 1.65362 14.6665 1.82319 14.6665 2V3.33333Z" fill="white"/>
<path d="M14.0045 10.6663L14.0138 9.33693C14.0144 9.24938 13.9976 9.16258 13.9646 9.0815C13.9316 9.00041 13.8829 8.92662 13.8214 8.86435C13.7599 8.80207 13.6867 8.75252 13.606 8.71853C13.5253 8.68455 13.4387 8.66678 13.3512 8.66626H13.3472C13.1712 8.66626 13.0023 8.73585 12.8774 8.85987C12.7525 8.98389 12.6817 9.15226 12.6805 9.32826L12.6712 10.6663H12.6665C12.1361 10.6663 11.6274 10.877 11.2523 11.252C10.8772 11.6271 10.6665 12.1358 10.6665 12.6663V12.6756L9.33784 12.6663H9.33317C9.15636 12.6656 8.98655 12.7353 8.86109 12.8599C8.73562 12.9845 8.66479 13.1538 8.66417 13.3306C8.66355 13.5074 8.7332 13.6772 8.85779 13.8027C8.98237 13.9281 9.1517 13.999 9.32851 13.9996L10.6665 14.0089C10.669 14.5377 10.8808 15.044 11.2556 15.4171C11.6304 15.7902 12.1377 15.9996 12.6665 15.9996H13.9998C14.5303 15.9996 15.039 15.7889 15.4141 15.4138C15.7891 15.0387 15.9998 14.53 15.9998 13.9996V12.6663C15.9998 12.1366 15.7898 11.6286 15.4157 11.2537C15.0416 10.8788 14.5341 10.6675 14.0045 10.6663ZM14.6665 13.9996C14.6665 14.1764 14.5963 14.346 14.4712 14.471C14.3462 14.596 14.1767 14.6663 13.9998 14.6663H12.6665C12.4897 14.6663 12.3201 14.596 12.1951 14.471C12.0701 14.346 11.9998 14.1764 11.9998 13.9996V12.6663C11.9998 12.4894 12.0701 12.3199 12.1951 12.1949C12.3201 12.0698 12.4897 11.9996 12.6665 11.9996H13.9998C14.1767 11.9996 14.3462 12.0698 14.4712 12.1949C14.5963 12.3199 14.6665 12.4894 14.6665 12.6663V13.9996Z" fill="white"/>
<path d="M6.67133 12.6803L5.33333 12.6709V12.6663C5.33333 12.1358 5.12262 11.6271 4.74755 11.252C4.37247 10.877 3.86377 10.6663 3.33333 10.6663H3.324L3.33333 9.33759C3.33395 9.25004 3.31731 9.16323 3.28438 9.08211C3.25144 9.00099 3.20285 8.92716 3.14138 8.86482C3.0799 8.80248 3.00675 8.75286 2.9261 8.71879C2.84545 8.68472 2.75888 8.66687 2.67133 8.66626H2.66667C2.49066 8.66626 2.3218 8.73585 2.1969 8.85987C2.07201 8.98389 2.00123 9.15226 2 9.32826L1.99067 10.6663C1.46185 10.6687 0.955539 10.8805 0.582483 11.2553C0.209426 11.6301 -5.75817e-06 12.1374 1.18739e-10 12.6663L1.1874e-10 13.9996C1.1874e-10 14.53 0.210714 15.0387 0.585786 15.4138C0.960859 15.7889 1.46957 15.9996 2 15.9996H3.33333C3.86296 15.9996 4.37096 15.7895 4.7459 15.4154C5.12084 15.0414 5.3321 14.5339 5.33333 14.0043L6.66267 14.0136H6.66667C6.84348 14.0142 7.01329 13.9446 7.13875 13.82C7.26422 13.6954 7.33505 13.5261 7.33567 13.3493C7.33629 13.1724 7.26664 13.0026 7.14205 12.8772C7.01747 12.7517 6.84814 12.6809 6.67133 12.6803ZM4 13.9996C4 14.1764 3.92976 14.346 3.80474 14.471C3.67971 14.596 3.51014 14.6663 3.33333 14.6663H2C1.82319 14.6663 1.65362 14.596 1.5286 14.471C1.40357 14.346 1.33333 14.1764 1.33333 13.9996V12.6663C1.33333 12.4894 1.40357 12.3199 1.5286 12.1949C1.65362 12.0698 1.82319 11.9996 2 11.9996H3.33333C3.51014 11.9996 3.67971 12.0698 3.80474 12.1949C3.92976 12.3199 4 12.4894 4 12.6663V13.9996Z" fill="white"/>
</g>
<defs>
<clipPath id="clip0_957_17212">
<rect width="16" height="16" fill="white"/>
</clipPath>
</defs>
</svg>
