<svg width="16" height="16" viewBox="0 0 16 16" fill="none" xmlns="http://www.w3.org/2000/svg">
<g clip-path="url(#clip0_886_72801)">
<path d="M12.6667 0H3.33334C1.49331 0.00221875 0.00221875 1.49331 0 3.33334V12.6667C0.00221875 14.5067 1.49331 15.9978 3.33334 16H10.8953C11.7799 16.0025 12.6288 15.6511 13.2527 15.024L15.0233 13.252C15.6505 12.6284 16.0022 11.7798 16 10.8953V3.33334C15.9978 1.49331 14.5067 0.00221875 12.6667 0ZM1.33334 12.6667V3.33334C1.33334 2.22878 2.22878 1.33334 3.33334 1.33334H12.6667C13.7713 1.33334 14.6667 2.22878 14.6667 3.33334V10H12C10.8954 10 10 10.8954 10 12V14.6667H3.33334C2.22875 14.6667 1.33334 13.7712 1.33334 12.6667ZM12.31 14.0813C12.042 14.3487 11.7031 14.5338 11.3333 14.6147V12C11.3333 11.6318 11.6318 11.3333 12 11.3333H14.6167C14.5342 11.7023 14.3493 12.0406 14.0833 12.3093L12.31 14.0813Z" fill="white"/>
<path d="M5.53067 6.31469C5.34578 6.41069 5.12889 6.48891 4.88 6.54935C4.63467 6.6098 4.36622 6.64002 4.07467 6.64002C3.77244 6.64002 3.49333 6.59202 3.23733 6.49602C2.98489 6.40002 2.76622 6.26491 2.58133 6.09069C2.4 5.91647 2.25778 5.70846 2.15467 5.46669C2.05156 5.22135 2 4.94935 2 4.65069C2 4.34846 2.05156 4.07469 2.15467 3.82935C2.26133 3.58402 2.40711 3.37602 2.592 3.20535C2.77689 3.03113 2.99378 2.8978 3.24267 2.80535C3.49156 2.71291 3.76 2.66669 4.048 2.66669C4.34667 2.66669 4.624 2.71291 4.88 2.80535C5.136 2.89424 5.344 3.01513 5.504 3.16802L4.928 3.82402C4.83911 3.72091 4.72178 3.63735 4.576 3.57335C4.43022 3.5058 4.26489 3.47202 4.08 3.47202C3.92 3.47202 3.77244 3.50224 3.63733 3.56269C3.50222 3.61958 3.38489 3.70135 3.28533 3.80802C3.18578 3.91113 3.10756 4.03558 3.05067 4.18135C2.99733 4.32358 2.97067 4.48002 2.97067 4.65069C2.97067 4.82491 2.99556 4.98491 3.04533 5.13069C3.09511 5.27646 3.168 5.40269 3.264 5.50935C3.36356 5.61246 3.48444 5.69424 3.62667 5.75469C3.77244 5.81158 3.93778 5.84002 4.12267 5.84002C4.22933 5.84002 4.33067 5.83291 4.42667 5.81869C4.52267 5.80091 4.61156 5.77424 4.69333 5.73869V5.05069H3.97333V4.31469H5.53067V6.31469Z" fill="white"/>
<path d="M8.29629 6.54402L7.48029 5.04535H7.17096V6.54402H6.27496V2.76802H7.71496C7.89629 2.76802 8.07229 2.78758 8.24296 2.82669C8.41718 2.86224 8.57185 2.92446 8.70696 3.01335C8.84563 3.10224 8.95585 3.21958 9.03763 3.36535C9.1194 3.51113 9.16029 3.69246 9.16029 3.90935C9.16029 4.16535 9.09096 4.38046 8.95229 4.55469C8.81363 4.72891 8.62163 4.85335 8.37629 4.92802L9.36296 6.54402H8.29629ZM8.25896 3.92535C8.25896 3.83646 8.2394 3.76535 8.20029 3.71202C8.16474 3.65513 8.11674 3.61246 8.05629 3.58402C7.9994 3.55202 7.93363 3.53069 7.85896 3.52002C7.78785 3.50935 7.71851 3.50402 7.65096 3.50402H7.16563V4.38402H7.59763C7.67229 4.38402 7.74874 4.37869 7.82696 4.36802C7.90518 4.3538 7.97629 4.33069 8.04029 4.29869C8.10429 4.26669 8.15585 4.22046 8.19496 4.16002C8.23763 4.09958 8.25896 4.02135 8.25896 3.92535Z" fill="white"/>
</g>
<defs>
<clipPath id="clip0_886_72801">
<rect width="16" height="16" fill="white"/>
</clipPath>
</defs>
</svg>
