<svg width="16" height="16" viewBox="0 0 16 16" fill="none" xmlns="http://www.w3.org/2000/svg">
<g clip-path="url(#clip0_957_3175)">
<path d="M14.9901 7.31693L8.0001 11.5116L1.0101 7.31693C0.858486 7.22596 0.676943 7.19895 0.50541 7.24183C0.333876 7.28471 0.186404 7.39398 0.0954348 7.5456C0.0044655 7.69721 -0.0225489 7.87876 0.0203344 8.05029C0.0632177 8.22182 0.172486 8.3693 0.324101 8.46026L7.65744 12.8603C7.76112 12.9226 7.87981 12.9555 8.00077 12.9555C8.12173 12.9555 8.24041 12.9226 8.3441 12.8603L15.6774 8.46026C15.8291 8.3693 15.9383 8.22182 15.9812 8.05029C16.0241 7.87876 15.9971 7.69721 15.9061 7.5456C15.8151 7.39398 15.6677 7.28471 15.4961 7.24183C15.3246 7.19895 15.1431 7.22596 14.9914 7.31693H14.9901Z" fill="white"/>
<path d="M14.9901 10.3619L8.00013 14.5559L1.01013 10.3619C0.935058 10.3168 0.851848 10.287 0.765253 10.2741C0.678658 10.2612 0.590373 10.2655 0.505438 10.2868C0.420504 10.308 0.340583 10.3457 0.270239 10.3979C0.199896 10.45 0.140507 10.5154 0.0954633 10.5905C0.0504199 10.6656 0.0206041 10.7488 0.0077184 10.8354C-0.00516734 10.922 -0.000870718 11.0103 0.0203629 11.0952C0.0632463 11.2667 0.172515 11.4142 0.32413 11.5052L7.65746 15.9052C7.76115 15.9675 7.87983 16.0004 8.0008 16.0004C8.12176 16.0004 8.24044 15.9675 8.34413 15.9052L15.6775 11.5052C15.8291 11.4142 15.9383 11.2667 15.9812 11.0952C16.0241 10.9237 15.9971 10.7421 15.9061 10.5905C15.8152 10.4389 15.6677 10.3296 15.4962 10.2868C15.3246 10.2439 15.1431 10.2709 14.9915 10.3619H14.9901Z" fill="white"/>
<path d="M7.99994 9.84899C7.64033 9.84879 7.28753 9.75086 6.97927 9.56566L0.323275 5.57166C0.224707 5.51239 0.143149 5.42862 0.0865288 5.32851C0.0299088 5.2284 0.000152588 5.11534 0.000152588 5.00032C0.000152588 4.88531 0.0299088 4.77225 0.0865288 4.67213C0.143149 4.57202 0.224707 4.48826 0.323275 4.42899L6.97927 0.434989C7.28752 0.249808 7.64035 0.151978 7.99994 0.151978C8.35954 0.151978 8.71236 0.249808 9.02061 0.434989L15.6766 4.42899C15.7752 4.48826 15.8567 4.57202 15.9134 4.67213C15.97 4.77225 15.9997 4.88531 15.9997 5.00032C15.9997 5.11534 15.97 5.2284 15.9134 5.32851C15.8567 5.42862 15.7752 5.51239 15.6766 5.57166L9.02061 9.56566C8.71235 9.75086 8.35955 9.84879 7.99994 9.84899ZM1.96261 5.00032L7.66661 8.42232C7.76735 8.48259 7.88255 8.51441 7.99994 8.51441C8.11733 8.51441 8.23253 8.48259 8.33327 8.42232L14.0373 5.00032L8.33327 1.57832C8.23253 1.51806 8.11733 1.48623 7.99994 1.48623C7.88255 1.48623 7.76735 1.51806 7.66661 1.57832L1.96261 5.00032Z" fill="white"/>
</g>
<defs>
<clipPath id="clip0_957_3175">
<rect width="16" height="16" fill="white"/>
</clipPath>
</defs>
</svg>
