<svg width="16" height="16" viewBox="0 0 16 16" fill="none" xmlns="http://www.w3.org/2000/svg">
<g clip-path="url(#clip0_957_19309)">
<path d="M1.33333 7.33333H8.66667C9.02029 7.33333 9.35943 7.19286 9.60948 6.94281C9.85952 6.69276 10 6.35362 10 6V1.33333C10 0.979711 9.85952 0.640573 9.60948 0.390524C9.35943 0.140476 9.02029 0 8.66667 0L1.33333 0C0.979711 0 0.640573 0.140476 0.390524 0.390524C0.140476 0.640573 0 0.979711 0 1.33333L0 6C0 6.35362 0.140476 6.69276 0.390524 6.94281C0.640573 7.19286 0.979711 7.33333 1.33333 7.33333ZM1.33333 1.33333H8.66667V6H1.33333V1.33333Z" fill="white"/>
<path d="M14.6668 0H12.6668C12.3131 0 11.974 0.140476 11.724 0.390524C11.4739 0.640573 11.3334 0.979711 11.3334 1.33333V6C11.3334 6.35362 11.4739 6.69276 11.724 6.94281C11.974 7.19286 12.3131 7.33333 12.6668 7.33333H14.6668C15.0204 7.33333 15.3595 7.19286 15.6096 6.94281C15.8596 6.69276 16.0001 6.35362 16.0001 6V1.33333C16.0001 0.979711 15.8596 0.640573 15.6096 0.390524C15.3595 0.140476 15.0204 0 14.6668 0V0ZM14.6668 6H12.6668V1.33333H14.6668V6Z" fill="white"/>
<path d="M3.33333 8.66687H1.33333C0.979711 8.66687 0.640573 8.80735 0.390524 9.05739C0.140476 9.30744 0 9.64658 0 10.0002L0 14.6669C0 15.0205 0.140476 15.3596 0.390524 15.6097C0.640573 15.8597 0.979711 16.0002 1.33333 16.0002H3.33333C3.68696 16.0002 4.02609 15.8597 4.27614 15.6097C4.52619 15.3596 4.66667 15.0205 4.66667 14.6669V10.0002C4.66667 9.64658 4.52619 9.30744 4.27614 9.05739C4.02609 8.80735 3.68696 8.66687 3.33333 8.66687ZM3.33333 14.6669H1.33333V10.0002H3.33333V14.6669Z" fill="white"/>
<path d="M14.6667 8.66687H7.33333C6.97971 8.66687 6.64057 8.80735 6.39052 9.05739C6.14048 9.30744 6 9.64658 6 10.0002V14.6669C6 15.0205 6.14048 15.3596 6.39052 15.6097C6.64057 15.8597 6.97971 16.0002 7.33333 16.0002H14.6667C15.0203 16.0002 15.3594 15.8597 15.6095 15.6097C15.8595 15.3596 16 15.0205 16 14.6669V10.0002C16 9.64658 15.8595 9.30744 15.6095 9.05739C15.3594 8.80735 15.0203 8.66687 14.6667 8.66687ZM14.6667 14.6669H7.33333V10.0002H14.6667V14.6669Z" fill="white"/>
</g>
<defs>
<clipPath id="clip0_957_19309">
<rect width="16" height="16" fill="white"/>
</clipPath>
</defs>
</svg>
