<svg width="64" height="64" viewBox="0 0 64 64" fill="none" xmlns="http://www.w3.org/2000/svg">
<path d="M32 63.3263C49.6731 63.3263 64 49.1502 64 31.6632C64 14.1761 49.6731 0 32 0C14.3269 0 0 14.1761 0 31.6632C0 49.1502 14.3269 63.3263 32 63.3263Z" fill="#D5FAFD"/>
<path d="M34.6756 20.5645L34.6758 20.5645C35.6806 20.8309 36.6958 20.3056 36.9435 19.3913L37.3594 17.8553C37.607 16.941 36.9932 15.9837 35.9884 15.7174L35.9882 15.7173C34.9834 15.4509 33.9682 15.9762 33.7206 16.8906L33.3046 18.4265C33.057 19.3409 33.6708 20.2981 34.6756 20.5645Z" fill="#2BBECB"/>
<path d="M24.3107 42.0078C24.1679 42.5176 24.1375 43.0525 24.2211 43.5819C24.3048 44.1112 24.5008 44.6244 24.7981 45.092C25.0953 45.5595 25.4877 45.9721 25.9528 46.306C26.4179 46.6398 26.9463 46.8883 27.5078 47.0372C28.0692 47.1861 28.6525 47.2323 29.2239 47.1732C29.7954 47.1142 30.3438 46.951 30.8374 46.6932C31.3311 46.4353 31.7602 46.0879 32.1002 45.6708C32.4401 45.2538 32.684 44.7755 32.818 44.2634" fill="#D5FAFD"/>
<path d="M24.3107 42.0078C24.1679 42.5176 24.1375 43.0525 24.2211 43.5819C24.3048 44.1112 24.5008 44.6244 24.7981 45.092C25.0953 45.5595 25.4877 45.9721 25.9528 46.306C26.4179 46.6398 26.9463 46.8883 27.5078 47.0372C28.0692 47.1861 28.6525 47.2323 29.2239 47.1732C29.7954 47.1142 30.3438 46.951 30.8374 46.6932C31.3311 46.4353 31.7602 46.0879 32.1002 45.6708C32.4401 45.2538 32.684 44.7755 32.818 44.2634" fill="#2BBECB"/>
<path d="M15.1004 40.0717C14.8897 40.0159 14.6969 39.9094 14.5424 39.7635C14.3878 39.6176 14.2771 39.4376 14.2219 39.2426C14.1668 39.0475 14.1692 38.8446 14.229 38.6551C14.2888 38.4657 14.4036 38.2967 14.5615 38.166C15.3633 37.5005 16.2025 36.7142 16.4741 36.1411C18.2531 32.3884 20.5916 25.3292 20.5916 25.3292C21.3718 22.4482 23.3776 20.0187 26.1677 18.5751C28.9579 17.1315 32.3038 16.792 35.4695 17.6313C38.6352 18.4706 41.3614 20.42 43.0482 23.0506C44.735 25.6812 45.2444 28.7776 44.4643 31.6585C44.4643 31.6585 42.9218 38.9296 42.5669 43.0591C42.5125 43.6897 42.8418 44.7859 43.2001 45.7589C43.2708 45.9502 43.2849 46.1534 43.2409 46.347C43.1969 46.5407 43.0965 46.7176 42.9501 46.8592C42.8038 47.0009 42.617 47.102 42.4094 47.1519C42.2018 47.2018 41.9811 47.1986 41.7704 47.1427L15.1004 40.0717Z" fill="#1E858E"/>
</svg>
