<svg width="24" height="24" viewBox="0 0 24 24" fill="none" xmlns="http://www.w3.org/2000/svg">
<path d="M18.4203 7.72038C17.8092 6.31639 16.7547 5.15146 15.4183 4.40411C14.0819 3.65676 12.5373 3.36822 11.0212 3.58269C9.50513 3.79717 8.10118 4.50284 7.02451 5.59156C5.94784 6.68028 5.25784 8.092 5.06025 9.61038C4.22247 9.81444 3.47306 10.2838 2.9237 10.9484C2.37435 11.613 2.05447 12.4374 2.01175 13.2986C1.96903 14.1598 2.20574 15.0118 2.68662 15.7275C3.16749 16.4432 3.86678 16.9844 4.68025 17.2704C4.78397 17.3023 4.89174 17.3192 5.00025 17.3204C5.26547 17.3628 5.53668 17.2982 5.75422 17.1406C5.97177 16.9831 6.11782 16.7456 6.16025 16.4804C6.20269 16.2152 6.13803 15.944 5.9805 15.7264C5.82297 15.5089 5.58547 15.3628 5.32026 15.3204C4.94317 15.1843 4.61569 14.938 4.38031 14.6134C4.14493 14.2889 4.01252 13.9011 4.00025 13.5004C4.00025 12.97 4.21097 12.4612 4.58604 12.0862C4.96111 11.7111 5.46982 11.5004 6.00025 11.5004C6.26547 11.5004 6.51983 11.395 6.70736 11.2075C6.8949 11.02 7.00026 10.7656 7.00026 10.5004C7.00281 9.31766 7.42454 8.17414 8.19052 7.27297C8.95651 6.3718 10.0171 5.77133 11.184 5.57826C12.3509 5.38518 13.5484 5.61199 14.5638 6.21839C15.5793 6.82479 16.3469 7.77152 16.7303 8.89038C16.7874 9.06222 16.8902 9.21531 17.0275 9.33332C17.1649 9.45132 17.3318 9.5298 17.5103 9.56038C18.1116 9.66922 18.6654 9.95911 19.0974 10.3913C19.5295 10.8234 19.8193 11.3772 19.9281 11.9786C20.0368 12.5799 19.9593 13.2002 19.7059 13.7563C19.4526 14.3124 19.0354 14.7778 18.5103 15.0904C18.2795 15.223 18.1109 15.4418 18.0415 15.6988C17.9721 15.9557 18.0076 16.2296 18.1403 16.4604C18.2729 16.6911 18.4917 16.8597 18.7486 16.9291C19.0056 16.9985 19.2795 16.963 19.5103 16.8304C20.2685 16.3903 20.8976 15.7586 21.3347 14.9986C21.7717 14.2386 22.0012 13.3771 22.0003 12.5004C21.9972 11.4245 21.6472 10.3783 21.0023 9.51719C20.3573 8.65606 19.4518 8.02593 18.4203 7.72038Z" fill="black"/>
<path d="M14 13.52C12.44 12.64 10.52 12.92 9.24 14.08V13.4C9.24 13.16 9.08 13 8.84 13C8.6 13 8.44 13.16 8.44 13.4V15.2C8.44 15.44 8.6 15.6 8.84 15.6H10.64C10.88 15.6 11.04 15.44 11.04 15.2C11.04 14.96 10.88 14.8 10.64 14.8H9.68C10.28 14.16 11.12 13.8 12 13.8C13.76 13.8 15.2 15.24 15.2 17C15.2 17.24 15.36 17.4 15.6 17.4C15.84 17.4 16 17.24 16 17C16 15.56 15.24 14.24 14 13.52ZM15.16 18.4H13.36C13.12 18.4 12.96 18.56 12.96 18.8C12.96 19.04 13.12 19.2 13.36 19.2H14.32C13.72 19.84 12.88 20.2 12 20.2C10.24 20.2 8.8 18.76 8.8 17C8.8 16.76 8.64 16.6 8.4 16.6C8.16 16.6 8 16.76 8 17C8 19.2 9.8 21 12 21C13.04 21 14 20.6 14.76 19.88V20.6C14.76 20.84 14.92 21 15.16 21C15.4 21 15.56 20.84 15.56 20.6V18.8C15.56 18.56 15.36 18.4 15.16 18.4Z" fill="black"/>
</svg>
