<svg width="19" height="20" viewBox="0 0 19 20" fill="none" xmlns="http://www.w3.org/2000/svg">
<path d="M5 6C4.73478 6 4.48043 6.10536 4.29289 6.29289C4.10536 6.48043 4 6.73478 4 7C4 7.26522 4.10536 7.51957 4.29289 7.70711C4.48043 7.89464 4.73478 8 5 8H6C6.26522 8 6.51957 7.89464 6.70711 7.70711C6.89464 7.51957 7 7.26522 7 7C7 6.73478 6.89464 6.48043 6.70711 6.29289C6.51957 6.10536 6.26522 6 6 6H5ZM10 18H3C2.73478 18 2.48043 17.8946 2.29289 17.7071C2.10536 17.5196 2 17.2652 2 17V3C2 2.73478 2.10536 2.48043 2.29289 2.29289C2.48043 2.10536 2.73478 2 3 2H8V5C8 5.79565 8.31607 6.55871 8.87868 7.12132C9.44129 7.68393 10.2044 8 11 8H14V10C14 10.2652 14.1054 10.5196 14.2929 10.7071C14.4804 10.8946 14.7348 11 15 11C15.2652 11 15.5196 10.8946 15.7071 10.7071C15.8946 10.5196 16 10.2652 16 10V7C16 7 16 7 16 6.94C15.9896 6.84813 15.9695 6.75763 15.94 6.67V6.58C15.8919 6.47718 15.8278 6.38267 15.75 6.3L9.75 0.3C9.66734 0.222216 9.57282 0.158081 9.47 0.11C9.43692 0.104209 9.40308 0.104209 9.37 0.11C9.27276 0.058003 9.16826 0.020922 9.06 0H3C2.20435 0 1.44129 0.316071 0.87868 0.87868C0.316071 1.44129 0 2.20435 0 3V17C0 17.7956 0.316071 18.5587 0.87868 19.1213C1.44129 19.6839 2.20435 20 3 20H10C10.2652 20 10.5196 19.8946 10.7071 19.7071C10.8946 19.5196 11 19.2652 11 19C11 18.7348 10.8946 18.4804 10.7071 18.2929C10.5196 18.1054 10.2652 18 10 18ZM10 3.41L12.59 6H11C10.7348 6 10.4804 5.89464 10.2929 5.70711C10.1054 5.51957 10 5.26522 10 5V3.41ZM11 10H5C4.73478 10 4.48043 10.1054 4.29289 10.2929C4.10536 10.4804 4 10.7348 4 11C4 11.2652 4.10536 11.5196 4.29289 11.7071C4.48043 11.8946 4.73478 12 5 12H11C11.2652 12 11.5196 11.8946 11.7071 11.7071C11.8946 11.5196 12 11.2652 12 11C12 10.7348 11.8946 10.4804 11.7071 10.2929C11.5196 10.1054 11.2652 10 11 10ZM17.71 16.7102C17.617 16.804 17.5064 16.8784 17.3846 16.9291C17.2627 16.9799 17.132 17.006 17 17.006C16.868 17.006 16.7373 16.9799 16.6154 16.9291C16.4936 16.8784 16.383 16.804 16.29 16.7102L16 16.4102V19.0002C16 19.2654 15.8946 19.5198 15.7071 19.7073C15.5196 19.8949 15.2652 20.0002 15 20.0002C14.7348 20.0002 14.4804 19.8949 14.2929 19.7073C14.1054 19.5198 14 19.2654 14 19.0002V16.4102L13.71 16.7102C13.5217 16.8985 13.2663 17.0043 13 17.0043C12.7337 17.0043 12.4783 16.8985 12.29 16.7102C12.1017 16.5219 11.9959 16.2665 11.9959 16.0002C11.9959 15.7339 12.1017 15.4785 12.29 15.2902L14.29 13.2902C14.3851 13.1992 14.4972 13.1278 14.62 13.0802C14.7397 13.0273 14.8691 13 15 13C15.1309 13 15.2603 13.0273 15.38 13.0802C15.5028 13.1278 15.6149 13.1992 15.71 13.2902L17.71 15.2902C17.8037 15.3832 17.8781 15.4938 17.9289 15.6157C17.9797 15.7375 18.0058 15.8682 18.0058 16.0002C18.0058 16.1322 17.9797 16.263 17.9289 16.3848C17.8781 16.5067 17.8037 16.6173 17.71 16.7102ZM9 16C9.26522 16 9.51957 15.8946 9.70711 15.7071C9.89464 15.5196 10 15.2652 10 15C10 14.7348 9.89464 14.4804 9.70711 14.2929C9.51957 14.1054 9.26522 14 9 14H5C4.73478 14 4.48043 14.1054 4.29289 14.2929C4.10536 14.4804 4 14.7348 4 15C4 15.2652 4.10536 15.5196 4.29289 15.7071C4.48043 15.8946 4.73478 16 5 16H9Z" fill="black"/>
</svg>
