<svg width="1440" height="100" viewBox="0 0 1440 100" fill="none" xmlns="http://www.w3.org/2000/svg">
<path fill-rule="evenodd" clip-rule="evenodd" d="M0 0L59.625 3.75723C120.375 7.51445 239.625 15.0289 360 27.7457C480.375 40.7514 599.625 59.2486 720 63.0058C840.375 66.763 959.625 55.4913 1080 52.0231C1200.38 48.2659 1319.62 52.0231 1380.38 53.7572L1440 55.4913V100H1380.38C1319.62 100 1200.38 100 1080 100C959.625 100 840.375 100 720 100C599.625 100 480.375 100 360 100C239.625 100 120.375 100 59.625 100H0V0Z" fill="#1E858E"/>
</svg>
