<svg width="210" height="159" viewBox="0 0 210 159" fill="none" xmlns="http://www.w3.org/2000/svg">
<g clip-path="url(#clip0_12849_221241)">
<path d="M192.922 158.542C195.845 158.545 198.697 157.645 201.089 155.965C203.481 154.285 205.297 151.907 206.288 149.155C210.641 137.02 214.477 114.541 197.431 90.2257C178.583 63.3407 140.878 35.5473 114.357 32.6999C72.8091 28.2414 61.1965 76.7118 42.554 87.9911C26.4468 97.7363 3.12115 112.35 0.0722483 142.892C-0.114476 144.751 0.0665748 146.628 0.605063 148.417C1.14355 150.206 2.02893 151.872 3.21065 153.318C4.39237 154.765 5.84728 155.964 7.49232 156.848C9.13737 157.732 10.9403 158.284 12.7982 158.47C13.2683 158.517 13.7399 158.541 14.2129 158.542L192.922 158.542Z" fill="#F4FBFC"/>
<path d="M170.131 136.07L169.939 136.091L172.306 157.822L172.498 157.801L170.131 136.07Z" fill="#444444"/>
<path d="M176.261 145.557L175.097 157.131L175.289 157.15L176.453 145.577L176.261 145.557Z" fill="#444444"/>
<path d="M178.262 155.732H169.623V158.549H178.262V155.732Z" fill="#444444"/>
<path opacity="0.2" d="M178.262 155.732H169.623V158.549H178.262V155.732Z" fill="white"/>
<path d="M183.471 150.545C185.107 148.359 184.327 144.995 181.728 143.03C179.129 141.065 175.696 141.244 174.059 143.429C172.422 145.615 173.203 148.98 175.802 150.944C178.401 152.909 181.834 152.73 183.471 150.545Z" fill="#2BBECB"/>
<path opacity="0.2" d="M183.471 150.545C185.107 148.359 184.327 144.995 181.728 143.03C179.129 141.065 175.696 141.244 174.059 143.429C172.422 145.615 173.203 148.98 175.802 150.944C178.401 152.909 181.834 152.73 183.471 150.545Z" fill="white"/>
<path opacity="0.5" d="M183.471 150.545C183.361 150.693 183.241 150.832 183.112 150.963C181.31 152.119 178.651 151.937 176.542 150.342C173.943 148.378 173.163 145.013 174.8 142.828C174.91 142.681 175.029 142.541 175.158 142.41C176.96 141.253 179.618 141.436 181.729 143.03C184.327 144.995 185.107 148.36 183.471 150.545Z" fill="white"/>
<path d="M171.417 142.253C173.993 140.256 174.692 136.833 172.98 134.605C171.268 132.378 167.793 132.191 165.218 134.187C162.642 136.183 161.943 139.607 163.655 141.834C165.367 144.061 168.842 144.249 171.417 142.253Z" fill="#2BBECB"/>
<path opacity="0.2" d="M170.6 141.68C168.606 143.227 166.072 143.463 164.235 142.456C164.022 142.268 163.828 142.06 163.655 141.834C161.943 139.607 162.642 136.182 165.217 134.185C167.211 132.639 169.745 132.402 171.581 133.409C171.794 133.597 171.988 133.805 172.162 134.031C173.873 136.258 173.174 139.683 170.6 141.68Z" fill="white"/>
<path d="M148.322 18.6528V128.262H148.193L141.207 121.273L134.219 128.262H133.737L126.751 121.273L119.763 128.262H119.731L112.508 121.035L105.286 128.262H105.275L98.0518 121.035L90.8285 128.262H90.781L83.5574 121.035L76.3362 128.262H76.3231L69.1019 121.035L61.9844 128.157V18.6528H148.322Z" fill="#AAE5EA"/>
<path d="M108.641 44.7134H71.3652V48.0119H108.641V44.7134Z" fill="white"/>
<path d="M96.7233 34.5825H71.3652V37.881H96.7233V34.5825Z" fill="white"/>
<path d="M102.555 54.8442H71.3652V58.1428H102.555V54.8442Z" fill="white"/>
<path d="M94.4411 64.9756H71.3652V68.2741H94.4411V64.9756Z" fill="white"/>
<path d="M105.154 75.1064H71.3652V78.405H105.154V75.1064Z" fill="white"/>
<path d="M100.527 85.2373H71.3652V88.5358H100.527V85.2373Z" fill="white"/>
<path d="M96.7233 95.3682H71.3652V98.6667H96.7233V95.3682Z" fill="white"/>
<path d="M92.1588 105.499H71.3652V108.798H92.1588V105.499Z" fill="white"/>
<path d="M138.563 44.7134H124.87V48.0119H138.563V44.7134Z" fill="white"/>
<path d="M138.563 34.5825H124.87V37.881H138.563V34.5825Z" fill="white"/>
<path d="M138.563 54.8442H124.87V58.1428H138.563V54.8442Z" fill="white"/>
<path d="M138.563 64.9756H124.87V68.2741H138.563V64.9756Z" fill="white"/>
<path d="M138.563 75.1064H124.87V78.405H138.563V75.1064Z" fill="white"/>
<path d="M138.563 85.2373H124.87V88.5358H138.563V85.2373Z" fill="white"/>
<path d="M138.563 95.3682H124.87V98.6667H138.563V95.3682Z" fill="white"/>
<path d="M138.563 105.499H124.87V108.798H138.563V105.499Z" fill="white"/>
<ellipse cx="138.986" cy="29" rx="23.9861" ry="24" fill="#FFA3A6"/>
<ellipse cx="139.09" cy="29.1039" rx="20.3519" ry="20.3636" fill="#FF4D53"/>
<rect x="135.744" y="15.7026" width="6.6455" height="19.3939" rx="3.32275" fill="#FFE4E5"/>
<rect x="135.766" y="37.0503" width="6.6455" height="6.64935" rx="3.32275" fill="#FFE4E5"/>
<path d="M33.4795 63.1139C33.4795 63.1139 35.2812 62.1579 34.879 57.2485L38.6019 56.5576C38.6019 56.5576 38.1824 60.9595 40.0669 62.357L33.4795 63.1139Z" fill="#E98862"/>
<g opacity="0.15">
<path d="M39.3042 61.4378L36.2119 59.0691L38.6412 59.0439C38.7112 59.8763 38.936 60.6882 39.3042 61.4378Z" fill="black"/>
</g>
<path d="M32.7664 55.3447C33.2404 58.8475 36.6176 59.5971 39.6605 59.3357C41.2802 59.2028 42.4421 57.6836 42.4421 55.7318C42.4421 52.9276 42.1608 49.0133 40.9948 47.9279C39.0607 46.127 33.3811 47.2676 32.6904 50.28C32.3332 51.838 32.521 53.9269 32.7664 55.3447Z" fill="#E98862"/>
<path d="M43.8454 47.0673C43.8478 45.8316 42.304 43.8196 38.2228 46.6031C35.9846 46.6441 34.6864 46.7633 33.0396 47.9925C29.4205 50.4654 32.5656 58.2229 34.7428 58.771C34.9655 58.9037 35.0194 58.7957 35.097 58.5479C35.3396 57.632 35.5132 56.6991 35.6164 55.7572C35.7494 54.7779 36.5 54.2612 36.5 52.9826C36.5 52.5711 36.1039 51.0543 37.8674 51.0543C42.3359 51.0534 44.3441 50.6622 43.8454 47.0673Z" fill="#0F1011"/>
<path d="M36.8406 54.6862C37.0193 56.5359 34.1119 56.7744 33.9872 54.9194C33.7723 53.0098 36.8844 52.8743 36.8406 54.6862Z" fill="#E98862"/>
<path d="M36.2112 50.1431L35.1572 50.5292C35.4788 51.4133 34.9114 59.5828 37.8813 59.6966C41.8674 60.1904 42.5824 58.9859 42.4332 55.8378C36.3277 56.5305 36.7842 55.6557 36.2112 50.1431Z" fill="#0F1011"/>
<path d="M38.9334 53.8319C38.9379 53.9197 38.9081 54.0057 38.8503 54.0719C38.7925 54.138 38.7112 54.179 38.6236 54.1862C38.536 54.1934 38.4491 54.1662 38.3813 54.1104C38.3134 54.0545 38.27 53.9745 38.2602 53.8872C38.2556 53.7994 38.2854 53.7134 38.3433 53.6472C38.4011 53.5811 38.4824 53.5401 38.57 53.5329C38.6575 53.5257 38.7445 53.5529 38.8123 53.6087C38.8801 53.6645 38.9236 53.7446 38.9334 53.8319Z" fill="#0F1011"/>
<path d="M41.597 53.6135C41.603 53.7021 41.5739 53.7895 41.516 53.8568C41.4581 53.9241 41.376 53.9659 41.2875 53.9731C41.1991 53.9804 41.1113 53.9525 41.0432 53.8956C40.9751 53.8386 40.9321 53.7572 40.9236 53.6688C40.9176 53.5802 40.9467 53.4929 41.0046 53.4256C41.0625 53.3583 41.1446 53.3165 41.2331 53.3092C41.3215 53.302 41.4093 53.3298 41.4774 53.3868C41.5455 53.4437 41.5885 53.5252 41.597 53.6135Z" fill="#0F1011"/>
<path d="M41.8466 52.9209C41.8877 52.9196 41.9266 52.9024 41.9553 52.873C41.9839 52.8436 42.0001 52.8042 42.0003 52.7631C42.0006 52.7221 41.9849 52.6825 41.9566 52.6527C41.9283 52.623 41.8895 52.6054 41.8485 52.6036C41.7037 52.6542 40.776 52.449 40.7928 52.7491C40.7615 53.0505 41.7053 52.8666 41.8466 52.9209Z" fill="#0F1011"/>
<path d="M37.868 53.2473C37.9186 53.2494 38.7405 53.0375 38.7878 53.0307C38.8273 53.0195 38.8609 52.9934 38.8816 52.958C38.9023 52.9225 38.9085 52.8805 38.8989 52.8405C38.8893 52.8006 38.8646 52.766 38.83 52.7439C38.7955 52.7217 38.7537 52.7138 38.7134 52.7218C38.5712 52.7852 37.2258 52.9347 37.868 53.2473Z" fill="#0F1011"/>
<g opacity="0.15">
<path d="M40.0956 55.7334C39.616 55.5172 40.6552 55.3531 40.7484 55.2943L40.2667 54.2239C40.3553 53.4969 40.9559 55.2862 41.0142 55.3198C41.1236 55.5559 40.2 55.6618 40.0956 55.7334Z" fill="black"/>
</g>
<path d="M58.3234 156.617L53.4639 156.039C53.6827 154.199 53.9299 151.988 53.9467 151.626C53.9467 151.649 53.9467 151.668 53.9467 151.683H58.8402C58.8391 151.83 58.8391 152.277 58.3234 156.617Z" fill="#E98862"/>
<path d="M64.2859 159.097C64.4176 159.096 64.5476 159.068 64.668 159.015C64.7884 158.962 64.8965 158.885 64.9857 158.788C65.0748 158.691 65.1431 158.577 65.1861 158.452C65.2292 158.328 65.2462 158.196 65.236 158.064C65.2217 157.883 65.1559 157.708 65.0461 157.563C64.9363 157.417 64.7872 157.306 64.6164 157.242L58.9205 155.332C58.8102 155.295 58.6933 155.283 58.5778 155.296C58.4622 155.309 58.3509 155.346 58.2513 155.406C57.4682 155.95 56.5315 156.228 55.5789 156.199C54.837 156.146 54.1249 155.886 53.5237 155.448C53.4708 155.405 53.4067 155.377 53.3389 155.369C53.271 155.361 53.2022 155.372 53.1405 155.401C53.0787 155.43 53.0266 155.477 52.9901 155.534C52.9537 155.592 52.9344 155.659 52.9346 155.728V158.514C52.9346 158.597 52.9508 158.678 52.9823 158.754C53.0138 158.83 53.06 158.899 53.1183 158.957C53.1765 159.015 53.2456 159.061 53.3216 159.092C53.3976 159.123 53.479 159.139 53.5612 159.139L64.2859 159.097Z" fill="#C1D8ED"/>
<path d="M36.4941 157.203L31.6006 157.187C31.6006 157.187 31.6169 152.131 31.6169 151.685H36.5104C36.5104 152.132 36.4941 157.203 36.4941 157.203Z" fill="#E98862"/>
<path d="M51.6227 155.99L60.0137 154.008C54.5807 132.667 50.0218 110.884 45.6062 89.3129L45.544 89.3313L45.3617 88.0885L27.6341 86.9927C27.6341 86.9927 26.9439 95.6795 26.9443 98.5821C26.946 112.806 29.2068 136.454 30.33 155.377L38.9407 154.936C38.4341 136.586 37.0656 118.21 37.1639 99.8552C42.3201 118.424 47.4622 137.192 51.6227 155.99Z" fill="#262626"/>
<path d="M42.4432 159.097C42.5748 159.096 42.7048 159.069 42.8252 159.015C42.9456 158.962 43.0538 158.885 43.1429 158.788C43.2321 158.691 43.3003 158.577 43.3433 158.452C43.3863 158.328 43.4032 158.196 43.393 158.065C43.3788 157.883 43.313 157.708 43.2032 157.563C43.0934 157.417 42.9443 157.305 42.7734 157.242L37.0778 155.332C36.9674 155.295 36.8505 155.283 36.735 155.296C36.6195 155.309 36.5081 155.346 36.4085 155.406C35.6254 155.95 34.6888 156.228 33.7362 156.199C32.9942 156.146 32.2819 155.886 31.6807 155.448C31.6278 155.405 31.5638 155.377 31.4959 155.369C31.4281 155.36 31.3593 155.372 31.2975 155.401C31.2358 155.43 31.1836 155.477 31.1472 155.534C31.1108 155.592 31.0916 155.659 31.0918 155.728V158.515C31.0918 158.597 31.108 158.678 31.1395 158.754C31.1711 158.83 31.2173 158.899 31.2755 158.957C31.3337 159.015 31.4028 159.061 31.4788 159.092C31.5548 159.123 31.6362 159.139 31.7184 159.139L42.4432 159.097Z" fill="#C1D8ED"/>
<path d="M58.0293 65.514C58.0293 65.514 58.4021 62.7394 60.3703 63.1246C61.6121 63.3682 67.5987 63.8157 67.6213 64.3694C67.6775 65.7392 62.1918 65.4042 61.5461 66.5949L58.0293 65.514Z" fill="#E98862"/>
<path d="M59.6562 63.1279C59.6562 63.1279 62.5299 62.5627 63.1896 62.8068C63.7736 63.0232 62.4011 63.8502 62.4011 63.8502L59.6562 63.1279Z" fill="#E98862"/>
<path d="M15.8839 65.514C15.8839 65.514 15.5111 62.7394 13.543 63.1246C12.3012 63.3682 6.31475 63.8164 6.29144 64.3694C6.23528 65.7392 11.7209 65.4042 12.3667 66.5949L15.8839 65.514Z" fill="#E98862"/>
<path d="M14.2571 63.1279C14.2571 63.1279 11.3835 62.5627 10.7238 62.8068C10.1398 63.0232 11.5123 63.8502 11.5123 63.8502L14.2571 63.1279Z" fill="#E98862"/>
<path d="M40.9279 61.938C40.8673 63.2204 40.1706 65.1064 38.0197 65.2489C35.1535 65.4378 32.9305 63.2157 32.7627 61.9077H32.7697C35.5916 61.9077 39.2827 61.9124 40.9279 61.938Z" fill="#E98862"/>
<path d="M40.8181 57.0005C40.8181 57.0005 40.0199 55.7041 38.8975 57.0005C39.2135 56.9317 39.5347 56.8889 39.8578 56.8725C40.1814 56.8822 40.5032 56.9251 40.8181 57.0005Z" fill="white"/>
<path d="M46.8449 88.9071C45.8688 91.1524 27.1962 92.0851 26.9399 88.1354C26.7768 85.6219 28.8288 83.2742 28.8288 78.3755C28.8288 73.4768 25.1552 68.5569 28.8253 64.8846C29.8902 63.8191 30.5474 61.9491 32.7891 61.9468C32.9568 63.2548 40.8937 63.2595 40.9543 61.9771C41.2572 61.9817 41.4926 61.9864 41.6394 61.9934C49.3712 62.3268 45.3881 71.1515 45.3135 77.6194C45.2226 85.1877 47.8518 86.5942 46.8449 88.9071Z" fill="white"/>
<path d="M40.9572 61.9971C40.8966 63.2795 40.1999 65.1658 38.049 65.308C35.1828 65.4968 32.9598 63.2748 32.792 61.9668H32.799C35.6209 61.9673 39.3113 61.9719 40.9572 61.9971Z" fill="#E98862"/>
<path d="M58.0206 63.881L51.2488 74.0677L46.1922 64.3482C45.5847 62.9478 44.3893 62.0385 42.2051 61.9429C42.0781 61.9373 40.1718 61.8525 40.0944 61.9299C39.626 62.3985 39.9637 70.6995 40.1967 75.2881C40.4514 80.2544 40.1897 86.4565 40.4262 90.0222C40.4415 90.2562 40.5052 90.4844 40.6133 90.6925C40.7213 90.9006 40.8713 91.084 41.0538 91.2311C41.2363 91.3782 41.4474 91.4858 41.6736 91.5471C41.8998 91.6084 42.1363 91.622 42.368 91.5872C44.8805 91.2032 46.8395 90.5482 47.1252 89.8914C48.1319 87.5784 45.8089 85.1671 45.8998 77.5987C45.9091 76.8006 45.9678 75.9666 46.0503 75.1149L48.7669 80.2162C48.9736 80.6044 49.2775 80.9323 49.6488 81.1678C50.0202 81.4033 50.4462 81.5383 50.8853 81.5596C50.9268 81.5617 50.9681 81.5629 51.0091 81.5629C51.4277 81.5629 51.8399 81.4593 52.2089 81.2614C52.5778 81.0635 52.8922 80.7774 53.124 80.4286L62.2521 66.6968L58.0206 63.881Z" fill="#1E858E"/>
<path d="M33.8697 63.623C33.5201 61.7748 33.7065 61.9058 32.8299 61.9051C32.6876 61.9051 32.5469 61.9081 32.4077 61.9142C30.3274 61.9842 28.4793 62.5265 27.6176 63.6629C25.8098 66.0465 21.29 74.2995 21.29 74.2995L15.4669 63.623L11.0068 66.0584L18.9917 80.6967C19.2075 81.0924 19.5247 81.4236 19.9106 81.6563C20.2966 81.8889 20.7374 82.0146 21.188 82.0206H21.2217C21.6666 82.0206 22.1036 81.9037 22.4891 81.6817C22.8746 81.4596 23.1951 81.1401 23.4185 80.7552L27.5328 73.6671L27.5416 73.6473C28.0359 75.3272 28.4779 76.9948 28.4779 78.5285C28.4779 83.4272 26.2642 85.6213 26.4273 88.1347C26.528 89.7046 27.3298 91.6907 33.3773 92.1162C33.8669 92.1506 34.3511 91.9957 34.7298 91.6833C35.1085 91.3709 35.3529 90.9249 35.4125 90.4374C36.5716 80.7955 34.4622 67.954 33.8697 63.623Z" fill="#1E858E"/>
<path d="M31.8641 67.4248L32.442 65.5292L31.3281 64.7994L32.2281 61.9206C33.0569 61.8772 33.684 61.8802 33.9243 61.8895C34.474 63.7292 35.0761 71.8618 35.2903 74.9465L31.8641 67.4248Z" fill="#1E858E"/>
<path d="M41.5118 65.5294L42.6071 67.1918L40.1726 74.8358C40.1726 74.8358 39.3936 64.4898 40.0531 61.9187C40.0531 61.9187 40.3668 61.884 40.7484 61.8786C41.0709 61.8767 41.3933 61.891 41.7143 61.9215L42.6257 64.8003L41.5118 65.5294Z" fill="#1E858E"/>
<g opacity="0.24">
<path d="M31.8641 67.4248L32.442 65.5292L31.3281 64.7994L32.2281 61.9206C33.0569 61.8772 33.684 61.8802 33.9243 61.8895C34.474 63.7292 35.0761 71.8618 35.2903 74.9465L31.8641 67.4248Z" fill="white"/>
</g>
<g opacity="0.24">
<path d="M41.5118 65.5294L42.6071 67.1918L40.1726 74.8358C40.1726 74.8358 39.3936 64.4898 40.0531 61.9187C40.0531 61.9187 40.3668 61.884 40.7484 61.8786C41.0709 61.8767 41.3933 61.891 41.7143 61.9215L42.6257 64.8003L41.5118 65.5294Z" fill="white"/>
</g>
</g>
<defs>
<clipPath id="clip0_12849_221241">
<rect width="210" height="159" fill="white"/>
</clipPath>
</defs>
</svg>
