<svg width="210" height="159" viewBox="0 0 210 159" fill="none" xmlns="http://www.w3.org/2000/svg">
<g clip-path="url(#clip0_12853_222885)">
<path d="M192.922 158.542C195.845 158.545 198.697 157.645 201.089 155.965C203.481 154.285 205.297 151.907 206.288 149.155C210.641 137.02 214.477 114.541 197.431 90.2257C178.583 63.3407 140.878 35.5473 114.357 32.6999C72.8091 28.2414 61.1965 76.7118 42.554 87.9911C26.4468 97.7363 3.12115 112.35 0.0722483 142.892C-0.114476 144.751 0.0665748 146.628 0.605063 148.417C1.14355 150.206 2.02893 151.872 3.21065 153.318C4.39237 154.765 5.84728 155.964 7.49232 156.848C9.13737 157.732 10.9403 158.284 12.7982 158.47C13.2683 158.517 13.7399 158.541 14.2129 158.542L192.922 158.542Z" fill="#F4FBFC"/>
<path d="M170.131 136.07L169.939 136.091L172.306 157.822L172.498 157.801L170.131 136.07Z" fill="#444444"/>
<path d="M176.261 145.557L175.097 157.131L175.289 157.15L176.453 145.577L176.261 145.557Z" fill="#444444"/>
<path d="M178.262 155.732H169.623V158.549H178.262V155.732Z" fill="#444444"/>
<path opacity="0.2" d="M178.262 155.732H169.623V158.549H178.262V155.732Z" fill="white"/>
<path d="M183.471 150.545C185.107 148.359 184.327 144.995 181.728 143.03C179.129 141.065 175.696 141.244 174.059 143.429C172.422 145.615 173.203 148.98 175.802 150.944C178.401 152.909 181.834 152.73 183.471 150.545Z" fill="#2BBECB"/>
<path opacity="0.2" d="M183.471 150.545C185.107 148.359 184.327 144.995 181.728 143.03C179.129 141.065 175.696 141.244 174.059 143.429C172.422 145.615 173.203 148.98 175.802 150.944C178.401 152.909 181.834 152.73 183.471 150.545Z" fill="white"/>
<path opacity="0.5" d="M183.471 150.545C183.361 150.693 183.241 150.832 183.112 150.963C181.31 152.119 178.651 151.937 176.542 150.342C173.943 148.378 173.163 145.013 174.8 142.828C174.91 142.681 175.029 142.541 175.158 142.41C176.96 141.253 179.618 141.436 181.729 143.03C184.327 144.995 185.107 148.36 183.471 150.545Z" fill="white"/>
<path d="M171.417 142.253C173.993 140.256 174.692 136.833 172.98 134.605C171.268 132.378 167.793 132.191 165.218 134.187C162.642 136.183 161.943 139.607 163.655 141.834C165.367 144.061 168.842 144.249 171.417 142.253Z" fill="#2BBECB"/>
<path opacity="0.2" d="M170.6 141.68C168.606 143.227 166.072 143.463 164.235 142.456C164.022 142.268 163.828 142.06 163.655 141.834C161.943 139.607 162.642 136.182 165.217 134.185C167.211 132.639 169.745 132.402 171.581 133.409C171.794 133.597 171.988 133.805 172.162 134.031C173.873 136.258 173.174 139.683 170.6 141.68Z" fill="white"/>
<path d="M155.535 109.911L112.478 132.652L69.4863 109.911V75.5713H155.535V109.911Z" fill="#AAE5EA"/>
<path d="M112.478 133.001C112.421 133.001 112.365 132.987 112.315 132.96L69.3245 110.22C69.2686 110.19 69.2218 110.146 69.1891 110.092C69.1563 110.038 69.1389 109.976 69.1387 109.913V75.5714C69.1387 75.4789 69.1754 75.3902 69.2408 75.3248C69.3062 75.2594 69.395 75.2227 69.4875 75.2227H155.535C155.628 75.2227 155.717 75.2594 155.782 75.3248C155.847 75.3902 155.884 75.4789 155.884 75.5714V109.912C155.884 109.975 155.867 110.037 155.834 110.091C155.801 110.145 155.754 110.189 155.698 110.219L112.641 132.959C112.591 132.986 112.535 133.001 112.478 133.001ZM69.8351 109.702L112.478 132.258L155.187 109.702V75.9202H69.8351V109.702Z" fill="#1E858E"/>
<path d="M155.536 68.2024L112.479 45.4617L131.827 36.1357L174.884 58.8767L155.536 68.2024Z" fill="#AAE5EA"/>
<path d="M155.536 68.5513C155.479 68.5513 155.423 68.5375 155.373 68.5111L112.316 45.7702C112.259 45.74 112.211 45.6946 112.178 45.639C112.145 45.5834 112.129 45.5198 112.13 45.4553C112.131 45.3908 112.15 45.3278 112.185 45.2735C112.22 45.2191 112.269 45.1755 112.327 45.1474L131.675 35.8214C131.724 35.7976 131.779 35.7857 131.833 35.7867C131.888 35.7877 131.941 35.8016 131.99 35.8273L175.047 58.5682C175.104 58.5983 175.151 58.6437 175.184 58.6993C175.217 58.7549 175.234 58.8184 175.233 58.883C175.231 58.9475 175.212 59.0104 175.177 59.0647C175.143 59.1191 175.093 59.1627 175.035 59.1907L155.687 68.5167C155.64 68.5395 155.588 68.5514 155.536 68.5513ZM113.252 45.4756L155.543 67.8113L174.11 58.862L131.82 36.5268L113.252 45.4756Z" fill="#1E858E"/>
<path d="M69.4869 68.2024L112.544 45.4617L93.1957 36.1357L50.1387 58.8767L69.4869 68.2024Z" fill="#AAE5EA"/>
<path d="M69.4869 68.5513C69.4344 68.5513 69.3826 68.5395 69.3353 68.5167L49.9883 59.1907C49.9301 59.1627 49.8809 59.1191 49.8461 59.0647C49.8113 59.0104 49.7923 58.9475 49.7911 58.883C49.7899 58.8184 49.8066 58.7549 49.8394 58.6993C49.8722 58.6437 49.9198 58.5983 49.9768 58.5682L93.0339 35.8273C93.0821 35.8016 93.1358 35.7877 93.1904 35.7867C93.2451 35.7857 93.2992 35.7976 93.3484 35.8214L112.697 45.1474C112.755 45.1755 112.804 45.2191 112.839 45.2735C112.873 45.3278 112.892 45.3908 112.894 45.4553C112.895 45.5198 112.878 45.5834 112.845 45.639C112.813 45.6946 112.765 45.74 112.708 45.7702L69.6509 68.5111C69.6003 68.5377 69.544 68.5515 69.4869 68.5513ZM50.9124 58.8626L69.4796 67.8119L111.77 45.4761L93.203 36.5268L50.9124 58.8626Z" fill="#1E858E"/>
<path d="M69.4871 68.2021L112.544 90.9431L90.4057 103.059L47.3486 80.3185L69.4871 68.2021Z" fill="#AAE5EA"/>
<path d="M90.4054 103.408C90.3486 103.408 90.2926 103.394 90.2424 103.367L47.1854 80.6266C47.1298 80.5971 47.0832 80.5531 47.0506 80.4993C47.0179 80.4455 47.0005 80.3839 47 80.321C46.9996 80.258 47.0161 80.1962 47.048 80.1419C47.0798 80.0876 47.1258 80.043 47.1809 80.0127L69.3194 67.8964C69.37 67.8686 69.4266 67.8539 69.4843 67.8535C69.542 67.8531 69.5988 67.8671 69.6498 67.8942L112.707 90.6351C112.762 90.6646 112.809 90.7085 112.842 90.7623C112.874 90.8161 112.892 90.8778 112.892 90.9407C112.893 91.0036 112.876 91.0655 112.844 91.1197C112.812 91.174 112.766 91.2187 112.711 91.2489L90.5728 103.365C90.5215 103.393 90.4639 103.408 90.4054 103.408ZM48.085 80.3129L90.4023 102.663L111.808 90.9484L69.4899 68.5981L48.085 80.3129Z" fill="#1E858E"/>
<path d="M155.536 68.2021L112.479 90.9431L134.617 103.059L177.674 80.3185L155.536 68.2021Z" fill="#AAE5EA"/>
<path d="M134.618 103.408C134.559 103.408 134.502 103.393 134.45 103.365L112.312 91.2489C112.257 91.2187 112.211 91.174 112.179 91.1197C112.147 91.0655 112.13 91.0036 112.131 90.9407C112.131 90.8778 112.149 90.8161 112.181 90.7623C112.214 90.7085 112.261 90.6646 112.316 90.6351L155.373 67.8942C155.424 67.8671 155.481 67.8531 155.539 67.8535C155.596 67.8539 155.653 67.8686 155.704 67.8964L177.842 80.0127C177.897 80.043 177.943 80.0876 177.975 80.1419C178.007 80.1962 178.024 80.258 178.023 80.321C178.023 80.3839 178.005 80.4455 177.972 80.4993C177.94 80.5531 177.893 80.5971 177.838 80.6266L134.781 103.367C134.73 103.394 134.674 103.408 134.618 103.408ZM113.216 90.9484L134.621 102.663L176.939 80.3129L155.533 68.5981L113.216 90.9484Z" fill="#1E858E"/>
<path d="M112.544 45.4619L69.4873 68.2026L112.479 90.9435L155.536 68.2026L112.544 45.4619Z" fill="#1E858E"/>
<path d="M112.827 90.9434H112.13V132.652H112.827V90.9434Z" fill="#1E858E"/>
<path d="M88.3543 66.1378C88.2966 66.1379 88.2403 66.1198 88.1933 66.0862C88.1329 66.0434 88.092 65.9784 88.0795 65.9055C88.0671 65.8325 88.0841 65.7576 88.1269 65.6972C88.1785 65.6244 93.2214 58.3339 87.5917 51.6874C86.5953 50.505 85.3524 49.5547 83.95 48.9032C82.5476 48.2517 81.0197 47.9148 79.4733 47.9161H79.3975C79.9321 49.7733 79.8366 51.4246 79.0796 52.6914C78.7571 53.2638 78.2811 53.7348 77.7053 54.0513C77.1295 54.3678 76.4767 54.5172 75.8206 54.4828C75.2774 54.4383 74.759 54.2364 74.3289 53.9017C73.8988 53.5671 73.5756 53.1143 73.3989 52.5988C72.7797 50.9837 73.4268 49.4178 75.1322 48.4086C76.2126 47.8128 77.4131 47.4675 78.6449 47.3982C78.2442 46.3358 77.7231 45.3227 77.0918 44.3788C75.0591 41.2743 71.3544 39.1253 66.9273 38.4827C63.1755 37.9383 59.5799 38.5795 57.766 40.1158C57.7095 40.1636 57.6363 40.187 57.5625 40.1809C57.4888 40.1747 57.4205 40.1395 57.3727 40.083C57.3249 40.0265 57.3015 39.9533 57.3076 39.8796C57.3138 39.8058 57.349 39.7375 57.4055 39.6897C59.3358 38.0549 63.1046 37.3637 67.0074 37.9318C71.5927 38.5976 75.4383 40.8363 77.5589 44.0744C78.2464 45.1014 78.8057 46.2086 79.2242 47.3714C80.8923 47.3313 82.5481 47.666 84.0697 48.3508C85.5913 49.0356 86.9399 50.053 88.0161 51.3281C93.9296 58.3091 88.6347 65.945 88.5806 66.0215C88.5548 66.0574 88.5208 66.0867 88.4815 66.107C88.4421 66.1272 88.3985 66.1378 88.3543 66.1378ZM78.826 47.9365C77.6317 47.9874 76.4653 48.3134 75.4177 48.8891C73.9455 49.7602 73.4003 51.0398 73.9212 52.3993C74.0624 52.8158 74.3219 53.1822 74.668 53.4535C75.0141 53.7249 75.4318 53.8895 75.87 53.9272C76.4217 53.9519 76.9694 53.8227 77.4519 53.5539C77.9343 53.2852 78.3325 52.8875 78.6019 52.4054C79.2967 51.2418 79.3603 49.6952 78.8252 47.9365H78.826Z" fill="#2BBECB"/>
<path d="M52.9505 44.6145C52.4763 44.757 51.9652 44.7087 51.5261 44.48C51.087 44.2512 50.7545 43.8602 50.5995 43.39C50.4444 42.9198 50.479 42.4076 50.696 41.9625C50.9129 41.5175 51.2949 41.1747 51.7608 41.0071C52.2267 40.8396 52.7396 40.8605 53.1903 41.0655C53.641 41.2704 53.9939 41.6432 54.1738 42.1044C54.3538 42.5657 54.3465 43.079 54.1537 43.535C53.9608 43.991 53.5976 44.3537 53.1413 44.5459C53.079 44.5722 53.0153 44.5951 52.9505 44.6145ZM52.0227 41.5139C51.9775 41.5275 51.9331 41.5435 51.8896 41.5619C51.5685 41.6973 51.313 41.9527 51.1775 42.2736C51.0419 42.5946 51.037 42.9558 51.1638 43.2803C51.2907 43.6049 51.5392 43.867 51.8564 44.011C52.1737 44.155 52.5347 44.1695 52.8624 44.0513C53.1902 43.9331 53.4589 43.6916 53.6112 43.3783C53.7636 43.0649 53.7876 42.7045 53.6781 42.3737C53.5686 42.0429 53.3343 41.768 53.0251 41.6074C52.7159 41.4468 52.3562 41.4133 52.0227 41.5139Z" fill="#2BBECB"/>
<path d="M52.9471 40.2424C52.4986 40.3763 52.0164 40.3397 51.5932 40.1396C51.17 39.9395 50.8357 39.59 50.6546 39.1584C50.5094 38.8123 50.4701 38.431 50.5416 38.0626C50.6132 37.6942 50.7924 37.3552 51.0565 37.0887C51.3207 36.8221 51.658 36.6399 52.0257 36.565C52.3935 36.4901 52.7751 36.526 53.1225 36.6681C53.4699 36.8101 53.7673 37.052 53.9772 37.3631C54.1871 37.6742 54.3 38.0406 54.3016 38.4159C54.3033 38.7912 54.1936 39.1585 53.9865 39.4715C53.7793 39.7844 53.4841 40.0289 53.138 40.174C53.0756 40.2001 53.0119 40.223 52.9471 40.2424ZM52.0205 37.1416C51.9747 37.1553 51.9297 37.1714 51.8857 37.1898C51.5584 37.3273 51.299 37.5892 51.1646 37.9178C51.0303 38.2464 51.0319 38.615 51.1691 38.9424C51.2692 39.1811 51.4364 39.3857 51.6503 39.5314C51.8642 39.6771 52.1157 39.7577 52.3745 39.7635C52.6333 39.7692 52.8882 39.6999 53.1083 39.5638C53.3285 39.4277 53.5046 39.2308 53.6152 38.9968C53.7258 38.7628 53.7662 38.5017 53.7316 38.2452C53.6969 37.9887 53.5887 37.7478 53.42 37.5515C53.2513 37.3552 53.0293 37.212 52.781 37.1392C52.5326 37.0664 52.2684 37.0674 52.0205 37.1416Z" fill="#2BBECB"/>
<path d="M52.405 42.2157C53.7753 42.2157 54.8861 41.4737 54.8861 40.5585C54.8861 39.6433 53.7753 38.9014 52.405 38.9014C51.0347 38.9014 49.9238 39.6433 49.9238 40.5585C49.9238 41.4737 51.0347 42.2157 52.405 42.2157Z" fill="#AAE5EA"/>
<path d="M53.5037 42.3375C53.1479 42.4426 52.7788 42.4956 52.4079 42.4949C50.8598 42.4949 49.6455 41.6466 49.6455 40.5609C49.6455 39.4752 50.8562 38.6239 52.4037 38.6222C53.0784 38.6093 53.7422 38.7935 54.3137 39.1524C54.5703 39.2861 54.7855 39.4876 54.9357 39.735C55.0859 39.9823 55.1654 40.2661 55.1657 40.5556C55.166 40.845 55.0869 41.1289 54.9371 41.3766C54.7874 41.6242 54.5726 41.8261 54.3162 41.9603C54.0655 42.1255 53.7917 42.2527 53.5037 42.3375ZM51.4773 39.3131C50.7318 39.5363 50.2033 40.0182 50.2036 40.5595C50.2036 41.3065 51.2128 41.9368 52.4079 41.9357C52.9724 41.9476 53.5282 41.7948 54.0073 41.4959C54.187 41.4132 54.3392 41.2806 54.4458 41.114C54.5524 40.9473 54.609 40.7536 54.6088 40.5558C54.6086 40.3579 54.5517 40.1643 54.4448 39.9979C54.3379 39.8314 54.1855 39.6991 54.0056 39.6167C53.5262 39.3185 52.9701 39.1666 52.4057 39.1797C52.0914 39.1789 51.7787 39.2238 51.4773 39.3131Z" fill="#2BBECB"/>
<path d="M53.0137 42.1653L52.9551 38.9425L52.1537 38.9102L52.0977 42.203L53.0137 42.1653Z" fill="#2BBECB"/>
<path d="M49.1136 41.2599C49.255 41.2599 49.3697 41.1452 49.3697 41.0037C49.3697 40.8622 49.255 40.7476 49.1136 40.7476C48.9721 40.7476 48.8574 40.8622 48.8574 41.0037C48.8574 41.1452 48.9721 41.2599 49.1136 41.2599Z" fill="#2BBECB"/>
<path d="M49.3138 39.8893C49.4552 39.8893 49.5699 39.7746 49.5699 39.6331C49.5699 39.4916 49.4552 39.377 49.3138 39.377C49.1723 39.377 49.0576 39.4916 49.0576 39.6331C49.0576 39.7746 49.1723 39.8893 49.3138 39.8893Z" fill="#2BBECB"/>
<path d="M119.209 63.0454C119.149 63.0454 119.091 63.0262 119.043 62.9907C118.995 62.9552 118.96 62.9052 118.942 62.8481C118.017 59.392 117.77 55.7892 118.215 52.2391C118.937 47.0492 121.799 40.2378 131.338 37.2552C132.68 36.8237 134.057 36.508 135.453 36.3118C135.903 33.5045 137.613 30.4592 141.437 28.3581C150.522 23.3657 156.66 27.8449 156.721 27.8907C156.78 27.9351 156.819 28.0012 156.829 28.0745C156.84 28.1477 156.821 28.2221 156.776 28.2813C156.732 28.3405 156.666 28.3797 156.593 28.3901C156.519 28.4006 156.445 28.3815 156.386 28.3371C156.328 28.2936 150.462 24.0353 141.706 28.8475C138.132 30.811 136.497 33.6292 136.032 36.2454C140.239 35.831 142.254 37.2346 143.158 38.2946C143.718 38.932 144.077 39.72 144.192 40.5604C144.307 41.4008 144.172 42.2563 143.804 43.0205C143.513 43.6382 143.042 44.1531 142.452 44.4973C141.863 44.8415 141.183 44.9988 140.502 44.9483C138.152 44.8105 136.207 42.8339 135.548 39.9124C135.331 38.9235 135.273 37.9061 135.377 36.8989C134.064 37.0875 132.769 37.3854 131.505 37.7893C124.07 40.1139 119.786 45.0022 118.768 52.3175C118.332 55.7871 118.572 59.3082 119.476 62.6863C119.489 62.728 119.492 62.7721 119.484 62.8151C119.477 62.8581 119.459 62.8988 119.434 62.9339C119.408 62.969 119.374 62.9975 119.335 63.0171C119.296 63.0368 119.253 63.047 119.209 63.047V63.0454ZM135.946 36.8291C135.83 37.8172 135.879 38.8177 136.093 39.7894C136.696 42.4619 138.439 44.2681 140.534 44.3911C141.105 44.432 141.675 44.2994 142.17 44.0106C142.664 43.7218 143.06 43.2903 143.305 42.7727C143.624 42.1064 143.739 41.3609 143.638 40.6291C143.536 39.8973 143.222 39.2116 142.733 38.6573C141.428 37.1263 139.047 36.508 135.946 36.8291Z" fill="#2BBECB"/>
<path d="M163.22 30.7108C162.844 30.71 162.476 30.6029 162.159 30.402C161.841 30.201 161.587 29.9144 161.425 29.5751C161.264 29.2358 161.201 28.8577 161.245 28.4845C161.289 28.1113 161.438 27.7581 161.674 27.4657C161.91 27.1734 162.224 26.9537 162.58 26.8322C162.935 26.7107 163.318 26.6921 163.684 26.7788C164.05 26.8655 164.383 27.0538 164.647 27.322C164.91 27.5902 165.092 27.9274 165.172 28.2946C165.234 28.5858 165.231 28.8872 165.162 29.1768C165.093 29.4665 164.96 29.737 164.773 29.9687C164.586 30.2003 164.349 30.3872 164.08 30.5156C163.812 30.644 163.518 30.7107 163.22 30.7108ZM163.224 27.2832C162.928 27.2831 162.638 27.3752 162.396 27.5466C162.153 27.718 161.97 27.9603 161.872 28.2402C161.773 28.5201 161.763 28.8237 161.844 29.1092C161.925 29.3947 162.093 29.648 162.324 29.8343C162.555 30.0206 162.838 30.1307 163.134 30.1493C163.43 30.1679 163.725 30.0942 163.978 29.9384C164.23 29.7825 164.428 29.5522 164.544 29.2791C164.66 29.0059 164.689 28.7035 164.626 28.4135C164.558 28.0926 164.382 27.805 164.126 27.5991C163.871 27.3932 163.552 27.2816 163.224 27.2832Z" fill="#2BBECB"/>
<path d="M162.38 35.2649C161.869 35.2649 161.377 35.0688 161.006 34.717C160.634 34.3652 160.412 33.8844 160.385 33.3738C160.357 32.8631 160.527 32.3613 160.858 31.9718C161.189 31.5822 161.657 31.3345 162.166 31.2796C162.674 31.2247 163.184 31.3669 163.591 31.6768C163.998 31.9867 164.271 32.4408 164.353 32.9456C164.435 33.4503 164.32 33.9674 164.033 34.3903C163.745 34.8132 163.306 35.1097 162.807 35.2189C162.667 35.2494 162.524 35.2649 162.38 35.2649ZM162.387 31.837C162.284 31.8371 162.181 31.8482 162.08 31.8702C161.724 31.9485 161.411 32.1604 161.206 32.4624C161.001 32.7643 160.92 33.1333 160.978 33.4934C161.037 33.8536 161.232 34.1775 161.522 34.3985C161.813 34.6195 162.177 34.7208 162.54 34.6815C162.902 34.6423 163.236 34.4655 163.473 34.1875C163.709 33.9095 163.83 33.5515 163.81 33.1871C163.791 32.8227 163.632 32.4796 163.368 32.2285C163.103 31.9774 162.752 31.8373 162.387 31.837Z" fill="#2BBECB"/>
<path d="M165.377 31.5262C165.552 30.5731 164.538 29.587 163.111 29.3237C161.684 29.0604 160.385 29.6196 160.209 30.5727C160.033 31.5257 161.047 32.5118 162.474 32.7751C163.901 33.0384 165.201 32.4793 165.377 31.5262Z" fill="#AAE5EA"/>
<path d="M163.177 33.1194C162.924 33.119 162.672 33.0956 162.423 33.0496C161.721 32.9332 161.069 32.6146 160.546 32.1327C160.317 31.9373 160.14 31.6873 160.034 31.4058C159.927 31.1243 159.893 30.8204 159.934 30.5222C160.002 30.2288 160.142 29.9571 160.343 29.7323C160.543 29.5074 160.797 29.3367 161.08 29.2359C161.744 28.9852 162.464 28.9207 163.161 29.0495C163.859 29.1782 164.508 29.4953 165.039 29.9664C165.268 30.1618 165.444 30.4118 165.551 30.6933C165.658 30.9748 165.692 31.2787 165.65 31.5769C165.583 31.8703 165.442 32.142 165.242 32.3668C165.042 32.5917 164.788 32.7624 164.504 32.8632C164.083 33.0374 163.632 33.1245 163.177 33.1194ZM162.406 29.5372C162.027 29.5324 161.651 29.6042 161.301 29.7484C161.102 29.8148 160.924 29.9296 160.781 30.0824C160.638 30.2352 160.536 30.4211 160.483 30.6235C160.46 30.8313 160.489 31.0416 160.568 31.2352C160.647 31.4289 160.773 31.5999 160.935 31.7326C161.386 32.1265 161.935 32.3918 162.524 32.5005C163.113 32.6093 163.721 32.5575 164.283 32.3507C164.481 32.2843 164.66 32.1695 164.803 32.0167C164.945 31.8639 165.048 31.678 165.1 31.4756C165.124 31.2678 165.094 31.0575 165.015 30.8638C164.937 30.6701 164.811 30.4991 164.649 30.3665C164.205 29.9613 163.652 29.6943 163.059 29.5983C162.844 29.5583 162.626 29.5378 162.407 29.5372H162.406Z" fill="#2BBECB"/>
<path d="M162.47 29.2593L161.909 32.626L162.737 32.8147L163.431 29.3968L162.47 29.2593Z" fill="#2BBECB"/>
<path d="M165.835 32.8813C165.984 32.8813 166.106 32.7599 166.106 32.6101C166.106 32.4603 165.984 32.3389 165.835 32.3389C165.685 32.3389 165.563 32.4603 165.563 32.6101C165.563 32.7599 165.685 32.8813 165.835 32.8813Z" fill="#2BBECB"/>
<path d="M166.307 31.4931C166.457 31.4931 166.579 31.3717 166.579 31.2219C166.579 31.0721 166.457 30.9507 166.307 30.9507C166.158 30.9507 166.036 31.0721 166.036 31.2219C166.036 31.3717 166.158 31.4931 166.307 31.4931Z" fill="#2BBECB"/>
<ellipse cx="146.695" cy="29" rx="23.9861" ry="24" fill="#FFA3A6"/>
<ellipse cx="146.799" cy="29.1039" rx="20.3519" ry="20.3636" fill="#FF4D53"/>
<rect x="143.453" y="15.7026" width="6.6455" height="19.3939" rx="3.32275" fill="#FFE4E5"/>
<rect x="143.475" y="37.0503" width="6.6455" height="6.64935" rx="3.32275" fill="#FFE4E5"/>
<path d="M33.4795 63.1139C33.4795 63.1139 35.2812 62.1579 34.879 57.2485L38.6019 56.5576C38.6019 56.5576 38.1824 60.9595 40.0669 62.357L33.4795 63.1139Z" fill="#E98862"/>
<g opacity="0.15">
<path d="M39.3042 61.4378L36.2119 59.0691L38.6412 59.0439C38.7112 59.8763 38.936 60.6882 39.3042 61.4378Z" fill="black"/>
</g>
<path d="M32.7664 55.3447C33.2404 58.8475 36.6176 59.5971 39.6605 59.3357C41.2802 59.2028 42.4421 57.6836 42.4421 55.7318C42.4421 52.9276 42.1608 49.0133 40.9948 47.9279C39.0607 46.127 33.3811 47.2676 32.6904 50.28C32.3332 51.838 32.521 53.9269 32.7664 55.3447Z" fill="#E98862"/>
<path d="M43.8454 47.0673C43.8478 45.8316 42.304 43.8196 38.2228 46.6031C35.9846 46.6441 34.6864 46.7633 33.0396 47.9925C29.4205 50.4654 32.5656 58.2229 34.7428 58.771C34.9655 58.9037 35.0194 58.7957 35.097 58.5479C35.3396 57.632 35.5132 56.6991 35.6164 55.7572C35.7494 54.7779 36.5 54.2612 36.5 52.9826C36.5 52.5711 36.1039 51.0543 37.8674 51.0543C42.3359 51.0534 44.3441 50.6622 43.8454 47.0673Z" fill="#0F1011"/>
<path d="M36.8406 54.6862C37.0193 56.5359 34.1119 56.7744 33.9872 54.9194C33.7723 53.0098 36.8844 52.8743 36.8406 54.6862Z" fill="#E98862"/>
<path d="M36.2112 50.1431L35.1572 50.5292C35.4788 51.4133 34.9114 59.5828 37.8813 59.6966C41.8674 60.1904 42.5824 58.9859 42.4332 55.8378C36.3277 56.5305 36.7842 55.6557 36.2112 50.1431Z" fill="#0F1011"/>
<path d="M38.9334 53.8319C38.9379 53.9197 38.9081 54.0057 38.8503 54.0719C38.7925 54.138 38.7112 54.179 38.6236 54.1862C38.536 54.1934 38.4491 54.1662 38.3813 54.1104C38.3134 54.0545 38.27 53.9745 38.2602 53.8872C38.2556 53.7994 38.2854 53.7134 38.3433 53.6472C38.4011 53.5811 38.4824 53.5401 38.57 53.5329C38.6575 53.5257 38.7445 53.5529 38.8123 53.6087C38.8801 53.6645 38.9236 53.7446 38.9334 53.8319Z" fill="#0F1011"/>
<path d="M41.597 53.6135C41.603 53.7021 41.5739 53.7895 41.516 53.8568C41.4581 53.9241 41.376 53.9659 41.2875 53.9731C41.1991 53.9804 41.1113 53.9525 41.0432 53.8956C40.9751 53.8386 40.9321 53.7572 40.9236 53.6688C40.9176 53.5802 40.9467 53.4929 41.0046 53.4256C41.0625 53.3583 41.1446 53.3165 41.2331 53.3092C41.3215 53.302 41.4093 53.3298 41.4774 53.3868C41.5455 53.4437 41.5885 53.5252 41.597 53.6135Z" fill="#0F1011"/>
<path d="M41.8466 52.9209C41.8877 52.9196 41.9266 52.9024 41.9553 52.873C41.9839 52.8436 42.0001 52.8042 42.0003 52.7631C42.0006 52.7221 41.9849 52.6825 41.9566 52.6527C41.9283 52.623 41.8895 52.6054 41.8485 52.6036C41.7037 52.6542 40.776 52.449 40.7928 52.7491C40.7615 53.0505 41.7053 52.8666 41.8466 52.9209Z" fill="#0F1011"/>
<path d="M37.868 53.2473C37.9186 53.2494 38.7405 53.0375 38.7878 53.0307C38.8273 53.0195 38.8609 52.9934 38.8816 52.958C38.9023 52.9225 38.9085 52.8805 38.8989 52.8405C38.8893 52.8006 38.8646 52.766 38.83 52.7439C38.7955 52.7217 38.7537 52.7138 38.7134 52.7218C38.5712 52.7852 37.2258 52.9347 37.868 53.2473Z" fill="#0F1011"/>
<g opacity="0.15">
<path d="M40.0956 55.7334C39.616 55.5172 40.6552 55.3531 40.7484 55.2943L40.2667 54.2239C40.3553 53.4969 40.9559 55.2862 41.0142 55.3198C41.1236 55.5559 40.2 55.6618 40.0956 55.7334Z" fill="black"/>
</g>
<path d="M58.3234 156.617L53.4639 156.039C53.6827 154.199 53.9299 151.988 53.9467 151.626C53.9467 151.649 53.9467 151.668 53.9467 151.683H58.8402C58.8391 151.83 58.8391 152.277 58.3234 156.617Z" fill="#E98862"/>
<path d="M64.2859 159.097C64.4176 159.096 64.5476 159.068 64.668 159.015C64.7884 158.962 64.8965 158.885 64.9857 158.788C65.0748 158.691 65.1431 158.577 65.1861 158.452C65.2292 158.328 65.2462 158.196 65.236 158.064C65.2217 157.883 65.1559 157.708 65.0461 157.563C64.9363 157.417 64.7872 157.306 64.6164 157.242L58.9205 155.332C58.8102 155.295 58.6933 155.283 58.5778 155.296C58.4622 155.309 58.3509 155.346 58.2513 155.406C57.4682 155.95 56.5315 156.228 55.5789 156.199C54.837 156.146 54.1249 155.886 53.5237 155.448C53.4708 155.405 53.4067 155.377 53.3389 155.369C53.271 155.361 53.2022 155.372 53.1405 155.401C53.0787 155.43 53.0266 155.477 52.9901 155.534C52.9537 155.592 52.9344 155.659 52.9346 155.728V158.514C52.9346 158.597 52.9508 158.678 52.9823 158.754C53.0138 158.83 53.06 158.899 53.1183 158.957C53.1765 159.015 53.2456 159.061 53.3216 159.092C53.3976 159.123 53.479 159.139 53.5612 159.139L64.2859 159.097Z" fill="#C1D8ED"/>
<path d="M36.4941 157.203L31.6006 157.187C31.6006 157.187 31.6169 152.131 31.6169 151.685H36.5104C36.5104 152.132 36.4941 157.203 36.4941 157.203Z" fill="#E98862"/>
<path d="M51.6227 155.99L60.0137 154.008C54.5807 132.667 50.0218 110.884 45.6062 89.3129L45.544 89.3313L45.3617 88.0885L27.6341 86.9927C27.6341 86.9927 26.9439 95.6795 26.9443 98.5821C26.946 112.806 29.2068 136.454 30.33 155.377L38.9407 154.936C38.4341 136.586 37.0656 118.21 37.1639 99.8552C42.3201 118.424 47.4622 137.192 51.6227 155.99Z" fill="#262626"/>
<path d="M42.4432 159.097C42.5748 159.096 42.7048 159.069 42.8252 159.015C42.9456 158.962 43.0538 158.885 43.1429 158.788C43.2321 158.691 43.3003 158.577 43.3433 158.452C43.3863 158.328 43.4032 158.196 43.393 158.065C43.3788 157.883 43.313 157.708 43.2032 157.563C43.0934 157.417 42.9443 157.305 42.7734 157.242L37.0778 155.332C36.9674 155.295 36.8505 155.283 36.735 155.296C36.6195 155.309 36.5081 155.346 36.4085 155.406C35.6254 155.95 34.6888 156.228 33.7362 156.199C32.9942 156.146 32.2819 155.886 31.6807 155.448C31.6278 155.405 31.5638 155.377 31.4959 155.369C31.4281 155.36 31.3593 155.372 31.2975 155.401C31.2358 155.43 31.1836 155.477 31.1472 155.534C31.1108 155.592 31.0916 155.659 31.0918 155.728V158.515C31.0918 158.597 31.108 158.678 31.1395 158.754C31.1711 158.83 31.2173 158.899 31.2755 158.957C31.3337 159.015 31.4028 159.061 31.4788 159.092C31.5548 159.123 31.6362 159.139 31.7184 159.139L42.4432 159.097Z" fill="#C1D8ED"/>
<path d="M58.0293 65.514C58.0293 65.514 58.4021 62.7394 60.3703 63.1246C61.6121 63.3682 67.5987 63.8157 67.6213 64.3694C67.6775 65.7392 62.1918 65.4042 61.5461 66.5949L58.0293 65.514Z" fill="#E98862"/>
<path d="M59.6562 63.1279C59.6562 63.1279 62.5299 62.5627 63.1896 62.8068C63.7736 63.0232 62.4011 63.8502 62.4011 63.8502L59.6562 63.1279Z" fill="#E98862"/>
<path d="M15.8839 65.514C15.8839 65.514 15.5111 62.7394 13.543 63.1246C12.3012 63.3682 6.31475 63.8164 6.29144 64.3694C6.23528 65.7392 11.7209 65.4042 12.3667 66.5949L15.8839 65.514Z" fill="#E98862"/>
<path d="M14.2571 63.1279C14.2571 63.1279 11.3835 62.5627 10.7238 62.8068C10.1398 63.0232 11.5123 63.8502 11.5123 63.8502L14.2571 63.1279Z" fill="#E98862"/>
<path d="M40.9279 61.938C40.8673 63.2204 40.1706 65.1064 38.0197 65.2489C35.1535 65.4378 32.9305 63.2157 32.7627 61.9077H32.7697C35.5916 61.9077 39.2827 61.9124 40.9279 61.938Z" fill="#E98862"/>
<path d="M40.8181 57.0005C40.8181 57.0005 40.0199 55.7041 38.8975 57.0005C39.2135 56.9317 39.5347 56.8889 39.8578 56.8725C40.1814 56.8822 40.5032 56.9251 40.8181 57.0005Z" fill="white"/>
<path d="M46.8449 88.9071C45.8688 91.1524 27.1962 92.0851 26.9399 88.1354C26.7768 85.6219 28.8288 83.2742 28.8288 78.3755C28.8288 73.4768 25.1552 68.5569 28.8253 64.8846C29.8902 63.8191 30.5474 61.9491 32.7891 61.9468C32.9568 63.2548 40.8937 63.2595 40.9543 61.9771C41.2572 61.9817 41.4926 61.9864 41.6394 61.9934C49.3712 62.3268 45.3881 71.1515 45.3135 77.6194C45.2226 85.1877 47.8518 86.5942 46.8449 88.9071Z" fill="white"/>
<path d="M40.9572 61.9971C40.8966 63.2795 40.1999 65.1658 38.049 65.308C35.1828 65.4968 32.9598 63.2748 32.792 61.9668H32.799C35.6209 61.9673 39.3113 61.9719 40.9572 61.9971Z" fill="#E98862"/>
<path d="M58.0206 63.881L51.2488 74.0677L46.1922 64.3482C45.5847 62.9478 44.3893 62.0385 42.2051 61.9429C42.0781 61.9373 40.1718 61.8525 40.0944 61.9299C39.626 62.3985 39.9637 70.6995 40.1967 75.2881C40.4514 80.2544 40.1897 86.4565 40.4262 90.0222C40.4415 90.2562 40.5052 90.4844 40.6133 90.6925C40.7213 90.9006 40.8713 91.084 41.0538 91.2311C41.2363 91.3782 41.4474 91.4858 41.6736 91.5471C41.8998 91.6084 42.1363 91.622 42.368 91.5872C44.8805 91.2032 46.8395 90.5482 47.1252 89.8914C48.1319 87.5784 45.8089 85.1671 45.8998 77.5987C45.9091 76.8006 45.9678 75.9666 46.0503 75.1149L48.7669 80.2162C48.9736 80.6044 49.2775 80.9323 49.6488 81.1678C50.0202 81.4033 50.4462 81.5383 50.8853 81.5596C50.9268 81.5617 50.9681 81.5629 51.0091 81.5629C51.4277 81.5629 51.8399 81.4593 52.2089 81.2614C52.5778 81.0635 52.8922 80.7774 53.124 80.4286L62.2521 66.6968L58.0206 63.881Z" fill="#1E858E"/>
<path d="M33.8697 63.623C33.5201 61.7748 33.7065 61.9058 32.8299 61.9051C32.6876 61.9051 32.5469 61.9081 32.4077 61.9142C30.3274 61.9842 28.4793 62.5265 27.6176 63.6629C25.8098 66.0465 21.29 74.2995 21.29 74.2995L15.4669 63.623L11.0068 66.0584L18.9917 80.6967C19.2075 81.0924 19.5247 81.4236 19.9106 81.6563C20.2966 81.8889 20.7374 82.0146 21.188 82.0206H21.2217C21.6666 82.0206 22.1036 81.9037 22.4891 81.6817C22.8746 81.4596 23.1951 81.1401 23.4185 80.7552L27.5328 73.6671L27.5416 73.6473C28.0359 75.3272 28.4779 76.9948 28.4779 78.5285C28.4779 83.4272 26.2642 85.6213 26.4273 88.1347C26.528 89.7046 27.3298 91.6907 33.3773 92.1162C33.8669 92.1506 34.3511 91.9957 34.7298 91.6833C35.1085 91.3709 35.3529 90.9249 35.4125 90.4374C36.5716 80.7955 34.4622 67.954 33.8697 63.623Z" fill="#1E858E"/>
<path d="M31.8641 67.4248L32.442 65.5292L31.3281 64.7994L32.2281 61.9206C33.0569 61.8772 33.684 61.8802 33.9243 61.8895C34.474 63.7292 35.0761 71.8618 35.2903 74.9465L31.8641 67.4248Z" fill="#1E858E"/>
<path d="M41.5118 65.5294L42.6071 67.1918L40.1726 74.8358C40.1726 74.8358 39.3936 64.4898 40.0531 61.9187C40.0531 61.9187 40.3668 61.884 40.7484 61.8786C41.0709 61.8767 41.3933 61.891 41.7143 61.9215L42.6257 64.8003L41.5118 65.5294Z" fill="#1E858E"/>
<g opacity="0.24">
<path d="M31.8641 67.4248L32.442 65.5292L31.3281 64.7994L32.2281 61.9206C33.0569 61.8772 33.684 61.8802 33.9243 61.8895C34.474 63.7292 35.0761 71.8618 35.2903 74.9465L31.8641 67.4248Z" fill="white"/>
</g>
<g opacity="0.24">
<path d="M41.5118 65.5294L42.6071 67.1918L40.1726 74.8358C40.1726 74.8358 39.3936 64.4898 40.0531 61.9187C40.0531 61.9187 40.3668 61.884 40.7484 61.8786C41.0709 61.8767 41.3933 61.891 41.7143 61.9215L42.6257 64.8003L41.5118 65.5294Z" fill="white"/>
</g>
</g>
<defs>
<clipPath id="clip0_12853_222885">
<rect width="210" height="159" fill="white"/>
</clipPath>
</defs>
</svg>
