<svg width="104" height="16" viewBox="0 0 104 16" fill="none" xmlns="http://www.w3.org/2000/svg">
<path d="M67.7032 9.09504C67.6848 7.97136 67.2832 7.03728 66.5216 6.27632C65.7969 5.60704 64.8449 5.2648 63.6252 5.2648C62.3475 5.2648 61.2793 5.75952 60.4416 6.73152C59.8318 7.47568 59.5078 8.41024 59.5078 9.59056C59.5078 10.6587 59.8512 11.6275 60.5569 12.313C61.5032 13.1862 62.371 13.403 63.7809 13.423C64.6593 13.423 65.8459 13.2035 66.6646 12.7274C66.5899 12.2891 66.383 11.8654 66.1921 11.6178C65.4881 11.9416 64.5712 12.1656 63.884 12.1656C62.3587 12.1656 61.4593 11.7067 61.0705 10.3534C63.088 10.3875 65.6148 10.213 67.6086 9.70608C67.6665 9.69072 67.7032 9.4776 67.7032 9.09504ZM61.1363 9.2544C61.1363 8.87952 61.3006 7.88304 61.4379 7.54688C61.576 7.21296 61.8432 6.82048 62.1598 6.78944C63.1451 6.68928 63.2617 8.5208 63.322 9.15136C62.4697 9.2248 61.7934 9.28256 61.1363 9.2544ZM64.3422 9.06512C64.3248 8.69104 64.2782 7.66128 64.3697 7.19728C64.4409 6.84032 64.6284 6.64048 64.9416 6.59328C65.9216 6.44848 66.3313 8.10864 66.4206 8.73696C65.7828 8.91072 65.0284 9.0448 64.3422 9.06512Z" fill="#444444"/>
<path d="M62.6052 4.77264C62.3954 4.82864 62.1849 4.89712 61.9754 4.98656C61.1151 5.35808 60.4823 5.85568 60.0525 6.47376C60.0128 6.4344 59.9601 6.37776 59.8892 6.30528L58.1729 4.52688C58.1729 4.52688 59.3741 5.11504 59.8056 4.81312C60.2237 4.52128 60.0138 3.39264 60.0138 3.39264C60.0138 3.39264 60.9257 4.07728 61.3554 3.84896C61.7708 3.62512 61.8548 2.26048 61.8548 2.26048C61.8548 2.26048 62.4101 4.10368 62.5698 4.65648L62.6052 4.77264Z" fill="#EB008B"/>
<path d="M68.8672 2.69983H72.6128C73.299 2.69983 73.9905 2.78943 74.6869 2.96847C75.3832 3.14751 76.0101 3.44367 76.5672 3.85631C77.124 4.26927 77.5769 4.81135 77.9249 5.48287C78.2731 6.15439 78.4472 6.98767 78.4472 7.98239C78.4472 8.90751 78.2731 9.70351 77.9249 10.3699C77.5768 11.0365 77.124 11.5837 76.5672 12.0114C76.0101 12.4392 75.3832 12.755 74.6869 12.9589C73.9905 13.1629 73.299 13.2648 72.6128 13.2648H68.8672V2.69983ZM72.3144 11.6234C72.8016 11.6234 73.2891 11.5662 73.7766 11.4518C74.2641 11.3374 74.7041 11.1435 75.0973 10.8698C75.4904 10.5963 75.811 10.2258 76.0598 9.75807C76.3086 9.29055 76.4329 8.69871 76.4329 7.98239C76.4329 7.22639 76.3086 6.60943 76.0598 6.13199C75.811 5.65455 75.4904 5.28143 75.0973 5.01279C74.7041 4.74415 74.2641 4.56015 73.7766 4.46063C73.2891 4.36127 72.8016 4.31135 72.3144 4.31135H70.7475V11.6232H72.3144V11.6234Z" fill="#444444"/>
<path d="M78.8652 7.95248C78.8652 7.10703 79.0072 6.34336 79.2905 5.66192C79.5739 4.98063 79.9672 4.40111 80.4696 3.92351C80.9718 3.44607 81.5686 3.07807 82.2601 2.81935C82.9513 2.56079 83.7048 2.43135 84.5207 2.43135C85.3463 2.43135 86.1073 2.56079 86.804 2.81935C87.5003 3.07823 88.102 3.44607 88.6096 3.92351C89.1168 4.40111 89.5124 4.98063 89.7958 5.66192C90.0791 6.34352 90.2211 7.10703 90.2211 7.95248C90.2211 8.7784 90.0791 9.532 89.7958 10.2131C89.5124 10.8947 89.1168 11.4816 88.6096 11.9739C88.102 12.4664 87.5001 12.8494 86.804 13.123C86.1073 13.3965 85.3465 13.5333 84.5207 13.5333C83.7048 13.5333 82.9513 13.3965 82.2601 13.123C81.5686 12.8494 80.9716 12.4664 80.4696 11.9739C79.967 11.4816 79.5739 10.8947 79.2905 10.2131C79.0072 9.53184 78.8652 8.77823 78.8652 7.95248ZM80.9097 7.95248C80.9097 8.51935 80.9966 9.03936 81.171 9.51184C81.3448 9.98448 81.5939 10.3949 81.9169 10.7429C82.2401 11.0914 82.6232 11.3621 83.066 11.5562C83.5086 11.7502 83.9988 11.847 84.5361 11.847C85.0734 11.847 85.5659 11.7502 86.0132 11.5562C86.4611 11.3621 86.8463 11.0914 87.1699 10.7429C87.4931 10.3947 87.7417 9.98448 87.9158 9.51184C88.0899 9.03952 88.1771 8.51952 88.1771 7.95248C88.1771 7.40544 88.0899 6.89807 87.9158 6.43039C87.7417 5.96287 87.4955 5.55519 87.1774 5.20687C86.8587 4.85871 86.4758 4.58527 86.0283 4.38623C85.5804 4.18735 85.083 4.08767 84.5361 4.08767C83.9889 4.08767 83.4939 4.18735 83.0512 4.38623C82.6086 4.58527 82.228 4.85887 81.9099 5.20687C81.5912 5.55519 81.3449 5.96303 81.1712 6.43039C80.9966 6.89807 80.9097 7.40544 80.9097 7.95248Z" fill="#444444"/>
<path d="M92.8318 4.34127H89.5938V2.69983H97.9504V4.34127H94.7123V13.2646H92.832V4.34127H92.8318Z" fill="#444444"/>
<path d="M6.87207 5.45071H9.12103C9.53047 5.45071 9.86759 5.50655 10.1327 5.61775C10.3975 5.72927 10.6068 5.87071 10.7604 6.04223C10.9138 6.21375 11.0207 6.40655 11.081 6.62031C11.141 6.83407 11.1713 7.04031 11.1713 7.23903C11.1713 7.43775 11.141 7.64399 11.081 7.85775C11.0207 8.07151 10.914 8.26431 10.7604 8.43583C10.6068 8.60735 10.3975 8.74895 10.1327 8.86015C9.86759 8.97167 9.53047 9.02735 9.12103 9.02735H7.73911V11.8453H6.87207V5.45071ZM7.73911 8.26879H8.87719C9.04567 8.26879 9.21287 8.25535 9.37847 8.22815C9.54407 8.20095 9.69159 8.15135 9.82103 8.07919C9.95047 8.00687 10.0543 7.90303 10.1327 7.76751C10.211 7.63199 10.2502 7.45583 10.2502 7.23919C10.2502 7.02239 10.211 6.84623 10.1327 6.71087C10.0543 6.57535 9.95047 6.47151 9.82103 6.39919C9.69143 6.32687 9.54407 6.27727 9.37847 6.25023C9.21287 6.22319 9.04567 6.20959 8.87719 6.20959H7.73911V8.26879Z" fill="#444444"/>
<path d="M11.8125 9.7048C11.8125 9.39184 11.8712 9.09968 11.9887 8.82864C12.1061 8.5576 12.2671 8.31984 12.4719 8.1152C12.6765 7.91056 12.9175 7.74944 13.1944 7.632C13.4712 7.51456 13.7693 7.45584 14.0885 7.45584C14.4075 7.45584 14.7056 7.51456 14.9827 7.632C15.2595 7.74944 15.5005 7.91056 15.7053 8.1152C15.9099 8.32 16.0712 8.55776 16.1887 8.82864C16.3059 9.09952 16.3648 9.39184 16.3648 9.7048C16.3648 10.0179 16.3061 10.3115 16.1887 10.5854C16.0712 10.8595 15.9101 11.0973 15.7053 11.299C15.5005 11.5008 15.2597 11.6603 14.9827 11.7776C14.7058 11.895 14.4075 11.9539 14.0885 11.9539C13.7693 11.9539 13.4712 11.8952 13.1944 11.7776C12.9175 11.6603 12.6765 11.5008 12.4719 11.299C12.2671 11.0973 12.1061 10.8595 11.9887 10.5854C11.8712 10.3115 11.8125 10.0179 11.8125 9.7048ZM12.6797 9.7048C12.6797 9.9216 12.7128 10.1218 12.7791 10.3054C12.8453 10.4891 12.9386 10.6458 13.0591 10.7752C13.1794 10.9048 13.3269 11.007 13.5016 11.0822C13.6762 11.1578 13.8719 11.1952 14.0887 11.1952C14.3055 11.1952 14.5011 11.1578 14.6757 11.0822C14.8503 11.007 14.9978 10.9048 15.1183 10.7752C15.2386 10.6458 15.3319 10.4893 15.3983 10.3054C15.4645 10.1219 15.4976 9.92176 15.4976 9.7048C15.4976 9.48816 15.4645 9.288 15.3983 9.10416C15.3319 8.92064 15.2386 8.76416 15.1183 8.63456C14.9978 8.50496 14.8503 8.40272 14.6757 8.32736C14.501 8.252 14.3055 8.21456 14.0887 8.21456C13.872 8.21456 13.6762 8.252 13.5016 8.32736C13.3269 8.40272 13.1794 8.50496 13.0591 8.63456C12.9386 8.76416 12.8453 8.92048 12.7791 9.10416C12.7127 9.288 12.6797 9.48816 12.6797 9.7048Z" fill="#444444"/>
<path d="M16.8701 7.56432H17.7823L18.7439 10.7616H18.7621L19.7874 7.56432H20.6544L21.7383 10.7616H21.7564L22.6685 7.56432H23.5356L22.1536 11.8454H21.3317L20.198 8.64816H20.1797L19.1461 11.8454H18.2791L16.8701 7.56432Z" fill="#444444"/>
<path d="M24.8543 10.003C24.8543 10.1898 24.895 10.3597 24.9763 10.5133C25.0575 10.6667 25.1644 10.7978 25.2969 10.9061C25.4292 11.0146 25.5828 11.0989 25.7575 11.159C25.9321 11.2192 26.1127 11.2493 26.2995 11.2493C26.5524 11.2493 26.7721 11.1906 26.9588 11.0731C27.1454 10.9557 27.3171 10.8006 27.4737 10.608L28.0878 11.0778C27.6363 11.6618 27.0039 11.9539 26.1911 11.9539C25.8539 11.9539 25.5483 11.8966 25.2745 11.7822C25.0004 11.668 24.7687 11.5099 24.579 11.3082C24.3892 11.1064 24.2431 10.8686 24.1409 10.5946C24.0383 10.3206 23.9873 10.0242 23.9873 9.7048C23.9873 9.38576 24.043 9.08913 24.1543 8.81504C24.2657 8.54112 24.4193 8.30336 24.615 8.1016C24.8107 7.89984 25.0441 7.74176 25.315 7.62736C25.5859 7.51312 25.8809 7.45568 26.2001 7.45568C26.5795 7.45568 26.9001 7.52208 27.162 7.6544C27.4239 7.78688 27.6391 7.96016 27.8078 8.17376C27.9763 8.38768 28.0982 8.62864 28.1737 8.89648C28.2489 9.16448 28.2867 9.43696 28.2867 9.71376V10.0029H24.8543V10.003ZM27.4195 9.35264C27.4134 9.172 27.3847 9.0064 27.3337 8.856C27.2825 8.7056 27.2057 8.5744 27.1035 8.46304C27.0009 8.35168 26.8732 8.26448 26.7196 8.20096C26.5662 8.13776 26.3868 8.10624 26.1823 8.10624C25.9836 8.10624 25.8014 8.144 25.6358 8.2192C25.4702 8.29456 25.3302 8.39232 25.2158 8.5128C25.1014 8.63329 25.0126 8.7672 24.9494 8.91472C24.8862 9.0624 24.8545 9.20833 24.8545 9.35281H27.4195V9.35264Z" fill="#444444"/>
<path d="M29.2619 7.56432H30.0748V8.22368H30.0929C30.147 8.10944 30.2193 8.0056 30.3096 7.91216C30.3998 7.81888 30.5006 7.73904 30.6121 7.6728C30.7235 7.60656 30.8454 7.55392 30.9779 7.51472C31.1104 7.47568 31.2428 7.456 31.3753 7.456C31.5078 7.456 31.6283 7.47408 31.7366 7.51024L31.7004 8.3864C31.634 8.36832 31.568 8.35328 31.5017 8.34112C31.4353 8.32928 31.3692 8.3232 31.303 8.3232C30.9057 8.3232 30.6016 8.43456 30.3908 8.65744C30.18 8.88032 30.0747 9.22656 30.0747 9.696V11.8458H29.2617V7.56432H29.2619Z" fill="#444444"/>
<path d="M33.0555 10.003C33.0555 10.1898 33.0962 10.3597 33.1774 10.5133C33.2587 10.6667 33.3656 10.7978 33.4981 10.9061C33.6304 11.0146 33.784 11.0989 33.9587 11.159C34.1333 11.2192 34.3139 11.2493 34.5006 11.2493C34.7536 11.2493 34.9733 11.1906 35.16 11.0731C35.3466 10.9557 35.5182 10.8006 35.6749 10.608L36.2889 11.0778C35.8374 11.6618 35.2051 11.9539 34.3923 11.9539C34.055 11.9539 33.7494 11.8966 33.4757 11.7822C33.2016 11.668 32.9699 11.5099 32.7802 11.3082C32.5904 11.1064 32.4443 10.8686 32.3421 10.5946C32.2395 10.3206 32.1885 10.0242 32.1885 9.7048C32.1885 9.38576 32.2442 9.08913 32.3555 8.81504C32.4669 8.54112 32.6205 8.30336 32.8162 8.1016C33.0118 7.89984 33.2453 7.74176 33.5162 7.62736C33.787 7.51312 34.0821 7.45568 34.4013 7.45568C34.7806 7.45568 35.1013 7.52208 35.3632 7.6544C35.6251 7.78688 35.8403 7.96016 36.0089 8.17376C36.1774 8.38768 36.2994 8.62864 36.3749 8.89648C36.4501 9.16448 36.4878 9.43696 36.4878 9.71376V10.0029H33.0555V10.003ZM35.6205 9.35264C35.6144 9.172 35.5858 9.0064 35.5347 8.856C35.4835 8.7056 35.4067 8.5744 35.3045 8.46304C35.2019 8.35168 35.0742 8.26448 34.9206 8.20096C34.7672 8.13776 34.5878 8.10624 34.3834 8.10624C34.1846 8.10624 34.0024 8.144 33.8368 8.2192C33.6712 8.29456 33.5312 8.39232 33.4168 8.5128C33.3024 8.63329 33.2136 8.7672 33.1504 8.91472C33.0872 9.0624 33.0555 9.20833 33.0555 9.35281H35.6205V9.35264Z" fill="#444444"/>
<path d="M41.7539 11.8454H40.941V11.2312H40.9229C40.7663 11.4602 40.5511 11.6376 40.2771 11.7642C40.0031 11.8906 39.7216 11.9539 39.4327 11.9539C39.1015 11.9539 38.8019 11.8966 38.5339 11.7822C38.2659 11.668 38.0373 11.5083 37.8475 11.3037C37.6578 11.099 37.5117 10.861 37.4095 10.5901C37.3069 10.3192 37.2559 10.0242 37.2559 9.70496C37.2559 9.38592 37.3069 9.08928 37.4095 8.8152C37.5117 8.54128 37.6578 8.30352 37.8475 8.10176C38.0373 7.9 38.2659 7.74192 38.5339 7.62752C38.8018 7.51328 39.1015 7.45584 39.4327 7.45584C39.7397 7.45584 40.0288 7.52064 40.2997 7.65008C40.5706 7.77968 40.7784 7.95584 40.9229 8.1784H40.941V5.01728H41.7539V11.8454ZM39.532 11.1952C39.7488 11.1952 39.9445 11.1578 40.1191 11.0822C40.2936 11.007 40.4411 10.9048 40.5616 10.7752C40.6819 10.6458 40.7752 10.4893 40.8416 10.3054C40.9079 10.1219 40.941 9.92176 40.941 9.7048C40.941 9.48816 40.9079 9.288 40.8416 9.10416C40.7752 8.92064 40.6819 8.76416 40.5616 8.63456C40.4411 8.50496 40.2936 8.40272 40.1191 8.32736C39.9443 8.252 39.7488 8.21456 39.532 8.21456C39.3154 8.21456 39.1195 8.252 38.945 8.32736C38.7703 8.40272 38.6227 8.50496 38.5024 8.63456C38.3819 8.76416 38.2887 8.92048 38.2224 9.10416C38.156 9.28784 38.1231 9.488 38.1231 9.7048C38.1231 9.9216 38.1562 10.1218 38.2224 10.3054C38.2887 10.4891 38.3819 10.6458 38.5024 10.7752C38.6227 10.9048 38.7703 11.007 38.945 11.0822C39.1195 11.1576 39.3154 11.1952 39.532 11.1952Z" fill="#444444"/>
<path d="M45.4932 5.01728H46.3061V8.1784H46.3242C46.4687 7.95568 46.6764 7.77952 46.9474 7.65008C47.2183 7.52064 47.5074 7.45584 47.8144 7.45584C48.1455 7.45584 48.4452 7.51312 48.7132 7.62752C48.981 7.74192 49.21 7.9 49.3997 8.10176C49.5895 8.30352 49.7352 8.54128 49.8378 8.8152C49.9402 9.08928 49.9912 9.38576 49.9912 9.70496C49.9912 10.0242 49.94 10.3192 49.8378 10.5901C49.7352 10.861 49.5895 11.099 49.3997 11.3037C49.21 11.5083 48.9812 11.668 48.7132 11.7822C48.4452 11.8966 48.1456 11.9539 47.8144 11.9539C47.5255 11.9539 47.2439 11.8906 46.97 11.7642C46.6959 11.6376 46.4807 11.4602 46.3242 11.2312H46.3061V11.8454H45.4932V5.01728ZM47.7151 11.1952C47.9317 11.1952 48.1274 11.1578 48.3021 11.0822C48.4767 11.007 48.6242 10.9048 48.7447 10.7752C48.865 10.6458 48.9583 10.4893 49.0247 10.3054C49.0909 10.1219 49.124 9.92176 49.124 9.7048C49.124 9.48816 49.0908 9.288 49.0247 9.10416C48.9583 8.92064 48.865 8.76416 48.7447 8.63456C48.6242 8.50496 48.4767 8.40272 48.3021 8.32736C48.1274 8.252 47.9319 8.21456 47.7151 8.21456C47.4983 8.21456 47.3024 8.252 47.128 8.32736C46.9533 8.40272 46.8058 8.50496 46.6855 8.63456C46.565 8.76416 46.4717 8.92048 46.4055 9.10416C46.3391 9.28784 46.3061 9.488 46.3061 9.7048C46.3061 9.9216 46.3392 10.1218 46.4055 10.3054C46.4717 10.4891 46.565 10.6458 46.6855 10.7752C46.8058 10.9048 46.9533 11.007 47.128 11.0822C47.3026 11.1576 47.4983 11.1952 47.7151 11.1952Z" fill="#444444"/>
<path d="M50.5059 7.56432H51.4452L52.7129 10.9061H52.731L53.947 7.56432H54.8142L52.782 12.7667C52.71 12.9533 52.6348 13.1234 52.5571 13.277C52.4793 13.4306 52.3862 13.5614 52.2783 13.6699C52.1703 13.7782 52.0399 13.8624 51.887 13.9227C51.734 13.9829 51.5468 14.013 51.3249 14.013C51.2049 14.013 51.0835 14.0053 50.9606 13.9904C50.8375 13.9752 50.7193 13.9437 50.6054 13.8955L50.7043 13.1549C50.8657 13.221 51.0273 13.2542 51.1889 13.2542C51.3145 13.2542 51.4206 13.2376 51.5075 13.2045C51.5942 13.1712 51.6689 13.123 51.7318 13.06C51.7947 12.9966 51.847 12.923 51.8889 12.8387C51.9307 12.7542 51.9726 12.6579 52.0145 12.5496L52.2777 11.8722L50.5059 7.56432Z" fill="#444444"/>
</svg>
