<svg width="104" height="16" viewBox="0 0 104 16" fill="none" xmlns="http://www.w3.org/2000/svg">
<path d="M67.7032 9.09587C67.6848 7.97219 67.2832 7.03811 66.5216 6.27715C65.7969 5.60787 64.8449 5.26562 63.6252 5.26562C62.3475 5.26562 61.2793 5.76034 60.4416 6.73234C59.8318 7.47651 59.5078 8.41107 59.5078 9.59139C59.5078 10.6595 59.8512 11.6283 60.5569 12.3138C61.5032 13.1871 62.371 13.4039 63.7809 13.4239C64.6593 13.4239 65.8459 13.2043 66.6646 12.7282C66.5899 12.2899 66.383 11.8663 66.1921 11.6186C65.4881 11.9424 64.5712 12.1664 63.884 12.1664C62.3587 12.1664 61.4593 11.7075 61.0705 10.3543C63.088 10.3883 65.6148 10.2138 67.6086 9.7069C67.6665 9.69155 67.7032 9.47843 67.7032 9.09587ZM61.1363 9.25523C61.1363 8.88035 61.3006 7.88387 61.4379 7.5477C61.576 7.21379 61.8432 6.8213 62.1598 6.79026C63.1451 6.6901 63.2617 8.52163 63.322 9.15218C62.4697 9.22563 61.7934 9.28339 61.1363 9.25523ZM64.3422 9.06595C64.3248 8.69187 64.2782 7.66211 64.3697 7.19811C64.4409 6.84115 64.6284 6.64131 64.9416 6.59411C65.9216 6.44931 66.3313 8.10946 66.4206 8.73778C65.7828 8.91155 65.0284 9.04563 64.3422 9.06595Z" fill="white"/>
<path d="M62.6042 4.77388C62.3944 4.82988 62.1839 4.89836 61.9744 4.9878C61.1141 5.35932 60.4813 5.85692 60.0516 6.475C60.0119 6.43564 59.9591 6.379 59.8882 6.30652L58.1719 4.52812C58.1719 4.52812 59.3732 5.11628 59.8047 4.81436C60.2228 4.52252 60.0128 3.39388 60.0128 3.39388C60.0128 3.39388 60.9247 4.07852 61.3544 3.8502C61.7698 3.62636 61.8538 2.26172 61.8538 2.26172C61.8538 2.26172 62.4092 4.10492 62.5688 4.65772L62.6042 4.77388Z" fill="#EB008B"/>
<path d="M68.8672 2.69922H72.6128C73.299 2.69922 73.9905 2.78882 74.6869 2.96786C75.3832 3.1469 76.0101 3.44306 76.5672 3.8557C77.124 4.26866 77.5769 4.81074 77.9249 5.48226C78.2731 6.15378 78.4472 6.98706 78.4472 7.98178C78.4472 8.9069 78.2731 9.7029 77.9249 10.3693C77.5768 11.0359 77.124 11.5831 76.5672 12.0107C76.0101 12.4386 75.3832 12.7544 74.6869 12.9583C73.9905 13.1623 73.299 13.2642 72.6128 13.2642H68.8672V2.69922ZM72.3144 11.6227C72.8016 11.6227 73.2891 11.5656 73.7766 11.4512C74.2641 11.3368 74.7041 11.1429 75.0973 10.8691C75.4904 10.5957 75.811 10.2251 76.0598 9.75746C76.3086 9.28994 76.4329 8.6981 76.4329 7.98178C76.4329 7.22578 76.3086 6.60882 76.0598 6.13138C75.811 5.65394 75.4904 5.28082 75.0973 5.01218C74.7041 4.74354 74.2641 4.55954 73.7766 4.46002C73.2891 4.36066 72.8016 4.31074 72.3144 4.31074H70.7475V11.6226H72.3144V11.6227Z" fill="white"/>
<path d="M78.8672 7.95081C78.8672 7.10537 79.0091 6.34169 79.2925 5.66025C79.5758 4.97897 79.9691 4.39945 80.4715 3.92185C80.9737 3.44441 81.5705 3.07641 82.2621 2.81769C82.9533 2.55913 83.7067 2.42969 84.5227 2.42969C85.3483 2.42969 86.1093 2.55913 86.8059 2.81769C87.5022 3.07657 88.104 3.44441 88.6115 3.92185C89.1187 4.39945 89.5144 4.97897 89.7977 5.66025C90.0811 6.34185 90.223 7.10537 90.223 7.95081C90.223 8.77673 90.0811 9.53033 89.7977 10.2114C89.5144 10.893 89.1187 11.4799 88.6115 11.9722C88.104 12.4647 87.5021 12.8478 86.8059 13.1214C86.1093 13.3948 85.3485 13.5316 84.5227 13.5316C83.7067 13.5316 82.9533 13.3948 82.2621 13.1214C81.5705 12.8478 80.9736 12.4647 80.4715 11.9722C79.9689 11.4799 79.5758 10.893 79.2925 10.2114C79.0091 9.53017 78.8672 8.77657 78.8672 7.95081ZM80.9117 7.95081C80.9117 8.51769 80.9985 9.03769 81.1729 9.51017C81.3467 9.98281 81.5958 10.3932 81.9189 10.7412C82.2421 11.0897 82.6251 11.3604 83.068 11.5545C83.5105 11.7486 84.0008 11.8454 84.5381 11.8454C85.0753 11.8454 85.5678 11.7486 86.0152 11.5545C86.463 11.3604 86.8483 11.0897 87.1718 10.7412C87.495 10.393 87.7437 9.98281 87.9177 9.51017C88.0918 9.03785 88.179 8.51785 88.179 7.95081C88.179 7.40377 88.0918 6.89641 87.9177 6.42873C87.7437 5.96121 87.4974 5.55353 87.1793 5.20521C86.8606 4.85705 86.4777 4.58361 86.0302 4.38457C85.5824 4.18569 85.0849 4.08601 84.5381 4.08601C83.9909 4.08601 83.4958 4.18569 83.0531 4.38457C82.6105 4.58361 82.2299 4.85721 81.9118 5.20521C81.5931 5.55353 81.3469 5.96137 81.1731 6.42873C80.9985 6.89641 80.9117 7.40377 80.9117 7.95081Z" fill="white"/>
<path d="M92.8318 4.34066H89.5938V2.69922H97.9504V4.34066H94.7123V13.264H92.832V4.34066H92.8318Z" fill="white"/>
<path d="M6.875 5.44922H9.12396C9.5334 5.44922 9.87052 5.50506 10.1356 5.61626C10.4004 5.72778 10.6097 5.86922 10.7633 6.04074C10.9168 6.21226 11.0236 6.40506 11.084 6.61882C11.144 6.83258 11.1742 7.03882 11.1742 7.23754C11.1742 7.43626 11.144 7.6425 11.084 7.85626C11.0236 8.07002 10.9169 8.26282 10.7633 8.43434C10.6097 8.60586 10.4004 8.74746 10.1356 8.85866C9.87052 8.97018 9.5334 9.02586 9.12396 9.02586H7.74204V11.8438H6.875V5.44922ZM7.74204 8.2673H8.88012C9.0486 8.2673 9.2158 8.25386 9.3814 8.22666C9.547 8.19946 9.69452 8.14986 9.82396 8.0777C9.9534 8.00538 10.0572 7.90154 10.1356 7.76602C10.2139 7.6305 10.2531 7.45434 10.2531 7.2377C10.2531 7.0209 10.2139 6.84474 10.1356 6.70938C10.0572 6.57386 9.9534 6.47002 9.82396 6.3977C9.69436 6.32538 9.547 6.27578 9.3814 6.24874C9.2158 6.2217 9.0486 6.2081 8.88012 6.2081H7.74204V8.2673Z" fill="white"/>
<path d="M11.8125 9.70209C11.8125 9.38912 11.8712 9.09697 11.9887 8.82593C12.1061 8.55489 12.2671 8.31713 12.4719 8.11249C12.6765 7.90785 12.9175 7.74673 13.1944 7.62929C13.4712 7.51185 13.7693 7.45312 14.0885 7.45312C14.4075 7.45312 14.7056 7.51185 14.9827 7.62929C15.2595 7.74673 15.5005 7.90785 15.7053 8.11249C15.9099 8.31729 16.0712 8.55505 16.1887 8.82593C16.3059 9.09681 16.3648 9.38912 16.3648 9.70209C16.3648 10.0152 16.3061 10.3088 16.1887 10.5827C16.0712 10.8568 15.9101 11.0946 15.7053 11.2963C15.5005 11.4981 15.2597 11.6576 14.9827 11.7749C14.7058 11.8923 14.4075 11.9512 14.0885 11.9512C13.7693 11.9512 13.4712 11.8925 13.1944 11.7749C12.9175 11.6576 12.6765 11.4981 12.4719 11.2963C12.2671 11.0946 12.1061 10.8568 11.9887 10.5827C11.8712 10.3088 11.8125 10.0152 11.8125 9.70209ZM12.6797 9.70209C12.6797 9.91888 12.7128 10.119 12.7791 10.3027C12.8453 10.4864 12.9386 10.643 13.0591 10.7725C13.1794 10.9021 13.3269 11.0043 13.5016 11.0795C13.6762 11.155 13.8719 11.1925 14.0887 11.1925C14.3055 11.1925 14.5011 11.155 14.6757 11.0795C14.8503 11.0043 14.9978 10.9021 15.1183 10.7725C15.2386 10.643 15.3319 10.4866 15.3983 10.3027C15.4645 10.1192 15.4976 9.91904 15.4976 9.70209C15.4976 9.48545 15.4645 9.28529 15.3983 9.10145C15.3319 8.91793 15.2386 8.76145 15.1183 8.63185C14.9978 8.50225 14.8503 8.40001 14.6757 8.32465C14.501 8.24929 14.3055 8.21185 14.0887 8.21185C13.872 8.21185 13.6762 8.24929 13.5016 8.32465C13.3269 8.40001 13.1794 8.50225 13.0591 8.63185C12.9386 8.76145 12.8453 8.91777 12.7791 9.10145C12.7127 9.28529 12.6797 9.48545 12.6797 9.70209Z" fill="white"/>
<path d="M16.875 7.5625H17.7872L18.7488 10.7598H18.767L19.7923 7.5625H20.6593L21.7432 10.7598H21.7612L22.6734 7.5625H23.5404L22.1585 11.8436H21.3366L20.2028 8.64634H20.1846L19.151 11.8436H18.284L16.875 7.5625Z" fill="white"/>
<path d="M24.8592 10.0005C24.8592 10.1872 24.8999 10.3571 24.9811 10.5107C25.0624 10.6642 25.1693 10.7952 25.3018 10.9035C25.4341 11.012 25.5877 11.0963 25.7624 11.1565C25.937 11.2166 26.1176 11.2467 26.3043 11.2467C26.5573 11.2467 26.777 11.188 26.9637 11.0706C27.1503 10.9531 27.3219 10.7981 27.4786 10.6054L28.0927 11.0752C27.6411 11.6592 27.0088 11.9514 26.196 11.9514C25.8587 11.9514 25.5531 11.8941 25.2794 11.7797C25.0053 11.6654 24.7736 11.5074 24.5839 11.3056C24.3941 11.1038 24.248 10.8661 24.1458 10.592C24.0432 10.3181 23.9922 10.0216 23.9922 9.70224C23.9922 9.3832 24.0479 9.08657 24.1592 8.81249C24.2706 8.53857 24.4242 8.3008 24.6199 8.09904C24.8155 7.89728 25.049 7.73921 25.3199 7.62481C25.5907 7.51057 25.8858 7.45312 26.205 7.45312C26.5843 7.45312 26.905 7.51953 27.1669 7.65185C27.4288 7.78433 27.644 7.9576 27.8127 8.1712C27.9811 8.38512 28.1031 8.62609 28.1786 8.89393C28.2538 9.16193 28.2915 9.4344 28.2915 9.7112V10.0003H24.8592V10.0005ZM27.4243 9.35008C27.4183 9.16944 27.3896 9.00384 27.3386 8.85344C27.2874 8.70304 27.2106 8.57185 27.1083 8.46049C27.0058 8.34913 26.8781 8.26193 26.7245 8.19841C26.5711 8.13521 26.3917 8.10369 26.1872 8.10369C25.9885 8.10369 25.8063 8.14144 25.6407 8.21664C25.4751 8.292 25.3351 8.38977 25.2207 8.51025C25.1063 8.63073 25.0175 8.76464 24.9543 8.91216C24.8911 9.05984 24.8594 9.20577 24.8594 9.35025H27.4243V9.35008Z" fill="white"/>
<path d="M29.2658 7.56145H30.0787V8.22081H30.0968C30.1509 8.10657 30.2232 8.00273 30.3135 7.90929C30.4037 7.81601 30.5045 7.73617 30.616 7.66993C30.7274 7.60369 30.8493 7.55105 30.9818 7.51185C31.1143 7.47281 31.2467 7.45312 31.3792 7.45312C31.5117 7.45312 31.6322 7.47121 31.7405 7.50737L31.7043 8.38353C31.6379 8.36545 31.5719 8.35041 31.5056 8.33825C31.4392 8.32641 31.3731 8.32033 31.3069 8.32033C30.9096 8.32033 30.6055 8.43169 30.3947 8.65457C30.1839 8.87745 30.0786 9.22368 30.0786 9.69313V11.8429H29.2656V7.56145H29.2658Z" fill="white"/>
<path d="M33.0623 10.0005C33.0623 10.1872 33.103 10.3571 33.1843 10.5107C33.2656 10.6642 33.3724 10.7952 33.5049 10.9035C33.6372 11.012 33.7908 11.0963 33.9655 11.1565C34.1401 11.2166 34.3208 11.2467 34.5075 11.2467C34.7604 11.2467 34.9801 11.188 35.1668 11.0706C35.3534 10.9531 35.5251 10.7981 35.6817 10.6054L36.2958 11.0752C35.8443 11.6592 35.2119 11.9514 34.3991 11.9514C34.0619 11.9514 33.7563 11.8941 33.4825 11.7797C33.2084 11.6654 32.9768 11.5074 32.787 11.3056C32.5972 11.1038 32.4512 10.8661 32.3489 10.592C32.2464 10.3181 32.1953 10.0216 32.1953 9.70224C32.1953 9.3832 32.251 9.08657 32.3624 8.81249C32.4737 8.53857 32.6273 8.3008 32.823 8.09904C33.0187 7.89728 33.2521 7.73921 33.523 7.62481C33.7939 7.51057 34.0889 7.45312 34.4081 7.45312C34.7875 7.45312 35.1081 7.51953 35.37 7.65185C35.6319 7.78433 35.8471 7.9576 36.0158 8.1712C36.1843 8.38512 36.3062 8.62609 36.3817 8.89393C36.4569 9.16193 36.4947 9.4344 36.4947 9.7112V10.0003H33.0623V10.0005ZM35.6273 9.35008C35.6212 9.16944 35.5926 9.00384 35.5415 8.85344C35.4903 8.70304 35.4135 8.57185 35.3113 8.46049C35.2087 8.34913 35.0811 8.26193 34.9275 8.19841C34.774 8.13521 34.5947 8.10369 34.3902 8.10369C34.1915 8.10369 34.0092 8.14144 33.8436 8.21664C33.678 8.292 33.538 8.38977 33.4236 8.51025C33.3092 8.63073 33.2204 8.76464 33.1572 8.91216C33.094 9.05984 33.0623 9.20577 33.0623 9.35025H35.6273V9.35008Z" fill="white"/>
<path d="M41.7559 11.8438H40.9429V11.2295H40.9249C40.7682 11.4585 40.553 11.6359 40.2791 11.7625C40.005 11.8889 39.7236 11.9523 39.4346 11.9523C39.1034 11.9523 38.8039 11.895 38.5359 11.7806C38.2679 11.6663 38.0393 11.5067 37.8495 11.302C37.6597 11.0974 37.5137 10.8593 37.4114 10.5884C37.3089 10.3175 37.2578 10.0225 37.2578 9.7033C37.2578 9.38426 37.3089 9.08762 37.4114 8.81354C37.5137 8.53962 37.6597 8.30186 37.8495 8.10011C38.0393 7.89834 38.2679 7.74026 38.5359 7.62586C38.8037 7.51162 39.1034 7.45418 39.4346 7.45418C39.7417 7.45418 40.0308 7.51898 40.3017 7.64842C40.5725 7.77802 40.7804 7.95419 40.9249 8.17674H40.9429V5.01562H41.7559V11.8438ZM39.534 11.1935C39.7508 11.1935 39.9465 11.1561 40.121 11.0806C40.2956 11.0054 40.4431 10.9031 40.5636 10.7735C40.6839 10.6441 40.7772 10.4876 40.8436 10.3038C40.9098 10.1203 40.9429 9.9201 40.9429 9.70314C40.9429 9.4865 40.9098 9.28634 40.8436 9.1025C40.7772 8.91898 40.6839 8.7625 40.5636 8.6329C40.4431 8.5033 40.2956 8.40106 40.121 8.3257C39.9463 8.25034 39.7508 8.2129 39.534 8.2129C39.3173 8.2129 39.1215 8.25034 38.9469 8.3257C38.7722 8.40106 38.6247 8.5033 38.5044 8.6329C38.3839 8.7625 38.2906 8.91882 38.2244 9.1025C38.158 9.28618 38.125 9.48634 38.125 9.70314C38.125 9.91994 38.1581 10.1201 38.2244 10.3038C38.2906 10.4875 38.3839 10.6441 38.5044 10.7735C38.6247 10.9031 38.7722 11.0054 38.9469 11.0806C39.1215 11.1559 39.3173 11.1935 39.534 11.1935Z" fill="white"/>
<path d="M45.4922 5.01562H46.3051V8.17674H46.3232C46.4677 7.95403 46.6754 7.77786 46.9464 7.64842C47.2173 7.51898 47.5064 7.45418 47.8135 7.45418C48.1445 7.45418 48.4442 7.51146 48.7122 7.62586C48.98 7.74026 49.209 7.89834 49.3987 8.10011C49.5885 8.30186 49.7343 8.53962 49.8368 8.81354C49.9392 9.08762 49.9903 9.3841 49.9903 9.7033C49.9903 10.0225 49.9391 10.3175 49.8368 10.5884C49.7343 10.8593 49.5885 11.0974 49.3987 11.302C49.209 11.5067 48.9802 11.6663 48.7122 11.7806C48.4442 11.895 48.1447 11.9523 47.8135 11.9523C47.5245 11.9523 47.2429 11.8889 46.969 11.7625C46.6949 11.6359 46.4797 11.4585 46.3232 11.2295H46.3051V11.8438H45.4922V5.01562ZM47.7141 11.1935C47.9307 11.1935 48.1264 11.1561 48.3011 11.0806C48.4757 11.0054 48.6232 10.9031 48.7437 10.7735C48.864 10.6441 48.9573 10.4876 49.0237 10.3038C49.0899 10.1203 49.1231 9.9201 49.1231 9.70314C49.1231 9.4865 49.0898 9.28634 49.0237 9.1025C48.9573 8.91898 48.864 8.7625 48.7437 8.6329C48.6232 8.5033 48.4757 8.40106 48.3011 8.3257C48.1264 8.25034 47.9309 8.2129 47.7141 8.2129C47.4973 8.2129 47.3015 8.25034 47.1271 8.3257C46.9523 8.40106 46.8048 8.5033 46.6845 8.6329C46.564 8.7625 46.4707 8.91882 46.4045 9.1025C46.3381 9.28618 46.3051 9.48634 46.3051 9.70314C46.3051 9.91994 46.3383 10.1201 46.4045 10.3038C46.4707 10.4875 46.564 10.6441 46.6845 10.7735C46.8048 10.9031 46.9523 11.0054 47.1271 11.0806C47.3016 11.1559 47.4973 11.1935 47.7141 11.1935Z" fill="white"/>
<path d="M50.5078 7.5625H51.4472L52.7148 10.9043H52.7329L53.9489 7.5625H54.8161L52.784 12.7649C52.712 12.9515 52.6368 13.1215 52.559 13.2751C52.4813 13.4287 52.3881 13.5596 52.2803 13.6681C52.1723 13.7764 52.0419 13.8606 51.8889 13.9209C51.736 13.9811 51.5488 14.0111 51.3269 14.0111C51.2069 14.0111 51.0854 14.0035 50.9625 13.9886C50.8395 13.9734 50.7212 13.9419 50.6073 13.8937L50.7062 13.1531C50.8677 13.2191 51.0292 13.2524 51.1909 13.2524C51.3165 13.2524 51.4225 13.2358 51.5094 13.2027C51.5961 13.1694 51.6709 13.1212 51.7337 13.0582C51.7966 12.9948 51.8489 12.9212 51.8909 12.8369C51.9326 12.7524 51.9745 12.6561 52.0165 12.5478L52.2796 11.8703L50.5078 7.5625Z" fill="white"/>
</svg>
