<svg width="16" height="16" viewBox="0 0 16 16" fill="none" xmlns="http://www.w3.org/2000/svg">
<g clip-path="url(#clip0_486_13233)">
<path d="M6.60003 10.5334C7.38108 11.3144 8.64741 11.3144 9.42847 10.5334L9.42849 10.5334L10.8561 9.10579C11.1209 8.85 11.1282 8.42796 10.8724 8.16313C10.6166 7.89829 10.1946 7.89096 9.92976 8.14675C9.9242 8.1521 9.91874 8.15758 9.91339 8.16313L8.67649 9.39956L8.66626 3.33335C8.66626 2.96517 8.36778 2.66669 7.9996 2.66669C7.63141 2.66669 7.33293 2.96517 7.33293 3.33335L7.34226 9.38979L6.11516 8.16269C5.85033 7.9069 5.42828 7.91423 5.17249 8.17906C4.92297 8.43742 4.92297 8.847 5.17249 9.10535L6.60003 10.5334Z" fill="black"/>
<path d="M12.6665 9.11115C12.2983 9.11115 11.9998 9.40962 11.9998 9.77781V11.8182C11.9996 11.9185 11.9184 11.9998 11.8181 12H4.18161C4.08132 11.9998 4.00007 11.9185 3.99984 11.8182V9.77781C3.99984 9.40962 3.70136 9.11115 3.33317 9.11115C2.96498 9.11115 2.6665 9.40962 2.6665 9.77781V11.8182C2.66748 12.6546 3.34525 13.3324 4.18161 13.3334H11.818C12.6544 13.3324 13.3322 12.6546 13.3331 11.8183V9.77783C13.3332 9.40962 13.0347 9.11115 12.6665 9.11115Z" fill="black"/>
</g>
<defs>
<clipPath id="clip0_486_13233">
<rect width="10.6667" height="10.6667" fill="white" transform="translate(2.6665 2.66669)"/>
</clipPath>
</defs>
</svg>
