<svg width="16" height="16" viewBox="0 0 16 16" fill="none" xmlns="http://www.w3.org/2000/svg">
<path d="M12.0003 6.66675H9.33366V4.00008C9.33366 3.64646 9.19318 3.30732 8.94313 3.05727C8.69309 2.80722 8.35395 2.66675 8.00033 2.66675C7.6467 2.66675 7.30756 2.80722 7.05752 3.05727C6.80747 3.30732 6.66699 3.64646 6.66699 4.00008V6.66675H4.00033C3.6467 6.66675 3.30756 6.80722 3.05752 7.05727C2.80747 7.30732 2.66699 7.64646 2.66699 8.00008C2.66699 8.3537 2.80747 8.69284 3.05752 8.94289C3.30756 9.19294 3.6467 9.33341 4.00033 9.33341H6.66699V12.0001C6.66699 12.3537 6.80747 12.6928 7.05752 12.9429C7.30756 13.1929 7.6467 13.3334 8.00033 13.3334C8.35395 13.3334 8.69309 13.1929 8.94313 12.9429C9.19318 12.6928 9.33366 12.3537 9.33366 12.0001V9.33341H12.0003C12.3539 9.33341 12.6931 9.19294 12.9431 8.94289C13.1932 8.69284 13.3337 8.3537 13.3337 8.00008C13.3337 7.64646 13.1932 7.30732 12.9431 7.05727C12.6931 6.80722 12.3539 6.66675 12.0003 6.66675Z" fill="black"/>
</svg>
