<svg width="17" height="16" viewBox="0 0 17 16" fill="none" xmlns="http://www.w3.org/2000/svg">
<g clip-path="url(#clip0_486_13235)">
<path d="M9.89997 3.25247C9.11892 2.47141 7.85259 2.47141 7.07153 3.25245L7.07151 3.25247L5.64395 4.68004C5.37911 4.93583 5.37178 5.35787 5.62757 5.6227C5.88336 5.88754 6.3054 5.89487 6.57024 5.63908C6.5758 5.63372 6.58126 5.62824 6.58661 5.6227L7.82351 4.38626L7.83374 10.4525C7.83374 10.8207 8.13222 11.1191 8.5004 11.1191C8.86859 11.1191 9.16707 10.8207 9.16707 10.4525L9.15774 4.39604L10.3848 5.62314C10.6497 5.87893 11.0717 5.8716 11.3275 5.60677C11.577 5.34841 11.577 4.93883 11.3275 4.68047L9.89997 3.25247Z" fill="black"/>
<path d="M3.8335 9.11115C4.20168 9.11115 4.50016 9.40962 4.50016 9.77781V11.8182C4.50041 11.9185 4.58164 11.9998 4.68193 12H12.3184C12.4187 11.9998 12.4999 11.9185 12.5002 11.8182V9.77781C12.5002 9.40962 12.7986 9.11115 13.1668 9.11115C13.535 9.11115 13.8335 9.40962 13.8335 9.77781V11.8182C13.8325 12.6546 13.1547 13.3324 12.3184 13.3334H4.68195C3.84558 13.3324 3.16783 12.6546 3.16685 11.8183V9.77783C3.16683 9.40962 3.46531 9.11115 3.8335 9.11115Z" fill="black"/>
</g>
<defs>
<clipPath id="clip0_486_13235">
<rect width="10.6667" height="10.6667" fill="white" transform="matrix(-1 0 0 1 13.8335 2.66669)"/>
</clipPath>
</defs>
</svg>
