<svg width="17" height="16" viewBox="0 0 17 16" fill="none" xmlns="http://www.w3.org/2000/svg">
<g clip-path="url(#clip0_482_18036)">
<path d="M14.0921 16C13.8454 15.9993 13.6014 15.9498 13.374 15.8542C13.1467 15.7587 12.9405 15.619 12.7674 15.4433L8.6674 11.3673L4.5674 15.446C4.30409 15.7132 3.96639 15.8948 3.59834 15.9672C3.2303 16.0396 2.84897 15.9995 2.50407 15.852C2.15574 15.7119 1.85776 15.47 1.64904 15.1579C1.44031 14.8459 1.33054 14.4781 1.33407 14.1027V3.33333C1.33407 2.44928 1.68526 1.60143 2.31038 0.976311C2.9355 0.351189 3.78334 0 4.6674 0L12.6674 0C13.1051 0 13.5386 0.0862192 13.943 0.253735C14.3474 0.421251 14.7149 0.666782 15.0244 0.976311C15.334 1.28584 15.5795 1.6533 15.747 2.05772C15.9145 2.46214 16.0007 2.89559 16.0007 3.33333V14.1027C16.0045 14.4778 15.8951 14.8453 15.6869 15.1574C15.4786 15.4694 15.1812 15.7115 14.8334 15.852C14.5986 15.9502 14.3466 16.0005 14.0921 16ZM4.6674 1.33333C4.13697 1.33333 3.62826 1.54405 3.25319 1.91912C2.87811 2.29419 2.6674 2.8029 2.6674 3.33333V14.1027C2.66716 14.2138 2.69985 14.3224 2.76133 14.4149C2.82282 14.5075 2.91035 14.5797 3.01286 14.6225C3.11537 14.6653 3.22827 14.6768 3.33729 14.6554C3.44632 14.6341 3.54657 14.5809 3.6254 14.5027L8.20073 9.95533C8.32564 9.83117 8.49461 9.76147 8.67073 9.76147C8.84686 9.76147 9.01582 9.83117 9.14073 9.95533L13.7107 14.5013C13.7896 14.5796 13.8898 14.6328 13.9988 14.6541C14.1079 14.6754 14.2208 14.664 14.3233 14.6212C14.4258 14.5784 14.5133 14.5061 14.5748 14.4136C14.6363 14.3211 14.669 14.2124 14.6687 14.1013V3.33333C14.6687 2.8029 14.458 2.29419 14.0829 1.91912C13.7079 1.54405 13.1992 1.33333 12.6687 1.33333H4.6674Z" fill="black"/>
</g>
<defs>
<clipPath id="clip0_482_18036">
<rect width="16" height="16" fill="white" transform="translate(0.666992)"/>
</clipPath>
</defs>
</svg>
