<svg width="17" height="16" viewBox="0 0 17 16" fill="none" xmlns="http://www.w3.org/2000/svg">
<g clip-path="url(#clip0_483_13606)">
<path d="M3.66667 9.33334C4.03485 9.33334 4.33333 9.03486 4.33333 8.66667C4.33333 8.29848 4.03485 8 3.66667 8C3.29848 8 3 8.29848 3 8.66667C3 9.03486 3.29848 9.33334 3.66667 9.33334Z" fill="black"/>
<path d="M0.999674 6.66677C1.36786 6.66677 1.66634 6.36829 1.66634 6.0001C1.66634 5.63191 1.36786 5.33344 0.999674 5.33344C0.631485 5.33344 0.333008 5.63191 0.333008 6.0001C0.333008 6.36829 0.631485 6.66677 0.999674 6.66677Z" fill="black"/>
<path d="M3.66667 3.99983C4.03485 3.99983 4.33333 3.70136 4.33333 3.33317C4.33333 2.96498 4.03485 2.6665 3.66667 2.6665C3.29848 2.6665 3 2.96498 3 3.33317C3 3.70136 3.29848 3.99983 3.66667 3.99983Z" fill="black"/>
<path d="M0.999674 1.33333C1.36786 1.33333 1.66634 1.03486 1.66634 0.666667C1.66634 0.298477 1.36786 0 0.999674 0C0.631485 0 0.333008 0.298477 0.333008 0.666667C0.333008 1.03486 0.631485 1.33333 0.999674 1.33333Z" fill="black"/>
<path d="M15.6667 9.33334C16.0348 9.33334 16.3333 9.03486 16.3333 8.66667C16.3333 8.29848 16.0348 8 15.6667 8C15.2985 8 15 8.29848 15 8.66667C15 9.03486 15.2985 9.33334 15.6667 9.33334Z" fill="black"/>
<path d="M12.9997 6.66677C13.3679 6.66677 13.6663 6.36829 13.6663 6.0001C13.6663 5.63191 13.3679 5.33344 12.9997 5.33344C12.6315 5.33344 12.333 5.63191 12.333 6.0001C12.333 6.36829 12.6315 6.66677 12.9997 6.66677Z" fill="black"/>
<path d="M15.6667 3.99983C16.0348 3.99983 16.3333 3.70136 16.3333 3.33317C16.3333 2.96498 16.0348 2.6665 15.6667 2.6665C15.2985 2.6665 15 2.96498 15 3.33317C15 3.70136 15.2985 3.99983 15.6667 3.99983Z" fill="black"/>
<path d="M12.9997 1.33333C13.3679 1.33333 13.6663 1.03486 13.6663 0.666667C13.6663 0.298477 13.3679 0 12.9997 0C12.6315 0 12.333 0.298477 12.333 0.666667C12.333 1.03486 12.6315 1.33333 12.9997 1.33333Z" fill="black"/>
<path d="M9.66667 15.9999C10.0349 15.9999 10.3333 15.7015 10.3333 15.3333C10.3333 14.9651 10.0349 14.6666 9.66667 14.6666C9.29848 14.6666 9 14.9651 9 15.3333C9 15.7015 9.29848 15.9999 9.66667 15.9999Z" fill="black"/>
<path d="M6.99967 13.3333C7.36786 13.3333 7.66634 13.0349 7.66634 12.6667C7.66634 12.2985 7.36786 12 6.99967 12C6.63148 12 6.33301 12.2985 6.33301 12.6667C6.33301 13.0349 6.63148 13.3333 6.99967 13.3333Z" fill="black"/>
<path d="M9.66667 10.6667C10.0349 10.6667 10.3333 10.3682 10.3333 10C10.3333 9.63185 10.0349 9.33337 9.66667 9.33337C9.29848 9.33337 9 9.63185 9 10C9 10.3682 9.29848 10.6667 9.66667 10.6667Z" fill="black"/>
<path d="M6.99967 7.99991C7.36786 7.99991 7.66634 7.70143 7.66634 7.33324C7.66634 6.96504 7.36786 6.66656 6.99967 6.66656C6.63148 6.66656 6.33301 6.96504 6.33301 7.33324C6.33301 7.70143 6.63148 7.99991 6.99967 7.99991Z" fill="black"/>
<path d="M10.3327 2C9.97905 2 9.63991 1.85952 9.38987 1.60948C9.13982 1.35943 8.99934 1.02029 8.99934 0.666667C8.99934 0.489856 8.9291 0.320286 8.80408 0.195262C8.67906 0.0702379 8.50949 0 8.33268 0C8.15587 0 7.9863 0.0702379 7.86127 0.195262C7.73625 0.320286 7.66601 0.489856 7.66601 0.666667C7.66601 1.02029 7.52554 1.35943 7.27549 1.60948C7.02544 1.85952 6.6863 2 6.33268 2C6.15587 2 5.9863 2.07024 5.86128 2.19526C5.73625 2.32029 5.66602 2.48986 5.66602 2.66667C5.66602 2.84348 5.73625 3.01305 5.86128 3.13807C5.9863 3.2631 6.15587 3.33333 6.33268 3.33333C6.6863 3.33333 7.02544 3.47381 7.27549 3.72386C7.52554 3.97391 7.66601 4.31305 7.66601 4.66667C7.66601 4.84348 7.73625 5.01305 7.86127 5.13807C7.9863 5.2631 8.15587 5.33333 8.33268 5.33333C8.50949 5.33333 8.67906 5.2631 8.80408 5.13807C8.9291 5.01305 8.99934 4.84348 8.99934 4.66667C8.99934 4.31305 9.13982 3.97391 9.38987 3.72386C9.63991 3.47381 9.97905 3.33333 10.3327 3.33333C10.5095 3.33333 10.6791 3.2631 10.8041 3.13807C10.9291 3.01305 10.9993 2.84348 10.9993 2.66667C10.9993 2.48986 10.9291 2.32029 10.8041 2.19526C10.6791 2.07024 10.5095 2 10.3327 2Z" fill="black"/>
<path d="M4.99967 12.6666C4.64605 12.6666 4.30691 12.5261 4.05687 12.276C3.80682 12.026 3.66634 11.6869 3.66634 11.3332C3.66634 11.1564 3.5961 10.9869 3.47108 10.8618C3.34605 10.7368 3.17649 10.6666 2.99967 10.6666C2.82286 10.6666 2.65329 10.7368 2.52827 10.8618C2.40325 10.9869 2.33301 11.1564 2.33301 11.3332C2.33301 11.6869 2.19253 12.026 1.94248 12.276C1.69244 12.5261 1.3533 12.6666 0.999674 12.6666C0.822863 12.6666 0.653294 12.7368 0.52827 12.8618C0.403246 12.9868 0.333008 13.1564 0.333008 13.3332C0.333008 13.51 0.403246 13.6796 0.52827 13.8046C0.653294 13.9297 0.822863 13.9999 0.999674 13.9999C1.3533 13.9999 1.69244 14.1404 1.94248 14.3904C2.19253 14.6405 2.33301 14.9796 2.33301 15.3332C2.33301 15.51 2.40325 15.6796 2.52827 15.8046C2.65329 15.9297 2.82286 15.9999 2.99967 15.9999C3.17649 15.9999 3.34605 15.9297 3.47108 15.8046C3.5961 15.6796 3.66634 15.51 3.66634 15.3332C3.66634 14.9796 3.80682 14.6405 4.05687 14.3904C4.30691 14.1404 4.64605 13.9999 4.99967 13.9999C5.17649 13.9999 5.34605 13.9297 5.47108 13.8046C5.5961 13.6796 5.66634 13.51 5.66634 13.3332C5.66634 13.1564 5.5961 12.9868 5.47108 12.8618C5.34605 12.7368 5.17649 12.6666 4.99967 12.6666Z" fill="black"/>
<path d="M15.6667 12.6666C15.313 12.6666 14.9739 12.5261 14.7239 12.2761C14.4738 12.0261 14.3333 11.6869 14.3333 11.3333C14.3333 11.1565 14.2631 10.9869 14.1381 10.8619C14.013 10.7369 13.8435 10.6666 13.6667 10.6666C13.4899 10.6666 13.3203 10.7369 13.1953 10.8619C13.0702 10.9869 13 11.1565 13 11.3333C13 11.6869 12.8595 12.0261 12.6095 12.2761C12.3594 12.5261 12.0203 12.6666 11.6667 12.6666C11.4899 12.6666 11.3203 12.7369 11.1953 12.8619C11.0702 12.9869 11 13.1565 11 13.3333C11 13.5101 11.0702 13.6797 11.1953 13.8047C11.3203 13.9297 11.4899 14 11.6667 14C12.0203 14 12.3594 14.1404 12.6095 14.3905C12.8595 14.6405 13 14.9797 13 15.3333C13 15.5101 13.0702 15.6797 13.1953 15.8047C13.3203 15.9297 13.4899 15.9999 13.6667 15.9999C13.8435 15.9999 14.013 15.9297 14.1381 15.8047C14.2631 15.6797 14.3333 15.5101 14.3333 15.3333C14.3333 14.9797 14.4738 14.6405 14.7239 14.3905C14.9739 14.1404 15.313 14 15.6667 14C15.8435 14 16.013 13.9297 16.1381 13.8047C16.2631 13.6797 16.3333 13.5101 16.3333 13.3333C16.3333 13.1565 16.2631 12.9869 16.1381 12.8619C16.013 12.7369 15.8435 12.6666 15.6667 12.6666Z" fill="black"/>
</g>
<defs>
<clipPath id="clip0_483_13606">
<rect width="16" height="16" fill="white" transform="translate(0.333008)"/>
</clipPath>
</defs>
</svg>
