<svg width="17" height="16" viewBox="0 0 17 16" fill="none" xmlns="http://www.w3.org/2000/svg">
<g clip-path="url(#clip0_483_13876)">
<path d="M9.33379 -5.72205e-06C5.29046 -5.72205e-06 2.00046 2.69133 2.00046 6C2.0037 6.71505 2.15938 7.4212 2.45712 8.07133C2.22256 8.35167 2.0711 8.69203 2.01985 9.05394C1.96861 9.41586 2.01962 9.78489 2.16712 10.1193C1.26219 10.9505 0.72293 12.1059 0.667124 13.3333C0.6568 13.6863 0.718717 14.0377 0.849075 14.3659C0.979434 14.6941 1.17548 14.9922 1.4252 15.2419C1.67491 15.4916 1.97301 15.6877 2.30121 15.818C2.62942 15.9484 2.9808 16.0103 3.33379 16C3.5106 16.0007 3.68045 15.9311 3.80598 15.8066C3.9315 15.6821 4.00242 15.5128 4.00312 15.336C4.00383 15.1592 3.93427 14.9893 3.80975 14.8638C3.68522 14.7383 3.51593 14.6674 3.33912 14.6667C3.16068 14.6787 2.98172 14.6525 2.81421 14.5898C2.6467 14.5271 2.4945 14.4294 2.36778 14.3032C2.24106 14.177 2.14275 14.0252 2.0794 13.8579C2.01605 13.6907 1.98914 13.5118 2.00046 13.3333C2.06054 12.4543 2.46347 11.6341 3.12246 11.0493C3.86421 11.2679 4.63629 11.3658 5.40912 11.3393C5.60912 11.3393 5.79379 11.3347 5.97112 11.3287C7.03637 11.7733 8.17946 12.0016 9.33379 12C13.3771 12 16.6671 9.30866 16.6671 6C16.6671 2.69133 13.3771 -5.72205e-06 9.33379 -5.72205e-06ZM3.52712 9.792C3.46552 9.73089 3.41663 9.65819 3.38327 9.5781C3.3499 9.498 3.33273 9.4121 3.33273 9.32533C3.33273 9.23856 3.3499 9.15265 3.38327 9.07256C3.41663 8.99247 3.46552 8.91977 3.52712 8.85866C3.58818 8.79698 3.66087 8.74802 3.74097 8.7146C3.82107 8.68119 3.907 8.66398 3.99379 8.66398C4.08058 8.66398 4.16651 8.68119 4.24661 8.7146C4.32671 8.74802 4.3994 8.79698 4.46046 8.85866C4.73773 9.20996 4.97205 9.59312 5.15846 10C4.6069 10.0218 4.05556 9.95152 3.52712 9.792ZM9.33379 10.6667C8.44412 10.666 7.56183 10.5052 6.72913 10.192C6.39245 9.37652 5.94539 8.61115 5.40046 7.91733C5.16594 7.69146 4.88048 7.52538 4.56822 7.43313C4.25595 7.34087 3.92607 7.32517 3.60646 7.38733C3.42699 6.94678 3.33441 6.47569 3.33379 6C3.33379 3.42733 6.02512 1.33333 9.33379 1.33333C12.6425 1.33333 15.3338 3.42733 15.3338 6C15.3338 8.57266 12.6425 10.6667 9.33379 10.6667Z" fill="black"/>
</g>
<defs>
<clipPath id="clip0_483_13876">
<rect width="16" height="16" fill="white" transform="translate(0.666992)"/>
</clipPath>
</defs>
</svg>
