<svg width="17" height="16" viewBox="0 0 17 16" fill="none" xmlns="http://www.w3.org/2000/svg">
<g clip-path="url(#clip0_483_13627)">
<path d="M16.8884 7.49813C16.792 5.93815 16.2412 4.44047 15.3039 3.18975C14.3666 1.93902 13.0838 0.989927 11.6136 0.459462C10.1434 -0.0710035 8.55012 -0.159646 7.03016 0.204462C5.5102 0.56857 4.13001 1.36951 3.05975 2.50854C1.98949 3.64758 1.27594 5.07491 1.00708 6.61457C0.73821 8.15423 0.925779 9.73892 1.54666 11.1733C2.16754 12.6076 3.19459 13.8289 4.50119 14.6866C5.80779 15.5443 7.33682 16.0009 8.89978 16.0001H13.5551C14.4389 15.9993 15.2862 15.6478 15.9112 15.0228C16.5361 14.3979 16.8876 13.5506 16.8884 12.6668V7.49813ZM15.5551 12.6668C15.5551 13.1972 15.3444 13.7059 14.9693 14.081C14.5943 14.4561 14.0855 14.6668 13.5551 14.6668H8.89978C7.95907 14.6664 7.02901 14.4677 6.17025 14.0837C5.31148 13.6997 4.5433 13.139 3.91578 12.4381C3.28523 11.7376 2.81173 10.9104 2.52704 10.012C2.24235 9.11353 2.15305 8.16459 2.26511 7.2288C2.44207 5.75276 3.10524 4.37759 4.15008 3.32008C5.19491 2.26257 6.56198 1.58287 8.03578 1.38813C8.32327 1.3521 8.61271 1.33384 8.90245 1.33346C10.4561 1.32923 11.9617 1.87207 13.1551 2.8668C13.8521 3.44609 14.4243 4.1609 14.8368 4.96789C15.2493 5.77487 15.4937 6.65723 15.5551 7.56147V12.6668Z" fill="black"/>
<path d="M6.22233 5.99984H8.889C9.06581 5.99984 9.23538 5.9296 9.3604 5.80457C9.48543 5.67955 9.55566 5.50998 9.55566 5.33317C9.55566 5.15636 9.48543 4.98679 9.3604 4.86177C9.23538 4.73674 9.06581 4.6665 8.889 4.6665H6.22233C6.04552 4.6665 5.87595 4.73674 5.75093 4.86177C5.6259 4.98679 5.55566 5.15636 5.55566 5.33317C5.55566 5.50998 5.6259 5.67955 5.75093 5.80457C5.87595 5.9296 6.04552 5.99984 6.22233 5.99984Z" fill="black"/>
<path d="M11.5557 7.3335H6.22233C6.04552 7.3335 5.87595 7.40373 5.75093 7.52876C5.6259 7.65378 5.55566 7.82335 5.55566 8.00017C5.55566 8.17698 5.6259 8.34655 5.75093 8.47157C5.87595 8.5966 6.04552 8.66684 6.22233 8.66684H11.5557C11.7325 8.66684 11.902 8.5966 12.0271 8.47157C12.1521 8.34655 12.2223 8.17698 12.2223 8.00017C12.2223 7.82335 12.1521 7.65378 12.0271 7.52876C11.902 7.40373 11.7325 7.3335 11.5557 7.3335Z" fill="black"/>
<path d="M11.5557 10H6.22233C6.04552 10 5.87595 10.0702 5.75093 10.1953C5.6259 10.3203 5.55566 10.4899 5.55566 10.6667C5.55566 10.8435 5.6259 11.0131 5.75093 11.1381C5.87595 11.2631 6.04552 11.3333 6.22233 11.3333H11.5557C11.7325 11.3333 11.902 11.2631 12.0271 11.1381C12.1521 11.0131 12.2223 10.8435 12.2223 10.6667C12.2223 10.4899 12.1521 10.3203 12.0271 10.1953C11.902 10.0702 11.7325 10 11.5557 10Z" fill="black"/>
</g>
<defs>
<clipPath id="clip0_483_13627">
<rect width="16" height="16" fill="white" transform="translate(0.888672)"/>
</clipPath>
</defs>
</svg>
