<svg width="17" height="16" viewBox="0 0 17 16" fill="none" xmlns="http://www.w3.org/2000/svg">
<g clip-path="url(#clip0_483_13680)">
<path d="M15.6663 7.33333H12.9463C12.8944 6.96603 12.7984 6.60632 12.6603 6.262L15.0117 4.89933C15.0903 4.85704 15.1596 4.79941 15.2154 4.72984C15.2713 4.66027 15.3127 4.58019 15.3371 4.49435C15.3614 4.4085 15.3683 4.31863 15.3573 4.23007C15.3463 4.14151 15.3177 4.05606 15.273 3.97879C15.2284 3.90152 15.1687 3.83399 15.0975 3.78022C15.0262 3.72645 14.9449 3.68752 14.8584 3.66575C14.7719 3.64398 14.6818 3.63981 14.5936 3.65348C14.5054 3.66715 14.4209 3.69838 14.345 3.74533L11.9917 5.11C11.7667 4.82581 11.5097 4.56855 11.2257 4.34333L12.5897 1.98933C12.6718 1.8367 12.6913 1.65808 12.6439 1.49134C12.5966 1.3246 12.4862 1.18285 12.3361 1.09615C12.186 1.00944 12.0081 0.984603 11.84 1.02689C11.6719 1.06918 11.5269 1.17527 11.4357 1.32267L10.071 3.67267C9.72674 3.53448 9.36701 3.43845 8.99967 3.38667V0.666667C8.99967 0.489856 8.92944 0.320286 8.80441 0.195262C8.67939 0.0702379 8.50982 0 8.33301 0C8.1562 0 7.98663 0.0702379 7.8616 0.195262C7.73658 0.320286 7.66634 0.489856 7.66634 0.666667V3.38667C7.299 3.43845 6.93928 3.53448 6.59501 3.67267L5.23234 1.32133C5.14115 1.17393 4.99614 1.06784 4.82804 1.02556C4.65995 0.983269 4.482 1.00811 4.33191 1.09482C4.18183 1.18152 4.07141 1.32327 4.02408 1.49001C3.97674 1.65675 3.9962 1.83537 4.07834 1.988L5.44234 4.34333C5.15835 4.56855 4.90131 4.82581 4.67634 5.11L2.32301 3.74533C2.24712 3.69838 2.16257 3.66715 2.07438 3.65348C1.9862 3.63981 1.89616 3.64398 1.80962 3.66575C1.72308 3.68752 1.64178 3.72645 1.57056 3.78022C1.49934 3.83399 1.43964 3.90152 1.395 3.97879C1.35036 4.05606 1.32169 4.14151 1.31068 4.23007C1.29968 4.31863 1.30657 4.4085 1.33094 4.49435C1.35531 4.58019 1.39667 4.66027 1.45257 4.72984C1.50846 4.79941 1.57776 4.85704 1.65634 4.89933L4.00567 6.262C3.86764 6.60632 3.77161 6.96603 3.71967 7.33333H0.999674C0.822863 7.33333 0.653294 7.40357 0.52827 7.5286C0.403246 7.65362 0.333008 7.82319 0.333008 8C0.333008 8.17681 0.403246 8.34638 0.52827 8.47141C0.653294 8.59643 0.822863 8.66667 0.999674 8.66667H3.71967C3.77161 9.03397 3.86764 9.39368 4.00567 9.738L1.65434 11.1007C1.57576 11.143 1.50646 11.2006 1.45057 11.2702C1.39467 11.3397 1.35331 11.4198 1.32894 11.5057C1.30457 11.5915 1.29768 11.6814 1.30868 11.7699C1.31969 11.8585 1.34836 11.9439 1.393 12.0212C1.43764 12.0985 1.49734 12.166 1.56856 12.2198C1.63978 12.2736 1.72108 12.3125 1.80762 12.3342C1.89416 12.356 1.9842 12.3602 2.07238 12.3465C2.16057 12.3329 2.24512 12.3016 2.32101 12.2547L4.67434 10.89C4.89931 11.1742 5.15635 11.4314 5.44034 11.6567L4.07834 14.0107C3.9962 14.1633 3.97674 14.3419 4.02408 14.5087C4.07141 14.6754 4.18183 14.8171 4.33191 14.9039C4.482 14.9906 4.65995 15.0154 4.82804 14.9731C4.99614 14.9308 5.14115 14.8247 5.23234 14.6773L6.59501 12.326C6.93932 12.4644 7.29901 12.5608 7.66634 12.6133V15.3333C7.66634 15.5101 7.73658 15.6797 7.8616 15.8047C7.98663 15.9298 8.1562 16 8.33301 16C8.50982 16 8.67939 15.9298 8.80441 15.8047C8.92944 15.6797 8.99967 15.5101 8.99967 15.3333V12.6133C9.36695 12.5612 9.72664 12.4652 10.071 12.3273L11.4337 14.6787C11.5249 14.8261 11.6699 14.9322 11.838 14.9744C12.0061 15.0167 12.184 14.9919 12.3341 14.9052C12.4842 14.8185 12.5946 14.6767 12.6419 14.51C12.6893 14.3433 12.6698 14.1646 12.5877 14.012L11.2237 11.658C11.5077 11.4328 11.7647 11.1755 11.9897 10.8913L14.343 12.256C14.4189 12.303 14.5034 12.3342 14.5916 12.3479C14.6798 12.3615 14.7699 12.3574 14.8564 12.3356C14.9429 12.3138 15.0242 12.2749 15.0955 12.2211C15.1667 12.1673 15.2264 12.0998 15.271 12.0225C15.3157 11.9453 15.3443 11.8598 15.3553 11.7713C15.3663 11.6827 15.3594 11.5928 15.3351 11.507C15.3107 11.4211 15.2693 11.3411 15.2134 11.2715C15.1576 11.2019 15.0883 11.1443 15.0097 11.102L12.6583 9.73933C12.7972 9.39467 12.8939 9.03451 12.9463 8.66667H15.6663C15.8432 8.66667 16.0127 8.59643 16.1377 8.47141C16.2628 8.34638 16.333 8.17681 16.333 8C16.333 7.82319 16.2628 7.65362 16.1377 7.5286C16.0127 7.40357 15.8432 7.33333 15.6663 7.33333ZM8.33301 11.3333C3.92767 11.1933 3.92901 4.806 8.33301 4.66667C12.7383 4.80667 12.737 11.194 8.33301 11.3333Z" fill="black"/>
</g>
<defs>
<clipPath id="clip0_483_13680">
<rect width="16" height="16" fill="white" transform="translate(0.333008)"/>
</clipPath>
</defs>
</svg>
