<svg width="17" height="16" viewBox="0 0 17 16" fill="none" xmlns="http://www.w3.org/2000/svg">
<path d="M11.8887 0H5.22201C4.33828 0.00105857 3.49104 0.352588 2.86615 0.97748C2.24126 1.60237 1.88973 2.4496 1.88867 3.33333V13.3333C1.88867 14.0406 2.16962 14.7189 2.66972 15.219C3.16982 15.719 3.84809 16 4.55534 16H11.8887C12.7724 15.9989 13.6196 15.6474 14.2445 15.0225C14.8694 14.3976 15.2209 13.5504 15.222 12.6667V3.33333C15.2209 2.4496 14.8694 1.60237 14.2445 0.97748C13.6196 0.352588 12.7724 0.00105857 11.8887 0V0ZM13.8887 3.33333V10.6667H5.88867V1.33333H11.8887C12.4191 1.33333 12.9278 1.54405 13.3029 1.91912C13.678 2.29419 13.8887 2.8029 13.8887 3.33333ZM4.55534 1.448V10.6667C4.08709 10.6663 3.62707 10.7898 3.22201 11.0247V3.33333C3.22206 2.91979 3.35031 2.51644 3.58909 2.1788C3.82788 1.84116 4.16545 1.58585 4.55534 1.448ZM11.8887 14.6667H4.55534C4.20172 14.6667 3.86258 14.5262 3.61253 14.2761C3.36248 14.0261 3.22201 13.687 3.22201 13.3333C3.22201 12.9797 3.36248 12.6406 3.61253 12.3905C3.86258 12.1405 4.20172 12 4.55534 12H13.8887V12.6667C13.8887 13.1971 13.678 13.7058 13.3029 14.0809C12.9278 14.456 12.4191 14.6667 11.8887 14.6667Z" fill="black"/>
</svg>
