<svg width="16" height="16" viewBox="0 0 16 16" fill="none" xmlns="http://www.w3.org/2000/svg">
<g clip-path="url(#clip0_482_17974)">
<path d="M16.0004 7.66673C16 7.20698 15.8638 6.75758 15.6089 6.37495C15.354 5.99233 14.9918 5.69352 14.5677 5.51606C14.297 3.97097 13.4902 2.5708 12.2891 1.56184C11.088 0.552881 9.56965 -0.000244141 8.00102 -0.000244141C6.4324 -0.000244141 4.91401 0.552881 3.71294 1.56184C2.51186 2.5708 1.70503 3.97097 1.43436 5.51606C0.950358 5.71968 0.54919 6.08061 0.29572 6.54046C0.0422511 7.00032 -0.0487002 7.53223 0.0375735 8.05018C0.123847 8.56813 0.382302 9.04184 0.771145 9.39471C1.15999 9.74758 1.65649 9.95898 2.18036 9.99473C2.52468 10.7254 2.99166 11.3917 3.56102 11.9647C2.72675 12.8757 2.19728 14.0241 2.04636 15.2501C2.03543 15.337 2.04173 15.4252 2.06491 15.5096C2.08808 15.5941 2.12766 15.6731 2.1814 15.7423C2.23514 15.8114 2.30198 15.8693 2.3781 15.9126C2.45422 15.956 2.53812 15.9839 2.62502 15.9947C2.65245 15.9981 2.68005 15.9999 2.70769 16.0001C2.86993 15.9999 3.02654 15.9405 3.14817 15.8331C3.26979 15.7258 3.34808 15.5777 3.36836 15.4167C3.48922 14.4502 3.91276 13.5466 4.57836 12.8354C5.57111 13.5682 6.76669 13.9751 8.00036 14.0001C9.23037 13.9749 10.4225 13.5697 11.413 12.8401C12.0757 13.5501 12.4975 14.451 12.6184 15.4147C12.6385 15.5758 12.7167 15.724 12.8383 15.8316C12.96 15.9391 13.1167 15.9985 13.279 15.9987C13.3069 15.9986 13.3347 15.9968 13.3624 15.9934C13.5377 15.9714 13.6972 15.8807 13.8057 15.7412C13.9142 15.6017 13.9629 15.4248 13.941 15.2494C13.7912 14.0265 13.2643 12.8806 12.4337 11.9707C13.0062 11.396 13.4757 10.7271 13.8217 9.99339C14.4122 9.95417 14.9657 9.69203 15.3702 9.26005C15.7747 8.82807 16 8.25853 16.0004 7.66673ZM13.499 8.64873C13.3435 8.62024 13.183 8.64834 13.0464 8.72794C12.9098 8.80754 12.8062 8.93339 12.7544 9.08273C12.1437 10.8147 10.087 12.6667 8.00036 12.6667C5.91369 12.6667 3.85702 10.8134 3.24636 9.08139C3.19438 8.93214 3.09077 8.80637 2.95422 8.72679C2.81767 8.6472 2.65717 8.61905 2.50169 8.64739C2.44629 8.65826 2.39011 8.66472 2.33369 8.66673C2.08621 8.66377 1.84863 8.56915 1.66688 8.40116C1.48513 8.23317 1.37213 8.00375 1.34974 7.75728C1.32735 7.5108 1.39715 7.26477 1.54565 7.06678C1.69415 6.86879 1.9108 6.7329 2.15369 6.68539C2.29543 6.6597 2.42504 6.58878 2.52311 6.48327C2.62117 6.37775 2.68242 6.2433 2.69769 6.10006C2.78673 5.2476 3.08089 4.42939 3.55504 3.71538C4.02918 3.00138 4.6692 2.41283 5.42036 2.00006C5.3112 2.42413 5.30616 2.8683 5.40569 3.29473C5.54123 3.85866 5.85693 4.36302 6.30493 4.73137C6.75293 5.09972 7.30882 5.31197 7.88831 5.33594C8.4678 5.3599 9.03931 5.19429 9.51621 4.8642C9.9931 4.53411 10.3494 4.05754 10.531 3.50673C10.5606 3.40888 10.5668 3.30544 10.549 3.20476C10.5313 3.10409 10.49 3.00901 10.4287 2.92723C10.3673 2.84544 10.2876 2.77924 10.196 2.73399C10.1043 2.68873 10.0032 2.66569 9.90102 2.66673H9.80035C9.67774 2.67075 9.55958 2.71367 9.46298 2.7893C9.36638 2.86492 9.29635 2.96933 9.26302 3.08739C9.18553 3.32047 9.04516 3.52761 8.8574 3.68596C8.66965 3.84431 8.4418 3.94773 8.19899 3.98479C7.95618 4.02185 7.70786 3.99113 7.48141 3.896C7.25496 3.80088 7.05918 3.64505 6.91568 3.44571C6.77218 3.24637 6.68653 3.01127 6.66818 2.76633C6.64983 2.5214 6.6995 2.27616 6.81169 2.05766C6.92389 1.83917 7.09426 1.65591 7.30401 1.52811C7.51376 1.4003 7.75474 1.33292 8.00036 1.33339C9.31757 1.33024 10.5891 1.816 11.5687 2.69659C12.5483 3.57718 13.1663 4.78995 13.303 6.10006C13.3183 6.2433 13.3795 6.37775 13.4776 6.48327C13.5757 6.58878 13.7053 6.6597 13.847 6.68539C14.0899 6.7329 14.3066 6.86879 14.4551 7.06678C14.6036 7.26477 14.6734 7.5108 14.651 7.75728C14.6286 8.00375 14.5156 8.23317 14.3338 8.40116C14.1521 8.56915 13.9145 8.66377 13.667 8.66673C13.6106 8.66516 13.5545 8.65914 13.499 8.64873Z" fill="black"/>
<path d="M6.33398 8.66675C6.88627 8.66675 7.33398 8.21903 7.33398 7.66675C7.33398 7.11446 6.88627 6.66675 6.33398 6.66675C5.7817 6.66675 5.33398 7.11446 5.33398 7.66675C5.33398 8.21903 5.7817 8.66675 6.33398 8.66675Z" fill="black"/>
<path d="M9.66602 8.66675C10.2183 8.66675 10.666 8.21903 10.666 7.66675C10.666 7.11446 10.2183 6.66675 9.66602 6.66675C9.11373 6.66675 8.66602 7.11446 8.66602 7.66675C8.66602 8.21903 9.11373 8.66675 9.66602 8.66675Z" fill="black"/>
</g>
<defs>
<clipPath id="clip0_482_17974">
<rect width="16" height="16" fill="white"/>
</clipPath>
</defs>
</svg>
