<svg width="17" height="16" viewBox="0 0 17 16" fill="none" xmlns="http://www.w3.org/2000/svg">
<g clip-path="url(#clip0_483_13881)">
<path d="M6.88867 8C7.6798 8 8.45316 7.76541 9.11095 7.32588C9.76875 6.88635 10.2814 6.26164 10.5842 5.53074C10.8869 4.79983 10.9662 3.99556 10.8118 3.21964C10.6575 2.44372 10.2765 1.73098 9.7171 1.17157C9.15769 0.612165 8.44496 0.231202 7.66903 0.0768607C6.89311 -0.0774802 6.08884 0.00173314 5.35794 0.304484C4.62703 0.607234 4.00232 1.11992 3.56279 1.77772C3.12327 2.43552 2.88867 3.20888 2.88867 4C2.88973 5.06054 3.3115 6.07734 4.06141 6.82726C4.81133 7.57718 5.82813 7.99894 6.88867 8ZM6.88867 1.33334C7.41609 1.33334 7.93166 1.48973 8.37019 1.78275C8.80872 2.07577 9.15052 2.49224 9.35235 2.97951C9.55419 3.46678 9.60699 4.00296 9.5041 4.52024C9.40121 5.03753 9.14723 5.51268 8.77429 5.88562C8.40135 6.25856 7.9262 6.51254 7.40891 6.61543C6.89163 6.71832 6.35545 6.66551 5.86818 6.46368C5.38091 6.26185 4.96444 5.92005 4.67142 5.48152C4.3784 5.04299 4.22201 4.52742 4.22201 4C4.22201 3.29276 4.50296 2.61448 5.00305 2.11438C5.50315 1.61429 6.18143 1.33334 6.88867 1.33334ZM12.8887 15.3333C12.8887 15.5101 12.8184 15.6797 12.6934 15.8047C12.5684 15.9298 12.3988 16 12.222 16C12.0452 16 11.8756 15.9298 11.7506 15.8047C11.6256 15.6797 11.5553 15.5101 11.5553 15.3333C11.5553 14.0957 11.0637 12.9087 10.1885 12.0335C9.31333 11.1583 8.12635 10.6667 6.88867 10.6667C5.651 10.6667 4.46401 11.1583 3.58884 12.0335C2.71367 12.9087 2.22201 14.0957 2.22201 15.3333C2.22201 15.5101 2.15177 15.6797 2.02674 15.8047C1.90172 15.9298 1.73215 16 1.55534 16C1.37853 16 1.20896 15.9298 1.08393 15.8047C0.95891 15.6797 0.888672 15.5101 0.888672 15.3333C0.888672 13.742 1.52081 12.2159 2.64603 11.0907C3.77125 9.96548 5.29737 9.33334 6.88867 9.33334C8.47997 9.33334 10.0061 9.96548 11.1313 11.0907C12.2565 12.2159 12.8887 13.742 12.8887 15.3333ZM16.6933 9.52867C16.757 9.59017 16.8078 9.66373 16.8427 9.74507C16.8777 9.8264 16.8961 9.91388 16.8968 10.0024C16.8976 10.0909 16.8807 10.1787 16.8472 10.2606C16.8137 10.3426 16.7642 10.417 16.7016 10.4796C16.639 10.5422 16.5646 10.5917 16.4826 10.6252C16.4007 10.6587 16.3129 10.6756 16.2244 10.6748C16.1359 10.6741 16.0484 10.6557 15.9671 10.6207C15.8857 10.5858 15.8122 10.535 15.7507 10.4713L14.5553 9.276L13.36 10.4713C13.2343 10.5928 13.0659 10.66 12.8911 10.6585C12.7163 10.6569 12.5491 10.5868 12.4255 10.4632C12.3019 10.3396 12.2317 10.1724 12.2302 9.9976C12.2287 9.8228 12.2959 9.6544 12.4173 9.52867L13.6127 8.33334L12.4173 7.138C12.2959 7.01227 12.2287 6.84387 12.2302 6.66907C12.2317 6.49427 12.3019 6.32706 12.4255 6.20346C12.5491 6.07985 12.7163 6.00974 12.8911 6.00822C13.0659 6.0067 13.2343 6.0739 13.36 6.19534L14.5553 7.39067L15.7507 6.19534C15.8764 6.0739 16.0448 6.0067 16.2196 6.00822C16.3944 6.00974 16.5616 6.07985 16.6852 6.20346C16.8088 6.32706 16.8789 6.49427 16.8805 6.66907C16.882 6.84387 16.8148 7.01227 16.6933 7.138L15.498 8.33334L16.6933 9.52867Z" fill="black"/>
</g>
<defs>
<clipPath id="clip0_483_13881">
<rect width="16" height="16" fill="white" transform="translate(0.888672)"/>
</clipPath>
</defs>
</svg>
