<svg width="17" height="16" viewBox="0 0 17 16" fill="none" xmlns="http://www.w3.org/2000/svg">
<g clip-path="url(#clip0_483_13877)">
<path d="M12.2223 6.04255C12.2224 5.77439 12.1694 5.50886 12.0664 5.26127C11.9634 5.01367 11.8125 4.78889 11.6223 4.59989C11.233 4.22845 10.7156 4.02122 10.1776 4.02122C9.63955 4.02122 9.12218 4.22845 8.73292 4.59989L0.822255 12.5126C0.461201 12.8997 0.26455 13.4119 0.273746 13.9412C0.282943 14.4705 0.497269 14.9756 0.871554 15.3499C1.24584 15.7243 1.75085 15.9387 2.28015 15.9481C2.80945 15.9574 3.32169 15.7608 3.70892 15.3999L11.6223 7.48722C11.8128 7.29802 11.9639 7.07293 12.0669 6.82496C12.1699 6.57699 12.2227 6.31106 12.2223 6.04255ZM2.76626 14.4586C2.63149 14.587 2.45244 14.6587 2.26626 14.6587C2.08007 14.6587 1.90102 14.587 1.76626 14.4586C1.63387 14.3258 1.55952 14.146 1.55952 13.9586C1.55952 13.7711 1.63387 13.5913 1.76626 13.4586L6.94559 8.27855L7.94892 9.28189L2.76626 14.4586ZM10.6809 6.54389L8.88892 8.33655L7.88892 7.33322L9.68159 5.54122C9.74549 5.46822 9.82371 5.40911 9.91139 5.36757C9.99906 5.32603 10.0943 5.30293 10.1913 5.29971C10.2883 5.29649 10.3849 5.31322 10.4751 5.34886C10.5654 5.38449 10.6473 5.43828 10.7159 5.50689C10.7845 5.57549 10.8383 5.65745 10.874 5.74769C10.9096 5.83793 10.9263 5.93453 10.9231 6.0315C10.9199 6.12847 10.8968 6.22374 10.8552 6.31142C10.8137 6.3991 10.7546 6.47731 10.6816 6.54122L10.6809 6.54389ZM3.46426 1.90322L4.49759 1.60855L4.79226 0.575219C4.83973 0.409409 4.93989 0.263564 5.07761 0.159739C5.21533 0.0559144 5.38312 -0.000244141 5.55559 -0.000244141C5.72806 -0.000244141 5.89584 0.0559144 6.03356 0.159739C6.17128 0.263564 6.27145 0.409409 6.31892 0.575219L6.61359 1.60855L7.64692 1.90322C7.81273 1.95069 7.95858 2.05086 8.0624 2.18858C8.16623 2.3263 8.22239 2.49408 8.22239 2.66655C8.22239 2.83902 8.16623 3.00681 8.0624 3.14453C7.95858 3.28225 7.81273 3.38242 7.64692 3.42989L6.61359 3.72455L6.31892 4.75789C6.27145 4.9237 6.17128 5.06954 6.03356 5.17337C5.89584 5.27719 5.72806 5.33335 5.55559 5.33335C5.38312 5.33335 5.21533 5.27719 5.07761 5.17337C4.93989 5.06954 4.83973 4.9237 4.79226 4.75789L4.49759 3.72455L3.46426 3.42989C3.29844 3.38242 3.1526 3.28225 3.04878 3.14453C2.94495 3.00681 2.88879 2.83902 2.88879 2.66655C2.88879 2.49408 2.94495 2.3263 3.04878 2.18858C3.1526 2.05086 3.29844 1.95069 3.46426 1.90322ZM15.6469 11.4299L14.6136 11.7246L14.3189 12.7579C14.2715 12.9237 14.1713 13.0695 14.0336 13.1734C13.8958 13.2772 13.7281 13.3333 13.5556 13.3333C13.3831 13.3333 13.2153 13.2772 13.0776 13.1734C12.9399 13.0695 12.8397 12.9237 12.7923 12.7579L12.4976 11.7246L11.4643 11.4299C11.2984 11.3824 11.1526 11.2822 11.0488 11.1445C10.945 11.0068 10.8888 10.839 10.8888 10.6666C10.8888 10.4941 10.945 10.3263 11.0488 10.1886C11.1526 10.0509 11.2984 9.95069 11.4643 9.90322L12.4976 9.60855L12.7923 8.57522C12.8397 8.40941 12.9399 8.26356 13.0776 8.15974C13.2153 8.05591 13.3831 7.99976 13.5556 7.99976C13.7281 7.99976 13.8958 8.05591 14.0336 8.15974C14.1713 8.26356 14.2715 8.40941 14.3189 8.57522L14.6136 9.60855L15.6469 9.90322C15.8127 9.95069 15.9586 10.0509 16.0624 10.1886C16.1662 10.3263 16.2224 10.4941 16.2224 10.6666C16.2224 10.839 16.1662 11.0068 16.0624 11.1445C15.9586 11.2822 15.8127 11.3824 15.6469 11.4299ZM12.0589 1.66655L12.9629 1.40855L13.2223 0.503219C13.2645 0.359097 13.3522 0.232534 13.4724 0.142495C13.5926 0.0524552 13.7387 0.00378925 13.8889 0.00378925C14.0391 0.00378925 14.1852 0.0524552 14.3054 0.142495C14.4256 0.232534 14.5134 0.359097 14.5556 0.503219L14.8136 1.40722L15.7176 1.66522C15.8617 1.70743 15.9883 1.7952 16.0783 1.91539C16.1684 2.03558 16.217 2.18171 16.217 2.33189C16.217 2.48206 16.1684 2.62819 16.0783 2.74838C15.9883 2.86857 15.8617 2.95635 15.7176 2.99855L14.8136 3.25655L14.5556 4.16255C14.5134 4.30667 14.4256 4.43324 14.3054 4.52328C14.1852 4.61332 14.0391 4.66198 13.8889 4.66198C13.7387 4.66198 13.5926 4.61332 13.4724 4.52328C13.3522 4.43324 13.2645 4.30667 13.2223 4.16255L12.9643 3.25922L12.0589 2.99989C11.9148 2.95768 11.7882 2.8699 11.6982 2.74971C11.6082 2.62953 11.5595 2.48339 11.5595 2.33322C11.5595 2.18304 11.6082 2.03691 11.6982 1.91672C11.7882 1.79653 11.9148 1.70876 12.0589 1.66655Z" fill="black"/>
</g>
<defs>
<clipPath id="clip0_483_13877">
<rect width="16" height="16" fill="white" transform="translate(0.222656)"/>
</clipPath>
</defs>
</svg>
