<svg width="17" height="16" viewBox="0 0 17 16" fill="none" xmlns="http://www.w3.org/2000/svg">
<g clip-path="url(#clip0_483_13690)">
<path d="M8.22281 16C6.79963 15.9997 5.4023 15.6197 4.17494 14.8993C2.94757 14.1789 1.93461 13.1441 1.24053 11.9016C0.54644 10.6592 0.19636 9.25405 0.226391 7.83119C0.256423 6.40833 0.665479 5.01923 1.41137 3.80718C2.15726 2.59512 3.21298 1.60398 4.46965 0.935987C5.72632 0.267991 7.13844 -0.0526793 8.56036 0.00704999C9.98228 0.0667793 11.3625 0.504746 12.5588 1.27578C13.755 2.04681 14.7239 3.12299 15.3655 4.39333C15.4081 4.47178 15.4345 4.55798 15.4432 4.64683C15.4519 4.73567 15.4426 4.82536 15.416 4.91057C15.3893 4.99577 15.3459 5.07476 15.2881 5.14284C15.2304 5.21092 15.1595 5.26671 15.0798 5.3069C15.0001 5.34709 14.9132 5.37087 14.8241 5.37681C14.735 5.38275 14.6456 5.37075 14.5613 5.3415C14.477 5.31226 14.3993 5.26637 14.3331 5.20656C14.2668 5.14675 14.2132 5.07424 14.1755 4.99333C13.4998 3.65548 12.393 2.58434 11.0338 1.95281C9.67451 1.32127 8.1421 1.16619 6.68388 1.5126C5.22566 1.859 3.92671 2.68668 2.99669 3.86204C2.06668 5.03739 1.55985 6.49185 1.55803 7.99065C1.5562 9.48945 2.05949 10.9451 2.98664 12.1228C3.91379 13.3004 5.21072 14.1312 6.6681 14.4812C8.12547 14.8311 9.65825 14.6798 11.019 14.0515C12.3798 13.4233 13.4892 12.3549 14.1681 11.0187C14.2515 10.8666 14.3907 10.7531 14.5564 10.702C14.7221 10.6509 14.9011 10.6664 15.0556 10.7452C15.21 10.8239 15.3277 10.9597 15.3837 11.1238C15.4397 11.2878 15.4296 11.4673 15.3555 11.624C14.6891 12.9429 13.6692 14.0506 12.4097 14.8234C11.1501 15.5962 9.70051 16.0035 8.22281 16Z" fill="black"/>
</g>
<defs>
<clipPath id="clip0_483_13690">
<rect width="16" height="16" fill="white" transform="translate(0.222656)"/>
</clipPath>
</defs>
</svg>
