<svg width="17" height="16" viewBox="0 0 17 16" fill="none" xmlns="http://www.w3.org/2000/svg">
<g clip-path="url(#clip0_483_13793)">
<path d="M14.6683 1.44374C14.2109 0.98618 13.6678 0.623218 13.07 0.375582C12.4723 0.127946 11.8316 0.000488281 11.1846 0.000488281C10.5376 0.000488281 9.89697 0.127946 9.29923 0.375582C8.7015 0.623218 8.1584 0.98618 7.70096 1.44374L1.55496 7.58974C1.09545 8.04677 0.730624 8.58998 0.481393 9.18825C0.232162 9.78651 0.10342 10.4281 0.102544 11.0762C0.101667 11.7243 0.228673 12.3662 0.476285 12.9651C0.723898 13.564 1.08725 14.1082 1.54553 14.5665C2.0038 15.0248 2.548 15.3881 3.14693 15.6357C3.74586 15.8834 4.38777 16.0104 5.03587 16.0095C5.68397 16.0086 6.32553 15.8799 6.92379 15.6306C7.52205 15.3814 8.06526 15.0166 8.52229 14.5571L14.6683 8.41107C15.1259 7.95363 15.4888 7.41054 15.7365 6.8128C15.9841 6.21507 16.1115 5.57441 16.1115 4.92741C16.1115 4.28041 15.9841 3.63974 15.7365 3.04201C15.4888 2.44427 15.1259 1.90118 14.6683 1.44374ZM13.7256 7.46707L7.57829 13.6144C7.24725 13.9594 6.85069 14.2348 6.41186 14.4245C5.97303 14.6143 5.50074 14.7145 5.02266 14.7195C4.54459 14.7244 4.07034 14.6338 3.6277 14.4531C3.18506 14.2725 2.78292 14.0052 2.44485 13.6672C2.10679 13.3291 1.83958 12.927 1.65889 12.4843C1.4782 12.0417 1.38767 11.5674 1.39258 11.0894C1.39749 10.6113 1.49776 10.139 1.68752 9.70017C1.87727 9.26134 2.15268 8.86479 2.49763 8.53374L8.64496 2.38641C8.97601 2.04146 9.37256 1.76604 9.8114 1.57629C10.2502 1.38654 10.7225 1.28627 11.2006 1.28136C11.6787 1.27644 12.1529 1.36698 12.5956 1.54767C13.0382 1.72836 13.4403 1.99556 13.7784 2.33363C14.1165 2.6717 14.3837 3.07383 14.5644 3.51647C14.7451 3.95912 14.8356 4.43337 14.8307 4.91144C14.8258 5.38952 14.7255 5.8618 14.5357 6.30064C14.346 6.73947 14.0706 7.13603 13.7256 7.46707ZM13.2496 5.52774C13.3746 5.65276 13.4448 5.8223 13.4448 5.99907C13.4448 6.17585 13.3746 6.34539 13.2496 6.47041L11.2496 8.47041C11.1239 8.59184 10.9555 8.65904 10.7807 8.65752C10.6059 8.656 10.4387 8.58589 10.3151 8.46229C10.1915 8.33868 10.1214 8.17147 10.1198 7.99667C10.1183 7.82188 10.1855 7.65347 10.307 7.52774L10.8356 6.99907L9.11163 5.27641L8.58296 5.80507C8.45723 5.92651 8.28883 5.99371 8.11403 5.99219C7.93923 5.99067 7.77202 5.92056 7.64842 5.79695C7.52481 5.67335 7.4547 5.50614 7.45318 5.33134C7.45166 5.15654 7.51886 4.98814 7.6403 4.86241L9.6403 2.86241C9.70179 2.79873 9.77536 2.74794 9.85669 2.713C9.93803 2.67807 10.0255 2.65967 10.114 2.65891C10.2025 2.65814 10.2903 2.675 10.3723 2.70852C10.4542 2.74205 10.5286 2.79155 10.5912 2.85414C10.6538 2.91674 10.7033 2.99117 10.7368 3.0731C10.7704 3.15503 10.7872 3.24282 10.7865 3.33134C10.7857 3.41986 10.7673 3.50734 10.7324 3.58868C10.6974 3.67001 10.6466 3.74357 10.583 3.80507L10.0543 4.33374L11.7783 6.05774L12.307 5.52907C12.432 5.40409 12.6015 5.33388 12.7783 5.33388C12.9551 5.33388 13.1246 5.40409 13.2496 5.52907V5.52774ZM8.58296 10.1944C8.70794 10.3194 8.77815 10.489 8.77815 10.6657C8.77815 10.8425 8.70794 11.0121 8.58296 11.1371L6.58296 13.1371C6.45723 13.2585 6.28883 13.3257 6.11403 13.3242C5.93923 13.3227 5.77202 13.2526 5.64842 13.129C5.52481 13.0053 5.4547 12.8381 5.45318 12.6633C5.45166 12.4885 5.51886 12.3201 5.6403 12.1944L6.16896 11.6657L4.44496 9.94307L3.91629 10.4717C3.79056 10.5932 3.62216 10.6604 3.44736 10.6589C3.27256 10.6573 3.10535 10.5872 2.98175 10.4636C2.85814 10.34 2.78803 10.1728 2.78651 9.99801C2.78499 9.82321 2.85219 9.65481 2.97363 9.52907L4.97363 7.52907C5.09936 7.40763 5.26776 7.34044 5.44256 7.34196C5.61736 7.34348 5.78457 7.41359 5.90817 7.53719C6.03178 7.6608 6.10189 7.82801 6.10341 8.00281C6.10493 8.1776 6.03773 8.346 5.9163 8.47174L5.38763 9.00041L7.11163 10.7244L7.6403 10.1957C7.76531 10.0708 7.93485 10.0005 8.11163 10.0005C8.2884 10.0005 8.45794 10.0708 8.58296 10.1957V10.1944Z" fill="black"/>
</g>
<defs>
<clipPath id="clip0_483_13793">
<rect width="16" height="16" fill="white" transform="translate(0.111328)"/>
</clipPath>
</defs>
</svg>
