<svg width="17" height="16" viewBox="0 0 17 16" fill="none" xmlns="http://www.w3.org/2000/svg">
<g clip-path="url(#clip0_483_13844)">
<path d="M7.44401 4.0002H16.1107C16.2875 4.0002 16.4571 3.92996 16.5821 3.80494C16.7071 3.67991 16.7773 3.51035 16.7773 3.33354C16.7773 3.15672 16.7071 2.98716 16.5821 2.86213C16.4571 2.73711 16.2875 2.66687 16.1107 2.66687H7.44401C7.2672 2.66687 7.09763 2.73711 6.97261 2.86213C6.84758 2.98716 6.77734 3.15672 6.77734 3.33354C6.77734 3.51035 6.84758 3.67991 6.97261 3.80494C7.09763 3.92996 7.2672 4.0002 7.44401 4.0002Z" fill="black"/>
<path d="M16.1107 7.33313H7.44401C7.2672 7.33313 7.09763 7.40337 6.97261 7.52839C6.84758 7.65342 6.77734 7.82299 6.77734 7.9998C6.77734 8.17661 6.84758 8.34618 6.97261 8.47121C7.09763 8.59623 7.2672 8.66647 7.44401 8.66647H16.1107C16.2875 8.66647 16.4571 8.59623 16.5821 8.47121C16.7071 8.34618 16.7773 8.17661 16.7773 7.9998C16.7773 7.82299 16.7071 7.65342 16.5821 7.52839C16.4571 7.40337 16.2875 7.33313 16.1107 7.33313Z" fill="black"/>
<path d="M16.1107 12H7.44401C7.2672 12 7.09763 12.0702 6.97261 12.1953C6.84758 12.3203 6.77734 12.4899 6.77734 12.6667C6.77734 12.8435 6.84758 13.0131 6.97261 13.1381C7.09763 13.2631 7.2672 13.3333 7.44401 13.3333H16.1107C16.2875 13.3333 16.4571 13.2631 16.5821 13.1381C16.7071 13.0131 16.7773 12.8435 16.7773 12.6667C16.7773 12.4899 16.7071 12.3203 16.5821 12.1953C16.4571 12.0702 16.2875 12 16.1107 12Z" fill="black"/>
<path d="M4.83496 4.00014C4.90092 4.00013 4.96539 3.98055 5.02022 3.94388C5.07504 3.90721 5.11775 3.8551 5.14295 3.79414C5.16814 3.73319 5.17469 3.66613 5.16176 3.60145C5.14882 3.53678 5.11699 3.47739 5.0703 3.43081L3.44363 1.80481C3.31861 1.67983 3.14907 1.60962 2.9723 1.60962C2.79552 1.60962 2.62598 1.67983 2.50096 1.80481L0.874964 3.43081C0.828266 3.47739 0.796437 3.53678 0.783505 3.60145C0.770572 3.66613 0.777118 3.73319 0.802314 3.79414C0.82751 3.8551 0.870222 3.90721 0.925046 3.94388C0.97987 3.98055 1.04434 4.00013 1.1103 4.00014H2.3063V12.0001H1.1103C1.04428 12 0.979721 12.0195 0.924795 12.0561C0.869869 12.0927 0.827053 12.1449 0.801774 12.2058C0.776496 12.2668 0.769894 12.3339 0.782805 12.3987C0.795716 12.4634 0.827559 12.5229 0.874297 12.5695L2.50096 14.1955C2.62598 14.3205 2.79552 14.3907 2.9723 14.3907C3.14907 14.3907 3.31861 14.3205 3.44363 14.1955L5.0703 12.5695C5.11699 12.5229 5.14882 12.4635 5.16176 12.3988C5.17469 12.3342 5.16814 12.2671 5.14295 12.2061C5.11775 12.1452 5.07504 12.0931 5.02022 12.0564C4.96539 12.0197 4.90092 12.0002 4.83496 12.0001H3.63963V4.00014H4.83496Z" fill="black"/>
</g>
<defs>
<clipPath id="clip0_483_13844">
<rect width="16" height="16" fill="white" transform="translate(0.777344)"/>
</clipPath>
</defs>
</svg>
