<svg width="17" height="16" viewBox="0 0 17 16" fill="none" xmlns="http://www.w3.org/2000/svg">
<path d="M8.97148 12.3933L5.25148 8.66667C5.12731 8.54176 5.05762 8.3728 5.05762 8.19667C5.05762 8.02055 5.12731 7.85158 5.25148 7.72667L8.97148 4.00001C9.06473 3.90599 9.18386 3.84187 9.31369 3.81582C9.44352 3.78977 9.57817 3.80298 9.70047 3.85376C9.82276 3.90454 9.92717 3.99058 10.0004 4.10093C10.0736 4.21128 10.1122 4.34092 10.1115 4.47334V11.92C10.1122 12.0524 10.0736 12.1821 10.0004 12.2924C9.92717 12.4028 9.82276 12.4888 9.70047 12.5396C9.57817 12.5904 9.44352 12.6036 9.31369 12.5775C9.18386 12.5515 9.06473 12.4874 8.97148 12.3933Z" fill="black"/>
</svg>
