<svg width="17" height="16" viewBox="0 0 17 16" fill="none" xmlns="http://www.w3.org/2000/svg">
<g clip-path="url(#clip0_483_13661)">
<path d="M6.55566 15.9996H1.22233C1.04552 15.9996 0.87595 15.9293 0.750926 15.8043C0.625902 15.6793 0.555664 15.5097 0.555664 15.3329C0.555664 15.1561 0.625902 14.9865 0.750926 14.8615C0.87595 14.7365 1.04552 14.6663 1.22233 14.6663H6.55566C6.73248 14.6663 6.90204 14.7365 7.02707 14.8615C7.15209 14.9865 7.22233 15.1561 7.22233 15.3329C7.22233 15.5097 7.15209 15.6793 7.02707 15.8043C6.90204 15.9293 6.73248 15.9996 6.55566 15.9996Z" fill="black"/>
<path d="M5.22233 13.3333H1.22233C1.04552 13.3333 0.87595 13.2631 0.750926 13.1381C0.625902 13.0131 0.555664 12.8435 0.555664 12.6667C0.555664 12.4899 0.625902 12.3203 0.750926 12.1953C0.87595 12.0702 1.04552 12 1.22233 12H5.22233C5.39914 12 5.56871 12.0702 5.69374 12.1953C5.81876 12.3203 5.889 12.4899 5.889 12.6667C5.889 12.8435 5.81876 13.0131 5.69374 13.1381C5.56871 13.2631 5.39914 13.3333 5.22233 13.3333Z" fill="black"/>
<path d="M3.889 10.6671H1.22233C1.04552 10.6671 0.87595 10.5968 0.750926 10.4718C0.625902 10.3468 0.555664 10.1772 0.555664 10.0004C0.555664 9.8236 0.625902 9.65403 0.750926 9.529C0.87595 9.40398 1.04552 9.33374 1.22233 9.33374H3.889C4.06581 9.33374 4.23538 9.40398 4.3604 9.529C4.48543 9.65403 4.55566 9.8236 4.55566 10.0004C4.55566 10.1772 4.48543 10.3468 4.3604 10.4718C4.23538 10.5968 4.06581 10.6671 3.889 10.6671Z" fill="black"/>
<path d="M9.22263 15.9697C9.04582 15.9776 8.87313 15.9149 8.74254 15.7954C8.61195 15.676 8.53417 15.5095 8.5263 15.3327C8.51843 15.1559 8.58113 14.9832 8.70059 14.8526C8.82005 14.722 8.98649 14.6442 9.1633 14.6364C10.4249 14.5209 11.6276 14.0484 12.6303 13.2741C13.6331 12.4998 14.3944 11.4558 14.8252 10.2644C15.256 9.07298 15.3384 7.78347 15.0628 6.54692C14.7871 5.31036 14.1648 4.17795 13.2688 3.28231C12.3728 2.38668 11.2401 1.76491 10.0034 1.48982C8.7667 1.21474 7.47723 1.29773 6.28602 1.72908C5.0948 2.16043 4.05116 2.92228 3.27732 3.92539C2.50349 4.92851 2.0315 6.13135 1.91664 7.39304C1.90073 7.56915 1.81551 7.73172 1.67974 7.84499C1.54396 7.95826 1.36875 8.01296 1.19264 7.99704C1.01654 7.98113 0.853971 7.89591 0.740699 7.76013C0.627427 7.62436 0.572732 7.44915 0.588645 7.27304C0.77457 5.22191 1.74438 3.32151 3.29619 1.96742C4.84801 0.613331 6.86226 -0.0901135 8.91967 0.0035183C10.9771 0.0971501 12.9191 0.980643 14.3415 2.47009C15.7639 3.95953 16.5571 5.94017 16.556 7.99971C16.5662 9.9986 15.8236 11.9281 14.4759 13.4044C13.1282 14.8807 11.2742 15.7956 9.28263 15.967C9.26263 15.969 9.24197 15.9697 9.22263 15.9697Z" fill="black"/>
<path d="M8.55534 4C8.37853 4 8.20896 4.07024 8.08393 4.19526C7.95891 4.32029 7.88867 4.48986 7.88867 4.66667V8C7.88871 8.1768 7.95897 8.34634 8.08401 8.47133L10.084 10.4713C10.2097 10.5928 10.3781 10.66 10.5529 10.6584C10.7277 10.6569 10.8949 10.5868 11.0186 10.4632C11.1422 10.3396 11.2123 10.1724 11.2138 9.9976C11.2153 9.8228 11.1481 9.6544 11.0267 9.52867L9.22201 7.724V4.66667C9.22201 4.48986 9.15177 4.32029 9.02674 4.19526C8.90172 4.07024 8.73215 4 8.55534 4Z" fill="black"/>
</g>
<defs>
<clipPath id="clip0_483_13661">
<rect width="16" height="16" fill="white" transform="translate(0.555664)"/>
</clipPath>
</defs>
</svg>
