<svg width="17" height="16" viewBox="0 0 17 16" fill="none" xmlns="http://www.w3.org/2000/svg">
<g clip-path="url(#clip0_483_13812)">
<path d="M11.8887 8.78942V6.66676C11.8887 6.48994 11.8184 6.32037 11.6934 6.19535C11.5684 6.07033 11.3988 6.00009 11.222 6.00009V1.60942C11.222 1.33523 11.152 1.06558 11.0184 0.826099C10.8849 0.586619 10.6923 0.385265 10.459 0.241169C10.2258 0.0970727 9.95952 0.0150227 9.68559 0.00281534C9.41167 -0.00939202 9.13918 0.0486489 8.89401 0.171423L7.146 1.04476C6.76747 1.23301 6.44913 1.52337 6.22695 1.88303C6.00476 2.2427 5.88759 2.65733 5.88867 3.08009V6.00009C5.71186 6.00009 5.54229 6.07033 5.41727 6.19535C5.29224 6.32037 5.22201 6.48994 5.22201 6.66676V8.78942C4.8334 8.92681 4.49673 9.18091 4.25806 9.51696C4.01939 9.853 3.89038 10.2546 3.88867 10.6668V12.6668C3.88973 13.5505 4.24126 14.3977 4.86615 15.0226C5.49104 15.6475 6.33827 15.999 7.222 16.0001H9.88867C10.7724 15.999 11.6196 15.6475 12.2445 15.0226C12.8694 14.3977 13.2209 13.5505 13.222 12.6668V10.6668C13.2203 10.2546 13.0913 9.853 12.8526 9.51696C12.6139 9.18091 12.2773 8.92681 11.8887 8.78942ZM6.55534 8.66675V7.33342H10.5553V8.66675H6.55534ZM7.222 3.08009C7.22152 2.90504 7.27002 2.73334 7.36204 2.58442C7.45405 2.4355 7.5859 2.31531 7.74267 2.23742L9.48867 1.36409C9.53059 1.34238 9.57741 1.33187 9.62458 1.33357C9.67176 1.33528 9.71769 1.34915 9.75793 1.37383C9.79817 1.39851 9.83136 1.43317 9.85426 1.47445C9.87717 1.51572 9.88902 1.56222 9.88867 1.60942V6.00009H7.222V3.08009ZM11.8887 12.6668C11.8887 13.1972 11.678 13.7059 11.3029 14.081C10.9278 14.456 10.4191 14.6668 9.88867 14.6668H7.222C6.69157 14.6668 6.18286 14.456 5.80779 14.081C5.43272 13.7059 5.22201 13.1972 5.22201 12.6668V10.6668C5.22201 10.4899 5.29224 10.3204 5.41727 10.1954C5.54229 10.0703 5.71186 10.0001 5.88867 10.0001H11.222C11.3988 10.0001 11.5684 10.0703 11.6934 10.1954C11.8184 10.3204 11.8887 10.4899 11.8887 10.6668V12.6668Z" fill="black"/>
</g>
<defs>
<clipPath id="clip0_483_13812">
<rect width="16" height="16" fill="white" transform="translate(0.555664)"/>
</clipPath>
</defs>
</svg>
