<svg width="16" height="16" viewBox="0 0 16 16" fill="none" xmlns="http://www.w3.org/2000/svg">
<g clip-path="url(#clip0_483_13867)">
<path d="M7.33333 9.14867C7.13075 9.03302 6.96236 8.86585 6.84524 8.66412C6.72811 8.46239 6.66642 8.23327 6.66642 8C6.66642 7.76673 6.72811 7.53761 6.84524 7.33588C6.96236 7.13415 7.13075 6.96698 7.33333 6.85133V4.66667C7.33333 4.48986 7.40357 4.32029 7.5286 4.19526C7.65362 4.07024 7.82319 4 8 4C8.17681 4 8.34638 4.07024 8.47141 4.19526C8.59643 4.32029 8.66667 4.48986 8.66667 4.66667V6.85133C8.86925 6.96698 9.03764 7.13415 9.15477 7.33588C9.27189 7.53761 9.33358 7.76673 9.33358 8C9.33358 8.23327 9.27189 8.46239 9.15477 8.66412C9.03764 8.86585 8.86925 9.03302 8.66667 9.14867V10.6667C8.66667 10.8435 8.59643 11.013 8.47141 11.1381C8.34638 11.2631 8.17681 11.3333 8 11.3333C7.82319 11.3333 7.65362 11.2631 7.5286 11.1381C7.40357 11.013 7.33333 10.8435 7.33333 10.6667V9.14867ZM8 0C7.82319 0 7.65362 0.0702379 7.5286 0.195262C7.40357 0.320286 7.33333 0.489856 7.33333 0.666667C7.33333 0.843478 7.40357 1.01305 7.5286 1.13807C7.65362 1.2631 7.82319 1.33333 8 1.33333C9.76811 1.33333 11.4638 2.03571 12.714 3.28595C13.9643 4.5362 14.6667 6.23189 14.6667 8C14.6667 9.76811 13.9643 11.4638 12.714 12.714C11.4638 13.9643 9.76811 14.6667 8 14.6667C7.82319 14.6667 7.65362 14.7369 7.5286 14.8619C7.40357 14.987 7.33333 15.1565 7.33333 15.3333C7.33333 15.5101 7.40357 15.6797 7.5286 15.8047C7.65362 15.9298 7.82319 16 8 16C10.1217 16 12.1566 15.1571 13.6569 13.6569C15.1571 12.1566 16 10.1217 16 8C16 5.87827 15.1571 3.84344 13.6569 2.34315C12.1566 0.842855 10.1217 0 8 0V0ZM1.218 4.52267C1.08615 4.52267 0.957253 4.56177 0.84762 4.63502C0.737987 4.70827 0.652539 4.81239 0.602081 4.93421C0.551622 5.05603 0.53842 5.19007 0.564143 5.31939C0.589867 5.44871 0.653361 5.5675 0.746596 5.66074C0.839831 5.75397 0.958619 5.81747 1.08794 5.84319C1.21726 5.86891 1.35131 5.85571 1.47312 5.80525C1.59494 5.75479 1.69906 5.66935 1.77231 5.55971C1.84557 5.45008 1.88467 5.32119 1.88467 5.18933C1.88467 5.01252 1.81443 4.84295 1.6894 4.71793C1.56438 4.5929 1.39481 4.52267 1.218 4.52267ZM1.33333 8C1.33333 7.86815 1.29423 7.73925 1.22098 7.62962C1.14773 7.51999 1.04361 7.43454 0.921789 7.38408C0.799972 7.33362 0.665927 7.32042 0.536607 7.34614C0.407286 7.37187 0.288497 7.43536 0.195262 7.5286C0.102027 7.62183 0.0385336 7.74062 0.0128101 7.86994C-0.0129134 7.99926 0.000288854 8.13331 0.0507473 8.25512C0.101206 8.37694 0.186654 8.48106 0.296287 8.55431C0.40592 8.62757 0.534813 8.66667 0.666667 8.66667C0.843478 8.66667 1.01305 8.59643 1.13807 8.47141C1.2631 8.34638 1.33333 8.17681 1.33333 8ZM2.814 2.138C2.68215 2.138 2.55325 2.1771 2.44362 2.25035C2.33399 2.32361 2.24854 2.42773 2.19808 2.54954C2.14762 2.67136 2.13442 2.80541 2.16014 2.93473C2.18587 3.06405 2.24936 3.18284 2.3426 3.27607C2.43583 3.36931 2.55462 3.4328 2.68394 3.45852C2.81326 3.48425 2.94731 3.47104 3.06912 3.42059C3.19094 3.37013 3.29506 3.28468 3.36831 3.17505C3.44157 3.06541 3.48067 2.93652 3.48067 2.80467C3.48067 2.62786 3.41043 2.45829 3.2854 2.33326C3.16038 2.20824 2.99081 2.138 2.814 2.138ZM5.186 0.560667C5.05415 0.560667 4.92525 0.599766 4.81562 0.67302C4.70599 0.746275 4.62054 0.850394 4.57008 0.972211C4.51962 1.09403 4.50642 1.22807 4.53214 1.35739C4.55787 1.48671 4.62136 1.6055 4.7146 1.69874C4.80783 1.79197 4.92662 1.85547 5.05594 1.88119C5.18526 1.90691 5.3193 1.89371 5.44112 1.84325C5.56294 1.79279 5.66706 1.70735 5.74031 1.59771C5.81357 1.48808 5.85267 1.35919 5.85267 1.22733C5.85267 1.05052 5.78243 0.880953 5.6574 0.755929C5.53238 0.630905 5.36281 0.560667 5.186 0.560667ZM1.218 10.144C1.08615 10.144 0.957253 10.1831 0.84762 10.2564C0.737987 10.3296 0.652539 10.4337 0.602081 10.5555C0.551622 10.6774 0.53842 10.8114 0.564143 10.9407C0.589867 11.07 0.653361 11.1888 0.746596 11.2821C0.839831 11.3753 0.958619 11.4388 1.08794 11.4645C1.21726 11.4902 1.35131 11.477 1.47312 11.4266C1.59494 11.3761 1.69906 11.2907 1.77231 11.181C1.84557 11.0714 1.88467 10.9425 1.88467 10.8107C1.88467 10.6339 1.81443 10.4643 1.6894 10.3393C1.56438 10.2142 1.39481 10.144 1.218 10.144ZM2.814 12.5287C2.68215 12.5287 2.55325 12.5678 2.44362 12.641C2.33399 12.7143 2.24854 12.8184 2.19808 12.9402C2.14762 13.062 2.13442 13.1961 2.16014 13.3254C2.18587 13.4547 2.24936 13.5735 2.3426 13.6667C2.43583 13.76 2.55462 13.8235 2.68394 13.8492C2.81326 13.8749 2.94731 13.8617 3.06912 13.8113C3.19094 13.7608 3.29506 13.6753 3.36831 13.5657C3.44157 13.4561 3.48067 13.3272 3.48067 13.1953C3.48067 13.0185 3.41043 12.849 3.2854 12.7239C3.16038 12.5989 2.99081 12.5287 2.814 12.5287ZM5.186 14.106C5.05415 14.106 4.92525 14.1451 4.81562 14.2184C4.70599 14.2916 4.62054 14.3957 4.57008 14.5175C4.51962 14.6394 4.50642 14.7734 4.53214 14.9027C4.55787 15.032 4.62136 15.1508 4.7146 15.2441C4.80783 15.3373 4.92662 15.4008 5.05594 15.4265C5.18526 15.4522 5.3193 15.439 5.44112 15.3886C5.56294 15.3381 5.66706 15.2527 5.74031 15.143C5.81357 15.0334 5.85267 14.9045 5.85267 14.7727C5.85267 14.5959 5.78243 14.4263 5.6574 14.3013C5.53238 14.1762 5.36281 14.106 5.186 14.106Z" fill="black"/>
</g>
<defs>
<clipPath id="clip0_483_13867">
<rect width="16" height="16" fill="white"/>
</clipPath>
</defs>
</svg>
