<svg width="16" height="16" viewBox="0 0 16 16" fill="none" xmlns="http://www.w3.org/2000/svg">
<g clip-path="url(#clip0_483_13602)">
<path d="M14.6667 8.12262V7.33329C14.665 6.92112 14.5359 6.51954 14.2973 6.18349C14.0586 5.84744 13.7219 5.59335 13.3333 5.45596C13.3683 3.73638 12.9424 2.03879 12.1 0.539289C11.9717 0.358143 11.7991 0.212903 11.5987 0.117434C11.3983 0.021964 11.1768 -0.0205479 10.9553 -0.006044C10.7248 0.00895409 10.5018 0.0825962 10.3077 0.2079C10.1135 0.333204 9.95463 0.506018 9.846 0.709956C9.33333 1.65062 8.82667 1.99996 7.97467 1.99996H6.66667C5.68959 1.95076 4.73144 2.2819 3.99324 2.9239C3.25504 3.56589 2.79417 4.46884 2.70733 5.44329C2.30909 5.57453 1.96218 5.82761 1.71562 6.16677C1.46906 6.50592 1.33533 6.91399 1.33333 7.33329V8.12262C0.944728 8.26001 0.608061 8.51411 0.369392 8.85016C0.130723 9.1862 0.00170864 9.58778 0 9.99996L0 12.6666C0.00105857 13.5504 0.352588 14.3976 0.97748 15.0225C1.60237 15.6474 2.4496 15.9989 3.33333 16H12.6667C13.5504 15.9989 14.3976 15.6474 15.0225 15.0225C15.6474 14.3976 15.9989 13.5504 16 12.6666V9.99996C15.9983 9.58778 15.8693 9.1862 15.6306 8.85016C15.3919 8.51411 15.0553 8.26001 14.6667 8.12262ZM6.66667 3.33329H7.97467C8.62394 3.33402 9.25902 3.14329 9.80045 2.78494C10.3419 2.4266 10.7656 1.91656 11.0187 1.31862C11.6802 2.55227 12.0178 3.93359 12 5.33329H4.08733C4.19412 4.74011 4.51678 4.20749 4.99309 3.83817C5.46939 3.46885 6.06558 3.28899 6.66667 3.33329ZM2.66667 7.33329C2.66667 7.15648 2.7369 6.98691 2.86193 6.86189C2.98695 6.73686 3.15652 6.66662 3.33333 6.66662H12.6667C12.8435 6.66662 13.013 6.73686 13.1381 6.86189C13.2631 6.98691 13.3333 7.15648 13.3333 7.33329V7.99996H2.66667V7.33329ZM14.6667 12.6666C14.6667 13.1971 14.456 13.7058 14.0809 14.0808C13.7058 14.4559 13.1971 14.6666 12.6667 14.6666H3.33333C2.8029 14.6666 2.29419 14.4559 1.91912 14.0808C1.54405 13.7058 1.33333 13.1971 1.33333 12.6666V9.99996C1.33333 9.82315 1.40357 9.65358 1.5286 9.52855C1.65362 9.40353 1.82319 9.33329 2 9.33329H14C14.1768 9.33329 14.3464 9.40353 14.4714 9.52855C14.5964 9.65358 14.6667 9.82315 14.6667 9.99996V12.6666Z" fill="black"/>
</g>
<defs>
<clipPath id="clip0_483_13602">
<rect width="16" height="16" fill="white"/>
</clipPath>
</defs>
</svg>
