<svg width="17" height="16" viewBox="0 0 17 16" fill="none" xmlns="http://www.w3.org/2000/svg">
<g clip-path="url(#clip0_483_13700)">
<path d="M4.77767 16.0004C5.51405 16.0004 6.111 15.4034 6.111 14.6671C6.111 13.9307 5.51405 13.3337 4.77767 13.3337C4.04129 13.3337 3.44434 13.9307 3.44434 14.6671C3.44434 15.4034 4.04129 16.0004 4.77767 16.0004Z" fill="black"/>
<path d="M11.4447 16.0004C12.181 16.0004 12.778 15.4035 12.778 14.6671C12.778 13.9307 12.181 13.3338 11.4447 13.3338C10.7083 13.3338 10.1113 13.9307 10.1113 14.6671C10.1113 15.4035 10.7083 16.0004 11.4447 16.0004Z" fill="black"/>
<path d="M15.9013 0.890259C15.7762 0.765279 15.6067 0.695068 15.4299 0.695068C15.2531 0.695068 15.0836 0.765279 14.9586 0.890259L11.5193 4.33293L10.4853 3.25359C10.4246 3.19047 10.3521 3.13992 10.2719 3.10482C10.1917 3.06972 10.1053 3.05076 10.0178 3.04903C9.93025 3.04729 9.84323 3.06282 9.7617 3.09471C9.68016 3.12661 9.60571 3.17426 9.54259 3.23493C9.47947 3.2956 9.42891 3.36811 9.39381 3.44831C9.35871 3.52852 9.33975 3.61486 9.33802 3.70239C9.33452 3.87918 9.40139 4.05011 9.52392 4.17759L10.5999 5.29693C10.7146 5.42076 10.8531 5.52006 11.0073 5.58881C11.1614 5.65756 11.3278 5.69434 11.4966 5.69693H11.5186C11.684 5.69747 11.8478 5.66516 12.0006 5.60188C12.1534 5.53859 12.292 5.44558 12.4086 5.32826L15.9013 1.83293C16.0262 1.70791 16.0964 1.53837 16.0964 1.36159C16.0964 1.18482 16.0262 1.01528 15.9013 0.890259Z" fill="black"/>
<path d="M14.7113 6.01067C14.6251 5.99509 14.5367 5.99666 14.4511 6.01527C14.3655 6.03388 14.2845 6.06918 14.2125 6.11914C14.1406 6.16911 14.0792 6.23276 14.0318 6.30646C13.9845 6.38016 13.9522 6.46246 13.9367 6.54867L13.8513 7.02133C13.7682 7.48288 13.5254 7.90053 13.1656 8.20128C12.8057 8.50203 12.3516 8.66675 11.8827 8.66667H3.72333L3.09666 3.33333H7.44466C7.62147 3.33333 7.79104 3.2631 7.91607 3.13807C8.04109 3.01305 8.11133 2.84348 8.11133 2.66667C8.11133 2.48986 8.04109 2.32029 7.91607 2.19526C7.79104 2.07024 7.62147 2 7.44466 2H2.93933L2.91133 1.76533C2.85388 1.27907 2.62003 0.830769 2.25412 0.505403C1.88821 0.180036 1.41564 0.000208558 0.925995 0L0.777995 0C0.601184 0 0.431615 0.0702379 0.30659 0.195262C0.181566 0.320286 0.111328 0.489856 0.111328 0.666667C0.111328 0.843478 0.181566 1.01305 0.30659 1.13807C0.431615 1.2631 0.601184 1.33333 0.777995 1.33333H0.925995C1.08928 1.33335 1.24689 1.3933 1.36891 1.50181C1.49093 1.61032 1.56889 1.75983 1.58799 1.922L2.50533 9.722C2.60056 10.5332 2.99031 11.2812 3.6006 11.824C4.21089 12.3668 4.99923 12.6667 5.81599 12.6667H12.778C12.9548 12.6667 13.1244 12.5964 13.2494 12.4714C13.3744 12.3464 13.4447 12.1768 13.4447 12C13.4447 11.8232 13.3744 11.6536 13.2494 11.5286C13.1244 11.4036 12.9548 11.3333 12.778 11.3333H5.81599C5.40234 11.3334 4.99884 11.2052 4.66107 10.9664C4.3233 10.7276 4.06788 10.39 3.92999 10H11.8827C12.6642 10 13.4209 9.72549 14.0205 9.22429C14.6202 8.7231 15.0247 8.02713 15.1633 7.258L15.2487 6.78467C15.2799 6.61079 15.2409 6.4316 15.1402 6.28648C15.0394 6.14135 14.8852 6.04215 14.7113 6.01067Z" fill="black"/>
</g>
<defs>
<clipPath id="clip0_483_13700">
<rect width="16" height="16" fill="white" transform="translate(0.111328)"/>
</clipPath>
</defs>
</svg>
