<svg width="17" height="16" viewBox="0 0 17 16" fill="none" xmlns="http://www.w3.org/2000/svg">
<g clip-path="url(#clip0_482_18033)">
<path d="M12.778 2.66667H12.0447C11.8899 1.91428 11.4805 1.23823 10.8855 0.752479C10.2905 0.266727 9.54613 0.000969683 8.778 0L7.44466 0C6.67653 0.000969683 5.93221 0.266727 5.33716 0.752479C4.74212 1.23823 4.33273 1.91428 4.17799 2.66667H3.44466C2.56093 2.66773 1.7137 3.01925 1.08881 3.64415C0.463916 4.26904 0.112387 5.11627 0.111328 6L0.111328 12.6667C0.112387 13.5504 0.463916 14.3976 1.08881 15.0225C1.7137 15.6474 2.56093 15.9989 3.44466 16H12.778C13.6617 15.9989 14.509 15.6474 15.1338 15.0225C15.7587 14.3976 16.1103 13.5504 16.1113 12.6667V6C16.1103 5.11627 15.7587 4.26904 15.1338 3.64415C14.509 3.01925 13.6617 2.66773 12.778 2.66667ZM7.44466 1.33333H8.778C9.19017 1.33504 9.59175 1.46406 9.92779 1.70273C10.2638 1.94139 10.5179 2.27806 10.6553 2.66667H5.56733C5.70472 2.27806 5.95882 1.94139 6.29486 1.70273C6.63091 1.46406 7.03249 1.33504 7.44466 1.33333ZM3.44466 4H12.778C13.3084 4 13.8171 4.21071 14.1922 4.58579C14.5673 4.96086 14.778 5.46957 14.778 6V8H1.44466V6C1.44466 5.46957 1.65538 4.96086 2.03045 4.58579C2.40552 4.21071 2.91423 4 3.44466 4ZM12.778 14.6667H3.44466C2.91423 14.6667 2.40552 14.456 2.03045 14.0809C1.65538 13.7058 1.44466 13.1971 1.44466 12.6667V9.33333H7.44466V10C7.44466 10.1768 7.5149 10.3464 7.63992 10.4714C7.76495 10.5964 7.93452 10.6667 8.11133 10.6667C8.28814 10.6667 8.45771 10.5964 8.58273 10.4714C8.70776 10.3464 8.778 10.1768 8.778 10V9.33333H14.778V12.6667C14.778 13.1971 14.5673 13.7058 14.1922 14.0809C13.8171 14.456 13.3084 14.6667 12.778 14.6667Z" fill="black"/>
</g>
<defs>
<clipPath id="clip0_482_18033">
<rect width="16" height="16" fill="white" transform="translate(0.111328)"/>
</clipPath>
</defs>
</svg>
