<svg width="17" height="16" viewBox="0 0 17 16" fill="none" xmlns="http://www.w3.org/2000/svg">
<g clip-path="url(#clip0_483_13889)">
<path d="M12.333 4.6664C12.333 4.79826 12.2939 4.92715 12.2207 5.03679C12.1474 5.14642 12.0433 5.23187 11.9215 5.28232C11.7996 5.33278 11.6656 5.34599 11.5363 5.32026C11.407 5.29454 11.2882 5.23104 11.1949 5.13781C11.1017 5.04457 11.0382 4.92579 11.0125 4.79646C10.9868 4.66714 11 4.5331 11.0504 4.41128C11.1009 4.28947 11.1863 4.18535 11.296 4.11209C11.4056 4.03884 11.5345 3.99974 11.6663 3.99974C11.8432 3.99974 12.0127 4.06998 12.1377 4.195C12.2628 4.32002 12.333 4.48959 12.333 4.6664ZM9.66634 5.99974C9.53449 5.99974 9.40559 6.03884 9.29596 6.11209C9.18633 6.18535 9.10088 6.28946 9.05042 6.41128C8.99996 6.5331 8.98676 6.66714 9.01248 6.79646C9.03821 6.92579 9.1017 7.04457 9.19494 7.13781C9.28817 7.23104 9.40696 7.29454 9.53628 7.32026C9.6656 7.34599 9.79965 7.33278 9.92146 7.28232C10.0433 7.23187 10.1474 7.14642 10.2207 7.03679C10.2939 6.92715 10.333 6.79826 10.333 6.6664C10.333 6.48959 10.2628 6.32002 10.1377 6.195C10.0127 6.06998 9.84315 5.99974 9.66634 5.99974ZM7.66634 7.99974C7.53449 7.99974 7.40559 8.03884 7.29596 8.11209C7.18633 8.18535 7.10088 8.28946 7.05042 8.41128C6.99996 8.5331 6.98676 8.66714 7.01248 8.79646C7.03821 8.92579 7.1017 9.04457 7.19494 9.13781C7.28817 9.23104 7.40696 9.29454 7.53628 9.32026C7.6656 9.34599 7.79965 9.33278 7.92146 9.28232C8.04328 9.23187 8.1474 9.14642 8.22065 9.03679C8.29391 8.92715 8.33301 8.79826 8.33301 8.6664C8.33301 8.48959 8.26277 8.32002 8.13775 8.195C8.01272 8.06998 7.84315 7.99974 7.66634 7.99974ZM16.2437 1.97174L16.1937 2.1124C15.1923 4.89107 14.2317 7.53307 12.333 9.87974V9.99974C12.3318 11.0209 12.1178 12.0306 11.7046 12.9643C11.2913 13.8981 10.688 14.7355 9.93301 15.4231C9.53335 15.7918 9.01011 15.9975 8.46634 15.9997C7.9004 15.998 7.35819 15.7721 6.95838 15.3715C6.55857 14.971 6.33371 14.4284 6.33301 13.8624V13.0951C5.84107 12.9364 5.39327 12.6645 5.02567 12.3011L4.99967 12.2757L3.47101 13.8044C3.34527 13.9258 3.17687 13.993 3.00207 13.9915C2.82728 13.99 2.66007 13.9199 2.53646 13.7963C2.41286 13.6727 2.34274 13.5055 2.34123 13.3307C2.33971 13.1559 2.4069 12.9875 2.52834 12.8617L4.05701 11.3331L4.03101 11.3077C3.66738 10.9397 3.3948 10.4918 3.23501 9.99974H2.57501C1.98067 9.99921 1.41082 9.76292 0.990495 9.34272C0.570172 8.92253 0.333714 8.35274 0.333008 7.7584C0.334187 7.17795 0.55801 6.62006 0.958341 6.19974C1.65534 5.48391 2.4922 4.91919 3.41685 4.5407C4.34149 4.16222 5.33413 3.97808 6.33301 3.99974H6.45301C8.79967 2.10174 11.4397 1.14107 14.217 0.140405L14.361 0.0890713C14.6238 -0.00754116 14.9088 -0.0269117 15.1822 0.0332483C15.4557 0.0934084 15.7062 0.230585 15.9042 0.42857C16.1022 0.626555 16.2393 0.877074 16.2995 1.15053C16.3597 1.42398 16.3403 1.70894 16.2437 1.97174ZM2.57501 8.6664H3.06634C3.11642 8.07901 3.32139 7.51541 3.66034 7.03307C4.03237 6.49781 4.43504 5.98451 4.86634 5.49574C3.74803 5.72721 2.72565 6.29092 1.93301 7.11307C1.76438 7.28585 1.66887 7.51699 1.66634 7.7584C1.66669 7.99923 1.76256 8.23008 1.93291 8.4003C2.10326 8.57053 2.33418 8.66623 2.57501 8.6664ZM10.7997 11.5011C10.3215 11.9197 9.82027 12.3112 9.29834 12.6737C8.81561 13.0094 8.25244 13.2109 7.66634 13.2577V13.8624C7.66669 14.0756 7.75161 14.28 7.90245 14.4308C8.0533 14.5815 8.25777 14.6662 8.47101 14.6664C8.6824 14.6633 8.885 14.5812 9.03901 14.4364C9.89846 13.6497 10.5102 12.6297 10.7997 11.5011ZM14.9577 1.37507C14.9399 1.35531 14.9164 1.3416 14.8905 1.33586C14.8645 1.33013 14.8374 1.33265 14.813 1.34307L14.6697 1.39507C11.4403 2.5584 8.65168 3.56374 6.25034 5.9644C5.6995 6.53245 5.19812 7.14645 4.75167 7.79974C4.48012 8.18518 4.35347 8.65418 4.39409 9.12392C4.43471 9.59367 4.63998 10.034 4.97367 10.3671L5.96834 11.3604C6.30129 11.6939 6.74128 11.899 7.21073 11.9398C7.68018 11.9805 8.14893 11.8542 8.53434 11.5831C9.18726 11.1367 9.80083 10.6353 10.3683 10.0844C12.7683 7.6844 13.775 4.89307 14.939 1.6624L14.9897 1.52174C15.0005 1.49704 15.0032 1.46956 14.9974 1.44322C14.9917 1.41689 14.9778 1.39303 14.9577 1.37507Z" fill="black"/>
</g>
<defs>
<clipPath id="clip0_483_13889">
<rect width="16" height="16" fill="white" transform="translate(0.333008)"/>
</clipPath>
</defs>
</svg>
