<svg width="17" height="16" viewBox="0 0 17 16" fill="none" xmlns="http://www.w3.org/2000/svg">
<g clip-path="url(#clip0_482_18008)">
<path d="M8.22245 11.4466C7.78442 11.4474 7.35053 11.3619 6.94558 11.1948C6.54064 11.0278 6.17258 10.7827 5.86245 10.4733L0.415788 5.02664C0.290252 4.9011 0.219727 4.73084 0.219727 4.55331C0.219727 4.37577 0.290252 4.20551 0.415788 4.07997C0.541323 3.95444 0.711587 3.88391 0.889121 3.88391C1.06666 3.88391 1.23692 3.95444 1.36245 4.07997L6.80912 9.52664C7.18412 9.90117 7.69245 10.1115 8.22245 10.1115C8.75246 10.1115 9.26079 9.90117 9.63579 9.52664L15.0825 4.07997C15.208 3.95444 15.3783 3.88391 15.5558 3.88391C15.7333 3.88391 15.9036 3.95444 16.0291 4.07997C16.1547 4.20551 16.2252 4.37577 16.2252 4.55331C16.2252 4.73084 16.1547 4.9011 16.0291 5.02664L10.5825 10.4733C10.2723 10.7827 9.90427 11.0278 9.49932 11.1948C9.09438 11.3619 8.66049 11.4474 8.22245 11.4466Z" fill="black"/>
</g>
<defs>
<clipPath id="clip0_482_18008">
<rect width="16" height="16" fill="white" transform="translate(0.222656)"/>
</clipPath>
</defs>
</svg>
