<svg width="17" height="16" viewBox="0 0 17 16" fill="none" xmlns="http://www.w3.org/2000/svg">
<path d="M8.111 0.666667V4.66667C8.11003 5.4348 7.84428 6.17912 7.35852 6.77417C6.87277 7.36921 6.19673 7.7786 5.44434 7.93333V15.3333C5.44434 15.5101 5.3741 15.6797 5.24907 15.8047C5.12405 15.9298 4.95448 16 4.77767 16C4.60086 16 4.43129 15.9298 4.30626 15.8047C4.18124 15.6797 4.111 15.5101 4.111 15.3333V7.93333C3.35861 7.7786 2.68257 7.36921 2.19681 6.77417C1.71106 6.17912 1.44531 5.4348 1.44434 4.66667V0.666667C1.44434 0.489856 1.51457 0.320286 1.6396 0.195262C1.76462 0.0702379 1.93419 0 2.111 0C2.28781 0 2.45738 0.0702379 2.58241 0.195262C2.70743 0.320286 2.77767 0.489856 2.77767 0.666667V4.66667C2.77938 5.07884 2.90839 5.48042 3.14706 5.81647C3.38573 6.15251 3.7224 6.40661 4.111 6.544V0.666667C4.111 0.489856 4.18124 0.320286 4.30626 0.195262C4.43129 0.0702379 4.60086 0 4.77767 0C4.95448 0 5.12405 0.0702379 5.24907 0.195262C5.3741 0.320286 5.44434 0.489856 5.44434 0.666667V6.544C5.83294 6.40661 6.16961 6.15251 6.40828 5.81647C6.64695 5.48042 6.77596 5.07884 6.77767 4.66667V0.666667C6.77767 0.489856 6.84791 0.320286 6.97293 0.195262C7.09796 0.0702379 7.26753 0 7.44434 0C7.62115 0 7.79072 0.0702379 7.91574 0.195262C8.04076 0.320286 8.111 0.489856 8.111 0.666667ZM14.7777 6.66667C14.7479 7.93363 14.4326 9.17755 13.8555 10.3058C13.2784 11.4341 12.4542 12.4177 11.4443 13.1833V15.3333C11.4443 15.5101 11.3741 15.6797 11.2491 15.8047C11.1241 15.9298 10.9545 16 10.7777 16C10.6009 16 10.4313 15.9298 10.3063 15.8047C10.1812 15.6797 10.111 15.5101 10.111 15.3333V1.33333C10.105 1.08284 10.1735 0.836205 10.3077 0.624619C10.4419 0.413034 10.6358 0.246007 10.865 0.144667C11.1282 0.0375768 11.417 0.00948677 11.6959 0.0638294C11.9748 0.118172 12.2319 0.252594 12.4357 0.450667C13.9819 2.1473 14.8199 4.37153 14.7777 6.66667ZM13.4443 6.66667C13.4632 4.71477 12.7496 2.82672 11.4443 1.37533V11.38C12.6937 10.1255 13.4103 8.43687 13.4443 6.66667Z" fill="black"/>
</svg>
