<svg width="16" height="16" viewBox="0 0 16 16" fill="none" xmlns="http://www.w3.org/2000/svg">
<g clip-path="url(#clip0_483_13701)">
<path d="M4.66634 16.0004C5.40272 16.0004 5.99967 15.4034 5.99967 14.6671C5.99967 13.9307 5.40272 13.3337 4.66634 13.3337C3.92996 13.3337 3.33301 13.9307 3.33301 14.6671C3.33301 15.4034 3.92996 16.0004 4.66634 16.0004Z" fill="black"/>
<path d="M11.3333 16.0004C12.0697 16.0004 12.6667 15.4035 12.6667 14.6671C12.6667 13.9307 12.0697 13.3338 11.3333 13.3338C10.597 13.3338 10 13.9307 10 14.6671C10 15.4035 10.597 16.0004 11.3333 16.0004Z" fill="black"/>
<path d="M15.3336 2H14.0003V0.666667C14.0003 0.489856 13.9301 0.320286 13.8051 0.195262C13.68 0.0702379 13.5105 0 13.3337 0C13.1568 0 12.9873 0.0702379 12.8622 0.195262C12.7372 0.320286 12.667 0.489856 12.667 0.666667V2H11.3337C11.1568 2 10.9873 2.07024 10.8623 2.19526C10.7372 2.32029 10.667 2.48986 10.667 2.66667C10.667 2.84348 10.7372 3.01305 10.8623 3.13807C10.9873 3.2631 11.1568 3.33333 11.3337 3.33333H12.667V4.66667C12.667 4.84348 12.7372 5.01305 12.8622 5.13807C12.9873 5.2631 13.1568 5.33333 13.3337 5.33333C13.5105 5.33333 13.68 5.2631 13.8051 5.13807C13.9301 5.01305 14.0003 4.84348 14.0003 4.66667V3.33333H15.3336C15.5105 3.33333 15.68 3.2631 15.8051 3.13807C15.9301 3.01305 16.0003 2.84348 16.0003 2.66667C16.0003 2.48986 15.9301 2.32029 15.8051 2.19526C15.68 2.07024 15.5105 2 15.3336 2Z" fill="black"/>
<path d="M14.514 6.484C14.4278 6.46787 14.3393 6.46901 14.2535 6.48735C14.1678 6.5057 14.0865 6.54088 14.0144 6.59086C13.9424 6.64084 13.881 6.70463 13.8337 6.77852C13.7865 6.85242 13.7544 6.93495 13.7393 7.02133C13.6562 7.48277 13.4136 7.90033 13.0539 8.20106C12.6941 8.5018 12.2402 8.6666 11.7713 8.66667H3.612L2.98533 3.33333H8.66667C8.84348 3.33333 9.01305 3.2631 9.13807 3.13807C9.2631 3.01305 9.33333 2.84348 9.33333 2.66667C9.33333 2.48986 9.2631 2.32029 9.13807 2.19526C9.01305 2.07024 8.84348 2 8.66667 2H2.828L2.8 1.76533C2.74255 1.27907 2.50871 0.830769 2.14279 0.505403C1.77688 0.180036 1.30432 0.000208558 0.814667 0L0.666667 0C0.489856 0 0.320286 0.0702379 0.195262 0.195262C0.0702379 0.320286 0 0.489856 0 0.666667C0 0.843478 0.0702379 1.01305 0.195262 1.13807C0.320286 1.2631 0.489856 1.33333 0.666667 1.33333H0.814667C0.977956 1.33335 1.13556 1.3933 1.25758 1.50181C1.3796 1.61032 1.45756 1.75983 1.47667 1.922L2.394 9.722C2.48923 10.5332 2.87899 11.2812 3.48927 11.824C4.09956 12.3668 4.8879 12.6667 5.70467 12.6667H12.6667C12.8435 12.6667 13.013 12.5964 13.1381 12.4714C13.2631 12.3464 13.3333 12.1768 13.3333 12C13.3333 11.8232 13.2631 11.6536 13.1381 11.5286C13.013 11.4036 12.8435 11.3333 12.6667 11.3333H5.70467C5.29101 11.3334 4.88751 11.2052 4.54974 10.9664C4.21197 10.7276 3.95655 10.39 3.81867 10H11.7713C12.5528 10.0001 13.3094 9.72561 13.909 9.22455C14.5087 8.72348 14.9132 8.02768 15.052 7.25867C15.0676 7.17247 15.066 7.08405 15.0474 6.99847C15.0288 6.91288 14.9935 6.83179 14.9435 6.75985C14.8936 6.68791 14.8299 6.62652 14.7562 6.57919C14.6825 6.53185 14.6002 6.49951 14.514 6.484Z" fill="black"/>
</g>
<defs>
<clipPath id="clip0_483_13701">
<rect width="16" height="16" fill="white"/>
</clipPath>
</defs>
</svg>
