<svg width="16" height="16" viewBox="0 0 16 16" fill="none" xmlns="http://www.w3.org/2000/svg">
<g clip-path="url(#clip0_482_18017)">
<path d="M13.9333 2.86069C13.6985 2.21817 13.2721 1.66322 12.7118 1.27084C12.1514 0.878469 11.4841 0.667583 10.8 0.666687H5.2C4.51592 0.667583 3.84861 0.878469 3.28824 1.27084C2.72788 1.66322 2.30148 2.21817 2.06667 2.86069L0.26667 7.81202C0.0896361 8.29967 -0.000616488 8.81456 3.16924e-06 9.33335V10C0.00119272 10.5152 0.122291 11.0231 0.353713 11.4834C0.585135 11.9437 0.920526 12.3438 1.33334 12.652C1.33334 12.6574 1.33334 12.6614 1.33334 12.6667V14C1.33334 14.5305 1.54405 15.0392 1.91912 15.4142C2.2942 15.7893 2.8029 16 3.33334 16C3.86377 16 4.37248 15.7893 4.74755 15.4142C5.12262 15.0392 5.33334 14.5305 5.33334 14V13.3334H10.6667V14C10.6667 14.5305 10.8774 15.0392 11.2525 15.4142C11.6275 15.7893 12.1362 16 12.6667 16C13.1971 16 13.7058 15.7893 14.0809 15.4142C14.456 15.0392 14.6667 14.5305 14.6667 14V12.6667C14.6667 12.6614 14.6667 12.6574 14.6667 12.652C15.0795 12.3438 15.4149 11.9437 15.6463 11.4834C15.8777 11.0231 15.9988 10.5152 16 10V9.33335C16.0007 8.81477 15.9104 8.30009 15.7333 7.81269L13.9333 2.86069ZM3.32134 3.31669C3.46229 2.93147 3.71796 2.59872 4.05388 2.36329C4.38979 2.12787 4.7898 2.00108 5.2 2.00002H10.8C11.2104 2.00081 11.6107 2.12747 11.9469 2.36291C12.2831 2.59836 12.539 2.93125 12.68 3.31669L14.1387 7.33335H1.86067L3.32134 3.31669ZM4 14C4 14.1768 3.92977 14.3464 3.80474 14.4714C3.67972 14.5964 3.51015 14.6667 3.33334 14.6667C3.15653 14.6667 2.98696 14.5964 2.86193 14.4714C2.73691 14.3464 2.66667 14.1768 2.66667 14V13.2667C2.88609 13.3112 3.10944 13.3336 3.33334 13.3334H4V14ZM13.3333 14C13.3333 14.1768 13.2631 14.3464 13.1381 14.4714C13.0131 14.5964 12.8435 14.6667 12.6667 14.6667C12.4899 14.6667 12.3203 14.5964 12.1953 14.4714C12.0702 14.3464 12 14.1768 12 14V13.3334H12.6667C12.8906 13.3336 13.1139 13.3112 13.3333 13.2667V14ZM14.6667 10C14.6667 10.5305 14.456 11.0392 14.0809 11.4142C13.7058 11.7893 13.1971 12 12.6667 12H3.33334C2.8029 12 2.2942 11.7893 1.91912 11.4142C1.54405 11.0392 1.33334 10.5305 1.33334 10V9.33335C1.33605 9.10887 1.3631 8.88534 1.414 8.66669H2.66667V9.33335C2.66667 9.51017 2.73691 9.67973 2.86193 9.80476C2.98696 9.92978 3.15653 10 3.33334 10C3.51015 10 3.67972 9.92978 3.80474 9.80476C3.92977 9.67973 4 9.51017 4 9.33335V8.66669H12V9.33335C12 9.51017 12.0702 9.67973 12.1953 9.80476C12.3203 9.92978 12.4899 10 12.6667 10C12.8435 10 13.0131 9.92978 13.1381 9.80476C13.2631 9.67973 13.3333 9.51017 13.3333 9.33335V8.66669H14.586C14.6369 8.88533 14.664 9.10887 14.6667 9.33335V10Z" fill="black"/>
</g>
<defs>
<clipPath id="clip0_482_18017">
<rect width="16" height="16" fill="white"/>
</clipPath>
</defs>
</svg>
