<svg width="17" height="16" viewBox="0 0 17 16" fill="none" xmlns="http://www.w3.org/2000/svg">
<g clip-path="url(#clip0_482_17993)">
<path d="M13.3337 0H4.00033C3.1166 0.00105857 2.26936 0.352588 1.64447 0.97748C1.01958 1.60237 0.668051 2.4496 0.666992 3.33333L0.666992 12.6667C0.668051 13.5504 1.01958 14.3976 1.64447 15.0225C2.26936 15.6474 3.1166 15.9989 4.00033 16H13.3337C14.2174 15.9989 15.0646 15.6474 15.6895 15.0225C16.3144 14.3976 16.6659 13.5504 16.667 12.6667V3.33333C16.6659 2.4496 16.3144 1.60237 15.6895 0.97748C15.0646 0.352588 14.2174 0.00105857 13.3337 0V0ZM15.3337 12.6667C15.3337 13.1971 15.1229 13.7058 14.7479 14.0809C14.3728 14.456 13.8641 14.6667 13.3337 14.6667H4.00033C3.46989 14.6667 2.96118 14.456 2.58611 14.0809C2.21104 13.7058 2.00033 13.1971 2.00033 12.6667V3.33333C2.00033 2.8029 2.21104 2.29419 2.58611 1.91912C2.96118 1.54405 3.46989 1.33333 4.00033 1.33333H13.3337C13.8641 1.33333 14.3728 1.54405 14.7479 1.91912C15.1229 2.29419 15.3337 2.8029 15.3337 3.33333V12.6667Z" fill="black"/>
<path d="M6.8892 10.6127L4.27653 8.00003C4.15151 7.87505 3.98197 7.80484 3.8052 7.80484C3.62842 7.80484 3.45888 7.87505 3.33386 8.00003C3.20888 8.12505 3.13867 8.29459 3.13867 8.47136C3.13867 8.64814 3.20888 8.81768 3.33386 8.9427L5.94653 11.5554C6.07035 11.6792 6.21736 11.7775 6.37916 11.8445C6.54096 11.9116 6.71439 11.9461 6.88953 11.9461C7.06467 11.9461 7.2381 11.9116 7.3999 11.8445C7.5617 11.7775 7.70871 11.6792 7.83253 11.5554L14.0005 5.38737C14.1255 5.26235 14.1957 5.09281 14.1957 4.91604C14.1957 4.73926 14.1255 4.56972 14.0005 4.4447C13.8755 4.31972 13.706 4.24951 13.5292 4.24951C13.3524 4.24951 13.1829 4.31972 13.0579 4.4447L6.8892 10.6127Z" fill="black"/>
</g>
<defs>
<clipPath id="clip0_482_17993">
<rect width="16" height="16" fill="white" transform="translate(0.666992)"/>
</clipPath>
</defs>
</svg>
