<svg width="17" height="16" viewBox="0 0 17 16" fill="none" xmlns="http://www.w3.org/2000/svg">
<g clip-path="url(#clip0_483_13818)">
<path d="M14.6663 16.0002H1.99967C1.7808 16.0002 1.56408 15.9571 1.36187 15.8733C1.15966 15.7896 0.975927 15.6668 0.821163 15.512C0.666399 15.3573 0.543633 15.1736 0.459875 14.9713C0.376117 14.7691 0.333008 14.5524 0.333008 14.3335C0.333008 13.8915 0.508603 13.4676 0.821163 13.155C1.13372 12.8425 1.55765 12.6669 1.99967 12.6669H14.6663C14.8852 12.6669 15.1019 12.71 15.3041 12.7937C15.5064 12.8775 15.6901 13.0003 15.8449 13.155C15.9996 13.3098 16.1224 13.4935 16.2061 13.6957C16.2899 13.8979 16.333 14.1147 16.333 14.3335C16.333 14.5524 16.2899 14.7691 16.2061 14.9713C16.1224 15.1736 15.9996 15.3573 15.8449 15.512C15.6901 15.6668 15.5064 15.7896 15.3041 15.8733C15.1019 15.9571 14.8852 16.0002 14.6663 16.0002ZM16.333 9.33354C16.333 8.97991 16.1925 8.64078 15.9425 8.39073C15.6924 8.14068 15.3533 8.0002 14.9997 8.0002H1.66634C1.31272 8.0002 0.973581 8.14068 0.723532 8.39073C0.473484 8.64078 0.333008 8.97991 0.333008 9.33354C0.333008 9.68716 0.473484 10.0263 0.723532 10.2763C0.973581 10.5264 1.31272 10.6669 1.66634 10.6669H14.9997C15.3533 10.6669 15.6924 10.5264 15.9425 10.2763C16.1925 10.0263 16.333 9.68716 16.333 9.33354ZM16.333 5.0002C16.333 4.73499 16.2277 4.48063 16.0401 4.2931C15.8526 4.10556 15.5982 4.0002 15.333 4.0002H1.33301C1.06779 4.0002 0.813437 4.10556 0.625901 4.2931C0.438365 4.48063 0.333008 4.73499 0.333008 5.0002C0.333008 5.26542 0.438365 5.51977 0.625901 5.70731C0.813437 5.89485 1.06779 6.0002 1.33301 6.0002H15.333C15.5982 6.0002 15.8526 5.89485 16.0401 5.70731C16.2277 5.51977 16.333 5.26542 16.333 5.0002ZM16.333 1.33354C16.333 1.15673 16.2628 0.987156 16.1377 0.862132C16.0127 0.737108 15.8432 0.66687 15.6663 0.66687H0.999674C0.822863 0.66687 0.653294 0.737108 0.52827 0.862132C0.403246 0.987156 0.333008 1.15673 0.333008 1.33354C0.333008 1.51035 0.403246 1.67992 0.52827 1.80494C0.653294 1.92997 0.822863 2.0002 0.999674 2.0002H15.6663C15.8432 2.0002 16.0127 1.92997 16.1377 1.80494C16.2628 1.67992 16.333 1.51035 16.333 1.33354Z" fill="black"/>
</g>
<defs>
<clipPath id="clip0_483_13818">
<rect width="16" height="16" fill="white" transform="translate(0.333008)"/>
</clipPath>
</defs>
</svg>
