<svg width="17" height="16" viewBox="0 0 17 16" fill="none" xmlns="http://www.w3.org/2000/svg">
<g clip-path="url(#clip0_482_18029)">
<path d="M15.2223 4.66667C15.576 4.66667 15.9151 4.52619 16.1651 4.27614C16.4152 4.02609 16.5557 3.68696 16.5557 3.33333V0.666667C16.5557 0.489856 16.4854 0.320286 16.3604 0.195262C16.2354 0.0702379 16.0658 0 15.889 0C15.7122 0 15.5426 0.0702379 15.4176 0.195262C15.2926 0.320286 15.2223 0.489856 15.2223 0.666667V3.33333H12.5557C12.5437 3.33333 12.5343 3.33933 12.5223 3.34C12.2035 2.55 11.6558 1.87332 10.9496 1.39681C10.2434 0.920302 9.41092 0.665708 8.559 0.665708C7.70708 0.665708 6.87459 0.920302 6.1684 1.39681C5.46221 1.87332 4.91453 2.55 4.59566 3.34C4.58166 3.34067 4.56966 3.33333 4.55566 3.33333H1.889V0.666667C1.889 0.489856 1.81876 0.320286 1.69374 0.195262C1.56871 0.0702379 1.39914 0 1.22233 0C1.04552 0 0.87595 0.0702379 0.750926 0.195262C0.625902 0.320286 0.555664 0.489856 0.555664 0.666667L0.555664 3.33333C0.555664 3.68696 0.69614 4.02609 0.946188 4.27614C1.19624 4.52619 1.53538 4.66667 1.889 4.66667H4.21233L3.537 7.33333H1.22233C1.04552 7.33333 0.87595 7.40357 0.750926 7.5286C0.625902 7.65362 0.555664 7.82319 0.555664 8C0.555664 8.17681 0.625902 8.34638 0.750926 8.47141C0.87595 8.59643 1.04552 8.66667 1.22233 8.66667H3.199L3.10233 9.04867L3.089 9.13333C3.05927 9.36149 3.04369 9.59126 3.04233 9.82133C3.04301 10.3329 3.11549 10.8419 3.25766 11.3333H1.889C1.53538 11.3333 1.19624 11.4738 0.946188 11.7239C0.69614 11.9739 0.555664 12.313 0.555664 12.6667L0.555664 15.3333C0.555664 15.5101 0.625902 15.6797 0.750926 15.8047C0.87595 15.9298 1.04552 16 1.22233 16C1.39914 16 1.56871 15.9298 1.69374 15.8047C1.81876 15.6797 1.889 15.5101 1.889 15.3333V12.6667H3.84233C4.33107 13.4801 5.02201 14.1532 5.84794 14.6205C6.67388 15.0878 7.6067 15.3334 8.55566 15.3334C9.50463 15.3334 10.4374 15.0878 11.2634 14.6205C12.0893 14.1532 12.7803 13.4801 13.269 12.6667H15.2223V15.3333C15.2223 15.5101 15.2926 15.6797 15.4176 15.8047C15.5426 15.9298 15.7122 16 15.889 16C16.0658 16 16.2354 15.9298 16.3604 15.8047C16.4854 15.6797 16.5557 15.5101 16.5557 15.3333V12.6667C16.5557 12.313 16.4152 11.9739 16.1651 11.7239C15.9151 11.4738 15.576 11.3333 15.2223 11.3333H13.8537C13.9966 10.8409 14.0695 10.3308 14.0703 9.818C14.0684 9.58901 14.0524 9.36035 14.0223 9.13333L13.9057 8.66667H15.889C16.0658 8.66667 16.2354 8.59643 16.3604 8.47141C16.4854 8.34638 16.5557 8.17681 16.5557 8C16.5557 7.82319 16.4854 7.65362 16.3604 7.5286C16.2354 7.40357 16.0658 7.33333 15.889 7.33333H13.5703L12.8977 4.66667H15.2223ZM8.55566 14C7.44697 13.9988 6.38405 13.5577 5.60014 12.7737C4.81624 11.9897 4.37539 10.9267 4.37433 9.818C4.37525 9.65597 4.38571 9.49413 4.40566 9.33333L5.759 3.98C5.9621 3.4034 6.33845 2.90367 6.83653 2.54921C7.3346 2.19475 7.93005 2.00289 8.54137 1.9999C9.15269 1.99691 9.74999 2.18293 10.2515 2.53249C10.753 2.88206 11.1343 3.37808 11.343 3.95267L12.7057 9.33333C12.7256 9.49369 12.736 9.65508 12.737 9.81667C12.7363 10.9256 12.2956 11.9889 11.5117 12.7732C10.7277 13.5576 9.66459 13.9988 8.55566 14Z" fill="black"/>
</g>
<defs>
<clipPath id="clip0_482_18029">
<rect width="16" height="16" fill="white" transform="translate(0.555664)"/>
</clipPath>
</defs>
</svg>
