<svg width="16" height="16" viewBox="0 0 16 16" fill="none" xmlns="http://www.w3.org/2000/svg">
<g clip-path="url(#clip0_483_13777)">
<path d="M15.7873 2.178C15.6623 2.05302 15.4928 1.98281 15.316 1.98281C15.1392 1.98281 14.9697 2.05302 14.8447 2.178L12.862 4.16C12.737 4.285 12.6667 4.45454 12.6667 4.63133V12C12.6667 12.1768 12.5964 12.3464 12.4714 12.4714C12.3464 12.5964 12.1768 12.6667 12 12.6667H10.6667V3.33333C10.6656 2.4496 10.3141 1.60237 9.68919 0.97748C9.06429 0.352588 8.21706 0.00105857 7.33333 0L3.33333 0C2.4496 0.00105857 1.60237 0.352588 0.97748 0.97748C0.352588 1.60237 0.00105857 2.4496 0 3.33333L0 12.6667C0.00105857 13.5504 0.352588 14.3976 0.97748 15.0225C1.60237 15.6474 2.4496 15.9989 3.33333 16H7.33333C7.98118 15.9991 8.61473 15.8095 9.15653 15.4543C9.69832 15.0991 10.1249 14.5938 10.384 14H12C12.5304 14 13.0391 13.7893 13.4142 13.4142C13.7893 13.0391 14 12.5304 14 12V4.90733L15.7873 3.12067C15.9123 2.99565 15.9825 2.82611 15.9825 2.64933C15.9825 2.47256 15.9123 2.30302 15.7873 2.178ZM3.33333 1.33333H7.33333C7.86377 1.33333 8.37247 1.54405 8.74755 1.91912C9.12262 2.29419 9.33333 2.8029 9.33333 3.33333V6H8C7.99738 5.36192 7.76416 4.74631 7.34333 4.26667L7.80467 3.80467C7.86834 3.74317 7.91913 3.66961 7.95407 3.58827C7.98901 3.50693 8.0074 3.41945 8.00817 3.33093C8.00894 3.24241 7.99207 3.15463 7.95855 3.0727C7.92503 2.99077 7.87552 2.91633 7.81293 2.85374C7.75033 2.79114 7.6759 2.74164 7.59397 2.70812C7.51204 2.6746 7.42425 2.65773 7.33573 2.6585C7.24721 2.65927 7.15973 2.67766 7.0784 2.7126C6.99706 2.74754 6.9235 2.79833 6.862 2.862L6.226 3.498C5.8246 3.3492 5.39304 3.30019 4.9685 3.35519C4.54395 3.4102 4.13914 3.56757 3.78891 3.81375C3.43869 4.05994 3.15355 4.38757 2.95805 4.76842C2.76255 5.14926 2.66255 5.57192 2.66667 6H1.33333V3.33333C1.33333 2.8029 1.54405 2.29419 1.91912 1.91912C2.29419 1.54405 2.8029 1.33333 3.33333 1.33333ZM4 6C4 5.64638 4.14048 5.30724 4.39052 5.05719C4.64057 4.80714 4.97971 4.66667 5.33333 4.66667C5.68696 4.66667 6.02609 4.80714 6.27614 5.05719C6.52619 5.30724 6.66667 5.64638 6.66667 6H4ZM7.33333 14.6667H3.33333C2.8029 14.6667 2.29419 14.456 1.91912 14.0809C1.54405 13.7058 1.33333 13.1971 1.33333 12.6667V7.33333H9.33333V12.6667C9.33333 13.1971 9.12262 13.7058 8.74755 14.0809C8.37247 14.456 7.86377 14.6667 7.33333 14.6667Z" fill="black"/>
</g>
<defs>
<clipPath id="clip0_483_13777">
<rect width="16" height="16" fill="white"/>
</clipPath>
</defs>
</svg>
