<svg width="17" height="16" viewBox="0 0 17 16" fill="none" xmlns="http://www.w3.org/2000/svg">
<g clip-path="url(#clip0_483_13757)">
<path d="M16.1107 13.3331H10.6547C10.453 12.7685 10.0087 12.3241 9.44403 12.1225V9.3478C10.34 9.3478 11.124 9.3398 11.5074 9.33245C11.7467 9.32795 11.9848 9.29867 12.218 9.24511C13.4431 8.96005 14.3996 8.00349 14.6847 6.77845C15.1034 5.02324 14.0531 3.25258 12.312 2.77845L12.1974 2.75311C11.9974 2.70845 11.8967 2.68645 11.8054 2.46711C10.9593 0.426392 8.61913 -0.542108 6.57841 0.303924C5.40497 0.790392 4.53238 1.80533 4.22734 3.03842C4.083 3.63564 4.07003 4.25705 4.18934 4.85977C3.00559 5.36911 2.45891 6.74161 2.96822 7.92533C3.24778 8.57508 3.807 9.06292 4.48866 9.25177C4.67006 9.29995 4.85638 9.32727 5.044 9.33311C5.48066 9.34511 6.73334 9.35045 8.04 9.35045H8.11066V12.1231C7.54619 12.3246 7.10184 12.7687 6.9 13.3331H1.444C1.07581 13.3331 0.777344 13.6316 0.777344 13.9998C0.777344 14.368 1.07581 14.6664 1.444 14.6664H6.9C7.26122 15.7032 8.39456 16.2509 9.43137 15.8897C10.0045 15.6901 10.455 15.2395 10.6547 14.6664H16.1107C16.4788 14.6664 16.7773 14.368 16.7773 13.9998C16.7773 13.6316 16.4789 13.3331 16.1107 13.3331ZM5.08134 7.99977C4.99575 7.9967 4.91075 7.98395 4.828 7.96177C4.49844 7.8693 4.24078 7.61192 4.148 7.28242C4.00612 6.79649 4.24975 6.28117 4.71534 6.08242C5.31406 5.82902 5.64537 5.18324 5.502 4.54908C5.19806 3.10802 6.11991 1.69342 7.56097 1.38952C7.60906 1.37936 7.65744 1.37055 7.706 1.36308C7.83603 1.34386 7.96725 1.33383 8.09866 1.33308C9.18194 1.32933 10.1605 1.9792 10.5773 2.97908C10.8127 3.56389 11.3424 3.97849 11.9667 4.06642C13.014 4.35645 13.6427 5.42464 13.388 6.48108C13.2125 7.20505 12.6459 7.76952 11.9213 7.94242C11.7775 7.97614 11.6304 7.99449 11.4827 7.99708C11.0207 8.00577 5.58469 8.01311 5.08134 7.99977ZM8.77734 14.6664C8.40916 14.6664 8.11069 14.368 8.11069 13.9998C8.11069 13.6316 8.40916 13.3331 8.77734 13.3331C9.14553 13.3331 9.444 13.6316 9.444 13.9998C9.444 14.368 9.14553 14.6664 8.77734 14.6664Z" fill="black"/>
</g>
<defs>
<clipPath id="clip0_483_13757">
<rect width="16" height="16" fill="white" transform="translate(0.777344)"/>
</clipPath>
</defs>
</svg>
