<svg width="17" height="16" viewBox="0 0 17 16" fill="none" xmlns="http://www.w3.org/2000/svg">
<g clip-path="url(#clip0_483_13655)">
<path d="M16.333 8C16.333 10.1217 15.4902 12.1566 13.9899 13.6569C12.4896 15.1571 10.4547 16 8.33301 16C6.21128 16 4.17644 15.1571 2.67615 13.6569C1.17586 12.1566 0.333008 10.1217 0.333008 8C0.333008 7.82319 0.403246 7.65362 0.52827 7.5286C0.653294 7.40357 0.822863 7.33333 0.999674 7.33333C1.17649 7.33333 1.34605 7.40357 1.47108 7.5286C1.5961 7.65362 1.66634 7.82319 1.66634 8C1.66634 9.31854 2.05733 10.6075 2.78988 11.7038C3.52242 12.8001 4.56361 13.6546 5.78179 14.1592C6.99996 14.6638 8.3404 14.7958 9.63361 14.5386C10.9268 14.2813 12.1147 13.6464 13.0471 12.714C13.9794 11.7817 14.6143 10.5938 14.8716 9.3006C15.1288 8.0074 14.9968 6.66695 14.4922 5.44878C13.9876 4.2306 13.1331 3.18941 12.0368 2.45687C10.9405 1.72433 9.65155 1.33333 8.33301 1.33333C8.1562 1.33333 7.98663 1.2631 7.8616 1.13807C7.73658 1.01305 7.66634 0.843478 7.66634 0.666667C7.66634 0.489856 7.73658 0.320286 7.8616 0.195262C7.98663 0.0702379 8.1562 0 8.33301 0C10.454 0.00229405 12.4875 0.845885 13.9873 2.34568C15.4871 3.84547 16.3307 5.87897 16.333 8ZM7.18434 7.33333H5.66634C5.48953 7.33333 5.31996 7.40357 5.19494 7.5286C5.06991 7.65362 4.99967 7.82319 4.99967 8C4.99967 8.17681 5.06991 8.34638 5.19494 8.47141C5.31996 8.59643 5.48953 8.66667 5.66634 8.66667H7.18434C7.28615 8.84348 7.4273 8.99449 7.59685 9.108C7.7664 9.2215 7.9598 9.29445 8.16207 9.32121C8.36434 9.34795 8.57006 9.32778 8.76329 9.26226C8.95651 9.19673 9.13206 9.0876 9.27633 8.94333C9.42061 8.79905 9.52974 8.6235 9.59526 8.43028C9.66079 8.23705 9.68096 8.03134 9.65421 7.82906C9.62746 7.62679 9.55451 7.43339 9.44101 7.26384C9.3275 7.09429 9.17649 6.95314 8.99967 6.85133V4.66667C8.99967 4.48986 8.92944 4.32029 8.80441 4.19526C8.67939 4.07024 8.50982 4 8.33301 4C8.1562 4 7.98663 4.07024 7.8616 4.19526C7.73658 4.32029 7.66634 4.48986 7.66634 4.66667V6.85133C7.46663 6.96752 7.30053 7.13362 7.18434 7.33333ZM1.55101 5.856C1.68286 5.856 1.81176 5.8169 1.92139 5.74365C2.03102 5.67039 2.11647 5.56627 2.16693 5.44446C2.21739 5.32264 2.23059 5.18859 2.20486 5.05927C2.17914 4.92995 2.11565 4.81116 2.02241 4.71793C1.92918 4.62469 1.81039 4.5612 1.68107 4.53548C1.55175 4.50975 1.4177 4.52296 1.29589 4.57341C1.17407 4.62387 1.06995 4.70932 0.996695 4.81895C0.92344 4.92859 0.884341 5.05748 0.884341 5.18933C0.884341 5.36614 0.954579 5.53571 1.0796 5.66074C1.20463 5.78576 1.3742 5.856 1.55101 5.856ZM3.14701 3.47133C3.27886 3.47133 3.40776 3.43223 3.51739 3.35898C3.62702 3.28573 3.71247 3.18161 3.76293 3.05979C3.81339 2.93797 3.82659 2.80393 3.80086 2.67461C3.77514 2.54529 3.71165 2.4265 3.61841 2.33326C3.52518 2.24003 3.40639 2.17653 3.27707 2.15081C3.14775 2.12509 3.0137 2.13829 2.89189 2.18875C2.77007 2.23921 2.66595 2.32465 2.59269 2.43429C2.51944 2.54392 2.48034 2.67281 2.48034 2.80467C2.48034 2.98148 2.55058 3.15105 2.6756 3.27607C2.80063 3.4011 2.9702 3.47133 3.14701 3.47133ZM5.51901 1.894C5.65086 1.894 5.77976 1.8549 5.88939 1.78165C5.99902 1.70839 6.08447 1.60427 6.13493 1.48246C6.18539 1.36064 6.19859 1.22659 6.17286 1.09727C6.14714 0.967952 6.08365 0.849164 5.99041 0.755929C5.89718 0.662694 5.77839 0.5992 5.64907 0.573476C5.51975 0.547753 5.3857 0.560955 5.26389 0.611414C5.14207 0.661872 5.03795 0.74732 4.96469 0.856953C4.89144 0.966586 4.85234 1.09548 4.85234 1.22733C4.85234 1.40414 4.92258 1.57371 5.0476 1.69874C5.17263 1.82376 5.3422 1.894 5.51901 1.894Z" fill="black"/>
</g>
<defs>
<clipPath id="clip0_483_13655">
<rect width="16" height="16" fill="white" transform="translate(0.333008)"/>
</clipPath>
</defs>
</svg>
