<svg width="17" height="16" viewBox="0 0 17 16" fill="none" xmlns="http://www.w3.org/2000/svg">
<g clip-path="url(#clip0_483_13675)">
<path d="M13.7675 2.34398C12.6489 1.22646 11.2242 0.465659 9.67331 0.157737C8.12244 -0.150185 6.5151 0.00859873 5.05445 0.614017C3.59381 1.21943 2.34545 2.24431 1.46717 3.55908C0.588886 4.87385 0.120117 6.4195 0.120117 8.00064C0.120117 9.58178 0.588886 11.1274 1.46717 12.4422C2.34545 13.757 3.59381 14.7819 5.05445 15.3873C6.5151 15.9927 8.12244 16.1515 9.67331 15.8435C11.2242 15.5356 12.6489 14.7748 13.7675 13.6573C15.2656 12.1559 16.1069 10.1216 16.1069 8.00064C16.1069 5.8797 15.2656 3.84538 13.7675 2.34398ZM14.7335 7.28864C13.9341 7.38562 13.123 7.29947 12.3618 7.03671C11.6005 6.77396 10.9091 6.34147 10.3396 5.772C9.77024 5.20253 9.33783 4.51099 9.07516 3.74972C8.81249 2.98846 8.72643 2.17741 8.8235 1.37798C10.3367 1.53706 11.7493 2.21093 12.8251 3.28685C13.9009 4.36276 14.5746 5.77547 14.7335 7.28864ZM1.48817 8.71264C2.28762 8.61566 3.09865 8.70181 3.85989 8.96457C4.62112 9.22733 5.31262 9.65981 5.88202 10.2293C6.45143 10.7988 6.88383 11.4903 7.14651 12.2516C7.40918 13.0128 7.49524 13.8239 7.39817 14.6233C5.88502 14.4642 4.47238 13.7904 3.39659 12.7144C2.32079 11.6385 1.64708 10.2258 1.48817 8.71264ZM12.8248 12.7126C11.7296 13.8103 10.2843 14.4894 8.74017 14.632C8.83584 13.6542 8.71356 12.6673 8.38215 11.7424C8.05073 10.8175 7.51842 9.97756 6.8235 9.28303C6.12859 8.5885 5.28836 8.05664 4.36328 7.72574C3.4382 7.39483 2.45126 7.2731 1.4735 7.36931C1.61851 5.8255 2.29823 4.38084 3.39522 3.28495C4.49221 2.18905 5.93755 1.51077 7.4815 1.36731C7.39185 2.29168 7.49659 3.22458 7.789 4.10605C8.0814 4.98752 8.555 5.79807 9.17935 6.48558C9.80371 7.1731 10.565 7.72238 11.4143 8.09812C12.2636 8.47386 13.1821 8.66774 14.1108 8.66731C14.3222 8.66731 14.5342 8.65664 14.7462 8.63664C14.6014 10.1786 13.9217 11.6212 12.8248 12.7146V12.7126Z" fill="black"/>
</g>
<defs>
<clipPath id="clip0_483_13675">
<rect width="16" height="16" fill="white" transform="translate(0.111328)"/>
</clipPath>
</defs>
</svg>
