<svg width="17" height="16" viewBox="0 0 17 16" fill="none" xmlns="http://www.w3.org/2000/svg">
<g clip-path="url(#clip0_482_17986)">
<path d="M13.444 2.66667H13.1053L11.6493 0.778667C11.4617 0.537204 11.2216 0.341611 10.9471 0.206703C10.6727 0.0717943 10.3711 0.0011087 10.0653 0L7.48934 0C7.18354 0.0011087 6.882 0.0717943 6.60757 0.206703C6.33313 0.341611 6.09299 0.537204 5.90534 0.778667L4.44934 2.66667H4.11068C3.22695 2.66773 2.37972 3.01925 1.75482 3.64415C1.12993 4.26904 0.778402 5.11627 0.777344 6L0.777344 12.6667C0.778402 13.5504 1.12993 14.3976 1.75482 15.0225C2.37972 15.6474 3.22695 15.9989 4.11068 16H13.444C14.3277 15.9989 15.175 15.6474 15.7999 15.0225C16.4248 14.3976 16.7763 13.5504 16.7773 12.6667V6C16.7763 5.11627 16.4248 4.26904 15.7999 3.64415C15.175 3.01925 14.3277 2.66773 13.444 2.66667ZM6.96134 1.59333C7.02379 1.5127 7.10381 1.44738 7.1953 1.40232C7.28679 1.35727 7.38736 1.33367 7.48934 1.33333H10.0653C10.1673 1.33377 10.2678 1.35741 10.3593 1.40246C10.4508 1.4475 10.5308 1.51278 10.5933 1.59333L11.4213 2.66667H6.13334L6.96134 1.59333ZM15.444 12.6667C15.444 13.1971 15.2333 13.7058 14.8582 14.0809C14.4832 14.456 13.9744 14.6667 13.444 14.6667H4.11068C3.58024 14.6667 3.07154 14.456 2.69646 14.0809C2.32139 13.7058 2.11068 13.1971 2.11068 12.6667V6C2.11068 5.46957 2.32139 4.96086 2.69646 4.58579C3.07154 4.21071 3.58024 4 4.11068 4H13.444C13.9744 4 14.4832 4.21071 14.8582 4.58579C15.2333 4.96086 15.444 5.46957 15.444 6V12.6667Z" fill="black"/>
<path d="M8.77735 5.33325C7.98622 5.33325 7.21286 5.56785 6.55506 6.00737C5.89727 6.4469 5.38458 7.07161 5.08183 7.80252C4.77908 8.53342 4.69986 9.33769 4.8542 10.1136C5.00855 10.8895 5.38951 11.6023 5.94892 12.1617C6.50833 12.7211 7.22106 13.1021 7.99698 13.2564C8.77291 13.4107 9.57718 13.3315 10.3081 13.0288C11.039 12.726 11.6637 12.2133 12.1032 11.5555C12.5428 10.8977 12.7773 10.1244 12.7773 9.33325C12.7763 8.27271 12.3545 7.25591 11.6046 6.50599C10.8547 5.75608 9.83789 5.33431 8.77735 5.33325ZM8.77735 11.9999C8.24993 11.9999 7.73436 11.8435 7.29583 11.5505C6.85729 11.2575 6.5155 10.841 6.31367 10.3537C6.11183 9.86647 6.05902 9.33029 6.16192 8.81301C6.26481 8.29573 6.51879 7.82057 6.89173 7.44763C7.26467 7.07469 7.73982 6.82072 8.25711 6.71782C8.77439 6.61493 9.31057 6.66774 9.79784 6.86957C10.2851 7.07141 10.7016 7.4132 10.9946 7.85173C11.2876 8.29026 11.444 8.80584 11.444 9.33325C11.444 10.0405 11.1631 10.7188 10.663 11.2189C10.1629 11.719 9.48459 11.9999 8.77735 11.9999Z" fill="black"/>
</g>
<defs>
<clipPath id="clip0_482_17986">
<rect width="16" height="16" fill="white" transform="translate(0.777344)"/>
</clipPath>
</defs>
</svg>
