<svg width="17" height="16" viewBox="0 0 17 16" fill="none" xmlns="http://www.w3.org/2000/svg">
<g clip-path="url(#clip0_483_13748)">
<path d="M6.22022 5.33341C5.83405 5.32736 5.46196 5.18739 5.16755 4.93741C4.55346 4.37422 4.18143 3.59503 4.12955 2.76341C3.96755 1.10141 4.87422 0.120739 5.85355 0.0114055C6.08952 -0.0147568 6.32834 0.00681967 6.5558 0.0748508C6.78326 0.142882 6.9947 0.255977 7.17755 0.407405C7.45034 0.653295 7.67181 0.95069 7.82925 1.28249C7.98668 1.61428 8.07695 1.97393 8.09489 2.34074C8.24422 3.89007 7.52955 5.33341 6.22022 5.33341ZM6.00155 1.33341C5.61689 1.37607 5.38755 1.92207 5.45689 2.63074C5.4762 3.10683 5.67258 3.55855 6.00755 3.89741C6.07102 3.95974 6.15534 3.99632 6.24422 4.00007C6.47822 3.97407 6.85489 3.37274 6.76622 2.46674C6.53822 1.22274 6.01822 1.33341 6.00155 1.33674V1.33341ZM2.88689 9.33341C2.50071 9.32736 2.12863 9.18739 1.83422 8.93741C1.22013 8.37422 0.848096 7.59503 0.79622 6.76341C0.63422 5.10141 1.54089 4.12074 2.52022 4.01141C2.75618 3.98555 2.99492 4.00727 3.22233 4.07529C3.44975 4.14331 3.66121 4.25624 3.84422 4.40741C4.117 4.6533 4.33848 4.95069 4.49591 5.28249C4.65334 5.61428 4.74362 5.97393 4.76155 6.34074C4.91089 7.89007 4.16222 9.33341 2.88689 9.33341ZM2.66822 5.33341C2.28355 5.37607 2.05422 5.92207 2.12355 6.63074C2.14287 7.10683 2.33925 7.55855 2.67422 7.89741C2.7383 7.95881 2.82226 7.99523 2.91089 8.00007C3.14489 7.97407 3.52155 7.37274 3.43289 6.46674C3.25622 5.24807 2.68489 5.33341 2.66822 5.33674V5.33341ZM11.3349 5.33341C10.1962 5.34141 9.31222 3.88941 9.46355 2.33874C9.48149 1.97193 9.57176 1.61228 9.72919 1.28049C9.88663 0.94869 10.1081 0.651295 10.3809 0.405405C10.5636 0.254885 10.7745 0.142474 11.0014 0.0748052C11.2282 0.00713607 11.4663 -0.0144211 11.7016 0.0114055C12.6809 0.120739 13.5876 1.10141 13.4256 2.76341C13.3738 3.59526 13.0018 4.37472 12.3876 4.93807C12.0931 5.18781 11.721 5.32755 11.3349 5.33341ZM10.7909 2.46674C10.7022 3.37007 11.0789 3.97141 11.3129 4.00007C11.4001 3.99664 11.4832 3.96239 11.5476 3.90341C11.8825 3.56455 12.0789 3.11283 12.0982 2.63674C12.2382 0.889405 10.9109 1.00341 10.7909 2.46674ZM14.6682 9.33341C13.4269 9.33341 12.6456 7.88941 12.7969 6.33874C12.8148 5.97193 12.9051 5.61228 13.0625 5.28049C13.22 4.94869 13.4414 4.6513 13.7142 4.40541C13.8966 4.25434 14.1075 4.14144 14.3344 4.07342C14.5612 4.00539 14.7995 3.98363 15.0349 4.00941C16.0142 4.11874 16.9209 5.09941 16.7589 6.76141C16.7072 7.59327 16.3351 8.37272 15.7209 8.93607C15.4267 9.18654 15.0546 9.32699 14.6682 9.33341ZM14.1242 6.46674C14.0356 7.37007 14.4122 7.97141 14.6462 8.00007C14.7332 7.99548 14.8159 7.96138 14.8809 7.90341C15.2159 7.56455 15.4122 7.11283 15.4316 6.63674C15.4982 5.92807 15.2716 5.38207 14.8869 5.33941C14.8702 5.33341 14.1876 5.27407 14.1242 6.46674ZM11.4442 16.0001C10.8743 16.0115 10.3116 15.8721 9.81289 15.5961C9.49369 15.4279 9.13834 15.34 8.77755 15.34C8.41677 15.34 8.06142 15.4279 7.74222 15.5961C5.73355 16.7221 3.39222 15.4847 3.44422 12.6667C3.44422 9.57674 6.44889 6.66674 8.77755 6.66674C11.1062 6.66674 14.1109 9.57607 14.1109 12.6667C14.1109 14.6294 13.0142 16.0001 11.4442 16.0001ZM8.77755 14.0001C9.34732 13.9889 9.90999 14.128 10.4089 14.4034C11.9002 15.2154 12.8009 14.1147 12.7776 12.6667C12.7776 10.4134 10.4302 8.00007 8.77755 8.00007C7.12489 8.00007 4.77755 10.4134 4.77755 12.6667C4.75622 14.1127 5.64955 15.2154 7.14622 14.4034C7.64512 14.128 8.20779 13.9889 8.77755 14.0001Z" fill="black"/>
</g>
<defs>
<clipPath id="clip0_483_13748">
<rect width="16" height="16" fill="white" transform="translate(0.777344)"/>
</clipPath>
</defs>
</svg>
