<svg width="17" height="16" viewBox="0 0 17 16" fill="none" xmlns="http://www.w3.org/2000/svg">
<g clip-path="url(#clip0_483_13861)">
<path d="M8.33333 13.3333C9.74733 13.3317 11.103 12.7693 12.1028 11.7695C13.1027 10.7696 13.6651 9.414 13.6667 8V5.33333C13.6667 3.91885 13.1048 2.56229 12.1046 1.5621C11.1044 0.561903 9.74782 0 8.33333 0C6.91885 0 5.56229 0.561903 4.5621 1.5621C3.5619 2.56229 3 3.91885 3 5.33333V8C3.00159 9.414 3.564 10.7696 4.56385 11.7695C5.5637 12.7693 6.91933 13.3317 8.33333 13.3333ZM8.33333 1.33333C9.2777 1.33509 10.1911 1.67058 10.912 2.28053C11.633 2.89048 12.1152 3.73564 12.2733 4.66667H10.3333C10.1565 4.66667 9.98695 4.7369 9.86193 4.86193C9.7369 4.98695 9.66667 5.15652 9.66667 5.33333C9.66667 5.51014 9.7369 5.67971 9.86193 5.80474C9.98695 5.92976 10.1565 6 10.3333 6H12.3333V7.33333H10.3333C10.1565 7.33333 9.98695 7.40357 9.86193 7.52859C9.7369 7.65362 9.66667 7.82319 9.66667 8C9.66667 8.17681 9.7369 8.34638 9.86193 8.4714C9.98695 8.59643 10.1565 8.66667 10.3333 8.66667H12.2733C12.1166 9.59833 11.6349 10.4443 10.9136 11.0545C10.1923 11.6646 9.27808 11.9994 8.33333 11.9994C7.38859 11.9994 6.47441 11.6646 5.7531 11.0545C5.03179 10.4443 4.55002 9.59833 4.39333 8.66667H6.33333C6.51014 8.66667 6.67971 8.59643 6.80474 8.4714C6.92976 8.34638 7 8.17681 7 8C7 7.82319 6.92976 7.65362 6.80474 7.52859C6.67971 7.40357 6.51014 7.33333 6.33333 7.33333H4.33333V6H6.33333C6.51014 6 6.67971 5.92976 6.80474 5.80474C6.92976 5.67971 7 5.51014 7 5.33333C7 5.15652 6.92976 4.98695 6.80474 4.86193C6.67971 4.7369 6.51014 4.66667 6.33333 4.66667H4.39333C4.55151 3.73564 5.03368 2.89048 5.75465 2.28053C6.47561 1.67058 7.38897 1.33509 8.33333 1.33333Z" fill="black"/>
<path d="M15.6663 8C15.4895 8 15.32 8.07024 15.1949 8.19526C15.0699 8.32029 14.9997 8.48986 14.9997 8.66667C14.9979 10.2574 14.3652 11.7825 13.2404 12.9074C12.1155 14.0322 10.5904 14.6649 8.99967 14.6667H7.66634C6.07564 14.6647 4.55064 14.032 3.42584 12.9072C2.30105 11.7824 1.66828 10.2574 1.66634 8.66667C1.66634 8.48986 1.5961 8.32029 1.47108 8.19526C1.34605 8.07024 1.17649 8 0.999674 8C0.822863 8 0.653294 8.07024 0.52827 8.19526C0.403246 8.32029 0.333008 8.48986 0.333008 8.66667C0.335301 10.6109 1.10865 12.4748 2.48342 13.8496C3.85819 15.2244 5.72212 15.9977 7.66634 16H8.99967C10.9439 15.9977 12.8078 15.2244 14.1826 13.8496C15.5574 12.4748 16.3307 10.6109 16.333 8.66667C16.333 8.48986 16.2628 8.32029 16.1377 8.19526C16.0127 8.07024 15.8432 8 15.6663 8Z" fill="black"/>
</g>
<defs>
<clipPath id="clip0_483_13861">
<rect width="16" height="16" fill="white" transform="translate(0.333008)"/>
</clipPath>
</defs>
</svg>
