<svg width="17" height="16" viewBox="0 0 17 16" fill="none" xmlns="http://www.w3.org/2000/svg">
<g clip-path="url(#clip0_482_17994)">
<path d="M1.111 4.00002H15.7777C15.9545 4.00002 16.1241 3.92978 16.2491 3.80476C16.3741 3.67973 16.4443 3.51016 16.4443 3.33335C16.4443 3.15654 16.3741 2.98697 16.2491 2.86195C16.1241 2.73692 15.9545 2.66669 15.7777 2.66669H1.111C0.934192 2.66669 0.764622 2.73692 0.639598 2.86195C0.514574 2.98697 0.444336 3.15654 0.444336 3.33335C0.444336 3.51016 0.514574 3.67973 0.639598 3.80476C0.764622 3.92978 0.934192 4.00002 1.111 4.00002Z" fill="black"/>
<path d="M15.7777 6H1.111C0.934192 6 0.764622 6.07024 0.639598 6.19526C0.514574 6.32029 0.444336 6.48985 0.444336 6.66667C0.444336 6.84348 0.514574 7.01304 0.639598 7.13807C0.764622 7.26309 0.934192 7.33333 1.111 7.33333H15.7777C15.9545 7.33333 16.1241 7.26309 16.2491 7.13807C16.3741 7.01304 16.4443 6.84348 16.4443 6.66667C16.4443 6.48985 16.3741 6.32029 16.2491 6.19526C16.1241 6.07024 15.9545 6 15.7777 6Z" fill="black"/>
<path d="M15.7777 12.6666H1.111C0.934192 12.6666 0.764622 12.7369 0.639598 12.8619C0.514574 12.9869 0.444336 13.1565 0.444336 13.3333C0.444336 13.5101 0.514574 13.6797 0.639598 13.8047C0.764622 13.9297 0.934192 14 1.111 14H15.7777C15.9545 14 16.1241 13.9297 16.2491 13.8047C16.3741 13.6797 16.4443 13.5101 16.4443 13.3333C16.4443 13.1565 16.3741 12.9869 16.2491 12.8619C16.1241 12.7369 15.9545 12.6666 15.7777 12.6666Z" fill="black"/>
<path d="M15.7777 9.33337H1.111C0.934192 9.33337 0.764622 9.40361 0.639598 9.52864C0.514574 9.65366 0.444336 9.82323 0.444336 10C0.444336 10.1769 0.514574 10.3464 0.639598 10.4715C0.764622 10.5965 0.934192 10.6667 1.111 10.6667H15.7777C15.9545 10.6667 16.1241 10.5965 16.2491 10.4715C16.3741 10.3464 16.4443 10.1769 16.4443 10C16.4443 9.82323 16.3741 9.65366 16.2491 9.52864C16.1241 9.40361 15.9545 9.33337 15.7777 9.33337Z" fill="black"/>
</g>
<defs>
<clipPath id="clip0_482_17994">
<rect width="16" height="16" fill="white" transform="translate(0.444336)"/>
</clipPath>
</defs>
</svg>
