<svg width="16" height="16" viewBox="0 0 16 16" fill="none" xmlns="http://www.w3.org/2000/svg">
<g clip-path="url(#clip0_483_13822)">
<path d="M15.413 0.581072C15.2046 0.373198 14.9527 0.214132 14.6755 0.115336C14.3982 0.0165404 14.1025 -0.019525 13.8097 0.00973861C11.9477 0.189739 5.68566 0.965072 3.267 3.38107C2.11084 4.54038 1.42526 6.08696 1.34265 7.72215C1.26003 9.35734 1.78624 10.9651 2.81966 12.2351L0.193 14.8617C0.0715618 14.9875 0.00436563 15.1559 0.00588458 15.3307C0.00740352 15.5055 0.0775161 15.6727 0.201121 15.7963C0.324727 15.9199 0.491935 15.99 0.666732 15.9915C0.84153 15.993 1.00993 15.9258 1.13567 15.8044L3.76233 13.1777C5.032 14.2125 6.64024 14.7399 8.27612 14.6577C9.91201 14.5756 11.4594 13.8898 12.619 12.7331C15.0696 10.2817 15.819 4.03907 15.9916 2.18441C16.0199 1.89099 15.9826 1.59496 15.8825 1.31769C15.7825 1.04042 15.6221 0.788832 15.413 0.581072ZM11.6797 11.7877C10.7707 12.6934 9.56313 13.2373 8.28251 13.3179C7.00189 13.3985 5.7357 13.0103 4.72033 12.2257L11.1417 5.80441C11.2631 5.67867 11.3303 5.51027 11.3288 5.33547C11.3273 5.16067 11.2571 4.99347 11.1335 4.86986C11.0099 4.74625 10.8427 4.67614 10.6679 4.67462C10.4931 4.6731 10.3247 4.7403 10.199 4.86174L3.77433 11.2831C2.98965 10.2678 2.60135 9.00154 2.68195 7.72087C2.76255 6.44021 3.30654 5.23266 4.21233 4.32374C5.88499 2.65174 10.497 1.66641 13.9383 1.33641C14.0358 1.32692 14.1341 1.33903 14.2264 1.37186C14.3187 1.40469 14.4026 1.45745 14.4721 1.52637C14.5417 1.5953 14.5952 1.6787 14.6289 1.77066C14.6626 1.86261 14.6756 1.96086 14.667 2.05841C14.3337 5.64974 13.373 10.0911 11.6763 11.7877H11.6797Z" fill="black"/>
</g>
<defs>
<clipPath id="clip0_483_13822">
<rect width="16" height="16" fill="white"/>
</clipPath>
</defs>
</svg>
