<svg width="17" height="16" viewBox="0 0 17 16" fill="none" xmlns="http://www.w3.org/2000/svg">
<g clip-path="url(#clip0_483_13649)">
<path d="M13.5553 3.33293H12.1553C12.0006 2.58054 11.5912 1.90449 10.9962 1.41874C10.4011 0.932987 9.65681 0.667229 8.88867 0.66626H4.22201C3.33828 0.667318 2.49104 1.01885 1.86615 1.64374C1.24126 2.26863 0.88973 3.11586 0.888672 3.99959L0.888672 9.99959C0.890348 10.5967 1.09236 11.1759 1.46236 11.6446C1.83236 12.1132 2.34893 12.4441 2.92934 12.5843C2.86651 12.9179 2.87725 13.2612 2.9608 13.5903C3.04435 13.9193 3.19869 14.2262 3.41307 14.4894C3.62744 14.7527 3.89668 14.966 4.202 15.1144C4.50731 15.2629 4.84134 15.343 5.18079 15.349C5.52023 15.3551 5.8569 15.287 6.16731 15.1495C6.47772 15.012 6.75439 14.8084 6.97801 14.553C7.20163 14.2975 7.36682 13.9964 7.46204 13.6705C7.55727 13.3446 7.58023 13.0019 7.52934 12.6663H10.2507C10.2335 12.7766 10.2244 12.888 10.2233 12.9996C10.2233 13.6184 10.4692 14.2119 10.9068 14.6495C11.3443 15.0871 11.9378 15.3329 12.5567 15.3329C13.1755 15.3329 13.769 15.0871 14.2066 14.6495C14.6442 14.2119 14.89 13.6184 14.89 12.9996C14.8893 12.8602 14.8756 12.7212 14.8493 12.5843C15.4295 12.4438 15.9458 12.1128 16.3155 11.6442C16.6852 11.1756 16.8871 10.5965 16.8887 9.99959V6.66626C16.8876 5.78253 16.5361 4.9353 15.9112 4.31041C15.2863 3.68551 14.4391 3.33399 13.5553 3.33293ZM15.5553 6.66626V7.33293H12.222V4.66626H13.5553C14.0858 4.66626 14.5945 4.87697 14.9696 5.25205C15.3446 5.62712 15.5553 6.13583 15.5553 6.66626ZM2.22201 9.99959V3.99959C2.22201 3.46916 2.43272 2.96045 2.80779 2.58538C3.18286 2.21031 3.69157 1.99959 4.22201 1.99959H8.88867C9.41911 1.99959 9.92781 2.21031 10.3029 2.58538C10.678 2.96045 10.8887 3.46916 10.8887 3.99959V11.3329H3.55534C3.20172 11.3329 2.86258 11.1925 2.61253 10.9424C2.36248 10.6924 2.22201 10.3532 2.22201 9.99959ZM6.22201 12.9996C6.22201 13.2648 6.11665 13.5192 5.92911 13.7067C5.74158 13.8942 5.48722 13.9996 5.22201 13.9996C4.95679 13.9996 4.70243 13.8942 4.5149 13.7067C4.32736 13.5192 4.22201 13.2648 4.22201 12.9996C4.22241 12.8857 4.24342 12.7727 4.28401 12.6663H6.16001C6.20059 12.7727 6.2216 12.8857 6.22201 12.9996ZM12.5553 13.9996C12.2901 13.9996 12.0358 13.8942 11.8482 13.7067C11.6607 13.5192 11.5553 13.2648 11.5553 12.9996C11.5556 12.8856 11.5766 12.7727 11.6173 12.6663H13.4933C13.534 12.7727 13.555 12.8856 13.5553 12.9996C13.5553 13.2648 13.45 13.5192 13.2624 13.7067C13.0749 13.8942 12.8206 13.9996 12.5553 13.9996ZM14.222 11.3329H12.222V8.66626H15.5553V9.99959C15.5553 10.3532 15.4149 10.6924 15.1648 10.9424C14.9148 11.1925 14.5756 11.3329 14.222 11.3329Z" fill="black"/>
</g>
<defs>
<clipPath id="clip0_483_13649">
<rect width="16" height="16" fill="white" transform="translate(0.888672)"/>
</clipPath>
</defs>
</svg>
