<svg width="16" height="16" viewBox="0 0 16 16" fill="none" xmlns="http://www.w3.org/2000/svg">
<g clip-path="url(#clip0_482_17982)">
<path d="M15.6085 12.1599L10.3951 1.51661C10.1757 1.06844 9.83493 0.690825 9.41154 0.426712C8.98816 0.1626 8.49916 0.022583 8.00015 0.022583C7.50114 0.022583 7.01214 0.1626 6.58875 0.426712C6.16537 0.690825 5.82458 1.06844 5.60515 1.51661L0.391147 12.1599C0.191944 12.5665 0.0995287 13.0171 0.122608 13.4692C0.145688 13.9214 0.283503 14.3602 0.523068 14.7443C0.762632 15.1285 1.09606 15.4453 1.49193 15.665C1.8878 15.8847 2.33308 15.9999 2.78581 15.9999H13.2131C13.6659 16.0001 14.1113 15.8849 14.5073 15.6653C14.9032 15.4456 15.2367 15.1288 15.4764 14.7446C15.716 14.3605 15.8539 13.9216 15.877 13.4694C15.9001 13.0172 15.8077 12.5665 15.6085 12.1599ZM13.0665 9.99994H2.93315L4.56648 6.66661H11.4331L13.0665 9.99994ZM6.79981 2.10328C6.90957 1.87928 7.07995 1.69056 7.29161 1.55857C7.50327 1.42658 7.74771 1.3566 7.99715 1.3566C8.24659 1.3566 8.49103 1.42658 8.70268 1.55857C8.91434 1.69056 9.08473 1.87928 9.19448 2.10328L10.7791 5.33328H5.21981L6.79981 2.10328ZM14.3425 14.0366C14.2243 14.2306 14.0576 14.3905 13.8589 14.5006C13.6602 14.6107 13.4363 14.6672 13.2091 14.6646H2.78581C2.55922 14.6651 2.33625 14.6078 2.13795 14.4981C1.93966 14.3885 1.77257 14.2301 1.65248 14.0379C1.53238 13.8458 1.46324 13.6262 1.45158 13.3999C1.43991 13.1736 1.48611 12.9481 1.58581 12.7446L2.28048 11.3333H13.7185L14.4105 12.7466C14.5126 12.9491 14.5603 13.1747 14.5488 13.4013C14.5374 13.6278 14.4672 13.8474 14.3451 14.0386L14.3425 14.0366Z" fill="black"/>
</g>
<defs>
<clipPath id="clip0_482_17982">
<rect width="16" height="16" fill="white"/>
</clipPath>
</defs>
</svg>
