<svg width="17" height="16" viewBox="0 0 17 16" fill="none" xmlns="http://www.w3.org/2000/svg">
<g clip-path="url(#clip0_483_13615)">
<path d="M15.5558 3.33333C15.5558 2.8029 15.3451 2.29419 14.97 1.91912C14.595 1.54405 14.0863 1.33333 13.5558 1.33333H13.4418C13.3034 0.943661 13.0479 0.60634 12.7102 0.367629C12.3726 0.128917 11.9694 0.000504499 11.5558 0L4.88917 0C4.47565 0.000504499 4.07242 0.128917 3.73476 0.367629C3.3971 0.60634 3.14156 0.943661 3.00317 1.33333H2.88917C2.48508 1.336 2.09128 1.461 1.75963 1.69189C1.42799 1.92277 1.17406 2.2487 1.03131 2.62674C0.888548 3.00478 0.863655 3.4172 0.959906 3.80966C1.05616 4.20213 1.26904 4.55624 1.5705 4.82533L2.6025 13.08C2.7042 13.8858 3.09617 14.6268 3.70498 15.1643C4.3138 15.7018 5.09769 15.9989 5.90983 16H10.5352C11.3473 15.9988 12.1311 15.7016 12.7399 15.1641C13.3487 14.6266 13.7407 13.8857 13.8425 13.08L14.8745 4.82533C15.0877 4.63945 15.2588 4.4102 15.3763 4.1529C15.4938 3.8956 15.555 3.61619 15.5558 3.33333ZM12.9672 9.33333H10.8338C10.2392 5.80867 6.2025 5.81067 5.6085 9.33333H3.47517L2.97517 5.33333H13.4672L12.9672 9.33333ZM9.55583 10C9.48584 12.636 6.95917 12.6353 6.88917 10C6.95917 7.364 9.48917 7.36467 9.55583 10ZM2.88917 2.66667H3.55583C3.73265 2.66667 3.90221 2.59643 4.02724 2.4714C4.15226 2.34638 4.2225 2.17681 4.2225 2C4.2225 1.82319 4.29274 1.65362 4.41776 1.5286C4.54279 1.40357 4.71236 1.33333 4.88917 1.33333H11.5558C11.7326 1.33333 11.9022 1.40357 12.0272 1.5286C12.1523 1.65362 12.2225 1.82319 12.2225 2C12.2225 2.17681 12.2927 2.34638 12.4178 2.4714C12.5428 2.59643 12.7124 2.66667 12.8892 2.66667H13.5558C13.7326 2.66667 13.9022 2.7369 14.0272 2.86193C14.1523 2.98695 14.2225 3.15652 14.2225 3.33333C14.2225 3.51014 14.1523 3.67971 14.0272 3.80474C13.9022 3.92976 13.7326 4 13.5558 4H2.88917C2.71236 4 2.54279 3.92976 2.41776 3.80474C2.29274 3.67971 2.2225 3.51014 2.2225 3.33333C2.2225 3.15652 2.29274 2.98695 2.41776 2.86193C2.54279 2.7369 2.71236 2.66667 2.88917 2.66667ZM12.5192 12.9147C12.4587 13.3983 12.2238 13.8432 11.8584 14.1658C11.4931 14.4884 11.0226 14.6665 10.5352 14.6667H5.90983C5.42233 14.6667 4.95161 14.4887 4.58614 14.166C4.22067 13.8434 3.98562 13.3984 3.92517 12.9147L3.6445 10.6667H5.60983C6.2045 14.1913 10.2418 14.1893 10.8352 10.6667H12.8005L12.5192 12.9147Z" fill="black"/>
</g>
<defs>
<clipPath id="clip0_483_13615">
<rect width="16" height="16" fill="white" transform="translate(0.222656)"/>
</clipPath>
</defs>
</svg>
