<svg width="17" height="16" viewBox="0 0 17 16" fill="none" xmlns="http://www.w3.org/2000/svg">
<g clip-path="url(#clip0_482_18077)">
<path d="M8.77768 2.70067V1.33333H10.111C10.2878 1.33333 10.4574 1.2631 10.5824 1.13807C10.7074 1.01305 10.7777 0.843478 10.7777 0.666667C10.7777 0.489856 10.7074 0.320286 10.5824 0.195262C10.4574 0.0702379 10.2878 0 10.111 0L6.11101 0C5.9342 0 5.76463 0.0702379 5.63961 0.195262C5.51458 0.320286 5.44434 0.489856 5.44434 0.666667C5.44434 0.843478 5.51458 1.01305 5.63961 1.13807C5.76463 1.2631 5.9342 1.33333 6.11101 1.33333H7.44434V2.70067C5.74259 2.8717 4.17165 3.69023 3.05645 4.98698C1.94124 6.28373 1.36708 7.95948 1.4527 9.66767C1.53833 11.3759 2.27719 12.9858 3.51648 14.1645C4.75577 15.3432 6.40068 16.0006 8.11101 16.0006C9.82134 16.0006 11.4663 15.3432 12.7055 14.1645C13.9448 12.9858 14.6837 11.3759 14.7693 9.66767C14.8549 7.95948 14.2808 6.28373 13.1656 4.98698C12.0504 3.69023 10.4794 2.8717 8.77768 2.70067ZM10.7777 10.4467V8.22C12.5337 8.532 13.4443 9.092 13.4443 9.33333C13.4443 9.57467 12.5337 10.1333 10.7777 10.4467ZM2.77768 9.33333C2.77768 9.092 3.68834 8.53333 5.44434 8.22V10.4467C3.68834 10.1333 2.77768 9.57467 2.77768 9.33333ZM6.77768 8.052C7.19168 8.01933 7.63434 8 8.11101 8C8.58768 8 9.03034 8.01933 9.44434 8.052V10.6147C9.03034 10.6473 8.58768 10.6667 8.11101 10.6667C7.63434 10.6667 7.19168 10.6473 6.77768 10.6147V8.052ZM8.11101 4C8.56109 4.00161 9.00914 4.06053 9.44434 4.17533V6.71667C9.00168 6.684 8.55434 6.66667 8.11101 6.66667C7.66768 6.66667 7.22034 6.684 6.77768 6.71667V4.17533C7.21288 4.06053 7.66092 4.00161 8.11101 4ZM13.111 7.49067C12.3614 7.18882 11.5779 6.97928 10.7777 6.86667V4.72133C11.8531 5.34588 12.678 6.32487 13.111 7.49067ZM5.44434 4.72133V6.86667C4.64422 6.97864 3.86069 7.1875 3.11101 7.48867C3.54445 6.32362 4.36927 5.34538 5.44434 4.72133ZM3.11101 11.176C3.86061 11.4778 4.64414 11.6874 5.44434 11.8V13.9473C4.36856 13.3223 3.54366 12.3425 3.11101 11.176ZM6.77768 14.4913V11.95C7.22034 11.9827 7.66768 12 8.11101 12C8.55434 12 9.00168 11.9827 9.44434 11.95V14.4913C8.57083 14.7251 7.65119 14.7251 6.77768 14.4913ZM10.7777 13.9453V11.8C11.5778 11.688 12.3613 11.4792 13.111 11.178C12.6776 12.3431 11.8527 13.3213 10.7777 13.9453Z" fill="black"/>
</g>
<defs>
<clipPath id="clip0_482_18077">
<rect width="16" height="16" fill="white" transform="translate(0.111328)"/>
</clipPath>
</defs>
</svg>
