<svg width="17" height="16" viewBox="0 0 17 16" fill="none" xmlns="http://www.w3.org/2000/svg">
<g clip-path="url(#clip0_483_13617)">
<path d="M7.44437 11.3333C7.26907 11.3334 7.09545 11.299 6.93347 11.2319C6.77149 11.1649 6.62431 11.0666 6.50037 10.9426L3.97771 8.47659C3.85129 8.35283 3.77921 8.18391 3.77733 8.007C3.77546 7.83009 3.84394 7.65968 3.96771 7.53326C4.09147 7.40684 4.26039 7.33477 4.4373 7.33289C4.61421 7.33102 4.78462 7.39949 4.91104 7.52326L7.43971 9.99459L11.977 5.52793C12.105 5.41534 12.2712 5.35604 12.4415 5.3622C12.6118 5.36836 12.7733 5.43952 12.8928 5.56105C13.0123 5.68258 13.0807 5.84526 13.084 6.01566C13.0872 6.18606 13.0251 6.35124 12.9104 6.47726L8.38171 10.9486C8.25844 11.0712 8.1122 11.1683 7.95135 11.2343C7.79051 11.3003 7.61823 11.3339 7.44437 11.3333ZM16.4444 12.6666V8.22659C16.4692 6.17156 15.7158 4.18319 14.3353 2.66071C12.9547 1.13823 11.0494 0.194352 9.00171 0.0185934C7.85881 -0.0613682 6.71206 0.105086 5.63906 0.506695C4.56606 0.908304 3.59184 1.5357 2.78231 2.34643C1.97279 3.15715 1.34684 4.1323 0.946821 5.2059C0.546803 6.27949 0.382049 7.42648 0.463705 8.56926C0.758371 12.8053 4.49904 15.9999 9.16637 15.9999H13.111C13.9948 15.9989 14.842 15.6473 15.4669 15.0224C16.0918 14.3976 16.4433 13.5503 16.4444 12.6666ZM8.91104 1.34926C10.622 1.50062 12.2123 2.29387 13.3624 3.56963C14.5125 4.84539 15.1373 6.50914 15.111 8.22659V12.6666C15.111 13.197 14.9003 13.7057 14.5253 14.0808C14.1502 14.4559 13.6415 14.6666 13.111 14.6666H9.16637C5.14371 14.6666 2.04437 12.0666 1.79437 8.47726C1.72874 7.56298 1.85235 6.64499 2.15749 5.78064C2.46263 4.91629 2.94274 4.12415 3.56782 3.45371C4.1929 2.78327 4.94952 2.24894 5.79042 1.88409C6.63131 1.51925 7.53841 1.33173 8.45504 1.33326C8.60637 1.33326 8.75904 1.33926 8.91104 1.34926Z" fill="black"/>
</g>
<defs>
<clipPath id="clip0_483_13617">
<rect width="16" height="16" fill="white" transform="translate(0.444336)"/>
</clipPath>
</defs>
</svg>
