<svg width="17" height="16" viewBox="0 0 17 16" fill="none" xmlns="http://www.w3.org/2000/svg">
<g clip-path="url(#clip0_483_13815)">
<path d="M8.88904 10.6667C9.19948 10.6673 9.50576 10.5957 9.7837 10.4574L11.117 9.79074C11.7966 9.45331 12.2253 8.75884 12.2224 8.00009V6.02209C12.2247 5.26399 11.7961 4.57043 11.117 4.23343L9.7837 3.56678C9.22036 3.28678 8.55839 3.28678 7.99504 3.56678L6.6617 4.23343C5.98239 4.57024 5.55348 5.26387 5.5557 6.02209V8.00009C5.55326 8.75837 5.98186 9.45218 6.66104 9.78943L7.99439 10.4561C8.2722 10.5948 8.57851 10.6669 8.88904 10.6667ZM6.88904 8.00009V6.02209C6.89011 5.95409 6.90157 5.88662 6.92304 5.82209L8.37639 6.54875C8.69914 6.71006 9.07898 6.71006 9.40173 6.54875L10.8551 5.82209C10.8765 5.88662 10.888 5.95409 10.8891 6.02209V8.00009C10.8901 8.25303 10.7471 8.48453 10.5204 8.59674L9.18707 9.2634C8.99907 9.35643 8.77842 9.35643 8.59042 9.2634L7.25707 8.59674C7.03061 8.48434 6.88786 8.2529 6.88904 8.00009ZM13.5557 14.6667H11.7497L14.0744 12.5187C16.9383 9.65493 16.9383 5.01174 14.0745 2.14784C11.2107 -0.716067 6.56754 -0.716099 3.70364 2.14768C0.839731 5.01146 0.839668 9.65471 3.70348 12.5186C3.70976 12.5249 6.02839 14.6667 6.02839 14.6667H4.22239C3.8542 14.6667 3.55573 14.9652 3.55573 15.3334C3.55573 15.7016 3.8542 16.0001 4.22239 16.0001H13.5557C13.9239 16.0001 14.2224 15.7016 14.2224 15.3334C14.2224 14.9652 13.9239 14.6667 13.5557 14.6667ZM4.64639 3.09075C6.98439 0.742245 10.7835 0.733745 13.132 3.07175C15.4805 5.40975 15.489 9.2089 13.151 11.5574L10.4944 14.0114C9.58764 14.8661 8.17045 14.8611 7.26973 14.0001L4.64639 11.5761C2.30686 9.2314 2.30689 5.43543 4.64639 3.09075Z" fill="black"/>
</g>
<defs>
<clipPath id="clip0_483_13815">
<rect width="16" height="16" fill="white" transform="translate(0.888672)"/>
</clipPath>
</defs>
</svg>
