<svg width="17" height="16" viewBox="0 0 17 16" fill="none" xmlns="http://www.w3.org/2000/svg">
<path d="M11.5314 1.93343C11.0067 1.48878 10.4567 1.02143 9.89673 0.512088C9.46714 0.121401 8.88695 -0.0596617 8.31139 0.0174321C7.75364 0.0911196 7.25739 0.408588 6.95673 0.884088C6.16204 2.21209 5.60017 3.66612 5.29539 5.18343C5.17579 5.01075 5.0697 4.82912 4.97804 4.64009C4.66229 3.97484 3.86704 3.69149 3.20179 4.00725C3.04073 4.08368 2.89664 4.19165 2.77804 4.32475C1.65982 5.46743 1.03992 7.00665 1.05404 8.6054C1.02226 11.9658 3.2826 14.9161 6.53539 15.7601C7.1406 15.9124 7.76198 15.9912 8.38604 15.9947C8.40604 15.9947 8.6187 15.9927 8.7047 15.9867C12.6847 15.8578 15.843 12.5915 15.838 8.6094C15.8354 5.58943 13.8407 3.89609 11.5314 1.93343ZM8.36939 14.6567C7.87323 14.619 7.38292 14.418 7.01273 14.1194C6.43304 13.7092 6.04945 13.1077 5.95807 12.4147C5.84473 11.3334 6.51142 9.9194 7.87342 8.32209C8.01623 8.15528 8.22517 8.05968 8.44476 8.06075C8.66151 8.05918 8.86764 8.15453 9.00676 8.32075C10.2548 9.80209 10.9401 11.1687 10.9401 12.1694C10.9363 13.4841 9.90867 14.5241 8.6001 14.6507C8.54264 14.6563 8.44473 14.6647 8.36939 14.6567ZM12.1621 13.3887C12.1227 13.4194 12.0794 13.4441 12.0394 13.4734C12.1932 13.0553 12.2725 12.6135 12.2734 12.1681C12.2734 10.4834 11.0501 8.67806 10.0248 7.46006C9.63248 6.99546 9.05548 6.72721 8.44742 6.72671H8.44473C7.83545 6.72562 7.25635 6.99203 6.86073 7.45537C5.23073 9.36471 4.48207 11.08 4.63539 12.554C4.67179 12.8962 4.7592 13.231 4.89473 13.5474C3.31167 12.4003 2.37889 10.5603 2.38939 8.60537C2.37651 7.3354 2.87732 6.11409 3.77804 5.21871C3.93182 5.5384 4.11648 5.84228 4.32939 6.12606C4.62179 6.52137 5.12132 6.70481 5.60004 6.59271C6.08814 6.48475 6.4671 6.09978 6.56739 5.61006C6.83523 4.19431 7.34707 2.83587 8.08004 1.5954C8.17023 1.45359 8.3192 1.35965 8.48604 1.3394C8.67251 1.31431 8.86048 1.37315 8.99939 1.50006C9.57139 2.02006 10.1327 2.50006 10.666 2.9514C12.8914 4.8414 14.5 6.20675 14.5 8.6094C14.5058 10.4792 13.6427 12.2456 12.164 13.3901L12.1621 13.3887Z" fill="black"/>
</svg>
