<svg width="17" height="16" viewBox="0 0 17 16" fill="none" xmlns="http://www.w3.org/2000/svg">
<g clip-path="url(#clip0_483_13758)">
<path d="M9.99166 4.072C9.96566 4.07933 5.173 5.98133 5.173 5.98133C4.81665 6.12031 4.51247 6.36689 4.30277 6.68676C4.09307 7.00664 3.98826 7.38392 4.00292 7.76613C4.01759 8.14833 4.151 8.51647 4.3846 8.81933C4.6182 9.1222 4.94038 9.34474 5.30633 9.456L6.87033 9.84733L7.38566 11.53C7.52277 11.8663 7.75706 12.1541 8.05857 12.3566C8.36009 12.5591 8.71514 12.667 9.07833 12.6667H9.10766C9.47636 12.6619 9.83498 12.5456 10.1363 12.3331C10.4376 12.1205 10.6675 11.8217 10.7957 11.476C10.7957 11.476 12.591 6.69933 12.5957 6.676C12.6902 6.31558 12.6887 5.93667 12.5913 5.57701C12.4939 5.21735 12.304 4.88948 12.0404 4.62603C11.7769 4.36258 11.449 4.17275 11.0893 4.07543C10.7296 3.97811 10.3507 3.9767 9.99033 4.07133L9.99166 4.072ZM11.3137 6.31133L9.54833 11.0067C9.51434 11.1019 9.45181 11.1844 9.36926 11.2429C9.28671 11.3013 9.18815 11.3329 9.087 11.3333C9.02033 11.3253 8.737 11.316 8.637 11.0813L8.03166 9.09733C7.99821 8.98729 7.93686 8.88777 7.85357 8.80845C7.77027 8.72913 7.66788 8.67271 7.55633 8.64467L5.67766 8.178C5.57878 8.14435 5.49268 8.08105 5.43108 7.99671C5.36947 7.91236 5.33537 7.81108 5.3334 7.70665C5.33143 7.60222 5.3617 7.49973 5.42008 7.41312C5.47846 7.32652 5.56212 7.26001 5.65966 7.22267L10.3663 5.356C10.496 5.32504 10.6314 5.32844 10.7593 5.36585C10.8872 5.40327 11.0032 5.4734 11.0957 5.56933C11.1923 5.66414 11.263 5.78209 11.3012 5.91197C11.3394 6.04185 11.3436 6.17933 11.3137 6.31133ZM8.667 0C7.08475 0 5.53803 0.469192 4.22243 1.34824C2.90684 2.22729 1.88146 3.47672 1.27596 4.93853C0.670458 6.40034 0.512032 8.00887 0.820714 9.56072C1.1294 11.1126 1.89132 12.538 3.01014 13.6569C4.12896 14.7757 5.55443 15.5376 7.10627 15.8463C8.65812 16.155 10.2667 15.9965 11.7285 15.391C13.1903 14.7855 14.4397 13.7602 15.3188 12.4446C16.1978 11.129 16.667 9.58225 16.667 8C16.6647 5.87897 15.8211 3.84547 14.3213 2.34568C12.8215 0.845886 10.788 0.00229405 8.667 0V0ZM8.667 14.6667C7.34845 14.6667 6.05952 14.2757 4.96319 13.5431C3.86687 12.8106 3.01238 11.7694 2.5078 10.5512C2.00321 9.33305 1.87119 7.99261 2.12843 6.6994C2.38566 5.40619 3.0206 4.21831 3.95295 3.28596C4.8853 2.35361 6.07319 1.71867 7.36639 1.46143C8.6596 1.2042 10 1.33622 11.2182 1.8408C12.4364 2.34539 13.4776 3.19987 14.2101 4.2962C14.9427 5.39253 15.3337 6.68146 15.3337 8C15.3317 9.76752 14.6287 11.4621 13.3789 12.7119C12.1291 13.9617 10.4345 14.6647 8.667 14.6667Z" fill="black"/>
</g>
<defs>
<clipPath id="clip0_483_13758">
<rect width="16" height="16" fill="white" transform="translate(0.666992)"/>
</clipPath>
</defs>
</svg>
