<svg width="17" height="16" viewBox="0 0 17 16" fill="none" xmlns="http://www.w3.org/2000/svg">
<g clip-path="url(#clip0_482_18070)">
<path d="M14.0764 3.69093L11.7537 1.36693C11.3212 0.932352 10.8069 0.587813 10.2405 0.353232C9.67407 0.118651 9.06676 -0.00131844 8.45369 0.000259506H5.44369C4.55995 0.00131808 3.71272 0.352847 3.08783 0.977739C2.46294 1.60263 2.11141 2.44986 2.11035 3.33359V12.6669C2.11141 13.5507 2.46294 14.3979 3.08783 15.0228C3.71272 15.6477 4.55995 15.9992 5.44369 16.0003H12.1104C12.9941 15.9992 13.8413 15.6477 14.4662 15.0228C15.0911 14.3979 15.4426 13.5507 15.4437 12.6669V6.99026C15.4453 6.37721 15.3253 5.76992 15.0906 5.20358C14.8559 4.63723 14.5112 4.12309 14.0764 3.69093ZM13.1337 4.63359C13.3373 4.84302 13.5123 5.07839 13.6544 5.33359H10.777C10.6002 5.33359 10.4306 5.26335 10.3056 5.13833C10.1806 5.01331 10.1104 4.84374 10.1104 4.66693V1.78959C10.3656 1.93154 10.6012 2.10637 10.811 2.30959L13.1337 4.63359ZM14.1104 12.6669C14.1104 13.1974 13.8996 13.7061 13.5246 14.0811C13.1495 14.4562 12.6408 14.6669 12.1104 14.6669H5.44369C4.91325 14.6669 4.40454 14.4562 4.02947 14.0811C3.6544 13.7061 3.44368 13.1974 3.44368 12.6669V3.33359C3.44368 2.80316 3.6544 2.29445 4.02947 1.91938C4.40454 1.54431 4.91325 1.33359 5.44369 1.33359H8.45369C8.56302 1.33359 8.66902 1.35493 8.77702 1.36493V4.66693C8.77702 5.19736 8.98773 5.70607 9.3628 6.08114C9.73788 6.45621 10.2466 6.66693 10.777 6.66693H14.079C14.089 6.77493 14.1104 6.88026 14.1104 6.99026V12.6669Z" fill="black"/>
</g>
<defs>
<clipPath id="clip0_482_18070">
<rect width="16" height="16" fill="white" transform="translate(0.777344)"/>
</clipPath>
</defs>
</svg>
