<svg width="17" height="16" viewBox="0 0 17 16" fill="none" xmlns="http://www.w3.org/2000/svg">
<g clip-path="url(#clip0_483_13603)">
<path d="M8.77735 0C7.1951 0 5.64838 0.469192 4.33279 1.34824C3.01719 2.22729 1.99181 3.47672 1.38631 4.93853C0.78081 6.40034 0.622383 8.00887 0.931065 9.56072C1.23975 11.1126 2.00167 12.538 3.12049 13.6569C4.23931 14.7757 5.66478 15.5376 7.21663 15.8463C8.76847 16.155 10.377 15.9965 11.8388 15.391C13.3006 14.7855 14.5501 13.7602 15.4291 12.4446C16.3082 11.129 16.7773 9.58225 16.7773 8C16.7751 5.87897 15.9315 3.84547 14.4317 2.34568C12.9319 0.845886 10.8984 0.00229405 8.77735 0V0ZM8.77735 14.6667C7.45881 14.6667 6.16987 14.2757 5.07355 13.5431C3.97722 12.8106 3.12273 11.7694 2.61815 10.5512C2.11357 9.33305 1.98154 7.99261 2.23878 6.6994C2.49601 5.40619 3.13095 4.21831 4.0633 3.28596C4.99565 2.35361 6.18354 1.71867 7.47675 1.46143C8.76995 1.2042 10.1104 1.33622 11.3286 1.8408C12.5467 2.34539 13.5879 3.19987 14.3205 4.2962C15.053 5.39253 15.444 6.68146 15.444 8C15.4421 9.76752 14.7391 11.4621 13.4892 12.7119C12.2394 13.9617 10.5449 14.6647 8.77735 14.6667Z" fill="black"/>
<path d="M11.135 5.64274C11.2607 5.76418 11.4291 5.83138 11.6039 5.82986C11.7787 5.82834 11.9459 5.75822 12.0695 5.63462C12.1931 5.51101 12.2633 5.34381 12.2648 5.16901C12.2663 4.99421 12.1991 4.82581 12.0777 4.70007C11.425 4.04748 10.5935 3.60307 9.68824 3.42304C8.78301 3.24301 7.84472 3.33546 6.99203 3.68868C6.13933 4.0419 5.41053 4.64004 4.89777 5.40746C4.38501 6.17488 4.11133 7.07711 4.11133 8.00007C4.11133 8.92303 4.38501 9.82527 4.89777 10.5927C5.41053 11.3601 6.13933 11.9582 6.99203 12.3115C7.84472 12.6647 8.78301 12.7571 9.68824 12.5771C10.5935 12.3971 11.425 11.9527 12.0777 11.3001C12.1991 11.1743 12.2663 11.0059 12.2648 10.8311C12.2633 10.6563 12.1931 10.4891 12.0695 10.3655C11.9459 10.2419 11.7787 10.1718 11.6039 10.1703C11.4291 10.1688 11.2607 10.236 11.135 10.3574C10.6688 10.8235 10.0748 11.1409 9.42826 11.2694C8.78168 11.398 8.1115 11.3319 7.50247 11.0796C6.89343 10.8273 6.37289 10.4 6.00665 9.85188C5.64042 9.30374 5.44495 8.65931 5.44495 8.00007C5.44495 7.34084 5.64042 6.69641 6.00665 6.14826C6.37289 5.60012 6.89343 5.17288 7.50247 4.92056C8.1115 4.66824 8.78168 4.60218 9.42826 4.73073C10.0748 4.85927 10.6688 5.17665 11.135 5.64274Z" fill="black"/>
</g>
<defs>
<clipPath id="clip0_483_13603">
<rect width="16" height="16" fill="white" transform="translate(0.777344)"/>
</clipPath>
</defs>
</svg>
