<svg width="17" height="16" viewBox="0 0 17 16" fill="none" xmlns="http://www.w3.org/2000/svg">
<g clip-path="url(#clip0_483_13852)">
<path d="M16.2223 10.667C16.0455 10.667 15.8759 10.7372 15.7509 10.8623C15.6259 10.9873 15.5557 11.1568 15.5557 11.3337V12.667C15.5557 13.1974 15.3449 13.7061 14.9699 14.0812C14.5948 14.4563 14.0861 14.667 13.5557 14.667H12.2223C12.0455 14.667 11.8759 14.7372 11.7509 14.8622C11.6259 14.9873 11.5557 15.1568 11.5557 15.3337C11.5557 15.5105 11.6259 15.68 11.7509 15.8051C11.8759 15.9301 12.0455 16.0003 12.2223 16.0003H13.5557C14.4394 15.9993 15.2866 15.6477 15.9115 15.0228C16.5364 14.3979 16.8879 13.5507 16.889 12.667V11.3337C16.889 11.1568 16.8188 10.9873 16.6937 10.8623C16.5687 10.7372 16.3991 10.667 16.2223 10.667Z" fill="black"/>
<path d="M1.55534 5.33333C1.73215 5.33333 1.90172 5.2631 2.02674 5.13807C2.15177 5.01305 2.22201 4.84348 2.22201 4.66667V3.33333C2.22201 2.8029 2.43272 2.29419 2.80779 1.91912C3.18286 1.54405 3.69157 1.33333 4.22201 1.33333H5.55534C5.73215 1.33333 5.90172 1.2631 6.02674 1.13807C6.15177 1.01305 6.22201 0.843478 6.22201 0.666667C6.22201 0.489856 6.15177 0.320286 6.02674 0.195262C5.90172 0.0702379 5.73215 0 5.55534 0L4.22201 0C3.33828 0.00105857 2.49104 0.352588 1.86615 0.97748C1.24126 1.60237 0.88973 2.4496 0.888672 3.33333L0.888672 4.66667C0.888672 4.84348 0.95891 5.01305 1.08393 5.13807C1.20896 5.2631 1.37853 5.33333 1.55534 5.33333Z" fill="black"/>
<path d="M5.55534 14.6669H4.22201C3.69157 14.6669 3.18286 14.4562 2.80779 14.0811C2.43272 13.706 2.22201 13.1973 2.22201 12.6669V11.3336C2.22201 11.1567 2.15177 10.9872 2.02674 10.8621C1.90172 10.7371 1.73215 10.6669 1.55534 10.6669C1.37853 10.6669 1.20896 10.7371 1.08393 10.8621C0.95891 10.9872 0.888672 11.1567 0.888672 11.3336L0.888672 12.6669C0.88973 13.5506 1.24126 14.3978 1.86615 15.0227C2.49104 15.6476 3.33828 15.9992 4.22201 16.0002H5.55534C5.73215 16.0002 5.90172 15.93 6.02674 15.8049C6.15177 15.6799 6.22201 15.5104 6.22201 15.3335C6.22201 15.1567 6.15177 14.9872 6.02674 14.8621C5.90172 14.7371 5.73215 14.6669 5.55534 14.6669Z" fill="black"/>
<path d="M13.5557 0H12.2223C12.0455 0 11.8759 0.0702379 11.7509 0.195262C11.6259 0.320286 11.5557 0.489856 11.5557 0.666667C11.5557 0.843478 11.6259 1.01305 11.7509 1.13807C11.8759 1.2631 12.0455 1.33333 12.2223 1.33333H13.5557C14.0861 1.33333 14.5948 1.54405 14.9699 1.91912C15.3449 2.29419 15.5557 2.8029 15.5557 3.33333V4.66667C15.5557 4.84348 15.6259 5.01305 15.7509 5.13807C15.8759 5.2631 16.0455 5.33333 16.2223 5.33333C16.3991 5.33333 16.5687 5.2631 16.6937 5.13807C16.8188 5.01305 16.889 4.84348 16.889 4.66667V3.33333C16.8879 2.4496 16.5364 1.60237 15.9115 0.97748C15.2866 0.352588 14.4394 0.00105857 13.5557 0V0Z" fill="black"/>
<path d="M8.88835 7.33333C9.41576 7.33333 9.93134 7.17694 10.3699 6.88392C10.8084 6.5909 11.1502 6.17443 11.352 5.68716C11.5539 5.19989 11.6067 4.66371 11.5038 4.14643C11.4009 3.62914 11.1469 3.15399 10.774 2.78105C10.401 2.40811 9.92587 2.15413 9.40859 2.05124C8.8913 1.94835 8.35513 2.00116 7.86786 2.20299C7.38059 2.40482 6.96411 2.74662 6.67109 3.18515C6.37808 3.62368 6.22168 4.13925 6.22168 4.66667C6.22168 5.37391 6.50263 6.05219 7.00273 6.55229C7.50283 7.05238 8.1811 7.33333 8.88835 7.33333ZM8.88835 3.33333C9.15205 3.33333 9.40984 3.41153 9.62911 3.55804C9.84837 3.70455 10.0193 3.91279 10.1202 4.15642C10.2211 4.40006 10.2475 4.66815 10.1961 4.92679C10.1446 5.18543 10.0176 5.42301 9.83115 5.60948C9.64469 5.79595 9.40711 5.92294 9.14847 5.97438C8.88983 6.02583 8.62174 5.99942 8.3781 5.89851C8.13447 5.79759 7.92623 5.62669 7.77972 5.40743C7.63321 5.18816 7.55501 4.93038 7.55501 4.66667C7.55501 4.31305 7.69549 3.97391 7.94554 3.72386C8.19559 3.47381 8.53472 3.33333 8.88835 3.33333Z" fill="black"/>
<path d="M12.8883 13.3337C13.0652 13.3337 13.2347 13.2634 13.3598 13.1384C13.4848 13.0134 13.555 12.8438 13.555 12.667C13.554 11.6065 13.1322 10.5897 12.3823 9.83973C11.6324 9.08982 10.6156 8.66805 9.55501 8.66699H8.22168C7.16114 8.66805 6.14434 9.08982 5.39442 9.83973C4.64451 10.5897 4.22274 11.6065 4.22168 12.667C4.22168 12.8438 4.29192 13.0134 4.41694 13.1384C4.54197 13.2634 4.71154 13.3337 4.88835 13.3337C5.06516 13.3337 5.23473 13.2634 5.35975 13.1384C5.48477 13.0134 5.55501 12.8438 5.55501 12.667C5.55501 11.9597 5.83596 11.2815 6.33606 10.7814C6.83616 10.2813 7.51444 10.0003 8.22168 10.0003H9.55501C10.2623 10.0003 10.9405 10.2813 11.4406 10.7814C11.9407 11.2815 12.2217 11.9597 12.2217 12.667C12.2217 12.8438 12.2919 13.0134 12.4169 13.1384C12.542 13.2634 12.7115 13.3337 12.8883 13.3337Z" fill="black"/>
</g>
<defs>
<clipPath id="clip0_483_13852">
<rect width="16" height="16" fill="white" transform="translate(0.888672)"/>
</clipPath>
</defs>
</svg>
