<svg width="17" height="16" viewBox="0 0 17 16" fill="none" xmlns="http://www.w3.org/2000/svg">
<g clip-path="url(#clip0_483_13786)">
<path d="M12.8395 10.6667C12.3803 10.6653 11.9255 10.7551 11.5013 10.9307C11.0771 11.1064 10.6919 11.3645 10.3681 11.69C9.42669 12.6367 8.3068 13.3872 7.07332 13.8982C5.83984 14.4091 4.51726 14.6703 3.18214 14.6667H2.41481C2.26694 14.6668 2.12236 14.623 1.99938 14.5409C1.8764 14.4587 1.78054 14.342 1.72394 14.2054C1.66734 14.0688 1.65254 13.9184 1.68142 13.7734C1.71029 13.6284 1.78154 13.4952 1.88614 13.3907L4.01281 11.2667L11.8581 9.17466C12.568 8.98484 13.1953 8.56601 13.6428 7.98318C14.0902 7.40035 14.3328 6.68611 14.3328 5.95133V3.33333C14.3317 2.4496 13.9802 1.60237 13.3553 0.977474C12.7304 0.352582 11.8832 0.00105285 10.9995 -5.72205e-06L8.38147 -5.72205e-06C7.64714 0.000595649 6.93352 0.243425 6.35123 0.690839C5.76894 1.13825 5.35051 1.76526 5.16081 2.47466L3.06614 10.3233L0.943478 12.448C0.652459 12.739 0.45427 13.1097 0.373973 13.5134C0.293677 13.917 0.334882 14.3354 0.492375 14.7156C0.649869 15.0958 0.916578 15.4208 1.25877 15.6494C1.60096 15.878 2.00327 16 2.41481 16H3.18214C4.69243 16.0042 6.18854 15.7088 7.58384 15.1307C8.97915 14.5527 10.2459 13.7036 11.3108 12.6327C11.6133 12.331 11.9983 12.1257 12.4173 12.0427C12.8363 11.9597 13.2706 12.0027 13.6652 12.1662C14.0598 12.3298 14.3971 12.6066 14.6346 12.9616C14.8721 13.3167 14.999 13.7342 14.9995 14.1613V15.3333C14.9995 15.5101 15.0697 15.6797 15.1947 15.8047C15.3197 15.9298 15.4893 16 15.6661 16C15.8429 16 16.0125 15.9298 16.1375 15.8047C16.2626 15.6797 16.3328 15.5101 16.3328 15.3333V14.1613C16.3316 13.2351 15.9632 12.3471 15.3083 11.6921C14.6535 11.037 13.7657 10.6682 12.8395 10.6667ZM11.5141 7.884L5.89414 9.38266L9.99947 5.27666L12.2368 7.514C12.0239 7.68574 11.7779 7.81171 11.5141 7.884ZM12.9995 3.33333V5.95133C12.998 6.08425 12.9833 6.21669 12.9555 6.34666L10.9428 4.33333L12.7995 2.47733C12.9296 2.74402 12.9979 3.03659 12.9995 3.33333ZM8.38147 1.33333H10.9995C11.2968 1.33487 11.5901 1.40322 11.8575 1.53333L9.99947 3.39133L7.98614 1.37733C8.11611 1.34949 8.24855 1.33475 8.38147 1.33333ZM6.44814 2.81866C6.52034 2.55464 6.64631 2.30839 6.81814 2.09533L9.05747 4.33333L4.94947 8.442L6.44814 2.81866Z" fill="black"/>
</g>
<defs>
<clipPath id="clip0_483_13786">
<rect width="16" height="16" fill="white" transform="translate(0.333008)"/>
</clipPath>
</defs>
</svg>
