<svg width="17" height="16" viewBox="0 0 17 16" fill="none" xmlns="http://www.w3.org/2000/svg">
<g clip-path="url(#clip0_483_13717)">
<path d="M15.7299 9.31353L14.0999 9.7442C13.8618 9.80773 13.6392 9.91936 13.4459 10.0722L11.7012 9.05753C11.9466 8.37354 11.9466 7.62553 11.7012 6.94153L13.4459 5.92687C13.6392 6.07971 13.8618 6.19134 14.0999 6.25487C14.0999 6.25487 15.8445 6.70753 15.8999 6.70753C16.0598 6.70488 16.2135 6.64481 16.3328 6.53827C16.4522 6.43173 16.5292 6.28584 16.5499 6.12721C16.5706 5.96859 16.5336 5.80781 16.4456 5.67422C16.3576 5.54063 16.2245 5.44314 16.0705 5.39953L14.4412 4.9682C14.3192 4.93581 14.215 4.85634 14.1515 4.74723C14.088 4.63812 14.0704 4.50828 14.1025 4.3862L14.5339 2.75687C14.5563 2.67221 14.5618 2.58396 14.5501 2.49717C14.5384 2.41038 14.5098 2.32674 14.4657 2.25103C14.4217 2.17532 14.3632 2.10902 14.2936 2.05592C14.2239 2.00281 14.1445 1.96395 14.0599 1.94153C13.9752 1.91912 13.887 1.9136 13.8002 1.9253C13.7134 1.93699 13.6298 1.96566 13.554 2.00967C13.4783 2.05369 13.412 2.11218 13.3589 2.18182C13.3058 2.25146 13.267 2.33088 13.2445 2.41553L12.8139 4.04487C12.7505 4.28402 12.7373 4.53371 12.7752 4.7782L11.0312 5.78887C10.5581 5.25087 9.92361 4.88041 9.22254 4.73287V2.73287C9.4522 2.64328 9.6608 2.50708 9.83521 2.33287L11.0272 1.14087C11.1527 1.01586 11.2233 0.846143 11.2236 0.669046C11.2239 0.491949 11.1539 0.321982 11.0289 0.196534C10.9039 0.0710869 10.7342 0.000435674 10.5571 0.000123112C10.38 -0.00018945 10.21 0.0698622 10.0845 0.194868L8.89254 1.38687C8.80293 1.47554 8.68194 1.52527 8.55587 1.52527C8.4298 1.52527 8.30883 1.47554 8.21921 1.38687L7.02721 0.194868C6.90147 0.0734289 6.73307 0.00623264 6.55827 0.00775158C6.38348 0.00927053 6.21627 0.0793831 6.09266 0.202989C5.96906 0.326594 5.89894 0.493802 5.89743 0.6686C5.89591 0.843398 5.9631 1.0118 6.08454 1.13753L7.27654 2.33287C7.45095 2.50708 7.65955 2.64328 7.88921 2.73287V4.73287C7.18814 4.88041 6.55364 5.25087 6.08054 5.78887L4.33654 4.7742C4.37443 4.52971 4.36127 4.28002 4.29787 4.04087L3.86721 2.41287C3.8448 2.32821 3.80593 2.24879 3.75282 2.17916C3.69972 2.10952 3.63342 2.05102 3.55771 2.00701C3.482 1.96299 3.39836 1.93432 3.31157 1.92263C3.22478 1.91094 3.13653 1.91646 3.05187 1.93887C2.96722 1.96128 2.8878 2.00015 2.81816 2.05325C2.74852 2.10636 2.69003 2.17266 2.64601 2.24837C2.602 2.32408 2.57333 2.40772 2.56164 2.49451C2.54994 2.5813 2.55546 2.66954 2.57787 2.7542L3.00921 4.38353C3.04133 4.50562 3.02371 4.63546 2.96022 4.74457C2.89673 4.85367 2.79255 4.93314 2.67054 4.96553L1.04121 5.39953C0.885197 5.44128 0.749646 5.53824 0.659738 5.6724C0.56983 5.80656 0.531679 5.96879 0.552372 6.12896C0.573065 6.28913 0.651196 6.43634 0.772248 6.54324C0.8933 6.65015 1.04904 6.70947 1.21054 6.7102C1.26721 6.7102 3.01054 6.25753 3.01054 6.25753C3.24865 6.194 3.47122 6.08238 3.66454 5.92953L5.40921 6.9442C5.16384 7.62819 5.16384 8.37621 5.40921 9.0602L3.66587 10.0722C3.47256 9.91936 3.24998 9.80773 3.01187 9.7442L1.38187 9.31353C1.21588 9.28124 1.04382 9.31324 0.900533 9.40305C0.757245 9.49285 0.65344 9.63375 0.610137 9.79722C0.566834 9.96069 0.58727 10.1345 0.667306 10.2835C0.747343 10.4324 0.880998 10.5454 1.04121 10.5995L2.67054 11.0309C2.79255 11.0633 2.89673 11.1427 2.96022 11.2518C3.02371 11.3609 3.04133 11.4908 3.00921 11.6129L2.57787 13.2422C2.55546 13.3269 2.54994 13.4151 2.56164 13.5019C2.57333 13.5887 2.602 13.6723 2.64601 13.748C2.69003 13.8237 2.74852 13.89 2.81816 13.9432C2.8878 13.9963 2.96722 14.0351 3.05187 14.0575C3.13653 14.0799 3.22478 14.0855 3.31157 14.0738C3.39836 14.0621 3.482 14.0334 3.55771 13.9894C3.63342 13.9454 3.69972 13.8869 3.75282 13.8172C3.80593 13.7476 3.8448 13.6682 3.86721 13.5835L4.29787 11.9542C4.36127 11.715 4.37443 11.4654 4.33654 11.2209L6.08054 10.2062C6.55306 10.7457 7.18762 11.1176 7.88921 11.2662V13.2662C7.65968 13.356 7.45112 13.4922 7.27654 13.6662L6.08454 14.8615C5.9631 14.9873 5.89591 15.1557 5.89743 15.3305C5.89894 15.5053 5.96906 15.6725 6.09266 15.7961C6.21627 15.9197 6.38348 15.9898 6.55827 15.9913C6.73307 15.9928 6.90147 15.9256 7.02721 15.8042L8.22254 14.6122C8.31216 14.5235 8.43314 14.4738 8.55921 14.4738C8.68528 14.4738 8.80626 14.5235 8.89587 14.6122L10.0879 15.8042C10.2136 15.9256 10.382 15.9928 10.5568 15.9913C10.7316 15.9898 10.8988 15.9197 11.0224 15.7961C11.146 15.6725 11.2161 15.5053 11.2177 15.3305C11.2192 15.1557 11.152 14.9873 11.0305 14.8615L9.83854 13.6695C9.6633 13.4939 9.45355 13.3566 9.22254 13.2662V11.2662C9.92352 11.1188 10.558 10.7486 11.0312 10.2109L12.7752 11.2255C12.7373 11.47 12.7505 11.7197 12.8139 11.9589L13.2445 13.5882C13.2898 13.7592 13.4011 13.9052 13.554 13.9941C13.7069 14.083 13.8889 14.1075 14.0599 14.0622C14.2309 14.0169 14.3768 13.9056 14.4657 13.7527C14.5546 13.5998 14.5791 13.4178 14.5339 13.2469L14.1025 11.6175C14.0704 11.4955 14.088 11.3656 14.1515 11.2565C14.215 11.1474 14.3192 11.0679 14.4412 11.0355L16.0705 10.6042C16.157 10.5836 16.2385 10.5459 16.3102 10.4933C16.3819 10.4407 16.4424 10.3743 16.4881 10.298C16.5337 10.2217 16.5636 10.137 16.5761 10.049C16.5885 9.96093 16.5832 9.87129 16.5605 9.78532C16.5378 9.69935 16.4981 9.6188 16.4437 9.54841C16.3894 9.47801 16.3216 9.41919 16.2442 9.37542C16.1668 9.33164 16.0814 9.30379 15.9931 9.29351C15.9047 9.28323 15.8153 9.29071 15.7299 9.31553V9.31353ZM8.55587 9.99953C8.02544 9.99953 7.51673 9.78882 7.14166 9.41375C6.76659 9.03868 6.55587 8.52997 6.55587 7.99953C6.55587 7.4691 6.76659 6.96039 7.14166 6.58532C7.51673 6.21025 8.02544 5.99953 8.55587 5.99953C9.08631 5.99953 9.59502 6.21025 9.97009 6.58532C10.3452 6.96039 10.5559 7.4691 10.5559 7.99953C10.5559 8.52997 10.3452 9.03868 9.97009 9.41375C9.59502 9.78882 9.08631 9.99953 8.55587 9.99953Z" fill="black"/>
</g>
<defs>
<clipPath id="clip0_483_13717">
<rect width="16" height="16" fill="white" transform="translate(0.555664)"/>
</clipPath>
</defs>
</svg>
