<svg width="17" height="16" viewBox="0 0 17 16" fill="none" xmlns="http://www.w3.org/2000/svg">
<g clip-path="url(#clip0_483_13699)">
<path d="M16.5824 3.52902L13.2491 0.195686C13.1233 0.0742474 12.9549 0.00705118 12.7801 0.00857012C12.6053 0.0100891 12.4381 0.0802017 12.3145 0.203807C12.1909 0.327413 12.1208 0.494621 12.1193 0.669419C12.1178 0.844217 12.185 1.01262 12.3064 1.13835L13.5017 2.33369L12.5111 3.32235C11.8708 2.85223 11.0837 2.6262 10.2915 2.685C9.49937 2.74379 8.75425 3.08353 8.19039 3.64302L4.14439 7.69102C3.70978 8.1233 3.36521 8.63748 3.13062 9.20381C2.89603 9.77014 2.77609 10.3774 2.77772 10.9904V13.057L0.973057 14.8624C0.909383 14.9239 0.858595 14.9974 0.823656 15.0787C0.788716 15.1601 0.770326 15.2476 0.769556 15.3361C0.768787 15.4246 0.785655 15.5124 0.819176 15.5943C0.852696 15.6763 0.902198 15.7507 0.964793 15.8133C1.02739 15.8759 1.10182 15.9254 1.18375 15.9589C1.26568 15.9924 1.35347 16.0093 1.44199 16.0085C1.53051 16.0078 1.61799 15.9894 1.69933 15.9544C1.78066 15.9195 1.85423 15.8687 1.91572 15.805L3.72039 14.0004H5.78706C6.40004 14.002 7.00727 13.882 7.5736 13.6475C8.13993 13.4129 8.65411 13.0683 9.08639 12.6337L13.1344 8.58569C13.6943 8.02252 14.0345 7.27772 14.0934 6.48575C14.1523 5.69379 13.9261 4.90685 13.4557 4.26702L14.4444 3.27635L15.6397 4.47169C15.7655 4.59312 15.9339 4.66032 16.1087 4.6588C16.2835 4.65728 16.4507 4.58717 16.5743 4.46357C16.6979 4.33996 16.768 4.17275 16.7695 3.99795C16.771 3.82316 16.7038 3.65475 16.5824 3.52902ZM12.1924 7.64302L8.14439 11.691C7.8356 12.0014 7.46833 12.2475 7.06381 12.415C6.65929 12.5826 6.22556 12.6682 5.78772 12.667H4.11106V10.9904C4.11126 10.7719 4.13247 10.554 4.17439 10.3397L4.97439 11.1397C5.03589 11.2034 5.10945 11.2541 5.19079 11.2891C5.27212 11.324 5.3596 11.3424 5.44812 11.3432C5.53664 11.344 5.62443 11.3271 5.70636 11.2936C5.78829 11.26 5.86272 11.2105 5.92532 11.1479C5.98792 11.0854 6.03742 11.0109 6.07094 10.929C6.10446 10.8471 6.12133 10.7593 6.12056 10.6708C6.11979 10.5822 6.1014 10.4948 6.06646 10.4134C6.03152 10.3321 5.98073 10.2585 5.91706 10.197L4.75639 9.03635C4.85688 8.89451 4.96833 8.76077 5.08972 8.63635L5.77772 7.94302L6.97306 9.13835C7.09879 9.25979 7.26719 9.32699 7.44199 9.32547C7.61679 9.32395 7.784 9.25384 7.9076 9.13023C8.03121 9.00663 8.10132 8.83942 8.10284 8.66462C8.10436 8.48982 8.03716 8.32142 7.91572 8.19569L6.72039 7.00035L7.77772 5.94302L8.97306 7.13835C9.09879 7.25979 9.26719 7.32699 9.44199 7.32547C9.61679 7.32395 9.784 7.25384 9.9076 7.13023C10.0312 7.00663 10.1013 6.83942 10.1028 6.66462C10.1044 6.48982 10.0372 6.32142 9.91572 6.19569L8.72039 5.00035L9.13506 4.58569C9.5161 4.22223 10.0225 4.01946 10.5491 4.01946C11.0756 4.01946 11.582 4.22223 11.9631 4.58569L12.1924 4.81502C12.5673 5.19007 12.778 5.69869 12.778 6.22902C12.778 6.75935 12.5673 7.26796 12.1924 7.64302Z" fill="black"/>
</g>
<defs>
<clipPath id="clip0_483_13699">
<rect width="16" height="16" fill="white" transform="translate(0.777344)"/>
</clipPath>
</defs>
</svg>
