<svg width="17" height="16" viewBox="0 0 17 16" fill="none" xmlns="http://www.w3.org/2000/svg">
<g clip-path="url(#clip0_482_18022)">
<path d="M15.2222 8.62133C16.2483 7.63209 16.8465 6.28062 16.8889 4.856C16.8889 1.08667 15.0442 0.68 14.2516 0.68C12.2729 0.68 10.3289 2.61333 8.89091 4.36067C7.46358 2.628 5.51358 0.68 3.52958 0.68C0.763586 0.506667 -0.248413 6.06067 2.55958 8.622C2.67692 8.738 2.79892 8.84667 2.92225 8.94867C2.33519 9.51142 1.91684 10.2268 1.71426 11.0144C1.51168 11.802 1.53292 12.6305 1.77558 13.4067C1.88769 13.7886 2.08346 14.1408 2.34869 14.4376C2.61392 14.7344 2.94194 14.9685 3.30892 15.1227C3.66486 15.275 4.05023 15.3461 4.43709 15.331C4.82395 15.3159 5.20259 15.2149 5.54558 15.0353C6.53205 14.5237 7.43466 13.8646 8.22224 13.0807V14.6667C8.22224 14.8435 8.29248 15.013 8.41751 15.1381C8.54253 15.2631 8.7121 15.3333 8.88891 15.3333C9.06572 15.3333 9.23529 15.2631 9.36031 15.1381C9.48534 15.013 9.55558 14.8435 9.55558 14.6667V13.0807C10.3436 13.8648 11.2469 14.5237 12.2342 15.0347C12.5771 15.2145 12.9558 15.3157 13.3426 15.3309C13.7295 15.3461 14.1149 15.275 14.4709 15.1227C14.8378 14.9685 15.1657 14.7346 15.431 14.4379C15.6962 14.1412 15.892 13.7891 16.0042 13.4073C16.2551 12.6302 16.2836 11.7983 16.0865 11.0058C15.8894 10.2134 15.4746 9.49177 14.8889 8.92267C15.0029 8.828 15.1142 8.728 15.2222 8.62133ZM8.22224 10.424C8.22224 11.4093 6.83558 12.852 4.92425 13.8547C4.75611 13.9438 4.56999 13.9937 4.37984 14.0006C4.18968 14.0075 4.00042 13.9713 3.82625 13.8947C3.64127 13.8166 3.476 13.6984 3.34247 13.5484C3.20893 13.3985 3.11047 13.2207 3.05425 13.028C2.8627 12.4287 2.86014 11.785 3.0469 11.1841C3.23366 10.5833 3.6007 10.0545 4.09825 9.66933C4.60288 9.88338 5.14478 9.99574 5.69291 10C6.55891 10.0119 7.41866 9.85169 8.22224 9.52867V10.424ZM8.22224 7.99C7.46792 8.4829 6.57508 8.72014 5.67558 8.66667C5.26387 8.65742 4.85833 8.5646 4.48358 8.39385C4.10884 8.22309 3.7727 7.97796 3.49558 7.67333C2.72724 6.932 2.27366 5.9234 2.22892 4.85667C2.22892 3.05 2.70425 2.014 3.53225 2.014C4.71958 2.01333 6.29291 3.23867 8.22224 5.66067V7.99ZM9.55558 5.66667C11.4756 3.24667 13.0569 2.01333 14.2516 2.01333C15.0802 2.01333 15.5556 3.04933 15.5556 4.856C15.5107 5.9227 15.0571 6.93125 14.2889 7.67267C13.7295 8.27388 12.956 8.63091 12.1356 8.66667C11.2252 8.71999 10.3214 8.4818 9.55558 7.98667V5.66667ZM14.7236 13.032C14.6674 13.2248 14.569 13.4026 14.4355 13.5525C14.3019 13.7025 14.1366 13.8207 13.9516 13.8987C13.7773 13.9751 13.5881 14.0112 13.3979 14.0042C13.2078 13.9971 13.0217 13.9472 12.8536 13.858C10.9422 12.852 9.55558 11.4093 9.55558 10.424V9.52733C10.3603 9.85132 11.2215 10.012 12.0889 10C12.6452 9.99849 13.1952 9.88277 13.7049 9.66C14.2052 10.045 14.5724 10.5769 14.7551 11.1811C14.9378 11.7854 14.9268 12.4317 14.7236 13.0293V13.032ZM7.55558 1.33333C7.55558 0.979711 7.69605 0.640573 7.9461 0.390524C8.19615 0.140476 8.53529 0 8.88891 0C9.24253 0 9.58167 0.140476 9.83172 0.390524C10.0818 0.640573 10.2222 0.979711 10.2222 1.33333C10.2222 1.68696 10.0818 2.02609 9.83172 2.27614C9.58167 2.52619 9.24253 2.66667 8.88891 2.66667C8.53529 2.66667 8.19615 2.52619 7.9461 2.27614C7.69605 2.02609 7.55558 1.68696 7.55558 1.33333Z" fill="black"/>
</g>
<defs>
<clipPath id="clip0_482_18022">
<rect width="16" height="16" fill="white" transform="translate(0.888672)"/>
</clipPath>
</defs>
</svg>
