<svg width="16" height="16" viewBox="0 0 16 16" fill="none" xmlns="http://www.w3.org/2000/svg">
<g clip-path="url(#clip0_483_13755)">
<path d="M12.6667 2.01467C12.6667 2.00933 12.6667 2.00533 12.6667 2V0.666667C12.6667 0.489856 12.5964 0.320286 12.4714 0.195262C12.3464 0.0702379 12.1768 0 12 0C11.8232 0 11.6536 0.0702379 11.5286 0.195262C11.4036 0.320286 11.3333 0.489856 11.3333 0.666667V1.4C11.1139 1.35544 10.8906 1.33311 10.6667 1.33333H10V0.666667C10 0.489856 9.92976 0.320286 9.80474 0.195262C9.67971 0.0702379 9.51014 0 9.33333 0C9.15652 0 8.98695 0.0702379 8.86193 0.195262C8.73691 0.320286 8.66667 0.489856 8.66667 0.666667V1.33333H7.33333V0.666667C7.33333 0.489856 7.2631 0.320286 7.13807 0.195262C7.01305 0.0702379 6.84348 0 6.66667 0C6.48986 0 6.32029 0.0702379 6.19526 0.195262C6.07024 0.320286 6 0.489856 6 0.666667V1.33333H5.33333C5.10944 1.33311 4.88609 1.35544 4.66667 1.4V0.666667C4.66667 0.489856 4.59643 0.320286 4.4714 0.195262C4.34638 0.0702379 4.17681 0 4 0C3.82319 0 3.65362 0.0702379 3.5286 0.195262C3.40357 0.320286 3.33333 0.489856 3.33333 0.666667V2V2.01467C2.92052 2.32292 2.58513 2.72303 2.35371 3.18332C2.12229 3.64362 2.00119 4.15147 2 4.66667V12.6667C2.00106 13.5504 2.35259 14.3976 2.97748 15.0225C3.60237 15.6474 4.4496 15.9989 5.33333 16H10.6667C11.5504 15.9989 12.3976 15.6474 13.0225 15.0225C13.6474 14.3976 13.9989 13.5504 14 12.6667V4.66667C13.9988 4.15147 13.8777 3.64362 13.6463 3.18332C13.4149 2.72303 13.0795 2.32292 12.6667 2.01467ZM12.6667 12.6667C12.6667 13.1971 12.456 13.7058 12.0809 14.0809C11.7058 14.456 11.1971 14.6667 10.6667 14.6667H5.33333C4.8029 14.6667 4.29419 14.456 3.91912 14.0809C3.54405 13.7058 3.33333 13.1971 3.33333 12.6667V4.66667C3.33333 4.13623 3.54405 3.62753 3.91912 3.25245C4.29419 2.87738 4.8029 2.66667 5.33333 2.66667H10.6667C11.1971 2.66667 11.7058 2.87738 12.0809 3.25245C12.456 3.62753 12.6667 4.13623 12.6667 4.66667V12.6667ZM11.3333 5.33333C11.3333 5.51014 11.2631 5.67971 11.1381 5.80474C11.013 5.92976 10.8435 6 10.6667 6H5.33333C5.15652 6 4.98695 5.92976 4.86193 5.80474C4.7369 5.67971 4.66667 5.51014 4.66667 5.33333C4.66667 5.15652 4.7369 4.98695 4.86193 4.86193C4.98695 4.7369 5.15652 4.66667 5.33333 4.66667H10.6667C10.8435 4.66667 11.013 4.7369 11.1381 4.86193C11.2631 4.98695 11.3333 5.15652 11.3333 5.33333ZM11.3333 8C11.3333 8.17681 11.2631 8.34638 11.1381 8.47141C11.013 8.59643 10.8435 8.66667 10.6667 8.66667H5.33333C5.15652 8.66667 4.98695 8.59643 4.86193 8.47141C4.7369 8.34638 4.66667 8.17681 4.66667 8C4.66667 7.82319 4.7369 7.65362 4.86193 7.5286C4.98695 7.40357 5.15652 7.33333 5.33333 7.33333H10.6667C10.8435 7.33333 11.013 7.40357 11.1381 7.5286C11.2631 7.65362 11.3333 7.82319 11.3333 8ZM8.66667 10.6667C8.66667 10.8435 8.59643 11.013 8.4714 11.1381C8.34638 11.2631 8.17681 11.3333 8 11.3333H5.33333C5.15652 11.3333 4.98695 11.2631 4.86193 11.1381C4.7369 11.013 4.66667 10.8435 4.66667 10.6667C4.66667 10.4899 4.7369 10.3203 4.86193 10.1953C4.98695 10.0702 5.15652 10 5.33333 10H8C8.17681 10 8.34638 10.0702 8.4714 10.1953C8.59643 10.3203 8.66667 10.4899 8.66667 10.6667Z" fill="black"/>
</g>
<defs>
<clipPath id="clip0_483_13755">
<rect width="16" height="16" fill="white"/>
</clipPath>
</defs>
</svg>
