<svg width="17" height="16" viewBox="0 0 17 16" fill="none" xmlns="http://www.w3.org/2000/svg">
<g clip-path="url(#clip0_483_13656)">
<path d="M8.11133 0C6.14166 0.00140425 4.24208 0.731081 2.778 2.04867V0.666667C2.778 0.489856 2.70776 0.320286 2.58273 0.195262C2.45771 0.0702379 2.28814 0 2.11133 0C1.93452 0 1.76495 0.0702379 1.63992 0.195262C1.5149 0.320286 1.44466 0.489856 1.44466 0.666667V2.66667C1.44466 3.1971 1.65538 3.70581 2.03045 4.08088C2.40552 4.45595 2.91423 4.66667 3.44466 4.66667H5.44466C5.62147 4.66667 5.79104 4.59643 5.91607 4.47141C6.04109 4.34638 6.11133 4.17681 6.11133 4C6.11133 3.82319 6.04109 3.65362 5.91607 3.5286C5.79104 3.40357 5.62147 3.33333 5.44466 3.33333H3.44466C3.42218 3.33 3.39992 3.32533 3.378 3.31933C4.46434 2.22522 5.89675 1.54205 7.43071 1.38644C8.96466 1.23084 10.5051 1.61244 11.789 2.46611C13.0729 3.31978 14.0208 4.5926 14.4708 6.0673C14.9208 7.54201 14.845 9.12717 14.2564 10.5522C13.6678 11.9773 12.6028 13.1539 11.2433 13.8812C9.88378 14.6085 8.31399 14.8414 6.80187 14.5401C5.28975 14.2389 3.92905 13.4222 2.95203 12.2295C1.97501 11.0367 1.44224 9.54183 1.44466 8C1.44466 7.82319 1.37442 7.65362 1.2494 7.5286C1.12438 7.40357 0.954806 7.33333 0.777995 7.33333C0.601184 7.33333 0.431615 7.40357 0.30659 7.5286C0.181566 7.65362 0.111328 7.82319 0.111328 8C0.111328 9.58225 0.58052 11.129 1.45957 12.4446C2.33862 13.7602 3.58805 14.7855 5.04986 15.391C6.51167 15.9965 8.1202 16.155 9.67205 15.8463C11.2239 15.5376 12.6494 14.7757 13.7682 13.6569C14.887 12.538 15.6489 11.1126 15.9576 9.56072C16.2663 8.00887 16.1079 6.40034 15.5024 4.93853C14.8969 3.47672 13.8715 2.22729 12.5559 1.34824C11.2403 0.469192 9.69358 0 8.11133 0V0Z" fill="black"/>
<path d="M8.111 4C7.93419 4 7.76462 4.07024 7.6396 4.19526C7.51457 4.32029 7.44434 4.48986 7.44434 4.66667V8C7.44437 8.1768 7.51464 8.34634 7.63967 8.47133L9.63967 10.4713C9.7654 10.5928 9.9338 10.66 10.1086 10.6584C10.2834 10.6569 10.4506 10.5868 10.5742 10.4632C10.6978 10.3396 10.7679 10.1724 10.7695 9.9976C10.771 9.8228 10.7038 9.6544 10.5823 9.52867L8.77767 7.724V4.66667C8.77767 4.48986 8.70743 4.32029 8.58241 4.19526C8.45738 4.07024 8.28781 4 8.111 4Z" fill="black"/>
</g>
<defs>
<clipPath id="clip0_483_13656">
<rect width="16" height="16" fill="white" transform="translate(0.111328)"/>
</clipPath>
</defs>
</svg>
