<svg width="17" height="16" viewBox="0 0 17 16" fill="none" xmlns="http://www.w3.org/2000/svg">
<g clip-path="url(#clip0_483_13712)">
<path d="M12.8893 9.33377C12.3406 9.33738 11.8016 9.47833 11.3213 9.74377L9.08932 7.0671L14.0673 1.09377C14.1755 0.957432 14.2261 0.784197 14.2082 0.611073C14.1904 0.43795 14.1056 0.278664 13.9719 0.167246C13.8382 0.0558286 13.6662 0.00111296 13.4927 0.0147886C13.3192 0.0284643 13.1579 0.109447 13.0433 0.240436L8.22266 6.02577L3.40132 0.240436C3.28673 0.109447 3.12545 0.0284643 2.95195 0.0147886C2.77845 0.00111296 2.60648 0.0558286 2.47278 0.167246C2.33908 0.278664 2.25425 0.43795 2.23641 0.611073C2.21857 0.784197 2.26915 0.957432 2.37732 1.09377L7.35599 7.0671L5.12399 9.74377C4.64363 9.47865 4.10465 9.33772 3.55599 9.33377C2.89672 9.33377 2.25225 9.52927 1.70409 9.89554C1.15593 10.2618 0.728685 10.7824 0.476393 11.3915C0.224101 12.0006 0.158089 12.6708 0.286707 13.3174C0.415324 13.964 0.732793 14.558 1.19897 15.0241C1.66514 15.4903 2.25909 15.8078 2.90569 15.9364C3.55229 16.065 4.22252 15.999 4.8316 15.7467C5.44069 15.4944 5.96128 15.0672 6.32756 14.519C6.69383 13.9708 6.88932 13.3264 6.88932 12.6671C6.88551 11.9138 6.62389 11.1844 6.14799 10.6004L8.22266 8.10844L10.2967 10.6004C9.82138 11.1847 9.56005 11.9139 9.55599 12.6671C9.55599 13.3264 9.75149 13.9708 10.1178 14.519C10.484 15.0672 11.0046 15.4944 11.6137 15.7467C12.2228 15.999 12.893 16.065 13.5396 15.9364C14.1862 15.8078 14.7802 15.4903 15.2463 15.0241C15.7125 14.558 16.03 13.964 16.1586 13.3174C16.2872 12.6708 16.2212 12.0006 15.9689 11.3915C15.7166 10.7824 15.2894 10.2618 14.7412 9.89554C14.1931 9.52927 13.5486 9.33377 12.8893 9.33377ZM3.55599 14.6671C3.16043 14.6671 2.77375 14.5498 2.44485 14.33C2.11595 14.1103 1.85961 13.7979 1.70823 13.4325C1.55686 13.067 1.51725 12.6649 1.59442 12.2769C1.67159 11.889 1.86207 11.5326 2.14178 11.2529C2.42148 10.9732 2.77785 10.7827 3.16581 10.7055C3.55377 10.6284 3.95591 10.668 4.32136 10.8193C4.68681 10.9707 4.99917 11.2271 5.21893 11.556C5.43869 11.8849 5.55599 12.2715 5.55599 12.6671C5.55599 13.1975 5.34528 13.7062 4.9702 14.0813C4.59513 14.4564 4.08642 14.6671 3.55599 14.6671ZM12.8893 14.6671C12.4938 14.6671 12.1071 14.5498 11.7782 14.33C11.4493 14.1103 11.1929 13.7979 11.0416 13.4325C10.8902 13.067 10.8506 12.6649 10.9278 12.2769C11.0049 11.889 11.1954 11.5326 11.4751 11.2529C11.7548 10.9732 12.1112 10.7827 12.4991 10.7055C12.8871 10.6284 13.2892 10.668 13.6547 10.8193C14.0201 10.9707 14.3325 11.2271 14.5523 11.556C14.772 11.8849 14.8893 12.2715 14.8893 12.6671C14.8893 13.1975 14.6786 13.7062 14.3035 14.0813C13.9285 14.4564 13.4198 14.6671 12.8893 14.6671Z" fill="black"/>
</g>
<defs>
<clipPath id="clip0_483_13712">
<rect width="16" height="16" fill="white" transform="translate(0.222656)"/>
</clipPath>
</defs>
</svg>
