<svg width="16" height="16" viewBox="0 0 16 16" fill="none" xmlns="http://www.w3.org/2000/svg">
<g clip-path="url(#clip0_483_13722)">
<path d="M15.0732 0.139133C14.9332 0.0317518 14.7564 -0.0157732 14.5814 0.00696929C14.4065 0.0297117 14.2477 0.120867 14.1398 0.260466L7.99984 8.24047L1.86117 0.260466C1.75161 0.125413 1.59363 0.0385137 1.42091 0.0183033C1.24818 -0.00190704 1.0744 0.046172 0.936631 0.152284C0.798859 0.258397 0.708002 0.414143 0.683442 0.586299C0.658883 0.758456 0.702564 0.933395 0.805168 1.0738L7.1585 9.3338H3.99983C3.82302 9.3338 3.65345 9.40404 3.52843 9.52906C3.40341 9.65409 3.33317 9.82366 3.33317 10.0005C3.33317 10.1773 3.40341 10.3468 3.52843 10.4719C3.65345 10.5969 3.82302 10.6671 3.99983 10.6671H7.33317V12.0005H3.99983C3.82302 12.0005 3.65345 12.0707 3.52843 12.1957C3.40341 12.3208 3.33317 12.4903 3.33317 12.6671C3.33317 12.8439 3.40341 13.0135 3.52843 13.1385C3.65345 13.2636 3.82302 13.3338 3.99983 13.3338H7.33317V15.3338C7.33317 15.5106 7.40341 15.6802 7.52843 15.8052C7.65345 15.9302 7.82302 16.0005 7.99984 16.0005C8.17665 16.0005 8.34622 15.9302 8.47124 15.8052C8.59626 15.6802 8.6665 15.5106 8.6665 15.3338V13.3338H11.9998C12.1766 13.3338 12.3462 13.2636 12.4712 13.1385C12.5963 13.0135 12.6665 12.8439 12.6665 12.6671C12.6665 12.4903 12.5963 12.3208 12.4712 12.1957C12.3462 12.0707 12.1766 12.0005 11.9998 12.0005H8.6665V10.6671H11.9998C12.1766 10.6671 12.3462 10.5969 12.4712 10.4719C12.5963 10.3468 12.6665 10.1773 12.6665 10.0005C12.6665 9.82366 12.5963 9.65409 12.4712 9.52906C12.3462 9.40404 12.1766 9.3338 11.9998 9.3338H8.84117L15.1945 1.0738C15.3023 0.933744 15.3501 0.756615 15.3273 0.581348C15.3046 0.406081 15.2132 0.247021 15.0732 0.139133Z" fill="black"/>
</g>
<defs>
<clipPath id="clip0_483_13722">
<rect width="16" height="16" fill="white"/>
</clipPath>
</defs>
</svg>
