<svg width="16" height="16" viewBox="0 0 16 16" fill="none" xmlns="http://www.w3.org/2000/svg">
<g clip-path="url(#clip0_482_18087)">
<path d="M12.6667 16H3.33333C2.4496 15.9989 1.60237 15.6474 0.97748 15.0225C0.352588 14.3976 0.00105857 13.5504 0 12.6667L0 3.33333C0.00105857 2.4496 0.352588 1.60237 0.97748 0.97748C1.60237 0.352588 2.4496 0.00105857 3.33333 0L12.6667 0C13.5504 0.00105857 14.3976 0.352588 15.0225 0.97748C15.6474 1.60237 15.9989 2.4496 16 3.33333V12.6667C15.9989 13.5504 15.6474 14.3976 15.0225 15.0225C14.3976 15.6474 13.5504 15.9989 12.6667 16ZM3.33333 1.33333C2.8029 1.33333 2.29419 1.54405 1.91912 1.91912C1.54405 2.29419 1.33333 2.8029 1.33333 3.33333V12.6667C1.33333 13.1971 1.54405 13.7058 1.91912 14.0809C2.29419 14.456 2.8029 14.6667 3.33333 14.6667H12.6667C13.1971 14.6667 13.7058 14.456 14.0809 14.0809C14.456 13.7058 14.6667 13.1971 14.6667 12.6667V3.33333C14.6667 2.8029 14.456 2.29419 14.0809 1.91912C13.7058 1.54405 13.1971 1.33333 12.6667 1.33333H3.33333ZM7.33333 8C7.33333 8.13185 7.37243 8.26075 7.44569 8.37038C7.51894 8.48001 7.62306 8.56546 7.74488 8.61592C7.86669 8.66638 8.00074 8.67958 8.13006 8.65386C8.25938 8.62813 8.37817 8.56464 8.47141 8.47141C8.56464 8.37817 8.62813 8.25938 8.65386 8.13006C8.67958 8.00074 8.66638 7.86669 8.61592 7.74488C8.56546 7.62306 8.48001 7.51894 8.37038 7.44569C8.26075 7.37243 8.13185 7.33333 8 7.33333C7.82319 7.33333 7.65362 7.40357 7.5286 7.5286C7.40357 7.65362 7.33333 7.82319 7.33333 8ZM4 4.66667C4 4.79852 4.0391 4.92741 4.11235 5.03705C4.18561 5.14668 4.28973 5.23213 4.41154 5.28259C4.53336 5.33305 4.66741 5.34625 4.79673 5.32052C4.92605 5.2948 5.04484 5.23131 5.13807 5.13807C5.23131 5.04484 5.2948 4.92605 5.32052 4.79673C5.34625 4.66741 5.33305 4.53336 5.28259 4.41154C5.23213 4.28973 5.14668 4.18561 5.03705 4.11235C4.92741 4.0391 4.79852 4 4.66667 4C4.48986 4 4.32029 4.07024 4.19526 4.19526C4.07024 4.32029 4 4.48986 4 4.66667ZM10.6667 4.66667C10.6667 4.79852 10.7058 4.92741 10.779 5.03705C10.8523 5.14668 10.9564 5.23213 11.0782 5.28259C11.2 5.33305 11.3341 5.34625 11.4634 5.32052C11.5927 5.2948 11.7115 5.23131 11.8047 5.13807C11.898 5.04484 11.9615 4.92605 11.9872 4.79673C12.0129 4.66741 11.9997 4.53336 11.9493 4.41154C11.8988 4.28973 11.8133 4.18561 11.7037 4.11235C11.5941 4.0391 11.4652 4 11.3333 4C11.1565 4 10.987 4.07024 10.8619 4.19526C10.7369 4.32029 10.6667 4.48986 10.6667 4.66667ZM4 11.3333C4 11.4652 4.0391 11.5941 4.11235 11.7037C4.18561 11.8133 4.28973 11.8988 4.41154 11.9493C4.53336 11.9997 4.66741 12.0129 4.79673 11.9872C4.92605 11.9615 5.04484 11.898 5.13807 11.8047C5.23131 11.7115 5.2948 11.5927 5.32052 11.4634C5.34625 11.3341 5.33305 11.2 5.28259 11.0782C5.23213 10.9564 5.14668 10.8523 5.03705 10.779C4.92741 10.7058 4.79852 10.6667 4.66667 10.6667C4.48986 10.6667 4.32029 10.7369 4.19526 10.8619C4.07024 10.987 4 11.1565 4 11.3333ZM10.6667 11.3333C10.6667 11.4652 10.7058 11.5941 10.779 11.7037C10.8523 11.8133 10.9564 11.8988 11.0782 11.9493C11.2 11.9997 11.3341 12.0129 11.4634 11.9872C11.5927 11.9615 11.7115 11.898 11.8047 11.8047C11.898 11.7115 11.9615 11.5927 11.9872 11.4634C12.0129 11.3341 11.9997 11.2 11.9493 11.0782C11.8988 10.9564 11.8133 10.8523 11.7037 10.779C11.5941 10.7058 11.4652 10.6667 11.3333 10.6667C11.1565 10.6667 10.987 10.7369 10.8619 10.8619C10.7369 10.987 10.6667 11.1565 10.6667 11.3333Z" fill="black"/>
</g>
<defs>
<clipPath id="clip0_482_18087">
<rect width="16" height="16" fill="white"/>
</clipPath>
</defs>
</svg>
