<svg width="17" height="16" viewBox="0 0 17 16" fill="none" xmlns="http://www.w3.org/2000/svg">
<g clip-path="url(#clip0_483_13775)">
<path d="M8.88868 0C7.30643 0 5.75971 0.469192 4.44411 1.34824C3.12852 2.22729 2.10314 3.47672 1.49764 4.93853C0.892138 6.40034 0.733711 8.00887 1.04239 9.56072C1.35107 11.1126 2.113 12.538 3.23182 13.6569C4.35064 14.7757 5.77611 15.5376 7.32795 15.8463C8.8798 16.155 10.4883 15.9965 11.9501 15.391C13.412 14.7855 14.6614 13.7602 15.5404 12.4446C16.4195 11.129 16.8887 9.58225 16.8887 8C16.8864 5.87897 16.0428 3.84547 14.543 2.34568C13.0432 0.845886 11.0097 0.00229405 8.88868 0V0ZM8.88868 14.6667C7.57013 14.6667 6.2812 14.2757 5.18487 13.5431C4.08855 12.8106 3.23406 11.7694 2.72948 10.5512C2.22489 9.33305 2.09287 7.99261 2.35011 6.6994C2.60734 5.40619 3.24228 4.21831 4.17463 3.28596C5.10698 2.35361 6.29487 1.71867 7.58807 1.46143C8.88128 1.2042 10.2217 1.33622 11.4399 1.8408C12.6581 2.34539 13.6993 3.19987 14.4318 4.2962C15.1643 5.39253 15.5553 6.68146 15.5553 8C15.5534 9.76752 14.8504 11.4621 13.6006 12.7119C12.3508 13.9617 10.6562 14.6647 8.88868 14.6667Z" fill="black"/>
<path d="M8.889 4.66626C8.22973 4.66626 7.58526 4.86176 7.0371 5.22803C6.48893 5.5943 6.06169 6.11489 5.8094 6.72398C5.55711 7.33307 5.4911 8.00329 5.61971 8.64989C5.74833 9.2965 6.0658 9.89044 6.53198 10.3566C6.99815 10.8228 7.59209 11.1403 8.2387 11.2689C8.8853 11.3975 9.55552 11.3315 10.1646 11.0792C10.7737 10.8269 11.2943 10.3997 11.6606 9.85149C12.0268 9.30333 12.2223 8.65886 12.2223 7.99959C12.2213 7.11586 11.8697 6.26863 11.2449 5.64374C10.62 5.01885 9.77273 4.66732 8.889 4.66626ZM8.889 9.99959C8.49344 9.99959 8.10676 9.8823 7.77786 9.66253C7.44896 9.44277 7.19261 9.13041 7.04124 8.76496C6.88986 8.39951 6.85026 7.99738 6.92743 7.60941C7.0046 7.22145 7.19508 6.86508 7.47479 6.58538C7.75449 6.30567 8.11086 6.11519 8.49882 6.03802C8.88678 5.96085 9.28891 6.00046 9.65437 6.15183C10.0198 6.30321 10.3322 6.55955 10.5519 6.88845C10.7717 7.21735 10.889 7.60403 10.889 7.99959C10.889 8.53003 10.6783 9.03873 10.3032 9.41381C9.92814 9.78888 9.41943 9.99959 8.889 9.99959Z" fill="black"/>
<path d="M8.88835 8.66708C9.25654 8.66708 9.55502 8.3686 9.55502 8.00041C9.55502 7.63222 9.25654 7.33374 8.88835 7.33374C8.52016 7.33374 8.22168 7.63222 8.22168 8.00041C8.22168 8.3686 8.52016 8.66708 8.88835 8.66708Z" fill="black"/>
</g>
<defs>
<clipPath id="clip0_483_13775">
<rect width="16" height="16" fill="white" transform="translate(0.888672)"/>
</clipPath>
</defs>
</svg>
