<svg width="17" height="16" viewBox="0 0 17 16" fill="none" xmlns="http://www.w3.org/2000/svg">
<g clip-path="url(#clip0_482_18006)">
<path d="M15.7774 3.33333H14.0534L15.582 1.80467C15.7035 1.67893 15.7707 1.51053 15.7692 1.33573C15.7676 1.16093 15.6975 0.993726 15.5739 0.870121C15.4503 0.746516 15.2831 0.676403 15.1083 0.674884C14.9335 0.673365 14.7651 0.740561 14.6394 0.862L13.1107 2.39067V0.666667C13.1107 0.489856 13.0405 0.320286 12.9154 0.195262C12.7904 0.0702379 12.6208 0 12.444 0C12.2672 0 12.0977 0.0702379 11.9726 0.195262C11.8476 0.320286 11.7774 0.489856 11.7774 0.666667V3.63733C11.2317 3.05641 10.5875 2.57657 9.8747 2.22C9.37421 1.99924 8.81531 1.94803 8.28304 2.07415C7.75076 2.20026 7.27426 2.49681 6.92603 2.91867C5.75403 4.09067 2.48737 10.0807 0.644035 13.546C0.482028 13.8613 0.424294 14.2199 0.479153 14.5701C0.534011 14.9203 0.698629 15.2441 0.949289 15.4947C1.19995 15.7454 1.52371 15.91 1.87393 15.9649C2.22414 16.0197 2.58273 15.962 2.89803 15.8C6.3647 13.9573 12.3534 10.69 13.5254 9.518C13.9471 9.16984 14.2436 8.69349 14.3698 8.16138C14.4961 7.62927 14.4451 7.0705 14.2247 6.57C13.8677 5.85709 13.3876 5.21277 12.8067 4.66667H15.7774C15.9542 4.66667 16.1237 4.59643 16.2488 4.4714C16.3738 4.34638 16.444 4.17681 16.444 4C16.444 3.82319 16.3738 3.65362 16.2488 3.5286C16.1237 3.40357 15.9542 3.33333 15.7774 3.33333ZM12.5827 8.57533C12.1061 8.98316 11.5946 9.34834 11.054 9.66667L9.58204 8.19533C9.4563 8.0739 9.2879 8.0067 9.1131 8.00822C8.9383 8.00974 8.77109 8.07985 8.64749 8.20345C8.52388 8.32706 8.45377 8.49427 8.45225 8.66907C8.45073 8.84386 8.51793 9.01227 8.63937 9.138L9.88603 10.384C8.05537 11.4793 5.4267 12.9453 2.27203 14.6227C2.20902 14.6561 2.13695 14.6684 2.06641 14.6578C1.99586 14.6473 1.93058 14.6143 1.88014 14.5639C1.8297 14.5135 1.79677 14.4482 1.78619 14.3776C1.77562 14.3071 1.78794 14.235 1.82137 14.172C2.83603 12.2647 3.77003 10.556 4.5947 9.09333L5.9727 10.4713C6.09844 10.5928 6.26684 10.66 6.44164 10.6584C6.61643 10.6569 6.78364 10.5868 6.90725 10.4632C7.03085 10.3396 7.10097 10.1724 7.10248 9.9976C7.104 9.8228 7.03681 9.6544 6.91537 9.52867L5.27803 7.89133C6.0047 6.632 6.61537 5.62467 7.08403 4.916L8.63937 6.47133C8.7651 6.59277 8.9335 6.65997 9.1083 6.65845C9.2831 6.65693 9.45031 6.58682 9.57391 6.46321C9.69752 6.33961 9.76763 6.1724 9.76915 5.9976C9.77067 5.8228 9.70347 5.6544 9.58204 5.52867L7.89337 3.84C8.45803 3.314 8.80404 3.22533 9.3487 3.44533C10.1047 3.8768 10.7827 4.43258 11.354 5.08933C12.011 5.66088 12.567 6.33904 12.9987 7.09533C13.1647 7.482 13.2294 7.92933 12.5827 8.57533Z" fill="black"/>
</g>
<defs>
<clipPath id="clip0_482_18006">
<rect width="16" height="16" fill="white" transform="translate(0.444336)"/>
</clipPath>
</defs>
</svg>
