<svg width="16" height="16" viewBox="0 0 16 16" fill="none" xmlns="http://www.w3.org/2000/svg">
<g clip-path="url(#clip0_483_13723)">
<path d="M6.9475 13.7707C6.41174 13.7702 5.89015 13.5985 5.45884 13.2807L1.0315 10.034C0.712363 9.79965 0.452868 9.49347 0.27401 9.14023C0.0951521 8.78699 0.00195313 8.39661 0.00195312 8.00067C0.00195313 7.60472 0.0951521 7.21434 0.27401 6.8611C0.452868 6.50786 0.712363 6.20168 1.0315 5.96733L5.45884 2.72067C5.82195 2.45383 6.24993 2.28916 6.69825 2.24378C7.14658 2.1984 7.59887 2.27396 8.00809 2.46262C8.41732 2.65127 8.76852 2.94612 9.02518 3.3165C9.28184 3.68688 9.43457 4.11926 9.4675 4.56867L11.9888 2.71933C12.3648 2.44437 12.8094 2.27883 13.2737 2.24108C13.7379 2.20332 14.2035 2.29481 14.6189 2.50541C15.0343 2.71602 15.3833 3.03751 15.6272 3.43428C15.8711 3.83104 16.0004 4.28759 16.0008 4.75333V11.2467C16.0007 11.7127 15.8715 12.1697 15.6275 12.5668C15.3834 12.9639 15.0342 13.2856 14.6184 13.4963C14.2027 13.7069 13.7367 13.7983 13.2722 13.7603C12.8076 13.7222 12.3628 13.5562 11.9868 13.2807L9.4675 11.4313C9.42025 12.067 9.1345 12.6613 8.66753 13.0951C8.20057 13.5289 7.58689 13.7702 6.9495 13.7707H6.9475ZM8.8055 9.454C8.94747 9.45399 9.08574 9.4993 9.20017 9.58333L12.7755 12.2053C12.9527 12.3351 13.1624 12.4133 13.3813 12.4311C13.6002 12.449 13.8198 12.406 14.0157 12.3067C14.2117 12.2074 14.3763 12.0558 14.4913 11.8687C14.6063 11.6816 14.6673 11.4663 14.6675 11.2467V4.75333C14.6672 4.53368 14.6061 4.3184 14.4909 4.13134C14.3758 3.94427 14.2112 3.79273 14.0152 3.69347C13.8193 3.59422 13.5997 3.55114 13.3807 3.569C13.1618 3.58686 12.9521 3.66497 12.7748 3.79467L9.20084 6.41667C9.10151 6.48963 8.9839 6.53363 8.86107 6.54378C8.73824 6.55393 8.615 6.52983 8.50504 6.47416C8.39508 6.41849 8.30271 6.33343 8.23818 6.22842C8.17365 6.12342 8.13949 6.00258 8.1395 5.87933V4.75333C8.13943 4.53358 8.07847 4.31815 7.96339 4.13093C7.84831 3.94372 7.68362 3.79205 7.48758 3.69275C7.29154 3.59346 7.07182 3.55042 6.85281 3.5684C6.63379 3.58639 6.42404 3.66471 6.24684 3.79467L1.82017 7.04133C1.66957 7.15173 1.5471 7.29606 1.46268 7.46261C1.37826 7.62917 1.33427 7.81327 1.33427 8C1.33427 8.18673 1.37826 8.37083 1.46268 8.53739C1.5471 8.70394 1.66957 8.84827 1.82017 8.95867L6.24684 12.2053C6.42404 12.3351 6.63373 12.4133 6.85264 12.4311C7.07155 12.449 7.29114 12.406 7.48706 12.3067C7.68299 12.2074 7.8476 12.0558 7.96264 11.8687C8.07768 11.6816 8.13867 11.4663 8.13884 11.2467V10.1207C8.13884 9.94385 8.20907 9.77429 8.3341 9.64926C8.45912 9.52424 8.62869 9.454 8.8055 9.454Z" fill="black"/>
</g>
<defs>
<clipPath id="clip0_483_13723">
<rect width="16" height="16" fill="white"/>
</clipPath>
</defs>
</svg>
