<svg width="16" height="16" viewBox="0 0 16 16" fill="none" xmlns="http://www.w3.org/2000/svg">
<g clip-path="url(#clip0_482_18081)">
<path d="M7.33333 8C7.51014 8 7.67971 8.07024 7.80474 8.19526C7.92976 8.32029 8 8.48986 8 8.66667C8 8.84348 7.92976 9.01305 7.80474 9.13807C7.67971 9.2631 7.51014 9.33333 7.33333 9.33333H5.33333C5.15652 9.33333 4.98695 9.2631 4.86193 9.13807C4.7369 9.01305 4.66667 8.84348 4.66667 8.66667C4.66667 8.48986 4.7369 8.32029 4.86193 8.19526C4.98695 8.07024 5.15652 8 5.33333 8H7.33333ZM11.3333 6C11.3333 5.82319 11.2631 5.65362 11.1381 5.5286C11.013 5.40357 10.8435 5.33333 10.6667 5.33333H5.33333C5.15652 5.33333 4.98695 5.40357 4.86193 5.5286C4.7369 5.65362 4.66667 5.82319 4.66667 6C4.66667 6.17681 4.7369 6.34638 4.86193 6.4714C4.98695 6.59643 5.15652 6.66667 5.33333 6.66667H10.6667C10.8435 6.66667 11.013 6.59643 11.1381 6.4714C11.2631 6.34638 11.3333 6.17681 11.3333 6ZM5.33333 4H10.6667C10.8435 4 11.013 3.92976 11.1381 3.80474C11.2631 3.67971 11.3333 3.51014 11.3333 3.33333C11.3333 3.15652 11.2631 2.98695 11.1381 2.86193C11.013 2.7369 10.8435 2.66667 10.6667 2.66667H5.33333C5.15652 2.66667 4.98695 2.7369 4.86193 2.86193C4.7369 2.98695 4.66667 3.15652 4.66667 3.33333C4.66667 3.51014 4.7369 3.67971 4.86193 3.80474C4.98695 3.92976 5.15652 4 5.33333 4ZM13.3333 12.9627V15.518C13.3334 15.6131 13.3052 15.7061 13.2524 15.7852C13.1996 15.8643 13.1245 15.9259 13.0366 15.9623C12.9488 15.9987 12.8521 16.0082 12.7588 15.9897C12.6656 15.9711 12.5799 15.9253 12.5127 15.858L12 15.346L11.4873 15.858C11.4201 15.9253 11.3344 15.9711 11.2412 15.9897C11.1479 16.0082 11.0512 15.9987 10.9634 15.9623C10.8755 15.9259 10.8004 15.8643 10.7476 15.7852C10.6948 15.7061 10.6666 15.6131 10.6667 15.518V12.9627C10.1582 12.6705 9.76067 12.2185 9.53588 11.6769C9.3111 11.1353 9.27171 10.5346 9.42386 9.96831C9.57601 9.40201 9.91115 8.90192 10.3771 8.54592C10.843 8.18991 11.4136 7.99798 12 8C12.2254 8.00282 12.4494 8.03463 12.6667 8.09467V3.33333C12.6667 2.8029 12.456 2.29419 12.0809 1.91912C11.7058 1.54405 11.1971 1.33333 10.6667 1.33333H5.33333C4.8029 1.33333 4.29419 1.54405 3.91912 1.91912C3.54405 2.29419 3.33333 2.8029 3.33333 3.33333V11.3333C3.33333 11.8638 3.54405 12.3725 3.91912 12.7475C4.29419 13.1226 4.8029 13.3333 5.33333 13.3333H8.66667C8.84348 13.3333 9.01305 13.4036 9.13807 13.5286C9.26309 13.6536 9.33333 13.8232 9.33333 14C9.33333 14.1768 9.26309 14.3464 9.13807 14.4714C9.01305 14.5964 8.84348 14.6667 8.66667 14.6667H5.33333C4.4496 14.6656 3.60237 14.3141 2.97748 13.6892C2.35259 13.0643 2.00106 12.2171 2 11.3333V3.33333C2.00106 2.4496 2.35259 1.60237 2.97748 0.97748C3.60237 0.352588 4.4496 0.00105857 5.33333 0L10.6667 0C11.5504 0.00105857 12.3976 0.352588 13.0225 0.97748C13.6474 1.60237 13.9989 2.4496 14 3.33333V8.92133C14.2611 9.2146 14.4534 9.56255 14.5627 9.93972C14.672 10.3169 14.6955 10.7137 14.6316 11.1012C14.5677 11.4886 14.4179 11.8569 14.1933 12.179C13.9687 12.501 13.6748 12.7688 13.3333 12.9627ZM13.3333 10.6667C13.3333 10.403 13.2551 10.1452 13.1086 9.92591C12.9621 9.70664 12.7539 9.53574 12.5102 9.43483C12.2666 9.33391 11.9985 9.30751 11.7399 9.35895C11.4812 9.4104 11.2437 9.53739 11.0572 9.72386C10.8707 9.91033 10.7437 10.1479 10.6923 10.4065C10.6408 10.6652 10.6672 10.9333 10.7682 11.1769C10.8691 11.4205 11.04 11.6288 11.2592 11.7753C11.4785 11.9218 11.7363 12 12 12C12.3536 12 12.6928 11.8595 12.9428 11.6095C13.1929 11.3594 13.3333 11.0203 13.3333 10.6667Z" fill="black"/>
</g>
<defs>
<clipPath id="clip0_482_18081">
<rect width="16" height="16" fill="white"/>
</clipPath>
</defs>
</svg>
