<svg width="17" height="16" viewBox="0 0 17 16" fill="none" xmlns="http://www.w3.org/2000/svg">
<g clip-path="url(#clip0_483_13823)">
<path d="M16.333 6.48249V12.6665C16.332 13.5502 15.9804 14.3975 15.3555 15.0223C14.7306 15.6472 13.8834 15.9988 12.9997 15.9998H12.333C12.1562 15.9998 11.9866 15.9296 11.8616 15.8046C11.7366 15.6795 11.6663 15.51 11.6663 15.3332C11.6663 15.1563 11.7366 14.9868 11.8616 14.8618C11.9866 14.7367 12.1562 14.6665 12.333 14.6665H12.9997C13.5301 14.6665 14.0388 14.4558 14.4139 14.0807C14.789 13.7056 14.9997 13.1969 14.9997 12.6665V6.48249C14.9997 6.1551 14.9193 5.83272 14.7657 5.54363C14.612 5.25455 14.3897 5.00761 14.1183 4.82449L9.45168 1.67583C9.12193 1.45103 8.7321 1.33079 8.33301 1.33079C7.93393 1.33079 7.5441 1.45103 7.21434 1.67583L2.54768 4.82449C2.27629 5.00761 2.05401 5.25455 1.90034 5.54363C1.74668 5.83272 1.66633 6.1551 1.66634 6.48249V12.6665C1.66634 13.1969 1.87706 13.7056 2.25213 14.0807C2.6272 14.4558 3.13591 14.6665 3.66634 14.6665H4.33301C4.50982 14.6665 4.67939 14.7367 4.80442 14.8618C4.92944 14.9868 4.99968 15.1563 4.99968 15.3332C4.99968 15.51 4.92944 15.6795 4.80442 15.8046C4.67939 15.9296 4.50982 15.9998 4.33301 15.9998H3.66634C2.78261 15.9988 1.93538 15.6472 1.31049 15.0223C0.685598 14.3975 0.334069 13.5502 0.33301 12.6665V6.48249C0.332327 5.93697 0.46573 5.39964 0.72148 4.91779C0.97723 4.43593 1.34749 4.02431 1.79968 3.71916L6.46634 0.569825C7.01652 0.196461 7.66611 -0.00314331 8.33101 -0.00314331C8.99591 -0.00314331 9.6455 0.196461 10.1957 0.569825L14.8623 3.71916C15.315 4.02415 15.6858 4.43563 15.9422 4.91745C16.1987 5.39927 16.3328 5.93669 16.333 6.48249ZM12.9997 10.0045C13.0014 10.6175 12.8815 11.2247 12.6469 11.7911C12.4123 12.3574 12.0677 12.8716 11.633 13.3038L9.28968 15.5958C9.03315 15.8442 8.69008 15.9831 8.33301 15.9831C7.97594 15.9831 7.63287 15.8442 7.37634 15.5958L5.03834 13.3092C4.49461 12.7671 4.093 12.0993 3.86914 11.3649C3.64527 10.6305 3.60605 9.85222 3.75496 9.09904C3.90388 8.34586 4.23632 7.64105 4.72281 7.0471C5.20931 6.45315 5.83483 5.98841 6.54393 5.69407C7.25303 5.39973 8.0238 5.28489 8.7879 5.35973C9.55201 5.43457 10.2858 5.69677 10.9244 6.1231C11.5629 6.54943 12.0863 7.12671 12.4483 7.80376C12.8104 8.48082 12.9997 9.23673 12.9997 10.0045ZM11.6663 10.0045C11.6664 9.45634 11.5312 8.91664 11.2728 8.43321C11.0144 7.94977 10.6408 7.53752 10.185 7.23296C9.72927 6.9284 9.20544 6.74094 8.65993 6.68718C8.11442 6.63342 7.56407 6.71502 7.05762 6.92476C6.55118 7.13449 6.10428 7.46588 5.75649 7.88958C5.40871 8.31328 5.17079 8.8162 5.06379 9.35381C4.9568 9.89142 4.98404 10.4471 5.1431 10.9717C5.30216 11.4963 5.58813 11.9735 5.97568 12.3612L8.30901 14.6425L10.6957 12.3558C11.0048 12.0474 11.2497 11.6809 11.4163 11.2773C11.5829 10.8737 11.6679 10.4411 11.6663 10.0045ZM10.333 9.99983C10.333 10.3954 10.2157 10.7821 9.99595 11.111C9.77619 11.4399 9.46383 11.6962 9.09838 11.8476C8.73293 11.999 8.33079 12.0386 7.94283 11.9614C7.55487 11.8842 7.1985 11.6937 6.9188 11.414C6.63909 11.1343 6.44861 10.778 6.37144 10.39C6.29427 10.002 6.33388 9.59991 6.48525 9.23446C6.63663 8.86901 6.89297 8.55665 7.22187 8.33689C7.55077 8.11712 7.93745 7.99983 8.33301 7.99983C8.86344 7.99983 9.37215 8.21054 9.74723 8.58561C10.1223 8.96068 10.333 9.46939 10.333 9.99983Z" fill="black"/>
</g>
<defs>
<clipPath id="clip0_483_13823">
<rect width="16" height="16" fill="white" transform="translate(0.333008)"/>
</clipPath>
</defs>
</svg>
