<svg width="16" height="16" viewBox="0 0 16 16" fill="none" xmlns="http://www.w3.org/2000/svg">
<g clip-path="url(#clip0_483_13783)">
<path d="M12.6667 0H3.33333C2.4496 0.00105857 1.60237 0.352588 0.97748 0.97748C0.352588 1.60237 0.00105857 2.4496 0 3.33333L0 12.6667C0.00105857 13.5504 0.352588 14.3976 0.97748 15.0225C1.60237 15.6474 2.4496 15.9989 3.33333 16H10.8953C11.3332 16.0011 11.767 15.9153 12.1715 15.7477C12.576 15.58 12.9432 15.3338 13.252 15.0233L15.024 13.2527C15.3345 12.9438 15.5806 12.5764 15.7481 12.1718C15.9156 11.7671 16.0013 11.3333 16 10.8953V3.33333C15.9989 2.4496 15.6474 1.60237 15.0225 0.97748C14.3976 0.352588 13.5504 0.00105857 12.6667 0V0ZM1.33333 12.6667V3.33333C1.33333 2.8029 1.54405 2.29419 1.91912 1.91912C2.29419 1.54405 2.8029 1.33333 3.33333 1.33333H12.6667C13.1971 1.33333 13.7058 1.54405 14.0809 1.91912C14.456 2.29419 14.6667 2.8029 14.6667 3.33333V10H12C11.4696 10 10.9609 10.2107 10.5858 10.5858C10.2107 10.9609 10 11.4696 10 12V14.6667H3.33333C2.8029 14.6667 2.29419 14.456 1.91912 14.0809C1.54405 13.7058 1.33333 13.1971 1.33333 12.6667ZM12.3093 14.0807C12.0405 14.3466 11.7023 14.5314 11.3333 14.614V12C11.3333 11.8232 11.4036 11.6536 11.5286 11.5286C11.6536 11.4036 11.8232 11.3333 12 11.3333H14.6147C14.5336 11.7031 14.3486 12.0419 14.0813 12.31L12.3093 14.0807ZM9.33333 6.056V4.656C9.33395 4.48158 9.36893 4.30899 9.43628 4.1481C9.50364 3.9872 9.60204 3.84116 9.72587 3.71833C9.8497 3.59549 9.99653 3.49826 10.158 3.4322C10.3194 3.36614 10.4922 3.33254 10.6667 3.33333C10.9101 3.33528 11.1485 3.40312 11.3565 3.52966C11.5645 3.65619 11.7343 3.8367 11.848 4.052C11.8734 4.10059 11.889 4.1537 11.8938 4.20831C11.8987 4.26292 11.8927 4.31795 11.8763 4.37026C11.8599 4.42257 11.8334 4.47113 11.7982 4.51318C11.763 4.55523 11.7199 4.58994 11.6713 4.61533C11.6227 4.64072 11.5696 4.65629 11.515 4.66115C11.4604 4.66602 11.4054 4.66008 11.3531 4.64367C11.3008 4.62727 11.2522 4.60072 11.2102 4.56554C11.1681 4.53037 11.1334 4.48726 11.108 4.43867C11.0647 4.35864 11.0012 4.2914 10.9237 4.24366C10.8462 4.19592 10.7576 4.16937 10.6667 4.16667C10.6009 4.16604 10.5356 4.17855 10.4747 4.20347C10.4138 4.22838 10.3585 4.2652 10.312 4.31176C10.2655 4.35833 10.2287 4.4137 10.2039 4.47464C10.179 4.53558 10.1666 4.60086 10.1673 4.66667V6.04533C10.1665 6.11119 10.1789 6.17655 10.2037 6.23757C10.2285 6.29858 10.2652 6.35404 10.3117 6.40067C10.3582 6.44731 10.4136 6.48418 10.4745 6.50914C10.5355 6.53409 10.6008 6.54663 10.6667 6.546C10.7971 6.54452 10.9219 6.49272 11.0151 6.40143C11.1082 6.31013 11.1626 6.18638 11.1667 6.056V6H11C10.9116 6 10.8268 5.96488 10.7643 5.90237C10.7018 5.83986 10.6667 5.75507 10.6667 5.66667C10.6667 5.57826 10.7018 5.49348 10.7643 5.43096C10.8268 5.36845 10.9116 5.33333 11 5.33333H11.5C11.6326 5.33333 11.7598 5.38601 11.8536 5.47978C11.9473 5.57355 12 5.70073 12 5.83333V6.056C11.9972 6.40777 11.8555 6.74418 11.6057 6.99192C11.356 7.23967 11.0184 7.37868 10.6667 7.37867C10.4922 7.37946 10.3194 7.34586 10.158 7.2798C9.99653 7.21374 9.8497 7.11651 9.72587 6.99368C9.60204 6.87084 9.50364 6.7248 9.43628 6.5639C9.36893 6.40301 9.33395 6.23042 9.33333 6.056ZM5.33333 3.76667V6.004C5.33281 6.18536 5.29653 6.36484 5.22656 6.53216C5.15659 6.69949 5.05431 6.85137 4.92557 6.97911C4.79683 7.10686 4.64416 7.20796 4.47631 7.27664C4.30845 7.34531 4.12869 7.38021 3.94733 7.37933C3.69025 7.37457 3.43939 7.29939 3.22206 7.16198C3.00472 7.02457 2.82923 6.8302 2.71467 6.6C2.68794 6.54903 2.67162 6.49326 2.66665 6.43593C2.66168 6.37859 2.66816 6.32085 2.68572 6.26604C2.70328 6.21124 2.73156 6.16047 2.76892 6.1167C2.80628 6.07293 2.85197 6.03702 2.90334 6.01107C2.95471 5.98512 3.01072 5.96965 3.06812 5.96555C3.12552 5.96145 3.18317 5.96881 3.2377 5.9872C3.29223 6.00559 3.34256 6.03464 3.38576 6.07266C3.42896 6.11068 3.46417 6.15691 3.48933 6.20867C3.53165 6.29573 3.59637 6.36996 3.67686 6.42374C3.75735 6.47752 3.8507 6.5089 3.94733 6.51467C4.01596 6.51539 4.08403 6.50236 4.14754 6.47635C4.21105 6.45034 4.26871 6.41187 4.31711 6.36322C4.36552 6.31456 4.40369 6.25671 4.42937 6.19307C4.45506 6.12943 4.46774 6.06129 4.46667 5.99267V3.766C4.46667 3.65107 4.51232 3.54085 4.59359 3.45959C4.67485 3.37832 4.78507 3.33267 4.9 3.33267C5.01493 3.33267 5.12515 3.37832 5.20641 3.45959C5.28768 3.54085 5.33333 3.65107 5.33333 3.766V3.76667ZM7.39333 3.33333H6.66667C6.48986 3.33333 6.32029 3.40357 6.19526 3.5286C6.07024 3.65362 6 3.82319 6 4V6.96267C6 7.07317 6.0439 7.17915 6.12204 7.2573C6.20018 7.33544 6.30616 7.37933 6.41667 7.37933C6.52717 7.37933 6.63316 7.33544 6.7113 7.2573C6.78944 7.17915 6.83333 7.07317 6.83333 6.96267V6.14867H7.39333C7.57819 6.14867 7.76124 6.11226 7.93202 6.04152C8.10281 5.97077 8.25799 5.86709 8.38871 5.73637C8.51942 5.60566 8.62311 5.45048 8.69385 5.27969C8.76459 5.10891 8.801 4.92586 8.801 4.741C8.801 4.55614 8.76459 4.3731 8.69385 4.20231C8.62311 4.03152 8.51942 3.87634 8.38871 3.74563C8.25799 3.61492 8.10281 3.51123 7.93202 3.44049C7.76124 3.36974 7.57819 3.33333 7.39333 3.33333ZM7.39333 5.31267H6.83867L6.83467 4.16667H7.39333C7.47023 4.16404 7.54686 4.17692 7.61867 4.20454C7.69048 4.23215 7.756 4.27394 7.81132 4.32741C7.86664 4.38087 7.91064 4.44493 7.94068 4.51575C7.97073 4.58658 7.98622 4.66273 7.98622 4.73967C7.98622 4.8166 7.97073 4.89275 7.94068 4.96358C7.91064 5.03441 7.86664 5.09846 7.81132 5.15193C7.756 5.2054 7.69048 5.24718 7.61867 5.2748C7.54686 5.30241 7.47023 5.31529 7.39333 5.31267Z" fill="black"/>
</g>
<defs>
<clipPath id="clip0_483_13783">
<rect width="16" height="16" fill="white"/>
</clipPath>
</defs>
</svg>
