<svg width="17" height="16" viewBox="0 0 17 16" fill="none" xmlns="http://www.w3.org/2000/svg">
<g clip-path="url(#clip0_482_18084)">
<path d="M12.8897 0H9.55637C9.37956 0 9.20999 0.0702379 9.08497 0.195262C8.95994 0.320286 8.8897 0.489856 8.8897 0.666667C8.8897 0.843478 8.95994 1.01305 9.08497 1.13807C9.20999 1.2631 9.37956 1.33333 9.55637 1.33333H12.8897C13.1867 1.33448 13.4796 1.40286 13.7464 1.53333L0.418369 14.862C0.354696 14.9235 0.303908 14.9971 0.268968 15.0784C0.234029 15.1597 0.215638 15.2472 0.214869 15.3357C0.2141 15.4243 0.230968 15.512 0.264488 15.594C0.298009 15.6759 0.347511 15.7503 0.410106 15.8129C0.472701 15.8755 0.547136 15.925 0.629067 15.9586C0.710997 15.9921 0.798784 16.0089 0.887303 16.0082C0.975823 16.0074 1.0633 15.989 1.14464 15.9541C1.22597 15.9191 1.29954 15.8683 1.36104 15.8047L14.6897 2.47667C14.8202 2.74347 14.8886 3.03634 14.8897 3.33333V6.66667C14.8897 6.84348 14.9599 7.01305 15.085 7.13807C15.21 7.2631 15.3796 7.33333 15.5564 7.33333C15.7332 7.33333 15.9028 7.2631 16.0278 7.13807C16.1528 7.01305 16.223 6.84348 16.223 6.66667V3.33333C16.222 2.4496 15.8705 1.60237 15.2456 0.97748C14.6207 0.352588 13.7734 0.00105857 12.8897 0V0Z" fill="black"/>
<path d="M4.22233 6.66671C4.74975 6.66671 5.26532 6.51031 5.70385 6.21729C6.14238 5.92428 6.48418 5.5078 6.68601 5.02053C6.88784 4.53326 6.94065 3.99708 6.83776 3.4798C6.73486 2.96252 6.48089 2.48736 6.10795 2.11442C5.73501 1.74148 5.25985 1.48751 4.74257 1.38461C4.22529 1.28172 3.68911 1.33453 3.20184 1.53636C2.71457 1.7382 2.2981 2.07999 2.00508 2.51852C1.71206 2.95705 1.55566 3.47263 1.55566 4.00004C1.55566 4.70729 1.83662 5.38556 2.33671 5.88566C2.83681 6.38576 3.51509 6.66671 4.22233 6.66671ZM4.22233 2.66671C4.48604 2.66671 4.74383 2.74491 4.96309 2.89142C5.18236 3.03792 5.35325 3.24616 5.45417 3.4898C5.55509 3.73343 5.58149 4.00152 5.53004 4.26016C5.4786 4.5188 5.35161 4.75638 5.16514 4.94285C4.97867 5.12932 4.74109 5.25631 4.48245 5.30776C4.22381 5.3592 3.95572 5.3328 3.71209 5.23188C3.46845 5.13096 3.26021 4.96007 3.1137 4.7408C2.9672 4.52154 2.889 4.26375 2.889 4.00004C2.889 3.64642 3.02947 3.30728 3.27952 3.05723C3.52957 2.80718 3.86871 2.66671 4.22233 2.66671Z" fill="black"/>
<path d="M12.2223 9.33337C11.6949 9.33337 11.1793 9.48977 10.7408 9.78279C10.3023 10.0758 9.96049 10.4923 9.75865 10.9796C9.55682 11.4668 9.50401 12.003 9.6069 12.5203C9.7098 13.0376 9.96377 13.5127 10.3367 13.8857C10.7097 14.2586 11.1848 14.5126 11.7021 14.6155C12.2194 14.7184 12.7556 14.6656 13.2428 14.4637C13.7301 14.2619 14.1466 13.9201 14.4396 13.4816C14.7326 13.043 14.889 12.5275 14.889 12C14.889 11.2928 14.608 10.6145 14.108 10.1144C13.6079 9.61433 12.9296 9.33337 12.2223 9.33337ZM12.2223 13.3334C11.9586 13.3334 11.7008 13.2552 11.4816 13.1087C11.2623 12.9622 11.0914 12.7539 10.9905 12.5103C10.8896 12.2667 10.8632 11.9986 10.9146 11.7399C10.9661 11.4813 11.0931 11.2437 11.2795 11.0572C11.466 10.8708 11.7036 10.7438 11.9622 10.6923C12.2209 10.6409 12.4889 10.6673 12.7326 10.7682C12.9762 10.8691 13.1844 11.04 13.331 11.2593C13.4775 11.4785 13.5557 11.7363 13.5557 12C13.5557 12.3537 13.4152 12.6928 13.1651 12.9428C12.9151 13.1929 12.576 13.3334 12.2223 13.3334Z" fill="black"/>
</g>
<defs>
<clipPath id="clip0_482_18084">
<rect width="16" height="16" fill="white" transform="translate(0.222656)"/>
</clipPath>
</defs>
</svg>
