<svg width="17" height="16" viewBox="0 0 17 16" fill="none" xmlns="http://www.w3.org/2000/svg">
<g clip-path="url(#clip0_482_17991)">
<path d="M1.33366 4.00002H16.0003C16.1771 4.00002 16.3467 3.92978 16.4717 3.80476C16.5968 3.67973 16.667 3.51016 16.667 3.33335C16.667 3.15654 16.5968 2.98697 16.4717 2.86195C16.3467 2.73692 16.1771 2.66669 16.0003 2.66669H1.33366C1.15685 2.66669 0.987279 2.73692 0.862254 2.86195C0.73723 2.98697 0.666992 3.15654 0.666992 3.33335C0.666992 3.51016 0.73723 3.67973 0.862254 3.80476C0.987279 3.92978 1.15685 4.00002 1.33366 4.00002Z" fill="black"/>
<path d="M16 6H6.66667C6.48986 6 6.32029 6.07024 6.19526 6.19526C6.07024 6.32029 6 6.48985 6 6.66667C6 6.84348 6.07024 7.01304 6.19526 7.13807C6.32029 7.26309 6.48986 7.33333 6.66667 7.33333H16C16.1768 7.33333 16.3464 7.26309 16.4714 7.13807C16.5964 7.01304 16.6667 6.84348 16.6667 6.66667C16.6667 6.48985 16.5964 6.32029 16.4714 6.19526C16.3464 6.07024 16.1768 6 16 6Z" fill="black"/>
<path d="M16 12.6666H6.66667C6.48986 12.6666 6.32029 12.7369 6.19526 12.8619C6.07024 12.9869 6 13.1565 6 13.3333C6 13.5101 6.07024 13.6797 6.19526 13.8047C6.32029 13.9297 6.48986 14 6.66667 14H16C16.1768 14 16.3464 13.9297 16.4714 13.8047C16.5964 13.6797 16.6667 13.5101 16.6667 13.3333C16.6667 13.1565 16.5964 12.9869 16.4714 12.8619C16.3464 12.7369 16.1768 12.6666 16 12.6666Z" fill="black"/>
<path d="M16.0003 9.33337H1.33366C1.15685 9.33337 0.987279 9.40361 0.862254 9.52864C0.73723 9.65366 0.666992 9.82323 0.666992 10C0.666992 10.1769 0.73723 10.3464 0.862254 10.4715C0.987279 10.5965 1.15685 10.6667 1.33366 10.6667H16.0003C16.1771 10.6667 16.3467 10.5965 16.4717 10.4715C16.5968 10.3464 16.667 10.1769 16.667 10C16.667 9.82323 16.5968 9.65366 16.4717 9.52864C16.3467 9.40361 16.1771 9.33337 16.0003 9.33337Z" fill="black"/>
</g>
<defs>
<clipPath id="clip0_482_17991">
<rect width="16" height="16" fill="white" transform="translate(0.666992)"/>
</clipPath>
</defs>
</svg>
