<svg width="16" height="16" viewBox="0 0 16 16" fill="none" xmlns="http://www.w3.org/2000/svg">
<g clip-path="url(#clip0_483_13715)">
<path d="M12.6667 2.66687H4.66667C3.78294 2.66793 2.93571 3.01946 2.31081 3.64435C1.68592 4.26924 1.33439 5.11647 1.33333 6.0002V7.33354H0.666667C0.489856 7.33354 0.320286 7.40377 0.195262 7.5288C0.0702379 7.65382 0 7.82339 0 8.0002C0 8.17701 0.0702379 8.34658 0.195262 8.47161C0.320286 8.59663 0.489856 8.66687 0.666667 8.66687H1.33333V10.0002C1.33439 10.8839 1.68592 11.7312 2.31081 12.3561C2.93571 12.9809 3.78294 13.3325 4.66667 13.3335H12.6667C13.5504 13.3325 14.3976 12.9809 15.0225 12.3561C15.6474 11.7312 15.9989 10.8839 16 10.0002V6.0002C15.9989 5.11647 15.6474 4.26924 15.0225 3.64435C14.3976 3.01946 13.5504 2.66793 12.6667 2.66687ZM2.66667 10.0002V8.66687C2.84348 8.66687 3.01305 8.59663 3.13807 8.47161C3.2631 8.34658 3.33333 8.17701 3.33333 8.0002C3.33333 7.82339 3.2631 7.65382 3.13807 7.5288C3.01305 7.40377 2.84348 7.33354 2.66667 7.33354V6.0002C2.66667 5.46977 2.87738 4.96106 3.25245 4.58599C3.62753 4.21092 4.13623 4.0002 4.66667 4.0002V12.0002C4.13623 12.0002 3.62753 11.7895 3.25245 11.4144C2.87738 11.0393 2.66667 10.5306 2.66667 10.0002ZM14.6667 10.0002C14.6667 10.5306 14.456 11.0393 14.0809 11.4144C13.7058 11.7895 13.1971 12.0002 12.6667 12.0002H6V4.0002H12.6667C13.1971 4.0002 13.7058 4.21092 14.0809 4.58599C14.456 4.96106 14.6667 5.46977 14.6667 6.0002V10.0002Z" fill="black"/>
</g>
<defs>
<clipPath id="clip0_483_13715">
<rect width="16" height="16" fill="white"/>
</clipPath>
</defs>
</svg>
