<svg width="17" height="16" viewBox="0 0 17 16" fill="none" xmlns="http://www.w3.org/2000/svg">
<g clip-path="url(#clip0_483_13805)">
<path d="M16.4715 14.8625L12.4922 10.8831C13.5766 9.55686 14.1098 7.86453 13.9814 6.15617C13.8531 4.44782 13.073 2.85415 11.8026 1.70481C10.5322 0.555472 8.86858 -0.0616068 7.15594 -0.0187856C5.44331 0.0240356 3.81265 0.723481 2.60126 1.93487C1.38986 3.14627 0.690417 4.77693 0.647596 6.48956C0.604775 8.20219 1.22185 9.86577 2.37119 11.1362C3.52053 12.4066 5.1142 13.1867 6.82255 13.315C8.53091 13.4434 10.2232 12.9102 11.5495 11.8258L15.5288 15.8051C15.6546 15.9266 15.823 15.9938 15.9978 15.9922C16.1726 15.9907 16.3398 15.9206 16.4634 15.797C16.587 15.6734 16.6571 15.5062 16.6586 15.3314C16.6602 15.1566 16.593 14.9882 16.4715 14.8625ZM7.33351 12.0005C6.27868 12.0005 5.24753 11.6877 4.37047 11.1016C3.49341 10.5156 2.80982 9.68265 2.40616 8.70811C2.00249 7.73357 1.89687 6.66122 2.10266 5.62665C2.30845 4.59208 2.8164 3.64178 3.56228 2.8959C4.30816 2.15002 5.25847 1.64206 6.29303 1.43628C7.3276 1.23049 8.39995 1.33611 9.37449 1.73977C10.349 2.14344 11.182 2.82703 11.768 3.70409C12.3541 4.58115 12.6668 5.6123 12.6668 6.66713C12.6653 8.08113 12.1028 9.43676 11.103 10.4366C10.1031 11.4365 8.74751 11.9989 7.33351 12.0005Z" fill="black"/>
</g>
<defs>
<clipPath id="clip0_483_13805">
<rect width="16" height="16" fill="white" transform="translate(0.666992)"/>
</clipPath>
</defs>
</svg>
