<svg width="17" height="16" viewBox="0 0 17 16" fill="none" xmlns="http://www.w3.org/2000/svg">
<g clip-path="url(#clip0_482_18027)">
<path d="M16.556 7.98875C16.5546 7.44605 16.3874 6.91673 16.0768 6.47171C15.7661 6.02669 15.327 5.68721 14.818 5.49875L14.7927 5.43808C14.1313 3.82037 12.8652 2.52434 11.2634 1.82542L11.044 1.72942C10.8552 1.22203 10.5157 0.784521 10.0711 0.475594C9.62652 0.166668 9.09808 0.00109863 8.55669 0.00109863C8.01531 0.00109863 7.48687 0.166668 7.04227 0.475594C6.59767 0.784521 6.25819 1.22203 6.06936 1.72942L5.79069 1.85475C4.20306 2.57585 2.9535 3.87983 2.30069 5.49675C1.79092 5.68248 1.35034 6.02002 1.03833 6.46387C0.726313 6.90773 0.557865 7.43657 0.555685 7.97911C0.553506 8.52166 0.7177 9.05183 1.02614 9.49818C1.33458 9.94453 1.77243 10.2856 2.28069 10.4754L2.36603 10.6754C3.03493 12.228 4.26339 13.4722 5.80736 14.1608L6.06936 14.2781C6.25872 14.7847 6.59834 15.2215 7.04274 15.5298C7.48715 15.8381 8.01513 16.0034 8.55603 16.0034C9.09692 16.0034 9.62491 15.8381 10.0693 15.5298C10.5137 15.2215 10.8533 14.7847 11.0427 14.2781L11.2874 14.1694C12.9024 13.4473 14.1722 12.1237 14.8267 10.4801C15.3339 10.2897 15.7711 9.94925 16.08 9.50419C16.3889 9.05912 16.555 8.53052 16.556 7.98875ZM8.55603 1.33342C8.81973 1.33342 9.07752 1.41161 9.29679 1.55812C9.51605 1.70463 9.68695 1.91287 9.78787 2.1565C9.88878 2.40014 9.91519 2.66823 9.86374 2.92687C9.81229 3.18551 9.6853 3.42309 9.49883 3.60956C9.31236 3.79603 9.07479 3.92302 8.81615 3.97446C8.5575 4.02591 8.28942 3.99951 8.04578 3.89859C7.80215 3.79767 7.59391 3.62678 7.4474 3.40751C7.30089 3.18824 7.22269 2.93046 7.22269 2.66675C7.22269 2.31313 7.36317 1.97399 7.61322 1.72394C7.86327 1.47389 8.2024 1.33342 8.55603 1.33342ZM3.21469 6.65675L3.26936 6.67742L3.27603 6.66075C3.61009 6.69064 3.91892 6.851 4.13555 7.10705C4.35218 7.36311 4.45916 7.69423 4.4333 8.02863C4.40744 8.36303 4.25082 8.67376 3.9974 8.89347C3.74397 9.11317 3.41417 9.22414 3.07948 9.20231C2.74479 9.18048 2.43219 9.02762 2.20944 8.77686C1.9867 8.5261 1.87177 8.19766 1.88956 7.86273C1.90735 7.5278 2.05643 7.21338 2.30448 6.98763C2.55254 6.76188 2.87957 6.643 3.21469 6.65675ZM8.55603 14.6668C8.29232 14.6668 8.03453 14.5886 7.81527 14.442C7.596 14.2955 7.4251 14.0873 7.32419 13.8437C7.22327 13.6 7.19687 13.3319 7.24831 13.0733C7.29976 12.8147 7.42675 12.5771 7.61322 12.3906C7.79969 12.2041 8.03726 12.0772 8.29591 12.0257C8.55455 11.9743 8.82264 12.0007 9.06627 12.1016C9.30991 12.2025 9.51814 12.3734 9.66465 12.5927C9.81116 12.8119 9.88936 13.0697 9.88936 13.3334C9.88936 13.687 9.74888 14.0262 9.49883 14.2762C9.24879 14.5263 8.90965 14.6668 8.55603 14.6668ZM11.1514 12.7428C11.0187 12.1534 10.6894 11.6268 10.2176 11.2495C9.74587 10.8722 9.15977 10.6666 8.55569 10.6666C7.95161 10.6666 7.36552 10.8722 6.89378 11.2495C6.42203 11.6268 6.09274 12.1534 5.96003 12.7428C5.04975 12.246 4.30191 11.4975 3.80603 10.5868C4.3935 10.454 4.91856 10.1259 5.29535 9.65601C5.67213 9.18614 5.87835 8.60234 5.88029 8.00006C5.88222 7.39777 5.67976 6.81266 5.306 6.34037C4.93224 5.86809 4.4093 5.53659 3.82269 5.40008C4.32041 4.50218 5.06119 3.76278 5.96003 3.26675C6.09329 3.85541 6.42274 4.38128 6.89429 4.75801C7.36584 5.13474 7.95147 5.33995 8.55503 5.33995C9.15859 5.33995 9.74421 5.13474 10.2158 4.75801C10.6873 4.38128 11.0168 3.85541 11.15 3.26675C12.0482 3.76223 12.7894 4.49972 13.2894 5.39542C12.7009 5.52981 12.1757 5.86027 11.7999 6.33255C11.4241 6.80483 11.22 7.39085 11.2211 7.99441C11.2223 8.59797 11.4286 9.18321 11.8063 9.65403C12.1839 10.1249 12.7104 10.4533 13.2994 10.5854C12.8019 11.4933 12.057 12.2413 11.1514 12.7428ZM13.8894 9.32208C13.6257 9.32208 13.3679 9.24389 13.1486 9.09738C12.9293 8.95087 12.7584 8.74263 12.6575 8.49899C12.5566 8.25536 12.5302 7.98727 12.5816 7.72863C12.6331 7.46999 12.7601 7.23241 12.9466 7.04594C13.133 6.85947 13.3706 6.73248 13.6292 6.68104C13.8879 6.62959 14.156 6.65599 14.3996 6.75691C14.6432 6.85783 14.8515 7.02872 14.998 7.24799C15.1445 7.46726 15.2227 7.72504 15.2227 7.98875C15.2227 8.34237 15.0822 8.68151 14.8322 8.93156C14.5821 9.18161 14.243 9.32208 13.8894 9.32208Z" fill="black"/>
</g>
<defs>
<clipPath id="clip0_482_18027">
<rect width="16" height="16" fill="white" transform="translate(0.555664)"/>
</clipPath>
</defs>
</svg>
