<svg width="17" height="16" viewBox="0 0 17 16" fill="none" xmlns="http://www.w3.org/2000/svg">
<g clip-path="url(#clip0_483_13727)">
<path d="M7.1269 1.94687L6.1829 3.48021C6.08567 3.62035 5.93842 3.7179 5.77145 3.75277C5.60448 3.78764 5.4305 3.75719 5.2853 3.66768C5.14011 3.57817 5.03474 3.43641 4.99089 3.27158C4.94704 3.10674 4.96804 2.93136 5.04957 2.78154L5.99356 1.2482C6.23029 0.870214 6.55918 0.558576 6.94936 0.342547C7.33955 0.126518 7.77823 0.0131836 8.22423 0.0131836C8.67023 0.0131836 9.10891 0.126518 9.4991 0.342547C9.88929 0.558576 10.2182 0.870214 10.4549 1.2482L13.2549 5.8042L13.5489 4.22754C13.5813 4.05365 13.6814 3.89973 13.8272 3.79965C13.973 3.69956 14.1527 3.66152 14.3266 3.69387C14.5005 3.72623 14.6544 3.82634 14.7545 3.97218C14.8545 4.11802 14.8926 4.29765 14.8602 4.47154L14.5269 6.25154C14.4416 6.70977 14.1989 7.12382 13.8408 7.42216C13.4827 7.7205 13.0317 7.8844 12.5656 7.88554C12.4356 7.88554 10.4209 7.50154 10.4209 7.50154C10.2503 7.46447 10.1011 7.362 10.0053 7.21614C9.90947 7.07027 9.87466 6.89264 9.90836 6.72139C9.94205 6.55014 10.0415 6.39893 10.1855 6.30024C10.3294 6.20155 10.5064 6.16324 10.6782 6.19354L12.1002 6.47421L9.31756 1.94687C9.20187 1.76056 9.04056 1.60684 8.8489 1.50024C8.65723 1.39365 8.44154 1.3377 8.22223 1.3377C8.00292 1.3377 7.78723 1.39365 7.59557 1.50024C7.4039 1.60684 7.24259 1.76056 7.1269 1.94687ZM15.8282 9.98621L15.1829 8.93821C15.1396 8.85864 15.0805 8.78873 15.0093 8.73275C14.9381 8.67676 14.8562 8.63588 14.7687 8.61259C14.6812 8.5893 14.5898 8.5841 14.5002 8.5973C14.4106 8.6105 14.3246 8.64182 14.2475 8.68935C14.1704 8.73689 14.1037 8.79964 14.0517 8.87378C13.9996 8.94791 13.9633 9.03188 13.9447 9.12055C13.9262 9.20922 13.926 9.30073 13.944 9.38951C13.962 9.47828 13.9979 9.56245 14.0496 9.63687L14.6949 10.6849C14.818 10.882 14.8855 11.1087 14.8903 11.3411C14.8952 11.5735 14.8371 11.8028 14.7222 12.0049C14.6118 12.2064 14.4489 12.3743 14.2507 12.4907C14.0526 12.6071 13.8267 12.6678 13.5969 12.6662H8.6729L9.52023 11.8202C9.64186 11.6946 9.7093 11.5263 9.70804 11.3515C9.70677 11.1767 9.63689 11.0094 9.51346 10.8856C9.39002 10.7618 9.22291 10.6915 9.04811 10.6897C8.8733 10.688 8.7048 10.7549 8.5789 10.8762L7.4509 11.9995C7.09886 12.3496 6.89724 12.8232 6.8889 13.3195C6.8889 13.3195 6.8889 13.3262 6.8889 13.3289C6.8889 13.3315 6.8889 13.3375 6.8889 13.3422C6.887 13.5987 6.93645 13.853 7.03434 14.0902C7.13223 14.3273 7.27659 14.5424 7.4589 14.7229L8.58023 15.8242C8.64202 15.8886 8.7161 15.94 8.7981 15.9752C8.8801 16.0104 8.96834 16.0288 9.05758 16.0293C9.14683 16.0298 9.23527 16.0124 9.31765 15.9781C9.40004 15.9438 9.4747 15.8933 9.5372 15.8296C9.5997 15.7659 9.64878 15.6902 9.68151 15.6072C9.71425 15.5242 9.72998 15.4354 9.72778 15.3462C9.72557 15.257 9.70548 15.1691 9.66868 15.0878C9.63189 15.0065 9.57914 14.9334 9.51357 14.8729L8.62823 13.9995H13.5969C14.0646 13.9979 14.5234 13.8717 14.9261 13.6339C15.3289 13.3961 15.661 13.0553 15.8882 12.6465C16.1155 12.2377 16.2297 11.7758 16.2192 11.3082C16.2086 10.8406 16.0737 10.3843 15.8282 9.98621ZM4.74223 4.80821C4.52375 4.65942 4.2778 4.55567 4.01877 4.50302C3.75973 4.45036 3.4928 4.44986 3.23357 4.50154L1.4809 4.84687C1.39359 4.86226 1.31023 4.89492 1.23569 4.94292C1.16115 4.99092 1.09694 5.05331 1.04681 5.12643C0.996673 5.19955 0.961627 5.28193 0.943721 5.36876C0.925814 5.45559 0.925406 5.54512 0.94252 5.6321C0.959633 5.71909 0.993926 5.80179 1.04339 5.87537C1.09285 5.94894 1.1565 6.01191 1.23059 6.06059C1.30469 6.10927 1.38775 6.14268 1.47491 6.15887C1.56208 6.17506 1.6516 6.1737 1.73823 6.15487L3.14357 5.8782L0.616232 9.98621C0.370799 10.3843 0.235854 10.8405 0.225282 11.3081C0.21471 11.7756 0.328892 12.2375 0.55608 12.6462C0.783268 13.055 1.11526 13.3958 1.51789 13.6337C1.92052 13.8715 2.37926 13.9978 2.8469 13.9995H4.94223C5.11904 13.9995 5.28861 13.9293 5.41364 13.8043C5.53866 13.6793 5.6089 13.5097 5.6089 13.3329C5.6089 13.1561 5.53866 12.9865 5.41364 12.8615C5.28861 12.7364 5.11904 12.6662 4.94223 12.6662H2.8469C2.61756 12.6673 2.39218 12.6064 2.19457 12.49C1.99696 12.3736 1.83446 12.206 1.72423 12.0049C1.60939 11.8028 1.55131 11.5735 1.55612 11.3411C1.56093 11.1087 1.62846 10.882 1.75156 10.6849L4.31023 6.52621L4.60757 8.12221C4.6401 8.2961 4.74038 8.44995 4.88634 8.5499C5.03231 8.64986 5.21201 8.68774 5.3859 8.6552C5.55979 8.62267 5.71364 8.52239 5.8136 8.37643C5.91355 8.23046 5.95143 8.05077 5.9189 7.87687L5.58557 6.09687C5.53766 5.83681 5.43842 5.58891 5.29362 5.36765C5.14882 5.14639 4.96137 4.9562 4.74223 4.80821Z" fill="black"/>
</g>
<defs>
<clipPath id="clip0_483_13727">
<rect width="16" height="16" fill="white" transform="translate(0.222656)"/>
</clipPath>
</defs>
</svg>
