<svg width="17" height="16" viewBox="0 0 17 16" fill="none" xmlns="http://www.w3.org/2000/svg">
<g clip-path="url(#clip0_483_13872)">
<path d="M6.53233 16H3.22233C2.51509 16 1.83681 15.719 1.33671 15.219C0.836616 14.7189 0.555664 14.0406 0.555664 13.3333V10C0.555664 9.29276 0.836616 8.61448 1.33671 8.11438C1.83681 7.61428 2.51509 7.33333 3.22233 7.33333H9.127C9.4878 7.3335 9.84245 7.42681 10.1566 7.60422C10.4708 7.78162 10.7338 8.03713 10.9203 8.346L13.065 5.98933C13.2424 5.79426 13.4565 5.63606 13.6951 5.52377C13.9336 5.41149 14.192 5.34732 14.4554 5.33494C14.7187 5.32256 14.982 5.3622 15.23 5.45161C15.4781 5.54101 15.7061 5.67843 15.901 5.856C16.2899 6.21329 16.523 6.70899 16.55 7.23641C16.5771 7.76384 16.396 8.28079 16.0457 8.676L11.5123 13.7673C10.8864 14.4693 10.1192 15.0311 9.26095 15.4159C8.40272 15.8007 7.47286 15.9997 6.53233 16ZM3.22233 8.66667C2.86871 8.66667 2.52957 8.80714 2.27952 9.05719C2.02947 9.30724 1.889 9.64638 1.889 10V13.3333C1.889 13.687 2.02947 14.0261 2.27952 14.2761C2.52957 14.5262 2.86871 14.6667 3.22233 14.6667H6.53233C7.28428 14.6664 8.02767 14.5072 8.7138 14.1995C9.39992 13.8918 10.0133 13.4426 10.5137 12.8813L15.0503 7.78933C15.1681 7.65666 15.2291 7.48304 15.2201 7.30585C15.2111 7.12866 15.1329 6.96209 15.0023 6.842C14.8695 6.72262 14.6954 6.65972 14.517 6.66667C14.4285 6.67041 14.3417 6.69173 14.2616 6.72939C14.1815 6.76705 14.1097 6.82029 14.0503 6.886L11.0997 10.1333C10.9701 10.4918 10.7457 10.8085 10.4503 11.0494C10.1549 11.2903 9.79957 11.4465 9.42233 11.5013L5.98166 11.9933C5.80662 12.0184 5.62877 11.973 5.48725 11.867C5.34572 11.7609 5.2521 11.603 5.227 11.428C5.20189 11.253 5.24735 11.0751 5.35337 10.9336C5.45939 10.7921 5.61729 10.6984 5.79233 10.6733L9.23366 10.182C9.42469 10.1553 9.59845 10.0571 9.71986 9.9072C9.84126 9.75732 9.90125 9.56695 9.88771 9.37454C9.87417 9.18213 9.7881 9.00204 9.64689 8.87065C9.50569 8.73925 9.31988 8.66635 9.127 8.66667H3.22233ZM7.889 6.04933C7.58684 6.05015 7.29349 5.94758 7.05766 5.75867C5.91633 4.84267 4.55566 3.46667 4.55566 2.13333C4.5393 1.58558 4.74052 1.05363 5.11532 0.653843C5.49012 0.254056 6.00799 0.0189681 6.55566 0C7.05389 0.00194055 7.53191 0.197212 7.889 0.544667C8.24608 0.197212 8.7241 0.00194055 9.22233 0C9.77 0.0189681 10.2879 0.254056 10.6627 0.653843C11.0375 1.05363 11.2387 1.58558 11.2223 2.13333C11.2223 3.46667 9.86166 4.84267 8.71966 5.75933C8.48393 5.94786 8.19085 6.05018 7.889 6.04933ZM6.55566 1.33333C6.3619 1.35278 6.1835 1.44748 6.05883 1.59708C5.93416 1.74669 5.87318 1.93924 5.889 2.13333C5.889 2.73333 6.65633 3.72667 7.893 4.71933C9.12166 3.72667 9.889 2.73333 9.889 2.13333C9.90482 1.93924 9.84383 1.74669 9.71916 1.59708C9.5945 1.44748 9.4161 1.35278 9.22233 1.33333C9.02856 1.35278 8.85016 1.44748 8.7255 1.59708C8.60083 1.74669 8.53984 1.93924 8.55566 2.13333C8.55566 2.31014 8.48543 2.47971 8.3604 2.60474C8.23538 2.72976 8.06581 2.8 7.889 2.8C7.71219 2.8 7.54262 2.72976 7.41759 2.60474C7.29257 2.47971 7.22233 2.31014 7.22233 2.13333C7.23815 1.93924 7.17717 1.74669 7.0525 1.59708C6.92783 1.44748 6.74943 1.35278 6.55566 1.33333Z" fill="black"/>
</g>
<defs>
<clipPath id="clip0_483_13872">
<rect width="16" height="16" fill="white" transform="translate(0.555664)"/>
</clipPath>
</defs>
</svg>
