<svg width="16" height="16" viewBox="0 0 16 16" fill="none" xmlns="http://www.w3.org/2000/svg">
<g clip-path="url(#clip0_483_13705)">
<path d="M1.92425 4.5576C2.0331 4.55795 2.14038 4.53164 2.23672 4.48097C2.33305 4.43031 2.41552 4.35682 2.47691 4.26693C2.97252 3.5333 3.60909 2.90557 4.34958 2.42027C4.42277 2.37211 4.48576 2.31002 4.53495 2.23752C4.58414 2.16503 4.61857 2.08356 4.63628 1.99775C4.65398 1.91195 4.65462 1.8235 4.63814 1.73746C4.62166 1.65141 4.5884 1.56946 4.54025 1.49627C4.49209 1.42308 4.43 1.36009 4.3575 1.31089C4.28501 1.2617 4.20354 1.22727 4.11773 1.20957C4.03193 1.19186 3.94348 1.19123 3.85744 1.20771C3.77139 1.22418 3.68944 1.25745 3.61625 1.3056C2.72955 1.88682 1.96722 2.6385 1.37358 3.51693C1.3057 3.61709 1.26636 3.73384 1.25978 3.85465C1.25319 3.97547 1.27961 4.09579 1.3362 4.20274C1.39279 4.30968 1.47742 4.39921 1.58101 4.46172C1.6846 4.52424 1.80325 4.55738 1.92425 4.5576Z" fill="black"/>
<path d="M1.33366 7.99995C1.33354 7.55924 1.37663 7.11958 1.46233 6.68728C1.48088 6.6009 1.48208 6.5117 1.46585 6.42485C1.44963 6.338 1.4163 6.25525 1.36782 6.1814C1.31933 6.10754 1.25664 6.04406 1.18341 5.99465C1.11017 5.94523 1.02784 5.91087 0.941206 5.89355C0.854571 5.87623 0.765358 5.87631 0.678752 5.89377C0.592147 5.91123 0.509876 5.94573 0.436722 5.99527C0.363568 6.04481 0.30099 6.10839 0.252625 6.18233C0.20426 6.25626 0.171073 6.33907 0.154994 6.42595C-0.0516646 7.46645 -0.0516646 8.53744 0.154994 9.57795C0.185731 9.72853 0.267551 9.86387 0.386607 9.96105C0.505662 10.0582 0.65464 10.1113 0.808327 10.1113C0.85308 10.1115 0.897742 10.1072 0.94166 10.0986C1.11502 10.0639 1.26748 9.96168 1.3655 9.81453C1.46352 9.66737 1.49907 9.48731 1.46433 9.31395C1.37782 8.88128 1.33406 8.44117 1.33366 7.99995Z" fill="black"/>
<path d="M4.35206 13.5815C3.61142 13.0972 2.9746 12.4704 2.47872 11.7375C2.42957 11.665 2.36661 11.6029 2.29345 11.5547C2.2203 11.5066 2.13837 11.4733 2.05235 11.4568C1.87863 11.4235 1.69879 11.4605 1.55239 11.5598C1.40599 11.6591 1.30503 11.8125 1.27171 11.9862C1.23839 12.1599 1.27544 12.3397 1.37472 12.4861C1.96958 13.3646 2.7333 14.1158 3.62139 14.6961C3.7692 14.7934 3.9496 14.8279 4.12288 14.7922C4.29616 14.7564 4.44814 14.6533 4.54539 14.5055C4.64264 14.3577 4.67718 14.1773 4.64142 14.004C4.60567 13.8307 4.50254 13.6787 4.35472 13.5815H4.35206Z" fill="black"/>
<path d="M8.00011 0C7.51463 0.000827016 7.03023 0.0454523 6.55277 0.133333C6.3889 0.163005 6.24207 0.252935 6.14117 0.385426C6.04027 0.517918 5.99262 0.683375 6.00758 0.849238C6.02255 1.0151 6.09905 1.16936 6.22203 1.28165C6.34501 1.39394 6.50557 1.45614 6.67211 1.456C6.71255 1.4557 6.7529 1.45213 6.79277 1.44533C7.191 1.37152 7.5951 1.33404 8.00011 1.33333V14.6667C7.59518 14.6668 7.19108 14.6302 6.79277 14.5573C6.61879 14.5255 6.43929 14.5641 6.29376 14.6646C6.14824 14.7651 6.0486 14.9194 6.01677 15.0933C5.98495 15.2673 6.02354 15.4468 6.12406 15.5923C6.22458 15.7379 6.37879 15.8375 6.55277 15.8693C7.70654 16.0804 8.89259 16.0354 10.027 15.7375C11.1615 15.4395 12.2166 14.896 13.1179 14.1453C14.0191 13.3947 14.7444 12.4551 15.2424 11.3932C15.7405 10.3313 15.9991 9.17291 16.0001 8C15.9978 5.87897 15.1542 3.84547 13.6544 2.34568C12.1546 0.845885 10.1211 0.00229405 8.00011 0V0Z" fill="black"/>
</g>
<defs>
<clipPath id="clip0_483_13705">
<rect width="16" height="16" fill="white"/>
</clipPath>
</defs>
</svg>
