<svg width="17" height="16" viewBox="0 0 17 16" fill="none" xmlns="http://www.w3.org/2000/svg">
<g clip-path="url(#clip0_483_13763)">
<path d="M10.1779 14.2002C9.97786 14.3508 9.7652 14.5095 9.58453 14.6668H11.1112C11.288 14.6668 11.4576 14.7371 11.5826 14.8621C11.7076 14.9871 11.7779 15.1567 11.7779 15.3335C11.7779 15.5103 11.7076 15.6799 11.5826 15.8049C11.4576 15.9299 11.288 16.0002 11.1112 16.0002H8.44453C8.26772 16.0002 8.09815 15.9299 7.97313 15.8049C7.8481 15.6799 7.77786 15.5103 7.77786 15.3335C7.77786 14.3335 8.62786 13.6962 9.37786 13.1335C9.87786 12.7588 10.4445 12.3335 10.4445 12.0002C10.4445 11.8234 10.3743 11.6538 10.2493 11.5288C10.1242 11.4037 9.95467 11.3335 9.77786 11.3335C9.60105 11.3335 9.43148 11.4037 9.30646 11.5288C9.18143 11.6538 9.1112 11.8234 9.1112 12.0002C9.1112 12.177 9.04096 12.3466 8.91593 12.4716C8.79091 12.5966 8.62134 12.6668 8.44453 12.6668C8.26772 12.6668 8.09815 12.5966 7.97313 12.4716C7.8481 12.3466 7.77786 12.177 7.77786 12.0002C7.77786 11.4697 7.98858 10.961 8.36365 10.586C8.73872 10.2109 9.24743 10.0002 9.77786 10.0002C10.3083 10.0002 10.817 10.2109 11.1921 10.586C11.5672 10.961 11.7779 11.4697 11.7779 12.0002C11.7779 13.0002 10.9279 13.6375 10.1779 14.2002ZM15.7779 10.0002C15.6011 10.0002 15.4315 10.0704 15.3065 10.1954C15.1814 10.3205 15.1112 10.49 15.1112 10.6668V12.6668H14.4445C14.2677 12.6668 14.0982 12.5966 13.9731 12.4716C13.8481 12.3466 13.7779 12.177 13.7779 12.0002V10.6668C13.7779 10.49 13.7076 10.3205 13.5826 10.1954C13.4576 10.0704 13.288 10.0002 13.1112 10.0002C12.9344 10.0002 12.7648 10.0704 12.6398 10.1954C12.5148 10.3205 12.4445 10.49 12.4445 10.6668V12.0002C12.4445 12.5306 12.6552 13.0393 13.0303 13.4144C13.4054 13.7895 13.9141 14.0002 14.4445 14.0002H15.1112V15.3335C15.1112 15.5103 15.1814 15.6799 15.3065 15.8049C15.4315 15.9299 15.6011 16.0002 15.7779 16.0002C15.9547 16.0002 16.1242 15.9299 16.2493 15.8049C16.3743 15.6799 16.4445 15.5103 16.4445 15.3335V10.6668C16.4445 10.49 16.3743 10.3205 16.2493 10.1954C16.1242 10.0704 15.9547 10.0002 15.7779 10.0002ZM9.1112 8.00017V4.66684C9.1112 4.49003 9.04096 4.32046 8.91593 4.19544C8.79091 4.07041 8.62134 4.00017 8.44453 4.00017C8.26772 4.00017 8.09815 4.07041 7.97313 4.19544C7.8481 4.32046 7.77786 4.49003 7.77786 4.66684V7.33351H5.77786C5.60105 7.33351 5.43148 7.40375 5.30646 7.52877C5.18143 7.65379 5.1112 7.82336 5.1112 8.00017C5.1112 8.17699 5.18143 8.34655 5.30646 8.47158C5.43148 8.5966 5.60105 8.66684 5.77786 8.66684H8.44453C8.62134 8.66684 8.79091 8.5966 8.91593 8.47158C9.04096 8.34655 9.1112 8.17699 9.1112 8.00017ZM15.7779 1.33351C15.6011 1.33351 15.4315 1.40375 15.3065 1.52877C15.1814 1.65379 15.1112 1.82336 15.1112 2.00017V3.58284C14.4166 2.53456 13.4846 1.66479 12.3909 1.04411C11.2972 0.423431 10.0726 0.0693245 8.81647 0.0105217C7.56031 -0.048281 6.30797 0.189877 5.16108 0.705671C4.01419 1.22147 3.00505 2.00037 2.21554 2.97918C1.42603 3.95799 0.878386 5.10913 0.617045 6.33921C0.355705 7.5693 0.388029 8.84366 0.711395 10.0589C1.03476 11.2742 1.64006 12.3961 2.47818 13.3336C3.3163 14.2711 4.36363 14.9979 5.5352 15.4548C5.61262 15.4847 5.69488 15.5001 5.77786 15.5002C5.93344 15.5004 6.08419 15.4462 6.20403 15.347C6.32386 15.2478 6.40523 15.1098 6.43403 14.9569C6.46284 14.8041 6.43727 14.6459 6.36175 14.5099C6.28623 14.3739 6.16552 14.2686 6.02053 14.2122C5.02588 13.8276 4.13801 13.21 3.43145 12.4112C2.72489 11.6124 2.22027 10.6558 1.95994 9.62164C1.6996 8.58748 1.69116 7.50596 1.93531 6.46787C2.17947 5.42977 2.66909 4.46539 3.36309 3.65569C4.05709 2.84599 4.93521 2.21459 5.92374 1.81449C6.91226 1.4144 7.98234 1.25728 9.04415 1.35634C10.106 1.45539 11.1285 1.80773 12.026 2.38377C12.9234 2.95981 13.6696 3.74274 14.2019 4.66684H12.4445C12.2677 4.66684 12.0982 4.73708 11.9731 4.8621C11.8481 4.98713 11.7779 5.1567 11.7779 5.33351C11.7779 5.51032 11.8481 5.67989 11.9731 5.80491C12.0982 5.92994 12.2677 6.00017 12.4445 6.00017H14.4445C14.975 6.00017 15.4837 5.78946 15.8587 5.41439C16.2338 5.03932 16.4445 4.53061 16.4445 4.00017V2.00017C16.4445 1.82336 16.3743 1.65379 16.2493 1.52877C16.1242 1.40375 15.9547 1.33351 15.7779 1.33351Z" fill="black"/>
</g>
<defs>
<clipPath id="clip0_483_13763">
<rect width="16" height="16" fill="white" transform="translate(0.444336)"/>
</clipPath>
</defs>
</svg>
