<svg width="17" height="16" viewBox="0 0 17 16" fill="none" xmlns="http://www.w3.org/2000/svg">
<g clip-path="url(#clip0_483_13719)">
<path d="M12.8893 3.99979H8.88932V1.99979C8.88932 1.82298 8.81909 1.65341 8.69406 1.52838C8.56904 1.40336 8.39947 1.33312 8.22266 1.33312C8.04585 1.33312 7.87628 1.40336 7.75125 1.52838C7.62623 1.65341 7.55599 1.82298 7.55599 1.99979V3.99979H3.55599C2.67226 4.00085 1.82503 4.35238 1.20014 4.97727C0.575244 5.60216 0.223715 6.44939 0.222656 7.33312L0.222656 9.99979C0.223715 10.8835 0.575244 11.7308 1.20014 12.3556C1.82503 12.9805 2.67226 13.3321 3.55599 13.3331H12.8893C13.7731 13.3321 14.6203 12.9805 15.2452 12.3556C15.8701 11.7308 16.2216 10.8835 16.2227 9.99979V7.33312C16.2216 6.44939 15.8701 5.60216 15.2452 4.97727C14.6203 4.35238 13.7731 4.00085 12.8893 3.99979ZM14.8893 9.99979C14.8893 10.5302 14.6786 11.0389 14.3035 11.414C13.9285 11.7891 13.4198 11.9998 12.8893 11.9998H3.55599C3.02556 11.9998 2.51685 11.7891 2.14178 11.414C1.7667 11.0389 1.55599 10.5302 1.55599 9.99979V7.33312C1.55599 6.80269 1.7667 6.29398 2.14178 5.91891C2.51685 5.54384 3.02556 5.33312 3.55599 5.33312H12.8893C13.4198 5.33312 13.9285 5.54384 14.3035 5.91891C14.6786 6.29398 14.8893 6.80269 14.8893 7.33312V9.99979Z" fill="black"/>
<path d="M10.2223 9.33313H6.22233C6.04552 9.33313 5.87595 9.40337 5.75093 9.52839C5.6259 9.65342 5.55566 9.82299 5.55566 9.9998C5.55566 10.1766 5.6259 10.3462 5.75093 10.4712C5.87595 10.5962 6.04552 10.6665 6.22233 10.6665H10.2223C10.3991 10.6665 10.5687 10.5962 10.6937 10.4712C10.8187 10.3462 10.889 10.1766 10.889 9.9998C10.889 9.82299 10.8187 9.65342 10.6937 9.52839C10.5687 9.40337 10.3991 9.33313 10.2223 9.33313Z" fill="black"/>
<path d="M6.88932 8.0002H7.55599C7.7328 8.0002 7.90237 7.92996 8.02739 7.80494C8.15242 7.67992 8.22266 7.51035 8.22266 7.33354C8.22266 7.15672 8.15242 6.98716 8.02739 6.86213C7.90237 6.73711 7.7328 6.66687 7.55599 6.66687H6.88932C6.71251 6.66687 6.54294 6.73711 6.41792 6.86213C6.29289 6.98716 6.22266 7.15672 6.22266 7.33354C6.22266 7.51035 6.29289 7.67992 6.41792 7.80494C6.54294 7.92996 6.71251 8.0002 6.88932 8.0002Z" fill="black"/>
<path d="M12.889 6.66687H10.2223C10.0455 6.66687 9.87595 6.73711 9.75093 6.86213C9.6259 6.98716 9.55566 7.15672 9.55566 7.33354C9.55566 7.51035 9.6259 7.67992 9.75093 7.80494C9.87595 7.92996 10.0455 8.0002 10.2223 8.0002H12.889C13.0658 8.0002 13.2354 7.92996 13.3604 7.80494C13.4854 7.67992 13.5557 7.51035 13.5557 7.33354C13.5557 7.15672 13.4854 6.98716 13.3604 6.86213C13.2354 6.73711 13.0658 6.66687 12.889 6.66687Z" fill="black"/>
<path d="M4.22298 6.66687H3.55632C3.3795 6.66687 3.20994 6.73711 3.08491 6.86213C2.95989 6.98716 2.88965 7.15672 2.88965 7.33354C2.88965 7.51035 2.95989 7.67992 3.08491 7.80494C3.20994 7.92996 3.3795 8.0002 3.55632 8.0002H4.22298C4.39979 8.0002 4.56936 7.92996 4.69439 7.80494C4.81941 7.67992 4.88965 7.51035 4.88965 7.33354C4.88965 7.15672 4.81941 6.98716 4.69439 6.86213C4.56936 6.73711 4.39979 6.66687 4.22298 6.66687Z" fill="black"/>
<path d="M3.55631 10.6665C3.9245 10.6665 4.22298 10.368 4.22298 9.9998C4.22298 9.63161 3.9245 9.33313 3.55631 9.33313C3.18812 9.33313 2.88965 9.63161 2.88965 9.9998C2.88965 10.368 3.18812 10.6665 3.55631 10.6665Z" fill="black"/>
<path d="M12.8893 10.6665C13.2575 10.6665 13.556 10.368 13.556 9.99979C13.556 9.6316 13.2575 9.33312 12.8893 9.33312C12.5211 9.33312 12.2227 9.6316 12.2227 9.99979C12.2227 10.368 12.5211 10.6665 12.8893 10.6665Z" fill="black"/>
</g>
<defs>
<clipPath id="clip0_483_13719">
<rect width="16" height="16" fill="white" transform="translate(0.222656)"/>
</clipPath>
</defs>
</svg>
