<svg width="17" height="16" viewBox="0 0 17 16" fill="none" xmlns="http://www.w3.org/2000/svg">
<g clip-path="url(#clip0_482_17980)">
<path d="M14.7129 10.9334C14.4891 10.2733 14.0642 9.69986 13.498 9.29338C12.9318 8.88689 12.2526 8.66777 11.5556 8.66672H8.88894V7.94405C9.87788 7.77689 10.7679 7.24432 11.3827 6.45187C11.9975 5.65943 12.2921 4.66494 12.2083 3.66549C12.1244 2.66605 11.6681 1.73458 10.9299 1.05568C10.1916 0.376783 9.22524 0 8.22228 0C7.21932 0 6.25296 0.376783 5.5147 1.05568C4.77644 1.73458 4.32016 2.66605 4.23629 3.66549C4.15241 4.66494 4.44706 5.65943 5.06185 6.45187C5.67663 7.24432 6.56668 7.77689 7.55561 7.94405V8.66672H4.88894C4.19194 8.66777 3.51273 8.88689 2.94653 9.29338C2.38032 9.69986 1.9555 10.2733 1.73161 10.9334C1.15967 11.2093 0.70497 11.6803 0.449308 12.2615C0.193645 12.8428 0.153805 13.4963 0.336955 14.1043C0.520105 14.7123 0.914222 15.235 1.4484 15.5784C1.98258 15.9217 2.62176 16.0632 3.25094 15.9773C3.88012 15.8915 4.45801 15.5839 4.88063 15.1099C5.30325 14.636 5.54286 14.0267 5.55637 13.3919C5.56987 12.757 5.35637 12.1381 4.95428 11.6466C4.55219 11.1551 3.98791 10.8233 3.36294 10.7107C3.55036 10.4885 3.78399 10.3098 4.04753 10.187C4.31108 10.0643 4.59822 10.0005 4.88894 10.0001H7.55561V10.7514C6.92717 10.9136 6.37948 11.2995 6.01521 11.8367C5.65093 12.3739 5.49508 13.0255 5.57686 13.6694C5.65865 14.3133 5.97245 14.9052 6.45946 15.3343C6.94646 15.7633 7.57323 16 8.22228 16C8.87133 16 9.49809 15.7633 9.9851 15.3343C10.4721 14.9052 10.7859 14.3133 10.8677 13.6694C10.9495 13.0255 10.7936 12.3739 10.4293 11.8367C10.0651 11.2995 9.51738 10.9136 8.88894 10.7514V10.0001H11.5556C11.8462 10.0002 12.1332 10.0637 12.3968 10.1861C12.6603 10.3085 12.894 10.4868 13.0816 10.7087C12.4566 10.8213 11.8924 11.1531 11.4903 11.6446C11.0882 12.1361 10.8747 12.755 10.8882 13.3899C10.9017 14.0247 11.1413 14.634 11.5639 15.1079C11.9865 15.5819 12.5644 15.8895 13.1936 15.9753C13.8228 16.0612 14.462 15.9197 14.9962 15.5764C15.5303 15.233 15.9244 14.7103 16.1076 14.1023C16.2907 13.4943 16.2509 12.8408 15.9952 12.2595C15.7396 11.6783 15.2849 11.2073 14.7129 10.9314V10.9334ZM5.55561 4.00005C5.55561 3.47264 5.71201 2.95706 6.00502 2.51853C6.29804 2.08 6.71452 1.73821 7.20179 1.53637C7.68906 1.33454 8.22523 1.28173 8.74252 1.38463C9.2598 1.48752 9.73495 1.7415 10.1079 2.11444C10.4808 2.48738 10.7348 2.96253 10.8377 3.47981C10.9406 3.9971 10.8878 4.53327 10.686 5.02054C10.4841 5.50781 10.1423 5.92429 9.7038 6.21731C9.26527 6.51032 8.74969 6.66672 8.22228 6.66672C7.51503 6.66672 6.83676 6.38577 6.33666 5.88567C5.83656 5.38557 5.55561 4.7073 5.55561 4.00005ZM4.22228 13.3334C4.22228 13.5971 4.14408 13.8549 3.99757 14.0741C3.85106 14.2934 3.64282 14.4643 3.39919 14.5652C3.15555 14.6661 2.88746 14.6925 2.62882 14.6411C2.37018 14.5897 2.1326 14.4627 1.94613 14.2762C1.75966 14.0897 1.63268 13.8521 1.58123 13.5935C1.52978 13.3349 1.55619 13.0668 1.6571 12.8231C1.75802 12.5795 1.92892 12.3713 2.14818 12.2248C2.36745 12.0783 2.62523 12.0001 2.88894 12.0001C3.24257 12.0001 3.5817 12.1405 3.83175 12.3906C4.0818 12.6406 4.22228 12.9798 4.22228 13.3334ZM9.55561 13.3334C9.55561 13.5971 9.47741 13.8549 9.3309 14.0741C9.18439 14.2934 8.97616 14.4643 8.73252 14.5652C8.48889 14.6661 8.2208 14.6925 7.96216 14.6411C7.70352 14.5897 7.46594 14.4627 7.27947 14.2762C7.093 14.0897 6.96601 13.8521 6.91456 13.5935C6.86312 13.3349 6.88952 13.0668 6.99044 12.8231C7.09135 12.5795 7.26225 12.3713 7.48152 12.2248C7.70078 12.0783 7.95857 12.0001 8.22228 12.0001C8.5759 12.0001 8.91504 12.1405 9.16509 12.3906C9.41513 12.6406 9.55561 12.9798 9.55561 13.3334ZM13.5556 14.6667C13.2919 14.6667 13.0341 14.5885 12.8148 14.442C12.5956 14.2955 12.4247 14.0873 12.3238 13.8436C12.2229 13.6 12.1964 13.3319 12.2479 13.0733C12.2993 12.8146 12.4263 12.577 12.6128 12.3906C12.7993 12.2041 13.0368 12.0771 13.2955 12.0257C13.5541 11.9742 13.8222 12.0006 14.0659 12.1015C14.3095 12.2025 14.5177 12.3734 14.6642 12.5926C14.8107 12.8119 14.8889 13.0697 14.8889 13.3334C14.8889 13.687 14.7485 14.0261 14.4984 14.2762C14.2484 14.5262 13.9092 14.6667 13.5556 14.6667Z" fill="black"/>
</g>
<defs>
<clipPath id="clip0_482_17980">
<rect width="16" height="16" fill="white" transform="translate(0.222656)"/>
</clipPath>
</defs>
</svg>
