<svg width="16" height="16" viewBox="0 0 16 16" fill="none" xmlns="http://www.w3.org/2000/svg">
<g clip-path="url(#clip0_483_13784)">
<path d="M10.0005 3.33333C10.0005 3.51014 9.93026 3.67971 9.80524 3.80474C9.68022 3.92976 9.51065 4 9.33384 4H6.66717C6.49036 4 6.32079 3.92976 6.19577 3.80474C6.07074 3.67971 6.0005 3.51014 6.0005 3.33333C6.0005 3.15652 6.07074 2.98695 6.19577 2.86193C6.32079 2.7369 6.49036 2.66667 6.66717 2.66667H9.33384C9.51065 2.66667 9.68022 2.7369 9.80524 2.86193C9.93026 2.98695 10.0005 3.15652 10.0005 3.33333ZM14.0005 3.81333V10.7847C14.0003 11.6223 13.6847 12.4292 13.1165 13.0447L13.9498 15.0807C13.983 15.1617 13.9998 15.2485 13.9994 15.3361C13.999 15.4237 13.9813 15.5103 13.9475 15.5911C13.9136 15.6719 13.8641 15.7451 13.8019 15.8068C13.7397 15.8684 13.6659 15.9172 13.5848 15.9503C13.5038 15.9835 13.417 16.0003 13.3294 15.9999C13.2418 15.9995 13.1552 15.9818 13.0744 15.9479C12.9937 15.9141 12.9204 15.8646 12.8587 15.8024C12.7971 15.7402 12.7483 15.6664 12.7152 15.5853L12.0005 13.83C10.7484 14.4103 9.38019 14.6964 8.0005 14.6667C6.62084 14.6962 5.25267 14.41 4.0005 13.83L3.28517 15.5853C3.25286 15.6675 3.20454 15.7425 3.14302 15.8058C3.0815 15.8692 3.008 15.9197 2.9268 15.9544C2.84559 15.9892 2.7583 16.0074 2.66999 16.0081C2.58167 16.0088 2.4941 15.9919 2.41236 15.9585C2.33061 15.9251 2.25633 15.8757 2.19381 15.8134C2.13129 15.751 2.0818 15.6768 2.04819 15.5951C2.01459 15.5134 1.99755 15.4259 1.99806 15.3376C1.99857 15.2493 2.01662 15.1619 2.05117 15.0807L2.88384 13.0447C2.31592 12.4291 2.00056 11.6222 2.0005 10.7847V3.81333C1.99832 3.10629 2.22182 2.41701 2.63849 1.84578C3.05516 1.27455 3.64325 0.851203 4.31717 0.637333C5.50509 0.237628 6.74734 0.0226791 8.0005 0C9.25374 0.0224934 10.496 0.237678 11.6838 0.638C12.3578 0.85156 12.946 1.27474 13.3627 1.84589C13.7794 2.41705 14.0029 3.10633 14.0005 3.81333ZM12.6672 7.82467C11.6318 9.37667 10.0338 10.6667 8.0005 10.6667C5.96717 10.6667 4.36917 9.37667 3.33384 7.82467V10.7847C3.33067 11.1381 3.42257 11.4859 3.5999 11.7917C3.77723 12.0974 4.03348 12.3499 4.34184 12.5227C5.47394 13.0959 6.73221 13.3747 8.0005 13.3333C9.26859 13.3749 10.5267 13.0961 11.6585 12.5227C11.967 12.35 12.2235 12.0976 12.4009 11.7918C12.5784 11.4861 12.6703 11.1382 12.6672 10.7847V7.82467ZM12.6672 4V3.81333C12.6686 3.38929 12.5347 2.97585 12.285 2.63316C12.0352 2.29047 11.6826 2.03643 11.2785 1.908C10.2217 1.54993 9.11613 1.35612 8.0005 1.33333C6.88495 1.35628 5.77948 1.54985 4.7225 1.90733C4.31838 2.03598 3.96582 2.29017 3.71608 2.63295C3.46634 2.97573 3.33243 3.38923 3.33384 3.81333V4C3.33384 5.62867 5.09717 9.33333 8.0005 9.33333C10.9038 9.33333 12.6672 5.62867 12.6672 4ZM8.0005 11.3333C7.86865 11.3333 7.73975 11.3724 7.63012 11.4457C7.52049 11.5189 7.43504 11.6231 7.38458 11.7449C7.33412 11.8667 7.32092 12.0007 7.34665 12.1301C7.37237 12.2594 7.43586 12.3782 7.5291 12.4714C7.62233 12.5646 7.74112 12.6281 7.87044 12.6539C7.99976 12.6796 8.13381 12.6664 8.25562 12.6159C8.37744 12.5655 8.48156 12.48 8.55482 12.3704C8.62807 12.2607 8.66717 12.1319 8.66717 12C8.66717 11.8232 8.59693 11.6536 8.47191 11.5286C8.34688 11.4036 8.17731 11.3333 8.0005 11.3333Z" fill="black"/>
</g>
<defs>
<clipPath id="clip0_483_13784">
<rect width="16" height="16" fill="white"/>
</clipPath>
</defs>
</svg>
