<svg width="17" height="16" viewBox="0 0 17 16" fill="none" xmlns="http://www.w3.org/2000/svg">
<g clip-path="url(#clip0_482_18060)">
<path d="M4.97413 3.8786C5.20426 3.8786 5.39079 3.69204 5.39079 3.46194C5.39079 3.23185 5.20423 3.04529 4.97413 3.04529H3.50748C3.27735 3.04529 3.09082 3.23185 3.09082 3.46194V6.93794C3.09082 7.16807 3.27738 7.3546 3.50748 7.3546H4.97413C5.20426 7.3546 5.39079 7.16804 5.39079 6.93794C5.39079 6.70782 5.20423 6.52129 4.97413 6.52129H3.92679V5.61663H4.86613C5.09626 5.61663 5.28279 5.43007 5.28279 5.19998C5.28279 4.96985 5.09623 4.78332 4.86613 4.78332H3.92679V3.87866H4.97413V3.8786Z" fill="black"/>
<path d="M6.23359 3.44604V6.95404C6.23359 7.18417 6.42015 7.3707 6.65024 7.3707C6.88037 7.3707 7.0669 7.18414 7.0669 6.95404V5.84539H7.62624C8.40312 5.84539 9.0329 5.21561 9.0329 4.43873C9.0329 3.66186 8.40312 3.03207 7.62624 3.03207L7.62559 3.02942H6.64959C6.62537 3.02876 6.4559 3.02704 6.33412 3.16442C6.23159 3.28004 6.23262 3.41561 6.23359 3.44604ZM7.62559 5.00939H7.07093V3.86004H7.62893C7.94558 3.86004 8.20227 4.11673 8.20227 4.43339C8.20227 4.75004 7.94558 5.00673 7.62893 5.00673L7.62559 5.00939Z" fill="black"/>
<path d="M12.9997 0H3.66635C1.82632 0.00221875 0.335227 1.49331 0.333008 3.33334V12.6667C0.335227 14.5067 1.82632 15.9978 3.66635 16H11.2284C12.1129 16.0025 12.9618 15.6511 13.5857 15.024L15.3564 13.252C15.9835 12.6284 16.3352 11.7798 16.333 10.8953V3.33334C16.3308 1.49331 14.8397 0.00221875 12.9997 0ZM1.66635 12.6667V3.33334C1.66635 2.22878 2.56179 1.33334 3.66635 1.33334H12.9997C14.1043 1.33334 14.9997 2.22878 14.9997 3.33334V10H12.333C11.2284 10 10.333 10.8954 10.333 12V14.6667H3.66635C2.56176 14.6667 1.66635 13.7712 1.66635 12.6667ZM12.643 14.0813C12.375 14.3487 12.0361 14.5338 11.6664 14.6147V12C11.6664 11.6318 11.9648 11.3333 12.333 11.3333H14.9497C14.8672 11.7023 14.6824 12.0406 14.4163 12.3093L12.643 14.0813Z" fill="black"/>
<path d="M11.5708 4.83695C11.3888 4.77495 11.2002 4.74095 11.0142 4.69229C10.8666 4.66251 10.7298 4.59342 10.6182 4.49229C10.5067 4.3866 10.4671 4.22563 10.5168 4.08029C10.5801 3.95504 10.7043 3.87207 10.8442 3.86163C10.9817 3.85307 11.1196 3.87329 11.2488 3.92098C11.4347 3.97892 11.617 4.0477 11.7948 4.12698C11.9915 4.21298 12.2222 4.26432 12.3808 4.07763C12.4974 3.9372 12.5061 3.73632 12.4022 3.58629C12.3331 3.48588 12.2397 3.40448 12.1308 3.34963C11.6428 3.0631 11.0605 2.98363 10.5135 3.12898C10.2246 3.22042 9.98049 3.41692 9.82949 3.67963C9.75868 3.80426 9.71186 3.94107 9.69149 4.08298C9.6543 4.3382 9.70964 4.59832 9.84749 4.81632C10.0031 5.04407 10.2276 5.21582 10.4881 5.30632C10.7608 5.41832 11.0328 5.52698 11.3095 5.62832C11.4286 5.66579 11.5382 5.72854 11.6308 5.81232C11.7353 5.91126 11.7741 6.06113 11.7308 6.19832C11.6746 6.32967 11.563 6.42929 11.4262 6.47032C11.2181 6.54857 10.9901 6.55676 10.7768 6.49367C10.5693 6.41857 10.3776 6.30554 10.2115 6.16032C10.1941 6.14632 10.1375 6.10367 10.1268 6.09367C9.97149 5.9826 9.75927 5.99682 9.62018 6.12767C9.44971 6.28226 9.43683 6.54576 9.59139 6.71623C9.59143 6.71626 9.59146 6.71629 9.59149 6.71635C9.98924 7.1387 10.5447 7.37657 11.1248 7.37301C11.8124 7.40323 12.4233 6.93789 12.5768 6.26701C12.6416 5.86104 12.4899 5.45073 12.1768 5.18435C11.9998 5.02954 11.7938 4.91148 11.5708 4.83695Z" fill="black"/>
</g>
<defs>
<clipPath id="clip0_482_18060">
<rect width="16" height="16" fill="white" transform="translate(0.333008)"/>
</clipPath>
</defs>
</svg>
