<svg width="17" height="16" viewBox="0 0 17 16" fill="none" xmlns="http://www.w3.org/2000/svg">
<g clip-path="url(#clip0_482_17977)">
<path d="M15.4351 2.95407L6.22241 12.1661C6.16047 12.2283 6.08686 12.2776 6.00581 12.3113C5.92475 12.3449 5.83785 12.3623 5.75008 12.3623C5.66231 12.3623 5.5754 12.3449 5.49435 12.3113C5.41329 12.2776 5.33968 12.2283 5.27775 12.1661L1.71508 8.60007C1.65314 8.53788 1.57953 8.48854 1.49847 8.45487C1.41742 8.4212 1.33051 8.40387 1.24274 8.40387C1.15498 8.40387 1.06807 8.4212 0.987015 8.45487C0.90596 8.48854 0.832351 8.53788 0.770412 8.60007C0.708227 8.66201 0.658885 8.73562 0.625218 8.81667C0.59155 8.89773 0.574219 8.98463 0.574219 9.0724C0.574219 9.16017 0.59155 9.24707 0.625218 9.32813C0.658885 9.40918 0.708227 9.48279 0.770412 9.54473L4.33441 13.1081C4.71038 13.4833 5.21988 13.6941 5.75108 13.6941C6.28228 13.6941 6.79178 13.4833 7.16775 13.1081L16.3797 3.89807C16.4418 3.83614 16.4911 3.76257 16.5247 3.68158C16.5583 3.60058 16.5756 3.51376 16.5756 3.42607C16.5756 3.33838 16.5583 3.25155 16.5247 3.17055C16.4911 3.08956 16.4418 3.01599 16.3797 2.95407C16.3178 2.89188 16.2442 2.84254 16.1631 2.80887C16.0821 2.7752 15.9952 2.75787 15.9074 2.75787C15.8196 2.75787 15.7327 2.7752 15.6517 2.80887C15.5706 2.84254 15.497 2.89188 15.4351 2.95407Z" fill="black"/>
</g>
<defs>
<clipPath id="clip0_482_17977">
<rect width="16" height="16" fill="white" transform="translate(0.555664)"/>
</clipPath>
</defs>
</svg>
