<svg width="17" height="16" viewBox="0 0 17 16" fill="none" xmlns="http://www.w3.org/2000/svg">
<g clip-path="url(#clip0_482_18038)">
<path d="M12.3023 7.10868C12.7394 6.40257 12.9798 5.59243 12.9985 4.7622C13.0172 3.93197 12.8136 3.11183 12.4087 2.38676C12.0038 1.66169 11.4125 1.05807 10.6958 0.638412C9.97924 0.218759 9.16345 -0.00165324 8.33301 9.33643e-06H3.66634C3.31272 9.33643e-06 2.97358 0.140485 2.72353 0.390534C2.47348 0.640582 2.33301 0.979721 2.33301 1.33334V14.6667C2.33301 15.0203 2.47348 15.3594 2.72353 15.6095C2.97358 15.8595 3.31272 16 3.66634 16H10.333C11.3953 16.0011 12.4261 15.6395 13.2549 14.9749C14.0836 14.3104 14.6606 13.3828 14.8903 12.3456C15.12 11.3085 14.9887 10.224 14.5181 9.27165C14.0475 8.31931 13.2657 7.55622 12.3023 7.10868ZM4.99967 2.66668H8.33301C8.86344 2.66668 9.37215 2.87739 9.74722 3.25246C10.1223 3.62754 10.333 4.13624 10.333 4.66668C10.333 5.19711 10.1223 5.70582 9.74722 6.08089C9.37215 6.45596 8.86344 6.66668 8.33301 6.66668H4.99967V2.66668ZM10.333 13.3333H4.99967V9.33334H10.333C10.8634 9.33334 11.3721 9.54406 11.7472 9.91913C12.1223 10.2942 12.333 10.8029 12.333 11.3333C12.333 11.8638 12.1223 12.3725 11.7472 12.7476C11.3721 13.1226 10.8634 13.3333 10.333 13.3333Z" fill="black"/>
</g>
<defs>
<clipPath id="clip0_482_18038">
<rect width="16" height="16" fill="white" transform="translate(0.333008)"/>
</clipPath>
</defs>
</svg>
