<svg width="17" height="16" viewBox="0 0 17 16" fill="none" xmlns="http://www.w3.org/2000/svg">
<g clip-path="url(#clip0_482_17990)">
<path d="M16.1453 7.76932L14.9327 5.04198C14.6184 4.33494 14.1058 3.73421 13.457 3.31261C12.8082 2.89101 12.0511 2.66662 11.2773 2.66665H10.3773L9.93734 0.905317C9.87244 0.646819 9.72306 0.417403 9.51291 0.253488C9.30275 0.0895725 9.04387 0.000549316 8.77734 0.000549316C8.51082 0.000549316 8.25194 0.0895725 8.04178 0.253488C7.83163 0.417403 7.68224 0.646819 7.61734 0.905317L7.17734 2.66665H4.11068C3.22695 2.66771 2.37972 3.01924 1.75482 3.64413C1.12993 4.26902 0.778402 5.11625 0.777344 5.99998L0.777344 11.3333C0.778774 11.7539 0.913045 12.1633 1.16099 12.5031C1.40893 12.8429 1.75788 13.0956 2.15801 13.2253C2.12783 13.3705 2.11198 13.5183 2.11068 13.6667C2.11068 14.2855 2.35651 14.879 2.79409 15.3166C3.23168 15.7542 3.82517 16 4.44401 16C5.06285 16 5.65634 15.7542 6.09393 15.3166C6.53151 14.879 6.77734 14.2855 6.77734 13.6667C6.7763 13.555 6.76716 13.4436 6.75001 13.3333H10.8047C10.7875 13.4436 10.7784 13.555 10.7773 13.6667C10.7773 14.2855 11.0232 14.879 11.4608 15.3166C11.8983 15.7542 12.4918 16 13.1107 16C13.7295 16 14.323 15.7542 14.7606 15.3166C15.1982 14.879 15.444 14.2855 15.444 13.6667C15.4427 13.5183 15.4269 13.3705 15.3967 13.2253C15.7968 13.0956 16.1458 12.8429 16.3937 12.5031C16.6416 12.1633 16.7759 11.7539 16.7773 11.3333V10.748C16.7788 9.72167 16.5634 8.70662 16.1453 7.76932ZM13.7147 5.58398L14.4927 7.33332H12.1107C11.9339 7.33332 11.7643 7.26308 11.6393 7.13805C11.5142 7.01303 11.444 6.84346 11.444 6.66665V4.01198C11.9299 4.04178 12.3984 4.20403 12.7987 4.48114C13.199 4.75825 13.5157 5.13965 13.7147 5.58398ZM5.44401 13.6667C5.44401 13.9319 5.33865 14.1862 5.15112 14.3738C4.96358 14.5613 4.70923 14.6667 4.44401 14.6667C4.17879 14.6667 3.92444 14.5613 3.7369 14.3738C3.54937 14.1862 3.44401 13.9319 3.44401 13.6667C3.44442 13.5527 3.46542 13.4398 3.50601 13.3333H5.38201C5.4226 13.4398 5.4436 13.5527 5.44401 13.6667ZM13.1107 14.6667C12.8455 14.6667 12.5911 14.5613 12.4036 14.3738C12.216 14.1862 12.1107 13.9319 12.1107 13.6667C12.1111 13.5527 12.1321 13.4398 12.1727 13.3333H14.0487C14.0893 13.4398 14.1103 13.5527 14.1107 13.6667C14.1107 13.9319 14.0053 14.1862 13.8178 14.3738C13.6302 14.5613 13.3759 14.6667 13.1107 14.6667ZM15.444 11.3333C15.444 11.5101 15.3738 11.6797 15.2487 11.8047C15.1237 11.9297 14.9542 12 14.7773 12H2.77734C2.60053 12 2.43096 11.9297 2.30594 11.8047C2.18091 11.6797 2.11068 11.5101 2.11068 11.3333V5.99998C2.11068 5.46955 2.32139 4.96084 2.69646 4.58577C3.07154 4.2107 3.58024 3.99998 4.11068 3.99998H10.1107V6.66665C10.1107 7.19708 10.3214 7.70579 10.6965 8.08086C11.0715 8.45594 11.5802 8.66665 12.1107 8.66665H15.0633C15.3137 9.33208 15.4426 10.037 15.444 10.748V11.3333ZM8.11068 7.99998C8.11068 8.1768 8.04044 8.34636 7.91541 8.47139C7.79039 8.59641 7.62082 8.66665 7.44401 8.66665H6.77734V9.33332C6.77734 9.51013 6.70711 9.6797 6.58208 9.80472C6.45706 9.92975 6.28749 9.99998 6.11068 9.99998C5.93387 9.99998 5.7643 9.92975 5.63927 9.80472C5.51425 9.6797 5.44401 9.51013 5.44401 9.33332V8.66665H4.77734C4.60053 8.66665 4.43096 8.59641 4.30594 8.47139C4.18092 8.34636 4.11068 8.1768 4.11068 7.99998C4.11068 7.82317 4.18092 7.6536 4.30594 7.52858C4.43096 7.40355 4.60053 7.33332 4.77734 7.33332H5.44401V6.66665C5.44401 6.48984 5.51425 6.32027 5.63927 6.19525C5.7643 6.07022 5.93387 5.99998 6.11068 5.99998C6.28749 5.99998 6.45706 6.07022 6.58208 6.19525C6.70711 6.32027 6.77734 6.48984 6.77734 6.66665V7.33332H7.44401C7.62082 7.33332 7.79039 7.40355 7.91541 7.52858C8.04044 7.6536 8.11068 7.82317 8.11068 7.99998Z" fill="black"/>
</g>
<defs>
<clipPath id="clip0_482_17990">
<rect width="16" height="16" fill="white" transform="translate(0.777344)"/>
</clipPath>
</defs>
</svg>
