<svg width="16" height="16" viewBox="0 0 16 16" fill="none" xmlns="http://www.w3.org/2000/svg">
<g clip-path="url(#clip0_483_13792)">
<path d="M13.7867 0.77813L13.7727 0.773463L11.9627 0.173464C11.3375 -0.0340987 10.6649 -0.0524204 10.0293 0.120797L6.312 1.20013C5.85684 1.32075 5.37381 1.2783 4.94667 1.08013L4.61333 0.925463C4.10706 0.714912 3.55667 0.632502 3.01093 0.685534C2.46519 0.738567 1.94096 0.925406 1.4847 1.22949C1.02844 1.53358 0.654237 1.94552 0.395256 2.42881C0.136274 2.9121 0.000511524 3.45182 0 4.00013L0 12.0501C0.00140106 12.771 0.235861 13.4721 0.668394 14.0488C1.10093 14.6255 1.70834 15.0469 2.4 15.2501L4.31267 15.8501C4.63534 15.9504 4.97142 16.001 5.30933 16.0001C5.61054 16.0039 5.91067 15.9633 6.2 15.8794L10.0667 14.8128C10.42 14.7169 10.7929 14.7199 11.1447 14.8214L12.7067 15.2721C13.0988 15.3669 13.5074 15.3715 13.9015 15.2856C14.2957 15.1996 14.6653 15.0253 14.9823 14.7758C15.2994 14.5263 15.5557 14.2082 15.732 13.8453C15.9083 13.4824 15.9999 13.0842 16 12.6808V3.91746C15.999 3.23002 15.7859 2.55963 15.3898 1.99779C14.9937 1.43595 14.4338 1.01002 13.7867 0.77813ZM2.784 13.9728C2.36687 13.8522 2.00006 13.5996 1.73853 13.253C1.477 12.9064 1.33483 12.4843 1.33333 12.0501V4.00013C1.33009 3.66991 1.40997 3.34419 1.56562 3.05294C1.72126 2.76169 1.94767 2.51427 2.224 2.33346C2.5528 2.11536 2.93877 1.99938 3.33333 2.00013C3.58778 2.0002 3.8397 2.05049 4.07467 2.14813C4.07467 2.14813 4.57133 2.36079 4.666 2.39479V14.5614L2.784 13.9728ZM6 14.5514V2.58613C6.22644 2.57411 6.45111 2.5395 6.67067 2.48279L10 1.51546V13.4668L6 14.5514ZM14.6667 12.6808C14.6668 12.8805 14.6221 13.0777 14.5358 13.2578C14.4496 13.4378 14.3239 13.5963 14.1682 13.7213C14.0125 13.8464 13.8307 13.9348 13.6363 13.9802C13.4418 14.0256 13.2396 14.0267 13.0447 13.9834L11.3333 13.5014V1.38346L13.3453 2.03613C13.732 2.17623 14.0662 2.43191 14.3026 2.76848C14.539 3.10504 14.6661 3.50618 14.6667 3.91746V12.6808Z" fill="black"/>
</g>
<defs>
<clipPath id="clip0_483_13792">
<rect width="16" height="16" fill="white"/>
</clipPath>
</defs>
</svg>
