<svg width="17" height="16" viewBox="0 0 17 16" fill="none" xmlns="http://www.w3.org/2000/svg">
<path d="M12.2217 0H5.55501C4.67128 0.00105857 3.82405 0.352588 3.19916 0.97748C2.57427 1.60237 2.22274 2.4496 2.22168 3.33333V12.6667C2.22274 13.5504 2.57427 14.3976 3.19916 15.0225C3.82405 15.6474 4.67128 15.9989 5.55501 16H12.2217C13.1054 15.9989 13.9526 15.6474 14.5775 15.0225C15.2024 14.3976 15.554 13.5504 15.555 12.6667V3.33333C15.554 2.4496 15.2024 1.60237 14.5775 0.97748C13.9526 0.352588 13.1054 0.00105857 12.2217 0V0ZM5.55501 1.33333H12.2217C12.7521 1.33333 13.2608 1.54405 13.6359 1.91912C14.011 2.29419 14.2217 2.8029 14.2217 3.33333V11.3333H3.55501V3.33333C3.55501 2.8029 3.76573 2.29419 4.1408 1.91912C4.51587 1.54405 5.02458 1.33333 5.55501 1.33333ZM12.2217 14.6667H5.55501C5.02458 14.6667 4.51587 14.456 4.1408 14.0809C3.76573 13.7058 3.55501 13.1971 3.55501 12.6667H8.22168V13.3333C8.22168 13.5101 8.29192 13.6797 8.41694 13.8047C8.54197 13.9298 8.71154 14 8.88835 14C9.06516 14 9.23473 13.9298 9.35975 13.8047C9.48478 13.6797 9.55501 13.5101 9.55501 13.3333V12.6667H14.2217C14.2217 13.1971 14.011 13.7058 13.6359 14.0809C13.2608 14.456 12.7521 14.6667 12.2217 14.6667Z" fill="black"/>
</svg>
