<svg width="17" height="16" viewBox="0 0 17 16" fill="none" xmlns="http://www.w3.org/2000/svg">
<g clip-path="url(#clip0_483_13885)">
<path d="M12.778 0.66626H3.44466C2.56093 0.667318 1.7137 1.01885 1.08881 1.64374C0.463916 2.26863 0.112387 3.11586 0.111328 3.99959L0.111328 9.33293C0.112387 10.2167 0.463916 11.0639 1.08881 11.6888C1.7137 12.3137 2.56093 12.6652 3.44466 12.6663H7.44466V13.9996H4.778C4.60118 13.9996 4.43161 14.0698 4.30659 14.1949C4.18157 14.3199 4.11133 14.4894 4.11133 14.6663C4.11133 14.8431 4.18157 15.0126 4.30659 15.1377C4.43161 15.2627 4.60118 15.3329 4.778 15.3329H11.4447C11.6215 15.3329 11.791 15.2627 11.9161 15.1377C12.0411 15.0126 12.1113 14.8431 12.1113 14.6663C12.1113 14.4894 12.0411 14.3199 11.9161 14.1949C11.791 14.0698 11.6215 13.9996 11.4447 13.9996H8.778V12.6663H12.778C13.6617 12.6652 14.509 12.3137 15.1338 11.6888C15.7587 11.0639 16.1103 10.2167 16.1113 9.33293V3.99959C16.1103 3.11586 15.7587 2.26863 15.1338 1.64374C14.509 1.01885 13.6617 0.667318 12.778 0.66626ZM14.778 9.33293C14.778 9.86336 14.5673 10.3721 14.1922 10.7471C13.8171 11.1222 13.3084 11.3329 12.778 11.3329H3.44466C2.91423 11.3329 2.40552 11.1222 2.03045 10.7471C1.65538 10.3721 1.44466 9.86336 1.44466 9.33293V3.99959C1.44466 3.46916 1.65538 2.96045 2.03045 2.58538C2.40552 2.21031 2.91423 1.99959 3.44466 1.99959H12.778C13.3084 1.99959 13.8171 2.21031 14.1922 2.58538C14.5673 2.96045 14.778 3.46916 14.778 3.99959V9.33293ZM13.4447 6.66626C13.4447 6.84307 13.3744 7.01264 13.2494 7.13766C13.1244 7.26269 12.9548 7.33293 12.778 7.33293H10.8013L9.668 9.03626C9.60691 9.12782 9.5241 9.20283 9.42697 9.2546C9.32983 9.30636 9.22139 9.33327 9.11133 9.33293C9.09733 9.33293 9.08333 9.33293 9.06999 9.33293C8.95336 9.32574 8.84065 9.28802 8.74319 9.22355C8.64572 9.15908 8.56691 9.07012 8.51466 8.96559L7.02866 5.99159L6.33266 7.03626C6.27176 7.12754 6.18927 7.20237 6.09252 7.25412C5.99576 7.30587 5.88772 7.33294 5.778 7.33293H3.44466C3.26785 7.33293 3.09828 7.26269 2.97326 7.13766C2.84823 7.01264 2.77799 6.84307 2.77799 6.66626C2.77799 6.48945 2.84823 6.31988 2.97326 6.19486C3.09828 6.06983 3.26785 5.99959 3.44466 5.99959H5.42133L6.55466 4.29626C6.61882 4.19797 6.7081 4.11863 6.81325 4.06646C6.9184 4.0143 7.03558 3.99121 7.15266 3.99959C7.2693 4.00678 7.382 4.0445 7.47947 4.10897C7.57694 4.17344 7.65575 4.2624 7.708 4.36693L9.19399 7.33959L9.89 6.29493C9.95105 6.2039 10.0336 6.12932 10.1303 6.07781C10.2271 6.02629 10.3351 5.99943 10.4447 5.99959H12.778C12.9548 5.99959 13.1244 6.06983 13.2494 6.19486C13.3744 6.31988 13.4447 6.48945 13.4447 6.66626Z" fill="black"/>
</g>
<defs>
<clipPath id="clip0_483_13885">
<rect width="16" height="16" fill="white" transform="translate(0.111328)"/>
</clipPath>
</defs>
</svg>
