<svg width="17" height="16" viewBox="0 0 17 16" fill="none" xmlns="http://www.w3.org/2000/svg">
<g clip-path="url(#clip0_483_13797)">
<path d="M6.33827 14.9649C7.74002 16.3362 9.9788 16.3418 11.3874 14.9775L14.042 12.5244C16.9176 9.68709 16.9486 5.05577 14.1113 2.18015C11.2739 -0.695476 6.64262 -0.726538 3.76699 2.11084C3.74374 2.13377 3.72062 2.1569 3.69768 2.18015C0.841336 5.03693 0.841711 9.66834 3.69849 12.5247C3.7044 12.5306 3.71034 12.5365 3.71627 12.5424L6.33827 14.9649ZM4.63793 3.12043C6.96999 0.778086 10.7593 0.769743 13.1017 3.10181C15.444 5.43387 15.4524 9.22321 13.1203 11.5656L10.4711 14.014C9.56618 14.8656 8.15312 14.8604 7.25459 14.002L4.63793 11.5842C2.30074 9.24699 2.30071 5.45768 4.63787 3.12046C4.6379 3.12046 4.63793 3.12043 4.63793 3.12043ZM5.54496 7.35231C5.54496 6.98506 5.84268 6.68734 6.20993 6.68734H8.20484V4.69243C8.20484 4.32518 8.50255 4.02746 8.8698 4.02746C9.23705 4.02746 9.53477 4.32518 9.53477 4.69243V6.68734H11.5297C11.8969 6.68734 12.1946 6.98506 12.1946 7.35231C12.1946 7.71956 11.8969 8.01727 11.5297 8.01727H9.53477V10.0122C9.53477 10.3794 9.23705 10.6771 8.8698 10.6771C8.50255 10.6771 8.20484 10.3794 8.20484 10.0122V8.01727H6.20993C5.84268 8.01727 5.54496 7.71956 5.54496 7.35231Z" fill="black"/>
</g>
<defs>
<clipPath id="clip0_483_13797">
<rect width="16" height="16" fill="white" transform="translate(0.888672)"/>
</clipPath>
</defs>
</svg>
