<svg width="16" height="16" viewBox="0 0 16 16" fill="none" xmlns="http://www.w3.org/2000/svg">
<g clip-path="url(#clip0_483_13770)">
<path d="M10.0001 15.9999C8.87977 15.999 7.77206 15.7633 6.74847 15.3079C5.72488 14.8524 4.80814 14.1875 4.05744 13.3559C3.30106 12.5233 2.73038 11.5394 2.38327 10.4694C2.03615 9.39945 1.92054 8.2679 2.0441 7.14985C2.2433 5.40986 3.00237 3.78168 4.20701 2.51042C5.41165 1.23917 6.99667 0.393658 8.72344 0.101188C9.83972 -0.071229 10.9789 -0.024811 12.0774 0.237854C12.3651 0.31176 12.6278 0.46119 12.8383 0.670682C13.0488 0.880173 13.1995 1.14212 13.2749 1.4294C13.3502 1.71669 13.3474 2.01889 13.2667 2.30473C13.1861 2.59056 13.0305 2.84965 12.8161 3.05519C9.7761 5.83252 10.0401 10.1512 13.3541 12.6619C13.5884 12.8458 13.7692 13.0891 13.8775 13.3666C13.9859 13.644 14.0179 13.9455 13.9703 14.2395C13.9227 14.5335 13.7971 14.8094 13.6066 15.0385C13.4162 15.2675 13.1678 15.4413 12.8874 15.5419C11.9553 15.8464 10.9807 16.001 10.0001 15.9999ZM10.0508 1.33319C9.67647 1.33229 9.30267 1.3606 8.93277 1.41785C7.49512 1.661 6.17534 2.36455 5.17211 3.42261C4.16888 4.48067 3.53648 5.83598 3.3701 7.28452C3.2661 8.21788 3.36195 9.16269 3.65126 10.0562C3.94058 10.9496 4.41674 11.7713 5.0481 12.4665C5.97233 13.453 7.16296 14.15 8.47555 14.4731C9.78814 14.7961 11.1663 14.7313 12.4428 14.2865C12.4978 14.2659 12.5464 14.2311 12.5836 14.1857C12.6209 14.1402 12.6455 14.0857 12.6549 14.0277C12.6643 13.9697 12.6582 13.9103 12.6372 13.8554C12.6162 13.8005 12.5811 13.7521 12.5354 13.7152C8.58277 10.7299 8.26877 5.39119 11.9034 2.08252C11.9451 2.0438 11.9752 1.99421 11.9903 1.93933C12.0054 1.88445 12.0048 1.82645 11.9888 1.77185C11.9749 1.71391 11.9455 1.66086 11.9036 1.61844C11.8618 1.57602 11.8092 1.54585 11.7514 1.53119C11.1946 1.39687 10.6236 1.33039 10.0508 1.33319Z" fill="black"/>
</g>
<defs>
<clipPath id="clip0_483_13770">
<rect width="16" height="16" fill="white"/>
</clipPath>
</defs>
</svg>
