<svg width="17" height="16" viewBox="0 0 17 16" fill="none" xmlns="http://www.w3.org/2000/svg">
<g clip-path="url(#clip0_482_18083)">
<path d="M13.4677 2.08138L12.3637 0.976044C12.0548 0.665586 11.6874 0.41947 11.2828 0.25194C10.8781 0.0844101 10.4443 -0.00120681 10.0063 4.40279e-05H5.77767C4.89394 0.0011026 4.04671 0.352632 3.42182 0.977524C2.79692 1.60242 2.44539 2.44965 2.44434 3.33338V12.6667C2.44539 13.5504 2.79692 14.3977 3.42182 15.0226C4.04671 15.6475 4.89394 15.999 5.77767 16H11.111C11.9947 15.999 12.842 15.6475 13.4669 15.0226C14.0917 14.3977 14.4433 13.5504 14.4443 12.6667V4.43804C14.4454 4.00017 14.3596 3.56642 14.192 3.16191C14.0244 2.75739 13.7782 2.39013 13.4677 2.08138ZM12.525 3.02404C12.6196 3.11826 12.7042 3.22191 12.7777 3.33338H11.111V1.66671C11.2223 1.74092 11.3261 1.82577 11.421 1.92004L12.525 3.02404ZM13.111 12.6667C13.111 13.1971 12.9003 13.7059 12.5252 14.0809C12.1501 14.456 11.6414 14.6667 11.111 14.6667H5.77767C5.24724 14.6667 4.73853 14.456 4.36346 14.0809C3.98838 13.7059 3.77767 13.1971 3.77767 12.6667V3.33338C3.77767 2.80294 3.98838 2.29424 4.36346 1.91916C4.73853 1.54409 5.24724 1.33338 5.77767 1.33338H9.77767V3.33338C9.77767 3.687 9.91814 4.02614 10.1682 4.27619C10.4182 4.52624 10.7574 4.66671 11.111 4.66671H13.111V12.6667ZM11.111 6.00004C11.2878 6.00004 11.4574 6.07028 11.5824 6.19531C11.7074 6.32033 11.7777 6.4899 11.7777 6.66671C11.7777 6.84352 11.7074 7.01309 11.5824 7.13812C11.4574 7.26314 11.2878 7.33338 11.111 7.33338H5.77767C5.60086 7.33338 5.43129 7.26314 5.30626 7.13812C5.18124 7.01309 5.111 6.84352 5.111 6.66671C5.111 6.4899 5.18124 6.32033 5.30626 6.19531C5.43129 6.07028 5.60086 6.00004 5.77767 6.00004H11.111ZM11.7777 9.33338C11.7777 9.51019 11.7074 9.67976 11.5824 9.80478C11.4574 9.92981 11.2878 10 11.111 10H5.77767C5.60086 10 5.43129 9.92981 5.30626 9.80478C5.18124 9.67976 5.111 9.51019 5.111 9.33338C5.111 9.15657 5.18124 8.987 5.30626 8.86197C5.43129 8.73695 5.60086 8.66671 5.77767 8.66671H11.111C11.2878 8.66671 11.4574 8.73695 11.5824 8.86197C11.7074 8.987 11.7777 9.15657 11.7777 9.33338ZM11.6497 11.6087C11.7533 11.7513 11.7963 11.9291 11.7691 12.1032C11.742 12.2774 11.6471 12.4337 11.505 12.538C10.8295 13.0194 10.0295 13.2955 9.201 13.3334C8.71692 13.331 8.24755 13.1668 7.86767 12.8667C7.649 12.7167 7.56567 12.6667 7.401 12.6667C6.95529 12.7357 6.53475 12.9179 6.17967 13.196C6.03883 13.2964 5.86449 13.3382 5.69346 13.3124C5.52243 13.2867 5.3681 13.1955 5.26306 13.0581C5.15802 12.9207 5.11048 12.7478 5.1305 12.576C5.15052 12.4042 5.23652 12.247 5.37034 12.1374C5.95779 11.6813 6.66319 11.4024 7.40367 11.3334C7.84776 11.3405 8.27708 11.494 8.625 11.77C8.78359 11.9127 8.98778 11.9942 9.201 12C9.74612 11.9592 10.2703 11.773 10.719 11.4607C10.8621 11.357 11.0405 11.3143 11.215 11.3421C11.3895 11.3698 11.5458 11.4657 11.6497 11.6087Z" fill="black"/>
</g>
<defs>
<clipPath id="clip0_482_18083">
<rect width="16" height="16" fill="white" transform="translate(0.444336)"/>
</clipPath>
</defs>
</svg>
