<svg width="17" height="16" viewBox="0 0 17 16" fill="none" xmlns="http://www.w3.org/2000/svg">
<g clip-path="url(#clip0_483_13898)">
<path d="M8.44434 0C6.86209 0 5.31537 0.469192 3.99978 1.34824C2.68418 2.22729 1.6588 3.47672 1.0533 4.93853C0.447802 6.40034 0.289376 8.00887 0.598057 9.56072C0.906739 11.1126 1.66867 12.538 2.78749 13.6569C3.90631 14.7757 5.33177 15.5376 6.88362 15.8463C8.43547 16.155 10.044 15.9965 11.5058 15.391C12.9676 14.7855 14.217 13.7602 15.0961 12.4446C15.9751 11.129 16.4443 9.58225 16.4443 8C16.442 5.87897 15.5985 3.84547 14.0987 2.34568C12.5989 0.845886 10.5654 0.00229405 8.44434 0V0ZM15.111 8C15.1102 8.42521 15.0686 8.84937 14.987 9.26667L13.699 8.88C13.8039 8.29802 13.8039 7.70198 13.699 7.12L14.987 6.73333C15.0686 7.15064 15.1102 7.57479 15.111 8ZM14.6043 5.456L13.3177 5.842C12.7786 4.63289 11.8114 3.66579 10.6023 3.12667L10.9883 1.84C12.624 2.52034 13.924 3.82032 14.6043 5.456ZM8.44434 12C7.65321 12 6.87986 11.7654 6.22206 11.3259C5.56426 10.8864 5.05157 10.2616 4.74882 9.53074C4.44607 8.79983 4.36686 7.99556 4.5212 7.21964C4.67554 6.44372 5.0565 5.73098 5.61591 5.17157C6.17532 4.61216 6.88805 4.2312 7.66398 4.07686C8.4399 3.92252 9.24417 4.00173 9.97507 4.30448C10.706 4.60723 11.3307 5.11992 11.7702 5.77772C12.2097 6.43552 12.4443 7.20888 12.4443 8C12.4433 9.06054 12.0215 10.0773 11.2716 10.8273C10.5217 11.5772 9.50488 11.9989 8.44434 12ZM9.71101 1.45733L9.32434 2.74533C8.74236 2.64044 8.14632 2.64044 7.56434 2.74533L7.17767 1.45733C8.01403 1.29205 8.87465 1.29205 9.71101 1.45733ZM5.90034 1.84L6.28634 3.12667C5.07723 3.66579 4.11013 4.63289 3.57101 5.842L2.28434 5.456C2.96468 3.82032 4.26466 2.52034 5.90034 1.84ZM1.77767 8C1.77852 7.57479 1.82004 7.15064 1.90167 6.73333L3.18967 7.12C3.08478 7.70198 3.08478 8.29802 3.18967 8.88L1.90167 9.26667C1.82004 8.84937 1.77852 8.42521 1.77767 8ZM2.28434 10.544L3.57101 10.158C4.11013 11.3671 5.07723 12.3342 6.28634 12.8733L5.90034 14.16C4.26466 13.4797 2.96468 12.1797 2.28434 10.544ZM7.17767 14.544L7.56434 13.256C8.14632 13.3609 8.74236 13.3609 9.32434 13.256L9.71101 14.544C8.87465 14.7093 8.01403 14.7093 7.17767 14.544ZM10.9883 14.1607L10.6023 12.8747C11.8114 12.3355 12.7786 11.3684 13.3177 10.1593L14.6043 10.5453C13.9239 12.1805 12.6238 13.4798 10.9883 14.1593V14.1607ZM10.1983 7.26133C10.358 7.47449 10.4443 7.73366 10.4443 8C10.4443 8.26634 10.358 8.52551 10.1983 8.73867L8.93634 10.4207C8.8791 10.4971 8.80483 10.5592 8.71943 10.6019C8.63402 10.6446 8.53984 10.6669 8.44434 10.6669C8.34884 10.6669 8.25466 10.6446 8.16925 10.6019C8.08385 10.5592 8.00958 10.4971 7.95234 10.4207L6.69034 8.73867C6.53065 8.52551 6.44434 8.26634 6.44434 8C6.44434 7.73366 6.53065 7.47449 6.69034 7.26133L7.95234 5.57933C8.00958 5.50289 8.08385 5.44084 8.16925 5.3981C8.25466 5.35536 8.34884 5.33311 8.44434 5.33311C8.53984 5.33311 8.63402 5.35536 8.71943 5.3981C8.80483 5.44084 8.8791 5.50289 8.93634 5.57933L10.1983 7.26133Z" fill="black"/>
</g>
<defs>
<clipPath id="clip0_483_13898">
<rect width="16" height="16" fill="white" transform="translate(0.444336)"/>
</clipPath>
</defs>
</svg>
