<svg width="17" height="16" viewBox="0 0 17 16" fill="none" xmlns="http://www.w3.org/2000/svg">
<g clip-path="url(#clip0_482_17997)">
<path d="M0.999674 4.00002H15.6663C15.8432 4.00002 16.0127 3.92978 16.1377 3.80476C16.2628 3.67973 16.333 3.51016 16.333 3.33335C16.333 3.15654 16.2628 2.98697 16.1377 2.86195C16.0127 2.73692 15.8432 2.66669 15.6663 2.66669H0.999674C0.822863 2.66669 0.653294 2.73692 0.52827 2.86195C0.403246 2.98697 0.333008 3.15654 0.333008 3.33335C0.333008 3.51016 0.403246 3.67973 0.52827 3.80476C0.653294 3.92978 0.822863 4.00002 0.999674 4.00002Z" fill="black"/>
<path d="M3.66667 6C3.48986 6 3.32029 6.07024 3.19526 6.19526C3.07024 6.32029 3 6.48985 3 6.66667C3 6.84348 3.07024 7.01304 3.19526 7.13807C3.32029 7.26309 3.48986 7.33333 3.66667 7.33333H13C13.1768 7.33333 13.3464 7.26309 13.4714 7.13807C13.5964 7.01304 13.6667 6.84348 13.6667 6.66667C13.6667 6.48985 13.5964 6.32029 13.4714 6.19526C13.3464 6.07024 13.1768 6 13 6H3.66667Z" fill="black"/>
<path d="M13 12.6666H3.66667C3.48986 12.6666 3.32029 12.7369 3.19526 12.8619C3.07024 12.9869 3 13.1565 3 13.3333C3 13.5101 3.07024 13.6797 3.19526 13.8047C3.32029 13.9297 3.48986 14 3.66667 14H13C13.1768 14 13.3464 13.9297 13.4714 13.8047C13.5964 13.6797 13.6667 13.5101 13.6667 13.3333C13.6667 13.1565 13.5964 12.9869 13.4714 12.8619C13.3464 12.7369 13.1768 12.6666 13 12.6666Z" fill="black"/>
<path d="M15.6663 9.33337H0.999674C0.822863 9.33337 0.653294 9.40361 0.52827 9.52864C0.403246 9.65366 0.333008 9.82323 0.333008 10C0.333008 10.1769 0.403246 10.3464 0.52827 10.4715C0.653294 10.5965 0.822863 10.6667 0.999674 10.6667H15.6663C15.8432 10.6667 16.0127 10.5965 16.1377 10.4715C16.2628 10.3464 16.333 10.1769 16.333 10C16.333 9.82323 16.2628 9.65366 16.1377 9.52864C16.0127 9.40361 15.8432 9.33337 15.6663 9.33337Z" fill="black"/>
</g>
<defs>
<clipPath id="clip0_482_17997">
<rect width="16" height="16" fill="white" transform="translate(0.333008)"/>
</clipPath>
</defs>
</svg>
