<svg width="16" height="16" viewBox="0 0 16 16" fill="none" xmlns="http://www.w3.org/2000/svg">
<g clip-path="url(#clip0_4012_6225)">
<path d="M11.9998 6.04255C11.9999 5.77439 11.947 5.50886 11.844 5.26127C11.741 5.01367 11.5901 4.78889 11.3998 4.59989C11.0106 4.22845 10.4932 4.02122 9.95518 4.02122C9.41714 4.02122 8.89977 4.22845 8.51051 4.59989L0.599843 12.5126C0.238789 12.8997 0.0421375 13.4119 0.051334 13.9412C0.0605305 14.4705 0.274857 14.9756 0.649142 15.3499C1.02343 15.7243 1.52844 15.9387 2.05774 15.9481C2.58703 15.9574 3.09928 15.7608 3.48651 15.3999L11.3998 7.48722C11.5904 7.29802 11.7415 7.07293 11.8445 6.82496C11.9475 6.57699 12.0003 6.31106 11.9998 6.04255ZM2.54384 14.4586C2.40907 14.587 2.23003 14.6587 2.04384 14.6587C1.85766 14.6587 1.67861 14.587 1.54384 14.4586C1.41145 14.3258 1.33711 14.146 1.33711 13.9586C1.33711 13.7711 1.41145 13.5913 1.54384 13.4586L6.72318 8.27855L7.72651 9.28189L2.54384 14.4586ZM10.4585 6.54389L8.66651 8.33655L7.66651 7.33322L9.45918 5.54122C9.52308 5.46822 9.6013 5.40911 9.68897 5.36757C9.77665 5.32603 9.87193 5.30293 9.9689 5.29971C10.0659 5.29649 10.1625 5.31322 10.2527 5.34886C10.3429 5.38449 10.4249 5.43828 10.4935 5.50689C10.5621 5.57549 10.6159 5.65745 10.6515 5.74769C10.6872 5.83793 10.7039 5.93453 10.7007 6.0315C10.6975 6.12847 10.6744 6.22374 10.6328 6.31142C10.5913 6.3991 10.5322 6.47731 10.4592 6.54122L10.4585 6.54389ZM3.24184 1.90322L4.27518 1.60855L4.56984 0.575219C4.61731 0.409409 4.71748 0.263564 4.8552 0.159739C4.99292 0.0559144 5.1607 -0.000244141 5.33318 -0.000244141C5.50565 -0.000244141 5.67343 0.0559144 5.81115 0.159739C5.94887 0.263564 6.04904 0.409409 6.09651 0.575219L6.39118 1.60855L7.42451 1.90322C7.59032 1.95069 7.73616 2.05086 7.83999 2.18858C7.94381 2.3263 7.99997 2.49408 7.99997 2.66655C7.99997 2.83902 7.94381 3.00681 7.83999 3.14453C7.73616 3.28225 7.59032 3.38242 7.42451 3.42989L6.39118 3.72455L6.09651 4.75789C6.04904 4.9237 5.94887 5.06954 5.81115 5.17337C5.67343 5.27719 5.50565 5.33335 5.33318 5.33335C5.1607 5.33335 4.99292 5.27719 4.8552 5.17337C4.71748 5.06954 4.61731 4.9237 4.56984 4.75789L4.27518 3.72455L3.24184 3.42989C3.07603 3.38242 2.93019 3.28225 2.82636 3.14453C2.72254 3.00681 2.66638 2.83902 2.66638 2.66655C2.66638 2.49408 2.72254 2.3263 2.82636 2.18858C2.93019 2.05086 3.07603 1.95069 3.24184 1.90322ZM15.4245 11.4299L14.3912 11.7246L14.0965 12.7579C14.049 12.9237 13.9489 13.0695 13.8112 13.1734C13.6734 13.2772 13.5056 13.3333 13.3332 13.3333C13.1607 13.3333 12.9929 13.2772 12.8552 13.1734C12.7175 13.0695 12.6173 12.9237 12.5698 12.7579L12.2752 11.7246L11.2418 11.4299C11.076 11.3824 10.9302 11.2822 10.8264 11.1445C10.7225 11.0068 10.6664 10.839 10.6664 10.6666C10.6664 10.4941 10.7225 10.3263 10.8264 10.1886C10.9302 10.0509 11.076 9.95069 11.2418 9.90322L12.2752 9.60855L12.5698 8.57522C12.6173 8.40941 12.7175 8.26356 12.8552 8.15974C12.9929 8.05591 13.1607 7.99976 13.3332 7.99976C13.5056 7.99976 13.6734 8.05591 13.8112 8.15974C13.9489 8.26356 14.049 8.40941 14.0965 8.57522L14.3912 9.60855L15.4245 9.90322C15.5903 9.95069 15.7362 10.0509 15.84 10.1886C15.9438 10.3263 16 10.4941 16 10.6666C16 10.839 15.9438 11.0068 15.84 11.1445C15.7362 11.2822 15.5903 11.3824 15.4245 11.4299ZM11.8365 1.66655L12.7405 1.40855L12.9998 0.503219C13.0421 0.359097 13.1298 0.232534 13.25 0.142495C13.3702 0.0524552 13.5163 0.00378925 13.6665 0.00378925C13.8167 0.00378925 13.9628 0.0524552 14.083 0.142495C14.2032 0.232534 14.291 0.359097 14.3332 0.503219L14.5912 1.40722L15.4952 1.66522C15.6393 1.70743 15.7659 1.7952 15.8559 1.91539C15.9459 2.03558 15.9946 2.18171 15.9946 2.33189C15.9946 2.48206 15.9459 2.62819 15.8559 2.74838C15.7659 2.86857 15.6393 2.95635 15.4952 2.99855L14.5912 3.25655L14.3332 4.16255C14.291 4.30667 14.2032 4.43324 14.083 4.52328C13.9628 4.61332 13.8167 4.66198 13.6665 4.66198C13.5163 4.66198 13.3702 4.61332 13.25 4.52328C13.1298 4.43324 13.0421 4.30667 12.9998 4.16255L12.7418 3.25922L11.8365 2.99989C11.6924 2.95768 11.5658 2.8699 11.4758 2.74971C11.3857 2.62953 11.3371 2.48339 11.3371 2.33322C11.3371 2.18304 11.3857 2.03691 11.4758 1.91672C11.5658 1.79653 11.6924 1.70876 11.8365 1.66655Z" fill="#444444"/>
</g>
<defs>
<clipPath id="clip0_4012_6225">
<rect width="16" height="16" fill="white"/>
</clipPath>
</defs>
</svg>
