<svg width="17" height="16" viewBox="0 0 17 16" fill="none" xmlns="http://www.w3.org/2000/svg">
<g clip-path="url(#clip0_483_13782)">
<path d="M8.778 0.666667V2C8.778 2.17681 8.70776 2.34638 8.58273 2.4714C8.45771 2.59643 8.28814 2.66667 8.11133 2.66667C7.93452 2.66667 7.76495 2.59643 7.63992 2.4714C7.5149 2.34638 7.44466 2.17681 7.44466 2V0.666667C7.44466 0.489856 7.5149 0.320286 7.63992 0.195262C7.76495 0.0702379 7.93452 0 8.11133 0C8.28814 0 8.45771 0.0702379 8.58273 0.195262C8.70776 0.320286 8.778 0.489856 8.778 0.666667ZM8.11133 13.3333C7.93452 13.3333 7.76495 13.4036 7.63992 13.5286C7.5149 13.6536 7.44466 13.8232 7.44466 14V15.3333C7.44466 15.5101 7.5149 15.6797 7.63992 15.8047C7.76495 15.9298 7.93452 16 8.11133 16C8.28814 16 8.45771 15.9298 8.58273 15.8047C8.70776 15.6797 8.778 15.5101 8.778 15.3333V14C8.778 13.8232 8.70776 13.6536 8.58273 13.5286C8.45771 13.4036 8.28814 13.3333 8.11133 13.3333ZM2.77799 8C2.77799 7.82319 2.70776 7.65362 2.58273 7.5286C2.45771 7.40357 2.28814 7.33333 2.11133 7.33333H0.777995C0.601184 7.33333 0.431615 7.40357 0.30659 7.5286C0.181566 7.65362 0.111328 7.82319 0.111328 8C0.111328 8.17681 0.181566 8.34638 0.30659 8.47141C0.431615 8.59643 0.601184 8.66667 0.777995 8.66667H2.11133C2.28814 8.66667 2.45771 8.59643 2.58273 8.47141C2.70776 8.34638 2.77799 8.17681 2.77799 8ZM15.4447 7.33333H14.1113C13.9345 7.33333 13.7649 7.40357 13.6399 7.5286C13.5149 7.65362 13.4447 7.82319 13.4447 8C13.4447 8.17681 13.5149 8.34638 13.6399 8.47141C13.7649 8.59643 13.9345 8.66667 14.1113 8.66667H15.4447C15.6215 8.66667 15.791 8.59643 15.9161 8.47141C16.0411 8.34638 16.1113 8.17681 16.1113 8C16.1113 7.82319 16.0411 7.65362 15.9161 7.5286C15.791 7.40357 15.6215 7.33333 15.4447 7.33333ZM12.1233 1.07867C12.0476 1.03474 11.9639 1.00616 11.8771 0.994583C11.7903 0.983003 11.702 0.988642 11.6174 1.01118C11.5328 1.03371 11.4534 1.0727 11.3838 1.12592C11.3143 1.17914 11.2559 1.24554 11.212 1.32133L10.5453 2.47533C10.4569 2.62837 10.4328 2.81028 10.4784 2.98105C10.5241 3.15182 10.6357 3.29748 10.7887 3.386C10.8898 3.44514 11.0049 3.47621 11.122 3.476C11.239 3.476 11.354 3.44519 11.4553 3.38668C11.5567 3.32817 11.6408 3.24401 11.6993 3.14267L12.366 1.98867C12.4543 1.83577 12.4783 1.65409 12.4328 1.48348C12.3874 1.31288 12.276 1.1673 12.1233 1.07867ZM5.436 12.614C5.28304 12.5255 5.10119 12.5013 4.93043 12.5468C4.75967 12.5923 4.61396 12.7038 4.52533 12.8567L3.85866 14.0107C3.77015 14.1636 3.74599 14.3455 3.79149 14.5162C3.837 14.687 3.94844 14.8327 4.10133 14.9213C4.20247 14.9804 4.31753 15.0115 4.43466 15.0113C4.5518 15.0114 4.66689 14.9807 4.76836 14.9222C4.86983 14.8637 4.95409 14.7794 5.01266 14.678L5.67933 13.524C5.76757 13.371 5.79151 13.1893 5.74589 13.0187C5.70027 12.8481 5.58882 12.7025 5.436 12.614ZM3.25466 4.414L2.10066 3.74733C1.94803 3.6652 1.76941 3.64573 1.60267 3.69307C1.43593 3.74041 1.29418 3.85082 1.20748 4.00091C1.12077 4.15099 1.09593 4.32894 1.13822 4.49704C1.1805 4.66513 1.28659 4.81014 1.43399 4.90133L2.58799 5.568C2.74063 5.65014 2.91925 5.6696 3.08599 5.62226C3.25273 5.57493 3.39448 5.46451 3.48118 5.31443C3.56788 5.16434 3.59273 4.98639 3.55044 4.8183C3.50815 4.65021 3.40206 4.50519 3.25466 4.414ZM14.788 11.1007L13.634 10.434C13.4814 10.3519 13.3027 10.3324 13.136 10.3797C12.9693 10.4271 12.8275 10.5375 12.7408 10.6876C12.6541 10.8377 12.6293 11.0156 12.6716 11.1837C12.7138 11.3518 12.8199 11.4968 12.9673 11.588L14.1213 12.2547C14.2224 12.3138 14.3375 12.3449 14.4547 12.3447C14.6014 12.3447 14.7441 12.2962 14.8605 12.2069C14.9769 12.1176 15.0606 11.9923 15.0986 11.8505C15.1366 11.7088 15.1267 11.5585 15.0706 11.4229C15.0144 11.2873 14.9151 11.174 14.788 11.1007ZM5.01066 1.32133C4.91947 1.17393 4.77446 1.06784 4.60636 1.02556C4.43827 0.983269 4.26032 1.00811 4.11023 1.09482C3.96015 1.18152 3.84973 1.32327 3.8024 1.49001C3.75506 1.65675 3.77452 1.83537 3.85666 1.988L4.52333 3.142C4.58184 3.24334 4.666 3.3275 4.76734 3.38601C4.86868 3.44453 4.98364 3.47533 5.10066 3.47533C5.2178 3.47554 5.33288 3.44447 5.434 3.38533C5.587 3.29681 5.69858 3.15115 5.74421 2.98038C5.78984 2.80961 5.76579 2.62771 5.67733 2.47467L5.01066 1.32133ZM11.6973 12.8547C11.6061 12.7073 11.4611 12.6012 11.293 12.5589C11.1249 12.5166 10.947 12.5414 10.7969 12.6281C10.6468 12.7149 10.5364 12.8566 10.4891 13.0233C10.4417 13.1901 10.4612 13.3687 10.5433 13.5213L11.21 14.6753C11.3012 14.8227 11.4462 14.9288 11.6143 14.9711C11.7824 15.0134 11.9603 14.9886 12.1104 14.9019C12.2605 14.8151 12.3709 14.6734 12.4183 14.5067C12.4656 14.3399 12.4461 14.1613 12.364 14.0087L11.6973 12.8547ZM13.3027 5.65467C13.4197 5.65466 13.5347 5.62385 13.636 5.56533L14.79 4.89867C14.9374 4.80748 15.0435 4.66246 15.0858 4.49437C15.1281 4.32628 15.1032 4.14832 15.0165 3.99824C14.9298 3.84816 14.7881 3.73774 14.6213 3.6904C14.4546 3.64307 14.276 3.66253 14.1233 3.74467L12.9693 4.41133C12.8426 4.48486 12.7436 4.59811 12.6876 4.73355C12.6317 4.869 12.622 5.0191 12.6599 5.16064C12.6979 5.30218 12.7814 5.42727 12.8976 5.51657C13.0138 5.60587 13.1561 5.65441 13.3027 5.65467ZM2.58666 10.432L1.43266 11.0987C1.30558 11.172 1.20625 11.2853 1.1501 11.4209C1.09394 11.5565 1.08409 11.7068 1.12207 11.8485C1.16006 11.9903 1.24375 12.1156 1.36017 12.2049C1.4766 12.2942 1.61924 12.3427 1.76599 12.3427C1.88314 12.3429 1.99821 12.3118 2.09933 12.2527L3.25333 11.586C3.40073 11.4948 3.50682 11.3498 3.54911 11.1817C3.59139 11.0136 3.56655 10.8357 3.47985 10.6856C3.39314 10.5355 3.25139 10.4251 3.08465 10.3777C2.91791 10.3304 2.73929 10.3499 2.58666 10.432Z" fill="black"/>
</g>
<defs>
<clipPath id="clip0_483_13782">
<rect width="16" height="16" fill="white" transform="translate(0.111328)"/>
</clipPath>
</defs>
</svg>
