<svg width="17" height="16" viewBox="0 0 17 16" fill="none" xmlns="http://www.w3.org/2000/svg">
<g clip-path="url(#clip0_483_13605)">
<path d="M6.77734 7.33337C7.32963 7.33337 7.77734 6.88566 7.77734 6.33337C7.77734 5.78109 7.32963 5.33337 6.77734 5.33337C6.22506 5.33337 5.77734 5.78109 5.77734 6.33337C5.77734 6.88566 6.22506 7.33337 6.77734 7.33337Z" fill="black"/>
<path d="M12.7773 2C13.3296 2 13.7773 1.55228 13.7773 1C13.7773 0.447715 13.3296 0 12.7773 0C12.2251 0 11.7773 0.447715 11.7773 1C11.7773 1.55228 12.2251 2 12.7773 2Z" fill="black"/>
<path d="M14.7773 5.3335C15.3296 5.3335 15.7773 4.88578 15.7773 4.3335C15.7773 3.78121 15.3296 3.3335 14.7773 3.3335C14.2251 3.3335 13.7773 3.78121 13.7773 4.3335C13.7773 4.88578 14.2251 5.3335 14.7773 5.3335Z" fill="black"/>
<path d="M6.77734 10.6666C7.32963 10.6666 7.77734 10.2189 7.77734 9.66663C7.77734 9.11434 7.32963 8.66663 6.77734 8.66663C6.22506 8.66663 5.77734 9.11434 5.77734 9.66663C5.77734 10.2189 6.22506 10.6666 6.77734 10.6666Z" fill="black"/>
<path d="M10.1113 10.6666C10.6636 10.6666 11.1113 10.2189 11.1113 9.66663C11.1113 9.11434 10.6636 8.66663 10.1113 8.66663C9.55904 8.66663 9.11133 9.11434 9.11133 9.66663C9.11133 10.2189 9.55904 10.6666 10.1113 10.6666Z" fill="black"/>
<path d="M16.4063 7.236C16.3916 7.08188 16.3236 6.9377 16.2141 6.82822C16.1046 6.71874 15.9605 6.65078 15.8063 6.636C14.2661 6.48761 12.8255 5.80806 11.7314 4.71384C10.6373 3.61963 9.9579 2.17891 9.80967 0.638667C9.7949 0.484543 9.72694 0.340368 9.61745 0.230886C9.50797 0.121404 9.3638 0.053443 9.20967 0.0386667C8.95701 0.014 8.70234 0 8.44434 0C6.86209 0 5.31537 0.469192 3.99978 1.34824C2.68418 2.22729 1.6588 3.47672 1.0533 4.93853C0.447802 6.40034 0.289376 8.00887 0.598057 9.56072C0.906739 11.1126 1.66867 12.538 2.78749 13.6569C3.90631 14.7757 5.33177 15.5376 6.88362 15.8463C8.43547 16.155 10.044 15.9965 11.5058 15.391C12.9676 14.7855 14.217 13.7602 15.0961 12.4446C15.9751 11.129 16.4443 9.58225 16.4443 8C16.4443 7.742 16.4303 7.48733 16.4063 7.236ZM8.44434 14.6667C6.67623 14.6667 4.98054 13.9643 3.73029 12.714C2.48005 11.4638 1.77767 9.76811 1.77767 8C1.77767 6.23189 2.48005 4.5362 3.73029 3.28596C4.98054 2.03571 6.67623 1.33333 8.44434 1.33333H8.55767C8.83527 2.9705 9.61518 4.48081 10.7894 5.65498C11.9635 6.82916 13.4738 7.60907 15.111 7.88667C15.111 7.92467 15.111 7.962 15.111 8C15.1091 9.76752 14.4061 11.4621 13.1562 12.7119C11.9064 13.9617 10.2119 14.6647 8.44434 14.6667Z" fill="black"/>
</g>
<defs>
<clipPath id="clip0_483_13605">
<rect width="16" height="16" fill="white" transform="translate(0.444336)"/>
</clipPath>
</defs>
</svg>
