<svg width="17" height="16" viewBox="0 0 17 16" fill="none" xmlns="http://www.w3.org/2000/svg">
<g clip-path="url(#clip0_482_18085)">
<path d="M15.773 12.2816C16.2583 12.9709 16.8883 13.7676 16.8883 14.3336C16.8883 14.7756 16.7127 15.1995 16.4001 15.5121C16.0876 15.8246 15.6637 16.0002 15.2216 16.0002C14.7796 16.0002 14.3557 15.8246 14.0431 15.5121C13.7306 15.1995 13.555 14.7756 13.555 14.3336C13.555 13.8169 14.1956 12.9949 14.683 12.2876C14.744 12.1999 14.8253 12.1281 14.9198 12.0784C15.0144 12.0287 15.1196 12.0024 15.2264 12.0018C15.3333 12.0013 15.4387 12.0264 15.5338 12.075C15.6289 12.1237 15.7109 12.1946 15.773 12.2816ZM15.1883 9.2429L9.40696 15.0242C8.78132 15.6484 7.93368 15.9989 7.04996 15.9989C6.16624 15.9989 5.3186 15.6484 4.69296 15.0242L1.86496 12.1956C1.23985 11.5704 0.888672 10.7226 0.888672 9.83856C0.888672 8.95452 1.23985 8.10668 1.86496 7.48156L5.67096 3.6749L3.76696 1.74823C3.64604 1.62185 3.57963 1.453 3.58206 1.2781C3.58449 1.10321 3.65555 0.936271 3.77993 0.81329C3.90431 0.690309 4.07204 0.621137 4.24696 0.620689C4.42187 0.620242 4.58995 0.688555 4.71496 0.810897L6.61363 2.73356L7.64563 1.70023L7.08363 1.13823C6.96219 1.0125 6.89499 0.844095 6.89651 0.669297C6.89803 0.494499 6.96814 0.32729 7.09175 0.203685C7.21535 0.0800796 7.38256 0.009967 7.55736 0.00844805C7.73216 0.00692911 7.90056 0.0741254 8.02629 0.195564L16.693 8.86223C16.7566 8.92373 16.8074 8.99729 16.8424 9.07863C16.8773 9.15996 16.8957 9.24744 16.8965 9.33596C16.8972 9.42448 16.8804 9.51227 16.8468 9.5942C16.8133 9.67613 16.7638 9.75057 16.7012 9.81316C16.6386 9.87576 16.5642 9.92526 16.4823 9.95878C16.4003 9.9923 16.3125 10.0092 16.224 10.0084C16.1355 10.0076 16.048 9.98924 15.9667 9.9543C15.8854 9.91936 15.8118 9.86857 15.7503 9.8049L15.1883 9.2429ZM14.2456 8.30023L8.58829 2.6429L7.55029 3.68156L10.6956 6.8669C10.7639 6.92753 10.819 7.00154 10.8575 7.08434C10.896 7.16713 10.917 7.25696 10.9194 7.34823C10.9217 7.43951 10.9053 7.53029 10.8711 7.61496C10.8369 7.69962 10.7857 7.77637 10.7206 7.84042C10.6556 7.90448 10.578 7.95449 10.4929 7.98735C10.4077 8.02021 10.3166 8.03522 10.2254 8.03146C10.1342 8.02769 10.0447 8.00522 9.96252 7.96545C9.88033 7.92567 9.80719 7.86944 9.74763 7.80023L6.60829 4.62356L2.80829 8.42356C2.62254 8.60929 2.47519 8.82978 2.37466 9.07245C2.27413 9.31513 2.22239 9.57523 2.22239 9.8379C2.22239 10.1006 2.27413 10.3607 2.37466 10.6033C2.47519 10.846 2.62254 11.0665 2.80829 11.2522L5.63629 14.0809C6.01181 14.4552 6.52041 14.6654 7.05063 14.6654C7.58085 14.6654 8.08945 14.4552 8.46496 14.0809L14.2456 8.30023Z" fill="black"/>
</g>
<defs>
<clipPath id="clip0_482_18085">
<rect width="16" height="16" fill="white" transform="translate(0.888672)"/>
</clipPath>
</defs>
</svg>
