<svg width="17" height="16" viewBox="0 0 17 16" fill="none" xmlns="http://www.w3.org/2000/svg">
<g clip-path="url(#clip0_483_13900)">
<path d="M5.11497 15.9998C3.90814 15.999 2.74231 15.5618 1.83261 14.7687C0.922907 13.9757 0.33073 12.8804 0.165347 11.685C-3.50177e-05 10.4895 0.272539 9.27459 0.932773 8.26437C1.59301 7.25415 2.59634 6.51682 3.75764 6.18844C4.60172 5.94672 5.49517 5.93567 6.34497 6.15643L11.617 0.885768C11.8968 0.603957 12.2299 0.380525 12.5968 0.228433C12.9637 0.0763403 13.3571 -0.00138401 13.7543 -0.000231509C14.3793 0.000298112 14.9786 0.248829 15.4206 0.6908C15.8626 1.13277 16.1111 1.73206 16.1116 2.3571C16.1127 2.75429 16.035 3.14775 15.883 3.51473C15.731 3.8817 15.5078 4.21492 15.2263 4.4951L14.7783 4.9431C14.5276 5.19206 14.1889 5.33219 13.8356 5.3331H12.7783V5.99977C12.7783 6.35339 12.6378 6.69253 12.3878 6.94258C12.1377 7.19263 11.7986 7.3331 11.445 7.3331H10.7783V8.39044C10.7788 8.56559 10.7445 8.7391 10.6774 8.90092C10.6104 9.06273 10.5119 9.20963 10.3876 9.3331L9.95431 9.76643C10.1763 10.6158 10.1655 11.5093 9.92297 12.3531C9.65012 13.3144 9.09651 14.1724 8.33307 14.8172C7.56962 15.462 6.63108 15.8643 5.63764 15.9724C5.464 15.9905 5.28955 15.9996 5.11497 15.9998ZM5.11497 7.3331C4.4324 7.33244 3.7632 7.52232 3.1827 7.88136C2.60219 8.2404 2.13343 8.75435 1.82917 9.36536C1.52492 9.97636 1.39726 10.6602 1.46055 11.3398C1.52385 12.0194 1.7756 12.6679 2.18745 13.2122C2.59931 13.7565 3.15492 14.1751 3.79174 14.4207C4.42857 14.6664 5.12133 14.7294 5.79203 14.6027C6.46274 14.476 7.08476 14.1646 7.58809 13.7036C8.09141 13.2425 8.45606 12.6501 8.64097 11.9931C8.84897 11.2708 8.82566 10.5015 8.57431 9.7931C8.53329 9.6748 8.52641 9.54733 8.55447 9.4253C8.58253 9.30327 8.6444 9.19161 8.73297 9.1031L9.44497 8.39044V7.3331C9.44497 6.97948 9.58545 6.64034 9.8355 6.39029C10.0855 6.14024 10.4247 5.99977 10.7783 5.99977H11.445V5.3331C11.445 4.97948 11.5854 4.64034 11.8355 4.39029C12.0855 4.14024 12.4247 3.99977 12.7783 3.99977H13.8356L14.2836 3.55177C14.4409 3.3952 14.5657 3.20901 14.6506 3.00395C14.7355 2.7989 14.7789 2.57904 14.7783 2.3571C14.7781 2.08569 14.6703 1.82543 14.4784 1.63345C14.2866 1.44147 14.0264 1.33345 13.755 1.3331C13.5329 1.33256 13.3129 1.37605 13.1077 1.46108C12.9025 1.5461 12.7163 1.67096 12.5596 1.82843L7.00564 7.38177C6.917 7.47036 6.80519 7.53217 6.68303 7.56011C6.56087 7.58806 6.43331 7.58101 6.31497 7.53977C5.92835 7.40364 5.52152 7.33377 5.11164 7.3331H5.11497ZM3.44497 11.9998C3.44497 12.1316 3.48407 12.2605 3.55733 12.3701C3.63058 12.4798 3.7347 12.5652 3.85652 12.6157C3.97833 12.6661 4.11238 12.6793 4.2417 12.6536C4.37102 12.6279 4.48981 12.5644 4.58304 12.4712C4.67628 12.3779 4.73977 12.2591 4.7655 12.1298C4.79122 12.0005 4.77802 11.8665 4.72756 11.7446C4.6771 11.6228 4.59165 11.5187 4.48202 11.4455C4.37239 11.3722 4.24349 11.3331 4.11164 11.3331C3.93483 11.3331 3.76526 11.4033 3.64023 11.5284C3.51521 11.6534 3.44497 11.823 3.44497 11.9998Z" fill="black"/>
</g>
<defs>
<clipPath id="clip0_483_13900">
<rect width="16" height="16" fill="white" transform="translate(0.111328)"/>
</clipPath>
</defs>
</svg>
