<svg width="16" height="16" viewBox="0 0 16 16" fill="none" xmlns="http://www.w3.org/2000/svg">
<path d="M13.9998 8.28245V7.33312C13.9998 5.74182 13.3677 4.2157 12.2424 3.09048C11.1172 1.96526 9.5911 1.33312 7.9998 1.33312C6.40851 1.33312 4.88238 1.96526 3.75716 3.09048C2.63195 4.2157 1.9998 5.74182 1.9998 7.33312V8.28245C1.30058 8.59034 0.728338 9.12909 0.378885 9.8085C0.0294327 10.4879 -0.0760217 11.2667 0.080176 12.0146C0.236374 12.7625 0.644743 13.434 1.23692 13.9168C1.82909 14.3995 2.56913 14.6642 3.33314 14.6665C3.68676 14.6665 4.0259 14.526 4.27595 14.2759C4.526 14.0259 4.66647 13.6867 4.66647 13.3331V9.33312C4.66647 8.9795 4.526 8.64036 4.27595 8.39031C4.0259 8.14026 3.68676 7.99979 3.33314 7.99979V7.33312C3.33314 6.09545 3.8248 4.90846 4.69997 4.03329C5.57514 3.15812 6.76213 2.66646 7.9998 2.66646C9.23748 2.66646 10.4245 3.15812 11.2996 4.03329C12.1748 4.90846 12.6665 6.09545 12.6665 7.33312V7.99979C12.3128 7.99979 11.9737 8.14026 11.7237 8.39031C11.4736 8.64036 11.3331 8.9795 11.3331 9.33312V13.3331C11.3331 13.6867 11.4736 14.0259 11.7237 14.2759C11.9737 14.526 12.3128 14.6665 12.6665 14.6665C13.4305 14.6642 14.1705 14.3995 14.7627 13.9168C15.3549 13.434 15.7632 12.7625 15.9194 12.0146C16.0756 11.2667 15.9702 10.4879 15.6207 9.8085C15.2713 9.12909 14.699 8.59034 13.9998 8.28245ZM3.33314 13.3331C2.8027 13.3331 2.294 13.1224 1.91892 12.7473C1.54385 12.3723 1.33314 11.8636 1.33314 11.3331C1.33314 10.8027 1.54385 10.294 1.91892 9.91891C2.294 9.54384 2.8027 9.33312 3.33314 9.33312V13.3331ZM12.6665 13.3331V9.33312C13.1969 9.33312 13.7056 9.54384 14.0807 9.91891C14.4558 10.294 14.6665 10.8027 14.6665 11.3331C14.6665 11.8636 14.4558 12.3723 14.0807 12.7473C13.7056 13.1224 13.1969 13.3331 12.6665 13.3331Z" fill="black"/>
</svg>
