<svg width="17" height="16" viewBox="0 0 17 16" fill="none" xmlns="http://www.w3.org/2000/svg">
<g clip-path="url(#clip0_483_13658)">
<path d="M14.7773 10C14.2469 10 13.7382 10.2107 13.3631 10.5858C12.9881 10.9609 12.7773 11.4696 12.7773 12V14C12.7773 14.5304 12.9881 15.0391 13.3631 15.4142C13.7382 15.7893 14.2469 16 14.7773 16C15.3078 16 15.8165 15.7893 16.1916 15.4142C16.5666 15.0391 16.7773 14.5304 16.7773 14V12C16.7773 11.4696 16.5666 10.9609 16.1916 10.5858C15.8165 10.2107 15.3078 10 14.7773 10ZM15.444 14C15.444 14.1768 15.3738 14.3464 15.2487 14.4714C15.1237 14.5964 14.9542 14.6667 14.7773 14.6667C14.6005 14.6667 14.431 14.5964 14.3059 14.4714C14.1809 14.3464 14.1107 14.1768 14.1107 14V12C14.1107 11.8232 14.1809 11.6536 14.3059 11.5286C14.431 11.4036 14.6005 11.3333 14.7773 11.3333C14.9542 11.3333 15.1237 11.4036 15.2487 11.5286C15.3738 11.6536 15.444 11.8232 15.444 12V14Z" fill="black"/>
<path d="M9.44434 8V4.66667C9.44434 4.48986 9.3741 4.32029 9.24907 4.19526C9.12405 4.07024 8.95448 4 8.77767 4C8.60086 4 8.43129 4.07024 8.30627 4.19526C8.18124 4.32029 8.111 4.48986 8.111 4.66667V7.33333H6.111C5.93419 7.33333 5.76462 7.40357 5.6396 7.5286C5.51457 7.65362 5.44434 7.82319 5.44434 8C5.44434 8.17681 5.51457 8.34638 5.6396 8.4714C5.76462 8.59643 5.93419 8.66667 6.111 8.66667H8.77767C8.95448 8.66667 9.12405 8.59643 9.24907 8.4714C9.3741 8.34638 9.44434 8.17681 9.44434 8Z" fill="black"/>
<path d="M16.1109 1.33351C15.9341 1.33351 15.7645 1.40375 15.6395 1.52877C15.5144 1.65379 15.4442 1.82336 15.4442 2.00017V3.58284C14.7496 2.53456 13.8176 1.66479 12.7239 1.04411C11.6302 0.423431 10.4056 0.0693245 9.14947 0.0105217C7.89331 -0.048281 6.64098 0.189877 5.49409 0.705671C4.3472 1.22147 3.33806 2.00037 2.54855 2.97918C1.75904 3.95799 1.21139 5.10913 0.950053 6.33922C0.688713 7.5693 0.721037 8.84366 1.0444 10.0589C1.36777 11.2742 1.97307 12.3961 2.81119 13.3336C3.64931 14.2711 4.69664 14.9979 5.8682 15.4548C5.94563 15.4847 6.02789 15.5001 6.11087 15.5002C6.26644 15.5004 6.4172 15.4462 6.53704 15.347C6.65687 15.2478 6.73824 15.1098 6.76704 14.9569C6.79585 14.8041 6.77027 14.6459 6.69476 14.5099C6.61924 14.3739 6.49853 14.2686 6.35354 14.2122C5.35889 13.8276 4.47102 13.21 3.76446 12.4112C3.0579 11.6124 2.55328 10.6558 2.29294 9.62164C2.03261 8.58748 2.02417 7.50596 2.26832 6.46787C2.51247 5.42977 3.0021 4.46539 3.6961 3.65569C4.3901 2.84599 5.26822 2.21459 6.25674 1.81449C7.24527 1.4144 8.31535 1.25728 9.37716 1.35634C10.439 1.4554 11.4615 1.80773 12.359 2.38377C13.2564 2.95981 14.0026 3.74274 14.5349 4.66684H12.7775C12.6007 4.66684 12.4312 4.73708 12.3061 4.8621C12.1811 4.98713 12.1109 5.1567 12.1109 5.33351C12.1109 5.51032 12.1811 5.67989 12.3061 5.80491C12.4312 5.92994 12.6007 6.00017 12.7775 6.00017H14.7775C15.308 6.00017 15.8167 5.78946 16.1918 5.41439C16.5668 5.03932 16.7775 4.53061 16.7775 4.00017V2.00017C16.7775 1.82336 16.7073 1.65379 16.5823 1.52877C16.4573 1.40375 16.2877 1.33351 16.1109 1.33351Z" fill="black"/>
<path d="M11.0329 10.0503C10.9111 9.99985 10.777 9.98665 10.6477 10.0124C10.5183 10.0382 10.3995 10.1017 10.3063 10.195L8.30628 12.195C8.18484 12.3207 8.11765 12.4891 8.11917 12.6639C8.12068 12.8387 8.1908 13.0059 8.3144 13.1295C8.43801 13.2531 8.60522 13.3233 8.78001 13.3248C8.95481 13.3263 9.12321 13.2591 9.24895 13.1377L10.1109 12.2757V15.333C10.1109 15.5098 10.1812 15.6794 10.3062 15.8044C10.4312 15.9294 10.6008 15.9997 10.7776 15.9997C10.9544 15.9997 11.124 15.9294 11.249 15.8044C11.374 15.6794 11.4443 15.5098 11.4443 15.333V10.6663C11.4443 10.5345 11.4053 10.4056 11.332 10.2959C11.2588 10.1863 11.1547 10.1008 11.0329 10.0503Z" fill="black"/>
</g>
<defs>
<clipPath id="clip0_483_13658">
<rect width="16" height="16" fill="white" transform="translate(0.777344)"/>
</clipPath>
</defs>
</svg>
