<svg width="17" height="16" viewBox="0 0 17 16" fill="none" xmlns="http://www.w3.org/2000/svg">
<g clip-path="url(#clip0_482_18010)">
<path d="M10.4308 4.68194V2.01527C10.4308 1.83846 10.501 1.66889 10.6261 1.54387C10.7511 1.41884 10.9207 1.34861 11.0975 1.34861C11.2743 1.34861 11.4438 1.41884 11.5689 1.54387C11.6939 1.66889 11.7641 1.83846 11.7641 2.01527V3.75594C12.1841 3.33327 14.8981 0.605272 15.2928 0.210606C15.3543 0.146932 15.4279 0.096144 15.5092 0.0612046C15.5905 0.0262653 15.678 0.00787446 15.7665 0.00710525C15.8551 0.00633604 15.9428 0.0232038 16.0248 0.0567244C16.1067 0.090245 16.1811 0.139747 16.2437 0.202342C16.3063 0.264937 16.3558 0.339372 16.3893 0.421303C16.4229 0.503234 16.4397 0.59102 16.439 0.67954C16.4382 0.768059 16.4198 0.855539 16.3849 0.936875C16.3499 1.01821 16.2991 1.09177 16.2355 1.15327C15.8408 1.54794 13.1408 4.26327 12.7235 4.68194H14.4308C14.6076 4.68194 14.7772 4.75218 14.9022 4.8772C15.0272 5.00223 15.0975 5.17179 15.0975 5.34861C15.0975 5.52542 15.0272 5.69499 14.9022 5.82001C14.7772 5.94503 14.6076 6.01527 14.4308 6.01527H11.7641C11.4105 6.01527 11.0714 5.8748 10.8213 5.62475C10.5713 5.3747 10.4308 5.03556 10.4308 4.68194ZM15.8275 11.1746C16.2138 11.562 16.4308 12.0868 16.4308 12.6339C16.4308 13.1811 16.2138 13.7059 15.8275 14.0933L15.2195 14.7933C9.7588 20.0186 -3.52654 6.73727 1.61947 1.25994L2.38613 0.593272C2.77389 0.217636 3.29395 0.00976479 3.8338 0.0146305C4.37365 0.0194963 4.88987 0.236708 5.2708 0.619272C5.29147 0.639272 6.52613 2.24461 6.52613 2.24461C6.89141 2.6303 7.09466 3.14152 7.09391 3.67274C7.09317 4.20395 6.88849 4.7146 6.52213 5.09927L5.75013 6.06994C6.17746 7.10796 6.80564 8.05133 7.59859 8.84589C8.39154 9.64044 9.33365 10.2705 10.3708 10.6999L11.3475 9.92327C11.7314 9.55594 12.242 9.35059 12.7733 9.34984C13.3047 9.3491 13.8159 9.55302 14.2008 9.91927C14.2008 9.91927 15.8068 11.1546 15.8275 11.1746ZM14.9108 12.1439C14.9108 12.1439 13.3155 10.9159 13.2948 10.8959C13.1575 10.7598 12.9719 10.6834 12.7785 10.6834C12.5851 10.6834 12.3995 10.7598 12.2621 10.8959C12.2441 10.9133 10.8995 11.9853 10.8995 11.9853C10.8089 12.0574 10.701 12.1047 10.5866 12.1224C10.4721 12.1402 10.355 12.1279 10.2468 12.0866C8.90241 11.5864 7.68128 10.803 6.66619 9.78956C5.6511 8.77608 4.86578 7.5562 4.36347 6.21261C4.31893 6.10291 4.30441 5.98333 4.3214 5.86616C4.33839 5.749 4.38627 5.63847 4.46013 5.54594C4.46013 5.54594 5.53213 4.20327 5.55013 4.18594C5.68631 4.0486 5.76272 3.86302 5.76272 3.66961C5.76272 3.47619 5.68631 3.29062 5.55013 3.15327C5.53013 3.13327 4.30213 1.53661 4.30213 1.53661C4.16273 1.41161 3.9808 1.34467 3.79363 1.3495C3.60646 1.35434 3.42823 1.43058 3.29547 1.56261L2.5288 2.22927C-1.23254 6.75127 10.2821 17.6273 14.2441 13.8846L14.8521 13.1839C14.9955 13.0524 15.0818 12.8701 15.0928 12.6759C15.1037 12.4816 15.0384 12.2908 14.9108 12.1439Z" fill="black"/>
</g>
<defs>
<clipPath id="clip0_482_18010">
<rect width="16" height="16" fill="white" transform="translate(0.444336)"/>
</clipPath>
</defs>
</svg>
