<svg width="17" height="16" viewBox="0 0 17 16" fill="none" xmlns="http://www.w3.org/2000/svg">
<g clip-path="url(#clip0_483_13695)">
<path d="M8.31766 10C8.14085 10 7.97128 10.0702 7.84625 10.1953C7.72123 10.3203 7.65099 10.4899 7.65099 10.6667V12.6667C7.65099 13.1971 7.44028 13.7058 7.06521 14.0809C6.69013 14.456 6.18143 14.6667 5.65099 14.6667H4.00033C3.46989 14.6667 2.96118 14.456 2.58611 14.0809C2.21104 13.7058 2.00033 13.1971 2.00033 12.6667V3.33333C2.00033 2.8029 2.21104 2.29419 2.58611 1.91912C2.96118 1.54405 3.46989 1.33333 4.00033 1.33333H5.65099C6.18143 1.33333 6.69013 1.54405 7.06521 1.91912C7.44028 2.29419 7.65099 2.8029 7.65099 3.33333V5.33333C7.65099 5.51014 7.72123 5.67971 7.84625 5.80474C7.97128 5.92976 8.14085 6 8.31766 6C8.49447 6 8.66404 5.92976 8.78906 5.80474C8.91409 5.67971 8.98433 5.51014 8.98433 5.33333V3.33333C8.98327 2.4496 8.63174 1.60237 8.00685 0.97748C7.38195 0.352588 6.53472 0.00105857 5.65099 0H4.00033C3.1166 0.00105857 2.26936 0.352588 1.64447 0.97748C1.01958 1.60237 0.668051 2.4496 0.666992 3.33333L0.666992 12.6667C0.668051 13.5504 1.01958 14.3976 1.64447 15.0225C2.26936 15.6474 3.1166 15.9989 4.00033 16H5.65099C6.53472 15.9989 7.38195 15.6474 8.00685 15.0225C8.63174 14.3976 8.98327 13.5504 8.98433 12.6667V10.6667C8.98433 10.4899 8.91409 10.3203 8.78906 10.1953C8.66404 10.0702 8.49447 10 8.31766 10Z" fill="black"/>
<path d="M15.9113 6.58605L12.854 3.52872C12.7925 3.46505 12.7189 3.41426 12.6376 3.37932C12.5563 3.34438 12.4688 3.32599 12.3803 3.32522C12.2917 3.32445 12.204 3.34132 12.122 3.37484C12.0401 3.40836 11.9657 3.45786 11.9031 3.52046C11.8405 3.58305 11.791 3.65749 11.7575 3.73942C11.7239 3.82135 11.7071 3.90914 11.7078 3.99766C11.7086 4.08617 11.727 4.17365 11.7619 4.25499C11.7969 4.33633 11.8477 4.40989 11.9113 4.47139L14.7527 7.31339L4.66667 7.33339C4.48986 7.33339 4.32029 7.40363 4.19526 7.52865C4.07024 7.65367 4 7.82324 4 8.00005C4 8.17687 4.07024 8.34643 4.19526 8.47146C4.32029 8.59648 4.48986 8.66672 4.66667 8.66672L14.792 8.64605L11.91 11.5287C11.8463 11.5902 11.7955 11.6638 11.7606 11.7451C11.7257 11.8265 11.7073 11.9139 11.7065 12.0025C11.7057 12.091 11.7226 12.1788 11.7561 12.2607C11.7896 12.3426 11.8391 12.4171 11.9017 12.4797C11.9643 12.5422 12.0388 12.5917 12.1207 12.6253C12.2026 12.6588 12.2904 12.6757 12.3789 12.6749C12.4675 12.6741 12.5549 12.6557 12.6363 12.6208C12.7176 12.5858 12.7912 12.5351 12.8527 12.4714L15.91 9.41405C16.2851 9.03918 16.496 8.53066 16.4962 8.00033C16.4965 7.47 16.2861 6.96129 15.9113 6.58605Z" fill="black"/>
</g>
<defs>
<clipPath id="clip0_483_13695">
<rect width="16" height="16" fill="white" transform="translate(0.666992)"/>
</clipPath>
</defs>
</svg>
