<svg width="16" height="16" viewBox="0 0 16 16" fill="none" xmlns="http://www.w3.org/2000/svg">
<g clip-path="url(#clip0_483_13709)">
<path d="M13.3333 7.33293H12.6667V3.33293C12.6667 2.62568 12.3857 1.94741 11.8856 1.44731C11.3855 0.947211 10.7072 0.66626 10 0.66626H2.66667C1.95942 0.66626 1.28115 0.947211 0.781049 1.44731C0.280952 1.94741 0 2.62568 0 3.33293L0 10.6663C0.0014304 11.0869 0.135701 11.4963 0.383645 11.8361C0.631589 12.1758 0.980533 12.4286 1.38067 12.5583C1.35049 12.7035 1.33463 12.8513 1.33333 12.9996C1.33333 13.6184 1.57917 14.2119 2.01675 14.6495C2.45434 15.0871 3.04783 15.3329 3.66667 15.3329C4.28551 15.3329 4.879 15.0871 5.31658 14.6495C5.75417 14.2119 6 13.6184 6 12.9996C5.99896 12.888 5.98982 12.7766 5.97267 12.6663H10.0273C10.0102 12.7766 10.001 12.888 10 12.9996C10 13.6184 10.2458 14.2119 10.6834 14.6495C11.121 15.0871 11.7145 15.3329 12.3333 15.3329C12.9522 15.3329 13.5457 15.0871 13.9832 14.6495C14.4208 14.2119 14.6667 13.6184 14.6667 12.9996C14.6654 12.8513 14.6495 12.7035 14.6193 12.5583C15.0195 12.4286 15.3684 12.1758 15.6164 11.8361C15.8643 11.4963 15.9986 11.0869 16 10.6663V9.99959C16 9.29235 15.719 8.61407 15.219 8.11398C14.7189 7.61388 14.0406 7.33293 13.3333 7.33293ZM1.33333 7.33293V4.66626H2.66667V7.33293H1.33333ZM4 4.66626H5.33333V7.33293H4V4.66626ZM6.66667 4.66626H8.66667V11.3329H6.66667V4.66626ZM10 4.66626H11.3333V7.33293H10V4.66626ZM2.66667 1.99959H10C10.3536 1.99959 10.6928 2.14007 10.9428 2.39012C11.1929 2.64017 11.3333 2.9793 11.3333 3.33293H1.33333C1.33333 2.9793 1.47381 2.64017 1.72386 2.39012C1.97391 2.14007 2.31304 1.99959 2.66667 1.99959ZM1.33333 8.66626H5.33333V11.3329H2C1.82319 11.3329 1.65362 11.2627 1.5286 11.1377C1.40357 11.0126 1.33333 10.8431 1.33333 10.6663V8.66626ZM4.66667 12.9996C4.66667 13.2648 4.56131 13.5192 4.37377 13.7067C4.18624 13.8942 3.93188 13.9996 3.66667 13.9996C3.40145 13.9996 3.1471 13.8942 2.95956 13.7067C2.77202 13.5192 2.66667 13.2648 2.66667 12.9996C2.66696 12.8856 2.68797 12.7727 2.72867 12.6663H4.60467C4.64537 12.7727 4.66638 12.8856 4.66667 12.9996ZM12.3333 13.9996C12.0681 13.9996 11.8138 13.8942 11.6262 13.7067C11.4387 13.5192 11.3333 13.2648 11.3333 12.9996C11.3336 12.8856 11.3546 12.7727 11.3953 12.6663H13.2713C13.312 12.7727 13.333 12.8856 13.3333 12.9996C13.3333 13.2648 13.228 13.5192 13.0404 13.7067C12.8529 13.8942 12.5985 13.9996 12.3333 13.9996ZM14.6667 10.6663C14.6667 10.8431 14.5964 11.0126 14.4714 11.1377C14.3464 11.2627 14.1768 11.3329 14 11.3329H10V8.66626H13.3333C13.687 8.66626 14.0261 8.80674 14.2761 9.05678C14.5262 9.30683 14.6667 9.64597 14.6667 9.99959V10.6663Z" fill="black"/>
</g>
<defs>
<clipPath id="clip0_483_13709">
<rect width="16" height="16" fill="white"/>
</clipPath>
</defs>
</svg>
