<svg width="17" height="16" viewBox="0 0 17 16" fill="none" xmlns="http://www.w3.org/2000/svg">
<g clip-path="url(#clip0_483_13840)">
<path d="M16.2227 8C16.2227 8.17681 16.1524 8.34638 16.0274 8.47141C15.9024 8.59643 15.7328 8.66667 15.556 8.66667C15.3792 8.66667 15.2096 8.59643 15.0846 8.47141C14.9596 8.34638 14.8893 8.17681 14.8893 8C14.8874 6.23249 14.1844 4.53792 12.9346 3.2881C11.6847 2.03828 9.99017 1.33527 8.22266 1.33333C8.04585 1.33333 7.87628 1.2631 7.75125 1.13807C7.62623 1.01305 7.55599 0.843478 7.55599 0.666667C7.55599 0.489856 7.62623 0.320286 7.75125 0.195262C7.87628 0.0702379 8.04585 0 8.22266 0C10.3437 0.00229405 12.3772 0.845885 13.877 2.34568C15.3768 3.84547 16.2204 5.87897 16.2227 8ZM10.8893 8.66667C11.0661 8.66667 11.2357 8.59643 11.3607 8.47141C11.4858 8.34638 11.556 8.17681 11.556 8C11.556 7.82319 11.4858 7.65362 11.3607 7.5286C11.2357 7.40357 11.0661 7.33333 10.8893 7.33333H9.37132C9.25513 7.13362 9.08904 6.96752 8.88932 6.85133V4.66667C8.88932 4.48986 8.81909 4.32029 8.69406 4.19526C8.56904 4.07024 8.39947 4 8.22266 4C8.04585 4 7.87628 4.07024 7.75125 4.19526C7.62623 4.32029 7.55599 4.48986 7.55599 4.66667V6.85133C7.37917 6.95314 7.22816 7.09429 7.11466 7.26384C7.00115 7.43339 6.9282 7.62679 6.90145 7.82906C6.8747 8.03134 6.89487 8.23705 6.9604 8.43028C7.02593 8.6235 7.13506 8.79905 7.27933 8.94333C7.4236 9.0876 7.59915 9.19673 7.79238 9.26226C7.9856 9.32778 8.19132 9.34795 8.39359 9.32121C8.59587 9.29445 8.78927 9.2215 8.95882 9.108C9.12837 8.99449 9.26951 8.84348 9.37132 8.66667H10.8893ZM1.44066 4.52267C1.3088 4.52267 1.17991 4.56177 1.07028 4.63502C0.960644 4.70827 0.875195 4.81239 0.824737 4.93421C0.774278 5.05603 0.761076 5.19007 0.7868 5.31939C0.812523 5.44871 0.876017 5.5675 0.969252 5.66074C1.06249 5.75397 1.18128 5.81747 1.3106 5.84319C1.43992 5.86891 1.57396 5.85571 1.69578 5.80525C1.8176 5.75479 1.92172 5.66935 1.99497 5.55971C2.06822 5.45008 2.10732 5.32119 2.10732 5.18933C2.10732 5.01252 2.03709 4.84295 1.91206 4.71793C1.78704 4.5929 1.61747 4.52267 1.44066 4.52267ZM1.55599 8C1.55599 7.86815 1.51689 7.73925 1.44364 7.62962C1.37038 7.51999 1.26626 7.43454 1.14445 7.38408C1.02263 7.33362 0.888584 7.32042 0.759263 7.34614C0.629942 7.37187 0.511154 7.43536 0.417919 7.5286C0.324684 7.62183 0.26119 7.74062 0.235466 7.86994C0.209743 7.99926 0.222945 8.13331 0.273404 8.25512C0.323862 8.37694 0.40931 8.48106 0.518943 8.55431C0.628576 8.62757 0.757469 8.66667 0.889323 8.66667C1.06613 8.66667 1.2357 8.59643 1.36073 8.47141C1.48575 8.34638 1.55599 8.17681 1.55599 8ZM8.22266 14.6667C8.0908 14.6667 7.96191 14.7058 7.85228 14.779C7.74264 14.8523 7.6572 14.9564 7.60674 15.0782C7.55628 15.2 7.54308 15.3341 7.5688 15.4634C7.59452 15.5927 7.65802 15.7115 7.75125 15.8047C7.84449 15.898 7.96328 15.9615 8.0926 15.9872C8.22192 16.0129 8.35596 15.9997 8.47778 15.9493C8.5996 15.8988 8.70372 15.8133 8.77697 15.7037C8.85022 15.5941 8.88932 15.4652 8.88932 15.3333C8.88932 15.1565 8.81909 14.987 8.69406 14.8619C8.56904 14.7369 8.39947 14.6667 8.22266 14.6667ZM3.03666 2.138C2.9048 2.138 2.77591 2.1771 2.66628 2.25035C2.55664 2.32361 2.4712 2.42773 2.42074 2.54954C2.37028 2.67136 2.35708 2.80541 2.3828 2.93473C2.40852 3.06405 2.47202 3.18284 2.56525 3.27607C2.65849 3.36931 2.77728 3.4328 2.9066 3.45852C3.03592 3.48425 3.16996 3.47104 3.29178 3.42059C3.4136 3.37013 3.51772 3.28468 3.59097 3.17505C3.66422 3.06541 3.70332 2.93652 3.70332 2.80467C3.70332 2.62786 3.63309 2.45829 3.50806 2.33326C3.38304 2.20824 3.21347 2.138 3.03666 2.138ZM5.40866 0.560667C5.2768 0.560667 5.14791 0.599766 5.03828 0.67302C4.92864 0.746275 4.8432 0.850394 4.79274 0.972211C4.74228 1.09403 4.72908 1.22807 4.7548 1.35739C4.78052 1.48671 4.84402 1.6055 4.93725 1.69874C5.03049 1.79197 5.14928 1.85547 5.2786 1.88119C5.40792 1.90691 5.54196 1.89371 5.66378 1.84325C5.7856 1.79279 5.88972 1.70735 5.96297 1.59771C6.03622 1.48808 6.07532 1.35919 6.07532 1.22733C6.07532 1.05052 6.00509 0.880953 5.88006 0.755929C5.75504 0.630905 5.58547 0.560667 5.40866 0.560667ZM1.44066 10.144C1.3088 10.144 1.17991 10.1831 1.07028 10.2564C0.960644 10.3296 0.875195 10.4337 0.824737 10.5555C0.774278 10.6774 0.761076 10.8114 0.7868 10.9407C0.812523 11.07 0.876017 11.1888 0.969252 11.2821C1.06249 11.3753 1.18128 11.4388 1.3106 11.4645C1.43992 11.4902 1.57396 11.477 1.69578 11.4266C1.8176 11.3761 1.92172 11.2907 1.99497 11.181C2.06822 11.0714 2.10732 10.9425 2.10732 10.8107C2.10732 10.6339 2.03709 10.4643 1.91206 10.3393C1.78704 10.2142 1.61747 10.144 1.44066 10.144ZM3.03666 12.5287C2.9048 12.5287 2.77591 12.5678 2.66628 12.641C2.55664 12.7143 2.4712 12.8184 2.42074 12.9402C2.37028 13.062 2.35708 13.1961 2.3828 13.3254C2.40852 13.4547 2.47202 13.5735 2.56525 13.6667C2.65849 13.76 2.77728 13.8235 2.9066 13.8492C3.03592 13.8749 3.16996 13.8617 3.29178 13.8113C3.4136 13.7608 3.51772 13.6753 3.59097 13.5657C3.66422 13.4561 3.70332 13.3272 3.70332 13.1953C3.70332 13.0185 3.63309 12.849 3.50806 12.7239C3.38304 12.5989 3.21347 12.5287 3.03666 12.5287ZM5.40866 14.106C5.2768 14.106 5.14791 14.1451 5.03828 14.2184C4.92864 14.2916 4.8432 14.3957 4.79274 14.5175C4.74228 14.6394 4.72908 14.7734 4.7548 14.9027C4.78052 15.032 4.84402 15.1508 4.93725 15.2441C5.03049 15.3373 5.14928 15.4008 5.2786 15.4265C5.40792 15.4522 5.54196 15.439 5.66378 15.3886C5.7856 15.3381 5.88972 15.2527 5.96297 15.143C6.03622 15.0334 6.07532 14.9045 6.07532 14.7727C6.07532 14.5959 6.00509 14.4263 5.88006 14.3013C5.75504 14.1762 5.58547 14.106 5.40866 14.106ZM15.0047 10.144C14.8728 10.144 14.7439 10.1831 14.6343 10.2564C14.5246 10.3296 14.4392 10.4337 14.3887 10.5555C14.3383 10.6774 14.3251 10.8114 14.3508 10.9407C14.3765 11.07 14.44 11.1888 14.5333 11.2821C14.6265 11.3753 14.7453 11.4388 14.8746 11.4645C15.0039 11.4902 15.138 11.477 15.2598 11.4266C15.3816 11.3761 15.4857 11.2907 15.559 11.181C15.6322 11.0714 15.6713 10.9425 15.6713 10.8107C15.6713 10.6339 15.6011 10.4643 15.4761 10.3393C15.351 10.2142 15.1815 10.144 15.0047 10.144ZM13.4087 12.5287C13.2768 12.5287 13.1479 12.5678 13.0383 12.641C12.9286 12.7143 12.8432 12.8184 12.7927 12.9402C12.7423 13.062 12.7291 13.1961 12.7548 13.3254C12.7805 13.4547 12.844 13.5735 12.9373 13.6667C13.0305 13.76 13.1493 13.8235 13.2786 13.8492C13.4079 13.8749 13.542 13.8617 13.6638 13.8113C13.7856 13.7608 13.8897 13.6753 13.963 13.5657C14.0362 13.4561 14.0753 13.3272 14.0753 13.1953C14.0753 13.0185 14.0051 12.849 13.8801 12.7239C13.755 12.5989 13.5855 12.5287 13.4087 12.5287ZM11.0367 14.106C10.9048 14.106 10.7759 14.1451 10.6663 14.2184C10.5566 14.2916 10.4712 14.3957 10.4207 14.5175C10.3703 14.6394 10.3571 14.7734 10.3828 14.9027C10.4085 15.032 10.472 15.1508 10.5653 15.2441C10.6585 15.3373 10.7773 15.4008 10.9066 15.4265C11.0359 15.4522 11.17 15.439 11.2918 15.3886C11.4136 15.3381 11.5177 15.2527 11.591 15.143C11.6642 15.0334 11.7033 14.9045 11.7033 14.7727C11.7033 14.5959 11.6331 14.4263 11.5081 14.3013C11.383 14.1762 11.2135 14.106 11.0367 14.106Z" fill="black"/>
</g>
<defs>
<clipPath id="clip0_483_13840">
<rect width="16" height="16" fill="white" transform="translate(0.222656)"/>
</clipPath>
</defs>
</svg>
