<svg width="17" height="16" viewBox="0 0 17 16" fill="none" xmlns="http://www.w3.org/2000/svg">
<g clip-path="url(#clip0_482_17967)">
<path d="M16.2228 15.3334C16.2228 15.5102 16.1525 15.6798 16.0275 15.8048C15.9025 15.9298 15.7329 16 15.5561 16H0.889421C0.71261 16 0.54304 15.9298 0.418016 15.8048C0.292992 15.6798 0.222754 15.5102 0.222754 15.3334C0.222754 15.1566 0.292992 14.987 0.418016 14.862C0.54304 14.7369 0.71261 14.6667 0.889421 14.6667H15.5561C15.7329 14.6667 15.9025 14.7369 16.0275 14.862C16.1525 14.987 16.2228 15.1566 16.2228 15.3334ZM0.416754 5.70137C0.273102 5.43492 0.20655 5.13371 0.224568 4.83154C0.242585 4.52937 0.344458 4.2382 0.518754 3.9907C0.803593 3.57278 1.18505 3.22974 1.63075 2.9907L6.63142 0.388037C7.12293 0.132457 7.66877 -0.000976563 8.22275 -0.000976562C8.77674 -0.000976563 9.32258 0.132457 9.81409 0.388037L14.8141 2.9927C15.2598 3.23174 15.6412 3.57478 15.9261 3.9927C16.1004 4.2402 16.2023 4.53137 16.2203 4.83354C16.2383 5.13571 16.1717 5.43692 16.0281 5.70337C15.8734 5.99592 15.6415 6.24044 15.3575 6.4103C15.0735 6.58015 14.7483 6.66884 14.4174 6.6667H14.2228V12H14.8894C15.0662 12 15.2358 12.0703 15.3608 12.1953C15.4859 12.3203 15.5561 12.4899 15.5561 12.6667C15.5561 12.8435 15.4859 13.0131 15.3608 13.1381C15.2358 13.2631 15.0662 13.3334 14.8894 13.3334H1.55609C1.37928 13.3334 1.20971 13.2631 1.08468 13.1381C0.959659 13.0131 0.889421 12.8435 0.889421 12.6667C0.889421 12.4899 0.959659 12.3203 1.08468 12.1953C1.20971 12.0703 1.37928 12 1.55609 12H2.22275V6.6667H2.02809C1.69686 6.66877 1.37142 6.57984 1.08728 6.40961C0.803135 6.23939 0.571193 5.9944 0.416754 5.70137ZM3.55609 12H5.55609V6.6667H3.55609V12ZM6.88942 6.6667V12H9.55609V6.6667H6.88942ZM12.8894 6.6667H10.8894V12H12.8894V6.6667ZM1.59809 5.08337C1.63992 5.16049 1.70216 5.22461 1.77801 5.26871C1.85385 5.3128 1.94037 5.33517 2.02809 5.33337H14.4174C14.5051 5.33517 14.5917 5.3128 14.6675 5.26871C14.7433 5.22461 14.8056 5.16049 14.8474 5.08337C14.8779 5.03241 14.8926 4.97359 14.8898 4.91429C14.8869 4.85498 14.8666 4.79784 14.8314 4.75004C14.6699 4.50998 14.4529 4.3124 14.1988 4.17404L9.19875 1.56937C8.89743 1.41299 8.56291 1.33135 8.22342 1.33135C7.88393 1.33135 7.54942 1.41299 7.24809 1.56937L2.24809 4.17404C1.99408 4.31284 1.77711 4.51061 1.61542 4.7507C1.58015 4.79831 1.55969 4.85526 1.55661 4.91442C1.55352 4.97359 1.56795 5.03236 1.59809 5.08337Z" fill="black"/>
</g>
<defs>
<clipPath id="clip0_482_17967">
<rect width="16" height="16" fill="white" transform="translate(0.222656)"/>
</clipPath>
</defs>
</svg>
