<svg width="17" height="16" viewBox="0 0 17 16" fill="none" xmlns="http://www.w3.org/2000/svg">
<g clip-path="url(#clip0_483_13781)">
<path d="M8.88868 16C7.30643 16 5.75971 15.5308 4.44411 14.6518C3.12852 13.7727 2.10314 12.5233 1.49764 11.0615C0.892138 9.59966 0.733711 7.99113 1.04239 6.43928C1.35107 4.88743 2.113 3.46197 3.23182 2.34315C4.35064 1.22433 5.77611 0.462403 7.32795 0.153721C8.8798 -0.15496 10.4883 0.00346629 11.9501 0.608967C13.412 1.21447 14.6614 2.23985 15.5404 3.55544C16.4195 4.87104 16.8887 6.41775 16.8887 8C16.8864 10.121 16.0428 12.1545 14.543 13.6543C13.0432 15.1541 11.0097 15.9977 8.88868 16ZM8.88868 1.33334C7.57013 1.33334 6.2812 1.72433 5.18487 2.45687C4.08855 3.18942 3.23406 4.23061 2.72948 5.44878C2.22489 6.66695 2.09287 8.0074 2.35011 9.30061C2.60734 10.5938 3.24228 11.7817 4.17463 12.714C5.10698 13.6464 6.29487 14.2813 7.58807 14.5386C8.88128 14.7958 10.2217 14.6638 11.4399 14.1592C12.6581 13.6546 13.6993 12.8001 14.4318 11.7038C15.1643 10.6075 15.5553 9.31855 15.5553 8C15.5534 6.23249 14.8504 4.53792 13.6006 3.2881C12.3508 2.03828 10.6562 1.33528 8.88868 1.33334ZM12.222 10.6667C12.222 10.4899 12.1518 10.3203 12.0267 10.1953C11.9017 10.0702 11.7322 10 11.5553 10H6.22201C6.0452 10 5.87563 10.0702 5.7506 10.1953C5.62558 10.3203 5.55534 10.4899 5.55534 10.6667C5.55534 10.8435 5.62558 11.0131 5.7506 11.1381C5.87563 11.2631 6.0452 11.3333 6.22201 11.3333H11.5553C11.7322 11.3333 11.9017 11.2631 12.0267 11.1381C12.1518 11.0131 12.222 10.8435 12.222 10.6667ZM4.88868 6.66667C4.88868 7.33334 5.48534 7.33334 6.22201 7.33334C6.95868 7.33334 7.55534 7.33334 7.55534 6.66667C7.55534 6.31305 7.41487 5.97391 7.16482 5.72386C6.91477 5.47381 6.57563 5.33334 6.22201 5.33334C5.86839 5.33334 5.52925 5.47381 5.2792 5.72386C5.02915 5.97391 4.88868 6.31305 4.88868 6.66667ZM10.222 6.66667C10.222 7.33334 10.8187 7.33334 11.5553 7.33334C12.292 7.33334 12.8887 7.33334 12.8887 6.66667C12.8887 6.31305 12.7482 5.97391 12.4982 5.72386C12.2481 5.47381 11.909 5.33334 11.5553 5.33334C11.2017 5.33334 10.8626 5.47381 10.6125 5.72386C10.3625 5.97391 10.222 6.31305 10.222 6.66667Z" fill="black"/>
</g>
<defs>
<clipPath id="clip0_483_13781">
<rect width="16" height="16" fill="white" transform="translate(0.888672)"/>
</clipPath>
</defs>
</svg>
