<svg width="17" height="16" viewBox="0 0 17 16" fill="none" xmlns="http://www.w3.org/2000/svg">
<g clip-path="url(#clip0_483_13865)">
<path d="M15.2224 10.1227V5.33333C15.2214 4.4496 14.8698 3.60237 14.2449 2.97747C13.6201 2.35258 12.7728 2.00105 11.8891 1.99999H5.22243C4.3387 2.00105 3.49146 2.35258 2.86657 2.97747C2.24168 3.60237 1.89015 4.4496 1.88909 5.33333V10.1227C1.44464 10.2792 1.06993 10.588 0.831333 10.9944C0.592737 11.4007 0.505651 11.8784 0.585501 12.3428C0.66535 12.8072 0.906981 13.2283 1.2676 13.5317C1.62821 13.835 2.08454 14.0009 2.55576 14H14.5558C15.027 14.0009 15.4833 13.835 15.8439 13.5317C16.2045 13.2283 16.4462 12.8072 16.526 12.3428C16.6059 11.8784 16.5188 11.4007 16.2802 10.9944C16.0416 10.588 15.6669 10.2792 15.2224 10.1227ZM5.22243 3.33333H11.8891C12.4195 3.33333 12.9282 3.54404 13.3033 3.91911C13.6784 4.29419 13.8891 4.80289 13.8891 5.33333V9.99999H11.1218C10.9279 9.99987 10.7363 10.042 10.5603 10.1236C10.3844 10.2051 10.2284 10.324 10.1031 10.472L9.93843 10.6667H7.17243L7.00843 10.472C6.88316 10.324 6.72713 10.2051 6.55119 10.1236C6.37526 10.042 6.18366 9.99987 5.98976 9.99999H3.22243V5.33333C3.22243 4.80289 3.43314 4.29419 3.80821 3.91911C4.18328 3.54404 4.69199 3.33333 5.22243 3.33333ZM14.5558 12.6667H2.55576C2.37895 12.6667 2.20938 12.5964 2.08435 12.4714C1.95933 12.3464 1.88909 12.1768 1.88909 12C1.88909 11.8232 1.95933 11.6536 2.08435 11.5286C2.20938 11.4036 2.37895 11.3333 2.55576 11.3333H5.99043L6.15443 11.528C6.27961 11.6759 6.43554 11.7948 6.61136 11.8763C6.78717 11.9578 6.97864 12 7.17243 12H9.93843C10.1323 12.0001 10.3239 11.958 10.4999 11.8764C10.6758 11.7949 10.8318 11.676 10.9571 11.528L11.1218 11.3333H14.5558C14.7326 11.3333 14.9021 11.4036 15.0272 11.5286C15.1522 11.6536 15.2224 11.8232 15.2224 12C15.2224 12.1768 15.1522 12.3464 15.0272 12.4714C14.9021 12.5964 14.7326 12.6667 14.5558 12.6667Z" fill="black"/>
</g>
<defs>
<clipPath id="clip0_483_13865">
<rect width="16" height="16" fill="white" transform="translate(0.555664)"/>
</clipPath>
</defs>
</svg>
