<svg width="17" height="16" viewBox="0 0 17 16" fill="none" xmlns="http://www.w3.org/2000/svg">
<g clip-path="url(#clip0_482_18073)">
<path d="M11.8887 9.33335C11.8887 9.51016 11.8184 9.67973 11.6934 9.80475C11.5684 9.92978 11.3988 10 11.222 10H5.88867C5.71186 10 5.54229 9.92978 5.41727 9.80475C5.29224 9.67973 5.22201 9.51016 5.22201 9.33335C5.22201 9.15654 5.29224 8.98697 5.41727 8.86194C5.54229 8.73692 5.71186 8.66668 5.88867 8.66668H11.222C11.3988 8.66668 11.5684 8.73692 11.6934 8.86194C11.8184 8.98697 11.8887 9.15654 11.8887 9.33335ZM9.22201 11.3333H5.88867C5.71186 11.3333 5.54229 11.4036 5.41727 11.5286C5.29224 11.6536 5.22201 11.8232 5.22201 12C5.22201 12.1768 5.29224 12.3464 5.41727 12.4714C5.54229 12.5964 5.71186 12.6667 5.88867 12.6667H9.22201C9.39882 12.6667 9.56839 12.5964 9.69341 12.4714C9.81843 12.3464 9.88867 12.1768 9.88867 12C9.88867 11.8232 9.81843 11.6536 9.69341 11.5286C9.56839 11.4036 9.39882 11.3333 9.22201 11.3333ZM15.222 6.99002V12.6667C15.2209 13.5504 14.8694 14.3976 14.2445 15.0225C13.6196 15.6474 12.7724 15.999 11.8887 16H5.22201C4.33828 15.999 3.49104 15.6474 2.86615 15.0225C2.24126 14.3976 1.88973 13.5504 1.88867 12.6667V3.33335C1.88973 2.44962 2.24126 1.60239 2.86615 0.977495C3.49104 0.352603 4.33828 0.00107394 5.22201 1.53658e-05H8.23201C8.84508 -0.00156258 9.45239 0.118407 10.0188 0.352988C10.5852 0.587569 11.0996 0.932107 11.532 1.36668L13.8547 3.69068C14.2895 4.12284 14.6342 4.63699 14.869 5.20333C15.1037 5.76968 15.2237 6.37696 15.222 6.99002ZM10.5893 2.30935C10.3795 2.10612 10.144 1.9313 9.88867 1.78935V4.66668C9.88867 4.84349 9.95891 5.01306 10.0839 5.13809C10.209 5.26311 10.3785 5.33335 10.5553 5.33335H13.4327C13.2906 5.07814 13.1156 4.84278 12.912 4.63335L10.5893 2.30935ZM13.8887 6.99002C13.8887 6.88002 13.8673 6.77468 13.8573 6.66668H10.5553C10.0249 6.66668 9.5162 6.45597 9.14112 6.0809C8.76605 5.70582 8.55534 5.19711 8.55534 4.66668V1.36468C8.44734 1.35468 8.34134 1.33335 8.23201 1.33335H5.22201C4.69157 1.33335 4.18286 1.54406 3.80779 1.91914C3.43272 2.29421 3.22201 2.80292 3.22201 3.33335V12.6667C3.22201 13.1971 3.43272 13.7058 3.80779 14.0809C4.18286 14.456 4.69157 14.6667 5.22201 14.6667H11.8887C12.4191 14.6667 12.9278 14.456 13.3029 14.0809C13.678 13.7058 13.8887 13.1971 13.8887 12.6667V6.99002Z" fill="black"/>
</g>
<defs>
<clipPath id="clip0_482_18073">
<rect width="16" height="16" fill="white" transform="translate(0.555664)"/>
</clipPath>
</defs>
</svg>
