<svg width="16" height="16" viewBox="0 0 16 16" fill="none" xmlns="http://www.w3.org/2000/svg">
<g clip-path="url(#clip0_483_13642)">
<path d="M11.3334 15.9999C10.4105 15.9999 9.50821 15.7262 8.74078 15.2135C7.97335 14.7007 7.37521 13.9719 7.022 13.1191C6.66879 12.2664 6.57638 11.3281 6.75644 10.4229C6.93651 9.51761 7.38096 8.68609 8.03361 8.03344C8.68625 7.3808 9.51777 6.93634 10.423 6.75628C11.3283 6.57621 12.2666 6.66863 13.1193 7.02184C13.972 7.37505 14.7009 7.97318 15.2136 8.74061C15.7264 9.50804 16.0001 10.4103 16.0001 11.3333C15.9987 12.5705 15.5066 13.7567 14.6317 14.6315C13.7568 15.5064 12.5707 15.9985 11.3334 15.9999ZM11.3334 7.99994C10.6742 7.99994 10.0297 8.19544 9.48154 8.56171C8.93338 8.92798 8.50613 9.44858 8.25384 10.0577C8.00155 10.6667 7.93554 11.337 8.06416 11.9836C8.19277 12.6302 8.51024 13.2241 8.97642 13.6903C9.44259 14.1565 10.0365 14.4739 10.6831 14.6026C11.3297 14.7312 12 14.6652 12.6091 14.4129C13.2181 14.1606 13.7387 13.7333 14.105 13.1852C14.4713 12.637 14.6668 11.9925 14.6668 11.3333C14.6657 10.4495 14.3142 9.60231 13.6893 8.97742C13.0644 8.35253 12.2172 8.001 11.3334 7.99994ZM12.4714 12.4713C12.5964 12.3463 12.6666 12.1767 12.6666 11.9999C12.6666 11.8232 12.5964 11.6536 12.4714 11.5286L12.0001 11.0573V9.99994C12.0001 9.82313 11.9299 9.65356 11.8048 9.52854C11.6798 9.40351 11.5103 9.33327 11.3334 9.33327C11.1566 9.33327 10.9871 9.40351 10.862 9.52854C10.737 9.65356 10.6668 9.82313 10.6668 9.99994V11.3333C10.6668 11.5101 10.7371 11.6796 10.8621 11.8046L11.5288 12.4713C11.6538 12.5963 11.8233 12.6665 12.0001 12.6665C12.1769 12.6665 12.3464 12.5963 12.4714 12.4713ZM1.33344 15.3333C1.33512 14.1083 1.74323 12.9186 2.49377 11.9505C3.24432 10.9824 4.29488 10.2908 5.48077 9.98394C5.56622 9.96459 5.64702 9.9286 5.71856 9.87803C5.7901 9.82746 5.85097 9.76329 5.89771 9.68919C5.94445 9.61508 5.97614 9.5325 5.99096 9.44616C6.00578 9.35981 6.00346 9.27139 5.98411 9.18594C5.96476 9.10049 5.92877 9.0197 5.8782 8.94816C5.82762 8.87662 5.76345 8.81574 5.68935 8.769C5.61525 8.72226 5.53267 8.69058 5.44632 8.67575C5.35997 8.66093 5.27155 8.66326 5.18611 8.68261C3.70013 9.04723 2.38028 9.90174 1.43942 11.1083C0.49856 12.3149 -0.00846842 13.8032 0.000107016 15.3333C0.000107016 15.5101 0.0703449 15.6797 0.195369 15.8047C0.320393 15.9297 0.489963 15.9999 0.666774 15.9999C0.843585 15.9999 1.01315 15.9297 1.13818 15.8047C1.2632 15.6797 1.33344 15.5101 1.33344 15.3333ZM5.64944 7.33327C4.92424 7.33327 4.21533 7.11823 3.61235 6.71533C3.00937 6.31243 2.5394 5.73978 2.26188 5.06978C1.98436 4.39978 1.91175 3.66254 2.05323 2.95128C2.19471 2.24001 2.54392 1.58668 3.05672 1.07388C3.56951 0.56109 4.22285 0.211874 4.93411 0.0703946C5.64537 -0.0710846 6.38262 0.00152769 7.05261 0.279049C7.72261 0.55657 8.29526 1.02654 8.69816 1.62952C9.10106 2.2325 9.31611 2.94141 9.31611 3.66661C9.31505 4.63874 8.9284 5.57076 8.241 6.25816C7.55359 6.94557 6.62158 7.33222 5.64944 7.33327ZM5.64944 1.33327C5.18795 1.33327 4.73682 1.47012 4.35311 1.72651C3.9694 1.9829 3.67033 2.34732 3.49372 2.77368C3.31712 3.20004 3.27091 3.6692 3.36094 4.12182C3.45097 4.57444 3.6732 4.9902 3.99952 5.31652C4.32585 5.64285 4.74161 5.86507 5.19423 5.95511C5.64685 6.04514 6.11601 5.99893 6.54237 5.82233C6.96873 5.64572 7.33315 5.34665 7.58954 4.96294C7.84593 4.57922 7.98277 4.1281 7.98277 3.66661C7.98277 3.04777 7.73694 2.45428 7.29936 2.01669C6.86177 1.57911 6.26828 1.33327 5.64944 1.33327Z" fill="black"/>
</g>
<defs>
<clipPath id="clip0_483_13642">
<rect width="16" height="16" fill="white"/>
</clipPath>
</defs>
</svg>
