<svg width="17" height="16" viewBox="0 0 17 16" fill="none" xmlns="http://www.w3.org/2000/svg">
<g clip-path="url(#clip0_482_18002)">
<path d="M14.1106 8.00005C13.7016 7.99997 13.2981 8.09411 12.9314 8.27516C12.5647 8.45622 12.2446 8.71931 11.996 9.04405L11.9493 9.02405C12.1326 8.45606 12.1601 7.84926 12.0289 7.26702C11.8976 6.68479 11.6124 6.14847 11.2031 5.71409C10.7938 5.2797 10.2754 4.96319 9.70195 4.7976C9.12853 4.63201 8.52117 4.62341 7.94329 4.77272L7.88263 4.65805C8.36688 4.2272 8.67739 3.63454 8.75596 2.99115C8.83454 2.34775 8.67579 1.69778 8.30946 1.16305C7.94313 0.628324 7.39438 0.245537 6.76603 0.086432C6.13769 -0.0726733 5.47289 0.00282397 4.89622 0.298775C4.31955 0.594726 3.8706 1.09082 3.63351 1.69407C3.39642 2.29733 3.38745 2.96634 3.6083 3.57573C3.82915 4.18513 4.26464 4.69306 4.83318 5.00436C5.40171 5.31565 6.06425 5.40893 6.69663 5.26672L6.74529 5.35805C6.07866 5.8696 5.63022 6.61439 5.48999 7.4429C5.34977 8.2714 5.52814 9.12228 5.98929 9.82472L4.73263 11.0001C4.16461 10.6862 3.50164 10.5903 2.86796 10.7302C2.23427 10.8702 1.67337 11.2364 1.29036 11.7603C0.907346 12.2842 0.728509 12.9297 0.78736 13.576C0.846212 14.2223 1.13871 14.8249 1.61005 15.271C2.08139 15.717 2.69921 15.9759 3.34775 15.9991C3.99629 16.0223 4.63103 15.8082 5.13302 15.3969C5.63501 14.9857 5.96981 14.4055 6.07466 13.765C6.17952 13.1246 6.04725 12.4679 5.70263 11.9181L6.92796 10.7727C7.60095 11.2225 8.41479 11.4117 9.21718 11.3048C10.0196 11.198 10.7555 10.8023 11.2873 10.192L11.4733 10.2714C11.3926 10.8097 11.4786 11.3598 11.7197 11.8478C11.9607 12.3358 12.3454 12.7384 12.822 13.0014C13.2985 13.2644 13.8441 13.3753 14.3856 13.3192C14.927 13.263 15.4382 13.0425 15.8507 12.6873C16.2631 12.3321 16.557 11.8592 16.6928 11.3321C16.8286 10.805 16.7999 10.2489 16.6105 9.73865C16.421 9.22836 16.08 8.78826 15.6331 8.47747C15.1862 8.16668 14.6549 8.00008 14.1106 8.00005ZM4.77729 2.66672C4.77729 2.40301 4.85549 2.14522 5.002 1.92596C5.14851 1.70669 5.35675 1.53579 5.60038 1.43488C5.84402 1.33396 6.11211 1.30756 6.37075 1.359C6.62939 1.41045 6.86697 1.53744 7.05344 1.72391C7.23991 1.91038 7.3669 2.14796 7.41834 2.4066C7.46979 2.66524 7.44338 2.93333 7.34247 3.17696C7.24155 3.4206 7.07065 3.62883 6.85139 3.77534C6.63212 3.92185 6.37434 4.00005 6.11063 4.00005C5.75701 4.00005 5.41787 3.85957 5.16782 3.60953C4.91777 3.35948 4.77729 3.02034 4.77729 2.66672ZM3.44396 14.6667C3.18025 14.6667 2.92247 14.5885 2.7032 14.442C2.48394 14.2955 2.31304 14.0873 2.21212 13.8436C2.1112 13.6 2.0848 13.3319 2.13625 13.0733C2.18769 12.8146 2.31468 12.577 2.50115 12.3906C2.68762 12.2041 2.9252 12.0771 3.18384 12.0257C3.44248 11.9742 3.71057 12.0006 3.95421 12.1015C4.19784 12.2025 4.40608 12.3734 4.55259 12.5926C4.6991 12.8119 4.77729 13.0697 4.77729 13.3334C4.77729 13.687 4.63682 14.0261 4.38677 14.2762C4.13672 14.5262 3.79758 14.6667 3.44396 14.6667ZM8.7773 10.0001C8.34442 9.9992 7.92351 9.85794 7.57777 9.59747C7.23203 9.337 6.98013 8.97139 6.8599 8.55555C6.73967 8.1397 6.7576 7.69608 6.911 7.2913C7.0644 6.88652 7.34499 6.54243 7.71063 6.31072L7.98196 6.16605C8.2546 6.04746 8.55025 5.99114 8.8474 6.0012C9.14454 6.01126 9.43571 6.08744 9.6997 6.2242C9.96369 6.36096 10.1939 6.55486 10.3735 6.79178C10.5531 7.02871 10.6777 7.3027 10.738 7.59382C10.7984 7.88493 10.7932 8.18585 10.7226 8.47468C10.652 8.7635 10.518 9.03296 10.3302 9.26344C10.1424 9.49393 9.90552 9.67964 9.63689 9.80706C9.36827 9.93448 9.07461 10.0004 8.7773 10.0001ZM14.1106 12.0001C13.8469 12.0001 13.5891 11.9219 13.3699 11.7753C13.1506 11.6288 12.9797 11.4206 12.8788 11.177C12.7779 10.9333 12.7515 10.6652 12.8029 10.4066C12.8544 10.148 12.9813 9.91038 13.1678 9.72391C13.3543 9.53744 13.5919 9.41045 13.8505 9.359C14.1091 9.30756 14.3772 9.33396 14.6209 9.43488C14.8645 9.53579 15.0727 9.70669 15.2193 9.92596C15.3658 10.1452 15.444 10.403 15.444 10.6667C15.444 11.0203 15.3035 11.3595 15.0534 11.6095C14.8034 11.8596 14.4642 12.0001 14.1106 12.0001Z" fill="black"/>
</g>
<defs>
<clipPath id="clip0_482_18002">
<rect width="16" height="16" fill="white" transform="translate(0.777344)"/>
</clipPath>
</defs>
</svg>
