<svg width="17" height="16" viewBox="0 0 17 16" fill="none" xmlns="http://www.w3.org/2000/svg">
<g clip-path="url(#clip0_483_13887)">
<path d="M15.197 8.58333C15.0685 10.1032 14.4242 11.5335 13.371 12.6368C12.3178 13.7401 10.919 14.4502 9.40676 14.6493C7.89449 14.8483 6.35962 14.5244 5.0568 13.7311C3.75397 12.9379 2.7615 11.7231 2.24404 10.2882C1.72658 8.85338 1.71524 7.28474 2.2119 5.84255C2.70855 4.40037 3.68335 3.17133 4.97457 2.35934C6.26579 1.54735 7.79582 1.20123 9.3108 1.37839C10.8258 1.55555 12.2347 2.24534 13.3037 3.33333H11.2224C11.0456 3.33333 10.876 3.40357 10.751 3.5286C10.626 3.65362 10.5557 3.82319 10.5557 4C10.5557 4.17681 10.626 4.34638 10.751 4.4714C10.876 4.59643 11.0456 4.66667 11.2224 4.66667H13.9844C14.3127 4.66649 14.6275 4.536 14.8596 4.30387C15.0917 4.07174 15.2222 3.75695 15.2224 3.42867V0.666667C15.2224 0.489856 15.1521 0.320286 15.0271 0.195262C14.9021 0.0702379 14.7325 0 14.5557 0V0C14.3789 0 14.2093 0.0702379 14.0843 0.195262C13.9593 0.320286 13.889 0.489856 13.889 0.666667V2.052C12.5482 0.853819 10.8423 0.142989 9.04736 0.0344742C7.25241 -0.0740408 5.47334 0.426105 3.99788 1.45402C2.52242 2.48194 1.43684 3.97752 0.916719 5.69888C0.396599 7.42024 0.472352 9.26672 1.13172 10.9397C1.7911 12.6127 2.99553 14.0143 4.55024 14.9179C6.10494 15.8215 7.919 16.1742 9.69903 15.9191C11.4791 15.6639 13.121 14.8157 14.3592 13.5117C15.5974 12.2077 16.3596 10.5242 16.5224 8.73333C16.531 8.6405 16.5202 8.54688 16.4906 8.45846C16.461 8.37003 16.4134 8.28873 16.3507 8.21974C16.2879 8.15075 16.2115 8.09558 16.1263 8.05775C16.0411 8.01992 15.9489 8.00025 15.8557 8C15.6931 7.99804 15.5355 8.05669 15.4138 8.16452C15.292 8.27236 15.2148 8.42165 15.197 8.58333Z" fill="black"/>
</g>
<defs>
<clipPath id="clip0_483_13887">
<rect width="16" height="16" fill="white" transform="translate(0.555664)"/>
</clipPath>
</defs>
</svg>
