<svg width="17" height="16" viewBox="0 0 17 16" fill="none" xmlns="http://www.w3.org/2000/svg">
<g clip-path="url(#clip0_482_18013)">
<path d="M12.7739 1.52409C11.9602 0.797117 10.9637 0.305811 9.8915 0.103042C8.81934 -0.0997257 7.71219 -0.0062784 6.68919 0.373328C5.66618 0.752934 4.76606 1.40433 4.0857 2.2574C3.40534 3.11048 2.97049 4.13294 2.82795 5.21476C2.69993 6.16332 2.80231 7.12877 3.12643 8.02938C3.45054 8.93 3.98684 9.73929 4.68995 10.3888C5.12475 10.77 5.4756 11.2375 5.72027 11.7615C5.96494 12.2855 6.09809 12.8546 6.11128 13.4328V13.5401C6.11199 14.1923 6.37139 14.8176 6.83258 15.2788C7.29376 15.74 7.91906 15.9994 8.57128 16.0001H8.98461C9.63683 15.9994 10.2621 15.74 10.7233 15.2788C11.1845 14.8176 11.4439 14.1923 11.4446 13.5401V13.1741C11.4546 12.6631 11.5748 12.1602 11.7971 11.7C12.0194 11.2397 12.3385 10.8329 12.7326 10.5074C13.3717 9.94772 13.8845 9.25861 14.2371 8.48574C14.5898 7.71288 14.7741 6.8739 14.778 6.0244C14.782 5.1749 14.6053 4.33427 14.2598 3.55819C13.9143 2.78212 13.4078 2.08832 12.7739 1.52275V1.52409ZM8.98461 14.6668H8.57128C8.27258 14.6664 7.98621 14.5476 7.775 14.3364C7.56378 14.1252 7.44497 13.8388 7.44461 13.5401C7.44461 13.5401 7.43995 13.3668 7.43928 13.3334H10.1113V13.5401C10.1109 13.8388 9.99211 14.1252 9.7809 14.3364C9.56968 14.5476 9.28332 14.6664 8.98461 14.6668ZM11.8513 9.50609C11.0922 10.1644 10.5441 11.0319 10.2753 12.0001H9.44461V7.21076C9.83322 7.07337 10.1699 6.81927 10.4086 6.48322C10.6472 6.14717 10.7762 5.7456 10.7779 5.33342C10.7779 5.15661 10.7077 4.98704 10.5827 4.86202C10.4577 4.73699 10.2881 4.66676 10.1113 4.66676C9.93447 4.66676 9.7649 4.73699 9.63988 4.86202C9.51485 4.98704 9.44461 5.15661 9.44461 5.33342C9.44461 5.51023 9.37438 5.6798 9.24935 5.80483C9.12433 5.92985 8.95476 6.00009 8.77795 6.00009C8.60114 6.00009 8.43157 5.92985 8.30654 5.80483C8.18152 5.6798 8.11128 5.51023 8.11128 5.33342C8.11128 5.15661 8.04104 4.98704 7.91602 4.86202C7.79099 4.73699 7.62143 4.66676 7.44461 4.66676C7.2678 4.66676 7.09823 4.73699 6.97321 4.86202C6.84819 4.98704 6.77795 5.15661 6.77795 5.33342C6.77966 5.7456 6.90867 6.14717 7.14734 6.48322C7.38601 6.81927 7.72267 7.07337 8.11128 7.21076V12.0001H7.22995C6.92927 11.0062 6.36536 10.1122 5.59795 9.41276C4.94658 8.80582 4.48243 8.02522 4.26026 7.16308C4.03809 6.30094 4.06718 5.39323 4.34409 4.54708C4.621 3.70094 5.13417 2.95165 5.82306 2.38766C6.51194 1.82367 7.34778 1.46851 8.23195 1.36409C8.41524 1.34363 8.59952 1.33339 8.78395 1.33342C9.92899 1.33002 11.0344 1.7525 11.8853 2.51875C12.3784 2.95849 12.7724 3.49801 13.0412 4.10157C13.3101 4.70513 13.4475 5.35893 13.4445 6.01964C13.4414 6.68034 13.298 7.33286 13.0237 7.93393C12.7494 8.535 12.3504 9.07089 11.8533 9.50609H11.8513Z" fill="black"/>
</g>
<defs>
<clipPath id="clip0_482_18013">
<rect width="16" height="16" fill="white" transform="translate(0.777344)"/>
</clipPath>
</defs>
</svg>
