<svg width="17" height="16" viewBox="0 0 17 16" fill="none" xmlns="http://www.w3.org/2000/svg">
<g clip-path="url(#clip0_483_13790)">
<path d="M8.22233 4C7.69492 4 7.17934 4.1564 6.74081 4.44941C6.30228 4.74243 5.96049 5.15891 5.75865 5.64618C5.55682 6.13345 5.50401 6.66962 5.6069 7.18691C5.7098 7.70419 5.96377 8.17935 6.33671 8.55229C6.70965 8.92523 7.18481 9.1792 7.70209 9.28209C8.21937 9.38499 8.75555 9.33218 9.24282 9.13035C9.73009 8.92851 10.1466 8.58672 10.4396 8.14819C10.7326 7.70966 10.889 7.19408 10.889 6.66667C10.889 5.95942 10.608 5.28115 10.108 4.78105C9.60785 4.28095 8.92958 4 8.22233 4ZM8.22233 8C7.95862 8 7.70084 7.9218 7.48157 7.77529C7.26231 7.62878 7.09141 7.42055 6.99049 7.17691C6.88958 6.93328 6.86317 6.66519 6.91462 6.40655C6.96607 6.14791 7.09305 5.91033 7.27952 5.72386C7.46599 5.53739 7.70357 5.4104 7.96221 5.35895C8.22085 5.30751 8.48894 5.33391 8.73258 5.43483C8.97621 5.53574 9.18445 5.70664 9.33096 5.92591C9.47747 6.14517 9.55567 6.40296 9.55567 6.66667C9.55567 7.02029 9.41519 7.35943 9.16514 7.60948C8.91509 7.85952 8.57595 8 8.22233 8Z" fill="black"/>
<path d="M8.22286 16.0001C7.66149 16.003 7.1076 15.8713 6.60757 15.6161C6.10754 15.361 5.67593 14.9897 5.34886 14.5334C2.8082 11.0288 1.51953 8.39411 1.51953 6.70211C1.51953 4.92428 2.22577 3.21926 3.48289 1.96214C4.74001 0.705021 6.44503 -0.0012207 8.22286 -0.0012207C10.0007 -0.0012207 11.7057 0.705021 12.9628 1.96214C14.22 3.21926 14.9262 4.92428 14.9262 6.70211C14.9262 8.39411 13.6375 11.0288 11.0969 14.5334C10.7698 14.9897 10.3382 15.361 9.83815 15.6161C9.33812 15.8713 8.78424 16.003 8.22286 16.0001ZM8.22286 1.45411C6.83114 1.4557 5.49688 2.00926 4.51278 2.99336C3.52868 3.97746 2.97512 5.31172 2.97353 6.70345C2.97353 8.04345 4.23553 10.5214 6.5262 13.6808C6.72066 13.9486 6.97578 14.1666 7.27067 14.317C7.56557 14.4673 7.89187 14.5456 8.22286 14.5456C8.55386 14.5456 8.88016 14.4673 9.17506 14.317C9.46995 14.1666 9.72507 13.9486 9.91953 13.6808C12.2102 10.5214 13.4722 8.04345 13.4722 6.70345C13.4706 5.31172 12.917 3.97746 11.933 2.99336C10.9489 2.00926 9.61459 1.4557 8.22286 1.45411Z" fill="black"/>
</g>
<defs>
<clipPath id="clip0_483_13790">
<rect width="16" height="16" fill="white" transform="translate(0.222656)"/>
</clipPath>
</defs>
</svg>
