<svg width="17" height="16" viewBox="0 0 17 16" fill="none" xmlns="http://www.w3.org/2000/svg">
<g clip-path="url(#clip0_482_18037)">
<path d="M13.5553 0H4.22201C3.33828 0.00105857 2.49104 0.352588 1.86615 0.97748C1.24126 1.60237 0.88973 2.4496 0.888672 3.33333L0.888672 12.6667C0.88973 13.5504 1.24126 14.3976 1.86615 15.0225C2.49104 15.6474 3.33828 15.9989 4.22201 16H13.5553C14.4391 15.9989 15.2863 15.6474 15.9112 15.0225C16.5361 14.3976 16.8876 13.5504 16.8887 12.6667V3.33333C16.8876 2.4496 16.5361 1.60237 15.9112 0.97748C15.2863 0.352588 14.4391 0.00105857 13.5553 0V0ZM15.5553 3.33333H10.8887V1.33333H13.5553C14.0858 1.33333 14.5945 1.54405 14.9696 1.91912C15.3446 2.29419 15.5553 2.8029 15.5553 3.33333ZM8.22201 1.33333H9.55534V4.66667C9.55534 4.84348 9.4851 5.01305 9.36008 5.13807C9.23505 5.2631 9.06548 5.33333 8.88867 5.33333C8.71186 5.33333 8.54229 5.2631 8.41727 5.13807C8.29224 5.01305 8.22201 4.84348 8.22201 4.66667V1.33333ZM4.22201 1.33333H6.88867V3.33333H2.22201C2.22201 2.8029 2.43272 2.29419 2.80779 1.91912C3.18286 1.54405 3.69157 1.33333 4.22201 1.33333ZM13.5553 14.6667H4.22201C3.69157 14.6667 3.18286 14.456 2.80779 14.0809C2.43272 13.7058 2.22201 13.1971 2.22201 12.6667V4.66667H6.88867C6.88867 5.1971 7.09939 5.70581 7.47446 6.08088C7.84953 6.45595 8.35824 6.66667 8.88867 6.66667C9.41911 6.66667 9.92781 6.45595 10.3029 6.08088C10.678 5.70581 10.8887 5.1971 10.8887 4.66667H15.5553V12.6667C15.5553 13.1971 15.3446 13.7058 14.9696 14.0809C14.5945 14.456 14.0858 14.6667 13.5553 14.6667ZM14.222 12.6667C14.222 12.8435 14.1518 13.013 14.0267 13.1381C13.9017 13.2631 13.7322 13.3333 13.5553 13.3333H11.5553C11.3785 13.3333 11.209 13.2631 11.0839 13.1381C10.9589 13.013 10.8887 12.8435 10.8887 12.6667C10.8887 12.4899 10.9589 12.3203 11.0839 12.1953C11.209 12.0702 11.3785 12 11.5553 12H13.5553C13.7322 12 13.9017 12.0702 14.0267 12.1953C14.1518 12.3203 14.222 12.4899 14.222 12.6667Z" fill="black"/>
</g>
<defs>
<clipPath id="clip0_482_18037">
<rect width="16" height="16" fill="white" transform="translate(0.888672)"/>
</clipPath>
</defs>
</svg>
