<svg width="17" height="16" viewBox="0 0 17 16" fill="none" xmlns="http://www.w3.org/2000/svg">
<g clip-path="url(#clip0_483_13820)">
<path d="M14.3259 13.161C15.5503 11.7203 16.2226 9.89112 16.2226 8.00037C16.2226 6.10962 15.5503 4.28047 14.3259 2.8397L14.8993 2.26637C15.0243 2.14128 15.0945 1.97165 15.0944 1.7948C15.0944 1.61795 15.024 1.44838 14.8989 1.32337C14.7739 1.19836 14.6042 1.12817 14.4274 1.12823C14.2505 1.1283 14.081 1.19861 13.9559 1.3237L13.3826 1.89704C11.9418 0.672655 10.1127 0.000411987 8.22195 0.000411987C6.3312 0.000411987 4.50205 0.672655 3.06128 1.89704L2.48795 1.3237C2.36213 1.20235 2.19368 1.13527 2.01888 1.13691C1.84408 1.13855 1.67692 1.20878 1.5534 1.33248C1.42988 1.45617 1.35989 1.62343 1.35849 1.79823C1.3571 1.97303 1.42442 2.14139 1.54595 2.26704L2.11928 2.84037C0.894899 4.28114 0.222656 6.11029 0.222656 8.00104C0.222656 9.89178 0.894899 11.7209 2.11928 13.1617L1.54595 13.735C1.48232 13.7966 1.43158 13.8702 1.3967 13.9515C1.36182 14.0329 1.3435 14.1204 1.34279 14.2089C1.34208 14.2974 1.35901 14.3852 1.39259 14.4671C1.42617 14.549 1.47572 14.6234 1.53836 14.686C1.601 14.7485 1.67547 14.798 1.75742 14.8314C1.83938 14.8649 1.92718 14.8817 2.01569 14.8809C2.10421 14.88 2.19168 14.8616 2.27299 14.8266C2.3543 14.7916 2.42783 14.7408 2.48928 14.677L3.06261 14.1037C4.50338 15.3281 6.33254 16.0003 8.22328 16.0003C10.114 16.0003 11.9432 15.3281 13.3839 14.1037L13.9573 14.677C14.0831 14.7984 14.2516 14.8655 14.4263 14.8638C14.6011 14.8622 14.7683 14.792 14.8918 14.6683C15.0153 14.5446 15.0853 14.3773 15.0867 14.2025C15.0881 14.0277 15.0208 13.8594 14.8993 13.7337L14.3259 13.161ZM14.8893 8.00037C14.8905 9.53802 14.3574 11.0283 13.3813 12.2164L11.0006 9.8357C11.3627 9.2921 11.5559 8.65353 11.5559 8.00037C11.5559 7.34721 11.3627 6.70864 11.0006 6.16504L13.3813 3.78437C14.3574 4.97242 14.8905 6.46272 14.8893 8.00037ZM6.22261 8.00037C6.22261 7.60481 6.33991 7.21813 6.55968 6.88923C6.77944 6.56033 7.0918 6.30399 7.45725 6.15261C7.8227 6.00124 8.22483 5.96163 8.61279 6.0388C9.00076 6.11597 9.35712 6.30645 9.63683 6.58616C9.91653 6.86586 10.107 7.22223 10.1842 7.61019C10.2614 7.99815 10.2217 8.40028 10.0704 8.76574C9.919 9.13119 9.66265 9.44355 9.33376 9.66331C9.00486 9.88307 8.61818 10.0004 8.22261 10.0004C7.69218 10.0004 7.18347 9.78966 6.8084 9.41458C6.43333 9.03951 6.22261 8.5308 6.22261 8.00037ZM8.22261 1.3337C9.76026 1.33248 11.2506 1.86554 12.4386 2.8417L10.0579 5.22237C9.51434 4.86028 8.87578 4.66707 8.22261 4.66707C7.56945 4.66707 6.93089 4.86028 6.38728 5.22237L4.00661 2.8417C5.19466 1.86554 6.68497 1.33248 8.22261 1.3337ZM1.55595 8.00037C1.55472 6.46272 2.08778 4.97242 3.06395 3.78437L5.44461 6.16504C5.08252 6.70864 4.88932 7.34721 4.88932 8.00037C4.88932 8.65353 5.08252 9.2921 5.44461 9.8357L3.06395 12.2164C2.08778 11.0283 1.55472 9.53802 1.55595 8.00037ZM8.22261 14.667C6.68497 14.6683 5.19466 14.1352 4.00661 13.159L6.38728 10.7784C6.93089 11.1405 7.56945 11.3337 8.22261 11.3337C8.87578 11.3337 9.51434 11.1405 10.0579 10.7784L12.4386 13.159C11.2506 14.1352 9.76026 14.6683 8.22261 14.667Z" fill="black"/>
</g>
<defs>
<clipPath id="clip0_483_13820">
<rect width="16" height="16" fill="white" transform="translate(0.222656)"/>
</clipPath>
</defs>
</svg>
