<svg width="16" height="16" viewBox="0 0 16 16" fill="none" xmlns="http://www.w3.org/2000/svg">
<path d="M8 12.2424C8.11867 12.2424 8.23467 12.2069 8.33334 12.1403C8.43201 12.0737 8.50892 11.979 8.55433 11.8683C8.59974 11.7575 8.61162 11.6357 8.58847 11.5181C8.56532 11.4005 8.50818 11.2926 8.42426 11.2078C8.34035 11.123 8.23344 11.0653 8.11705 11.0419C8.00067 11.0185 7.88003 11.0305 7.77039 11.0764C7.66075 11.1223 7.56705 11.2 7.50112 11.2996C7.43519 11.3993 7.4 11.5165 7.4 11.6363C7.4 11.7971 7.46321 11.9512 7.57574 12.0649C7.68826 12.1786 7.84087 12.2424 8 12.2424ZM11 12.2424C11.1187 12.2424 11.2347 12.2069 11.3333 12.1403C11.432 12.0737 11.5089 11.979 11.5543 11.8683C11.5997 11.7575 11.6116 11.6357 11.5885 11.5181C11.5653 11.4005 11.5082 11.2926 11.4243 11.2078C11.3404 11.123 11.2334 11.0653 11.1171 11.0419C11.0007 11.0185 10.88 11.0305 10.7704 11.0764C10.6608 11.1223 10.567 11.2 10.5011 11.2996C10.4352 11.3993 10.4 11.5165 10.4 11.6363C10.4 11.7971 10.4632 11.9512 10.5757 12.0649C10.6883 12.1786 10.8409 12.2424 11 12.2424ZM11 9.81816C11.1187 9.81816 11.2347 9.78262 11.3333 9.71602C11.432 9.64943 11.5089 9.55477 11.5543 9.44403C11.5997 9.33329 11.6116 9.21143 11.5885 9.09386C11.5653 8.9763 11.5082 8.86831 11.4243 8.78355C11.3404 8.69879 11.2334 8.64107 11.1171 8.61768C11.0007 8.5943 10.88 8.6063 10.7704 8.65217C10.6608 8.69804 10.567 8.77572 10.5011 8.87539C10.4352 8.97506 10.4 9.09223 10.4 9.2121C10.4 9.37284 10.4632 9.52699 10.5757 9.64065C10.6883 9.75431 10.8409 9.81816 11 9.81816ZM8 9.81816C8.11867 9.81816 8.23467 9.78262 8.33334 9.71602C8.43201 9.64943 8.50892 9.55477 8.55433 9.44403C8.59974 9.33329 8.61162 9.21143 8.58847 9.09386C8.56532 8.9763 8.50818 8.86831 8.42426 8.78355C8.34035 8.69879 8.23344 8.64107 8.11705 8.61768C8.00067 8.5943 7.88003 8.6063 7.77039 8.65217C7.66075 8.69804 7.56705 8.77572 7.50112 8.87539C7.43519 8.97506 7.4 9.09223 7.4 9.2121C7.4 9.37284 7.46321 9.52699 7.57574 9.64065C7.68826 9.75431 7.84087 9.81816 8 9.81816ZM12.2 2.54543H11.6V1.93937C11.6 1.77864 11.5368 1.62448 11.4243 1.51082C11.3117 1.39717 11.1591 1.33331 11 1.33331C10.8409 1.33331 10.6883 1.39717 10.5757 1.51082C10.4632 1.62448 10.4 1.77864 10.4 1.93937V2.54543H5.6V1.93937C5.6 1.77864 5.53679 1.62448 5.42426 1.51082C5.31174 1.39717 5.15913 1.33331 5 1.33331C4.84087 1.33331 4.68826 1.39717 4.57574 1.51082C4.46321 1.62448 4.4 1.77864 4.4 1.93937V2.54543H3.8C3.32261 2.54543 2.86477 2.73699 2.52721 3.07797C2.18964 3.41894 2 3.8814 2 4.36362V12.8485C2 13.3307 2.18964 13.7931 2.52721 14.1341C2.86477 14.4751 3.32261 14.6666 3.8 14.6666H12.2C12.6774 14.6666 13.1352 14.4751 13.4728 14.1341C13.8104 13.7931 14 13.3307 14 12.8485V4.36362C14 3.8814 13.8104 3.41894 13.4728 3.07797C13.1352 2.73699 12.6774 2.54543 12.2 2.54543ZM12.8 12.8485C12.8 13.0092 12.7368 13.1634 12.6243 13.277C12.5117 13.3907 12.3591 13.4545 12.2 13.4545H3.8C3.64087 13.4545 3.48826 13.3907 3.37574 13.277C3.26321 13.1634 3.2 13.0092 3.2 12.8485V7.39392H12.8V12.8485ZM12.8 6.1818H3.2V4.36362C3.2 4.20288 3.26321 4.04872 3.37574 3.93507C3.48826 3.82141 3.64087 3.75756 3.8 3.75756H4.4V4.36362C4.4 4.52435 4.46321 4.67851 4.57574 4.79217C4.68826 4.90582 4.84087 4.96968 5 4.96968C5.15913 4.96968 5.31174 4.90582 5.42426 4.79217C5.53679 4.67851 5.6 4.52435 5.6 4.36362V3.75756H10.4V4.36362C10.4 4.52435 10.4632 4.67851 10.5757 4.79217C10.6883 4.90582 10.8409 4.96968 11 4.96968C11.1591 4.96968 11.3117 4.90582 11.4243 4.79217C11.5368 4.67851 11.6 4.52435 11.6 4.36362V3.75756H12.2C12.3591 3.75756 12.5117 3.82141 12.6243 3.93507C12.7368 4.04872 12.8 4.20288 12.8 4.36362V6.1818ZM5 9.81816C5.11867 9.81816 5.23467 9.78262 5.33334 9.71602C5.43201 9.64943 5.50892 9.55477 5.55433 9.44403C5.59974 9.33329 5.61162 9.21143 5.58847 9.09386C5.56532 8.9763 5.50818 8.86831 5.42426 8.78355C5.34035 8.69879 5.23344 8.64107 5.11705 8.61768C5.00067 8.5943 4.88003 8.6063 4.77039 8.65217C4.66075 8.69804 4.56705 8.77572 4.50112 8.87539C4.43519 8.97506 4.4 9.09223 4.4 9.2121C4.4 9.37284 4.46321 9.52699 4.57574 9.64065C4.68826 9.75431 4.84087 9.81816 5 9.81816ZM5 12.2424C5.11867 12.2424 5.23467 12.2069 5.33334 12.1403C5.43201 12.0737 5.50892 11.979 5.55433 11.8683C5.59974 11.7575 5.61162 11.6357 5.58847 11.5181C5.56532 11.4005 5.50818 11.2926 5.42426 11.2078C5.34035 11.123 5.23344 11.0653 5.11705 11.0419C5.00067 11.0185 4.88003 11.0305 4.77039 11.0764C4.66075 11.1223 4.56705 11.2 4.50112 11.2996C4.43519 11.3993 4.4 11.5165 4.4 11.6363C4.4 11.7971 4.46321 11.9512 4.57574 12.0649C4.68826 12.1786 4.84087 12.2424 5 12.2424Z" fill="black"/>
</svg>
