<svg width="17" height="16" viewBox="0 0 17 16" fill="none" xmlns="http://www.w3.org/2000/svg">
<g clip-path="url(#clip0_483_13837)">
<path d="M5.44401 4.0002H16.1107C16.2875 4.0002 16.4571 3.92996 16.5821 3.80494C16.7071 3.67991 16.7773 3.51035 16.7773 3.33354C16.7773 3.15672 16.7071 2.98716 16.5821 2.86213C16.4571 2.73711 16.2875 2.66687 16.1107 2.66687H5.44401C5.2672 2.66687 5.09763 2.73711 4.97261 2.86213C4.84758 2.98716 4.77734 3.15672 4.77734 3.33354C4.77734 3.51035 4.84758 3.67991 4.97261 3.80494C5.09763 3.92996 5.2672 4.0002 5.44401 4.0002Z" fill="black"/>
<path d="M16.1107 7.33313H5.44401C5.2672 7.33313 5.09763 7.40337 4.97261 7.52839C4.84758 7.65342 4.77734 7.82299 4.77734 7.9998C4.77734 8.17661 4.84758 8.34618 4.97261 8.47121C5.09763 8.59623 5.2672 8.66647 5.44401 8.66647H16.1107C16.2875 8.66647 16.4571 8.59623 16.5821 8.47121C16.7071 8.34618 16.7773 8.17661 16.7773 7.9998C16.7773 7.82299 16.7071 7.65342 16.5821 7.52839C16.4571 7.40337 16.2875 7.33313 16.1107 7.33313Z" fill="black"/>
<path d="M16.1107 12H5.44401C5.2672 12 5.09763 12.0702 4.97261 12.1953C4.84758 12.3203 4.77734 12.4899 4.77734 12.6667C4.77734 12.8435 4.84758 13.0131 4.97261 13.1381C5.09763 13.2631 5.2672 13.3333 5.44401 13.3333H16.1107C16.2875 13.3333 16.4571 13.2631 16.5821 13.1381C16.7071 13.0131 16.7773 12.8435 16.7773 12.6667C16.7773 12.4899 16.7071 12.3203 16.5821 12.1953C16.4571 12.0702 16.2875 12 16.1107 12Z" fill="black"/>
<path d="M2.11068 4.66665C2.84706 4.66665 3.44401 4.0697 3.44401 3.33332C3.44401 2.59694 2.84706 1.99999 2.11068 1.99999C1.3743 1.99999 0.777344 2.59694 0.777344 3.33332C0.777344 4.0697 1.3743 4.66665 2.11068 4.66665Z" fill="black"/>
<path d="M2.11068 9.33353C2.84706 9.33353 3.44401 8.73658 3.44401 8.0002C3.44401 7.26382 2.84706 6.66687 2.11068 6.66687C1.3743 6.66687 0.777344 7.26382 0.777344 8.0002C0.777344 8.73658 1.3743 9.33353 2.11068 9.33353Z" fill="black"/>
<path d="M2.11068 13.9998C2.84706 13.9998 3.44401 13.4028 3.44401 12.6665C3.44401 11.9301 2.84706 11.3331 2.11068 11.3331C1.3743 11.3331 0.777344 11.9301 0.777344 12.6665C0.777344 13.4028 1.3743 13.9998 2.11068 13.9998Z" fill="black"/>
</g>
<defs>
<clipPath id="clip0_483_13837">
<rect width="16" height="16" fill="white" transform="translate(0.777344)"/>
</clipPath>
</defs>
</svg>
