<svg width="17" height="16" viewBox="0 0 17 16" fill="none" xmlns="http://www.w3.org/2000/svg">
<g clip-path="url(#clip0_483_13780)">
<path d="M1.44466 9.33353C2.18104 9.33353 2.77799 8.73658 2.77799 8.0002C2.77799 7.26382 2.18104 6.66687 1.44466 6.66687C0.708282 6.66687 0.111328 7.26382 0.111328 8.0002C0.111328 8.73658 0.708282 9.33353 1.44466 9.33353Z" fill="black"/>
<path d="M8.11165 9.33365C8.84803 9.33365 9.44498 8.7367 9.44498 8.00032C9.44498 7.26394 8.84803 6.66699 8.11165 6.66699C7.37527 6.66699 6.77832 7.26394 6.77832 8.00032C6.77832 8.7367 7.37527 9.33365 8.11165 9.33365Z" fill="black"/>
<path d="M14.7777 9.33365C15.5141 9.33365 16.111 8.7367 16.111 8.00032C16.111 7.26394 15.5141 6.66699 14.7777 6.66699C14.0413 6.66699 13.4443 7.26394 13.4443 8.00032C13.4443 8.7367 14.0413 9.33365 14.7777 9.33365Z" fill="black"/>
</g>
<defs>
<clipPath id="clip0_483_13780">
<rect width="16" height="16" fill="white" transform="translate(0.111328)"/>
</clipPath>
</defs>
</svg>
