<svg width="17" height="16" viewBox="0 0 17 16" fill="none" xmlns="http://www.w3.org/2000/svg">
<g clip-path="url(#clip0_483_13692)">
<path d="M13.8 9.818C14.3034 9.62073 14.738 9.28025 15.0499 8.83866C15.3619 8.39706 15.5376 7.87372 15.5553 7.33333C15.5553 5.58533 13.8887 4.43067 11.022 4.10067C11.3673 3.70289 11.5568 3.19343 11.5553 2.66667C11.5553 1.04667 9.98534 0 7.55534 0C5.12534 0 3.55534 1.04667 3.55534 2.66667C3.56021 3.08913 3.68088 3.50217 3.90423 3.86081C4.12757 4.21944 4.44501 4.50994 4.82201 4.70067C3.30467 5.368 2.88867 6.404 2.88867 7.33333C2.88525 7.83393 3.0228 8.32537 3.28559 8.75145C3.54838 9.17753 3.9258 9.52104 4.37467 9.74267C2.08401 10.2533 0.888672 11.238 0.888672 12.6667C0.888672 14.8473 3.65467 16 8.88867 16C14.1973 16 16.8887 14.8787 16.8887 12.6667C16.8887 11.2953 15.852 10.344 13.8 9.818ZM7.55534 1.33333C8.88267 1.33333 10.222 1.746 10.222 2.66667C10.222 3.58733 8.88267 4 7.55534 4C6.22801 4 4.88867 3.58733 4.88867 2.66667C4.88867 1.746 6.22801 1.33333 7.55534 1.33333ZM9.22201 5.33333C11.5287 5.33333 14.222 5.85733 14.222 7.33333C14.222 8.80933 11.5287 9.33333 9.22201 9.33333C7.71867 9.33333 4.22201 9.13867 4.22201 7.33333C4.22201 5.528 7.71867 5.33333 9.22201 5.33333ZM8.88867 14.6667C4.83867 14.6667 2.22201 13.8813 2.22201 12.6667C2.22201 11.452 4.83867 10.6667 8.88867 10.6667C13.0633 10.6667 15.5553 11.4147 15.5553 12.6667C15.5553 13.9187 13.0633 14.6667 8.88867 14.6667Z" fill="black"/>
</g>
<defs>
<clipPath id="clip0_483_13692">
<rect width="16" height="16" fill="white" transform="translate(0.888672)"/>
</clipPath>
</defs>
</svg>
