<svg width="17" height="16" viewBox="0 0 17 16" fill="none" xmlns="http://www.w3.org/2000/svg">
<g clip-path="url(#clip0_483_13647)">
<path d="M11.666 5.33392H4.99935V4.66725C4.99914 3.92818 5.24457 3.21001 5.69703 2.62563C6.14949 2.04125 6.78333 1.62382 7.4989 1.43895C8.21447 1.25409 8.97119 1.31228 9.65009 1.60437C10.329 1.89647 10.8916 2.4059 11.2493 3.05258C11.2919 3.12914 11.349 3.19658 11.4176 3.25105C11.4862 3.30552 11.5648 3.34594 11.649 3.37003C11.7332 3.39411 11.8213 3.40137 11.9083 3.3914C11.9953 3.38143 12.0795 3.35442 12.156 3.31192C12.2326 3.26941 12.3 3.21224 12.3545 3.14367C12.4089 3.07511 12.4494 2.99648 12.4735 2.91229C12.4975 2.8281 12.5048 2.73999 12.4948 2.65299C12.4849 2.56599 12.4579 2.48181 12.4153 2.40525C11.9142 1.50012 11.1265 0.787194 10.176 0.378524C9.22558 -0.0301467 8.16626 -0.111385 7.1646 0.147579C6.16293 0.406542 5.27573 0.991024 4.64243 1.80915C4.00914 2.62727 3.66567 3.63265 3.66602 4.66725V5.61658C3.07226 5.87572 2.56688 6.30226 2.21168 6.84406C1.85649 7.38585 1.66687 8.0194 1.66602 8.66725V12.6672C1.66707 13.551 2.0186 14.3982 2.6435 15.0231C3.26839 15.648 4.11562 15.9995 4.99935 16.0006H11.666C12.5497 15.9995 13.397 15.648 14.0219 15.0231C14.6468 14.3982 14.9983 13.551 14.9993 12.6672V8.66725C14.9983 7.78352 14.6468 6.93629 14.0219 6.3114C13.397 5.6865 12.5497 5.33497 11.666 5.33392ZM13.666 12.6672C13.666 13.1977 13.4553 13.7064 13.0802 14.0815C12.7052 14.4565 12.1964 14.6672 11.666 14.6672H4.99935C4.46892 14.6672 3.96021 14.4565 3.58514 14.0815C3.21006 13.7064 2.99935 13.1977 2.99935 12.6672V8.66725C2.99935 8.13682 3.21006 7.62811 3.58514 7.25303C3.96021 6.87796 4.46892 6.66725 4.99935 6.66725H11.666C12.1964 6.66725 12.7052 6.87796 13.0802 7.25303C13.4553 7.62811 13.666 8.13682 13.666 8.66725V12.6672Z" fill="black"/>
<path d="M8.33269 9.33374C8.15587 9.33374 7.9863 9.40398 7.86128 9.529C7.73625 9.65403 7.66602 9.82359 7.66602 10.0004V11.3337C7.66602 11.5105 7.73625 11.6801 7.86128 11.8051C7.9863 11.9302 8.15587 12.0004 8.33269 12.0004C8.5095 12.0004 8.67907 11.9302 8.80409 11.8051C8.92912 11.6801 8.99936 11.5105 8.99936 11.3337V10.0004C8.99936 9.82359 8.92912 9.65403 8.80409 9.529C8.67907 9.40398 8.5095 9.33374 8.33269 9.33374Z" fill="black"/>
</g>
<defs>
<clipPath id="clip0_483_13647">
<rect width="16" height="16" fill="white" transform="translate(0.333008)"/>
</clipPath>
</defs>
</svg>
