<svg width="16" height="16" viewBox="0 0 16 16" fill="none" xmlns="http://www.w3.org/2000/svg">
<g clip-path="url(#clip0_482_18057)">
<path d="M12.6667 0H3.33333C2.4496 0.00105857 1.60237 0.352588 0.97748 0.97748C0.352588 1.60237 0.00105857 2.4496 0 3.33333L0 12.6667C0.00105857 13.5504 0.352588 14.3976 0.97748 15.0225C1.60237 15.6474 2.4496 15.9989 3.33333 16H12.6667C13.5504 15.9989 14.3976 15.6474 15.0225 15.0225C15.6474 14.3976 15.9989 13.5504 16 12.6667V3.33333C15.9989 2.4496 15.6474 1.60237 15.0225 0.97748C14.3976 0.352588 13.5504 0.00105857 12.6667 0V0ZM13.3333 7.33333H14.6667V8.66667H13.3333V7.33333ZM13.3333 6V4.66667H14.6667V6H13.3333ZM12 7.33333H4V1.33333H12V7.33333ZM2.66667 8.66667H1.33333V7.33333H2.66667V8.66667ZM2.66667 6H1.33333V4.66667H2.66667V6ZM1.33333 10H2.66667V11.3333H1.33333V10ZM4 8.66667H12V14.6667H4V8.66667ZM13.3333 10H14.6667V11.3333H13.3333V10ZM14.6667 3.33333H13.3333V1.456C13.7219 1.59339 14.0586 1.84749 14.2973 2.18353C14.5359 2.51958 14.665 2.92116 14.6667 3.33333ZM2.66667 1.456V3.33333H1.33333C1.33504 2.92116 1.46406 2.51958 1.70273 2.18353C1.94139 1.84749 2.27806 1.59339 2.66667 1.456ZM1.33333 12.6667H2.66667V14.544C2.27806 14.4066 1.94139 14.1525 1.70273 13.8165C1.46406 13.4804 1.33504 13.0788 1.33333 12.6667ZM13.3333 14.544V12.6667H14.6667C14.665 13.0788 14.5359 13.4804 14.2973 13.8165C14.0586 14.1525 13.7219 14.4066 13.3333 14.544Z" fill="black"/>
</g>
<defs>
<clipPath id="clip0_482_18057">
<rect width="16" height="16" fill="white"/>
</clipPath>
</defs>
</svg>
