<svg width="17" height="16" viewBox="0 0 17 16" fill="none" xmlns="http://www.w3.org/2000/svg">
<g clip-path="url(#clip0_483_13671)">
<path d="M13.3337 0H4.00033C3.1166 0.00105857 2.26936 0.352588 1.64447 0.97748C1.01958 1.60237 0.668051 2.4496 0.666992 3.33333L0.666992 12.6667C0.668051 13.5504 1.01958 14.3976 1.64447 15.0225C2.26936 15.6474 3.1166 15.9989 4.00033 16H13.3337C14.2174 15.9989 15.0646 15.6474 15.6895 15.0225C16.3144 14.3976 16.6659 13.5504 16.667 12.6667V3.33333C16.6659 2.4496 16.3144 1.60237 15.6895 0.97748C15.0646 0.352588 14.2174 0.00105857 13.3337 0V0ZM15.3337 12.6667C15.3337 13.1971 15.1229 13.7058 14.7479 14.0809C14.3728 14.456 13.8641 14.6667 13.3337 14.6667H4.00033C3.46989 14.6667 2.96118 14.456 2.58611 14.0809C2.21104 13.7058 2.00033 13.1971 2.00033 12.6667V3.33333C2.00033 2.8029 2.21104 2.29419 2.58611 1.91912C2.96118 1.54405 3.46989 1.33333 4.00033 1.33333H13.3337C13.8641 1.33333 14.3728 1.54405 14.7479 1.91912C15.1229 2.29419 15.3337 2.8029 15.3337 3.33333V12.6667ZM12.667 6C12.667 6.17681 12.5968 6.34638 12.4717 6.4714C12.3467 6.59643 12.1771 6.66667 12.0003 6.66667C11.8235 6.66667 11.6539 6.59643 11.5289 6.4714C11.4039 6.34638 11.3337 6.17681 11.3337 6C11.3337 5.82319 11.2634 5.65362 11.1384 5.5286C11.0134 5.40357 10.8438 5.33333 10.667 5.33333H9.33366V10.6667H10.0003C10.1771 10.6667 10.3467 10.7369 10.4717 10.8619C10.5968 10.987 10.667 11.1565 10.667 11.3333C10.667 11.5101 10.5968 11.6797 10.4717 11.8047C10.3467 11.9298 10.1771 12 10.0003 12H7.33366C7.15685 12 6.98728 11.9298 6.86225 11.8047C6.73723 11.6797 6.66699 11.5101 6.66699 11.3333C6.66699 11.1565 6.73723 10.987 6.86225 10.8619C6.98728 10.7369 7.15685 10.6667 7.33366 10.6667H8.00033V5.33333H6.66699C6.49018 5.33333 6.32061 5.40357 6.19559 5.5286C6.07056 5.65362 6.00033 5.82319 6.00033 6C6.00033 6.17681 5.93009 6.34638 5.80506 6.4714C5.68004 6.59643 5.51047 6.66667 5.33366 6.66667C5.15685 6.66667 4.98728 6.59643 4.86225 6.4714C4.73723 6.34638 4.66699 6.17681 4.66699 6C4.66699 5.46957 4.87771 4.96086 5.25278 4.58579C5.62785 4.21071 6.13656 4 6.66699 4H10.667C11.1974 4 11.7061 4.21071 12.0812 4.58579C12.4563 4.96086 12.667 5.46957 12.667 6Z" fill="black"/>
</g>
<defs>
<clipPath id="clip0_483_13671">
<rect width="16" height="16" fill="white" transform="translate(0.666992)"/>
</clipPath>
</defs>
</svg>
