<svg width="17" height="16" viewBox="0 0 17 16" fill="none" xmlns="http://www.w3.org/2000/svg">
<g clip-path="url(#clip0_483_13742)">
<path d="M13.7553 1.31122L9.96466 0.147217C9.12795 -0.107609 8.22466 -0.0241207 7.44883 0.37975C6.673 0.783621 6.08651 1.47566 5.81533 2.30721L5.68999 2.66655H3.44466C2.56093 2.66761 1.7137 3.01913 1.08881 3.64403C0.463916 4.26892 0.112387 5.11615 0.111328 5.99988L0.111328 12.6665C0.112387 13.5503 0.463916 14.3975 1.08881 15.0224C1.7137 15.6473 2.56093 15.9988 3.44466 15.9999H7.44466C7.94968 15.9981 8.44762 15.881 8.90052 15.6576C9.35341 15.4341 9.7493 15.1102 10.058 14.7105C10.2101 14.7326 10.3636 14.7442 10.5173 14.7452C11.2332 14.7458 11.93 14.5147 12.5038 14.0866C13.0775 13.6585 13.4974 13.0563 13.7007 12.3699L15.978 5.43721C16.2213 4.59541 16.1248 3.69178 15.7092 2.92034C15.2936 2.1489 14.5921 1.57118 13.7553 1.31122ZM7.44466 14.6665H3.44466C2.91423 14.6665 2.40552 14.4558 2.03045 14.0807C1.65538 13.7057 1.44466 13.197 1.44466 12.6665V5.99988C1.44466 5.46944 1.65538 4.96074 2.03045 4.58566C2.40552 4.21059 2.91423 3.99988 3.44466 3.99988H7.44466C7.97509 3.99988 8.4838 4.21059 8.85888 4.58566C9.23395 4.96074 9.44466 5.46944 9.44466 5.99988V12.6665C9.44466 13.197 9.23395 13.7057 8.85888 14.0807C8.4838 14.4558 7.97509 14.6665 7.44466 14.6665ZM14.7027 5.04188L12.428 11.9752C12.315 12.3588 12.0893 12.6995 11.7802 12.9532C11.4711 13.2069 11.0929 13.3618 10.6947 13.3979C10.7494 13.1579 10.7773 12.9126 10.778 12.6665V5.99988C10.7769 5.11615 10.4254 4.26892 9.80052 3.64403C9.17562 3.01913 8.32839 2.66761 7.44466 2.66655H7.10666C7.27875 2.1816 7.63112 1.78164 8.09053 1.54982C8.54993 1.31801 9.08101 1.27219 9.57333 1.42188L13.364 2.58588C13.8633 2.73995 14.2826 3.08292 14.5327 3.5417C14.7828 4.00048 14.8437 4.53878 14.7027 5.04188ZM8.11133 8.66654C8.11133 9.63321 7.082 10.9272 6.302 11.5852C6.06234 11.788 5.75858 11.8992 5.44466 11.8992C5.13074 11.8992 4.82698 11.788 4.58733 11.5852C3.80733 10.9272 2.77799 9.63321 2.77799 8.66654C2.77799 8.31292 2.91847 7.97378 3.16852 7.72373C3.41857 7.47368 3.75771 7.33321 4.11133 7.33321C4.46495 7.33321 4.80409 7.47368 5.05414 7.72373C5.30419 7.97378 5.44466 8.31292 5.44466 8.66654C5.44466 8.31292 5.58514 7.97378 5.83519 7.72373C6.08523 7.47368 6.42437 7.33321 6.778 7.33321C7.13162 7.33321 7.47076 7.47368 7.7208 7.72373C7.97085 7.97378 8.11133 8.31292 8.11133 8.66654Z" fill="black"/>
</g>
<defs>
<clipPath id="clip0_483_13742">
<rect width="16" height="16" fill="white" transform="translate(0.111328)"/>
</clipPath>
</defs>
</svg>
