<svg width="17" height="16" viewBox="0 0 17 16" fill="none" xmlns="http://www.w3.org/2000/svg">
<g clip-path="url(#clip0_482_18093)">
<path d="M14.3514 2.81128L10.3334 0.491275C9.82637 0.199689 9.25168 0.0462341 8.66676 0.0462341C8.08184 0.0462341 7.50716 0.199689 7.0001 0.491275L2.9821 2.81128C2.47601 3.10455 2.05575 3.52549 1.76328 4.03204C1.47081 4.53859 1.31639 5.11302 1.31543 5.69794V10.3379C1.3164 10.9229 1.47083 11.4975 1.76329 12.0041C2.05575 12.5108 2.47601 12.9318 2.9821 13.2253L7.0001 15.5446C7.50709 15.8364 8.0818 15.99 8.66676 15.99C9.25172 15.99 9.82644 15.8364 10.3334 15.5446L14.3514 13.2253C14.8575 12.9318 15.2778 12.5108 15.5702 12.0041C15.8627 11.4975 16.0171 10.9229 16.0181 10.3379V5.69794C16.0171 5.11302 15.8627 4.53859 15.5702 4.03204C15.2778 3.52549 14.8575 3.10455 14.3514 2.81128ZM7.66676 1.64661C7.9708 1.47107 8.31569 1.37866 8.66676 1.37866C9.01784 1.37866 9.36273 1.47107 9.66676 1.64661L13.6848 3.96594C13.7866 4.03034 13.8824 4.10398 13.9708 4.18594L9.8421 6.56927C9.48466 6.77533 9.07934 6.88379 8.66676 6.88379C8.25419 6.88379 7.84887 6.77533 7.49143 6.56927L3.36276 4.18594C3.45114 4.10398 3.54688 4.03034 3.64876 3.96594L7.66676 1.64661ZM3.64876 12.0699C3.3449 11.8939 3.0926 11.6411 2.9171 11.3369C2.74161 11.0327 2.64908 10.6878 2.64876 10.3366V5.69794C2.65339 5.57784 2.66924 5.45843 2.6961 5.34128L6.82476 7.72461C7.18939 7.93202 7.58696 8.07522 8.0001 8.14794V14.5273C7.88494 14.492 7.77334 14.446 7.66676 14.3899L3.64876 12.0699ZM14.6848 10.3366C14.6845 10.6878 14.5919 11.0327 14.4164 11.3369C14.2409 11.6411 13.9886 11.8939 13.6848 12.0699L9.66676 14.3899C9.56019 14.446 9.44859 14.492 9.33343 14.5273V8.14794C9.74657 8.07522 10.1441 7.93202 10.5088 7.72461L14.6374 5.34128C14.6643 5.45843 14.6801 5.57784 14.6848 5.69794V10.3366Z" fill="black"/>
</g>
<defs>
<clipPath id="clip0_482_18093">
<rect width="16" height="16" fill="white" transform="translate(0.666992)"/>
</clipPath>
</defs>
</svg>
