<svg width="17" height="16" viewBox="0 0 17 16" fill="none" xmlns="http://www.w3.org/2000/svg">
<g clip-path="url(#clip0_483_13713)">
<path d="M16.3514 7.73348C15.9972 7.26044 15.4939 6.92059 14.9227 6.76881C15.2011 5.95961 15.4068 5.1272 15.5374 4.28148C15.5801 3.97406 15.5508 3.66093 15.4519 3.36674C15.353 3.07255 15.1872 2.80533 14.9674 2.58613C14.7477 2.36692 14.4801 2.20171 14.1857 2.1035C13.8913 2.00528 13.5781 1.97675 13.2707 2.02014C13.1867 2.03148 12.9374 2.06814 12.5967 2.13414C12.8077 1.66712 12.9076 1.15759 12.8887 0.645478C12.8859 0.55793 12.8659 0.471791 12.8298 0.39198C12.7937 0.312168 12.7423 0.240247 12.6784 0.180322C12.6145 0.120397 12.5394 0.0736425 12.4575 0.0427276C12.3755 0.0118127 12.2883 -0.002657 12.2007 0.000144531C12.1132 0.00294606 12.0271 0.022964 11.9472 0.0590554C11.8674 0.0951468 11.7955 0.146605 11.7356 0.210492C11.6757 0.274378 11.6289 0.349443 11.598 0.431398C11.5671 0.513354 11.5526 0.600597 11.5554 0.688145C11.5668 1.01019 11.5007 1.33026 11.3627 1.62148C11.2663 1.36125 11.1288 1.11816 10.9554 0.901478C10.6607 0.566076 10.2866 0.309912 9.86734 0.156413C9.44807 0.00291487 8.99701 -0.0430195 8.55541 0.0228112C8.07119 0.0616786 7.60836 0.238942 7.22207 0.533478C6.78537 0.20494 6.25705 0.0208313 5.71074 0.00681121C5.01753 -0.0603752 4.32594 0.149858 3.78741 0.591478C3.51396 0.834924 3.29318 1.13172 3.13864 1.46361C2.98409 1.79551 2.89905 2.15551 2.88874 2.52148C2.87044 3.10749 3.04106 3.68386 3.3754 4.16548C2.96867 4.51421 2.65294 4.95671 2.45549 5.45476C2.25803 5.95282 2.18478 6.49145 2.24207 7.02415C1.71484 7.31795 1.30397 7.78325 1.07768 8.34279C0.851388 8.90233 0.823297 9.52244 0.998071 10.1001C1.45474 11.6892 2.30472 13.1374 3.4694 14.3108C4.58674 15.4003 6.0875 16.007 7.64807 16.0001H10.1294C11.6898 16.0071 13.1904 15.4004 14.3074 14.3108C15.4725 13.1376 16.3228 11.6893 16.7794 10.1001C16.8984 9.69971 16.9217 9.27691 16.8474 8.86582C16.773 8.45474 16.6031 8.06687 16.3514 7.73348ZM13.4561 3.34015C13.5592 3.32622 13.6642 3.33634 13.7628 3.36971C13.8615 3.40308 13.951 3.4588 14.0245 3.53251C14.0981 3.60622 14.1535 3.69593 14.1866 3.79463C14.2198 3.89333 14.2296 3.99835 14.2154 4.10148C14.0756 4.97694 13.8489 5.83629 13.5387 6.66681H11.8314L12.6934 5.80481C12.8148 5.67908 12.882 5.51068 12.8805 5.33588C12.879 5.16108 12.8089 4.99387 12.6853 4.87027C12.5617 4.74666 12.3945 4.67655 12.2197 4.67503C12.0449 4.67351 11.8765 4.74071 11.7507 4.86215L9.94607 6.66681H8.91341C8.86471 6.31618 8.89815 5.95903 9.01106 5.62352C9.12398 5.28801 9.31329 4.98332 9.56407 4.73348C9.84874 4.44615 10.9401 3.66681 13.4561 3.34015ZM4.22207 2.56614C4.22608 2.38261 4.26746 2.20182 4.34368 2.03481C4.41991 1.8678 4.52938 1.71809 4.66541 1.59481C4.94045 1.39151 5.28215 1.2996 5.62207 1.33748C5.78626 1.33073 5.95002 1.35878 6.1026 1.41979C6.25518 1.4808 6.39314 1.57339 6.50741 1.69148C6.59736 1.79199 6.70751 1.87238 6.83066 1.92741C6.95381 1.98244 7.08719 2.01086 7.22207 2.01081C7.35664 2.01015 7.48957 1.9812 7.61223 1.92584C7.73489 1.87048 7.84454 1.78995 7.93407 1.68948C8.0335 1.5843 8.15282 1.49991 8.28511 1.4412C8.41741 1.38249 8.56004 1.35064 8.70474 1.34748C8.92511 1.30822 9.15177 1.32422 9.36444 1.39402C9.57711 1.46383 9.76916 1.58527 9.92341 1.74748C10.1258 2.00657 10.2314 2.32817 10.2221 2.65681C10.2221 2.70014 10.2221 2.79481 10.2221 2.79481C9.33707 3.11349 8.58107 3.71375 8.07007 4.50348C7.6491 4.00513 7.08899 3.64375 6.46143 3.4656C5.83387 3.28745 5.16742 3.30064 4.54741 3.50348C4.32617 3.24236 4.21018 2.90818 4.22207 2.56614ZM3.5554 6.66681C3.5554 6.13638 3.76612 5.62767 4.14119 5.2526C4.51626 4.87753 5.02497 4.66681 5.55541 4.66681C6.08584 4.66681 6.59455 4.87753 6.96962 5.2526C7.34469 5.62767 7.55541 6.13638 7.55541 6.66681H3.5554ZM15.4994 9.72615C15.1011 11.0976 14.368 12.3484 13.3661 13.3661C12.4998 14.2078 11.3372 14.675 10.1294 14.6668H7.64807C6.43993 14.6747 5.27705 14.2076 4.41007 13.3661C3.40813 12.3485 2.67502 11.0976 2.27674 9.72615C2.21697 9.5243 2.20538 9.31126 2.24289 9.10412C2.28041 8.89699 2.36598 8.70154 2.49274 8.53348C2.61573 8.36758 2.77597 8.23288 2.96055 8.14025C3.14513 8.04761 3.34888 7.99962 3.5554 8.00014H14.2221C14.4293 7.99899 14.6338 8.04668 14.8191 8.13934C15.0045 8.232 15.1653 8.36703 15.2887 8.53348C15.4146 8.70199 15.4992 8.89766 15.5358 9.10478C15.5724 9.3119 15.5599 9.52471 15.4994 9.72615Z" fill="black"/>
</g>
<defs>
<clipPath id="clip0_483_13713">
<rect width="16" height="16" fill="white" transform="translate(0.888672)"/>
</clipPath>
</defs>
</svg>
