<svg width="17" height="16" viewBox="0 0 17 16" fill="none" xmlns="http://www.w3.org/2000/svg">
<g clip-path="url(#clip0_483_13664)">
<path d="M15.5557 12.0004H13.5557V10.0004C13.5557 9.8236 13.4854 9.65403 13.3604 9.529C13.2354 9.40398 13.0658 9.33374 12.889 9.33374C12.7122 9.33374 12.5426 9.40398 12.4176 9.529C12.2926 9.65403 12.2223 9.8236 12.2223 10.0004V12.0004H10.2223C10.0455 12.0004 9.87595 12.0706 9.75093 12.1957C9.6259 12.3207 9.55566 12.4903 9.55566 12.6671C9.55566 12.8439 9.6259 13.0135 9.75093 13.1385C9.87595 13.2635 10.0455 13.3337 10.2223 13.3337H12.2223V15.3337C12.2223 15.5106 12.2926 15.6801 12.4176 15.8051C12.5426 15.9302 12.7122 16.0004 12.889 16.0004C13.0658 16.0004 13.2354 15.9302 13.3604 15.8051C13.4854 15.6801 13.5557 15.5106 13.5557 15.3337V13.3337H15.5557C15.7325 13.3337 15.902 13.2635 16.0271 13.1385C16.1521 13.0135 16.2223 12.8439 16.2223 12.6671C16.2223 12.4903 16.1521 12.3207 16.0271 12.1957C15.902 12.0706 15.7325 12.0004 15.5557 12.0004Z" fill="black"/>
<path d="M7.55604 4.66667V7.724L5.75138 9.52866C5.6877 9.59016 5.63691 9.66372 5.60198 9.74506C5.56704 9.82639 5.54865 9.91387 5.54788 10.0024C5.54711 10.0909 5.56398 10.1787 5.5975 10.2606C5.63102 10.3426 5.68052 10.417 5.74311 10.4796C5.80571 10.5422 5.88014 10.5917 5.96207 10.6252C6.044 10.6587 6.13179 10.6756 6.22031 10.6748C6.30883 10.6741 6.39631 10.6557 6.47764 10.6207C6.55898 10.5858 6.63254 10.535 6.69404 10.4713L8.69403 8.47133C8.81907 8.34633 8.88933 8.17679 8.88937 7.99999V4.66667C8.88937 4.48986 8.81913 4.32029 8.69411 4.19526C8.56908 4.07024 8.39951 4 8.2227 4C8.04589 4 7.87632 4.07024 7.7513 4.19526C7.62628 4.32029 7.55604 4.48986 7.55604 4.66667Z" fill="black"/>
<path d="M10.0408 14.4162C8.62309 14.8157 7.11291 14.7338 5.74676 14.1832C4.38061 13.6326 3.23565 12.6445 2.4912 11.3735C1.74675 10.1026 1.44485 8.62063 1.63279 7.15974C1.82072 5.69886 2.48788 4.34156 3.52977 3.30042C4.57167 2.25929 5.92945 1.59311 7.39047 1.40623C8.85149 1.21936 10.3332 1.52233 11.6036 2.2677C12.874 3.01308 13.8614 4.15875 14.4109 5.5253C14.9605 6.89185 15.0414 8.40209 14.6408 9.81949C14.6137 9.90471 14.604 9.9945 14.6123 10.0835C14.6206 10.1726 14.6467 10.259 14.6892 10.3378C14.7316 10.4165 14.7894 10.4859 14.8591 10.5418C14.9289 10.5977 15.0092 10.639 15.0953 10.6633C15.1814 10.6875 15.2715 10.6942 15.3602 10.6829C15.4489 10.6717 15.5344 10.6426 15.6117 10.5976C15.6889 10.5526 15.7564 10.4925 15.8099 10.4209C15.8635 10.3493 15.9021 10.2677 15.9234 10.1808C16.4044 8.47868 16.3071 6.66508 15.6469 5.02413C14.9867 3.38319 13.8007 2.00761 12.2749 1.11288C10.7491 0.218155 8.96964 -0.145166 7.21522 0.0798335C5.4608 0.304833 3.83057 1.10544 2.57992 2.35624C1.32928 3.60704 0.528864 5.23736 0.304076 6.99181C0.0792882 8.74626 0.442824 10.5257 1.33773 12.0514C2.23264 13.5771 3.60837 14.7628 5.24939 15.4229C6.89042 16.0829 8.70403 16.18 10.4061 15.6988C10.4922 15.6767 10.573 15.6376 10.6438 15.5837C10.7145 15.5299 10.7738 15.4625 10.8181 15.3854C10.8624 15.3084 10.8908 15.2232 10.9017 15.135C10.9127 15.0468 10.9058 14.9573 10.8816 14.8718C10.8575 14.7862 10.8164 14.7064 10.7609 14.637C10.7054 14.5675 10.6366 14.5099 10.5585 14.4674C10.4804 14.425 10.3946 14.3986 10.3062 14.3898C10.2177 14.381 10.1284 14.3899 10.0435 14.4162H10.0408Z" fill="black"/>
</g>
<defs>
<clipPath id="clip0_483_13664">
<rect width="16" height="16" fill="white" transform="translate(0.222656)"/>
</clipPath>
</defs>
</svg>
