<svg width="17" height="16" viewBox="0 0 17 16" fill="none" xmlns="http://www.w3.org/2000/svg">
<path d="M14.2 11.5332C14.186 11.5132 13.162 10.3232 13.162 10.3232C13.5341 10.0491 13.785 9.64099 13.8616 9.18527C13.9382 8.72954 13.8346 8.26188 13.5727 7.88115C13.556 7.85715 12.316 6.48715 12.316 6.48715C12.6262 6.33073 12.8791 6.0804 13.0387 5.77182C13.176 5.5075 13.2376 5.21043 13.2169 4.91331C13.1962 4.6162 13.094 4.33055 12.9214 4.08782C12.9074 4.06649 9.8127 0.563821 9.8127 0.563821C9.65037 0.393948 9.45529 0.258742 9.23924 0.166367C9.02319 0.0739926 8.79067 0.0263672 8.5557 0.0263672C8.32074 0.0263672 8.08821 0.0739926 7.87216 0.166367C7.65612 0.258742 7.46103 0.393948 7.2987 0.563821C7.2987 0.563821 4.20337 4.06649 4.18937 4.08649C4.01677 4.32922 3.9145 4.61486 3.8938 4.91198C3.87309 5.2091 3.93477 5.50617 4.07204 5.77049C4.23161 6.07906 4.48452 6.3294 4.7947 6.48582C4.7947 6.48582 3.55537 7.85582 3.53804 7.87982C3.2761 8.26054 3.1725 8.72821 3.24913 9.18394C3.32577 9.63966 3.57664 10.0477 3.9487 10.3218C3.9487 10.3218 2.9247 11.5118 2.9107 11.5332C2.70433 11.8332 2.58381 12.1839 2.56214 12.5475C2.54047 12.911 2.61847 13.2736 2.78772 13.596C2.95698 13.9185 3.21106 14.1886 3.52257 14.3772C3.83408 14.5659 4.19119 14.6659 4.55537 14.6665H7.8887V15.3332C7.8887 15.51 7.95894 15.6795 8.08396 15.8046C8.20899 15.9296 8.37856 15.9998 8.55537 15.9998C8.73218 15.9998 8.90175 15.9296 9.02677 15.8046C9.1518 15.6795 9.22203 15.51 9.22203 15.3332V14.6665H12.5554C12.9198 14.6664 13.2772 14.5667 13.5891 14.3783C13.901 14.1898 14.1555 13.9197 14.3251 13.5972C14.4946 13.2746 14.5729 12.9119 14.5513 12.5481C14.5297 12.1844 14.4092 11.8334 14.2027 11.5332H14.2ZM13.1434 12.9778C13.0877 13.0856 13.0033 13.1758 12.8995 13.2385C12.7958 13.3012 12.6766 13.334 12.5554 13.3332H4.55537C4.43635 13.3333 4.31947 13.3016 4.21684 13.2413C4.11421 13.1811 4.0296 13.0944 3.97177 12.9904C3.91394 12.8864 3.88501 12.7688 3.88799 12.6498C3.89097 12.5308 3.92574 12.4148 3.9887 12.3138L5.41203 10.6665H9.22203C9.39885 10.6665 9.56841 10.5962 9.69344 10.4712C9.81846 10.3462 9.8887 10.1766 9.8887 9.99982C9.8887 9.82301 9.81846 9.65344 9.69344 9.52842C9.56841 9.40339 9.39885 9.33315 9.22203 9.33315H5.00203C4.92401 9.33316 4.84735 9.31264 4.77977 9.27365C4.71218 9.23465 4.65605 9.17856 4.617 9.11101C4.57796 9.04345 4.55737 8.96681 4.55732 8.88879C4.55727 8.81076 4.57775 8.73409 4.6167 8.66649L6.43137 6.66649H8.55537C8.73218 6.66649 8.90175 6.59625 9.02677 6.47123C9.1518 6.3462 9.22203 6.17663 9.22203 5.99982C9.22203 5.82301 9.1518 5.65344 9.02677 5.52842C8.90175 5.40339 8.73218 5.33315 8.55537 5.33315H5.55537C5.49372 5.33534 5.43273 5.31995 5.37949 5.28879C5.32626 5.25763 5.28298 5.21198 5.2547 5.15715C5.23112 5.11425 5.21931 5.06587 5.22048 5.01692C5.22165 4.96798 5.23576 4.92021 5.26137 4.87849L8.29603 1.44582C8.32783 1.40855 8.36733 1.37861 8.41182 1.35809C8.4563 1.33756 8.50471 1.32693 8.5537 1.32693C8.60269 1.32693 8.6511 1.33756 8.69559 1.35809C8.74007 1.37861 8.77957 1.40855 8.81137 1.44582L11.8447 4.87782C11.8705 4.91946 11.8847 4.9672 11.886 5.01616C11.8873 5.06512 11.8756 5.11355 11.852 5.15649C11.8241 5.21081 11.7815 5.25618 11.7291 5.28743C11.6766 5.31867 11.6164 5.33451 11.5554 5.33315H10.9767C10.8484 5.33493 10.7233 5.37348 10.6162 5.44423C10.5091 5.51499 10.4246 5.61497 10.3727 5.73233C10.3207 5.84968 10.3036 5.97947 10.3232 6.10629C10.3428 6.23312 10.3984 6.35165 10.4834 6.44782L12.494 8.66649C12.533 8.73409 12.5535 8.81076 12.5534 8.88879C12.5534 8.96681 12.5328 9.04345 12.4937 9.11101C12.4547 9.17856 12.3986 9.23465 12.331 9.27365C12.2634 9.31264 12.1867 9.33316 12.1087 9.33315H12.004C11.8772 9.33509 11.7535 9.37292 11.6473 9.44224C11.5411 9.51157 11.4567 9.60957 11.4039 9.72489C11.3511 9.8402 11.332 9.96812 11.3489 10.0938C11.3658 10.2195 11.418 10.3379 11.4994 10.4352L13.1194 12.3138C13.1822 12.4121 13.2176 12.5253 13.2218 12.6419C13.226 12.7584 13.1989 12.874 13.1434 12.9765V12.9778Z" fill="black"/>
</svg>
