<svg width="17" height="16" viewBox="0 0 17 16" fill="none" xmlns="http://www.w3.org/2000/svg">
<g clip-path="url(#clip0_483_13688)">
<path d="M16.5578 5.86296C16.4214 5.42889 16.149 5.05024 15.7808 4.78298C15.4125 4.51573 14.9681 4.37407 14.5131 4.37896H11.6005L10.7158 1.62163C10.5767 1.1876 10.3033 0.808971 9.9351 0.540339C9.5669 0.271706 9.1229 0.126953 8.66712 0.126953C8.21134 0.126953 7.76734 0.271706 7.39914 0.540339C7.03094 0.808971 6.75757 1.1876 6.61845 1.62163L5.73379 4.37896H2.82112C2.36762 4.37961 1.92592 4.52355 1.55911 4.79023C1.1923 5.05691 0.919148 5.43269 0.778668 5.86389C0.638189 6.29509 0.637567 6.75965 0.776892 7.19122C0.916217 7.6228 1.18836 7.9993 1.55445 8.26696L3.92512 10.0003L3.02379 12.7916C2.87813 13.2246 2.87628 13.693 3.01853 14.127C3.16077 14.5611 3.43949 14.9375 3.81312 15.2003C4.18036 15.4715 4.62538 15.6168 5.08189 15.6145C5.5384 15.6122 5.98195 15.4625 6.34645 15.1876L8.66712 13.4796L10.9885 15.1856C11.355 15.4553 11.7977 15.6017 12.2527 15.6039C12.7078 15.6062 13.1518 15.464 13.521 15.198C13.8901 14.9319 14.1655 14.5557 14.3073 14.1233C14.4492 13.6909 14.4503 13.2247 14.3105 12.7916L13.4091 10.0003L15.7825 8.26696C16.1527 8.00266 16.4281 7.62616 16.5677 7.19319C16.7073 6.76022 16.7039 6.2938 16.5578 5.86296ZM14.9958 7.1903L12.2331 9.20963C12.1196 9.29241 12.0352 9.40891 11.9919 9.54252C11.9485 9.67612 11.9485 9.82 11.9918 9.95363L13.0418 13.2003C13.0949 13.365 13.0945 13.5422 13.0405 13.7066C12.9865 13.871 12.8818 14.0141 12.7414 14.1152C12.601 14.2163 12.4322 14.2704 12.2591 14.2695C12.0861 14.2686 11.9178 14.2129 11.7785 14.1103L9.06179 12.1103C8.94736 12.0262 8.8091 11.9809 8.66712 11.9809C8.52515 11.9809 8.38688 12.0262 8.27245 12.1103L5.55579 14.1103C5.41651 14.2142 5.24775 14.2711 5.07396 14.2727C4.90018 14.2743 4.73041 14.2205 4.58927 14.1191C4.44813 14.0177 4.34295 13.874 4.28899 13.7088C4.23502 13.5436 4.23506 13.3655 4.28912 13.2003L5.34245 9.95363C5.38573 9.82 5.3857 9.67612 5.34236 9.54252C5.29902 9.40891 5.21459 9.29241 5.10112 9.20963L2.33845 7.1903C2.19932 7.08843 2.09594 6.94519 2.04308 6.78106C1.99022 6.61692 1.99058 6.44028 2.04411 6.27636C2.09764 6.11244 2.2016 5.96963 2.34115 5.86833C2.48069 5.76703 2.64868 5.71242 2.82112 5.7123H6.22112C6.36226 5.71229 6.49977 5.66749 6.61382 5.58435C6.72787 5.5012 6.8126 5.384 6.85579 5.24963L7.88912 2.02896C7.94216 1.86415 8.04613 1.72042 8.18606 1.61846C8.32598 1.5165 8.49465 1.46157 8.66779 1.46157C8.84092 1.46157 9.00959 1.5165 9.14952 1.61846C9.28944 1.72042 9.39341 1.86415 9.44645 2.02896L10.4798 5.24963C10.523 5.384 10.6077 5.5012 10.7218 5.58435C10.8358 5.66749 10.9733 5.71229 11.1145 5.7123H14.5145C14.6869 5.71242 14.8549 5.76703 14.9944 5.86833C15.134 5.96963 15.2379 6.11244 15.2915 6.27636C15.345 6.44028 15.3454 6.61692 15.2925 6.78106C15.2396 6.94519 15.1363 7.08843 14.9971 7.1903H14.9958Z" fill="black"/>
</g>
<defs>
<clipPath id="clip0_483_13688">
<rect width="16" height="16" fill="white" transform="translate(0.666992)"/>
</clipPath>
</defs>
</svg>
