<svg width="16" height="16" viewBox="0 0 16 16" fill="none" xmlns="http://www.w3.org/2000/svg">
<g clip-path="url(#clip0_483_13637)">
<path d="M15.3336 13.9995H14.4809L13.6003 11.3668C13.4677 10.9692 13.2135 10.6232 12.8736 10.3779C12.5338 10.1325 12.1254 10.0002 11.7063 9.99947H9.3336C8.97997 9.99947 8.64083 9.859 8.39079 9.60895C8.14074 9.3589 8.00026 9.01976 8.00026 8.66614H12.0003C12.1771 8.66614 12.3466 8.5959 12.4717 8.47088C12.5967 8.34585 12.6669 8.17628 12.6669 7.99947C12.6669 7.82266 12.5967 7.65309 12.4717 7.52807C12.3466 7.40304 12.1771 7.3328 12.0003 7.3328H8.00026V5.3328C7.99625 5.30266 7.99024 5.27282 7.98226 5.24347C8.61337 5.0852 9.16483 4.70166 9.53281 4.16506C9.90079 3.62847 10.0599 2.97585 9.98016 2.3301C9.90042 1.68436 9.58735 1.09005 9.0999 0.659081C8.61244 0.228115 7.98424 -0.00976562 7.33359 -0.00976562C6.68295 -0.00976562 6.05475 0.228115 5.56729 0.659081C5.07984 1.09005 4.76676 1.68436 4.68703 2.3301C4.60729 2.97585 4.76639 3.62847 5.13438 4.16506C5.50236 4.70166 6.05382 5.0852 6.68493 5.24347C6.67695 5.27282 6.67094 5.30266 6.66693 5.3328V8.66614C6.66832 9.36218 6.94181 10.0301 7.42898 10.5272C7.91615 11.0244 8.57839 11.3113 9.27426 11.3268C9.15241 12.0554 8.83117 12.736 8.34615 13.2933C7.86113 13.8505 7.23129 14.2625 6.52643 14.4836C5.82158 14.7047 5.06926 14.7264 4.35287 14.5461C3.63648 14.3658 2.984 13.9906 2.46778 13.4622C1.95156 12.9338 1.59175 12.2727 1.42825 11.5523C1.26475 10.8319 1.30394 10.0803 1.54148 9.38081C1.77902 8.68132 2.20563 8.06126 2.77401 7.5894C3.34239 7.11752 4.03034 6.81227 4.76159 6.70747C4.93673 6.68236 5.09471 6.58871 5.20079 6.44712C5.30688 6.30553 5.35237 6.1276 5.32726 5.95247C5.30215 5.77734 5.2085 5.61936 5.06691 5.51327C4.92532 5.40719 4.74739 5.3617 4.57226 5.3868C3.58824 5.52793 2.66324 5.94128 1.90166 6.58018C1.14007 7.21909 0.572211 8.05814 0.262152 9.00264C-0.0479076 9.94714 -0.0878218 10.9595 0.146913 11.9255C0.381648 12.8915 0.881688 13.7726 1.59061 14.4695C2.29953 15.1664 3.18911 15.6513 4.15896 15.8694C5.12882 16.0876 6.14035 16.0304 7.0794 15.7042C8.01846 15.378 8.84766 14.7959 9.47344 14.0234C10.0992 13.251 10.4967 12.3191 10.6209 11.3328H11.7063C11.8462 11.3328 11.9827 11.3768 12.0962 11.4586C12.2098 11.5405 12.2947 11.656 12.3389 11.7888L13.3683 14.8768C13.4125 15.0095 13.4973 15.1249 13.6107 15.2068C13.7241 15.2886 13.8604 15.3327 14.0003 15.3328H15.3336C15.5104 15.3328 15.68 15.2626 15.805 15.1375C15.93 15.0125 16.0003 14.8429 16.0003 14.6661C16.0003 14.4893 15.93 14.3198 15.805 14.1947C15.68 14.0697 15.5104 13.9995 15.3336 13.9995ZM6.00026 2.66614C6.00026 2.40243 6.07846 2.14464 6.22497 1.92538C6.37148 1.70611 6.57972 1.53521 6.82335 1.4343C7.06699 1.33338 7.33507 1.30698 7.59372 1.35842C7.85236 1.40987 8.08993 1.53686 8.2764 1.72333C8.46287 1.9098 8.58986 2.14738 8.64131 2.40602C8.69276 2.66466 8.66635 2.93275 8.56543 3.17638C8.46452 3.42002 8.29362 3.62825 8.07436 3.77476C7.85509 3.92127 7.5973 3.99947 7.33359 3.99947C6.97997 3.99947 6.64083 3.859 6.39079 3.60895C6.14074 3.3589 6.00026 3.01976 6.00026 2.66614Z" fill="black"/>
</g>
<defs>
<clipPath id="clip0_483_13637">
<rect width="16" height="16" fill="white"/>
</clipPath>
</defs>
</svg>
