<svg width="17" height="16" viewBox="0 0 17 16" fill="none" xmlns="http://www.w3.org/2000/svg">
<g clip-path="url(#clip0_483_13819)">
<path d="M12.1109 16H5.44757C5.06197 15.9996 4.681 15.916 4.33067 15.755C3.98033 15.5939 3.66887 15.3591 3.41757 15.0667C3.17035 14.7803 2.98782 14.444 2.88243 14.0807C2.77704 13.7173 2.75128 13.3355 2.8069 12.9613C3.16456 11.0116 4.20465 9.25279 5.7409 8C4.20463 6.74676 3.16476 4.98749 2.80757 3.03733C2.75206 2.66339 2.77781 2.28188 2.88308 1.9188C2.98835 1.55571 3.17065 1.21959 3.41757 0.93333C3.66887 0.64088 3.98033 0.406103 4.33067 0.245028C4.681 0.0839531 5.06197 0.000373711 5.44757 -3.8147e-06L12.1109 -3.8147e-06C12.4964 0.000337614 12.8773 0.0839043 13.2275 0.244985C13.5778 0.406066 13.8891 0.640863 14.1402 0.93333C14.3875 1.2193 14.5702 1.55523 14.6758 1.91821C14.7814 2.28119 14.8075 2.66268 14.7522 3.03666C14.3911 4.9873 13.349 6.74628 11.8116 8C13.3481 9.25479 14.389 11.0145 14.7489 12.9653C14.8042 13.3394 14.7781 13.721 14.6725 14.0841C14.5669 14.4472 14.3842 14.7833 14.1369 15.0693C13.8859 15.3609 13.575 15.5949 13.2254 15.7555C12.8757 15.9161 12.4956 15.9995 12.1109 16ZM12.1109 1.33333H5.44757C5.25418 1.33317 5.06304 1.37478 4.88723 1.45532C4.71141 1.53587 4.55507 1.65344 4.4289 1.8C4.30563 1.94025 4.21459 2.1058 4.16218 2.28502C4.10978 2.46424 4.09728 2.65276 4.12557 2.83733C4.37557 4.504 5.4069 6.064 7.19223 7.47533C7.27106 7.53774 7.33475 7.61718 7.37853 7.70769C7.42232 7.79821 7.44506 7.89745 7.44506 7.998C7.44506 8.09854 7.42232 8.19779 7.37853 8.2883C7.33475 8.37881 7.27106 8.45825 7.19223 8.52066C5.4069 9.93333 4.37757 11.4947 4.12557 13.1607C4.09697 13.3455 4.10932 13.5345 4.16173 13.714C4.21415 13.8936 4.30535 14.0595 4.4289 14.2C4.55507 14.3466 4.71141 14.4641 4.88723 14.5447C5.06304 14.6252 5.25418 14.6668 5.44757 14.6667H12.1109C12.3043 14.6668 12.4954 14.6252 12.6712 14.5447C12.8471 14.4641 13.0034 14.3466 13.1296 14.2C13.2528 14.06 13.3438 13.8946 13.3963 13.7157C13.4489 13.5367 13.4616 13.3484 13.4336 13.164C13.1849 11.506 12.1536 9.94466 10.3669 8.52266C10.2886 8.46022 10.2253 8.38092 10.1818 8.29067C10.1383 8.20041 10.1158 8.10151 10.1158 8.00133C10.1158 7.90115 10.1383 7.80225 10.1818 7.71199C10.2253 7.62174 10.2886 7.54244 10.3669 7.48C12.1542 6.058 13.1856 4.49666 13.4336 2.838C13.4615 2.65303 13.4484 2.46419 13.3953 2.28483C13.3422 2.10547 13.2503 1.93996 13.1262 1.8C13.0004 1.65387 12.8446 1.53655 12.6694 1.45602C12.4942 1.37549 12.3037 1.33365 12.1109 1.33333Z" fill="black"/>
</g>
<defs>
<clipPath id="clip0_483_13819">
<rect width="16" height="16" fill="white" transform="translate(0.777344)"/>
</clipPath>
</defs>
</svg>
