<svg width="16" height="16" viewBox="0 0 16 16" fill="none" xmlns="http://www.w3.org/2000/svg">
<g clip-path="url(#clip0_482_18012)">
<path d="M15.3333 14.6733H14.6667V11.3333C14.6658 10.6855 14.4762 10.0519 14.121 9.51013C13.7658 8.96834 13.2604 8.5418 12.6667 8.28266V7.99999C12.6651 7.48514 12.5438 6.97771 12.3124 6.51779C12.081 6.05787 11.7458 5.65808 11.3333 5.35L10.774 2.53333C10.7432 2.38264 10.6613 2.24722 10.5421 2.15002C10.4229 2.05281 10.2738 1.99982 10.12 2H9.88C9.7262 1.99982 9.57706 2.05281 9.45787 2.15002C9.33868 2.24722 9.25676 2.38264 9.226 2.53333L8.8 4.66666H6.83333L7.33333 2.66667C7.33333 2.48986 7.2631 2.32029 7.13807 2.19526C7.01305 2.07024 6.84348 2 6.66667 2H5.33333C5.15652 2 4.98695 2.07024 4.86193 2.19526C4.7369 2.32029 4.66667 2.48986 4.66667 2.66667L5.24867 4.99533C4.6775 5.26318 4.19421 5.68783 3.85511 6.2198C3.516 6.75176 3.33505 7.36914 3.33333 7.99999V8.28266C2.73957 8.5418 2.2342 8.96834 1.879 9.51013C1.5238 10.0519 1.33419 10.6855 1.33333 11.3333V14.6733H0.666667C0.489856 14.6733 0.320286 14.7436 0.195262 14.8686C0.0702379 14.9936 0 15.1632 0 15.34C0 15.5168 0.0702379 15.6864 0.195262 15.8114C0.320286 15.9364 0.489856 16.0066 0.666667 16.0066H15.3333C15.5101 16.0066 15.6797 15.9364 15.8047 15.8114C15.9298 15.6864 16 15.5168 16 15.34C16 15.1632 15.9298 14.9936 15.8047 14.8686C15.6797 14.7436 15.5101 14.6733 15.3333 14.6733ZM6.66667 5.99999H9.33333C9.86377 5.99999 10.3725 6.21071 10.7475 6.58578C11.1226 6.96085 11.3333 7.46956 11.3333 7.99999H4.66667C4.66667 7.46956 4.87738 6.96085 5.25245 6.58578C5.62753 6.21071 6.13623 5.99999 6.66667 5.99999ZM4.66667 9.33332H11.3333C11.8638 9.33332 12.3725 9.54404 12.7475 9.91911C13.1226 10.2942 13.3333 10.8029 13.3333 11.3333V11.9867C12.7093 11.92 12.3333 11.52 12.3333 11.3333C12.3333 11.1565 12.2631 10.9869 12.1381 10.8619C12.013 10.7369 11.8435 10.6667 11.6667 10.6667C11.4899 10.6667 11.3203 10.7369 11.1953 10.8619C11.0702 10.9869 11 11.1565 11 11.3333C11 11.5627 10.5453 12 9.83333 12C9.10733 12 8.66667 11.5373 8.66667 11.3333C8.66667 11.1565 8.59643 10.9869 8.47141 10.8619C8.34638 10.7369 8.17681 10.6667 8 10.6667C7.82319 10.6667 7.65362 10.7369 7.5286 10.8619C7.40357 10.9869 7.33333 11.1565 7.33333 11.3333C7.33333 11.5627 6.87867 12 6.16667 12C5.44067 12 5 11.5373 5 11.3333C5 11.1565 4.92976 10.9869 4.80474 10.8619C4.67971 10.7369 4.51014 10.6667 4.33333 10.6667C4.15652 10.6667 3.98695 10.7369 3.86193 10.8619C3.7369 10.9869 3.66667 11.1565 3.66667 11.3333C3.66667 11.544 3.28067 11.9253 2.66667 11.9873V11.3333C2.66667 10.8029 2.87738 10.2942 3.25245 9.91911C3.62753 9.54404 4.13623 9.33332 4.66667 9.33332ZM2.66667 13.3193C3.27913 13.2921 3.86529 13.0626 4.33333 12.6667C4.84758 13.0953 5.49539 13.3309 6.16486 13.3327C6.83434 13.3346 7.48343 13.1025 8 12.6767C8.51657 13.1025 9.16566 13.3346 9.83514 13.3327C10.5046 13.3309 11.1524 13.0953 11.6667 12.6667C12.1348 13.0624 12.721 13.2917 13.3333 13.3187V14.6733H2.66667V13.3193Z" fill="black"/>
<path d="M5.99967 1.33333C6.36786 1.33333 6.66634 1.03486 6.66634 0.666667C6.66634 0.298477 6.36786 0 5.99967 0C5.63148 0 5.33301 0.298477 5.33301 0.666667C5.33301 1.03486 5.63148 1.33333 5.99967 1.33333Z" fill="black"/>
<path d="M9.99968 1.33333C10.3679 1.33333 10.6663 1.03486 10.6663 0.666667C10.6663 0.298477 10.3679 0 9.99968 0C9.63149 0 9.33301 0.298477 9.33301 0.666667C9.33301 1.03486 9.63149 1.33333 9.99968 1.33333Z" fill="black"/>
</g>
<defs>
<clipPath id="clip0_482_18012">
<rect width="16" height="16" fill="white"/>
</clipPath>
</defs>
</svg>
