<svg width="17" height="16" viewBox="0 0 17 16" fill="none" xmlns="http://www.w3.org/2000/svg">
<g clip-path="url(#clip0_483_13749)">
<path d="M8.88835 5.33374C8.36093 5.33374 7.84536 5.49014 7.40683 5.78315C6.9683 6.07617 6.6265 6.49265 6.42467 6.97992C6.22284 7.46719 6.17003 8.00337 6.27292 8.52065C6.37581 9.03793 6.62979 9.51309 7.00273 9.88603C7.37567 10.259 7.85082 10.5129 8.36811 10.6158C8.88539 10.7187 9.42157 10.6659 9.90884 10.4641C10.3961 10.2623 10.8126 9.92046 11.1056 9.48193C11.3986 9.0434 11.555 8.52782 11.555 8.00041C11.555 7.29316 11.2741 6.61489 10.774 6.11479C10.2739 5.61469 9.59559 5.33374 8.88835 5.33374ZM8.88835 9.33374C8.62464 9.33374 8.36685 9.25554 8.14759 9.10903C7.92832 8.96252 7.75743 8.75429 7.65651 8.51065C7.55559 8.26702 7.52919 7.99893 7.58063 7.74029C7.63208 7.48165 7.75907 7.24407 7.94554 7.0576C8.13201 6.87113 8.36959 6.74414 8.62823 6.69269C8.88687 6.64125 9.15496 6.66765 9.39859 6.76857C9.64223 6.86948 9.85047 7.04038 9.99697 7.25965C10.1435 7.47891 10.2217 7.7367 10.2217 8.00041C10.2217 8.35403 10.0812 8.69317 9.83116 8.94322C9.58111 9.19326 9.24197 9.33374 8.88835 9.33374Z" fill="black"/>
<path d="M15.0852 9.26667L14.7892 9.096C14.9225 8.37096 14.9225 7.62771 14.7892 6.90267L15.0852 6.732C15.3128 6.60068 15.5123 6.42581 15.6724 6.21737C15.8324 6.00894 15.9499 5.77103 16.0179 5.51721C16.086 5.2634 16.1035 4.99866 16.0693 4.73811C16.035 4.47755 15.9498 4.22629 15.8185 3.99867C15.6872 3.77104 15.5123 3.57151 15.3039 3.41147C15.0955 3.25143 14.8575 3.134 14.6037 3.06591C14.3499 2.99781 14.0852 2.98037 13.8246 3.01459C13.5641 3.04881 13.3128 3.13401 13.0852 3.26533L12.7885 3.43667C12.2282 2.95795 11.5843 2.58683 10.8892 2.342V2C10.8892 1.46957 10.6785 0.960859 10.3034 0.585786C9.92833 0.210714 9.41962 0 8.88919 0C8.35876 0 7.85005 0.210714 7.47498 0.585786C7.0999 0.960859 6.88919 1.46957 6.88919 2V2.342C6.19411 2.58771 5.55042 2.95973 4.99052 3.43933L4.69252 3.26667C4.23281 3.00145 3.68658 2.92971 3.17398 3.06724C2.66138 3.20477 2.22441 3.54029 1.95919 4C1.69397 4.45971 1.62224 5.00595 1.75976 5.51855C1.89729 6.03114 2.23281 6.46812 2.69252 6.73333L2.98852 6.904C2.85526 7.62904 2.85526 8.37229 2.98852 9.09733L2.69252 9.268C2.23281 9.53322 1.89729 9.97019 1.75976 10.4828C1.62224 10.9954 1.69397 11.5416 1.95919 12.0013C2.22441 12.461 2.66138 12.7966 3.17398 12.9341C3.68658 13.0716 4.23281 12.9999 4.69252 12.7347L4.98919 12.5633C5.5497 13.0421 6.19384 13.4132 6.88919 13.658V14C6.88919 14.5304 7.0999 15.0391 7.47498 15.4142C7.85005 15.7893 8.35876 16 8.88919 16C9.41962 16 9.92833 15.7893 10.3034 15.4142C10.6785 15.0391 10.8892 14.5304 10.8892 14V13.658C11.5843 13.4123 12.228 13.0403 12.7879 12.5607L13.0859 12.7327C13.5456 12.9979 14.0918 13.0696 14.6044 12.9321C15.117 12.7946 15.554 12.459 15.8192 11.9993C16.0844 11.5396 16.1561 10.9934 16.0186 10.4808C15.8811 9.96819 15.5456 9.53122 15.0859 9.266L15.0852 9.26667ZM13.3865 6.74933C13.6123 7.56738 13.6123 8.43129 13.3865 9.24933C13.3471 9.39171 13.3561 9.54316 13.4121 9.67987C13.4681 9.81659 13.5679 9.93084 13.6959 10.0047L14.4185 10.422C14.5717 10.5104 14.6835 10.6561 14.7294 10.8269C14.7752 10.9977 14.7513 11.1798 14.6629 11.333C14.5745 11.4862 14.4288 11.598 14.258 11.6438C14.0871 11.6897 13.9051 11.6657 13.7519 11.5773L13.0279 11.1587C12.8998 11.0845 12.7507 11.055 12.604 11.075C12.4574 11.0949 12.3215 11.163 12.2179 11.2687C11.6245 11.8744 10.8769 12.3067 10.0559 12.5187C9.91254 12.5555 9.78556 12.639 9.69492 12.7559C9.60427 12.8729 9.55512 13.0167 9.55519 13.1647V14C9.55519 14.1768 9.48495 14.3464 9.35993 14.4714C9.2349 14.5964 9.06533 14.6667 8.88852 14.6667C8.71171 14.6667 8.54214 14.5964 8.41712 14.4714C8.29209 14.3464 8.22186 14.1768 8.22186 14V13.1653C8.22193 13.0174 8.17277 12.8736 8.08213 12.7566C7.99148 12.6397 7.8645 12.5562 7.72119 12.5193C6.90009 12.3065 6.15274 11.8733 5.55986 11.2667C5.45621 11.161 5.32035 11.0929 5.17369 11.073C5.02704 11.053 4.87793 11.0825 4.74986 11.1567L4.02719 11.5747C3.95134 11.6191 3.86745 11.6482 3.78034 11.6601C3.69323 11.672 3.60462 11.6665 3.51962 11.6441C3.43463 11.6216 3.35491 11.5825 3.28507 11.5291C3.21523 11.4757 3.15664 11.409 3.11268 11.3329C3.06872 11.2567 3.04025 11.1727 3.02892 11.0855C3.01759 10.9983 3.02361 10.9097 3.04665 10.8249C3.06968 10.74 3.10928 10.6606 3.16314 10.5911C3.21701 10.5216 3.28409 10.4635 3.36052 10.42L4.08319 10.0027C4.21115 9.92884 4.31097 9.81459 4.36696 9.67787C4.42295 9.54116 4.43194 9.38972 4.39252 9.24733C4.16676 8.42929 4.16676 7.56538 4.39252 6.74733C4.43123 6.60525 4.42181 6.45436 4.36573 6.31819C4.30965 6.18203 4.21007 6.06827 4.08252 5.99467L3.35986 5.57733C3.20665 5.48893 3.09484 5.34328 3.04901 5.17244C3.00319 5.00159 3.02712 4.81954 3.11552 4.66633C3.20393 4.51313 3.34957 4.40131 3.52042 4.35549C3.69126 4.30967 3.87332 4.33359 4.02652 4.422L4.75052 4.84067C4.87824 4.91501 5.02704 4.94481 5.17354 4.92538C5.32004 4.90595 5.45593 4.8384 5.55986 4.73333C6.15325 4.12756 6.90081 3.69535 7.72186 3.48333C7.86561 3.44638 7.99292 3.3625 8.08361 3.245C8.1743 3.1275 8.22319 2.98309 8.22252 2.83467V2C8.22252 1.82319 8.29276 1.65362 8.41778 1.5286C8.54281 1.40357 8.71238 1.33333 8.88919 1.33333C9.066 1.33333 9.23557 1.40357 9.36059 1.5286C9.48562 1.65362 9.55586 1.82319 9.55586 2V2.83467C9.55578 2.98264 9.60494 3.12643 9.69559 3.24339C9.78623 3.36035 9.91321 3.44382 10.0565 3.48067C10.8779 3.69343 11.6255 4.12659 12.2185 4.73333C12.3222 4.83898 12.458 4.90713 12.6047 4.92704C12.7513 4.94696 12.9005 4.91751 13.0285 4.84333L13.7512 4.42533C13.827 4.38087 13.9109 4.35185 13.998 4.33993C14.0851 4.32802 14.1738 4.33346 14.2588 4.35593C14.3438 4.37841 14.4235 4.41747 14.4933 4.47088C14.5632 4.52428 14.6217 4.59097 14.6657 4.66712C14.7097 4.74326 14.7381 4.82734 14.7495 4.91453C14.7608 5.00171 14.7548 5.09028 14.7317 5.17513C14.7087 5.25998 14.6691 5.33943 14.6152 5.40892C14.5614 5.4784 14.4943 5.53655 14.4179 5.58L13.6952 5.99733C13.5679 6.07114 13.4686 6.18498 13.4127 6.32113C13.3569 6.45727 13.3477 6.60807 13.3865 6.75V6.74933Z" fill="black"/>
</g>
<defs>
<clipPath id="clip0_483_13749">
<rect width="16" height="16" fill="white" transform="translate(0.888672)"/>
</clipPath>
</defs>
</svg>
