<svg width="17" height="16" viewBox="0 0 17 16" fill="none" xmlns="http://www.w3.org/2000/svg">
<g clip-path="url(#clip0_482_17970)">
<path d="M13.7777 5.99998H13.4443V4.66664C13.4443 4.48983 13.3741 4.32026 13.2491 4.19524C13.1241 4.07021 12.9545 3.99998 12.7777 3.99998C12.7861 3.5271 12.6655 3.06086 12.4287 2.65147C12.1918 2.24208 11.8478 1.90504 11.4337 1.67664C10.9548 1.41013 10.4068 1.29397 9.861 1.34331C9.79327 1.35172 9.72451 1.34244 9.66142 1.31639C9.59834 1.29033 9.54307 1.24839 9.501 1.19464C9.21084 0.814516 8.83417 0.509103 8.40227 0.303769C7.97038 0.0984364 7.49573 -0.000890369 7.01775 0.0140385C6.53976 0.0289674 6.07223 0.157721 5.654 0.389606C5.23576 0.621491 4.87888 0.949815 4.613 1.34731C3.9367 1.38803 3.30137 1.6851 2.83649 2.17798C2.37161 2.67086 2.11215 3.32245 2.111 3.99998C1.93419 3.99998 1.76462 4.07021 1.6396 4.19524C1.51457 4.32026 1.44434 4.48983 1.44434 4.66664V12.6666C1.44539 13.5504 1.79692 14.3976 2.42182 15.0225C3.04671 15.6474 3.89394 15.9989 4.77767 16H10.111C10.9947 15.9989 11.842 15.6474 12.4669 15.0225C13.0917 14.3976 13.4433 13.5504 13.4443 12.6666H13.7777C14.3965 12.6666 14.99 12.4208 15.4276 11.9832C15.8652 11.5456 16.111 10.9521 16.111 10.3333V8.33331C16.111 7.71447 15.8652 7.12098 15.4276 6.68339C14.99 6.24581 14.3965 5.99998 13.7777 5.99998ZM4.77767 2.66664C4.81601 2.66789 4.85416 2.67258 4.89167 2.68064C5.03534 2.704 5.18271 2.6797 5.31127 2.61145C5.43984 2.54319 5.54253 2.43474 5.60367 2.30264C5.72556 2.04388 5.91199 1.82084 6.14503 1.65499C6.37807 1.48913 6.64987 1.38605 6.93428 1.35564C7.21869 1.32524 7.50614 1.36854 7.76897 1.48139C8.03181 1.59424 8.26117 1.77283 8.435 1.99998C8.61367 2.23728 8.85083 2.42419 9.12332 2.54244C9.39581 2.66069 9.69431 2.70624 9.98967 2.67464C10.2744 2.65222 10.5594 2.71511 10.8083 2.85531C11.0067 2.97214 11.1703 3.13985 11.2821 3.3411C11.3939 3.54235 11.4499 3.76982 11.4443 3.99998H8.77767C8.24724 3.99998 7.73853 4.21069 7.36346 4.58576C6.98838 4.96084 6.77767 5.46954 6.77767 5.99998V7.99998C6.77767 8.17679 6.70743 8.34636 6.58241 8.47138C6.45738 8.59641 6.28781 8.66664 6.111 8.66664C5.93419 8.66664 5.76462 8.59641 5.6396 8.47138C5.51457 8.34636 5.44434 8.17679 5.44434 7.99998V5.99998C5.44434 5.46954 5.23362 4.96084 4.85855 4.58576C4.48348 4.21069 3.97477 3.99998 3.44434 3.99998C3.44434 3.64635 3.58481 3.30722 3.83486 3.05717C4.08491 2.80712 4.42405 2.66664 4.77767 2.66664ZM12.111 12.6666C12.111 13.1971 11.9003 13.7058 11.5252 14.0809C11.1501 14.4559 10.6414 14.6666 10.111 14.6666H4.77767C4.24724 14.6666 3.73853 14.4559 3.36346 14.0809C2.98838 13.7058 2.77767 13.1971 2.77767 12.6666V5.33331H3.44434C3.62115 5.33331 3.79072 5.40355 3.91574 5.52857C4.04076 5.6536 4.111 5.82317 4.111 5.99998V7.99998C4.111 8.53041 4.32172 9.03912 4.69679 9.41419C5.07186 9.78926 5.58057 9.99998 6.111 9.99998C6.64144 9.99998 7.15014 9.78926 7.52522 9.41419C7.90029 9.03912 8.111 8.53041 8.111 7.99998V5.99998C8.111 5.82317 8.18124 5.6536 8.30626 5.52857C8.43129 5.40355 8.60086 5.33331 8.77767 5.33331H12.111V12.6666ZM14.7777 10.3333C14.7777 10.5985 14.6723 10.8529 14.4848 11.0404C14.2972 11.228 14.0429 11.3333 13.7777 11.3333H13.4443V7.33331H13.7777C14.0429 7.33331 14.2972 7.43867 14.4848 7.6262C14.6723 7.81374 14.7777 8.06809 14.7777 8.33331V10.3333Z" fill="black"/>
</g>
<defs>
<clipPath id="clip0_482_17970">
<rect width="16" height="16" fill="white" transform="translate(0.777344)"/>
</clipPath>
</defs>
</svg>
