<svg width="17" height="16" viewBox="0 0 17 16" fill="none" xmlns="http://www.w3.org/2000/svg">
<g clip-path="url(#clip0_483_13871)">
<path d="M8.6668 1.33327C9.55114 1.33617 10.4261 1.51443 11.2411 1.85773C12.0561 2.20103 12.7949 2.70255 13.4148 3.33327H11.3335C11.1567 3.33327 10.9871 3.40351 10.8621 3.52854C10.737 3.65356 10.6668 3.82313 10.6668 3.99994C10.6668 4.17675 10.737 4.34632 10.8621 4.47134C10.9871 4.59637 11.1567 4.66661 11.3335 4.66661H14.0955C14.4238 4.66643 14.7385 4.53594 14.9707 4.30381C15.2028 4.07168 15.3333 3.75689 15.3335 3.42861V0.666607C15.3335 0.489796 15.2632 0.320226 15.1382 0.195202C15.0132 0.0701777 14.8436 -6.01644e-05 14.6668 -6.01644e-05C14.49 -6.01644e-05 14.3204 0.0701777 14.1954 0.195202C14.0704 0.320226 14.0001 0.489796 14.0001 0.666607V2.05194C12.8982 1.05958 11.5419 0.393546 10.0829 0.128439C8.62387 -0.136668 7.11989 0.00961447 5.73933 0.550905C4.35876 1.0922 3.15615 2.00712 2.26614 3.19322C1.37614 4.37932 0.833896 5.78977 0.700135 7.26661C0.691524 7.35945 0.702346 7.45306 0.73191 7.54149C0.761475 7.62991 0.809135 7.71121 0.871853 7.7802C0.93457 7.84919 1.01097 7.90436 1.09619 7.94219C1.1814 7.98002 1.27357 7.99969 1.3668 7.99994C1.52986 8.00202 1.68782 7.94317 1.80977 7.8349C1.93172 7.72664 2.00888 7.57676 2.02613 7.41461C2.17454 5.75511 2.93812 4.21108 4.16686 3.08583C5.39559 1.96059 7.00068 1.33547 8.6668 1.33327Z" fill="black"/>
<path d="M15.9673 8.00005C15.8043 7.99798 15.6463 8.05683 15.5244 8.16509C15.4024 8.27335 15.3253 8.42323 15.308 8.58539C15.1978 9.85421 14.7259 11.0648 13.9484 12.0735C13.1709 13.0823 12.1204 13.8468 10.9214 14.2764C9.72249 14.7061 8.42546 14.7828 7.18423 14.4975C5.943 14.2122 4.80966 13.5768 3.91867 12.6667H6C6.17681 12.6667 6.34638 12.5965 6.47141 12.4715C6.59643 12.3464 6.66667 12.1769 6.66667 12.0001C6.66667 11.8233 6.59643 11.6537 6.47141 11.5287C6.34638 11.4036 6.17681 11.3334 6 11.3334H3.238C3.0754 11.3333 2.91438 11.3653 2.76413 11.4275C2.61389 11.4896 2.47738 11.5808 2.36241 11.6958C2.24743 11.8108 2.15624 11.9473 2.09406 12.0975C2.03187 12.2478 1.99991 12.4088 2 12.5714V15.3334C2 15.5102 2.07024 15.6798 2.19526 15.8048C2.32029 15.9298 2.48986 16.0001 2.66667 16.0001C2.84348 16.0001 3.01305 15.9298 3.13807 15.8048C3.2631 15.6798 3.33333 15.5102 3.33333 15.3334V13.9481C4.43522 14.9404 5.79161 15.6065 7.2506 15.8716C8.70959 16.1367 10.2136 15.9904 11.5941 15.4491C12.9747 14.9078 14.1773 13.9929 15.0673 12.8068C15.9573 11.6207 16.4996 10.2102 16.6333 8.73339C16.6419 8.64055 16.6311 8.54694 16.6016 8.45851C16.572 8.37008 16.5243 8.28879 16.4616 8.2198C16.3989 8.15081 16.3225 8.09564 16.2373 8.0578C16.1521 8.01997 16.0599 8.0003 15.9667 8.00005H15.9673Z" fill="black"/>
</g>
<defs>
<clipPath id="clip0_483_13871">
<rect width="16" height="16" fill="white" transform="translate(0.666992)"/>
</clipPath>
</defs>
</svg>
