<svg width="16" height="16" viewBox="0 0 16 16" fill="none" xmlns="http://www.w3.org/2000/svg">
<g clip-path="url(#clip0_483_13884)">
<path d="M12.6667 2H3.33333C2.44928 2 1.60143 2.35119 0.976311 2.97631C0.351189 3.60143 0 4.44928 0 5.33333L0 10.6667C0 11.5507 0.351189 12.3986 0.976311 13.0237C1.60143 13.6488 2.44928 14 3.33333 14H12.6667C13.1044 14 13.5379 13.9138 13.9423 13.7463C14.3467 13.5787 14.7142 13.3332 15.0237 13.0237C15.3332 12.7142 15.5788 12.3467 15.7463 11.9423C15.9138 11.5379 16 11.1044 16 10.6667V5.33333C16 4.89559 15.9138 4.46214 15.7463 4.05772C15.5788 3.6533 15.3332 3.28584 15.0237 2.97631C14.7142 2.66678 14.3467 2.42125 13.9423 2.25373C13.5379 2.08622 13.1044 2 12.6667 2ZM14.6667 10.6667C14.6667 11.1971 14.456 11.7058 14.0809 12.0809C13.7058 12.456 13.1971 12.6667 12.6667 12.6667H3.33333C2.8029 12.6667 2.29419 12.456 1.91912 12.0809C1.54405 11.7058 1.33333 11.1971 1.33333 10.6667V5.33333C1.33333 4.8029 1.54405 4.29419 1.91912 3.91912C2.29419 3.54405 2.8029 3.33333 3.33333 3.33333H12.6667C13.1971 3.33333 13.7058 3.54405 14.0809 3.91912C14.456 4.29419 14.6667 4.8029 14.6667 5.33333V10.6667Z" fill="black"/>
</g>
<defs>
<clipPath id="clip0_483_13884">
<rect width="16" height="16" fill="white"/>
</clipPath>
</defs>
</svg>
