<svg width="16" height="16" viewBox="0 0 16 16" fill="none" xmlns="http://www.w3.org/2000/svg">
<g clip-path="url(#clip0_483_13666)">
<path d="M15.182 5.14756C14.8694 4.7873 14.483 4.49842 14.0491 4.30047C13.6151 4.10252 13.1437 4.00013 12.6667 4.00023H10.0073L10.2313 2.63956C10.3106 2.16041 10.215 1.66872 9.96191 1.25419C9.70885 0.839661 9.31521 0.529907 8.8528 0.381426C8.39038 0.232945 7.89 0.255632 7.44292 0.445348C6.99584 0.635064 6.63184 0.979168 6.41733 1.4149L5.14133 4.00023H3.33333C2.4496 4.00129 1.60237 4.35282 0.97748 4.97771C0.352588 5.6026 0.00105857 6.44983 0 7.33356L0 10.6669C0.00105857 11.5506 0.352588 12.3979 0.97748 13.0228C1.60237 13.6476 2.4496 13.9992 3.33333 14.0002H12.2C13.0023 13.9969 13.7768 13.7058 14.3825 13.1797C14.9883 12.6536 15.3851 11.9275 15.5007 11.1336L15.9707 7.80023C16.0369 7.32739 16.0007 6.84584 15.8646 6.38818C15.7286 5.93053 15.4958 5.50744 15.182 5.14756ZM1.33333 10.6669V7.33356C1.33333 6.80313 1.54405 6.29442 1.91912 5.91935C2.29419 5.54428 2.8029 5.33356 3.33333 5.33356H4.66667V12.6669H3.33333C2.8029 12.6669 2.29419 12.4562 1.91912 12.0811C1.54405 11.706 1.33333 11.1973 1.33333 10.6669ZM14.6473 7.6129L14.1767 10.9462C14.1079 11.4222 13.8705 11.8577 13.5077 12.1735C13.145 12.4893 12.6809 12.6643 12.2 12.6669H6V5.15623C6.06283 5.1015 6.11484 5.03547 6.15333 4.96156L7.61267 2.0049C7.66739 1.90618 7.74476 1.82187 7.83842 1.75887C7.93207 1.69588 8.03934 1.65601 8.1514 1.64254C8.26346 1.62907 8.37712 1.64238 8.48304 1.68138C8.58896 1.72039 8.6841 1.78397 8.76067 1.8669C8.82617 1.94306 8.87405 2.03274 8.9009 2.12954C8.92775 2.22634 8.93291 2.32788 8.916 2.4269L8.564 4.56023C8.54855 4.65555 8.55399 4.75309 8.57995 4.8461C8.60591 4.93911 8.65176 5.02537 8.71433 5.09892C8.77691 5.17246 8.85472 5.23154 8.94237 5.27205C9.03003 5.31256 9.12544 5.33355 9.222 5.33356H12.6667C12.9529 5.33353 13.2359 5.39494 13.4964 5.51366C13.7569 5.63238 13.9888 5.80564 14.1766 6.02172C14.3644 6.2378 14.5036 6.49168 14.5848 6.76619C14.666 7.04069 14.6873 7.32944 14.6473 7.6129Z" fill="black"/>
</g>
<defs>
<clipPath id="clip0_483_13666">
<rect width="16" height="16" fill="white"/>
</clipPath>
</defs>
</svg>
