<svg width="17" height="16" viewBox="0 0 17 16" fill="none" xmlns="http://www.w3.org/2000/svg">
<g clip-path="url(#clip0_483_13708)">
<path d="M12.778 4.00032H9.65866C9.39292 3.81093 9.09429 3.67258 8.778 3.59232V3.33365L11.1313 2.23232C11.2278 2.17253 11.3074 2.0891 11.3626 1.98994C11.4178 1.89077 11.4468 1.77915 11.4468 1.66565C11.4468 1.55215 11.4178 1.44054 11.3626 1.34137C11.3074 1.2422 11.2278 1.15877 11.1313 1.09899L8.998 0.0989857C8.83143 0.0211537 8.6479 -0.0133366 8.46445 -0.00128365C8.28099 0.0107693 8.10355 0.0689748 7.9486 0.16793C7.79365 0.266885 7.66621 0.403383 7.57811 0.564753C7.49001 0.726123 7.44411 0.907134 7.44466 1.09099V3.59232C7.12853 3.67247 6.8301 3.81083 6.56466 4.00032H3.44466C2.56093 4.00138 1.7137 4.35291 1.08881 4.9778C0.463916 5.60269 0.112387 6.44992 0.111328 7.33365L0.111328 14.0003C0.111328 14.5308 0.322042 15.0395 0.697115 15.4145C1.07219 15.7896 1.5809 16.0003 2.11133 16.0003H14.1113C14.6418 16.0003 15.1505 15.7896 15.5255 15.4145C15.9006 15.0395 16.1113 14.5308 16.1113 14.0003V7.33365C16.1103 6.44992 15.7587 5.60269 15.1338 4.9778C14.509 4.35291 13.6617 4.00138 12.778 4.00032ZM14.6553 6.66699H13.216C12.6859 6.66564 12.1777 6.45504 11.802 6.08099L11.054 5.33365H12.778C13.1902 5.33536 13.5917 5.46438 13.9278 5.70304C14.2638 5.94171 14.5179 6.27838 14.6553 6.66699ZM3.44466 5.33365H5.16866L4.42066 6.08099C4.04498 6.45504 3.5368 6.66564 3.00666 6.66699H1.56733C1.70472 6.27838 1.95882 5.94171 2.29486 5.70304C2.63091 5.46438 3.03249 5.33536 3.44466 5.33365ZM8.778 14.667H7.44466V12.667C7.44466 12.4902 7.5149 12.3206 7.63992 12.1956C7.76495 12.0706 7.93452 12.0003 8.11133 12.0003C8.28814 12.0003 8.45771 12.0706 8.58273 12.1956C8.70776 12.3206 8.778 12.4902 8.778 12.667V14.667ZM14.1113 14.667H10.1113V12.667C10.1113 12.1366 9.90061 11.6278 9.52554 11.2528C9.15047 10.8777 8.64176 10.667 8.11133 10.667C7.5809 10.667 7.07219 10.8777 6.69711 11.2528C6.32204 11.6278 6.11133 12.1366 6.11133 12.667V14.667H2.11133C1.93452 14.667 1.76495 14.5968 1.63992 14.4717C1.5149 14.3467 1.44466 14.1771 1.44466 14.0003V8.00032H3.00666C3.44454 8.0014 3.87828 7.91563 4.2828 7.74799C4.68732 7.58035 5.05458 7.33415 5.36333 7.02365L7.16866 5.21899C7.4187 4.96903 7.75778 4.8286 8.11133 4.8286C8.46488 4.8286 8.80396 4.96903 9.054 5.21899L10.8593 7.02365C11.1681 7.33415 11.5353 7.58035 11.9399 7.74799C12.3444 7.91563 12.7781 8.0014 13.216 8.00032H14.778V14.0003C14.778 14.1771 14.7078 14.3467 14.5827 14.4717C14.4577 14.5968 14.2881 14.667 14.1113 14.667ZM4.778 10.0003C4.778 10.1771 4.70776 10.3467 4.58273 10.4717C4.45771 10.5967 4.28814 10.667 4.11133 10.667H3.44466C3.26785 10.667 3.09828 10.5967 2.97326 10.4717C2.84823 10.3467 2.77799 10.1771 2.77799 10.0003C2.77799 9.82351 2.84823 9.65394 2.97326 9.52892C3.09828 9.40389 3.26785 9.33365 3.44466 9.33365H4.11133C4.28814 9.33365 4.45771 9.40389 4.58273 9.52892C4.70776 9.65394 4.778 9.82351 4.778 10.0003ZM4.778 12.667C4.778 12.8438 4.70776 13.0134 4.58273 13.1384C4.45771 13.2634 4.28814 13.3337 4.11133 13.3337H3.44466C3.26785 13.3337 3.09828 13.2634 2.97326 13.1384C2.84823 13.0134 2.77799 12.8438 2.77799 12.667C2.77799 12.4902 2.84823 12.3206 2.97326 12.1956C3.09828 12.0706 3.26785 12.0003 3.44466 12.0003H4.11133C4.28814 12.0003 4.45771 12.0706 4.58273 12.1956C4.70776 12.3206 4.778 12.4902 4.778 12.667ZM13.4447 10.0003C13.4447 10.1771 13.3744 10.3467 13.2494 10.4717C13.1244 10.5967 12.9548 10.667 12.778 10.667H12.1113C11.9345 10.667 11.7649 10.5967 11.6399 10.4717C11.5149 10.3467 11.4447 10.1771 11.4447 10.0003C11.4447 9.82351 11.5149 9.65394 11.6399 9.52892C11.7649 9.40389 11.9345 9.33365 12.1113 9.33365H12.778C12.9548 9.33365 13.1244 9.40389 13.2494 9.52892C13.3744 9.65394 13.4447 9.82351 13.4447 10.0003ZM13.4447 12.667C13.4447 12.8438 13.3744 13.0134 13.2494 13.1384C13.1244 13.2634 12.9548 13.3337 12.778 13.3337H12.1113C11.9345 13.3337 11.7649 13.2634 11.6399 13.1384C11.5149 13.0134 11.4447 12.8438 11.4447 12.667C11.4447 12.4902 11.5149 12.3206 11.6399 12.1956C11.7649 12.0706 11.9345 12.0003 12.1113 12.0003H12.778C12.9548 12.0003 13.1244 12.0706 13.2494 12.1956C13.3744 12.3206 13.4447 12.4902 13.4447 12.667ZM9.44466 8.00032C9.44466 8.26403 9.36646 8.52181 9.21995 8.74108C9.07345 8.96035 8.86521 9.13124 8.62157 9.23216C8.37794 9.33308 8.10985 9.35948 7.85121 9.30803C7.59257 9.25659 7.35499 9.1296 7.16852 8.94313C6.98205 8.75666 6.85506 8.51908 6.80361 8.26044C6.75217 8.0018 6.77857 7.73371 6.87949 7.49008C6.98041 7.24644 7.1513 7.0382 7.37057 6.89169C7.58983 6.74519 7.84762 6.66699 8.11133 6.66699C8.46495 6.66699 8.80409 6.80746 9.05414 7.05751C9.30419 7.30756 9.44466 7.6467 9.44466 8.00032Z" fill="black"/>
</g>
<defs>
<clipPath id="clip0_483_13708">
<rect width="16" height="16" fill="white" transform="translate(0.111328)"/>
</clipPath>
</defs>
</svg>
