<svg width="17" height="16" viewBox="0 0 17 16" fill="none" xmlns="http://www.w3.org/2000/svg">
<g clip-path="url(#clip0_483_13801)">
<path d="M1.44401 3.1669H3.26801C3.4111 3.69339 3.72346 4.15816 4.15689 4.48952C4.59033 4.82088 5.12076 5.00041 5.66634 5.00041C6.21193 5.00041 6.74236 4.82088 7.17579 4.48952C7.60923 4.15816 7.92159 3.69339 8.06468 3.1669H16.1107C16.2875 3.1669 16.4571 3.09666 16.5821 2.97164C16.7071 2.84661 16.7773 2.67704 16.7773 2.50023C16.7773 2.32342 16.7071 2.15385 16.5821 2.02883C16.4571 1.9038 16.2875 1.83357 16.1107 1.83357H8.06468C7.92159 1.30708 7.60923 0.842304 7.17579 0.510946C6.74236 0.179588 6.21193 6.10352e-05 5.66634 6.10352e-05C5.12076 6.10352e-05 4.59033 0.179588 4.15689 0.510946C3.72346 0.842304 3.4111 1.30708 3.26801 1.83357H1.44401C1.2672 1.83357 1.09763 1.9038 0.972606 2.02883C0.847582 2.15385 0.777344 2.32342 0.777344 2.50023C0.777344 2.67704 0.847582 2.84661 0.972606 2.97164C1.09763 3.09666 1.2672 3.1669 1.44401 3.1669ZM5.66601 1.33357C5.89676 1.33357 6.12232 1.40199 6.31418 1.53019C6.50603 1.65838 6.65557 1.84059 6.74387 2.05377C6.83217 2.26695 6.85528 2.50153 6.81026 2.72784C6.76524 2.95415 6.65413 3.16203 6.49097 3.32519C6.32781 3.48835 6.11993 3.59947 5.89362 3.64448C5.6673 3.6895 5.43273 3.6664 5.21955 3.57809C5.00637 3.48979 4.82416 3.34026 4.69596 3.1484C4.56777 2.95654 4.49934 2.73098 4.49934 2.50023C4.4997 2.19092 4.62273 1.89438 4.84144 1.67567C5.06016 1.45695 5.3567 1.33392 5.66601 1.33357Z" fill="black"/>
<path d="M16.1107 7.33275H14.2867C14.1438 6.80614 13.8316 6.3412 13.3982 6.0097C12.9648 5.67821 12.4343 5.4986 11.8887 5.4986C11.343 5.4986 10.8126 5.67821 10.3792 6.0097C9.94576 6.3412 9.63353 6.80614 9.49068 7.33275H1.44401C1.2672 7.33275 1.09763 7.40299 0.972606 7.52801C0.847582 7.65303 0.777344 7.8226 0.777344 7.99941C0.777344 8.17622 0.847582 8.34579 0.972606 8.47082C1.09763 8.59584 1.2672 8.66608 1.44401 8.66608H9.49068C9.63353 9.19269 9.94576 9.65763 10.3792 9.98913C10.8126 10.3206 11.343 10.5002 11.8887 10.5002C12.4343 10.5002 12.9648 10.3206 13.3982 9.98913C13.8316 9.65763 14.1438 9.19269 14.2867 8.66608H16.1107C16.2875 8.66608 16.4571 8.59584 16.5821 8.47082C16.7071 8.34579 16.7773 8.17622 16.7773 7.99941C16.7773 7.8226 16.7071 7.65303 16.5821 7.52801C16.4571 7.40299 16.2875 7.33275 16.1107 7.33275ZM11.8887 9.16608C11.6579 9.16608 11.4324 9.09765 11.2405 8.96946C11.0487 8.84127 10.8991 8.65906 10.8108 8.44588C10.7225 8.2327 10.6994 7.99812 10.7444 7.77181C10.7894 7.5455 10.9006 7.33762 11.0637 7.17446C11.2269 7.0113 11.4348 6.90018 11.6611 6.85517C11.8874 6.81015 12.122 6.83325 12.3351 6.92156C12.5483 7.00986 12.7305 7.15939 12.8587 7.35125C12.9869 7.54311 13.0553 7.76867 13.0553 7.99941C13.055 8.30872 12.932 8.60527 12.7132 8.82398C12.4945 9.0427 12.198 9.16573 11.8887 9.16608Z" fill="black"/>
<path d="M16.1107 12.8335H8.06468C7.92159 12.307 7.60923 11.8423 7.17579 11.5109C6.74236 11.1796 6.21193 11 5.66634 11C5.12076 11 4.59033 11.1796 4.15689 11.5109C3.72346 11.8423 3.4111 12.307 3.26801 12.8335H1.44401C1.2672 12.8335 1.09763 12.9038 0.972606 13.0288C0.847582 13.1538 0.777344 13.3234 0.777344 13.5002C0.777344 13.677 0.847582 13.8466 0.972606 13.9716C1.09763 14.0966 1.2672 14.1669 1.44401 14.1669H3.26801C3.4111 14.6933 3.72346 15.1581 4.15689 15.4895C4.59033 15.8208 5.12076 16.0004 5.66634 16.0004C6.21193 16.0004 6.74236 15.8208 7.17579 15.4895C7.60923 15.1581 7.92159 14.6933 8.06468 14.1669H16.1107C16.2875 14.1669 16.4571 14.0966 16.5821 13.9716C16.7071 13.8466 16.7773 13.677 16.7773 13.5002C16.7773 13.3234 16.7071 13.1538 16.5821 13.0288C16.4571 12.9038 16.2875 12.8335 16.1107 12.8335ZM5.66601 14.6669C5.43527 14.6669 5.2097 14.5984 5.01785 14.4702C4.82599 14.342 4.67645 14.1598 4.58815 13.9467C4.49985 13.7335 4.47674 13.4989 4.52176 13.2726C4.56678 13.0463 4.67789 12.8384 4.84105 12.6752C5.00421 12.5121 5.21209 12.401 5.43841 12.3559C5.66472 12.3109 5.89929 12.334 6.11247 12.4223C6.32565 12.5106 6.50786 12.6602 6.63606 12.852C6.76425 13.0439 6.83268 13.2695 6.83268 13.5002C6.83215 13.8094 6.70906 14.1059 6.49038 14.3246C6.27171 14.5432 5.97527 14.6663 5.66601 14.6669Z" fill="black"/>
</g>
<defs>
<clipPath id="clip0_483_13801">
<rect width="16" height="16" fill="white" transform="translate(0.777344)"/>
</clipPath>
</defs>
</svg>
