<svg width="17" height="16" viewBox="0 0 17 16" fill="none" xmlns="http://www.w3.org/2000/svg">
<g clip-path="url(#clip0_483_13601)">
<path d="M16.6417 2.56333C16.517 2.38933 16.3527 2.2475 16.1623 2.14955C15.972 2.05159 15.7611 2.00033 15.547 2H13.1843C13.5303 1.43533 13.9177 0.072 12.8883 0C12.7115 0 12.5419 0.0702379 12.4169 0.195262C12.2919 0.320286 12.2217 0.489856 12.2217 0.666667C12.2217 1.02029 12.0812 1.35943 11.8311 1.60948C11.5811 1.85952 11.242 2 10.8883 2H6.88833C6.53471 2 6.19557 1.85952 5.94552 1.60948C5.69547 1.35943 5.555 1.02029 5.555 0.666667C5.555 0.489856 5.48476 0.320286 5.35973 0.195262C5.23471 0.0702379 5.06514 0 4.88833 0C3.85633 0.0726667 4.247 1.43467 4.59233 2H2.22966C2.0194 2.00025 1.81215 2.05002 1.62471 2.14529C1.43727 2.24056 1.2749 2.37864 1.15077 2.54835C1.02663 2.71806 0.94422 2.91463 0.910208 3.12212C0.876196 3.32962 0.89154 3.54221 0.954996 3.74267C1.31742 4.72458 2.00387 5.55354 2.901 6.09267C2.901 6.116 4.901 14.136 4.901 14.136C4.93444 14.6407 5.15823 15.1138 5.52714 15.4598C5.89604 15.8059 6.38255 15.9989 6.88833 16H10.8883C11.3943 15.9985 11.8808 15.8049 12.2495 15.4584C12.6182 15.1119 12.8415 14.6383 12.8743 14.1333C12.8743 14.1333 14.8743 6.11333 14.8743 6.09C15.7714 5.55194 16.4582 4.72421 16.8217 3.74333C16.8888 3.54668 16.9075 3.33672 16.8762 3.13129C16.8448 2.92586 16.7644 2.73102 16.6417 2.56333ZM13.1417 5.308C12.6834 5.28353 12.2248 5.35195 11.7936 5.50916C11.3624 5.66638 10.9675 5.90913 10.6324 6.22285C10.2974 6.53656 10.0293 6.91476 9.84414 7.33472C9.65898 7.75468 9.56063 8.20774 9.555 8.66667V12H8.22166V8.66667C8.21603 8.20774 8.11768 7.75468 7.93252 7.33472C7.74737 6.91476 7.47923 6.53656 7.14422 6.22285C6.80921 5.90913 6.41424 5.66638 5.98304 5.50916C5.55184 5.35195 5.09331 5.28353 4.635 5.308C5.09699 4.52964 5.71479 3.8551 6.44966 3.32667L11.3163 3.33333C12.055 3.85804 12.6765 4.53047 13.1417 5.308ZM2.22966 3.33333H4.44366C4.03359 3.78523 3.67577 4.28192 3.377 4.814C2.85279 4.4487 2.45252 3.93215 2.22966 3.33333ZM4.88833 6.66667C5.12352 6.66863 5.35648 6.71242 5.57633 6.796C5.54377 6.95827 5.55181 7.12606 5.59972 7.28447C5.64763 7.44289 5.73393 7.58701 5.85096 7.70404C5.96799 7.82106 6.11211 7.90737 6.27052 7.95528C6.42893 8.00319 6.59673 8.01122 6.759 7.97867C6.84257 8.19851 6.88637 8.43148 6.88833 8.66667V12C6.51004 12.001 6.13992 12.1102 5.82166 12.3147L4.397 6.61933C4.55951 6.64628 4.72366 6.66209 4.88833 6.66667ZM10.8883 14.6667H6.88833C6.71152 14.6667 6.54195 14.5964 6.41692 14.4714C6.2919 14.3464 6.22166 14.1768 6.22166 14C6.22166 13.8232 6.2919 13.6536 6.41692 13.5286C6.54195 13.4036 6.71152 13.3333 6.88833 13.3333H10.8883C11.0651 13.3333 11.2347 13.4036 11.3597 13.5286C11.4848 13.6536 11.555 13.8232 11.555 14C11.555 14.1768 11.4848 14.3464 11.3597 14.4714C11.2347 14.5964 11.0651 14.6667 10.8883 14.6667ZM11.955 12.3147C11.6367 12.1102 11.2666 12.001 10.8883 12V8.66667C10.8903 8.43148 10.9341 8.19851 11.0177 7.97867C11.1799 8.01122 11.3477 8.00319 11.5061 7.95528C11.6645 7.90737 11.8087 7.82106 11.9257 7.70404C12.0427 7.58701 12.129 7.44289 12.1769 7.28447C12.2249 7.12606 12.2329 6.95827 12.2003 6.796C12.5853 6.69196 12.9811 6.63268 13.3797 6.61933L11.955 12.3147ZM14.3977 4.81C14.097 4.27273 13.7358 3.77168 13.321 3.31667L15.555 3.31333C15.3297 3.9179 14.9261 4.43981 14.3977 4.81Z" fill="black"/>
</g>
<defs>
<clipPath id="clip0_483_13601">
<rect width="16" height="16" fill="white" transform="translate(0.888672)"/>
</clipPath>
</defs>
</svg>
