<svg width="17" height="16" viewBox="0 0 17 16" fill="none" xmlns="http://www.w3.org/2000/svg">
<g clip-path="url(#clip0_483_13633)">
<path d="M16.0047 14.8625L12.0254 10.8831C13.1098 9.55686 13.643 7.86453 13.5146 6.15617C13.3863 4.44782 12.6062 2.85415 11.3358 1.70481C10.0654 0.555472 8.40178 -0.0616068 6.68914 -0.0187856C4.97651 0.0240356 3.34585 0.723481 2.13446 1.93487C0.923066 3.14627 0.223621 4.77693 0.180799 6.48956C0.137978 8.20219 0.755057 9.86577 1.9044 11.1362C3.05374 12.4066 4.6474 13.1867 6.35576 13.315C8.06411 13.4434 9.75645 12.9102 11.0827 11.8258L15.062 15.8051C15.1878 15.9266 15.3562 15.9938 15.531 15.9922C15.7058 15.9907 15.873 15.9206 15.9966 15.797C16.1202 15.6734 16.1903 15.5062 16.1918 15.3314C16.1934 15.1566 16.1262 14.9882 16.0047 14.8625ZM6.86672 12.0005C5.81188 12.0005 4.78074 11.6877 3.90368 11.1016C3.02661 10.5156 2.34303 9.68265 1.93936 8.70811C1.53569 7.73357 1.43007 6.66122 1.63586 5.62665C1.84165 4.59208 2.3496 3.64178 3.09548 2.8959C3.84136 2.15002 4.79167 1.64206 5.82623 1.43628C6.8608 1.23049 7.93316 1.33611 8.90769 1.73977C9.88223 2.14344 10.7152 2.82703 11.3012 3.70409C11.8873 4.58115 12.2001 5.6123 12.2001 6.66713C12.1985 8.08113 11.636 9.43676 10.6362 10.4366C9.63635 11.4365 8.28072 11.9989 6.86672 12.0005Z" fill="black"/>
<path d="M8.86685 6H4.86686C4.69005 6 4.52048 6.07024 4.39546 6.19526C4.27043 6.32029 4.2002 6.48985 4.2002 6.66667C4.2002 6.84348 4.27043 7.01304 4.39546 7.13807C4.52048 7.26309 4.69005 7.33333 4.86686 7.33333H8.86685C9.04366 7.33333 9.21323 7.26309 9.33826 7.13807C9.46328 7.01304 9.53352 6.84348 9.53352 6.66667C9.53352 6.48985 9.46328 6.32029 9.33826 6.19526C9.21323 6.07024 9.04366 6 8.86685 6Z" fill="black"/>
</g>
<defs>
<clipPath id="clip0_483_13633">
<rect width="16" height="16" fill="white" transform="translate(0.200195)"/>
</clipPath>
</defs>
</svg>
