<svg width="17" height="16" viewBox="0 0 17 16" fill="none" xmlns="http://www.w3.org/2000/svg">
<g clip-path="url(#clip0_483_13616)">
<path d="M10.2227 4.66661C9.60159 4.65695 9.00209 4.89435 8.55601 5.32661C8.21305 5.00635 7.783 4.79472 7.32002 4.71835C6.85704 4.64199 6.38181 4.7043 5.95417 4.89745C5.52652 5.09061 5.16558 5.40596 4.91679 5.80381C4.66799 6.20166 4.54246 6.66423 4.55601 7.13328C4.55601 9.30394 7.80534 11.6239 8.17601 11.8806C8.2876 11.958 8.42018 11.9995 8.55601 11.9995C8.69183 11.9995 8.82441 11.958 8.93601 11.8806C9.30667 11.6239 12.556 9.30394 12.556 7.13328C12.5725 6.49708 12.3362 5.88027 11.8989 5.41794C11.4615 4.95561 10.8588 4.68544 10.2227 4.66661ZM8.55601 10.5079C7.39534 9.62127 5.88934 8.13461 5.88934 7.13328C5.83867 5.79594 7.83134 5.53328 7.88934 6.96928V7.33328C7.88934 7.51009 7.95958 7.67966 8.0846 7.80468C8.20963 7.9297 8.3792 7.99994 8.55601 7.99994C8.73282 7.99994 8.90239 7.9297 9.02741 7.80468C9.15244 7.67966 9.22267 7.51009 9.22267 7.33328V6.96928C9.28067 5.53461 11.2733 5.79594 11.2227 7.13328C11.2227 8.13328 9.71667 9.62127 8.55601 10.5079ZM9.11334 0.0186075C7.97049 -0.0612538 6.82382 0.105275 5.75091 0.506929C4.67799 0.908582 3.70385 1.53599 2.8944 2.34671C2.08495 3.15743 1.45906 4.13254 1.05908 5.20608C0.659101 6.27963 0.494361 7.42655 0.576006 8.56927C0.869339 12.8053 4.61067 15.9999 9.27801 15.9999H13.2227C14.1064 15.9989 14.9536 15.6474 15.5785 15.0225C16.2034 14.3976 16.5549 13.5503 16.556 12.6666V8.22661C16.5807 6.17162 15.8272 4.18333 14.4467 2.66089C13.0662 1.13844 11.1609 0.194518 9.11334 0.0186075ZM15.2227 12.6666C15.2227 13.197 15.012 13.7058 14.6369 14.0808C14.2618 14.4559 13.7531 14.6666 13.2227 14.6666H9.27801C5.25534 14.6666 2.15601 12.0666 1.90601 8.47727C1.83756 7.52461 1.97462 6.56836 2.3079 5.67328C2.64119 4.77819 3.16291 3.96517 3.83774 3.28926C4.51257 2.61335 5.32477 2.09034 6.21932 1.75563C7.11387 1.42093 8.0699 1.28235 9.02267 1.34927C10.7336 1.50063 12.3239 2.29388 13.4741 3.56964C14.6242 4.84541 15.2489 6.50915 15.2227 8.22661V12.6666Z" fill="black"/>
</g>
<defs>
<clipPath id="clip0_483_13616">
<rect width="16" height="16" fill="white" transform="translate(0.555664)"/>
</clipPath>
</defs>
</svg>
