<svg width="16" height="16" viewBox="0 0 16 16" fill="none" xmlns="http://www.w3.org/2000/svg">
<g clip-path="url(#clip0_483_13745)">
<path d="M8.00033 13.3333C9.41433 13.3317 10.77 12.7693 11.7698 11.7695C12.7697 10.7696 13.3321 9.414 13.3337 8V0.666667C13.3337 0.489856 13.2634 0.320286 13.1384 0.195262C13.0134 0.0702379 12.8438 0 12.667 0C12.4902 0 12.3206 0.0702379 12.1956 0.195262C12.0706 0.320286 12.0003 0.489856 12.0003 0.666667V8C12.0003 9.06087 11.5789 10.0783 10.8288 10.8284C10.0786 11.5786 9.06119 12 8.00033 12C6.93946 12 5.92204 11.5786 5.1719 10.8284C4.42175 10.0783 4.00033 9.06087 4.00033 8V0.666667C4.00033 0.489856 3.93009 0.320286 3.80506 0.195262C3.68004 0.0702379 3.51047 0 3.33366 0C3.15685 0 2.98728 0.0702379 2.86225 0.195262C2.73723 0.320286 2.66699 0.489856 2.66699 0.666667V8C2.66858 9.414 3.23099 10.7696 4.23084 11.7695C5.23069 12.7693 6.58633 13.3317 8.00033 13.3333Z" fill="black"/>
<path d="M15.3333 14.6663H0.666667C0.489856 14.6663 0.320286 14.7365 0.195262 14.8615C0.0702379 14.9865 0 15.1561 0 15.3329C0 15.5097 0.0702379 15.6793 0.195262 15.8043C0.320286 15.9293 0.489856 15.9996 0.666667 15.9996H15.3333C15.5101 15.9996 15.6797 15.9293 15.8047 15.8043C15.9298 15.6793 16 15.5097 16 15.3329C16 15.1561 15.9298 14.9865 15.8047 14.8615C15.6797 14.7365 15.5101 14.6663 15.3333 14.6663Z" fill="black"/>
</g>
<defs>
<clipPath id="clip0_483_13745">
<rect width="16" height="16" fill="white"/>
</clipPath>
</defs>
</svg>
