<svg width="17" height="16" viewBox="0 0 17 16" fill="none" xmlns="http://www.w3.org/2000/svg">
<g clip-path="url(#clip0_483_13667)">
<path d="M16.856 8.2L16.386 4.86667C16.2705 4.07329 15.8742 3.34767 15.2691 2.82164C14.6641 2.29562 13.8904 2.00408 13.0887 2H4.22201C3.33828 2.00106 2.49104 2.35259 1.86615 2.97748C1.24126 3.60237 0.88973 4.4496 0.888672 5.33333L0.888672 8.66667C0.88973 9.5504 1.24126 10.3976 1.86615 11.0225C2.49104 11.6474 3.33828 11.9989 4.22201 12H6.03001L7.30601 14.5853C7.52052 15.0211 7.88451 15.3652 8.33159 15.5549C8.77867 15.7446 9.27905 15.7673 9.74147 15.6188C10.2039 15.4703 10.5975 15.1606 10.8506 14.746C11.1036 14.3315 11.1993 13.8398 11.12 13.3607L10.896 12H13.5553C14.0325 12 14.5042 11.8976 14.9383 11.6996C15.3725 11.5017 15.7591 11.2128 16.0721 10.8525C16.385 10.4923 16.6169 10.069 16.7521 9.61142C16.8874 9.1538 16.9228 8.67248 16.856 8.2ZM4.22201 3.33333H5.55534V10.6667H4.22201C3.69157 10.6667 3.18286 10.456 2.80779 10.0809C2.43272 9.70581 2.22201 9.1971 2.22201 8.66667V5.33333C2.22201 4.8029 2.43272 4.29419 2.80779 3.91912C3.18286 3.54405 3.69157 3.33333 4.22201 3.33333ZM15.0647 9.97867C14.877 10.1946 14.6451 10.3678 14.3847 10.4865C14.1243 10.6052 13.8415 10.6666 13.5553 10.6667H10.1107C10.014 10.6666 9.91843 10.6877 9.83067 10.7283C9.74291 10.7688 9.66502 10.828 9.60242 10.9017C9.53982 10.9754 9.49401 11.0619 9.46815 11.1551C9.44229 11.2482 9.43701 11.3459 9.45267 11.4413L9.80467 13.5747C9.82158 13.6737 9.81642 13.7752 9.78957 13.872C9.76272 13.9688 9.71484 14.0585 9.64934 14.1347C9.57254 14.2175 9.47718 14.2808 9.37111 14.3196C9.26504 14.3583 9.15128 14.3713 9.0392 14.3575C8.92712 14.3437 8.81992 14.3035 8.72641 14.2402C8.6329 14.1769 8.55576 14.0923 8.50134 13.9933L7.04201 11.0387C7.00351 10.9648 6.9515 10.8987 6.88867 10.844V3.33333H13.0887C13.5702 3.33509 14.035 3.50982 14.3985 3.82567C14.7619 4.14151 14.9998 4.57744 15.0687 5.054L15.5393 8.38733C15.5788 8.6711 15.5569 8.96004 15.475 9.23459C15.3931 9.50914 15.2532 9.76289 15.0647 9.97867Z" fill="black"/>
</g>
<defs>
<clipPath id="clip0_483_13667">
<rect width="16" height="16" fill="white" transform="translate(0.888672)"/>
</clipPath>
</defs>
</svg>
