<svg width="17" height="16" viewBox="0 0 17 16" fill="none" xmlns="http://www.w3.org/2000/svg">
<g clip-path="url(#clip0_483_13856)">
<path d="M12.4443 4C10.463 4 9.149 5.48467 8.44434 6.588C7.73967 5.48467 6.42567 4 4.44434 4C3.38347 4 2.36605 4.42143 1.61591 5.17157C0.865763 5.92172 0.444336 6.93913 0.444336 8C0.444336 9.06087 0.865763 10.0783 1.61591 10.8284C2.36605 11.5786 3.38347 12 4.44434 12C6.42567 12 7.73967 10.5153 8.44434 9.412C9.149 10.5153 10.463 12 12.4443 12C13.5052 12 14.5226 11.5786 15.2728 10.8284C16.0229 10.0783 16.4443 9.06087 16.4443 8C16.4443 6.93913 16.0229 5.92172 15.2728 5.17157C14.5226 4.42143 13.5052 4 12.4443 4ZM4.44434 10.6667C3.73709 10.6667 3.05882 10.3857 2.55872 9.88562C2.05862 9.38552 1.77767 8.70724 1.77767 8C1.77767 7.29276 2.05862 6.61448 2.55872 6.11438C3.05882 5.61428 3.73709 5.33333 4.44434 5.33333C6.23967 5.33333 7.36567 7.29667 7.711 8C7.36834 8.70667 6.24967 10.6667 4.44434 10.6667ZM12.4443 10.6667C10.649 10.6667 9.523 8.70333 9.17767 8C9.521 7.29467 10.6397 5.33333 12.4443 5.33333C13.1516 5.33333 13.8299 5.61428 14.33 6.11438C14.8301 6.61448 15.111 7.29276 15.111 8C15.111 8.70724 14.8301 9.38552 14.33 9.88562C13.8299 10.3857 13.1516 10.6667 12.4443 10.6667Z" fill="black"/>
</g>
<defs>
<clipPath id="clip0_483_13856">
<rect width="16" height="16" fill="white" transform="translate(0.444336)"/>
</clipPath>
</defs>
</svg>
