<svg width="17" height="16" viewBox="0 0 17 16" fill="none" xmlns="http://www.w3.org/2000/svg">
<g clip-path="url(#clip0_483_13660)">
<path d="M10.0005 12.0002C9.77345 12.0002 9.54802 12.0387 9.33385 12.1142V12.0002C9.33385 11.8234 9.40409 11.6538 9.52912 11.5288C9.65414 11.4037 9.82371 11.3335 10.0005 11.3335C10.0952 11.3329 10.189 11.3528 10.2753 11.3918C10.3616 11.4308 10.4384 11.488 10.5005 11.5595C10.5577 11.6276 10.6279 11.6836 10.707 11.7241C10.7861 11.7647 10.8725 11.789 10.9612 11.7957C11.0498 11.8023 11.1389 11.7912 11.2232 11.7629C11.3075 11.7346 11.3852 11.6898 11.4519 11.631C11.5186 11.5722 11.5729 11.5007 11.6115 11.4207C11.6502 11.3406 11.6724 11.2536 11.6769 11.1648C11.6815 11.0761 11.6682 10.9873 11.6379 10.9037C11.6076 10.8201 11.5609 10.7434 11.5005 10.6782C11.2319 10.3735 10.8768 10.1579 10.4826 10.06C10.0884 9.96212 9.67379 9.98655 9.29382 10.1301C8.91386 10.2736 8.58659 10.5294 8.35556 10.8635C8.12454 11.1975 8.0007 11.594 8.00052 12.0002V14.0002C8.00066 14.4344 8.14212 14.8568 8.40352 15.2035C8.66492 15.5502 9.03206 15.8025 9.44947 15.9221C9.86689 16.0417 10.3119 16.0223 10.7173 15.8667C11.1227 15.711 11.4664 15.4277 11.6965 15.0595C11.8822 14.7606 11.9872 14.4187 12.0013 14.0671C12.0154 13.7156 11.9382 13.3663 11.7772 13.0535C11.6083 12.7301 11.3526 12.4601 11.0387 12.274C10.7249 12.0879 10.3653 11.9931 10.0005 12.0002ZM10.5665 14.3528C10.5051 14.4513 10.4191 14.5321 10.3169 14.5871C10.2147 14.6422 10.0999 14.6696 9.98392 14.6666C9.8679 14.6637 9.75466 14.6305 9.65539 14.5704C9.55612 14.5103 9.47427 14.4253 9.41793 14.3238C9.36159 14.2223 9.33271 14.1079 9.33416 13.9919C9.3356 13.8758 9.36732 13.7622 9.42616 13.6621C9.48501 13.5621 9.56896 13.4792 9.66969 13.4215C9.77043 13.3639 9.88446 13.3336 10.0005 13.3335C10.1152 13.3272 10.2294 13.3521 10.331 13.4055C10.4327 13.4589 10.518 13.5389 10.5779 13.6368C10.6394 13.7466 10.6707 13.8706 10.6687 13.9964C10.6668 14.1221 10.6315 14.2451 10.5665 14.3528ZM14.6672 10.0002C14.1368 10.0002 13.628 10.2109 13.253 10.586C12.8779 10.961 12.6672 11.4697 12.6672 12.0002V14.0002C12.6672 14.5306 12.8779 15.0393 13.253 15.4144C13.628 15.7895 14.1368 16.0002 14.6672 16.0002C15.1976 16.0002 15.7063 15.7895 16.0814 15.4144C16.4565 15.0393 16.6672 14.5306 16.6672 14.0002V12.0002C16.6672 11.4697 16.4565 10.961 16.0814 10.586C15.7063 10.2109 15.1976 10.0002 14.6672 10.0002ZM15.3339 14.0002C15.3339 14.177 15.2636 14.3466 15.1386 14.4716C15.0136 14.5966 14.844 14.6668 14.6672 14.6668C14.4904 14.6668 14.3208 14.5966 14.1958 14.4716C14.0708 14.3466 14.0005 14.177 14.0005 14.0002V12.0002C14.0005 11.8234 14.0708 11.6538 14.1958 11.5288C14.3208 11.4037 14.4904 11.3335 14.6672 11.3335C14.844 11.3335 15.0136 11.4037 15.1386 11.5288C15.2636 11.6538 15.3339 11.8234 15.3339 12.0002V14.0002ZM8.66719 8.66684H6.00052C5.82371 8.66684 5.65414 8.5966 5.52911 8.47158C5.40409 8.34655 5.33385 8.17699 5.33385 8.00017C5.33385 7.82336 5.40409 7.65379 5.52911 7.52877C5.65414 7.40375 5.82371 7.33351 6.00052 7.33351H8.00052V4.66684C8.00052 4.49003 8.07076 4.32046 8.19578 4.19544C8.32081 4.07041 8.49038 4.00017 8.66719 4.00017C8.844 4.00017 9.01357 4.07041 9.13859 4.19544C9.26362 4.32046 9.33385 4.49003 9.33385 4.66684V8.00017C9.33385 8.17699 9.26362 8.34655 9.13859 8.47158C9.01357 8.5966 8.844 8.66684 8.66719 8.66684ZM16.6672 2.00017V4.00017C16.6672 4.53061 16.4565 5.03932 16.0814 5.41439C15.7063 5.78946 15.1976 6.00017 14.6672 6.00017H12.6672C12.4904 6.00017 12.3208 5.92994 12.1958 5.80491C12.0708 5.67989 12.0005 5.51032 12.0005 5.33351C12.0005 5.1567 12.0708 4.98713 12.1958 4.8621C12.3208 4.73708 12.4904 4.66684 12.6672 4.66684H14.4252C13.8917 3.74626 13.1455 2.96687 12.249 2.3939C11.3525 1.82094 10.3318 1.47108 9.27229 1.37362C8.2128 1.27616 7.14537 1.43392 6.15938 1.83371C5.17338 2.2335 4.2975 2.86368 3.60507 3.67149C2.91263 4.4793 2.42379 5.44124 2.17947 6.47677C1.93515 7.5123 1.94245 8.5913 2.20078 9.62343C2.4591 10.6556 2.96092 11.6108 3.66423 12.4092C4.36753 13.2075 5.25187 13.8258 6.24319 14.2122C6.40797 14.2765 6.54045 14.4037 6.61146 14.5658C6.68247 14.7278 6.68621 14.9114 6.62185 15.0762C6.55749 15.241 6.43031 15.3734 6.26828 15.4444C6.10625 15.5155 5.92264 15.5192 5.75785 15.4548C4.58629 14.9979 3.53896 14.2711 2.70084 13.3336C1.86272 12.3961 1.25742 11.2742 0.934052 10.0589C0.610685 8.84366 0.578361 7.5693 0.839702 6.33921C1.10104 5.10913 1.64869 3.95799 2.4382 2.97918C3.22771 2.00037 4.23685 1.22147 5.38374 0.705671C6.53063 0.189877 7.78296 -0.048281 9.03912 0.0105217C10.2953 0.0693245 11.5199 0.423431 12.6136 1.04411C13.7073 1.66479 14.6392 2.53456 15.3339 3.58284V2.00017C15.3339 1.82336 15.4041 1.65379 15.5291 1.52877C15.6541 1.40375 15.8237 1.33351 16.0005 1.33351C16.1773 1.33351 16.3469 1.40375 16.4719 1.52877C16.5969 1.65379 16.6672 1.82336 16.6672 2.00017Z" fill="black"/>
</g>
<defs>
<clipPath id="clip0_483_13660">
<rect width="16" height="16" fill="white" transform="translate(0.666992)"/>
</clipPath>
</defs>
</svg>
