<svg width="17" height="16" viewBox="0 0 17 16" fill="none" xmlns="http://www.w3.org/2000/svg">
<g clip-path="url(#clip0_483_13696)">
<path d="M11.444 0H6.11068C5.22695 0.00105857 4.37972 0.352588 3.75482 0.97748C3.12993 1.60237 2.7784 2.4496 2.77734 3.33333V15.3333C2.77744 15.4546 2.8106 15.5735 2.87326 15.6773C2.93593 15.7811 3.02572 15.8659 3.13297 15.9225C3.24022 15.9791 3.36087 16.0053 3.48193 15.9984C3.60299 15.9915 3.71988 15.9517 3.82001 15.8833L5.22401 14.924L6.62801 15.8833C6.73894 15.9593 6.87024 15.9999 7.00468 15.9999C7.13912 15.9999 7.27042 15.9593 7.38134 15.8833L8.78134 14.924L10.1813 15.8833C10.2923 15.9594 10.4238 16.0002 10.5583 16.0002C10.6929 16.0002 10.8244 15.9594 10.9353 15.8833L12.3353 14.9247L13.7353 15.8827C13.8354 15.9508 13.9522 15.9905 14.0731 15.9973C14.194 16.0041 14.3145 15.9779 14.4216 15.9214C14.5287 15.865 14.6184 15.7804 14.6811 15.6768C14.7438 15.5732 14.777 15.4544 14.7773 15.3333V3.33333C14.7763 2.4496 14.4248 1.60237 13.7999 0.97748C13.175 0.352588 12.3277 0.00105857 11.444 0V0ZM13.444 14.0667L12.7107 13.5653C12.5996 13.4891 12.4681 13.4483 12.3333 13.4483C12.1986 13.4483 12.0671 13.4891 11.956 13.5653L10.556 14.5247L9.15601 13.5653C9.04502 13.4892 8.91359 13.4485 8.77901 13.4485C8.64443 13.4485 8.513 13.4892 8.40201 13.5653L7.00201 14.5247L5.60201 13.5653C5.49115 13.4895 5.35998 13.449 5.22568 13.449C5.09137 13.449 4.9602 13.4895 4.84934 13.5653L4.11068 14.0667V3.33333C4.11068 2.8029 4.32139 2.29419 4.69646 1.91912C5.07154 1.54405 5.58024 1.33333 6.11068 1.33333H11.444C11.9744 1.33333 12.4832 1.54405 12.8582 1.91912C13.2333 2.29419 13.444 2.8029 13.444 3.33333V14.0667Z" fill="black"/>
<path d="M11.4443 5.33374H6.111C5.74281 5.33374 5.44434 5.63222 5.44434 6.00041C5.44434 6.36859 5.74281 6.66707 6.111 6.66707H11.4443C11.8125 6.66707 12.111 6.36859 12.111 6.00041C12.111 5.63222 11.8125 5.33374 11.4443 5.33374Z" fill="black"/>
<path d="M10.111 8H6.111C5.74281 8 5.44434 8.29848 5.44434 8.66667C5.44434 9.03486 5.74281 9.33334 6.111 9.33334H10.111C10.4792 9.33334 10.7777 9.03486 10.7777 8.66667C10.7777 8.29848 10.4792 8 10.111 8Z" fill="black"/>
</g>
<defs>
<clipPath id="clip0_483_13696">
<rect width="16" height="16" fill="white" transform="translate(0.777344)"/>
</clipPath>
</defs>
</svg>
