<svg width="17" height="16" viewBox="0 0 17 16" fill="none" xmlns="http://www.w3.org/2000/svg">
<g clip-path="url(#clip0_483_13753)">
<path d="M15.6223 0.599857C15.2332 0.229206 14.7164 0.0224609 14.179 0.0224609C13.6416 0.0224609 13.1248 0.229206 12.7357 0.599857L5.26435 8.06651C5.03191 8.02177 4.79571 7.99945 4.55901 7.99985C4.07781 7.99847 3.60112 8.09257 3.15654 8.27669C2.71196 8.46082 2.30833 8.73131 1.96901 9.07251C1.06768 9.97451 0.431679 12.3945 0.243012 13.7085C0.201159 13.9928 0.221044 14.2827 0.301315 14.5586C0.381586 14.8345 0.520357 15.0898 0.708182 15.3073C0.896007 15.5247 1.12848 15.6991 1.38976 15.8186C1.65105 15.9381 1.93502 15.9999 2.22235 15.9998C2.32027 15.9999 2.41807 15.993 2.51501 15.9792C3.82901 15.7905 6.24835 15.1545 7.15101 14.2532C7.57486 13.8281 7.88774 13.3054 8.06212 12.731C8.23649 12.1566 8.26702 11.5481 8.15101 10.9592L15.6223 3.48652C16.0041 3.10319 16.2185 2.58421 16.2185 2.04319C16.2185 1.50217 16.0041 0.98319 15.6223 0.599857ZM6.20701 13.3105C5.72368 13.7938 3.87368 14.4365 2.32435 14.6592C2.2208 14.6741 2.1152 14.6649 2.01584 14.6321C1.91647 14.5994 1.82605 14.5441 1.75168 14.4705C1.67757 14.3965 1.62193 14.3061 1.58927 14.2066C1.5566 14.1071 1.54784 14.0014 1.56368 13.8978C1.78568 12.3492 2.43035 10.4978 2.91168 10.0152C3.35584 9.61514 3.93659 9.40082 4.53414 9.41643C5.13169 9.43204 5.70046 9.67638 6.12314 10.0991C6.54582 10.5217 6.79016 11.0905 6.80576 11.688C6.82137 12.2856 6.60705 12.8663 6.20701 13.3105ZM14.681 2.54385L7.60035 9.62518C7.33727 9.22684 6.99728 8.88504 6.60035 8.61985L13.6783 1.54119C13.813 1.41257 13.9921 1.34081 14.1783 1.34081C14.3646 1.34081 14.5437 1.41257 14.6783 1.54119C14.7445 1.60678 14.797 1.68478 14.8329 1.77071C14.8689 1.85665 14.8875 1.94883 14.8878 2.04197C14.888 2.13511 14.8699 2.22739 14.8344 2.31351C14.7989 2.39963 14.7468 2.47791 14.681 2.54385Z" fill="black"/>
</g>
<defs>
<clipPath id="clip0_483_13753">
<rect width="16" height="16" fill="white" transform="translate(0.222656)"/>
</clipPath>
</defs>
</svg>
