<svg width="17" height="16" viewBox="0 0 17 16" fill="none" xmlns="http://www.w3.org/2000/svg">
<path d="M8.84454 12.6667C8.71269 12.6661 8.58396 12.6265 8.47464 12.5528C8.36532 12.4791 8.28031 12.3746 8.23036 12.2526C8.18041 12.1306 8.16776 11.9965 8.19402 11.8673C8.22027 11.7381 8.28425 11.6195 8.37787 11.5267L11.4445 8.47335C11.507 8.41138 11.5566 8.33764 11.5905 8.2564C11.6243 8.17516 11.6417 8.08803 11.6417 8.00002C11.6417 7.91201 11.6243 7.82487 11.5905 7.74364C11.5566 7.6624 11.507 7.58866 11.4445 7.52669L8.37787 4.47335C8.31538 4.41138 8.26579 4.33764 8.23194 4.2564C8.1981 4.17516 8.18067 4.08803 8.18067 4.00002C8.18067 3.91201 8.1981 3.82487 8.23194 3.74364C8.26579 3.6624 8.31538 3.58866 8.37787 3.52669C8.50278 3.40252 8.67175 3.33282 8.84787 3.33282C9.02399 3.33282 9.19296 3.40252 9.31787 3.52669L12.3779 6.58669C12.7524 6.96169 12.9628 7.47002 12.9628 8.00002C12.9628 8.53002 12.7524 9.03835 12.3779 9.41335L9.31787 12.4734C9.25558 12.5351 9.1817 12.584 9.10048 12.6172C9.01925 12.6504 8.93228 12.6672 8.84454 12.6667Z" fill="black"/>
<path d="M4.17754 12.6666C4.0457 12.6661 3.91697 12.6264 3.80765 12.5527C3.69833 12.479 3.61332 12.3745 3.56336 12.2525C3.51341 12.1305 3.50077 11.9964 3.52703 11.8672C3.55328 11.738 3.61726 11.6195 3.71088 11.5266L7.23754 7.99996L3.71088 4.47329C3.64839 4.41132 3.5988 4.33758 3.56495 4.25634C3.5311 4.1751 3.51368 4.08797 3.51368 3.99996C3.51368 3.91195 3.5311 3.82481 3.56495 3.74357C3.5988 3.66233 3.64839 3.5886 3.71088 3.52663C3.83579 3.40246 4.00475 3.33276 4.18088 3.33276C4.357 3.33276 4.52597 3.40246 4.65088 3.52663L8.65088 7.52663C8.71336 7.5886 8.76296 7.66233 8.7968 7.74357C8.83065 7.82481 8.84808 7.91195 8.84808 7.99996C8.84808 8.08797 8.83065 8.1751 8.7968 8.25634C8.76296 8.33758 8.71336 8.41132 8.65088 8.47329L4.65088 12.4733C4.58858 12.5351 4.51471 12.584 4.43348 12.6171C4.35226 12.6503 4.26528 12.6671 4.17754 12.6666Z" fill="black"/>
</svg>
