<svg width="17" height="16" viewBox="0 0 17 16" fill="none" xmlns="http://www.w3.org/2000/svg">
<g clip-path="url(#clip0_483_13843)">
<path d="M13.5801 15.9993H2.86545C2.41491 16.0003 1.97162 15.8859 1.57787 15.6669C1.18411 15.448 0.85304 15.1318 0.616233 14.7485C0.379426 14.3652 0.244786 13.9276 0.22516 13.4775C0.205533 13.0274 0.301575 12.5797 0.504121 12.1773L5.86212 1.45862C6.06637 1.04565 6.37586 0.693814 6.7594 0.43855C7.14294 0.183287 7.58698 0.0336173 8.04679 0.00462129C8.56559 -0.0283945 9.08265 0.0918328 9.53366 0.350351C9.98468 0.608868 10.3497 0.994269 10.5835 1.45862L15.9415 12.1773C16.1428 12.5799 16.2379 13.0272 16.2178 13.4769C16.1976 13.9266 16.0628 14.3636 15.8263 14.7466C15.5897 15.1295 15.2591 15.4456 14.866 15.6649C14.4729 15.8841 14.0302 15.9992 13.5801 15.9993ZM1.55612 13.3613C1.55892 13.7072 1.69792 14.0382 1.94299 14.2824C2.18807 14.5266 2.51949 14.6644 2.86545 14.666H13.5801C13.9261 14.6644 14.2575 14.5266 14.5026 14.2824C14.7477 14.0382 14.8867 13.7072 14.8895 13.3613C14.8891 13.1571 14.8407 12.9559 14.7481 12.774L9.39145 2.05462C9.2831 1.8374 9.11634 1.65468 8.90991 1.52696C8.70348 1.39925 8.46553 1.33159 8.22279 1.33159C7.98004 1.33159 7.7421 1.39925 7.53566 1.52696C7.32923 1.65468 7.16248 1.8374 7.05412 2.05462L1.69612 12.774C1.60401 12.956 1.55605 13.1572 1.55612 13.3613Z" fill="black"/>
</g>
<defs>
<clipPath id="clip0_483_13843">
<rect width="16" height="16" fill="white" transform="translate(0.222656)"/>
</clipPath>
</defs>
</svg>
