<svg width="17" height="16" viewBox="0 0 17 16" fill="none" xmlns="http://www.w3.org/2000/svg">
<g clip-path="url(#clip0_483_13800)">
<path d="M8.66715 -7.62939e-06C7.21453 2.52901e-05 5.79465 0.431469 4.58757 1.2396C3.3805 2.04774 2.44063 3.19616 1.88715 4.5392C1.33368 5.88225 1.19155 7.35942 1.47878 8.78336C1.766 10.2073 2.46966 11.5139 3.50049 12.5373L6.12915 14.9647C6.80481 15.626 7.71197 15.9975 8.65744 16C9.60292 16.0025 10.512 15.6358 11.1912 14.978L13.8525 12.5187C14.878 11.4931 15.5764 10.1864 15.8594 8.76393C16.1423 7.34143 15.9971 5.86698 15.4421 4.52701C14.887 3.18705 13.9471 2.04176 12.7412 1.23596C11.5353 0.430156 10.1175 3.84099e-05 8.66715 -7.62939e-06V-7.62939e-06ZM12.9285 11.558L10.2725 14.012C9.83577 14.4235 9.25778 14.6516 8.65776 14.6494C8.05774 14.6471 7.48147 14.4147 7.04782 14L4.42449 11.576C3.72679 10.8783 3.21193 10.0193 2.92551 9.07506C2.63908 8.13085 2.58995 7.13056 2.78245 6.16282C2.97494 5.19508 3.40314 4.28975 4.02909 3.52702C4.65505 2.76429 5.45945 2.1677 6.37105 1.7901C7.28264 1.41251 8.27329 1.26556 9.25524 1.36227C10.2372 1.45898 11.1801 1.79637 12.0006 2.34454C12.821 2.89272 13.4935 3.63477 13.9587 4.50496C14.4238 5.37515 14.6671 6.34662 14.6672 7.33333C14.6701 8.11735 14.518 8.89421 14.2196 9.61924C13.9212 10.3443 13.4824 11.0032 12.9285 11.558ZM11.8072 5.10866L9.80715 3.72133C9.47208 3.48979 9.07444 3.36577 8.66715 3.36577C8.25986 3.36577 7.86223 3.48979 7.52715 3.72133L5.52715 5.10866C5.26176 5.29277 5.04491 5.53842 4.89514 5.82461C4.74537 6.11079 4.66715 6.42899 4.66715 6.75199V8.99999C4.66715 9.44202 4.84275 9.86594 5.15531 10.1785C5.46787 10.4911 5.89179 10.6667 6.33382 10.6667H11.0005C11.4425 10.6667 11.8664 10.4911 12.179 10.1785C12.4916 9.86594 12.6672 9.44202 12.6672 8.99999V6.75199C12.6672 6.42899 12.5889 6.11079 12.4392 5.82461C12.2894 5.53842 12.0725 5.29277 11.8072 5.10866ZM11.3338 8.99999C11.3338 9.0884 11.2987 9.17318 11.2362 9.2357C11.1737 9.29821 11.0889 9.33333 11.0005 9.33333H10.0005V7.99999C10.0005 7.82318 9.93025 7.65361 9.80523 7.52859C9.6802 7.40356 9.51063 7.33333 9.33382 7.33333H8.00049C7.82368 7.33333 7.65411 7.40356 7.52908 7.52859C7.40406 7.65361 7.33382 7.82318 7.33382 7.99999V9.33333H6.33382C6.24542 9.33333 6.16063 9.29821 6.09812 9.2357C6.03561 9.17318 6.00049 9.0884 6.00049 8.99999V6.75199C6.00045 6.64429 6.02651 6.53818 6.07643 6.44274C6.12636 6.3473 6.19866 6.26539 6.28715 6.20399L8.28715 4.81666C8.39896 4.73978 8.53146 4.69862 8.66715 4.69862C8.80285 4.69862 8.93535 4.73978 9.04715 4.81666L11.0472 6.20399C11.1356 6.26539 11.208 6.3473 11.2579 6.44274C11.3078 6.53818 11.3339 6.64429 11.3338 6.75199V8.99999Z" fill="black"/>
</g>
<defs>
<clipPath id="clip0_483_13800">
<rect width="16" height="16" fill="white" transform="translate(0.666992)"/>
</clipPath>
</defs>
</svg>
