<svg width="17" height="16" viewBox="0 0 17 16" fill="none" xmlns="http://www.w3.org/2000/svg">
<g clip-path="url(#clip0_482_18062)">
<path d="M10.3603 9.47159L9.165 10.6669L10.3603 11.8623C10.424 11.9238 10.4748 11.9973 10.5097 12.0787C10.5447 12.16 10.5631 12.2475 10.5638 12.336C10.5646 12.4245 10.5477 12.5123 10.5142 12.5942C10.4807 12.6762 10.4312 12.7506 10.3686 12.8132C10.306 12.8758 10.2316 12.9253 10.1496 12.9588C10.0677 12.9923 9.97992 13.0092 9.8914 13.0084C9.80288 13.0077 9.7154 12.9893 9.63406 12.9543C9.55272 12.9194 9.47916 12.8686 9.41766 12.8049L8.22233 11.6096L7.027 12.8049C6.90126 12.9264 6.73286 12.9936 6.55806 12.992C6.38327 12.9905 6.21606 12.9204 6.09245 12.7968C5.96885 12.6732 5.89873 12.506 5.89721 12.3312C5.8957 12.1564 5.96289 11.988 6.08433 11.8623L7.27966 10.6669L6.08433 9.47159C5.96289 9.34586 5.8957 9.17746 5.89721 9.00266C5.89873 8.82786 5.96885 8.66065 6.09245 8.53705C6.21606 8.41344 6.38327 8.34333 6.55806 8.34181C6.73286 8.34029 6.90126 8.40749 7.027 8.52893L8.22233 9.72426L9.41766 8.52893C9.5434 8.40749 9.7118 8.34029 9.8866 8.34181C10.0614 8.34333 10.2286 8.41344 10.3522 8.53705C10.4758 8.66065 10.5459 8.82786 10.5474 9.00266C10.549 9.17746 10.4818 9.34586 10.3603 9.47159ZM14.889 6.99026V12.6669C14.8879 13.5507 14.5364 14.3979 13.9115 15.0228C13.2866 15.6477 12.4394 15.9992 11.5557 16.0003H4.889C4.00527 15.9992 3.15804 15.6477 2.53314 15.0228C1.90825 14.3979 1.55672 13.5507 1.55566 12.6669V3.33359C1.55672 2.44986 1.90825 1.60263 2.53314 0.977739C3.15804 0.352847 4.00527 0.00131808 4.889 0.000259506H7.899C8.51208 -0.00131844 9.11939 0.118651 9.68581 0.353232C10.2522 0.587813 10.7665 0.932352 11.199 1.36693L13.5217 3.69093C13.9565 4.12309 14.3012 4.63723 14.5359 5.20358C14.7707 5.76992 14.8907 6.37721 14.889 6.99026ZM10.2563 2.30959C10.0465 2.10637 9.81095 1.93154 9.55566 1.78959V4.66693C9.55566 4.84374 9.6259 5.01331 9.75093 5.13833C9.87595 5.26335 10.0455 5.33359 10.2223 5.33359H13.0997C12.9576 5.07839 12.7826 4.84302 12.579 4.63359L10.2563 2.30959ZM13.5557 6.99026C13.5557 6.88026 13.5343 6.77493 13.5243 6.66693H10.2223C9.6919 6.66693 9.18319 6.45621 8.80812 6.08114C8.43304 5.70607 8.22233 5.19736 8.22233 4.66693V1.36493C8.11433 1.35493 8.00833 1.33359 7.899 1.33359H4.889C4.35856 1.33359 3.84986 1.54431 3.47478 1.91938C3.09971 2.29445 2.889 2.80316 2.889 3.33359V12.6669C2.889 13.1974 3.09971 13.7061 3.47478 14.0811C3.84986 14.4562 4.35856 14.6669 4.889 14.6669H11.5557C12.0861 14.6669 12.5948 14.4562 12.9699 14.0811C13.3449 13.7061 13.5557 13.1974 13.5557 12.6669V6.99026Z" fill="black"/>
</g>
<defs>
<clipPath id="clip0_482_18062">
<rect width="16" height="16" fill="white" transform="translate(0.222656)"/>
</clipPath>
</defs>
</svg>
