<svg width="16" height="16" viewBox="0 0 16 16" fill="none" xmlns="http://www.w3.org/2000/svg">
<g clip-path="url(#clip0_482_18020)">
<path d="M11.333 15.3332H4.66635C3.78262 15.3322 2.93538 14.9806 2.31049 14.3557C1.6856 13.7309 1.33407 12.8836 1.33301 11.9999V6.96389C1.32766 6.8628 1.30179 6.76385 1.25698 6.67308C1.21216 6.58231 1.14935 6.50161 1.07235 6.43589C0.667265 6.06267 0.361212 5.5947 0.181668 5.07399C0.00212312 4.55327 -0.0452923 3.99612 0.0436787 3.45255C0.321012 1.73322 1.89968 0.666555 4.16101 0.666555H12.565C13.3675 0.658485 14.1471 0.933295 14.7671 1.44276C15.3872 1.95222 15.808 2.66377 15.9557 3.45255C16.0447 3.9966 15.9971 4.55423 15.8172 5.07533C15.6373 5.59642 15.3307 6.06464 14.925 6.43789C14.8485 6.50345 14.7861 6.58389 14.7416 6.67432C14.6972 6.76474 14.6716 6.86326 14.6663 6.96389V11.9999C14.6653 12.8836 14.3138 13.7309 13.6889 14.3557C13.064 14.9806 12.2167 15.3322 11.333 15.3332ZM4.16101 1.99989C2.55168 1.99989 1.53101 2.60722 1.36101 3.66655C1.30487 3.99265 1.33189 4.32763 1.43956 4.64052C1.54724 4.9534 1.73209 5.23407 1.97701 5.45656C2.19061 5.64589 2.36227 5.87779 2.48098 6.13737C2.59969 6.39695 2.66283 6.67847 2.66635 6.96389V11.9999C2.66635 12.5303 2.87706 13.039 3.25213 13.4141C3.6272 13.7892 4.13591 13.9999 4.66635 13.9999H11.333C11.8634 13.9999 12.3722 13.7892 12.7472 13.4141C13.1223 13.039 13.333 12.5303 13.333 11.9999V6.96389C13.3361 6.6784 13.399 6.39673 13.5178 6.13708C13.6365 5.87744 13.8084 5.6456 14.0223 5.45656C14.2673 5.2341 14.4523 4.95346 14.5601 4.64058C14.6679 4.32771 14.695 3.9927 14.639 3.66655C14.5442 3.18936 14.2844 2.76079 13.9051 2.45603C13.5259 2.15127 13.0514 1.98978 12.565 1.99989H4.16101ZM5.33301 7.99989C5.1562 7.99989 4.98663 8.07013 4.86161 8.19515C4.73658 8.32017 4.66635 8.48974 4.66635 8.66656C4.66635 8.84337 4.73658 9.01294 4.86161 9.13796C4.98663 9.26298 5.1562 9.33322 5.33301 9.33322C5.50982 9.33322 5.67939 9.26298 5.80442 9.13796C5.92944 9.01294 5.99968 8.84337 5.99968 8.66656C5.99968 8.48974 5.92944 8.32017 5.80442 8.19515C5.67939 8.07013 5.50982 7.99989 5.33301 7.99989ZM7.99968 10.6666C7.82287 10.6666 7.6533 10.7368 7.52827 10.8618C7.40325 10.9868 7.33301 11.1564 7.33301 11.3332C7.33301 11.51 7.40325 11.6796 7.52827 11.8046C7.6533 11.9297 7.82287 11.9999 7.99968 11.9999C8.17649 11.9999 8.34606 11.9297 8.47108 11.8046C8.59611 11.6796 8.66635 11.51 8.66635 11.3332C8.66635 11.1564 8.59611 10.9868 8.47108 10.8618C8.34606 10.7368 8.17649 10.6666 7.99968 10.6666ZM5.33301 10.6666C5.1562 10.6666 4.98663 10.7368 4.86161 10.8618C4.73658 10.9868 4.66635 11.1564 4.66635 11.3332C4.66635 11.51 4.73658 11.6796 4.86161 11.8046C4.98663 11.9297 5.1562 11.9999 5.33301 11.9999C5.50982 11.9999 5.67939 11.9297 5.80442 11.8046C5.92944 11.6796 5.99968 11.51 5.99968 11.3332C5.99968 11.1564 5.92944 10.9868 5.80442 10.8618C5.67939 10.7368 5.50982 10.6666 5.33301 10.6666Z" fill="black"/>
</g>
<defs>
<clipPath id="clip0_482_18020">
<rect width="16" height="16" fill="white"/>
</clipPath>
</defs>
</svg>
