<svg width="17" height="16" viewBox="0 0 17 16" fill="none" xmlns="http://www.w3.org/2000/svg">
<g clip-path="url(#clip0_483_13882)">
<path d="M16.2767 0.390868C16.1095 0.226123 15.9021 0.107908 15.6752 0.0479234C15.4482 -0.0120613 15.2095 -0.0117356 14.9827 0.0488681C13.3554 0.584679 11.8761 1.49406 10.6634 2.7042L4.34604 9.02087C3.43389 8.52931 2.44902 8.18677 1.42871 8.0062C1.25563 7.98489 1.08108 8.03224 0.942509 8.13811C0.803933 8.24397 0.712355 8.39992 0.687412 8.57252C0.662469 8.74511 0.706147 8.92061 0.80908 9.06137C0.912013 9.20214 1.06601 9.29698 1.23804 9.32554C2.5359 9.56886 3.75836 10.114 4.80671 10.9169L2.33404 13.3902L1.80537 12.8615C1.74387 12.7979 1.67031 12.7471 1.58897 12.7121C1.50764 12.6772 1.42016 12.6588 1.33164 12.658C1.24312 12.6573 1.15533 12.6741 1.0734 12.7077C0.991472 12.7412 0.917037 12.7907 0.854442 12.8533C0.791847 12.9159 0.742345 12.9903 0.708824 13.0722C0.675303 13.1542 0.658436 13.242 0.659205 13.3305C0.659974 13.419 0.678365 13.5065 0.713304 13.5878C0.748244 13.6691 0.799032 13.7427 0.862705 13.8042L2.86271 15.8042C2.9242 15.8679 2.99777 15.9187 3.0791 15.9536C3.16044 15.9885 3.24792 16.0069 3.33644 16.0077C3.42496 16.0085 3.51274 15.9916 3.59467 15.9581C3.67661 15.9246 3.75104 15.8751 3.81364 15.8125C3.87623 15.7499 3.92573 15.6754 3.95925 15.5935C3.99277 15.5116 4.00964 15.4238 4.00887 15.3353C4.0081 15.2467 3.98971 15.1593 3.95477 15.0779C3.91983 14.9966 3.86905 14.923 3.80537 14.8615L3.27671 14.3329L5.74937 11.8595C6.55286 12.9078 7.09804 14.1306 7.34071 15.4289C7.36378 15.5874 7.44318 15.7324 7.56439 15.8372C7.68559 15.942 7.84048 15.9996 8.00071 15.9995C8.03285 15.9997 8.06496 15.9973 8.09671 15.9922C8.27137 15.9669 8.4289 15.8735 8.53475 15.7322C8.6406 15.591 8.68613 15.4136 8.66137 15.2389C8.48153 14.2184 8.13895 13.2334 7.64671 12.3215L13.9634 6.0042C15.1873 4.7743 16.1033 3.27261 16.6367 1.62154C16.6853 1.40269 16.6778 1.1751 16.6149 0.959927C16.552 0.744758 16.4356 0.549003 16.2767 0.390868ZM13.02 5.06087L6.90871 11.1729C6.70642 10.9063 6.48636 10.6538 6.25004 10.4169C6.01308 10.1809 5.76075 9.96084 5.49471 9.7582L11.606 3.64687C12.6521 2.60016 13.9263 1.80976 15.3287 1.33753C14.8553 2.73945 14.0653 4.01349 13.02 5.06087Z" fill="black"/>
</g>
<defs>
<clipPath id="clip0_483_13882">
<rect width="16" height="16" fill="white" transform="translate(0.666992)"/>
</clipPath>
</defs>
</svg>
