<svg width="17" height="16" viewBox="0 0 17 16" fill="none" xmlns="http://www.w3.org/2000/svg">
<g clip-path="url(#clip0_483_13731)">
<path d="M8.667 0C7.08475 0 5.53803 0.469192 4.22243 1.34824C2.90684 2.22729 1.88146 3.47672 1.27596 4.93853C0.670458 6.40034 0.512032 8.00887 0.820714 9.56072C1.1294 11.1126 1.89132 12.538 3.01014 13.6569C4.12896 14.7757 5.55443 15.5376 7.10627 15.8463C8.65812 16.155 10.2667 15.9965 11.7285 15.391C13.1903 14.7855 14.4397 13.7602 15.3188 12.4446C16.1978 11.129 16.667 9.58225 16.667 8C16.6647 5.87897 15.8211 3.84547 14.3213 2.34568C12.8215 0.845886 10.788 0.00229405 8.667 0V0ZM8.667 14.6667C7.34845 14.6667 6.05952 14.2757 4.96319 13.5431C3.86687 12.8106 3.01238 11.7694 2.5078 10.5512C2.00321 9.33305 1.87119 7.99261 2.12843 6.6994C2.38566 5.40619 3.0206 4.21831 3.95295 3.28596C4.8853 2.35361 6.07319 1.71867 7.36639 1.46143C8.6596 1.2042 10 1.33622 11.2182 1.8408C12.4364 2.34539 13.4776 3.19987 14.2101 4.2962C14.9427 5.39253 15.3337 6.68146 15.3337 8C15.3317 9.76752 14.6287 11.4621 13.3789 12.7119C12.1291 13.9617 10.4345 14.6647 8.667 14.6667Z" fill="black"/>
</g>
<defs>
<clipPath id="clip0_483_13731">
<rect width="16" height="16" fill="white" transform="translate(0.666992)"/>
</clipPath>
</defs>
</svg>
