<svg width="17" height="16" viewBox="0 0 17 16" fill="none" xmlns="http://www.w3.org/2000/svg">
<g clip-path="url(#clip0_483_13665)">
<path d="M10.778 0H10.6913C10.393 0.00283454 10.104 0.104675 9.86979 0.289533C9.63558 0.47439 9.4694 0.731795 9.39733 1.02133C9.32015 1.30323 9.15248 1.55195 8.92012 1.72924C8.68777 1.90652 8.4036 2.00256 8.11133 2.00256C7.81906 2.00256 7.53489 1.90652 7.30253 1.72924C7.07018 1.55195 6.90251 1.30323 6.82533 1.02133C6.75326 0.731795 6.58707 0.47439 6.35287 0.289533C6.11866 0.104675 5.82969 0.00283454 5.53133 0L5.44466 0C4.56093 0.00105857 3.7137 0.352588 3.08881 0.97748C2.46392 1.60237 2.11239 2.4496 2.11133 3.33333V14C2.11133 14.5304 2.32204 15.0391 2.69711 15.4142C3.07219 15.7893 3.5809 16 4.11133 16H5.53133C5.82969 15.9972 6.11866 15.8953 6.35287 15.7105C6.58707 15.5256 6.75326 15.2682 6.82533 14.9787C6.90251 14.6968 7.07018 14.4481 7.30253 14.2708C7.53489 14.0935 7.81906 13.9974 8.11133 13.9974C8.4036 13.9974 8.68777 14.0935 8.92012 14.2708C9.15248 14.4481 9.32015 14.6968 9.39733 14.9787C9.4694 15.2682 9.63558 15.5256 9.86979 15.7105C10.104 15.8953 10.393 15.9972 10.6913 16H12.1113C12.6418 16 13.1505 15.7893 13.5255 15.4142C13.9006 15.0391 14.1113 14.5304 14.1113 14V3.33333C14.1103 2.4496 13.7587 1.60237 13.1338 0.97748C12.509 0.352588 11.6617 0.00105857 10.778 0V0ZM12.1113 14.6667L10.6827 14.6247C10.5261 14.0589 10.1872 13.5607 9.71861 13.2072C9.25001 12.8537 8.67785 12.6647 8.09088 12.6694C7.50391 12.6742 6.93492 12.8725 6.47214 13.2337C6.00937 13.5948 5.67867 14.0985 5.53133 14.6667H4.11133C3.93452 14.6667 3.76495 14.5964 3.63992 14.4714C3.5149 14.3464 3.44466 14.1768 3.44466 14V11.3333H4.77799C4.95481 11.3333 5.12438 11.2631 5.2494 11.1381C5.37442 11.013 5.44466 10.8435 5.44466 10.6667C5.44466 10.4899 5.37442 10.3203 5.2494 10.1953C5.12438 10.0702 4.95481 10 4.77799 10H3.44466V3.33333C3.44466 2.8029 3.65538 2.29419 4.03045 1.91912C4.40552 1.54405 4.91423 1.33333 5.44466 1.33333L5.53999 1.37533C5.69614 1.93762 6.03199 2.43336 6.49627 2.7869C6.96055 3.14044 7.52777 3.33235 8.11133 3.33333C8.70277 3.3283 9.27637 3.1302 9.74486 2.76918C10.2134 2.40815 10.5511 1.90396 10.7067 1.33333H10.778C11.3084 1.33333 11.8171 1.54405 12.1922 1.91912C12.5673 2.29419 12.778 2.8029 12.778 3.33333V10H11.4447C11.2679 10 11.0983 10.0702 10.9733 10.1953C10.8482 10.3203 10.778 10.4899 10.778 10.6667C10.778 10.8435 10.8482 11.013 10.9733 11.1381C11.0983 11.2631 11.2679 11.3333 11.4447 11.3333H12.778V14C12.778 14.1768 12.7078 14.3464 12.5827 14.4714C12.4577 14.5964 12.2881 14.6667 12.1113 14.6667Z" fill="black"/>
<path d="M8.77832 10H7.44499C7.26818 10 7.09861 10.0702 6.97358 10.1953C6.84856 10.3203 6.77832 10.4899 6.77832 10.6667C6.77832 10.8435 6.84856 11.0131 6.97358 11.1381C7.09861 11.2631 7.26818 11.3333 7.44499 11.3333H8.77832C8.95513 11.3333 9.1247 11.2631 9.24972 11.1381C9.37474 11.0131 9.44498 10.8435 9.44498 10.6667C9.44498 10.4899 9.37474 10.3203 9.24972 10.1953C9.1247 10.0702 8.95513 10 8.77832 10Z" fill="black"/>
</g>
<defs>
<clipPath id="clip0_483_13665">
<rect width="16" height="16" fill="white" transform="translate(0.111328)"/>
</clipPath>
</defs>
</svg>
