<svg width="17" height="16" viewBox="0 0 17 16" fill="none" xmlns="http://www.w3.org/2000/svg">
<g clip-path="url(#clip0_482_17996)">
<path d="M4.22514 16H13.5551C14.1168 16 14.6693 15.858 15.1613 15.5873C15.6534 15.3166 16.0691 14.9259 16.3699 14.4516C16.6706 13.9773 16.8466 13.4347 16.8816 12.8742C16.9165 12.3136 16.8093 11.7534 16.5698 11.2454L11.9118 1.93336C11.6448 1.35864 11.2195 0.871936 10.6858 0.530293C10.1521 0.18865 9.53203 0.00622745 8.89832 0.00440827C8.26462 0.00258909 7.64352 0.181449 7.10784 0.520022C6.57216 0.858595 6.14409 1.34285 5.87381 1.91603L1.20714 11.2494L1.20181 11.2667C0.966812 11.7745 0.863413 12.3332 0.901143 12.8915C0.938872 13.4497 1.11652 13.9895 1.4177 14.461C1.71889 14.9326 2.13392 15.3207 2.62455 15.5896C3.11519 15.8586 3.66563 15.9997 4.22514 16ZM6.49181 14.6667L8.30314 11.0414C8.35412 10.9291 8.43652 10.8339 8.54039 10.7674C8.64426 10.701 8.76515 10.666 8.88848 10.6667C9.01514 10.6668 9.13902 10.7039 9.24481 10.7736C9.35061 10.8433 9.43369 10.9424 9.48381 11.0587L11.2885 14.6667H6.49181ZM2.40714 11.832L7.07381 2.4907C7.23511 2.14343 7.49271 1.84976 7.816 1.64459C8.13929 1.43942 8.51469 1.33136 8.89758 1.33325C9.28048 1.33515 9.65479 1.44692 9.97603 1.65528C10.2973 1.86365 10.552 2.15985 10.7098 2.5087L15.3685 11.824C15.51 12.1288 15.5726 12.4642 15.5502 12.7995C15.5279 13.1348 15.4215 13.459 15.2408 13.7423C15.0601 14.0256 14.8109 14.2588 14.5163 14.4203C14.2217 14.5819 13.8911 14.6666 13.5551 14.6667H12.7791L10.6885 10.48C10.5302 10.139 10.2782 9.85013 9.96178 9.64707C9.64541 9.44401 9.27778 9.33518 8.90186 9.33329C8.52593 9.3314 8.15723 9.43654 7.83883 9.63641C7.52044 9.83629 7.2655 10.1226 7.10381 10.462L5.00048 14.6667H4.22514C3.8898 14.6668 3.55982 14.5825 3.26555 14.4217C2.97128 14.2609 2.72217 14.0287 2.54114 13.7464C2.3601 13.4641 2.25294 13.1409 2.22953 12.8063C2.20612 12.4718 2.26719 12.1368 2.40714 11.832Z" fill="black"/>
</g>
<defs>
<clipPath id="clip0_482_17996">
<rect width="16" height="16" fill="white" transform="translate(0.888672)"/>
</clipPath>
</defs>
</svg>
