<svg width="17" height="16" viewBox="0 0 17 16" fill="none" xmlns="http://www.w3.org/2000/svg">
<g clip-path="url(#clip0_482_17998)">
<path d="M13.3638 7.99993H10.2218C9.86816 7.99993 9.52902 7.85945 9.27897 7.6094C9.02892 7.35935 8.88845 7.02022 8.88845 6.66659V3.51593C8.88936 3.20925 8.81972 2.90647 8.68493 2.631C8.55015 2.35553 8.35381 2.11474 8.11111 1.92726C7.88114 1.74514 7.61238 1.61831 7.32559 1.55658C7.0388 1.49486 6.74165 1.49988 6.45711 1.57126C4.84089 1.97247 3.41 2.9133 2.4011 4.23817C1.39219 5.56304 0.865698 7.19258 0.908689 8.85731C0.951679 10.522 1.56158 12.1222 2.63752 13.3933C3.71346 14.6643 5.191 15.53 6.82578 15.8473C8.66385 16.1991 10.5669 15.8349 12.1451 14.8292C13.7234 13.8236 14.8575 12.2525 15.3151 10.4379C15.3868 10.153 15.392 9.85546 15.3304 9.56821C15.2688 9.28097 15.142 9.01172 14.9598 8.78126C14.7701 8.5389 14.5279 8.34268 14.2515 8.20735C13.9751 8.07202 13.6716 8.00111 13.3638 7.99993ZM14.0224 10.1119C13.7672 11.1398 13.2435 12.0815 12.5049 12.8406C11.7663 13.5997 10.8393 14.149 9.8188 14.4323C8.79826 14.7156 7.72079 14.7228 6.69658 14.453C5.67238 14.1833 4.73819 13.6464 3.98959 12.8971C3.24098 12.1479 2.70481 11.2133 2.43593 10.1889C2.16704 9.16443 2.17509 8.08697 2.45925 7.06667C2.7434 6.04637 3.29347 5.11985 4.05318 4.38189C4.8129 3.64393 5.75499 3.121 6.78311 2.86659C6.87107 2.84462 6.96295 2.84354 7.0514 2.86346C7.13984 2.88337 7.2224 2.92371 7.29245 2.98126C7.37518 3.04433 7.44226 3.12561 7.48851 3.2188C7.53475 3.31198 7.55891 3.41457 7.55911 3.51859V6.66659C7.55911 7.37384 7.84007 8.05212 8.34016 8.55221C8.84026 9.05231 9.51854 9.33326 10.2258 9.33326H13.3671C13.4721 9.33369 13.5755 9.35791 13.6698 9.4041C13.764 9.45029 13.8465 9.51724 13.9111 9.59993C13.9678 9.67096 14.0073 9.75414 14.0265 9.84296C14.0457 9.93178 14.0441 10.0238 14.0218 10.1119H14.0224Z" fill="black"/>
<path d="M16.6557 4.96413C16.3488 3.83578 15.7525 2.80713 14.926 1.97999C14.0994 1.15284 13.0712 0.555861 11.943 0.248133C11.8248 0.21634 11.7028 0.200202 11.5804 0.200133C11.4042 0.19846 11.2295 0.231712 11.0662 0.297969C10.903 0.364225 10.7545 0.462172 10.6294 0.586151C10.5042 0.710129 10.4049 0.857681 10.3371 1.02028C10.2693 1.18288 10.2344 1.3573 10.2344 1.53347V4.6668C10.2344 5.19723 10.4451 5.70594 10.8202 6.08101C11.1952 6.45609 11.7039 6.6668 12.2344 6.6668H15.3804C15.5862 6.66482 15.7887 6.61543 15.9723 6.52245C16.1559 6.42948 16.3156 6.29543 16.4389 6.13072C16.5623 5.96602 16.646 5.77508 16.6836 5.57276C16.7212 5.37043 16.7117 5.16217 16.6557 4.96413ZM14.9904 5.33347H12.2317C12.0549 5.33347 11.8853 5.26323 11.7603 5.1382C11.6353 5.01318 11.565 4.84361 11.565 4.6668L11.5597 1.53813C11.5646 1.5346 11.5704 1.53253 11.5764 1.53213H11.5937C12.5018 1.77952 13.3291 2.26074 13.9931 2.92776C14.657 3.59478 15.1345 4.42428 15.3777 5.33347H14.9904Z" fill="black"/>
</g>
<defs>
<clipPath id="clip0_482_17998">
<rect width="16" height="16" fill="white" transform="translate(0.888672)"/>
</clipPath>
</defs>
</svg>
