<svg width="17" height="16" viewBox="0 0 17 16" fill="none" xmlns="http://www.w3.org/2000/svg">
<g clip-path="url(#clip0_483_13706)">
<path d="M11.1107 4C11.2875 4 11.4571 4.07024 11.5821 4.19526C11.7071 4.32029 11.7773 4.48986 11.7773 4.66667C11.7773 4.84348 11.7071 5.01305 11.5821 5.13807C11.4571 5.2631 11.2875 5.33333 11.1107 5.33333H5.77734C5.60053 5.33333 5.43096 5.2631 5.30594 5.13807C5.18092 5.01305 5.11068 4.84348 5.11068 4.66667C5.11068 4.48986 5.18092 4.32029 5.30594 4.19526C5.43096 4.07024 5.60053 4 5.77734 4H11.1107ZM16.2487 15.8047C16.1237 15.9296 15.9541 15.9999 15.7773 15.9999C15.6006 15.9999 15.431 15.9296 15.306 15.8047L13.7013 14.2C13.2261 14.5033 12.6744 14.6652 12.1107 14.6667C11.5173 14.6667 10.9373 14.4907 10.444 14.1611C9.95062 13.8314 9.5661 13.3629 9.33904 12.8147C9.11198 12.2665 9.05257 11.6633 9.16832 11.0814C9.28408 10.4995 9.5698 9.9649 9.98936 9.54535C10.4089 9.12579 10.9435 8.84007 11.5254 8.72431C12.1073 8.60855 12.7105 8.66796 13.2587 8.89503C13.8069 9.12209 14.2754 9.50661 14.6051 9.99996C14.9347 10.4933 15.1107 11.0733 15.1107 11.6667C15.1092 12.2304 14.9473 12.7821 14.644 13.2573L16.2487 14.862C16.3737 14.987 16.4439 15.1566 16.4439 15.3333C16.4439 15.5101 16.3737 15.6796 16.2487 15.8047ZM12.1107 13.3333C12.4403 13.3333 12.7625 13.2356 13.0366 13.0525C13.3107 12.8693 13.5243 12.609 13.6505 12.3045C13.7766 11.9999 13.8096 11.6648 13.7453 11.3415C13.681 11.0182 13.5223 10.7212 13.2892 10.4882C13.0561 10.2551 12.7591 10.0963 12.4358 10.032C12.1125 9.96772 11.7774 10.0007 11.4729 10.1269C11.1683 10.253 10.908 10.4666 10.7249 10.7407C10.5418 11.0148 10.444 11.337 10.444 11.6667C10.444 12.1087 10.6196 12.5326 10.9322 12.8452C11.2447 13.1577 11.6686 13.3333 12.1107 13.3333ZM9.11068 14.6667H5.11068C4.58024 14.6667 4.07154 14.456 3.69646 14.0809C3.32139 13.7058 3.11068 13.1971 3.11068 12.6667V3.33333C3.11068 2.8029 3.32139 2.29419 3.69646 1.91912C4.07154 1.54405 4.58024 1.33333 5.11068 1.33333H13.1107C13.2875 1.33333 13.4571 1.40357 13.5821 1.5286C13.7071 1.65362 13.7773 1.82319 13.7773 2V7.33333C13.7773 7.51014 13.8476 7.67971 13.9726 7.80474C14.0976 7.92976 14.2672 8 14.444 8C14.6208 8 14.7904 7.92976 14.9154 7.80474C15.0404 7.67971 15.1107 7.51014 15.1107 7.33333V2C15.1107 1.46957 14.9 0.960859 14.5249 0.585786C14.1498 0.210714 13.6411 0 13.1107 0L5.11068 0C4.22695 0.00105857 3.37972 0.352588 2.75482 0.97748C2.12993 1.60237 1.7784 2.4496 1.77734 3.33333V12.6667C1.7784 13.5504 2.12993 14.3976 2.75482 15.0225C3.37972 15.6474 4.22695 15.9989 5.11068 16H9.11068C9.28749 16 9.45706 15.9298 9.58208 15.8047C9.70711 15.6797 9.77734 15.5101 9.77734 15.3333C9.77734 15.1565 9.70711 14.987 9.58208 14.8619C9.45706 14.7369 9.28749 14.6667 9.11068 14.6667Z" fill="black"/>
</g>
<defs>
<clipPath id="clip0_483_13706">
<rect width="16" height="16" fill="white" transform="translate(0.444336)"/>
</clipPath>
</defs>
</svg>
