<svg width="17" height="16" viewBox="0 0 17 16" fill="none" xmlns="http://www.w3.org/2000/svg">
<g clip-path="url(#clip0_483_13835)">
<path d="M16.4444 4.99959C16.4462 4.07072 16.1887 3.15979 15.7009 2.3693C15.2132 1.57882 14.5145 0.940143 13.6834 0.525155C12.8524 0.110167 11.9221 -0.0646657 10.9971 0.0203299C10.0721 0.105325 9.18924 0.446776 8.44777 1.00626C7.84846 0.554363 7.1551 0.243196 6.41911 0.0958384C5.68313 -0.0515193 4.92341 -0.0312859 4.19632 0.155038C3.46922 0.341361 2.79341 0.688994 2.219 1.17215C1.64459 1.6553 1.18633 2.26158 0.878206 2.94602C0.570086 3.63045 0.420014 4.37547 0.43912 5.12581C0.458227 5.87616 0.646023 6.61258 0.988578 7.28044C1.33113 7.9483 1.81966 8.53047 2.41791 8.98377C3.01617 9.43706 3.7088 9.74985 4.44444 9.89893V12.6663H3.1111C2.93429 12.6663 2.76472 12.7365 2.6397 12.8615C2.51468 12.9865 2.44444 13.1561 2.44444 13.3329C2.44444 13.5097 2.51468 13.6793 2.6397 13.8043C2.76472 13.9294 2.93429 13.9996 3.1111 13.9996H4.44444V15.3329C4.44444 15.5097 4.51468 15.6793 4.6397 15.8043C4.76472 15.9294 4.93429 15.9996 5.1111 15.9996C5.28792 15.9996 5.45748 15.9294 5.58251 15.8043C5.70753 15.6793 5.77777 15.5097 5.77777 15.3329V13.9996H7.1111C7.28792 13.9996 7.45748 13.9294 7.58251 13.8043C7.70753 13.6793 7.77777 13.5097 7.77777 13.3329C7.77777 13.1561 7.70753 12.9865 7.58251 12.8615C7.45748 12.7365 7.28792 12.6663 7.1111 12.6663H5.77777V9.98359C6.74546 9.92139 7.67371 9.57698 8.44777 8.99293C9.22031 9.57504 10.1459 9.9191 11.1111 9.98293V12.6663H9.77777C9.60096 12.6663 9.43139 12.7365 9.30637 12.8615C9.18134 12.9865 9.1111 13.1561 9.1111 13.3329C9.1111 13.5097 9.18134 13.6793 9.30637 13.8043C9.43139 13.9294 9.60096 13.9996 9.77777 13.9996H11.1111V15.3329C11.1111 15.5097 11.1813 15.6793 11.3064 15.8043C11.4314 15.9294 11.601 15.9996 11.7778 15.9996C11.9546 15.9996 12.1242 15.9294 12.2492 15.8043C12.3742 15.6793 12.4444 15.5097 12.4444 15.3329V13.9996H13.7778C13.9546 13.9996 14.1242 13.9294 14.2492 13.8043C14.3742 13.6793 14.4444 13.5097 14.4444 13.3329C14.4444 13.1561 14.3742 12.9865 14.2492 12.8615C14.1242 12.7365 13.9546 12.6663 13.7778 12.6663H12.4444V9.89893C13.5729 9.66691 14.587 9.05294 15.3156 8.1605C16.0442 7.26805 16.4429 6.1517 16.4444 4.99959ZM15.1111 4.99959C15.1111 5.72479 14.8961 6.4337 14.4932 7.03668C14.0903 7.63966 13.5176 8.10963 12.8476 8.38715C12.1776 8.66467 11.4404 8.73728 10.7291 8.59581C10.0178 8.45433 9.36451 8.10511 8.85171 7.59232C8.33892 7.07953 7.9897 6.42619 7.84823 5.71492C7.70675 5.00366 7.77936 4.26642 8.05688 3.59642C8.3344 2.92642 8.80437 2.35377 9.40735 1.95087C10.0103 1.54797 10.7192 1.33293 11.4444 1.33293C12.4166 1.33398 13.3486 1.72063 14.036 2.40804C14.7234 3.09544 15.11 4.02746 15.1111 4.99959ZM1.77777 4.99959C1.77661 4.33491 1.95647 3.68245 2.29807 3.11226C2.63966 2.54207 3.13008 2.07566 3.71669 1.7631C4.3033 1.45053 4.96395 1.30362 5.62774 1.33812C6.29153 1.37262 6.93339 1.58723 7.48444 1.95893C6.81033 2.82919 6.44452 3.89878 6.44452 4.99959C6.44452 6.1004 6.81033 7.17 7.48444 8.04026C6.93339 8.41195 6.29153 8.62656 5.62774 8.66107C4.96395 8.69557 4.3033 8.54865 3.71669 8.23609C3.13008 7.92353 2.63966 7.45712 2.29807 6.88692C1.95647 6.31673 1.77661 5.66428 1.77777 4.99959Z" fill="black"/>
</g>
<defs>
<clipPath id="clip0_483_13835">
<rect width="16" height="16" fill="white" transform="translate(0.444336)"/>
</clipPath>
</defs>
</svg>
