<svg width="17" height="16" viewBox="0 0 17 16" fill="none" xmlns="http://www.w3.org/2000/svg">
<g clip-path="url(#clip0_483_13698)">
<path d="M15.9476 11.0547L13.7536 8.86069C13.6924 8.79557 13.6188 8.74341 13.5371 8.70729C13.4554 8.67118 13.3673 8.65186 13.278 8.65047C13.1886 8.64908 13.0999 8.66566 13.0172 8.69922C12.9344 8.73278 12.8592 8.78263 12.796 8.84582C12.7329 8.90901 12.6831 8.98424 12.6496 9.06705C12.6161 9.14986 12.5996 9.23856 12.601 9.32788C12.6025 9.4172 12.6219 9.50532 12.658 9.587C12.6942 9.66868 12.7464 9.74225 12.8116 9.80336L14.3382 11.3327C13.5083 11.3346 12.6864 11.1704 11.9209 10.8498C11.1554 10.5292 10.4618 10.0587 9.88091 9.46602C9.81641 9.40662 9.74062 9.36078 9.65806 9.33123C9.5755 9.30167 9.48784 9.28901 9.40029 9.29398C9.31274 9.29895 9.22708 9.32147 9.1484 9.36018C9.06971 9.3989 8.99961 9.45303 8.94225 9.51936L8.93358 9.53269C8.8215 9.66307 8.76412 9.83172 8.77344 10.0034C8.78276 10.1751 8.85805 10.3365 8.98358 10.454C9.68344 11.1618 10.518 11.7222 11.438 12.1021C12.3581 12.4821 13.3449 12.6738 14.3402 12.666L12.8116 14.1947C12.7419 14.2546 12.6854 14.3283 12.6456 14.4111C12.6057 14.4939 12.5834 14.584 12.5801 14.6758C12.5767 14.7676 12.5924 14.8592 12.6261 14.9446C12.6598 15.0301 12.7108 15.1077 12.7759 15.1725C12.841 15.2374 12.9188 15.288 13.0044 15.3214C13.0901 15.3547 13.1816 15.37 13.2734 15.3662C13.3652 15.3625 13.4553 15.3398 13.5379 15.2996C13.6205 15.2594 13.694 15.2026 13.7536 15.1327L15.9476 12.9387C16.1971 12.6887 16.3373 12.3499 16.3373 11.9967C16.3373 11.6435 16.1971 11.3047 15.9476 11.0547Z" fill="black"/>
<path d="M14.3376 4.66638L12.8109 6.19304C12.7979 6.21059 12.7859 6.22884 12.7749 6.24771C12.6673 6.37888 12.6143 6.54637 12.6267 6.71556C12.6391 6.88474 12.7161 7.04268 12.8417 7.15672C12.9673 7.27076 13.1319 7.33217 13.3015 7.32826C13.4711 7.32435 13.6327 7.25541 13.7529 7.13571L14.8902 5.99971L15.9476 4.94304C16.1263 4.76288 16.25 4.53544 16.3039 4.28744C16.3579 4.03945 16.34 3.7812 16.2522 3.54304C16.1875 3.36074 16.0832 3.19501 15.9469 3.05771L13.7529 0.866376C13.692 0.800249 13.6184 0.74711 13.5365 0.710154C13.4546 0.673199 13.366 0.653189 13.2762 0.651327C13.1863 0.649466 13.097 0.665791 13.0136 0.699322C12.9303 0.732853 12.8545 0.782897 12.791 0.846446C12.7274 0.909996 12.6774 0.985738 12.6438 1.06912C12.6103 1.1525 12.594 1.24181 12.5958 1.33166C12.5977 1.42151 12.6177 1.51006 12.6547 1.59199C12.6916 1.67391 12.7448 1.74751 12.8109 1.80838L14.3396 3.33638C11.0509 3.34438 9.24824 5.11904 7.61357 6.98571C6.11224 5.29104 4.33291 3.59971 1.32425 3.36371L1.00358 3.33304C0.826769 3.33304 0.6572 3.40328 0.532176 3.5283C0.407152 3.65333 0.336914 3.8229 0.336914 3.99971C0.340327 4.17545 0.411661 4.34304 0.535953 4.46734C0.660245 4.59163 0.827838 4.66296 1.00358 4.66638C1.05158 4.66638 1.19491 4.68838 1.19491 4.68838C3.79224 4.88504 5.28291 6.34771 6.73291 7.99971C5.29158 9.64371 3.81091 11.133 1.23491 11.3064L0.968247 11.3204C0.792762 11.3313 0.628819 11.4116 0.512484 11.5434C0.39615 11.6752 0.336952 11.8479 0.347914 12.0234C0.358876 12.1989 0.439101 12.3628 0.570939 12.4791C0.702776 12.5955 0.875428 12.6547 1.05091 12.6437C1.15491 12.639 1.32425 12.635 1.40758 12.6284C4.75424 12.3704 6.56957 10.2284 8.18824 8.35571C9.8229 6.46638 11.3669 4.67838 14.3376 4.66638Z" fill="black"/>
</g>
<defs>
<clipPath id="clip0_483_13698">
<rect width="16" height="16" fill="white" transform="translate(0.333008)"/>
</clipPath>
</defs>
</svg>
