<svg width="17" height="16" viewBox="0 0 17 16" fill="none" xmlns="http://www.w3.org/2000/svg">
<g clip-path="url(#clip0_483_13854)">
<path d="M14.9777 3.71938L10.311 0.570043C9.76049 0.195641 9.1101 -0.00456238 8.44434 -0.00456238C7.77857 -0.00456238 7.12819 0.195641 6.57767 0.570043L1.911 3.71938C1.45911 4.02483 1.08907 4.4365 0.833353 4.91829C0.577638 5.40008 0.44406 5.93726 0.444336 6.48271V12.6667C0.445395 13.5504 0.796924 14.3977 1.42182 15.0226C2.04671 15.6475 2.89394 15.999 3.77767 16H13.111C13.9947 15.999 14.842 15.6475 15.4669 15.0226C16.0917 14.3977 16.4433 13.5504 16.4443 12.6667V6.48271C16.4446 5.93726 16.311 5.40008 16.0553 4.91829C15.7996 4.4365 15.4296 4.02483 14.9777 3.71938ZM15.111 12.6667C15.111 13.1971 14.9003 13.7059 14.5252 14.0809C14.1501 14.456 13.6414 14.6667 13.111 14.6667H3.77767C3.24724 14.6667 2.73853 14.456 2.36346 14.0809C1.98838 13.7059 1.77767 13.1971 1.77767 12.6667V6.48271C1.77765 6.15532 1.858 5.83294 2.01167 5.54385C2.16533 5.25477 2.38762 5.00783 2.659 4.82471L7.32567 1.67538C7.65566 1.45119 8.0454 1.33132 8.44434 1.33132C8.84328 1.33132 9.23301 1.45119 9.563 1.67538L14.2297 4.82471C14.5011 5.00783 14.7233 5.25477 14.877 5.54385C15.0307 5.83294 15.111 6.15532 15.111 6.48271V12.6667ZM8.44434 4.67071C7.6525 4.67061 6.87845 4.90554 6.22023 5.34572C5.56202 5.78591 5.04926 6.41155 4.74691 7.14339C4.44457 7.87524 4.36623 8.68035 4.52184 9.45675C4.67744 10.2332 5.05999 10.9459 5.621 11.5047L6.837 12.694C7.26789 13.1113 7.84419 13.3446 8.444 13.3446C9.04382 13.3446 9.62012 13.1113 10.051 12.694L11.273 11.4994C11.8325 10.94 12.2135 10.2272 12.3679 9.4512C12.5223 8.67522 12.4431 7.87087 12.1403 7.13991C11.8375 6.40895 11.3248 5.7842 10.6669 5.34468C10.009 4.90516 9.23553 4.67062 8.44434 4.67071ZM10.335 10.5514L9.11834 11.7414C8.93753 11.9165 8.6957 12.0144 8.444 12.0144C8.19231 12.0144 7.95048 11.9165 7.76967 11.7414L6.55834 10.5567C6.18564 10.184 5.93176 9.70918 5.82876 9.19225C5.72575 8.67533 5.77826 8.13947 5.97963 7.65236C6.181 7.16526 6.52221 6.74875 6.96016 6.45546C7.39811 6.16216 7.91316 6.00523 8.44025 6.00448C8.96733 6.00374 9.48282 6.15922 9.9216 6.45127C10.3604 6.74333 10.7028 7.15887 10.9055 7.64541C11.1083 8.13194 11.1623 8.66765 11.0607 9.18487C10.9592 9.70208 10.7066 10.1776 10.335 10.5514ZM9.111 8.66671C9.111 8.79856 9.0719 8.92746 8.99865 9.03709C8.9254 9.14672 8.82128 9.23217 8.69946 9.28263C8.57764 9.33309 8.4436 9.34629 8.31428 9.32057C8.18496 9.29484 8.06617 9.23135 7.97293 9.13811C7.8797 9.04488 7.8162 8.92609 7.79048 8.79677C7.76476 8.66745 7.77796 8.53341 7.82842 8.41159C7.87888 8.28977 7.96432 8.18565 8.07396 8.1124C8.18359 8.03914 8.31248 8.00004 8.44434 8.00004C8.62115 8.00004 8.79072 8.07028 8.91574 8.19531C9.04077 8.32033 9.111 8.4899 9.111 8.66671Z" fill="black"/>
</g>
<defs>
<clipPath id="clip0_483_13854">
<rect width="16" height="16" fill="white" transform="translate(0.444336)"/>
</clipPath>
</defs>
</svg>
