<svg width="17" height="16" viewBox="0 0 17 16" fill="none" xmlns="http://www.w3.org/2000/svg">
<g clip-path="url(#clip0_482_17966)">
<path d="M8.21873 10.9747C7.31836 9.74495 6.49779 8.45875 5.76206 7.124C6.77673 5.13933 7.66673 2.79267 7.66673 0.666667C7.66673 0.489856 7.59649 0.320286 7.47146 0.195262C7.34644 0.0702379 7.17687 0 7.00006 0C6.82325 0 6.65368 0.0702379 6.52866 0.195262C6.40363 0.320286 6.33339 0.489856 6.33339 0.666667C6.23857 2.39239 5.78564 4.0795 5.00339 5.62067C4.21904 4.07993 3.76383 2.39284 3.66673 0.666667C3.66673 0.489856 3.59649 0.320286 3.47146 0.195262C3.34644 0.0702379 3.17687 0 3.00006 0C2.82325 0 2.65368 0.0702379 2.52865 0.195262C2.40363 0.320286 2.33339 0.489856 2.33339 0.666667C2.33339 2.78267 3.22806 5.13333 4.24539 7.12333C3.51226 8.4613 2.68926 9.74803 1.78206 10.9747C1.43247 11.1528 1.12666 11.4061 0.886588 11.7164C0.646516 12.0267 0.478139 12.3864 0.39355 12.7695C0.308961 13.1526 0.310257 13.5497 0.397347 13.9323C0.484437 14.3148 0.655159 14.6733 0.897253 14.9821C1.13935 15.2908 1.4468 15.5422 1.79755 15.718C2.14829 15.8938 2.53362 15.9898 2.92586 15.999C3.31809 16.0082 3.70751 15.9305 4.06614 15.7714C4.42476 15.6122 4.74371 15.3757 5.00006 15.0787C5.25657 15.3749 5.57544 15.6107 5.93382 15.7693C6.2922 15.9278 6.68121 16.005 7.07296 15.9955C7.46471 15.986 7.84951 15.89 8.19977 15.7142C8.55003 15.5385 8.85708 15.2875 9.09891 14.9791C9.34074 14.6708 9.51137 14.3128 9.59855 13.9307C9.68573 13.5487 9.68732 13.1521 9.6032 12.7693C9.51907 12.3866 9.35132 12.0272 9.11196 11.7169C8.8726 11.4067 8.56757 11.1532 8.21873 10.9747ZM3.00006 14.6667C2.73635 14.6667 2.47856 14.5885 2.2593 14.442C2.04003 14.2955 1.86914 14.0872 1.76822 13.8436C1.6673 13.5999 1.6409 13.3319 1.69235 13.0732C1.74379 12.8146 1.87078 12.577 2.05725 12.3905C2.24372 12.2041 2.4813 12.0771 2.73994 12.0256C2.99858 11.9742 3.26667 12.0006 3.5103 12.1015C3.75394 12.2024 3.96218 12.3733 4.10869 12.5926C4.25519 12.8118 4.33339 13.0696 4.33339 13.3333C4.33339 13.687 4.19292 14.0261 3.94287 14.2761C3.69282 14.5262 3.35368 14.6667 3.00006 14.6667ZM3.58873 10.7367C3.97873 10.174 4.48006 9.40933 5.00339 8.50867C5.52606 9.40867 6.02606 10.1753 6.41473 10.736C5.86462 10.8625 5.3691 11.1609 5.00006 11.588C4.63165 11.1619 4.13746 10.8638 3.58873 10.7367ZM7.00006 14.6667C6.73635 14.6667 6.47857 14.5885 6.2593 14.442C6.04003 14.2955 5.86914 14.0872 5.76822 13.8436C5.6673 13.5999 5.6409 13.3319 5.69235 13.0732C5.74379 12.8146 5.87078 12.577 6.05725 12.3905C6.24372 12.2041 6.4813 12.0771 6.73994 12.0256C6.99858 11.9742 7.26667 12.0006 7.5103 12.1015C7.75394 12.2024 7.96218 12.3733 8.10869 12.5926C8.25519 12.8118 8.33339 13.0696 8.33339 13.3333C8.33339 13.687 8.19292 14.0261 7.94287 14.2761C7.69282 14.5262 7.35368 14.6667 7.00006 14.6667ZM12.3334 4V5.33333H15.6667C15.8435 5.33333 16.0131 5.40357 16.1381 5.5286C16.2632 5.65362 16.3334 5.82319 16.3334 6C16.3334 6.17681 16.2632 6.34638 16.1381 6.4714C16.0131 6.59643 15.8435 6.66667 15.6667 6.66667H12.3334V8H15.6667C15.8435 8 16.0131 8.07024 16.1381 8.19526C16.2632 8.32029 16.3334 8.48986 16.3334 8.66667C16.3334 8.84348 16.2632 9.01305 16.1381 9.13807C16.0131 9.2631 15.8435 9.33333 15.6667 9.33333H12.3334V10.6667H15.6667C15.8435 10.6667 16.0131 10.7369 16.1381 10.8619C16.2632 10.987 16.3334 11.1565 16.3334 11.3333C16.3334 11.5101 16.2632 11.6797 16.1381 11.8047C16.0131 11.9298 15.8435 12 15.6667 12H12.3334V15.3333C12.3334 15.5101 12.2632 15.6797 12.1381 15.8047C12.0131 15.9298 11.8435 16 11.6667 16C11.4899 16 11.3203 15.9298 11.1953 15.8047C11.0703 15.6797 11.0001 15.5101 11.0001 15.3333V3.33333C11.0011 2.4496 11.3526 1.60237 11.9775 0.97748C12.6024 0.352588 13.4497 0.00105857 14.3334 0L15.6667 0C15.8435 0 16.0131 0.0702379 16.1381 0.195262C16.2632 0.320286 16.3334 0.489856 16.3334 0.666667C16.3334 0.843478 16.2632 1.01305 16.1381 1.13807C16.0131 1.2631 15.8435 1.33333 15.6667 1.33333H14.3334C13.9212 1.33504 13.5196 1.46406 13.1836 1.70273C12.8475 1.94139 12.5934 2.27806 12.4561 2.66667H15.6667C15.8435 2.66667 16.0131 2.7369 16.1381 2.86193C16.2632 2.98695 16.3334 3.15652 16.3334 3.33333C16.3334 3.51014 16.2632 3.67971 16.1381 3.80474C16.0131 3.92976 15.8435 4 15.6667 4H12.3334Z" fill="black"/>
</g>
<defs>
<clipPath id="clip0_482_17966">
<rect width="16" height="16" fill="white" transform="translate(0.333008)"/>
</clipPath>
</defs>
</svg>
