<svg width="17" height="16" viewBox="0 0 17 16" fill="none" xmlns="http://www.w3.org/2000/svg">
<g clip-path="url(#clip0_483_13811)">
<path d="M15.4443 11.3336C15.2675 11.3336 15.0979 11.4038 14.9729 11.5288C14.8479 11.6538 14.7776 11.8234 14.7776 12.0002V13.7242L12.7816 11.7282C14.2443 10.1669 15.4443 8.3649 15.4443 6.65823C15.4811 5.64684 15.1161 4.66198 14.4291 3.91884C13.742 3.17571 12.7888 2.73472 11.7776 2.69223C11.1763 2.70006 10.5865 2.85871 10.0623 3.15362C9.53819 3.44854 9.09646 3.87029 8.77762 4.38023C8.45877 3.87029 8.01704 3.44854 7.4929 3.15362C6.96876 2.85871 6.37898 2.70006 5.77762 2.69223C5.21224 2.69388 4.6561 2.83566 4.15895 3.1049L1.24895 0.195564C1.12321 0.0741254 0.954812 0.00692911 0.780014 0.00844805C0.605217 0.009967 0.438008 0.0800796 0.314403 0.203685C0.190797 0.32729 0.120685 0.494499 0.119166 0.669297C0.117647 0.844095 0.184843 1.0125 0.306282 1.13823L3.11095 3.94356C2.46085 4.69808 2.10566 5.6623 2.11095 6.65823C2.11095 9.18556 4.74495 11.9249 6.95428 13.7756C7.46476 14.2051 8.11048 14.4406 8.77762 14.4406C9.44476 14.4406 10.0905 14.2051 10.6009 13.7756C11.0063 13.4356 11.4263 13.0656 11.8416 12.6729L13.8349 14.6669H12.1109C11.9341 14.6669 11.7646 14.7371 11.6395 14.8622C11.5145 14.9872 11.4443 15.1568 11.4443 15.3336C11.4443 15.5104 11.5145 15.6799 11.6395 15.805C11.7646 15.93 11.9341 16.0002 12.1109 16.0002H14.7776C15.1312 16.0002 15.4704 15.8598 15.7204 15.6097C15.9705 15.3597 16.1109 15.0205 16.1109 14.6669V12.0002C16.1109 11.8234 16.0407 11.6538 15.9157 11.5288C15.7907 11.4038 15.6211 11.3336 15.4443 11.3336ZM9.74428 12.7549C9.47043 12.9756 9.12931 13.0959 8.77762 13.0959C8.42592 13.0959 8.08481 12.9756 7.81095 12.7549C5.03562 10.4289 3.44428 8.2069 3.44428 6.65823C3.40775 6.00047 3.63239 5.35488 4.06934 4.86187C4.5063 4.36886 5.12023 4.06831 5.77762 4.02556C6.435 4.06831 7.04893 4.36886 7.48589 4.86187C7.92284 5.35488 8.14748 6.00047 8.11095 6.65823C8.11095 6.83504 8.18119 7.00461 8.30621 7.12964C8.43124 7.25466 8.60081 7.3249 8.77762 7.3249C8.95443 7.3249 9.124 7.25466 9.24902 7.12964C9.37405 7.00461 9.44428 6.83504 9.44428 6.65823C9.40775 6.00047 9.63239 5.35488 10.0693 4.86187C10.5063 4.36886 11.1202 4.06831 11.7776 4.02556C12.435 4.06831 13.0489 4.36886 13.4859 4.86187C13.9228 5.35488 14.1475 6.00047 14.1109 6.65823C14.1109 8.20623 12.519 10.4282 9.74428 12.7549Z" fill="black"/>
</g>
<defs>
<clipPath id="clip0_483_13811">
<rect width="16" height="16" fill="white" transform="translate(0.111328)"/>
</clipPath>
</defs>
</svg>
