<svg width="17" height="16" viewBox="0 0 17 16" fill="none" xmlns="http://www.w3.org/2000/svg">
<g clip-path="url(#clip0_482_18000)">
<path d="M12.9997 0.666687H3.66634C2.78261 0.667746 1.93538 1.01928 1.31049 1.64417C0.685596 2.26906 0.334066 3.11629 0.333008 4.00002L0.333008 12C0.334066 12.8838 0.685596 13.731 1.31049 14.3559C1.93538 14.9808 2.78261 15.3323 3.66634 15.3334H12.9997C13.8834 15.3323 14.7306 14.9808 15.3555 14.3559C15.9804 13.731 16.332 12.8838 16.333 12V4.00002C16.332 3.11629 15.9804 2.26906 15.3555 1.64417C14.7306 1.01928 13.8834 0.667746 12.9997 0.666687ZM3.66634 2.00002H12.9997C13.5301 2.00002 14.0388 2.21073 14.4139 2.58581C14.789 2.96088 14.9997 3.46959 14.9997 4.00002V4.66669H1.66634V4.00002C1.66634 3.46959 1.87705 2.96088 2.25213 2.58581C2.6272 2.21073 3.13591 2.00002 3.66634 2.00002ZM12.9997 14H3.66634C3.13591 14 2.6272 13.7893 2.25213 13.4142C1.87705 13.0392 1.66634 12.5305 1.66634 12V6.00002H14.9997V12C14.9997 12.5305 14.789 13.0392 14.4139 13.4142C14.0388 13.7893 13.5301 14 12.9997 14ZM12.9997 8.66669C12.9997 8.8435 12.9294 9.01307 12.8044 9.13809C12.6794 9.26312 12.5098 9.33335 12.333 9.33335H4.33301C4.1562 9.33335 3.98663 9.26312 3.8616 9.13809C3.73658 9.01307 3.66634 8.8435 3.66634 8.66669C3.66634 8.48988 3.73658 8.32031 3.8616 8.19528C3.98663 8.07026 4.1562 8.00002 4.33301 8.00002H12.333C12.5098 8.00002 12.6794 8.07026 12.8044 8.19528C12.9294 8.32031 12.9997 8.48988 12.9997 8.66669ZM10.333 11.3334C10.333 11.5102 10.2628 11.6797 10.1377 11.8048C10.0127 11.9298 9.84315 12 9.66634 12H4.33301C4.1562 12 3.98663 11.9298 3.8616 11.8048C3.73658 11.6797 3.66634 11.5102 3.66634 11.3334C3.66634 11.1565 3.73658 10.987 3.8616 10.8619C3.98663 10.7369 4.1562 10.6667 4.33301 10.6667H9.66634C9.84315 10.6667 10.0127 10.7369 10.1377 10.8619C10.2628 10.987 10.333 11.1565 10.333 11.3334ZM2.33301 3.33335C2.33301 3.2015 2.37211 3.07261 2.44536 2.96297C2.51862 2.85334 2.62273 2.76789 2.74455 2.71743C2.86637 2.66698 3.00041 2.65377 3.12973 2.6795C3.25906 2.70522 3.37784 2.76871 3.47108 2.86195C3.56431 2.95518 3.62781 3.07397 3.65353 3.20329C3.67926 3.33261 3.66605 3.46666 3.61559 3.58848C3.56514 3.71029 3.47969 3.81441 3.37005 3.88767C3.26042 3.96092 3.13153 4.00002 2.99967 4.00002C2.82286 4.00002 2.65329 3.92978 2.52827 3.80476C2.40325 3.67973 2.33301 3.51016 2.33301 3.33335ZM4.33301 3.33335C4.33301 3.2015 4.37211 3.07261 4.44536 2.96297C4.51862 2.85334 4.62274 2.76789 4.74455 2.71743C4.86637 2.66698 5.00041 2.65377 5.12973 2.6795C5.25906 2.70522 5.37784 2.76871 5.47108 2.86195C5.56431 2.95518 5.62781 3.07397 5.65353 3.20329C5.67926 3.33261 5.66605 3.46666 5.61559 3.58848C5.56514 3.71029 5.47969 3.81441 5.37005 3.88767C5.26042 3.96092 5.13153 4.00002 4.99967 4.00002C4.82286 4.00002 4.65329 3.92978 4.52827 3.80476C4.40325 3.67973 4.33301 3.51016 4.33301 3.33335ZM6.33301 3.33335C6.33301 3.2015 6.37211 3.07261 6.44536 2.96297C6.51862 2.85334 6.62273 2.76789 6.74455 2.71743C6.86637 2.66698 7.00041 2.65377 7.12973 2.6795C7.25906 2.70522 7.37784 2.76871 7.47108 2.86195C7.56431 2.95518 7.62781 3.07397 7.65353 3.20329C7.67926 3.33261 7.66605 3.46666 7.61559 3.58848C7.56514 3.71029 7.47969 3.81441 7.37006 3.88767C7.26042 3.96092 7.13153 4.00002 6.99967 4.00002C6.82286 4.00002 6.65329 3.92978 6.52827 3.80476C6.40325 3.67973 6.33301 3.51016 6.33301 3.33335Z" fill="black"/>
</g>
<defs>
<clipPath id="clip0_482_18000">
<rect width="16" height="16" fill="white" transform="translate(0.333008)"/>
</clipPath>
</defs>
</svg>
