<svg width="17" height="16" viewBox="0 0 17 16" fill="none" xmlns="http://www.w3.org/2000/svg">
<g clip-path="url(#clip0_482_18122)">
<path d="M8.22233 6.6665C7.69492 6.6665 7.17934 6.8229 6.74081 7.11592C6.30228 7.40894 5.96049 7.82541 5.75865 8.31268C5.55682 8.79995 5.50401 9.33613 5.6069 9.85341C5.7098 10.3707 5.96377 10.8458 6.33671 11.2188C6.70965 11.5917 7.18481 11.8457 7.70209 11.9486C8.21937 12.0515 8.75555 11.9987 9.24282 11.7968C9.73009 11.595 10.1466 11.2532 10.4396 10.8147C10.7326 10.3762 10.889 9.86059 10.889 9.33317C10.889 8.62593 10.608 7.94765 10.108 7.44755C9.60785 6.94746 8.92958 6.6665 8.22233 6.6665ZM8.22233 10.6665C7.95862 10.6665 7.70084 10.5883 7.48157 10.4418C7.26231 10.2953 7.09141 10.087 6.99049 9.84341C6.88958 9.59978 6.86317 9.33169 6.91462 9.07305C6.96607 8.81441 7.09305 8.57683 7.27952 8.39036C7.46599 8.20389 7.70357 8.0769 7.96221 8.02546C8.22085 7.97401 8.48894 8.00041 8.73258 8.10133C8.97621 8.20225 9.18445 8.37314 9.33096 8.59241C9.47747 8.81168 9.55567 9.06946 9.55567 9.33317C9.55567 9.68679 9.41519 10.0259 9.16514 10.276C8.91509 10.526 8.57595 10.6665 8.22233 10.6665Z" fill="black"/>
<path d="M15.2467 2.74798L13.4747 0.975983C13.1659 0.665544 12.7986 0.419436 12.3941 0.251904C11.9896 0.0843726 11.5558 -0.00125356 11.118 -1.73201e-05H3.55599C2.67226 0.00104125 1.82503 0.352571 1.20014 0.977463C0.575244 1.60235 0.223715 2.44959 0.222656 3.33332L0.222656 12.6666C0.223715 13.5504 0.575244 14.3976 1.20014 15.0225C1.82503 15.6474 2.67226 15.9989 3.55599 16H12.8893C13.7731 15.9989 14.6203 15.6474 15.2452 15.0225C15.8701 14.3976 16.2216 13.5504 16.2227 12.6666V5.10465C16.2239 4.66681 16.1383 4.23307 15.9707 3.82855C15.8032 3.42402 15.5571 3.05675 15.2467 2.74798ZM11.556 1.38665V1.99998C11.556 2.53042 11.3453 3.03912 10.9702 3.4142C10.5951 3.78927 10.0864 3.99998 9.55599 3.99998H6.88932C6.35889 3.99998 5.85018 3.78927 5.47511 3.4142C5.10004 3.03912 4.88932 2.53042 4.88932 1.99998V1.33332H11.118C11.2655 1.33462 11.4124 1.35251 11.556 1.38665ZM14.8893 12.6666C14.8893 13.1971 14.6786 13.7058 14.3035 14.0809C13.9285 14.4559 13.4198 14.6666 12.8893 14.6666H3.55599C3.02556 14.6666 2.51685 14.4559 2.14178 14.0809C1.7667 13.7058 1.55599 13.1971 1.55599 12.6666V3.33332C1.55599 2.80288 1.7667 2.29418 2.14178 1.9191C2.51685 1.54403 3.02556 1.33332 3.55599 1.33332V1.99998C3.55705 2.88371 3.90858 3.73094 4.53347 4.35584C5.15836 4.98073 6.00559 5.33226 6.88932 5.33332H9.55599C10.3943 5.33071 11.2008 5.01176 11.8141 4.44022C12.4274 3.86869 12.8023 3.08671 12.864 2.25065L14.304 3.69065C14.6776 4.06657 14.8879 4.57465 14.8893 5.10465V12.6666Z" fill="black"/>
</g>
<defs>
<clipPath id="clip0_482_18122">
<rect width="16" height="16" fill="white" transform="translate(0.222656)"/>
</clipPath>
</defs>
</svg>
