<svg width="17" height="16" viewBox="0 0 17 16" fill="none" xmlns="http://www.w3.org/2000/svg">
<g clip-path="url(#clip0_483_13789)">
<path d="M12.0006 16H5.33731C4.95178 15.9998 4.57086 15.9163 4.2206 15.7552C3.87035 15.5941 3.55903 15.3592 3.30797 15.0667C3.06045 14.7805 2.87767 14.4442 2.77216 14.0808C2.66665 13.7175 2.64089 13.3356 2.69664 12.9613C3.05458 11.0117 4.09462 9.25298 5.63064 8C4.0946 6.74657 3.05478 4.98739 2.69731 3.03733C2.64166 2.66334 2.66742 2.28174 2.77281 1.91862C2.8782 1.5555 3.06075 1.21941 3.30797 0.93333C3.55903 0.64076 3.87035 0.405892 4.2206 0.244803C4.57086 0.0837129 4.95178 0.000205413 5.33731 -3.8147e-06L12.0006 -3.8147e-06C12.3861 0.000337614 12.767 0.0839043 13.1173 0.244985C13.4675 0.406066 13.7788 0.640863 14.03 0.93333C14.2772 1.2193 14.4599 1.55523 14.5655 1.91821C14.6711 2.28119 14.6972 2.66268 14.642 3.03666C14.2809 4.9873 13.2387 6.74628 11.7013 8C13.2378 9.25479 14.2788 11.0145 14.6386 12.9653C14.6939 13.3394 14.6679 13.721 14.5623 14.0841C14.4566 14.4472 14.2739 14.7833 14.0266 15.0693C13.7756 15.3609 13.4647 15.5949 13.1151 15.7555C12.7655 15.9161 12.3854 15.9995 12.0006 16ZM12.0006 1.33333H5.33731C5.14393 1.33321 4.9528 1.37484 4.777 1.45538C4.60119 1.53593 4.44484 1.65347 4.31864 1.8C4.19541 1.94029 4.10434 2.10583 4.05183 2.28502C3.99932 2.46421 3.98662 2.65272 4.01464 2.83733C4.26531 4.504 5.29731 6.064 7.08131 7.47533C7.16013 7.53774 7.22382 7.61718 7.26761 7.70769C7.31139 7.79821 7.33413 7.89745 7.33413 7.998C7.33413 8.09854 7.31139 8.19779 7.26761 8.2883C7.22382 8.37881 7.16013 8.45825 7.08131 8.52066C5.29731 9.93333 4.26731 11.4947 4.01464 13.1607C3.98632 13.3456 3.99886 13.5345 4.05138 13.714C4.1039 13.8936 4.19513 14.0595 4.31864 14.2C4.44484 14.3465 4.60119 14.4641 4.777 14.5446C4.9528 14.6251 5.14393 14.6668 5.33731 14.6667H12.0006C12.194 14.6668 12.3852 14.6252 12.561 14.5447C12.7368 14.4641 12.8931 14.3466 13.0193 14.2C13.1425 14.06 13.2336 13.8946 13.2861 13.7157C13.3386 13.5367 13.3513 13.3484 13.3233 13.164C13.0746 11.506 12.0433 9.94466 10.2566 8.52266C10.1783 8.46022 10.115 8.38092 10.0716 8.29067C10.0281 8.20041 10.0055 8.10151 10.0055 8.00133C10.0055 7.90115 10.0281 7.80225 10.0716 7.71199C10.115 7.62174 10.1783 7.54244 10.2566 7.48C12.044 6.058 13.0753 4.49666 13.3233 2.838C13.3512 2.65303 13.3381 2.46419 13.285 2.28483C13.2319 2.10547 13.1401 1.93996 13.016 1.8C12.8902 1.65387 12.7344 1.53655 12.5592 1.45602C12.384 1.37549 12.1935 1.33365 12.0006 1.33333ZM11.1213 13.3333H6.21264C6.10356 13.3333 5.99616 13.3065 5.89985 13.2552C5.80355 13.204 5.72128 13.1299 5.66028 13.0395C5.59927 12.9491 5.56138 12.8451 5.54994 12.7366C5.53849 12.6281 5.55384 12.5185 5.59464 12.4173C6.11669 11.2901 6.91211 10.3111 7.90864 9.56933L8.25397 9.29466C8.37194 9.20083 8.51823 9.14974 8.66897 9.14974C8.81971 9.14974 8.966 9.20083 9.08397 9.29466L9.42331 9.56533C10.4184 10.31 11.2138 11.2893 11.7386 12.416C11.7797 12.5172 11.7953 12.6269 11.784 12.7355C11.7727 12.8441 11.7349 12.9483 11.674 13.0389C11.613 13.1295 11.5307 13.2037 11.4344 13.255C11.338 13.3064 11.2305 13.3333 11.1213 13.3333ZM7.35664 12H9.97531C9.59493 11.5042 9.15571 11.0565 8.66731 10.6667C8.17675 11.055 7.73647 11.5029 7.35664 12Z" fill="black"/>
</g>
<defs>
<clipPath id="clip0_483_13789">
<rect width="16" height="16" fill="white" transform="translate(0.666992)"/>
</clipPath>
</defs>
</svg>
