<svg width="17" height="16" viewBox="0 0 17 16" fill="none" xmlns="http://www.w3.org/2000/svg">
<g clip-path="url(#clip0_483_13798)">
<path d="M6.22704 14.9691C7.62966 16.3412 9.86988 16.3468 11.2793 14.9817L13.9356 12.5271C16.8131 9.68796 16.8441 5.05374 14.005 2.17627C11.1658 -0.701201 6.5316 -0.732263 3.65413 2.10689C3.63085 2.12986 3.60772 2.15299 3.58475 2.17627C0.726629 5.03486 0.727004 9.66921 3.5856 12.5273C3.59154 12.5333 3.59744 12.5392 3.60341 12.545L6.22704 14.9691ZM4.52563 3.11711C6.85916 0.773111 10.6511 0.764612 12.9951 3.09814C15.3391 5.43167 15.3476 9.22358 13.014 11.5676L10.3624 14.0175C9.45697 14.8697 8.04304 14.8645 7.14394 14.0056L4.52563 11.5862C2.18694 9.24755 2.18694 5.45583 4.52557 3.11714C4.5256 3.11714 4.5256 3.11714 4.52563 3.11711ZM5.43322 7.35167C5.43322 6.98417 5.73113 6.68627 6.09863 6.68627H11.4218C11.7893 6.68627 12.0872 6.98417 12.0872 7.35167C12.0872 7.71917 11.7893 8.01708 11.4218 8.01708H6.09863C5.73113 8.01705 5.43322 7.71914 5.43322 7.35167Z" fill="black"/>
</g>
<defs>
<clipPath id="clip0_483_13798">
<rect width="16" height="16" fill="white" transform="translate(0.777344)"/>
</clipPath>
</defs>
</svg>
