<svg width="17" height="16" viewBox="0 0 17 16" fill="none" xmlns="http://www.w3.org/2000/svg">
<g clip-path="url(#clip0_483_13746)">
<path d="M16.124 0.765333C15.6708 0.312798 15.0565 0.0586243 14.416 0.0586243C13.7755 0.0586243 13.1612 0.312798 12.708 0.765333L1.86535 11.608C1.55485 11.9168 1.30866 12.284 1.14101 12.6885C0.973371 13.093 0.887607 13.5268 0.888682 13.9647V15.3333C0.888682 15.5101 0.95892 15.6797 1.08394 15.8047C1.20897 15.9298 1.37854 16 1.55535 16H2.92402C3.36186 16.0012 3.79559 15.9156 4.20012 15.7481C4.60464 15.5805 4.97192 15.3344 5.28068 15.024L16.124 4.18067C16.5763 3.72746 16.8304 3.11331 16.8304 2.473C16.8304 1.83269 16.5763 1.21854 16.124 0.765333ZM4.33802 14.0813C3.96202 14.4548 3.45399 14.6651 2.92402 14.6667H2.22202V13.9647C2.22134 13.7019 2.27279 13.4417 2.37337 13.199C2.47396 12.9563 2.62169 12.7359 2.80802 12.5507L11.0367 4.322L12.57 5.85533L4.33802 14.0813ZM15.1807 3.238L13.51 4.90933L11.9767 3.37933L13.648 1.708C13.7487 1.60754 13.8682 1.52789 13.9996 1.47361C14.1311 1.41932 14.272 1.39146 14.4142 1.39161C14.5564 1.39177 14.6972 1.41994 14.8286 1.47451C14.9599 1.52908 15.0792 1.60899 15.1797 1.70967C15.2801 1.81035 15.3598 1.92983 15.4141 2.06129C15.4684 2.19275 15.4962 2.33362 15.4961 2.47584C15.4959 2.61807 15.4677 2.75888 15.4132 2.89022C15.3586 3.02156 15.2787 3.14087 15.178 3.24133L15.1807 3.238Z" fill="black"/>
</g>
<defs>
<clipPath id="clip0_483_13746">
<rect width="16" height="16" fill="white" transform="translate(0.888672)"/>
</clipPath>
</defs>
</svg>
