<svg width="17" height="16" viewBox="0 0 17 16" fill="none" xmlns="http://www.w3.org/2000/svg">
<g clip-path="url(#clip0_483_13788)">
<path d="M14.9996 4H12.9996C12.8227 4 12.6532 4.07024 12.5281 4.19526C12.4031 4.32029 12.3329 4.48986 12.3329 4.66667C12.3329 4.84348 12.4031 5.01305 12.5281 5.13807C12.6532 5.2631 12.8227 5.33333 12.9996 5.33333H14.0569L11.7902 7.6C11.1555 7.12272 10.4087 6.81669 9.62155 6.71133C9.51597 5.92467 9.20996 5.17834 8.73289 4.544L10.9996 2.27733V3.33333C10.9996 3.51014 11.0698 3.67971 11.1948 3.80474C11.3198 3.92976 11.4894 4 11.6662 4C11.843 4 12.0126 3.92976 12.1376 3.80474C12.2626 3.67971 12.3329 3.51014 12.3329 3.33333V1.33333C12.3329 0.979711 12.1924 0.640573 11.9424 0.390524C11.6923 0.140476 11.3532 0 10.9996 0L8.99955 0C8.82274 0 8.65317 0.0702379 8.52815 0.195262C8.40312 0.320286 8.33289 0.489856 8.33289 0.666667C8.33289 0.843478 8.40312 1.01305 8.52815 1.13807C8.65317 1.2631 8.82274 1.33333 8.99955 1.33333H10.0569L7.79022 3.6C7.21988 3.17342 6.55939 2.88318 5.85943 2.75157C5.15948 2.61996 4.43867 2.65047 3.75234 2.84076C3.06601 3.03106 2.43241 3.37607 1.90016 3.84932C1.36791 4.32257 0.951164 4.91148 0.681914 5.57085C0.412664 6.23021 0.298067 6.9425 0.346917 7.65305C0.395768 8.36359 0.606768 9.05349 0.963722 9.66981C1.32068 10.2861 1.81409 10.8125 2.4061 11.2084C2.99811 11.6044 3.67297 11.8594 4.37889 11.954C4.47082 12.6626 4.72423 13.3406 5.11959 13.9358C5.51495 14.5309 6.0417 15.0274 6.65923 15.3868C7.27676 15.7462 7.96858 15.9591 8.68136 16.0089C9.39414 16.0587 10.1088 15.9442 10.7704 15.6742C11.4319 15.4042 12.0226 14.9858 12.4969 14.4514C12.9712 13.9171 13.3165 13.2809 13.5061 12.592C13.6957 11.9031 13.7246 11.1799 13.5906 10.478C13.4565 9.77619 13.1631 9.11451 12.7329 8.544L14.9996 6.27733V7.33333C14.9996 7.51015 15.0698 7.67971 15.1948 7.80474C15.3198 7.92976 15.4894 8 15.6662 8C15.843 8 16.0126 7.92976 16.1376 7.80474C16.2627 7.67971 16.3329 7.51015 16.3329 7.33333V5.33333C16.3329 4.97971 16.1924 4.64057 15.9424 4.39052C15.6923 4.14048 15.3532 4 14.9996 4ZM1.66622 7.33333C1.66622 6.67406 1.86172 6.0296 2.22799 5.48143C2.59426 4.93327 3.11485 4.50603 3.72394 4.25374C4.33303 4.00144 5.00325 3.93543 5.64985 4.06405C6.29646 4.19267 6.8904 4.51014 7.35658 4.97631C7.82275 5.44249 8.14022 6.03643 8.26884 6.68303C8.39746 7.32964 8.33144 7.99986 8.07915 8.60895C7.82686 9.21803 7.39962 9.73863 6.85145 10.1049C6.30329 10.4712 5.65882 10.6667 4.99955 10.6667C4.11582 10.6656 3.26859 10.3141 2.6437 9.68919C2.01881 9.0643 1.66728 8.21706 1.66622 7.33333ZM8.99955 14.6667C8.22133 14.6652 7.46814 14.3915 6.87053 13.8931C6.27292 13.3946 5.86857 12.7027 5.72755 11.9373C6.69969 11.7823 7.59796 11.3239 8.29405 10.6278C8.99015 9.93174 9.44847 9.03347 9.60355 8.06133C10.4211 8.21133 11.153 8.66166 11.6555 9.32383C12.1579 9.98601 12.3945 10.8121 12.3188 11.6399C12.2431 12.4677 11.8606 13.2372 11.2464 13.7973C10.6322 14.3573 9.83076 14.6674 8.99955 14.6667Z" fill="black"/>
</g>
<defs>
<clipPath id="clip0_483_13788">
<rect width="16" height="16" fill="white" transform="translate(0.333008)"/>
</clipPath>
</defs>
</svg>
