<svg width="17" height="16" viewBox="0 0 17 16" fill="none" xmlns="http://www.w3.org/2000/svg">
<g clip-path="url(#clip0_483_13654)">
<path d="M16.667 12V12.6667C16.6659 13.5504 16.3144 14.3976 15.6895 15.0225C15.0646 15.6474 14.2174 15.9989 13.3337 16H12.667C12.4902 16 12.3206 15.9298 12.1956 15.8047C12.0706 15.6797 12.0003 15.5101 12.0003 15.3333C12.0003 15.1565 12.0706 14.987 12.1956 14.8619C12.3206 14.7369 12.4902 14.6667 12.667 14.6667H13.3337C13.8641 14.6667 14.3728 14.456 14.7479 14.0809C15.1229 13.7058 15.3337 13.1971 15.3337 12.6667V12C15.3337 11.8232 15.4039 11.6536 15.5289 11.5286C15.6539 11.4036 15.8235 11.3333 16.0003 11.3333C16.1771 11.3333 16.3467 11.4036 16.4717 11.5286C16.5968 11.6536 16.667 11.8232 16.667 12ZM13.3337 0H12.667C12.4902 0 12.3206 0.0702379 12.1956 0.195262C12.0706 0.320286 12.0003 0.489856 12.0003 0.666667C12.0003 0.843478 12.0706 1.01305 12.1956 1.13807C12.3206 1.2631 12.4902 1.33333 12.667 1.33333H13.3337C13.8641 1.33333 14.3728 1.54405 14.7479 1.91912C15.1229 2.29419 15.3337 2.8029 15.3337 3.33333V4C15.3337 4.17681 15.4039 4.34638 15.5289 4.4714C15.6539 4.59643 15.8235 4.66667 16.0003 4.66667C16.1771 4.66667 16.3467 4.59643 16.4717 4.4714C16.5968 4.34638 16.667 4.17681 16.667 4V3.33333C16.6659 2.4496 16.3144 1.60237 15.6895 0.97748C15.0646 0.352588 14.2174 0.00105857 13.3337 0V0ZM16.0003 6C15.8235 6 15.6539 6.07024 15.5289 6.19526C15.4039 6.32029 15.3337 6.48986 15.3337 6.66667V9.33333C15.3337 9.51014 15.4039 9.67971 15.5289 9.80474C15.6539 9.92976 15.8235 10 16.0003 10C16.1771 10 16.3467 9.92976 16.4717 9.80474C16.5968 9.67971 16.667 9.51014 16.667 9.33333V6.66667C16.667 6.48986 16.5968 6.32029 16.4717 6.19526C16.3467 6.07024 16.1771 6 16.0003 6ZM4.66699 14.6667H4.00033C3.46989 14.6667 2.96118 14.456 2.58611 14.0809C2.21104 13.7058 2.00033 13.1971 2.00033 12.6667V12C2.00033 11.8232 1.93009 11.6536 1.80506 11.5286C1.68004 11.4036 1.51047 11.3333 1.33366 11.3333C1.15685 11.3333 0.987279 11.4036 0.862254 11.5286C0.73723 11.6536 0.666992 11.8232 0.666992 12L0.666992 12.6667C0.668051 13.5504 1.01958 14.3976 1.64447 15.0225C2.26936 15.6474 3.1166 15.9989 4.00033 16H4.66699C4.8438 16 5.01337 15.9298 5.1384 15.8047C5.26342 15.6797 5.33366 15.5101 5.33366 15.3333C5.33366 15.1565 5.26342 14.987 5.1384 14.8619C5.01337 14.7369 4.8438 14.6667 4.66699 14.6667ZM4.66699 0H4.00033C3.1166 0.00105857 2.26936 0.352588 1.64447 0.97748C1.01958 1.60237 0.668051 2.4496 0.666992 3.33333L0.666992 4C0.666992 4.17681 0.73723 4.34638 0.862254 4.4714C0.987279 4.59643 1.15685 4.66667 1.33366 4.66667C1.51047 4.66667 1.68004 4.59643 1.80506 4.4714C1.93009 4.34638 2.00033 4.17681 2.00033 4V3.33333C2.00033 2.8029 2.21104 2.29419 2.58611 1.91912C2.96118 1.54405 3.46989 1.33333 4.00033 1.33333H4.66699C4.8438 1.33333 5.01337 1.2631 5.1384 1.13807C5.26342 1.01305 5.33366 0.843478 5.33366 0.666667C5.33366 0.489856 5.26342 0.320286 5.1384 0.195262C5.01337 0.0702379 4.8438 0 4.66699 0V0ZM1.33366 10C1.51047 10 1.68004 9.92976 1.80506 9.80474C1.93009 9.67971 2.00033 9.51014 2.00033 9.33333V6.66667C2.00033 6.48986 1.93009 6.32029 1.80506 6.19526C1.68004 6.07024 1.51047 6 1.33366 6C1.15685 6 0.987279 6.07024 0.862254 6.19526C0.73723 6.32029 0.666992 6.48986 0.666992 6.66667L0.666992 9.33333C0.666992 9.51014 0.73723 9.67971 0.862254 9.80474C0.987279 9.92976 1.15685 10 1.33366 10ZM7.33366 1.33333H9.95499C10.1318 1.33333 10.3014 1.2631 10.4264 1.13807C10.5514 1.01305 10.6217 0.843478 10.6217 0.666667C10.6217 0.489856 10.5514 0.320286 10.4264 0.195262C10.3014 0.0702379 10.1318 0 9.95499 0L7.33366 0C7.15685 0 6.98728 0.0702379 6.86225 0.195262C6.73723 0.320286 6.66699 0.489856 6.66699 0.666667C6.66699 0.843478 6.73723 1.01305 6.86225 1.13807C6.98728 1.2631 7.15685 1.33333 7.33366 1.33333ZM10.0003 14.6667H7.33366C7.15685 14.6667 6.98728 14.7369 6.86225 14.8619C6.73723 14.987 6.66699 15.1565 6.66699 15.3333C6.66699 15.5101 6.73723 15.6797 6.86225 15.8047C6.98728 15.9298 7.15685 16 7.33366 16H10.0003C10.1771 16 10.3467 15.9298 10.4717 15.8047C10.5968 15.6797 10.667 15.5101 10.667 15.3333C10.667 15.1565 10.5968 14.987 10.4717 14.8619C10.3467 14.7369 10.1771 14.6667 10.0003 14.6667Z" fill="black"/>
</g>
<defs>
<clipPath id="clip0_483_13654">
<rect width="16" height="16" fill="white" transform="translate(0.666992)"/>
</clipPath>
</defs>
</svg>
