<svg width="17" height="16" viewBox="0 0 17 16" fill="none" xmlns="http://www.w3.org/2000/svg">
<g clip-path="url(#clip0_483_13893)">
<path d="M12.7275 10.6669C12.2684 10.6658 11.8136 10.7557 11.3894 10.9313C10.9653 11.107 10.5801 11.3649 10.2562 11.6902C9.31485 12.6369 8.19509 13.3875 6.96171 13.8984C5.72833 14.4094 4.40584 14.6706 3.07082 14.6669H2.30415C2.15622 14.6671 2.01155 14.6234 1.88847 14.5414C1.76539 14.4593 1.66943 14.3426 1.61274 14.2059C1.55606 14.0693 1.54121 13.9189 1.57006 13.7738C1.59891 13.6287 1.67017 13.4955 1.77482 13.3909L2.23682 12.9289C3.5187 12.8628 4.73036 12.323 5.63682 11.4142L8.52082 8.53357C8.80223 8.6092 9.09105 8.65391 9.38215 8.6669C9.43948 8.6669 9.49748 8.6669 9.55615 8.6669C10.6176 8.66606 11.6354 8.24463 12.3868 7.4949L13.0535 6.82823C13.4449 6.43608 13.7508 5.96699 13.9517 5.45062C14.1526 4.93425 14.2443 4.38182 14.2208 3.82823C14.1986 3.27221 14.0595 2.7271 13.8127 2.22837C13.5658 1.72964 13.2168 1.28847 12.7881 0.933565C11.9874 0.299345 10.9796 -0.0147397 9.96029 0.0522764C8.941 0.119293 7.98297 0.562629 7.27215 1.29623L6.85015 1.7189C6.34013 2.22709 5.96861 2.85733 5.77093 3.54965C5.57326 4.24197 5.55601 4.97336 5.72082 5.67423L2.80882 8.58623C1.89953 9.49236 1.35966 10.7042 1.29415 11.9862L0.83215 12.4482C0.541092 12.7393 0.342888 13.1101 0.262613 13.5138C0.182338 13.9175 0.223598 14.3359 0.381175 14.7161C0.538752 15.0964 0.805564 15.4213 1.14786 15.6499C1.49015 15.8785 1.89255 16.0004 2.30415 16.0002H3.07082C4.58093 16.0043 6.07686 15.7089 7.47203 15.131C8.8672 14.5531 10.1339 13.7043 11.1988 12.6336C11.5011 12.3313 11.8863 12.1254 12.3056 12.042C12.7249 11.9586 13.1595 12.0013 13.5545 12.1649C13.9495 12.3284 14.2872 12.6054 14.5248 12.9608C14.7624 13.3162 14.8893 13.734 14.8895 14.1616V15.3336C14.8895 15.5104 14.9597 15.6799 15.0847 15.805C15.2098 15.93 15.3793 16.0002 15.5562 16.0002C15.733 16.0002 15.9025 15.93 16.0276 15.805C16.1526 15.6799 16.2228 15.5104 16.2228 15.3336V14.1616C16.2216 13.235 15.8529 12.3467 15.1977 11.6916C14.5424 11.0365 13.6541 10.668 12.7275 10.6669ZM7.79415 2.6589L8.21615 2.23623C8.76372 1.68601 9.50657 1.37449 10.2828 1.36957C10.8838 1.36371 11.4674 1.57084 11.9302 1.95423C12.2165 2.19066 12.4498 2.48468 12.6151 2.81719C12.7804 3.14969 12.8739 3.51324 12.8895 3.88423C12.9049 4.25325 12.8437 4.62145 12.7098 4.96566C12.5759 5.30987 12.3722 5.62262 12.1115 5.88423L11.4448 6.5509C11.1829 6.81284 10.8693 7.01733 10.5239 7.15135C10.1786 7.28536 9.80911 7.34596 9.43906 7.32928C9.06901 7.31259 8.70649 7.21899 8.37461 7.05445C8.04273 6.8899 7.74878 6.65801 7.51148 6.37357C7.09017 5.82943 6.88571 5.14833 6.93768 4.46212C6.98965 3.77591 7.29436 3.13338 7.79282 2.6589H7.79415ZM3.75148 9.5289L6.30882 6.9709C6.36948 7.05757 6.41815 7.1509 6.48682 7.2329C6.7081 7.4943 6.96143 7.7268 7.24082 7.9249L4.69415 10.4716C4.14604 11.0214 3.44484 11.3931 2.68215 11.5382C2.82849 10.7762 3.20114 10.0759 3.75148 9.5289Z" fill="black"/>
</g>
<defs>
<clipPath id="clip0_483_13893">
<rect width="16" height="16" fill="white" transform="translate(0.222656)"/>
</clipPath>
</defs>
</svg>
