<svg width="17" height="16" viewBox="0 0 17 16" fill="none" xmlns="http://www.w3.org/2000/svg">
<g clip-path="url(#clip0_482_18016)">
<path d="M12.1747 16C6.754 16.1833 -3.01132 6.49663 1.52267 1.24463L2.28934 0.577963C2.67742 0.202806 3.19761 -0.00445211 3.73735 0.00103762C4.27709 0.00652735 4.79296 0.224324 5.17333 0.607296C5.19389 0.628233 5.21304 0.650503 5.23067 0.673963L6.43067 2.2333C6.79535 2.61919 6.99797 3.13035 6.99673 3.66129C6.99549 4.19224 6.79048 4.70245 6.424 5.08663L5.652 6.0573C6.07941 7.09534 6.70761 8.03876 7.50055 8.83342C8.29348 9.62807 9.23554 10.2583 10.2727 10.688L11.2487 9.9113C11.6378 9.55386 12.1468 9.3552 12.6752 9.35446C13.2036 9.35371 13.7131 9.55096 14.1033 9.9073L15.6633 11.1073C15.6866 11.1249 15.7089 11.1438 15.73 11.164C16.1147 11.5522 16.3305 12.0767 16.3305 12.6233C16.3305 13.1699 16.1147 13.6944 15.73 14.0826L15.1227 14.7826C14.7374 15.1721 14.2781 15.4804 13.7718 15.6895C13.2655 15.8986 12.7224 16.0041 12.1747 16ZM3.714 1.3333C3.6182 1.33322 3.52331 1.35202 3.43478 1.38863C3.34624 1.42523 3.26578 1.47892 3.198 1.54663L2.43067 2.2133C-1.33333 6.73863 10.1847 17.6153 14.1467 13.872L14.7547 13.1713C14.8269 13.107 14.8858 13.029 14.9278 12.9418C14.9698 12.8547 14.9941 12.76 14.9994 12.6634C15.0046 12.5668 14.9907 12.4701 14.9584 12.3789C14.9262 12.2877 14.8762 12.2038 14.8113 12.132L13.26 10.9406C13.2362 10.9231 13.2139 10.9038 13.1933 10.8826C13.0542 10.7501 12.8695 10.6762 12.6773 10.6762C12.4852 10.6762 12.3004 10.7501 12.1613 10.8826C12.1436 10.9006 12.1249 10.9175 12.1053 10.9333L10.8 11.9733C10.7094 12.0454 10.6015 12.0927 10.4871 12.1105C10.3726 12.1282 10.2555 12.1159 10.1473 12.0746C8.80341 11.574 7.58281 10.7903 6.5682 9.77675C5.55359 8.76318 4.76869 7.54337 4.26667 6.19996C4.22222 6.09021 4.20781 5.9706 4.22492 5.85343C4.24203 5.73626 4.29003 5.62576 4.364 5.5333L5.4 4.2293C5.41541 4.20954 5.43211 4.19084 5.45 4.1733C5.58618 4.03595 5.66259 3.85037 5.66259 3.65696C5.66259 3.46355 5.58618 3.27797 5.45 3.14063C5.42922 3.1199 5.41005 3.09761 5.39267 3.07396L4.204 1.52463C4.06969 1.40328 3.89502 1.33626 3.714 1.33663V1.3333ZM15.376 8.38396C18.7027 3.4873 12.8427 -2.3667 7.95133 0.959296C7.87757 1.00854 7.81437 1.07202 7.76545 1.14599C7.71652 1.21997 7.68285 1.30297 7.66641 1.39012C7.64996 1.47728 7.65107 1.56684 7.66967 1.65356C7.68827 1.74028 7.72399 1.82241 7.77473 1.89516C7.82547 1.9679 7.89022 2.02978 7.96518 2.07719C8.04014 2.1246 8.12381 2.15657 8.21128 2.17123C8.29875 2.1859 8.38827 2.18296 8.47459 2.1626C8.56091 2.14223 8.6423 2.10485 8.714 2.05263C12.3633 -0.453371 16.7873 3.9753 14.2827 7.62196C14.2293 7.69359 14.1909 7.77521 14.1697 7.86197C14.1485 7.94874 14.145 8.03887 14.1593 8.12703C14.1736 8.21518 14.2055 8.29956 14.2531 8.37516C14.3006 8.45076 14.3629 8.51602 14.4362 8.56709C14.5094 8.61816 14.5922 8.65398 14.6796 8.67243C14.767 8.69089 14.8572 8.6916 14.9448 8.67451C15.0325 8.65743 15.1158 8.62291 15.1899 8.573C15.264 8.52309 15.3272 8.45881 15.376 8.38396ZM12.804 7.14063C12.929 7.01561 12.9992 6.84607 12.9992 6.6693C12.9992 6.49252 12.929 6.32298 12.804 6.19796L11.6667 5.05996V3.3333C11.6667 3.15649 11.5964 2.98692 11.4714 2.86189C11.3464 2.73687 11.1768 2.66663 11 2.66663C10.8232 2.66663 10.6536 2.73687 10.5286 2.86189C10.4036 2.98692 10.3333 3.15649 10.3333 3.3333V5.3333C10.3334 5.51009 10.4036 5.67964 10.5287 5.80463L11.862 7.13796C11.987 7.26294 12.1565 7.33316 12.3333 7.33316C12.5101 7.33316 12.6796 7.26294 12.8047 7.13796L12.804 7.14063Z" fill="black"/>
</g>
<defs>
<clipPath id="clip0_482_18016">
<rect width="16" height="16" fill="white" transform="translate(0.333008)"/>
</clipPath>
</defs>
</svg>
