<svg width="17" height="16" viewBox="0 0 17 16" fill="none" xmlns="http://www.w3.org/2000/svg">
<g clip-path="url(#clip0_482_17978)">
<path d="M15.4445 2.65063H13.3871C13.2553 2.65066 13.1264 2.68978 13.0168 2.76303C12.9072 2.83629 12.8218 2.9404 12.7714 3.0622C12.7209 3.184 12.7077 3.31802 12.7334 3.44732C12.7591 3.57662 12.8226 3.6954 12.9158 3.78863L13.6398 4.51263L11.2491 6.90264C11.1221 7.02403 10.9532 7.09178 10.7775 7.09178C10.6018 7.09178 10.4328 7.02403 10.3058 6.90264L10.1925 6.78863C9.81155 6.42468 9.30499 6.22158 8.77814 6.22158C8.2513 6.22158 7.74474 6.42468 7.36381 6.78863L3.96381 10.1886C3.83854 10.3143 3.76831 10.4845 3.76856 10.6619C3.76881 10.8393 3.83952 11.0094 3.96515 11.1346C4.09077 11.2599 4.26101 11.3301 4.43842 11.3299C4.61583 11.3296 4.78587 11.2589 4.91114 11.1333L8.31114 7.7333C8.43809 7.61175 8.60706 7.5439 8.78281 7.5439C8.95856 7.5439 9.12753 7.61175 9.25448 7.7333L9.36781 7.8473C9.74889 8.21095 10.2554 8.41384 10.7821 8.41384C11.3089 8.41384 11.8154 8.21095 12.1965 7.8473L14.5871 5.45664L15.3111 6.18063C15.4047 6.27233 15.5232 6.33444 15.6518 6.3592C15.7805 6.38396 15.9135 6.37027 16.0344 6.31985C16.1553 6.26942 16.2587 6.1845 16.3316 6.07568C16.4046 5.96686 16.4438 5.83896 16.4445 5.70797V3.65063C16.4445 3.38542 16.3391 3.13106 16.1516 2.94353C15.964 2.75599 15.7097 2.65063 15.4445 2.65063Z" fill="black"/>
<path d="M15.7777 14.6507H3.77767C3.24724 14.6507 2.73853 14.44 2.36346 14.0649C1.98838 13.6898 1.77767 13.1811 1.77767 12.6507V0.666667C1.77767 0.489856 1.70743 0.320286 1.58241 0.195262C1.45738 0.0702379 1.28781 0 1.111 0C0.934192 0 0.764622 0.0702379 0.639598 0.195262C0.514574 0.320286 0.444336 0.489856 0.444336 0.666667L0.444336 12.6507C0.445395 13.5344 0.796924 14.3816 1.42182 15.0065C2.04671 15.6314 2.89394 15.9829 3.77767 15.984H15.7777C15.9545 15.984 16.1241 15.9138 16.2491 15.7887C16.3741 15.6637 16.4443 15.4941 16.4443 15.3173C16.4443 15.1405 16.3741 14.971 16.2491 14.8459C16.1241 14.7209 15.9545 14.6507 15.7777 14.6507Z" fill="black"/>
</g>
<defs>
<clipPath id="clip0_482_17978">
<rect width="16" height="16" fill="white" transform="translate(0.444336)"/>
</clipPath>
</defs>
</svg>
