<svg width="17" height="16" viewBox="0 0 17 16" fill="none" xmlns="http://www.w3.org/2000/svg">
<path d="M9.95467 2.66667C10.497 2.6672 11.0169 2.88286 11.4004 3.26632C11.7838 3.64978 11.9995 4.16971 12 4.712C12 4.88881 12.0702 5.05838 12.1953 5.1834C12.3203 5.30843 12.4899 5.37867 12.6667 5.37867C12.8435 5.37867 13.013 5.30843 13.1381 5.1834C13.2631 5.05838 13.3333 4.88881 13.3333 4.712V4.66667C13.3333 4.654 13.3333 4.64267 13.3333 4.63C13.3111 3.74849 12.9454 2.91052 12.3143 2.2947C11.6832 1.67889 10.8365 1.33392 9.95467 1.33333H9.33333V0.666667C9.33333 0.489856 9.26309 0.320286 9.13807 0.195262C9.01305 0.0702379 8.84348 0 8.66667 0C8.48986 0 8.32029 0.0702379 8.19526 0.195262C8.07024 0.320286 8 0.489856 8 0.666667V1.33333H7.37867C6.57688 1.33419 5.80153 1.62016 5.1912 2.14012C4.58087 2.66008 4.17534 3.38015 4.0471 4.17162C3.91886 4.96308 4.07627 5.77436 4.49119 6.46044C4.90612 7.14652 5.5515 7.66268 6.312 7.91667L8 8.48V13.3333H7.37867C6.83637 13.3328 6.31644 13.1171 5.93298 12.7337C5.54952 12.3502 5.33386 11.8303 5.33333 11.288C5.33333 11.1112 5.2631 10.9416 5.13807 10.8166C5.01305 10.6916 4.84348 10.6213 4.66667 10.6213C4.48986 10.6213 4.32029 10.6916 4.19526 10.8166C4.07024 10.9416 4 11.1112 4 11.288V11.3333C4 11.346 4 11.3573 4 11.37C4.02225 12.2515 4.38791 13.0895 5.01904 13.7053C5.65018 14.3211 6.49687 14.6661 7.37867 14.6667H8V15.3333C8 15.5101 8.07024 15.6797 8.19526 15.8047C8.32029 15.9298 8.48986 16 8.66667 16C8.84348 16 9.01305 15.9298 9.13807 15.8047C9.26309 15.6797 9.33333 15.5101 9.33333 15.3333V14.6667H9.95467C10.7565 14.6658 11.5318 14.3798 12.1421 13.8599C12.7525 13.3399 13.158 12.6199 13.2862 11.8284C13.4145 11.0369 13.2571 10.2256 12.8421 9.53956C12.4272 8.85348 11.7818 8.33732 11.0213 8.08333L9.33333 7.52V2.66667H9.95467ZM10.6013 9.34733C11.0623 9.50075 11.4536 9.81323 11.7051 10.2288C11.9567 10.6444 12.0522 11.136 11.9744 11.6155C11.8966 12.0951 11.6506 12.5313 11.2806 12.846C10.9105 13.1608 10.4405 13.3335 9.95467 13.3333H9.33333V8.92467L10.6013 9.34733ZM8 7.07533L6.73333 6.65267C6.27249 6.49929 5.88127 6.18691 5.62969 5.77146C5.37811 5.356 5.28258 4.86457 5.3602 4.38512C5.43782 3.90566 5.68353 3.46948 6.05335 3.15463C6.42318 2.83978 6.89297 2.6668 7.37867 2.66667H8V7.07533Z" fill="black"/>
</svg>
