<svg width="17" height="16" viewBox="0 0 17 16" fill="none" xmlns="http://www.w3.org/2000/svg">
<g clip-path="url(#clip0_483_13860)">
<path d="M14.1113 8H12.1113C11.7577 8 11.4186 8.14048 11.1685 8.39052C10.9185 8.64057 10.778 8.97971 10.778 9.33333C10.778 9.68696 10.6375 10.0261 10.3875 10.2761C10.1374 10.5262 9.79828 10.6667 9.44466 10.6667H6.778C6.42437 10.6667 6.08523 10.5262 5.83519 10.2761C5.58514 10.0261 5.44466 9.68696 5.44466 9.33333C5.44466 8.97971 5.30419 8.64057 5.05414 8.39052C4.80409 8.14048 4.46495 8 4.11133 8H2.11133C1.5809 8 1.07219 8.21071 0.697115 8.58579C0.322042 8.96086 0.111328 9.46957 0.111328 10L0.111328 12.6667C0.112387 13.5504 0.463916 14.3976 1.08881 15.0225C1.7137 15.6474 2.56093 15.9989 3.44466 16H12.778C13.6617 15.9989 14.509 15.6474 15.1338 15.0225C15.7587 14.3976 16.1103 13.5504 16.1113 12.6667V10C16.1113 9.46957 15.9006 8.96086 15.5255 8.58579C15.1505 8.21071 14.6418 8 14.1113 8ZM14.778 12.6667C14.778 13.1971 14.5673 13.7058 14.1922 14.0809C13.8171 14.456 13.3084 14.6667 12.778 14.6667H3.44466C2.91423 14.6667 2.40552 14.456 2.03045 14.0809C1.65538 13.7058 1.44466 13.1971 1.44466 12.6667V10C1.44466 9.82319 1.5149 9.65362 1.63992 9.5286C1.76495 9.40357 1.93452 9.33333 2.11133 9.33333H4.11133C4.11133 10.0406 4.39228 10.7189 4.89238 11.219C5.39247 11.719 6.07075 12 6.778 12H9.44466C10.1519 12 10.8302 11.719 11.3303 11.219C11.8304 10.7189 12.1113 10.0406 12.1113 9.33333H14.1113C14.2881 9.33333 14.4577 9.40357 14.5827 9.5286C14.7078 9.65362 14.778 9.82319 14.778 10V12.6667Z" fill="black"/>
<path d="M2.111 6.66646H14.111C14.2878 6.66646 14.4574 6.59622 14.5824 6.4712C14.7074 6.34617 14.7777 6.17661 14.7777 5.9998C14.7777 5.82298 14.7074 5.65342 14.5824 5.52839C14.4574 5.40337 14.2878 5.33313 14.111 5.33313H2.111C1.93419 5.33313 1.76462 5.40337 1.6396 5.52839C1.51457 5.65342 1.44434 5.82298 1.44434 5.9998C1.44434 6.17661 1.51457 6.34617 1.6396 6.4712C1.76462 6.59622 1.93419 6.66646 2.111 6.66646Z" fill="black"/>
<path d="M2.111 4.0002H14.111C14.2878 4.0002 14.4574 3.92996 14.5824 3.80494C14.7074 3.67991 14.7777 3.51035 14.7777 3.33354C14.7777 3.15672 14.7074 2.98716 14.5824 2.86213C14.4574 2.73711 14.2878 2.66687 14.111 2.66687H2.111C1.93419 2.66687 1.76462 2.73711 1.6396 2.86213C1.51457 2.98716 1.44434 3.15672 1.44434 3.33354C1.44434 3.51035 1.51457 3.67991 1.6396 3.80494C1.76462 3.92996 1.93419 4.0002 2.111 4.0002Z" fill="black"/>
</g>
<defs>
<clipPath id="clip0_483_13860">
<rect width="16" height="16" fill="white" transform="translate(0.111328)"/>
</clipPath>
</defs>
</svg>
