<svg width="17" height="16" viewBox="0 0 17 16" fill="none" xmlns="http://www.w3.org/2000/svg">
<g clip-path="url(#clip0_483_13716)">
<path d="M15.889 8.66707H1.22233C1.04552 8.66707 0.87595 8.59684 0.750926 8.47181C0.625902 8.34679 0.555664 8.17722 0.555664 8.00041C0.555664 7.8236 0.625902 7.65403 0.750926 7.529C0.87595 7.40398 1.04552 7.33374 1.22233 7.33374H15.889C16.0658 7.33374 16.2354 7.40398 16.3604 7.529C16.4854 7.65403 16.5557 7.8236 16.5557 8.00041C16.5557 8.17722 16.4854 8.34679 16.3604 8.47181C16.2354 8.59684 16.0658 8.66707 15.889 8.66707ZM13.1783 4.75107C13.2621 4.39553 13.2231 4.02209 13.0677 3.69152C12.9123 3.36095 12.6496 3.0927 12.3223 2.93041L7.001 0.285741C6.66881 0.097095 6.29323 -0.0018026 5.91122 -0.00121813C5.52921 -0.000633655 5.15394 0.0994128 4.82233 0.289074C4.53342 0.456517 4.29454 0.698164 4.13044 0.988981C3.96633 1.2798 3.88297 1.60921 3.889 1.94307V4.00041C3.889 4.53084 4.09971 5.03955 4.47478 5.41462C4.84986 5.78969 5.35856 6.00041 5.889 6.00041H11.4343C11.8246 6.02583 12.2117 5.91525 12.5296 5.68747C12.8476 5.4597 13.0768 5.1288 13.1783 4.75107ZM6.38033 1.46707L11.7217 4.12041C11.781 4.14674 11.8294 4.19282 11.8585 4.2508C11.8877 4.30878 11.8959 4.37508 11.8817 4.43841C11.8323 4.64374 11.5523 4.66574 11.4343 4.66574H5.889C5.71242 4.66574 5.54305 4.59569 5.41806 4.47095C5.29308 4.34621 5.22268 4.17699 5.22233 4.00041V1.94307C5.21741 1.8413 5.24086 1.74015 5.29007 1.65092C5.33927 1.5617 5.4123 1.48789 5.501 1.43774C5.62116 1.36849 5.75764 1.33258 5.89633 1.33374C6.06638 1.33631 6.23296 1.3822 6.38033 1.46707ZM6.97433 15.7297L12.3297 13.0671C12.6551 12.9039 12.9159 12.6357 13.0699 12.3059C13.2239 11.9761 13.2621 11.604 13.1783 11.2497C13.0768 10.872 12.8476 10.5411 12.5296 10.3133C12.2117 10.0856 11.8246 9.97499 11.4343 10.0004H5.889C5.35856 10.0004 4.84986 10.2111 4.47478 10.5862C4.09971 10.9613 3.889 11.47 3.889 12.0004V14.0571C3.8829 14.391 3.96623 14.7204 4.13034 15.0112C4.29446 15.302 4.53338 15.5437 4.82233 15.7111C5.1527 15.9028 5.52835 16.0027 5.91033 16.0004C6.28234 16.0015 6.6485 15.9079 6.97433 15.7284V15.7297ZM11.4343 11.3337C11.5523 11.3337 11.8343 11.3557 11.8817 11.5611C11.8961 11.6231 11.8888 11.6882 11.861 11.7454C11.8332 11.8027 11.7866 11.8487 11.729 11.8757L6.35566 14.5484C6.22647 14.6231 6.0803 14.6636 5.93106 14.6659C5.78183 14.6683 5.63447 14.6324 5.503 14.5617C5.41387 14.5119 5.3404 14.4382 5.29082 14.349C5.24125 14.2597 5.21753 14.1584 5.22233 14.0564V12.0004C5.22233 11.8236 5.29257 11.654 5.41759 11.529C5.54262 11.404 5.71219 11.3337 5.889 11.3337H11.4343Z" fill="black"/>
</g>
<defs>
<clipPath id="clip0_483_13716">
<rect width="16" height="16" fill="white" transform="translate(0.555664)"/>
</clipPath>
</defs>
</svg>
