<svg width="17" height="16" viewBox="0 0 17 16" fill="none" xmlns="http://www.w3.org/2000/svg">
<g clip-path="url(#clip0_482_18043)">
<path d="M13.3002 8.05271C13.1908 7.66204 13.0675 7.24871 12.9302 6.80404C12.5235 5.68285 12.2487 4.51812 12.1115 3.33337C12.1115 3.15656 12.1817 2.98699 12.3067 2.86197C12.4318 2.73695 12.6013 2.66671 12.7782 2.66671C12.955 2.66671 13.1245 2.73695 13.2496 2.86197C13.3746 2.98699 13.4448 3.15656 13.4448 3.33337C13.4448 3.51019 13.5151 3.67975 13.6401 3.80478C13.7651 3.9298 13.9347 4.00004 14.1115 4.00004C14.2883 4.00004 14.4579 3.9298 14.5829 3.80478C14.7079 3.67975 14.7782 3.51019 14.7782 3.33337C14.7782 2.80294 14.5674 2.29423 14.1924 1.91916C13.8173 1.54409 13.3086 1.33337 12.7782 1.33337C12.2477 1.33337 11.739 1.54409 11.3639 1.91916C10.9889 2.29423 10.7782 2.80294 10.7782 3.33337C10.7947 3.84244 10.866 4.34824 10.9908 4.84204L7.79082 7.33337L4.09215 4.66671H6.11149C6.2883 4.66671 6.45787 4.59647 6.58289 4.47145C6.70791 4.34642 6.77815 4.17685 6.77815 4.00004C6.77815 3.82323 6.70791 3.65366 6.58289 3.52864C6.45787 3.40361 6.2883 3.33337 6.11149 3.33337H4.09215C3.8152 3.33329 3.54531 3.42081 3.32111 3.58341C3.0969 3.746 2.92987 3.97535 2.84391 4.23863C2.75795 4.5019 2.75747 4.78563 2.84253 5.0492C2.92759 5.31277 3.09384 5.54268 3.31749 5.70604L6.69815 8.18071L5.73949 8.92671C5.14401 8.36606 4.36169 8.04631 3.544 8.02935C2.7263 8.01239 1.9314 8.29944 1.3132 8.83492C0.694992 9.3704 0.297465 10.1162 0.197582 10.928C0.0976988 11.7397 0.302565 12.5597 0.772515 13.229C1.24247 13.8984 1.94407 14.3696 2.74148 14.5514C3.5389 14.7331 4.3754 14.6126 5.08902 14.213C5.80265 13.8134 6.34263 13.1633 6.60443 12.3885C6.86622 11.6136 6.8312 10.7692 6.50615 10.0187L11.3655 6.23937C11.4595 6.55671 11.8502 7.82871 11.9362 8.12137C11.1393 8.32943 10.4478 8.82545 9.99537 9.51359C9.5429 10.2017 9.36154 11.0332 9.48634 11.8472C9.61113 12.6613 10.0332 13.4002 10.671 13.9212C11.3089 14.4422 12.1172 14.7083 12.9398 14.6681C13.7623 14.6279 14.5408 14.2842 15.1248 13.7035C15.7088 13.1228 16.0568 12.3462 16.1016 11.5239C16.1464 10.7015 15.8849 9.89176 15.3675 9.25102C14.85 8.61028 14.1135 8.18406 13.3002 8.05471V8.05271ZM3.44482 13.3334C3.04926 13.3334 2.66258 13.2161 2.33368 12.9963C2.00478 12.7766 1.74843 12.4642 1.59706 12.0987C1.44568 11.7333 1.40608 11.3312 1.48325 10.9432C1.56042 10.5552 1.7509 10.1989 2.03061 9.91916C2.31031 9.63946 2.66668 9.44897 3.05464 9.3718C3.4426 9.29463 3.84473 9.33424 4.21019 9.48561C4.57564 9.63699 4.88799 9.89334 5.10776 10.2222C5.32752 10.5511 5.44482 10.9378 5.44482 11.3334C5.44482 11.8638 5.2341 12.3725 4.85903 12.7476C4.48396 13.1227 3.97525 13.3334 3.44482 13.3334ZM12.7782 13.3334C12.3826 13.3334 11.9959 13.2161 11.667 12.9963C11.3381 12.7766 11.0818 12.4642 10.9304 12.0987C10.779 11.7333 10.7394 11.3312 10.8166 10.9432C10.8938 10.5552 11.0842 10.1989 11.3639 9.91916C11.6436 9.63946 12 9.44897 12.388 9.3718C12.7759 9.29463 13.1781 9.33424 13.5435 9.48561C13.909 9.63699 14.2213 9.89334 14.4411 10.2222C14.6609 10.5511 14.7782 10.9378 14.7782 11.3334C14.7782 11.8638 14.5674 12.3725 14.1924 12.7476C13.8173 13.1227 13.3086 13.3334 12.7782 13.3334Z" fill="black"/>
</g>
<defs>
<clipPath id="clip0_482_18043">
<rect width="16" height="16" fill="white" transform="translate(0.111328)"/>
</clipPath>
</defs>
</svg>
