<svg width="16" height="16" viewBox="0 0 16 16" fill="none" xmlns="http://www.w3.org/2000/svg">
<g clip-path="url(#clip0_483_13702)">
<path d="M12.8888 9.77838C12.3847 9.77879 11.8883 9.90184 11.4425 10.1369C10.9966 10.372 10.6146 10.712 10.3295 11.1277L5.99012 9.16838C6.29833 8.42413 6.29952 7.58817 5.99345 6.84305L10.3268 4.87371C10.7494 5.48488 11.377 5.92435 12.0958 6.11241C12.8147 6.30046 13.5771 6.22465 14.2449 5.89871C14.9126 5.57278 15.4414 5.01831 15.7353 4.33589C16.0293 3.65347 16.0689 2.88829 15.847 2.17916C15.6251 1.47003 15.1564 0.863909 14.5259 0.470749C13.8954 0.0775879 13.1449 -0.076573 12.4105 0.0362293C11.6761 0.149032 11.0064 0.521326 10.5229 1.08558C10.0395 1.64984 9.7743 2.36868 9.77545 3.11171C9.77828 3.28758 9.79612 3.46288 9.82878 3.63571L5.22212 5.72905C4.77968 5.31452 4.22579 5.03827 3.6285 4.93422C3.03121 4.83017 2.41654 4.90286 1.85999 5.14335C1.30344 5.38384 0.829268 5.78167 0.495715 6.28795C0.162163 6.79424 -0.0162385 7.38693 -0.0175706 7.99321C-0.0189027 8.59949 0.156892 9.19296 0.488217 9.70071C0.819542 10.2085 1.29197 10.6084 1.84745 10.8513C2.40293 11.0942 3.01728 11.1696 3.61502 11.0682C4.21276 10.9668 4.76786 10.693 5.21212 10.2804L9.83078 12.3657C9.7987 12.5384 9.78109 12.7134 9.77812 12.889C9.77799 13.5045 9.96037 14.1061 10.3022 14.6179C10.644 15.1296 11.1299 15.5285 11.6985 15.7641C12.267 15.9997 12.8927 16.0613 13.4963 15.9413C14.0999 15.8213 14.6543 15.5249 15.0895 15.0898C15.5247 14.6546 15.821 14.1001 15.941 13.4965C16.0611 12.8929 15.9994 12.2673 15.7638 11.6987C15.5282 11.1302 15.1294 10.6443 14.6176 10.3025C14.1058 9.96063 13.5042 9.77825 12.8888 9.77838ZM12.8888 1.33371C13.2405 1.33358 13.5843 1.43775 13.8768 1.63303C14.1692 1.82832 14.3972 2.10596 14.5319 2.43084C14.6666 2.75571 14.7019 3.11323 14.6334 3.45817C14.5648 3.80312 14.3956 4.11999 14.1469 4.36871C13.8983 4.61744 13.5815 4.78684 13.2366 4.8555C12.8917 4.92416 12.5341 4.88899 12.2092 4.75443C11.8843 4.61988 11.6065 4.39199 11.4111 4.09959C11.2157 3.80718 11.1115 3.4634 11.1115 3.11171C11.1118 2.64038 11.2992 2.18845 11.6324 1.8551C11.9656 1.52176 12.4175 1.33424 12.8888 1.33371ZM3.11145 9.77838C2.75977 9.77851 2.41594 9.67435 2.12347 9.47906C1.83099 9.28377 1.60299 9.00613 1.46832 8.68125C1.33364 8.35638 1.29834 7.99886 1.36687 7.65392C1.4354 7.30897 1.60468 6.9921 1.85331 6.74338C2.10194 6.49465 2.41875 6.32525 2.76367 6.25659C3.10859 6.18793 3.46612 6.2231 3.79104 6.35766C4.11597 6.49221 4.39369 6.7201 4.58909 7.01251C4.78449 7.30491 4.88878 7.64869 4.88878 8.00038C4.88826 8.47166 4.70085 8.92349 4.36767 9.25679C4.03449 9.5901 3.58273 9.77767 3.11145 9.77838ZM12.8888 14.667C12.5371 14.667 12.1934 14.5628 11.901 14.3674C11.6086 14.172 11.3807 13.8943 11.2461 13.5695C11.1116 13.2446 11.0763 12.8871 11.1449 12.5422C11.2136 12.1973 11.3829 11.8805 11.6315 11.6318C11.8802 11.3832 12.197 11.2138 12.5419 11.1452C12.8868 11.0766 13.2443 11.1118 13.5692 11.2464C13.8941 11.381 14.1718 11.6089 14.3671 11.9012C14.5625 12.1936 14.6668 12.5374 14.6668 12.889C14.6664 13.3605 14.479 13.8125 14.1456 14.1459C13.8123 14.4793 13.3602 14.6667 12.8888 14.667Z" fill="black"/>
</g>
<defs>
<clipPath id="clip0_483_13702">
<rect width="16" height="16" fill="white"/>
</clipPath>
</defs>
</svg>
