<svg width="16" height="16" viewBox="0 0 16 16" fill="none" xmlns="http://www.w3.org/2000/svg">
<g clip-path="url(#clip0_483_13747)">
<path d="M9.66684 8.6662C9.46906 8.6662 9.27572 8.60755 9.11128 8.49767C8.94683 8.38779 8.81865 8.23161 8.74297 8.04888C8.66728 7.86615 8.64748 7.66509 8.68606 7.47111C8.72465 7.27713 8.81989 7.09894 8.95974 6.95909C9.09959 6.81924 9.27777 6.724 9.47175 6.68541C9.66574 6.64683 9.8668 6.66663 10.0495 6.74232C10.2323 6.81801 10.3884 6.94618 10.4983 7.11063C10.6082 7.27508 10.6668 7.46842 10.6668 7.6662C10.6668 7.93141 10.5615 8.18577 10.374 8.3733C10.1864 8.56084 9.93206 8.6662 9.66684 8.6662ZM15.9502 12.0955C16.0334 12.5743 16.0109 13.0655 15.8842 13.5347C15.7576 14.0039 15.5299 14.4398 15.2171 14.8117C14.9043 15.1836 14.514 15.4827 14.0734 15.6878C13.6329 15.893 13.1528 15.9994 12.6668 15.9995H10.0002C9.82337 15.9995 9.6538 15.9293 9.52877 15.8043C9.40375 15.6792 9.33351 15.5097 9.33351 15.3329V13.8242C8.8983 13.939 8.45026 13.9979 8.00018 13.9995C7.54984 13.9972 7.10168 13.9367 6.66685 13.8195V15.3329C6.66685 15.5097 6.59661 15.6792 6.47159 15.8043C6.34656 15.9293 6.17699 15.9995 6.00018 15.9995H3.33352C2.84754 15.9994 2.36746 15.893 1.92692 15.6878C1.48638 15.4827 1.09604 15.1836 0.783239 14.8117C0.470438 14.4398 0.242748 14.0039 0.11612 13.5347C-0.0105085 13.0655 -0.0330108 12.5743 0.050189 12.0955L0.250189 10.9355C0.316694 10.5497 0.497251 10.1927 0.768577 9.91046C1.0399 9.62823 1.38955 9.43376 1.77244 9.35212C2.15533 9.27047 2.5539 9.30541 2.91675 9.45241C3.2796 9.59941 3.59009 9.85174 3.80818 10.1769C4.65085 11.4155 6.27285 12.6662 8.00018 12.6662C10.0868 12.6662 12.1428 10.8135 12.7535 9.0822C12.8025 8.95206 12.8899 8.83987 13.004 8.76047C13.1182 8.68106 13.2538 8.63819 13.3928 8.63753L13.6808 8.6422C13.8099 8.64379 13.938 8.6197 14.0577 8.57134C14.1774 8.52298 14.2863 8.45131 14.378 8.36049C14.4698 8.26968 14.5426 8.16153 14.5921 8.04234C14.6417 7.92315 14.6671 7.79529 14.6668 7.6662C14.6666 7.43237 14.5844 7.20603 14.4346 7.0265C14.2848 6.84697 14.0768 6.72562 13.8468 6.68353C13.705 6.6578 13.5753 6.58679 13.4772 6.48114C13.3792 6.37549 13.318 6.24089 13.3028 6.09753C13.1658 4.78772 12.5477 3.57535 11.5681 2.69514C10.5885 1.81493 9.31713 1.32951 8.00018 1.33286C4.28218 1.33286 3.26152 3.75153 2.44152 5.69553C2.29219 6.04686 2.15152 6.3822 2.00019 6.6842C3.34071 6.61331 4.64785 6.2402 5.8238 5.59277C6.99975 4.94533 8.01406 4.04035 8.79085 2.94553C8.84171 2.87427 8.90611 2.81372 8.98038 2.76734C9.05464 2.72097 9.13732 2.68968 9.22367 2.67525C9.31003 2.66083 9.39839 2.66356 9.48369 2.68328C9.569 2.703 9.64958 2.73933 9.72084 2.7902C9.79211 2.84106 9.85266 2.90547 9.89903 2.97973C9.9454 3.054 9.9767 3.13667 9.99112 3.22303C10.0055 3.30939 10.0028 3.39774 9.9831 3.48304C9.96337 3.56835 9.92704 3.64893 9.87618 3.7202C9.01086 4.94697 7.88193 5.96451 6.57218 6.6982C6.77183 6.74721 6.95152 6.85657 7.08679 7.01138C7.22205 7.16619 7.30632 7.35893 7.32811 7.56335C7.3499 7.76777 7.30816 7.97394 7.20857 8.15379C7.10898 8.33364 6.95638 8.47842 6.77155 8.56842C6.58672 8.65843 6.37864 8.68928 6.17565 8.65678C5.97266 8.62428 5.78461 8.53 5.63712 8.38679C5.48963 8.24358 5.38986 8.05839 5.3514 7.85644C5.31294 7.65449 5.33766 7.4456 5.42218 7.2582C3.8894 7.87886 2.23205 8.13007 0.584188 7.99153C0.446836 7.97312 0.318635 7.91237 0.217413 7.81772C0.116192 7.72307 0.0469825 7.59922 0.01941 7.46341C-0.0081626 7.32761 0.00727251 7.18658 0.0635687 7.05995C0.119865 6.93332 0.214224 6.82738 0.333522 6.75686C0.736543 6.2996 1.03644 5.76096 1.21285 5.17753C2.08285 3.11553 3.40018 -0.00046961 8.00018 -0.00046961C9.56976 -0.00418793 11.09 0.547562 12.2919 1.55711C13.4937 2.56665 14.2996 3.96887 14.5668 5.51553C14.9911 5.69289 15.3535 5.99165 15.6085 6.37428C15.8635 6.75692 15.9998 7.20637 16.0002 7.6662C15.999 8.22018 15.7967 8.75489 15.4308 9.17086C15.4355 9.1882 15.4475 9.2022 15.4508 9.22086L15.9502 12.0955ZM5.33352 13.2929C4.27902 12.7278 3.37743 11.9152 2.70619 10.9249C2.64906 10.8385 2.57156 10.7676 2.48052 10.7183C2.38949 10.669 2.28771 10.6428 2.18419 10.6422H2.17285C2.0269 10.6453 1.88653 10.6989 1.77576 10.794C1.66498 10.8891 1.59067 11.0197 1.56552 11.1635L1.36552 12.3229C1.31548 12.6101 1.32882 12.9047 1.40461 13.1862C1.4804 13.4677 1.61682 13.7292 1.80429 13.9524C1.99177 14.1757 2.22578 14.3552 2.48993 14.4785C2.75409 14.6018 3.04201 14.6659 3.33352 14.6662H5.33352V13.2929ZM14.6368 12.3229L14.2182 9.9142C14.0914 9.94442 13.9623 9.9636 13.8322 9.97153C13.1596 11.3908 12.0503 12.5575 10.6668 13.3009V14.6662H12.6668C12.9585 14.6661 13.2465 14.6023 13.5109 14.4792C13.7752 14.356 14.0094 14.1766 14.1971 13.9534C14.3848 13.7302 14.5214 13.4687 14.5974 13.1871C14.6733 12.9056 14.6868 12.6108 14.6368 12.3235V12.3229Z" fill="black"/>
</g>
<defs>
<clipPath id="clip0_483_13747">
<rect width="16" height="16" fill="white"/>
</clipPath>
</defs>
</svg>
