<svg width="17" height="16" viewBox="0 0 17 16" fill="none" xmlns="http://www.w3.org/2000/svg">
<g clip-path="url(#clip0_483_13685)">
<path d="M9.22238 10.6664C10.2772 10.6664 11.3084 10.3536 12.1854 9.76761C13.0625 9.18158 13.7461 8.34863 14.1497 7.37409C14.5534 6.39955 14.659 5.32719 14.4532 4.29263C14.2474 3.25806 13.7395 2.30775 12.9936 1.56187C12.2477 0.815992 11.2974 0.308041 10.2629 0.102253C9.22829 -0.103535 8.15594 0.00208286 7.1814 0.40575C6.20686 0.809418 5.37391 1.493 4.78787 2.37007C4.20184 3.24713 3.88904 4.27827 3.88904 5.33311C3.89063 6.74711 4.45304 8.10274 5.4529 9.10259C6.45274 10.1024 7.80838 10.6649 9.22238 10.6664ZM9.22238 1.33311C10.0135 1.33311 10.7869 1.5677 11.4447 2.00723C12.1025 2.44675 12.6151 3.07147 12.9179 3.80237C13.2206 4.53328 13.2999 5.33754 13.1455 6.11347C12.9912 6.88939 12.6102 7.60212 12.0508 8.16154C11.4914 8.72095 10.7787 9.10191 10.0027 9.25625C9.22681 9.41059 8.42255 9.33138 7.69164 9.02863C6.96074 8.72587 6.33602 8.21319 5.8965 7.55539C5.45697 6.89759 5.22238 6.12423 5.22238 5.33311C5.22344 4.27257 5.6452 3.25577 6.39512 2.50585C7.14504 1.75593 8.16184 1.33417 9.22238 1.33311ZM15.827 9.84844C15.1551 10.8274 14.2736 11.6445 13.2465 12.2402C12.2194 12.8359 11.0724 13.1954 9.88904 13.2924V14.6664H12.5557C12.7325 14.6664 12.9021 14.7367 13.0271 14.8617C13.1521 14.9867 13.2224 15.1563 13.2224 15.3331C13.2224 15.5099 13.1521 15.6795 13.0271 15.8045C12.9021 15.9295 12.7325 15.9998 12.5557 15.9998H5.88904C5.71223 15.9998 5.54266 15.9295 5.41764 15.8045C5.29262 15.6795 5.22238 15.5099 5.22238 15.3331C5.22238 15.1563 5.29262 14.9867 5.41764 14.8617C5.54266 14.7367 5.71223 14.6664 5.88904 14.6664H8.55571V13.2991C7.10067 13.1781 5.70655 12.6609 4.52456 11.8038C3.34257 10.9466 2.41783 9.78222 1.85064 8.43682C1.28346 7.09142 1.09547 5.61641 1.30708 4.17176C1.51869 2.72711 2.12182 1.36798 3.05104 0.241774C3.16367 0.105453 3.32584 0.0194568 3.50188 0.00270352C3.67791 -0.0140497 3.85339 0.0398125 3.98971 0.152441C4.12603 0.26507 4.21203 0.427239 4.22878 0.603273C4.24553 0.779307 4.19167 0.954786 4.07904 1.09111C3.50674 1.78612 3.08114 2.58984 2.82792 3.45381C2.5747 4.31778 2.49909 5.22409 2.60567 6.11808C2.71224 7.01206 2.99879 7.87519 3.44803 8.65542C3.89727 9.43564 4.49989 10.1168 5.21954 10.6578C5.93919 11.1988 6.76096 11.5884 7.63529 11.8031C8.50961 12.0179 9.41838 12.0533 10.3068 11.9073C11.1952 11.7613 12.0448 11.4368 12.8044 10.9535C13.5639 10.4702 14.2178 9.83799 14.7264 9.09511C14.8263 8.94915 14.9801 8.84886 15.1539 8.81629C15.3278 8.78372 15.5074 8.82154 15.6534 8.92144C15.7993 9.02134 15.8996 9.17513 15.9322 9.34897C15.9648 9.52282 15.9269 9.70248 15.827 9.84844Z" fill="black"/>
</g>
<defs>
<clipPath id="clip0_483_13685">
<rect width="16" height="16" fill="white" transform="translate(0.555664)"/>
</clipPath>
</defs>
</svg>
