<svg width="17" height="16" viewBox="0 0 17 16" fill="none" xmlns="http://www.w3.org/2000/svg">
<g clip-path="url(#clip0_483_13636)">
<path d="M7.9332 15.3328C7.9332 15.2009 7.97229 15.0721 8.04555 14.9624C8.1188 14.8528 8.22292 14.7673 8.34474 14.7169C8.46656 14.6664 8.6006 14.6532 8.72992 14.6789C8.85924 14.7047 8.97803 14.7682 9.07127 14.8614C9.1645 14.9546 9.228 15.0734 9.25372 15.2027C9.27944 15.3321 9.26624 15.4661 9.21578 15.5879C9.16532 15.7097 9.07987 15.8139 8.97024 15.8871C8.86061 15.9604 8.73172 15.9995 8.59986 15.9995C8.42305 15.9995 8.25348 15.9292 8.12846 15.8042C8.00343 15.6792 7.9332 15.5096 7.9332 15.3328ZM10.9565 13.9181C11.0815 13.7931 11.1517 13.6236 11.1517 13.4468C11.1517 13.27 11.0815 13.1005 10.9565 12.9755C10.3314 12.3506 9.48374 11.9995 8.59986 11.9995C7.71598 11.9995 6.86829 12.3506 6.2432 12.9755C6.12176 13.1012 6.05456 13.2696 6.05608 13.4444C6.0576 13.6192 6.12771 13.7864 6.25132 13.91C6.37492 14.0336 6.54213 14.1037 6.71693 14.1053C6.89173 14.1068 7.06013 14.0396 7.18586 13.9181C7.56699 13.5548 8.07332 13.3522 8.59986 13.3522C9.1264 13.3522 9.63274 13.5548 10.0139 13.9181C10.1389 14.0431 10.3084 14.1133 10.4852 14.1133C10.662 14.1133 10.8315 14.0431 10.9565 13.9181ZM12.8425 12.0328C12.9675 11.9078 13.0377 11.7382 13.0377 11.5615C13.0377 11.3847 12.9675 11.2152 12.8425 11.0901C11.7164 9.96653 10.1906 9.33551 8.59986 9.33551C7.00909 9.33551 5.48328 9.96653 4.3572 11.0901C4.23576 11.2159 4.16856 11.3843 4.17008 11.5591C4.1716 11.7339 4.24171 11.9011 4.36532 12.0247C4.48892 12.1483 4.65613 12.2184 4.83093 12.2199C5.00573 12.2214 5.17413 12.1542 5.29986 12.0328C6.176 11.1593 7.3627 10.6688 8.59986 10.6688C9.83703 10.6688 11.0237 11.1593 11.8999 12.0328C12.0249 12.1578 12.1944 12.228 12.3712 12.228C12.548 12.228 12.7175 12.1578 12.8425 12.0328ZM4.59119 14.7735C4.60529 14.6871 4.60223 14.5987 4.58219 14.5135C4.56215 14.4283 4.52551 14.3478 4.47438 14.2767C4.42324 14.2057 4.35861 14.1454 4.28417 14.0993C4.20973 14.0532 4.12694 14.0222 4.04053 14.0081C3.53677 13.9285 3.06867 13.699 2.69719 13.3495C2.32572 13 2.06809 12.5468 1.95786 12.0488C1.88613 11.5726 1.96464 11.086 2.18247 10.6565C2.4003 10.2271 2.74661 9.87621 3.17319 9.6528C3.48028 9.4843 3.70872 9.20172 3.80914 8.86615C3.90956 8.53057 3.8739 8.16896 3.70986 7.85947C3.45064 7.36578 3.29749 6.82335 3.26027 6.26698C3.22304 5.71062 3.30254 5.15261 3.49368 4.62879C3.68482 4.10496 3.98337 3.62689 4.37017 3.22524C4.75696 2.8236 5.22346 2.50727 5.73972 2.29654C6.25598 2.08582 6.81059 1.98536 7.36796 2.00162C7.92533 2.01788 8.47315 2.15049 8.97625 2.39095C9.47935 2.6314 9.92661 2.97439 10.2893 3.39789C10.6521 3.8214 10.9222 4.31606 11.0825 4.85014C11.1812 5.17194 11.357 5.46478 11.5946 5.70319C11.8322 5.9416 12.1244 6.11837 12.4459 6.21814C13.3168 6.48326 14.0705 7.03886 14.5815 7.79232C15.0924 8.54578 15.3298 9.4516 15.2539 10.3588C15.1943 11.0401 14.9515 11.6925 14.5513 12.2471C14.1511 12.8016 13.6083 13.2376 12.9805 13.5088C12.8251 13.5872 12.7064 13.7233 12.65 13.888C12.5935 14.0527 12.6038 14.2329 12.6785 14.3902C12.7532 14.5474 12.8865 14.6692 13.0498 14.7295C13.2131 14.7898 13.3936 14.7838 13.5525 14.7128C14.3944 14.3439 15.1207 13.7539 15.6544 13.0055C16.1881 12.2572 16.5093 11.3783 16.5839 10.4621C16.6845 9.2526 16.3676 8.04509 15.6858 7.04096C15.004 6.03683 13.9986 5.29675 12.8372 4.94414C12.7228 4.9086 12.619 4.84532 12.535 4.75995C12.4511 4.67457 12.3895 4.56974 12.3559 4.4548C12.0029 3.32153 11.282 2.33836 10.3073 1.661C9.33262 0.98363 8.15981 0.65077 6.97459 0.715123C5.78937 0.779476 4.65949 1.23736 3.76385 2.01629C2.86822 2.79521 2.25801 3.85064 2.02986 5.01547C1.7968 6.19407 1.98013 7.41702 2.54853 8.47547C1.87853 8.8258 1.33444 9.3763 0.991976 10.0503C0.649516 10.7244 0.525734 11.4884 0.637861 12.2361C0.790184 13.0149 1.17737 13.7283 1.74733 14.2804C2.31728 14.8324 3.04266 15.1967 3.82586 15.3241C3.91227 15.3382 4.00061 15.3352 4.08584 15.3151C4.17107 15.2951 4.25151 15.2585 4.32258 15.2073C4.39365 15.1562 4.45395 15.0916 4.50004 15.0171C4.54613 14.9427 4.5771 14.8599 4.59119 14.7735Z" fill="black"/>
</g>
<defs>
<clipPath id="clip0_483_13636">
<rect width="16" height="16" fill="white" transform="translate(0.599609)"/>
</clipPath>
</defs>
</svg>
