<svg width="17" height="16" viewBox="0 0 17 16" fill="none" xmlns="http://www.w3.org/2000/svg">
<g clip-path="url(#clip0_483_13768)">
<path d="M13.4449 5.33333C12.7376 5.33333 12.0594 5.05238 11.5593 4.55229C11.0592 4.05219 10.7782 3.37391 10.7782 2.66667C10.7782 1.95942 11.0592 1.28115 11.5593 0.781049C12.0594 0.280952 12.7376 0 13.4449 0C14.1521 0 14.8304 0.280952 15.3305 0.781049C15.8306 1.28115 16.1115 1.95942 16.1115 2.66667C16.1115 3.37391 15.8306 4.05219 15.3305 4.55229C14.8304 5.05238 14.1521 5.33333 13.4449 5.33333ZM13.4449 1.33333C13.0913 1.33333 12.7521 1.47381 12.5021 1.72386C12.252 1.97391 12.1115 2.31304 12.1115 2.66667C12.1115 3.02029 12.252 3.35943 12.5021 3.60948C12.7521 3.85952 13.0913 4 13.4449 4C13.7985 4 14.1376 3.85952 14.3877 3.60948C14.6377 3.35943 14.7782 3.02029 14.7782 2.66667C14.7782 2.31304 14.6377 1.97391 14.3877 1.72386C14.1376 1.47381 13.7985 1.33333 13.4449 1.33333ZM14.4129 16H8.50421C8.20533 16.0026 7.91104 15.9264 7.65106 15.7789C7.39108 15.6314 7.17463 15.4179 7.02355 15.16C6.87549 14.9115 6.79573 14.6282 6.79233 14.3389C6.78894 14.0497 6.86203 13.7646 7.00421 13.5127L9.96155 8.20667C10.1138 7.94369 10.3326 7.72536 10.5958 7.57359C10.8591 7.42181 11.1577 7.34192 11.4615 7.34192C11.7654 7.34192 12.064 7.42181 12.3273 7.57359C12.5905 7.72536 12.8093 7.94369 12.9615 8.20667L15.9115 13.5087C16.054 13.761 16.1273 14.0464 16.124 14.3362C16.1207 14.6259 16.041 14.9096 15.8929 15.1587C15.7419 15.4166 15.5256 15.6302 15.2657 15.7779C15.0059 15.9256 14.7117 16.0022 14.4129 16ZM11.4602 8.66667C11.3928 8.66508 11.3262 8.68178 11.2675 8.715C11.2088 8.74821 11.1602 8.79671 11.1269 8.85533L8.16955 14.1613C8.14096 14.2106 8.12624 14.2666 8.12695 14.3236C8.12765 14.3805 8.14376 14.4362 8.17355 14.4847C8.20769 14.5421 8.25665 14.5893 8.31529 14.6213C8.37393 14.6533 8.44011 14.669 8.50688 14.6667H14.4155C14.4824 14.6687 14.5486 14.6527 14.6072 14.6205C14.6658 14.5882 14.7147 14.5409 14.7489 14.4833C14.7782 14.434 14.7936 14.3777 14.7936 14.3203C14.7936 14.263 14.7782 14.2067 14.7489 14.1573L11.7942 8.856C11.761 8.79706 11.7124 8.74828 11.6535 8.71492C11.5947 8.68155 11.5278 8.66487 11.4602 8.66667ZM5.44488 15.3333C5.44488 15.1565 5.37464 14.987 5.24962 14.8619C5.12459 14.7369 4.95502 14.6667 4.77821 14.6667H2.34488C2.18897 14.6666 2.03576 14.626 1.90029 14.5488C1.76482 14.4716 1.65174 14.3606 1.57213 14.2265C1.49253 14.0924 1.44915 13.94 1.44624 13.7841C1.44334 13.6282 1.481 13.4743 1.55555 13.3373L5.99021 5.13733C6.06606 4.99441 6.1796 4.87498 6.31851 4.792C6.45743 4.70903 6.61641 4.66569 6.77821 4.66667C6.94018 4.66534 7.09939 4.70854 7.23847 4.79154C7.37755 4.87454 7.49116 4.99416 7.56688 5.13733L8.38488 6.64867C8.42655 6.72571 8.48299 6.79379 8.55098 6.84902C8.61896 6.90425 8.69716 6.94555 8.7811 6.97056C8.86504 6.99557 8.95309 7.0038 9.04022 6.99478C9.12734 6.98576 9.21184 6.95967 9.28888 6.918C9.36592 6.87633 9.434 6.81989 9.48923 6.7519C9.54446 6.68392 9.58576 6.60572 9.61077 6.52178C9.63578 6.43784 9.64401 6.34979 9.635 6.26266C9.62598 6.17554 9.59989 6.09104 9.55822 6.014L8.74088 4.50333C8.54984 4.1495 8.26664 3.85392 7.9213 3.64791C7.57596 3.44191 7.18133 3.33315 6.77921 3.33315C6.3771 3.33315 5.98247 3.44191 5.63712 3.64791C5.29178 3.85392 5.00859 4.1495 4.81755 4.50333L0.382213 12.7033C0.198282 13.0435 0.105781 13.4255 0.113757 13.8121C0.121732 14.1987 0.229912 14.5766 0.427715 14.9088C0.625517 15.2411 0.906169 15.5163 1.24222 15.7075C1.57827 15.8988 1.95821 15.9996 2.34488 16H4.77821C4.95502 16 5.12459 15.9298 5.24962 15.8047C5.37464 15.6797 5.44488 15.5101 5.44488 15.3333Z" fill="black"/>
</g>
<defs>
<clipPath id="clip0_483_13768">
<rect width="16" height="16" fill="white" transform="translate(0.111328)"/>
</clipPath>
</defs>
</svg>
