<svg width="16" height="16" viewBox="0 0 16 16" fill="none" xmlns="http://www.w3.org/2000/svg">
<g clip-path="url(#clip0_483_13691)">
<path d="M8 0C6.41775 0 4.87104 0.469192 3.55544 1.34824C2.23985 2.22729 1.21447 3.47672 0.608967 4.93853C0.00346629 6.40034 -0.15496 8.00887 0.153721 9.56072C0.462403 11.1126 1.22433 12.538 2.34315 13.6569C3.46197 14.7757 4.88743 15.5376 6.43928 15.8463C7.99113 16.155 9.59966 15.9965 11.0615 15.391C12.5233 14.7855 13.7727 13.7602 14.6518 12.4446C15.5308 11.129 16 9.58225 16 8C15.9977 5.87897 15.1541 3.84547 13.6543 2.34568C12.1545 0.845886 10.121 0.00229405 8 0V0ZM8 10.6667C4.184 10.6667 1.33334 9.25933 1.33334 8C1.33334 6.74067 4.184 5.33333 8 5.33333C11.816 5.33333 14.6667 6.74067 14.6667 8C14.6667 9.25933 11.816 10.6667 8 10.6667ZM8 1.33333C9.30427 1.33484 10.5795 1.71839 11.6682 2.4366C12.7569 3.15482 13.6114 4.17623 14.126 5.37467C12.2354 4.39951 10.126 3.92618 8 4C5.87399 3.92618 3.76463 4.39951 1.874 5.37467C2.38865 4.17623 3.2431 3.15482 4.33179 2.4366C5.42049 1.71839 6.69574 1.33484 8 1.33333ZM8 14.6667C6.69574 14.6652 5.42049 14.2816 4.33179 13.5634C3.2431 12.8452 2.38865 11.8238 1.874 10.6253C3.76463 11.6005 5.87399 12.0738 8 12C10.126 12.0738 12.2354 11.6005 14.126 10.6253C13.6114 11.8238 12.7569 12.8452 11.6682 13.5634C10.5795 14.2816 9.30427 14.6652 8 14.6667Z" fill="black"/>
</g>
<defs>
<clipPath id="clip0_483_13691">
<rect width="16" height="16" fill="white"/>
</clipPath>
</defs>
</svg>
