<svg width="17" height="16" viewBox="0 0 17 16" fill="none" xmlns="http://www.w3.org/2000/svg">
<g clip-path="url(#clip0_482_18059)">
<path d="M13.111 0H3.77767C2.89394 0.00105857 2.04671 0.352588 1.42182 0.97748C0.796924 1.60237 0.445395 2.4496 0.444336 3.33333L0.444336 12.6667C0.445395 13.5504 0.796924 14.3976 1.42182 15.0225C2.04671 15.6474 2.89394 15.9989 3.77767 16H11.3397C11.7777 16.0011 12.2115 15.9154 12.6161 15.7477C13.0208 15.5801 13.3881 15.3339 13.697 15.0233L15.4677 13.2527C15.7782 12.9438 16.0244 12.5764 16.1921 12.1718C16.3597 11.7672 16.4455 11.3333 16.4443 10.8953V3.33333C16.4433 2.4496 16.0917 1.60237 15.4669 0.97748C14.842 0.352588 13.9947 0.00105857 13.111 0V0ZM1.77767 12.6667V3.33333C1.77767 2.8029 1.98838 2.29419 2.36346 1.91912C2.73853 1.54405 3.24724 1.33333 3.77767 1.33333H13.111C13.6414 1.33333 14.1501 1.54405 14.5252 1.91912C14.9003 2.29419 15.111 2.8029 15.111 3.33333V10H12.4443C11.9139 10 11.4052 10.2107 11.0301 10.5858C10.655 10.9609 10.4443 11.4696 10.4443 12V14.6667H3.77767C3.24724 14.6667 2.73853 14.456 2.36346 14.0809C1.98838 13.7058 1.77767 13.1971 1.77767 12.6667ZM12.7543 14.0807C12.4862 14.3479 12.1474 14.5329 11.7777 14.614V12C11.7777 11.8232 11.8479 11.6536 11.9729 11.5286C12.098 11.4036 12.2675 11.3333 12.4443 11.3333H15.059C14.9779 11.703 14.7929 12.0419 14.5257 12.31L12.7543 14.0807ZM5.77767 5.83333V6.056C5.77486 6.40777 5.63314 6.74417 5.38339 6.99192C5.13365 7.23967 4.79612 7.37868 4.44434 7.37867C4.26992 7.37946 4.09705 7.34586 3.93562 7.2798C3.77419 7.21374 3.62737 7.11651 3.50354 6.99368C3.37971 6.87084 3.2813 6.7248 3.21395 6.5639C3.1466 6.40301 3.11161 6.23042 3.111 6.056V4.656C3.11161 4.48158 3.1466 4.30899 3.21395 4.1481C3.2813 3.9872 3.37971 3.84116 3.50354 3.71833C3.62737 3.59549 3.77419 3.49826 3.93562 3.4322C4.09705 3.36614 4.26992 3.33254 4.44434 3.33333C4.68786 3.33534 4.92629 3.40328 5.13429 3.52994C5.3423 3.6566 5.5121 3.83724 5.62567 4.05267C5.65106 4.10126 5.66663 4.15437 5.67149 4.20898C5.67635 4.26358 5.67041 4.31861 5.65401 4.37092C5.6376 4.42323 5.61105 4.4718 5.57588 4.51385C5.5407 4.5559 5.49759 4.59061 5.449 4.616C5.40041 4.64139 5.3473 4.65696 5.29269 4.66182C5.23809 4.66668 5.18306 4.66074 5.13075 4.64434C5.07844 4.62793 5.02987 4.60138 4.98782 4.56621C4.94577 4.53103 4.91106 4.48792 4.88567 4.43933C4.84246 4.35918 4.77895 4.2918 4.70149 4.24395C4.62403 4.19609 4.53535 4.16944 4.44434 4.16667C4.37853 4.16604 4.31327 4.17855 4.25236 4.20347C4.19145 4.22838 4.13613 4.2652 4.08962 4.31176C4.04312 4.35833 4.00638 4.4137 3.98155 4.47464C3.95671 4.53558 3.94429 4.60086 3.945 4.66667V6.04533C3.9442 6.11119 3.95656 6.17655 3.98135 6.23757C4.00615 6.29858 4.04287 6.35404 4.08938 6.40067C4.13589 6.44731 4.19125 6.48418 4.2522 6.50914C4.31315 6.53409 4.37848 6.54663 4.44434 6.546C4.57477 6.54452 4.69959 6.49272 4.79275 6.40142C4.88591 6.31013 4.94022 6.18638 4.94434 6.056V6H4.77767C4.68926 6 4.60448 5.96488 4.54197 5.90237C4.47945 5.83986 4.44434 5.75507 4.44434 5.66667C4.44434 5.57826 4.47945 5.49348 4.54197 5.43096C4.60448 5.36845 4.68926 5.33333 4.77767 5.33333H5.27767C5.41028 5.33333 5.53745 5.38601 5.63122 5.47978C5.72499 5.57355 5.77767 5.70073 5.77767 5.83333ZM9.77767 5.75867V6.95867C9.77767 7.06917 9.73377 7.17515 9.65563 7.25329C9.57749 7.33144 9.47151 7.37533 9.361 7.37533C9.2505 7.37533 9.14452 7.33144 9.06637 7.25329C8.98823 7.17515 8.94434 7.06917 8.94434 6.95867V3.75C8.94434 3.63949 8.98823 3.53351 9.06637 3.45537C9.14452 3.37723 9.2505 3.33333 9.361 3.33333H10.703C10.8135 3.33333 10.9195 3.37723 10.9976 3.45537C11.0758 3.53351 11.1197 3.63949 11.1197 3.75C11.1197 3.86051 11.0758 3.96649 10.9976 4.04463C10.9195 4.12277 10.8135 4.16667 10.703 4.16667H9.77767V4.92533H10.6037C10.7142 4.92533 10.8202 4.96923 10.8983 5.04737C10.9764 5.12551 11.0203 5.23149 11.0203 5.342C11.0203 5.45251 10.9764 5.55849 10.8983 5.63663C10.8202 5.71477 10.7142 5.75867 10.6037 5.75867H9.77767ZM7.77767 3.75V6.96267C7.77767 7.07317 7.73377 7.17915 7.65563 7.25729C7.57749 7.33543 7.47151 7.37933 7.361 7.37933C7.2505 7.37933 7.14452 7.33543 7.06637 7.25729C6.98823 7.17915 6.94434 7.07317 6.94434 6.96267V3.75C6.94434 3.63949 6.98823 3.53351 7.06637 3.45537C7.14452 3.37723 7.2505 3.33333 7.361 3.33333C7.47151 3.33333 7.57749 3.37723 7.65563 3.45537C7.73377 3.53351 7.77767 3.63949 7.77767 3.75Z" fill="black"/>
</g>
<defs>
<clipPath id="clip0_482_18059">
<rect width="16" height="16" fill="white" transform="translate(0.444336)"/>
</clipPath>
</defs>
</svg>
