<svg width="17" height="16" viewBox="0 0 17 16" fill="none" xmlns="http://www.w3.org/2000/svg">
<g clip-path="url(#clip0_483_13733)">
<path d="M5.66634 2.66626H2.99967C2.29243 2.66626 1.61415 2.94721 1.11406 3.44731C0.613959 3.94741 0.333008 4.62568 0.333008 5.33293L0.333008 7.99959C0.333008 8.35322 0.473484 8.69235 0.723532 8.9424C0.973581 9.19245 1.31272 9.33293 1.66634 9.33293H5.60634C5.44816 10.264 4.96599 11.1091 4.24503 11.7191C3.52406 12.329 2.61071 12.6645 1.66634 12.6663C1.48953 12.6663 1.31996 12.7365 1.19494 12.8615C1.06991 12.9865 0.999674 13.1561 0.999674 13.3329C0.999674 13.5097 1.06991 13.6793 1.19494 13.8043C1.31996 13.9294 1.48953 13.9996 1.66634 13.9996C3.08034 13.998 4.43597 13.4356 5.43582 12.4357C6.43567 11.4359 6.99809 10.0803 6.99967 8.66626V3.99959C6.99967 3.64597 6.8592 3.30683 6.60915 3.05678C6.3591 2.80674 6.01996 2.66626 5.66634 2.66626Z" fill="black"/>
<path d="M14.9993 2.66626H12.3327C11.6254 2.66626 10.9472 2.94721 10.4471 3.44731C9.94697 3.94741 9.66602 4.62568 9.66602 5.33293V7.99959C9.66602 8.35322 9.80649 8.69235 10.0565 8.9424C10.3066 9.19245 10.6457 9.33293 10.9993 9.33293H14.9393C14.7812 10.264 14.299 11.1091 13.578 11.7191C12.8571 12.329 11.9437 12.6645 10.9993 12.6663C10.8225 12.6663 10.653 12.7365 10.5279 12.8615C10.4029 12.9865 10.3327 13.1561 10.3327 13.3329C10.3327 13.5097 10.4029 13.6793 10.5279 13.8043C10.653 13.9294 10.8225 13.9996 10.9993 13.9996C12.4133 13.998 13.769 13.4356 14.7688 12.4357C15.7687 11.4359 16.3311 10.0803 16.3327 8.66626V3.99959C16.3327 3.64597 16.1922 3.30683 15.9422 3.05678C15.6921 2.80674 15.353 2.66626 14.9993 2.66626Z" fill="black"/>
</g>
<defs>
<clipPath id="clip0_483_13733">
<rect width="16" height="16" fill="white" transform="translate(0.333008)"/>
</clipPath>
</defs>
</svg>
