<svg width="17" height="16" viewBox="0 0 17 16" fill="none" xmlns="http://www.w3.org/2000/svg">
<g clip-path="url(#clip0_483_13839)">
<path d="M0.999674 4.0002H15.6663C15.8432 4.0002 16.0127 3.92996 16.1377 3.80494C16.2628 3.67991 16.333 3.51035 16.333 3.33354C16.333 3.15672 16.2628 2.98716 16.1377 2.86213C16.0127 2.73711 15.8432 2.66687 15.6663 2.66687H0.999674C0.822863 2.66687 0.653294 2.73711 0.52827 2.86213C0.403246 2.98716 0.333008 3.15672 0.333008 3.33354C0.333008 3.51035 0.403246 3.67991 0.52827 3.80494C0.653294 3.92996 0.822863 4.0002 0.999674 4.0002Z" fill="black"/>
<path d="M15.666 6H6.33268C6.15587 6 5.9863 6.07024 5.86128 6.19526C5.73625 6.32029 5.66602 6.48985 5.66602 6.66667C5.66602 6.84348 5.73625 7.01304 5.86128 7.13807C5.9863 7.26309 6.15587 7.33333 6.33268 7.33333H15.666C15.8428 7.33333 16.0124 7.26309 16.1374 7.13807C16.2624 7.01304 16.3327 6.84348 16.3327 6.66667C16.3327 6.48985 16.2624 6.32029 16.1374 6.19526C16.0124 6.07024 15.8428 6 15.666 6Z" fill="black"/>
<path d="M15.6663 12.6669H0.999674C0.822863 12.6669 0.653294 12.7371 0.52827 12.8621C0.403246 12.9872 0.333008 13.1567 0.333008 13.3336C0.333008 13.5104 0.403246 13.6799 0.52827 13.805C0.653294 13.93 0.822863 14.0002 0.999674 14.0002H15.6663C15.8432 14.0002 16.0127 13.93 16.1377 13.805C16.2628 13.6799 16.333 13.5104 16.333 13.3336C16.333 13.1567 16.2628 12.9872 16.1377 12.8621C16.0127 12.7371 15.8432 12.6669 15.6663 12.6669Z" fill="black"/>
<path d="M15.666 9.33313H6.33268C6.15587 9.33313 5.9863 9.40337 5.86128 9.52839C5.73625 9.65342 5.66602 9.82299 5.66602 9.9998C5.66602 10.1766 5.73625 10.3462 5.86128 10.4712C5.9863 10.5962 6.15587 10.6665 6.33268 10.6665H15.666C15.8428 10.6665 16.0124 10.5962 16.1374 10.4712C16.2624 10.3462 16.3327 10.1766 16.3327 9.9998C16.3327 9.82299 16.2624 9.65342 16.1374 9.52839C16.0124 9.40337 15.8428 9.33313 15.666 9.33313Z" fill="black"/>
<path d="M1.47101 10.8299L3.45368 8.84726C3.58973 8.71079 3.66613 8.52595 3.66613 8.33326C3.66613 8.14056 3.58973 7.95572 3.45368 7.81926L1.47101 5.83659C1.37773 5.74334 1.2589 5.67986 1.12953 5.65417C1.00017 5.62848 0.866091 5.64174 0.744264 5.69226C0.622436 5.74279 0.518335 5.82832 0.445129 5.93803C0.371924 6.04774 0.332904 6.1767 0.333008 6.30859V10.3579C0.332904 10.4898 0.371924 10.6188 0.445129 10.7285C0.518335 10.8382 0.622436 10.9237 0.744264 10.9742C0.866091 11.0248 1.00017 11.038 1.12953 11.0123C1.2589 10.9867 1.37773 10.9232 1.47101 10.8299Z" fill="black"/>
</g>
<defs>
<clipPath id="clip0_483_13839">
<rect width="16" height="16" fill="white" transform="translate(0.333008)"/>
</clipPath>
</defs>
</svg>
