<svg width="17" height="16" viewBox="0 0 17 16" fill="none" xmlns="http://www.w3.org/2000/svg">
<g clip-path="url(#clip0_482_18044)">
<path d="M13.5553 0H9.55534C8.67161 0.00105857 7.82438 0.352588 7.19949 0.97748C6.57459 1.60237 6.22306 2.4496 6.22201 3.33333V3.4C5.46961 3.55473 4.79357 3.96412 4.30782 4.55917C3.82207 5.15421 3.55631 5.89853 3.55534 6.66667V6.73333C2.80295 6.88806 2.1269 7.29745 1.64115 7.8925C1.1554 8.48755 0.889642 9.23186 0.888672 10L0.888672 12.6667C0.88973 13.5504 1.24126 14.3976 1.86615 15.0225C2.49104 15.6474 3.33828 15.9989 4.22201 16H8.22201C9.10574 15.9989 9.95297 15.6474 10.5779 15.0225C11.2028 14.3976 11.5543 13.5504 11.5553 12.6667V12.6C12.3077 12.4453 12.9838 12.0359 13.4695 11.4408C13.9553 10.8458 14.221 10.1015 14.222 9.33333V9.26667C14.9744 9.11194 15.6504 8.70255 16.1362 8.1075C16.6219 7.51245 16.8877 6.76814 16.8887 6V3.33333C16.8876 2.4496 16.5361 1.60237 15.9112 0.97748C15.2863 0.352588 14.4391 0.00105857 13.5553 0V0ZM2.22201 10C2.22201 9.46957 2.43272 8.96086 2.80779 8.58579C3.18286 8.21071 3.69157 8 4.22201 8H8.22201C8.58445 8.00098 8.93976 8.10083 9.24966 8.28879C9.55956 8.47675 9.81231 8.7457 9.98067 9.06667L7.67734 11.3753L7.36067 11.056C7.1246 10.8182 6.80735 10.6784 6.47253 10.6646C6.13771 10.6509 5.81008 10.7643 5.55534 10.982L2.47467 13.622C2.31079 13.3301 2.22384 13.0014 2.22201 12.6667V10ZM10.222 12.6667C10.222 13.1971 10.0113 13.7058 9.63622 14.0809C9.26115 14.456 8.75244 14.6667 8.22201 14.6667H4.22201C3.96638 14.6661 3.71328 14.6161 3.47667 14.5193L6.41401 12L6.73134 12.3207C6.98138 12.5706 7.32045 12.711 7.67401 12.711C8.02756 12.711 8.36664 12.5706 8.61667 12.3207L10.222 10.712V12.6667ZM12.8887 9.33333C12.887 9.74551 12.7579 10.1471 12.5193 10.4831C12.2806 10.8192 11.9439 11.0733 11.5553 11.2107V10C11.5543 9.11627 11.2028 8.26904 10.5779 7.64415C9.95297 7.01925 9.10574 6.66773 8.22201 6.66667H4.88867C4.88867 6.13623 5.09939 5.62753 5.47446 5.25245C5.84953 4.87738 6.35824 4.66667 6.88867 4.66667H10.8887C11.4191 4.66667 11.9278 4.87738 12.3029 5.25245C12.678 5.62753 12.8887 6.13623 12.8887 6.66667V9.33333ZM15.5553 6C15.5536 6.41217 15.4246 6.81375 15.1859 7.1498C14.9473 7.48585 14.6106 7.73994 14.222 7.87733V6.66667C14.2209 5.78294 13.8694 4.93571 13.2445 4.31081C12.6196 3.68592 11.7724 3.33439 10.8887 3.33333H7.55534C7.55534 2.8029 7.76605 2.29419 8.14112 1.91912C8.5162 1.54405 9.02491 1.33333 9.55534 1.33333H13.5553C14.0858 1.33333 14.5945 1.54405 14.9696 1.91912C15.3446 2.29419 15.5553 2.8029 15.5553 3.33333V6ZM3.55534 10C3.55534 9.86815 3.59444 9.73925 3.66769 9.62962C3.74095 9.51999 3.84507 9.43454 3.96688 9.38408C4.0887 9.33362 4.22274 9.32042 4.35207 9.34614C4.48139 9.37187 4.60017 9.43536 4.69341 9.5286C4.78664 9.62183 4.85014 9.74062 4.87586 9.86994C4.90159 9.99926 4.88838 10.1333 4.83792 10.2551C4.78747 10.3769 4.70202 10.4811 4.59239 10.5543C4.48275 10.6276 4.35386 10.6667 4.22201 10.6667C4.04519 10.6667 3.87563 10.5964 3.7506 10.4714C3.62558 10.3464 3.55534 10.1768 3.55534 10Z" fill="black"/>
</g>
<defs>
<clipPath id="clip0_482_18044">
<rect width="16" height="16" fill="white" transform="translate(0.888672)"/>
</clipPath>
</defs>
</svg>
