<svg width="17" height="16" viewBox="0 0 17 16" fill="none" xmlns="http://www.w3.org/2000/svg">
<g clip-path="url(#clip0_482_18026)">
<path d="M8.88936 1.36733V0.666667C8.88936 0.489856 8.81912 0.320286 8.6941 0.195262C8.56907 0.0702379 8.3995 0 8.22269 0C8.04588 0 7.87631 0.0702379 7.75129 0.195262C7.62626 0.320286 7.55603 0.489856 7.55603 0.666667V1.36733C6.21387 1.48766 4.93098 1.97614 3.84868 2.77895C2.76639 3.58176 1.92671 4.66774 1.42215 5.91725C0.917587 7.16676 0.76773 8.53131 0.989088 9.86054C1.21045 11.1898 1.79443 12.4321 2.67669 13.4507C2.32827 13.623 2.03711 13.8925 1.83828 14.2265C1.63945 14.5605 1.54143 14.9449 1.55603 15.3333C1.55603 15.5101 1.62626 15.6797 1.75129 15.8047C1.87631 15.9298 2.04588 16 2.22269 16C2.3995 16 2.56907 15.9298 2.6941 15.8047C2.81912 15.6797 2.88936 15.5101 2.88936 15.3333C2.88382 15.1278 2.95759 14.9281 3.09537 14.7756C3.23315 14.623 3.42437 14.5293 3.62936 14.514C3.67522 14.5053 3.71994 14.4914 3.76269 14.4727C5.03971 15.4631 6.60992 16.0007 8.22603 16.0007C9.84214 16.0007 11.4123 15.4631 12.6894 14.4727C12.7284 14.4906 12.769 14.5049 12.8107 14.5153C13.0164 14.5294 13.2087 14.6223 13.3476 14.7747C13.4865 14.9271 13.5611 15.1272 13.556 15.3333C13.556 15.5101 13.6263 15.6797 13.7513 15.8047C13.8763 15.9298 14.0459 16 14.2227 16C14.3995 16 14.5691 15.9298 14.6941 15.8047C14.8191 15.6797 14.8894 15.5101 14.8894 15.3333C14.904 14.9449 14.8059 14.5605 14.6071 14.2265C14.4083 13.8925 14.1171 13.623 13.7687 13.4507C14.651 12.4321 15.2349 11.1898 15.4563 9.86054C15.6777 8.53131 15.5278 7.16676 15.0232 5.91725C14.5187 4.66774 13.679 3.58176 12.5967 2.77895C11.5144 1.97614 10.2315 1.48766 8.88936 1.36733ZM2.22269 8.66667C2.22269 7.47998 2.57459 6.31994 3.23387 5.33325C3.89316 4.34655 4.83024 3.57752 5.92659 3.12339C7.02295 2.66926 8.22935 2.55044 9.39323 2.78196C10.5571 3.01347 11.6262 3.58491 12.4653 4.42403C13.3044 5.26314 13.8759 6.33224 14.1074 7.49613C14.3389 8.66001 14.2201 9.86641 13.766 10.9628C13.3118 12.0591 12.5428 12.9962 11.5561 13.6555C10.5694 14.3148 9.40938 14.6667 8.22269 14.6667C6.63199 14.6647 5.10699 14.032 3.98219 12.9072C2.8574 11.7824 2.22463 10.2574 2.22269 8.66667Z" fill="black"/>
<path d="M13.0329 -5.51853e-05C12.8561 -5.51853e-05 12.6865 0.0701827 12.5615 0.195207C12.4364 0.320231 12.3662 0.489801 12.3662 0.666612C12.3662 0.843423 12.4364 1.01299 12.5615 1.13802C12.6865 1.26304 12.8561 1.33328 13.0329 1.33328C13.2653 1.31561 13.499 1.3452 13.7197 1.42027C13.9404 1.49533 14.1437 1.61433 14.3172 1.77007C14.4907 1.92581 14.6308 2.11507 14.7292 2.32644C14.8276 2.53782 14.8821 2.76692 14.8895 2.99994C14.8895 3.17676 14.9598 3.34632 15.0848 3.47135C15.2098 3.59637 15.3794 3.66661 15.5562 3.66661C15.733 3.66661 15.9026 3.59637 16.0276 3.47135C16.1526 3.34632 16.2229 3.17676 16.2229 2.99994C16.2143 2.59227 16.1246 2.1904 15.9589 1.81783C15.7932 1.44526 15.5548 1.10948 15.2578 0.830135C14.9608 0.550787 14.611 0.333482 14.229 0.190934C13.8469 0.0483859 13.4403 -0.0165434 13.0329 -5.51853e-05Z" fill="black"/>
<path d="M1.55599 3.00001C1.56342 2.76698 1.61797 2.53788 1.71634 2.3265C1.81471 2.11513 1.95486 1.92587 2.12836 1.77013C2.30185 1.61439 2.50509 1.4954 2.72582 1.42033C2.94654 1.34526 3.18018 1.31567 3.41266 1.33334C3.58947 1.33334 3.75904 1.2631 3.88406 1.13808C4.00909 1.01305 4.07932 0.843484 4.07932 0.666673C4.07932 0.489862 4.00909 0.320292 3.88406 0.195268C3.75904 0.0702437 3.58947 5.84987e-06 3.41266 5.84987e-06C3.00523 -0.0164824 2.59861 0.0484469 2.21658 0.190995C1.83455 0.333544 1.48478 0.550848 1.18774 0.830196C0.890701 1.10954 0.652354 1.44532 0.486643 1.81789C0.320933 2.19046 0.231187 2.59234 0.222656 3.00001C0.222656 3.17682 0.292894 3.34639 0.417918 3.47141C0.542943 3.59643 0.712512 3.66667 0.889323 3.66667C1.06613 3.66667 1.2357 3.59643 1.36073 3.47141C1.48575 3.34639 1.55599 3.17682 1.55599 3.00001Z" fill="black"/>
<path d="M8.889 7.724V4.66667C8.889 4.48986 8.81876 4.32029 8.69374 4.19526C8.56871 4.07024 8.39914 4 8.22233 4C8.04552 4 7.87595 4.07024 7.75093 4.19526C7.6259 4.32029 7.55566 4.48986 7.55566 4.66667V8C7.5557 8.1768 7.62596 8.34634 7.751 8.47133L9.751 10.4713C9.87673 10.5928 10.0451 10.66 10.2199 10.6584C10.3947 10.6569 10.5619 10.5868 10.6855 10.4632C10.8091 10.3396 10.8793 10.1724 10.8808 9.9976C10.8823 9.8228 10.8151 9.6544 10.6937 9.52867L8.889 7.724Z" fill="black"/>
</g>
<defs>
<clipPath id="clip0_482_18026">
<rect width="16" height="16" fill="white" transform="translate(0.222656)"/>
</clipPath>
</defs>
</svg>
