<svg width="17" height="16" viewBox="0 0 17 16" fill="none" xmlns="http://www.w3.org/2000/svg">
<g clip-path="url(#clip0_483_13767)">
<path d="M16.044 5.97041C15.5937 5.74222 15.0529 5.78978 14.6493 6.09306L13.4273 7.00041C13.2541 5.29816 11.8217 4.00256 10.1107 4.00041H10.054L7.30603 1.25306C6.93206 0.876469 6.42278 0.665407 5.89203 0.667063H1.444C1.07581 0.667063 0.777344 0.965563 0.777344 1.33375C0.777344 1.70194 1.07581 2.00041 1.444 2.00041H5.892C6.06872 2.00088 6.23809 2.07106 6.36334 2.19575L8.168 4.00041H4.11069C2.27066 4.00263 0.779563 5.49372 0.777344 7.33375V12.6671C0.779563 14.5071 2.27066 15.9982 4.11069 16.0004H10.1107C11.8217 15.9983 13.2541 14.7027 13.4273 13.0004L14.6473 13.9098C15.2364 14.3516 16.0722 14.2322 16.514 13.6431C16.6871 13.4123 16.7807 13.1316 16.7807 12.8431V7.16241C16.7824 6.65713 16.4967 6.19484 16.044 5.97041ZM12.1107 12.6671C12.1107 13.7716 11.2153 14.6671 10.1107 14.6671H4.11069C3.00612 14.6671 2.11069 13.7716 2.11069 12.6671V7.33375C2.11069 6.22919 3.00612 5.33375 4.11069 5.33375H10.1107C11.2153 5.33375 12.1107 6.22919 12.1107 7.33375V12.6671ZM15.444 12.8384L13.444 11.3478V8.65309L15.444 7.16244V12.8384Z" fill="black"/>
</g>
<defs>
<clipPath id="clip0_483_13767">
<rect width="16" height="16" fill="white" transform="translate(0.777344)"/>
</clipPath>
</defs>
</svg>
