<svg width="17" height="16" viewBox="0 0 17 16" fill="none" xmlns="http://www.w3.org/2000/svg">
<g clip-path="url(#clip0_482_18065)">
<path d="M16.8887 7.33333C16.8867 6.82261 16.6893 6.332 16.3372 5.96211C15.985 5.59222 15.5047 5.37106 14.9947 5.344C14.3265 3.79624 13.0924 2.56214 11.5447 1.894C11.5176 1.38399 11.2964 0.903657 10.9266 0.551489C10.5567 0.199322 10.0661 0.00200627 9.55533 0H8.22199C7.71127 0.00200627 7.22066 0.199322 6.85077 0.551489C6.48088 0.903657 6.25973 1.38399 6.23266 1.894C4.68502 2.56231 3.45097 3.79636 2.78266 5.344C2.31068 5.36703 1.86229 5.55727 1.51775 5.88067C1.1732 6.20406 0.954978 6.63952 0.902135 7.1091C0.849291 7.57868 0.965273 8.05174 1.22933 8.44362C1.49338 8.83551 1.88827 9.12064 2.34333 9.248C2.53251 10.2544 2.95179 11.2034 3.56842 12.0209C4.18505 12.8384 4.98234 13.5023 5.89799 13.9607L5.57799 15.1607C5.5324 15.3315 5.55651 15.5134 5.64503 15.6664C5.73354 15.8194 5.87921 15.931 6.04999 15.9767C6.10608 15.9918 6.16389 15.9997 6.22199 16C6.36883 16 6.51155 15.9515 6.628 15.862C6.74445 15.7726 6.82811 15.6472 6.86599 15.5053L7.15533 14.4347C8.29267 14.744 9.49198 14.744 10.6293 14.4347L10.9147 15.5053C10.9626 15.6735 11.0747 15.8161 11.2268 15.9024C11.3789 15.9887 11.5588 16.0118 11.7278 15.9666C11.8968 15.9215 12.0412 15.8118 12.13 15.6612C12.2189 15.5105 12.245 15.331 12.2027 15.1613L11.8827 13.9613C12.7982 13.5025 13.5954 12.8385 14.2121 12.0209C14.8288 11.2033 15.2484 10.2544 15.438 9.248C15.8549 9.1296 16.2219 8.87874 16.4836 8.53332C16.7453 8.18791 16.8875 7.7667 16.8887 7.33333ZM8.22199 1.33333H9.55533C9.73214 1.33333 9.90171 1.40357 10.0267 1.5286C10.1518 1.65362 10.222 1.82319 10.222 2C10.222 2.17681 10.1518 2.34638 10.0267 2.4714C9.90171 2.59643 9.73214 2.66667 9.55533 2.66667H8.22199C8.04518 2.66667 7.87561 2.59643 7.75059 2.4714C7.62557 2.34638 7.55533 2.17681 7.55533 2C7.55533 1.82319 7.62557 1.65362 7.75059 1.5286C7.87561 1.40357 8.04518 1.33333 8.22199 1.33333ZM2.88866 6.66667H4.22199C4.3988 6.66667 4.56837 6.73691 4.6934 6.86193C4.81842 6.98695 4.88866 7.15652 4.88866 7.33333C4.88866 7.51014 4.81842 7.67971 4.6934 7.80474C4.56837 7.92976 4.3988 8 4.22199 8H2.88866C2.71185 8 2.54228 7.92976 2.41726 7.80474C2.29223 7.67971 2.22199 7.51014 2.22199 7.33333C2.22199 7.15652 2.29223 6.98695 2.41726 6.86193C2.54228 6.73691 2.71185 6.66667 2.88866 6.66667ZM8.88866 13.3333C8.41803 13.3327 7.94953 13.2699 7.49533 13.1467L8.62866 8.904C8.64396 8.84609 8.67799 8.79488 8.72544 8.75833C8.77289 8.72179 8.8311 8.70197 8.89099 8.70197C8.95089 8.70197 9.0091 8.72179 9.05655 8.75833C9.104 8.79488 9.13803 8.84609 9.15333 8.904L10.2867 13.1467C9.83093 13.2702 9.36085 13.333 8.88866 13.3333ZM11.5253 12.634L10.4387 8.56067C10.3504 8.21755 10.1498 7.91384 9.86893 7.69793C9.58802 7.48203 9.24294 7.36635 8.88866 7.36933C8.53427 7.3662 8.18903 7.48181 7.90799 7.69773C7.62695 7.91364 7.42628 8.21743 7.33799 8.56067L6.25199 12.634C5.63105 12.2818 5.08754 11.8079 4.65397 11.2408C4.2204 10.6737 3.90569 10.0249 3.72866 9.33333H4.22199C4.73484 9.31469 5.22089 9.09963 5.5796 8.73265C5.93831 8.36566 6.14223 7.87482 6.14917 7.36169C6.1561 6.84855 5.96553 6.35239 5.61687 5.97583C5.26821 5.59928 4.78815 5.37116 4.27599 5.33867C4.8205 4.39987 5.63524 3.64692 6.61399 3.178C6.79836 3.43196 7.0401 3.63878 7.31953 3.78162C7.59896 3.92446 7.90817 3.99929 8.22199 4H9.55533C9.86916 3.99934 10.1784 3.92454 10.4578 3.78169C10.7373 3.63884 10.979 3.432 11.1633 3.178C12.142 3.64682 12.9565 4.39981 13.5007 5.33867C12.9885 5.37123 12.5084 5.59942 12.1598 5.97603C11.8112 6.35264 11.6207 6.84886 11.6277 7.362C11.6348 7.87515 11.8388 8.36597 12.1976 8.7329C12.5564 9.09983 13.0425 9.3148 13.5553 9.33333H14.0487C13.8714 10.0248 13.5566 10.6735 13.1231 11.2406C12.6895 11.8077 12.1461 12.2816 11.5253 12.634ZM14.8887 8H13.5553C13.3785 8 13.2089 7.92976 13.0839 7.80474C12.9589 7.67971 12.8887 7.51014 12.8887 7.33333C12.8887 7.15652 12.9589 6.98695 13.0839 6.86193C13.2089 6.73691 13.3785 6.66667 13.5553 6.66667H14.8887C15.0655 6.66667 15.235 6.73691 15.3601 6.86193C15.4851 6.98695 15.5553 7.15652 15.5553 7.33333C15.5553 7.51014 15.4851 7.67971 15.3601 7.80474C15.235 7.92976 15.0655 8 14.8887 8Z" fill="black"/>
</g>
<defs>
<clipPath id="clip0_482_18065">
<rect width="16" height="16" fill="white" transform="translate(0.888672)"/>
</clipPath>
</defs>
</svg>
