<svg width="17" height="16" viewBox="0 0 17 16" fill="none" xmlns="http://www.w3.org/2000/svg">
<g clip-path="url(#clip0_483_13901)">
<path d="M11.3337 4.66649L11.3183 3.88183C11.7657 3.72883 12.1442 3.42189 12.3862 3.01576C12.6283 2.60963 12.7183 2.13071 12.64 1.66443C12.5618 1.19814 12.3205 0.774804 11.9591 0.469922C11.5977 0.16504 11.1398 -0.00156357 10.667 -0.000174489H6.66699C6.19577 -0.00106737 5.73945 0.164838 5.37883 0.468158C5.01821 0.771478 4.77658 1.19264 4.69673 1.65704C4.61688 2.12144 4.70397 2.59912 4.94257 3.00547C5.18116 3.41182 5.55587 3.72061 6.00033 3.87716V4.66649C5.1166 4.66755 4.26936 5.01908 3.64447 5.64397C3.01958 6.26887 2.66805 7.1161 2.66699 7.99983V12.6665C2.66805 13.5502 3.01958 14.3975 3.64447 15.0223C4.26936 15.6472 5.1166 15.9988 6.00033 15.9998H11.3337C12.2174 15.9988 13.0646 15.6472 13.6895 15.0223C14.3144 14.3975 14.6659 13.5502 14.667 12.6665V7.99983C14.6659 7.1161 14.3144 6.26887 13.6895 5.64397C13.0646 5.01908 12.2174 4.66755 11.3337 4.66649ZM6.66699 1.33316H10.667C10.8438 1.33316 11.0134 1.4034 11.1384 1.52842C11.2634 1.65345 11.3337 1.82301 11.3337 1.99983C11.3337 2.17664 11.2634 2.34621 11.1384 2.47123C11.0134 2.59625 10.8438 2.66649 10.667 2.66649H6.66699C6.49018 2.66649 6.32061 2.59625 6.19559 2.47123C6.07056 2.34621 6.00033 2.17664 6.00033 1.99983C6.00033 1.82301 6.07056 1.65345 6.19559 1.52842C6.32061 1.4034 6.49018 1.33316 6.66699 1.33316ZM13.3337 12.6665C13.3337 13.1969 13.1229 13.7056 12.7479 14.0807C12.3728 14.4558 11.8641 14.6665 11.3337 14.6665H6.00033C5.46989 14.6665 4.96118 14.4558 4.58611 14.0807C4.21104 13.7056 4.00033 13.1969 4.00033 12.6665V7.99983C4.00033 7.46939 4.21104 6.96069 4.58611 6.58561C4.96118 6.21054 5.46989 5.99983 6.00033 5.99983H6.66699C6.8438 5.99983 7.01337 5.92959 7.1384 5.80456C7.26342 5.67954 7.33366 5.50997 7.33366 5.33316V3.99983H9.98233L10.0003 5.34249C10.0028 5.51768 10.0741 5.68486 10.1989 5.80788C10.3236 5.93089 10.4918 5.99984 10.667 5.99983H11.3337C11.8641 5.99983 12.3728 6.21054 12.7479 6.58561C13.1229 6.96069 13.3337 7.46939 13.3337 7.99983V12.6665ZM11.3337 9.99983C11.3337 10.1766 11.2634 10.3462 11.1384 10.4712C11.0134 10.5963 10.8438 10.6665 10.667 10.6665H9.33366V11.9998C9.33366 12.1766 9.26342 12.3462 9.1384 12.4712C9.01337 12.5963 8.8438 12.6665 8.66699 12.6665C8.49018 12.6665 8.32061 12.5963 8.19559 12.4712C8.07056 12.3462 8.00033 12.1766 8.00033 11.9998V10.6665H6.66699C6.49018 10.6665 6.32061 10.5963 6.19559 10.4712C6.07056 10.3462 6.00033 10.1766 6.00033 9.99983C6.00033 9.82302 6.07056 9.65345 6.19559 9.52842C6.32061 9.4034 6.49018 9.33316 6.66699 9.33316H8.00033V7.99983C8.00033 7.82302 8.07056 7.65345 8.19559 7.52842C8.32061 7.4034 8.49018 7.33316 8.66699 7.33316C8.8438 7.33316 9.01337 7.4034 9.1384 7.52842C9.26342 7.65345 9.33366 7.82302 9.33366 7.99983V9.33316H10.667C10.8438 9.33316 11.0134 9.4034 11.1384 9.52842C11.2634 9.65345 11.3337 9.82302 11.3337 9.99983Z" fill="black"/>
</g>
<defs>
<clipPath id="clip0_483_13901">
<rect width="16" height="16" fill="white" transform="translate(0.666992)"/>
</clipPath>
</defs>
</svg>
