<svg width="17" height="16" viewBox="0 0 17 16" fill="none" xmlns="http://www.w3.org/2000/svg">
<g clip-path="url(#clip0_483_13870)">
<path d="M15.5427 6.314L15.0181 5.6C14.6545 5.10529 14.1799 4.7028 13.6325 4.42491C13.085 4.14701 12.48 4.00148 11.8661 4H4.36674C3.76542 4.00157 3.17249 4.14118 2.63364 4.40806C2.09479 4.67494 1.62441 5.06197 1.25874 5.53933L0.711407 6.25533C0.267062 6.84154 0.0581464 7.57279 0.125755 8.30525C0.193363 9.03772 0.532601 9.71837 1.07674 10.2133L6.40341 15.3513C6.87126 15.7686 7.47655 15.9986 8.10341 15.9973C8.74356 15.9961 9.36074 15.7587 9.83674 15.3307L15.1274 10.242C15.6747 9.7574 16.0208 9.08556 16.0976 8.35863C16.1745 7.63171 15.9766 6.90233 15.5427 6.314ZM13.9427 6.38533L14.4674 7.10133C14.5201 7.1746 14.5665 7.25221 14.6061 7.33333H11.4121C11.3638 7.01408 11.2807 6.7011 11.1641 6.4L10.7374 5.33333H11.8661C12.2704 5.3341 12.6689 5.42967 13.0295 5.61237C13.3902 5.79508 13.703 6.05982 13.9427 6.38533ZM8.10474 13.392L6.25874 9.212C6.19197 9.0352 6.14154 8.85266 6.10807 8.66667H10.0761C10.0481 8.81325 10.0089 8.95745 9.95874 9.098L8.10474 13.392ZM6.17808 7.33333C6.20596 7.21381 6.24091 7.09605 6.28274 6.98067L6.93874 5.33333H9.30141L9.92608 6.89533C9.98092 7.03796 10.0255 7.18434 10.0594 7.33333H6.17808ZM2.31874 6.34733C2.55978 6.0329 2.86976 5.77797 3.22482 5.60217C3.57988 5.42638 3.97055 5.3344 4.36674 5.33333H5.50007L5.04474 6.486C4.93488 6.75949 4.85291 7.04338 4.80007 7.33333H1.60807C1.6538 7.2391 1.70897 7.14976 1.77274 7.06667L2.31874 6.34733ZM1.98541 9.236C1.81149 9.07824 1.67486 8.88377 1.58541 8.66667H4.76674C4.81095 9.02585 4.89756 9.37853 5.02474 9.71733L6.90941 13.984L1.98541 9.236ZM9.29208 14.0093L11.1947 9.6C11.3052 9.29824 11.3821 8.98525 11.4241 8.66667H14.6447C14.5504 8.89552 14.4062 9.10049 14.2227 9.26667L9.29208 14.0093Z" fill="black"/>
<path d="M8.11101 2.66667C8.28782 2.66667 8.45739 2.59643 8.58241 2.4714C8.70744 2.34638 8.77768 2.17681 8.77768 2V0.666667C8.77768 0.489856 8.70744 0.320286 8.58241 0.195262C8.45739 0.0702379 8.28782 0 8.11101 0C7.93419 0 7.76462 0.0702379 7.6396 0.195262C7.51457 0.320286 7.44434 0.489856 7.44434 0.666667V2C7.44434 2.17681 7.51457 2.34638 7.6396 2.4714C7.76462 2.59643 7.93419 2.66667 8.11101 2.66667Z" fill="black"/>
<path d="M11.147 2.59991C11.2257 2.63949 11.3115 2.66307 11.3994 2.6693C11.4873 2.67552 11.5755 2.66427 11.659 2.63619C11.7425 2.6081 11.8196 2.56375 11.8859 2.50569C11.9521 2.44762 12.0062 2.37701 12.045 2.29791L12.7117 0.964579C12.7907 0.806333 12.8037 0.623172 12.7477 0.45539C12.6916 0.287607 12.5713 0.148947 12.413 0.0699123C12.2548 -0.0091222 12.0716 -0.0220568 11.9038 0.0339541C11.736 0.089965 11.5974 0.210333 11.5184 0.368579L10.8517 1.70191C10.8119 1.78022 10.7879 1.86563 10.7812 1.95322C10.7745 2.04081 10.7852 2.12886 10.8127 2.21231C10.8401 2.29576 10.8838 2.37296 10.9412 2.43948C10.9985 2.506 11.0685 2.56052 11.147 2.59991Z" fill="black"/>
<path d="M4.18088 2.29791C4.25991 2.4566 4.39875 2.57739 4.56684 2.63372C4.73494 2.69004 4.91852 2.67728 5.07721 2.59825C5.2359 2.51921 5.35669 2.38038 5.41301 2.21228C5.46934 2.04418 5.45658 1.8606 5.37754 1.70191L4.71088 0.368579C4.67174 0.290224 4.61756 0.220343 4.55142 0.162928C4.48528 0.105513 4.40848 0.0616879 4.3254 0.0339541C4.15762 -0.0220568 3.97446 -0.0091222 3.81621 0.0699123C3.65797 0.148947 3.5376 0.287607 3.48159 0.45539C3.42558 0.623172 3.43851 0.806333 3.51754 0.964579L4.18088 2.29791Z" fill="black"/>
</g>
<defs>
<clipPath id="clip0_483_13870">
<rect width="16" height="16" fill="white" transform="translate(0.111328)"/>
</clipPath>
</defs>
</svg>
