<svg width="17" height="16" viewBox="0 0 17 16" fill="none" xmlns="http://www.w3.org/2000/svg">
<path d="M6.22267 11.92V4.47334C6.2219 4.34092 6.26058 4.21128 6.33378 4.10093C6.40698 3.99058 6.51138 3.90454 6.63368 3.85376C6.75598 3.80298 6.89062 3.78977 7.02046 3.81582C7.15029 3.84187 7.26942 3.90599 7.36267 4.00001L11.0827 7.72667C11.2068 7.85158 11.2765 8.02055 11.2765 8.19667C11.2765 8.3728 11.2068 8.54176 11.0827 8.66667L7.36267 12.3933C7.26942 12.4874 7.15029 12.5515 7.02046 12.5775C6.89062 12.6036 6.75598 12.5904 6.63368 12.5396C6.51138 12.4888 6.40698 12.4028 6.33378 12.2924C6.26058 12.1821 6.2219 12.0524 6.22267 11.92Z" fill="black"/>
</svg>
