<svg width="17" height="16" viewBox="0 0 17 16" fill="none" xmlns="http://www.w3.org/2000/svg">
<g clip-path="url(#clip0_482_18063)">
<path d="M7.35979 0.0455645H7.35512C7.20578 0.0118241 7.04937 0.0305177 6.91218 0.098504C6.775 0.16649 6.66539 0.279625 6.60179 0.418898L0.80512 13.1729C0.666706 13.4775 0.606934 13.812 0.631277 14.1457C0.65562 14.4795 0.763301 14.8017 0.944458 15.083C1.12561 15.3644 1.37446 15.5957 1.6682 15.756C1.96194 15.9162 2.29118 16.0002 2.62579 16.0002H7.22179C7.3986 16.0002 7.56817 15.93 7.69319 15.805C7.81822 15.6799 7.88845 15.5104 7.88845 15.3336V0.697565C7.88718 0.545082 7.83419 0.397547 7.73815 0.279103C7.64211 0.160659 7.50872 0.0783214 7.35979 0.0455645ZM6.55512 14.6669H2.62579C2.51419 14.667 2.40435 14.639 2.30635 14.5856C2.20835 14.5323 2.12532 14.4551 2.06488 14.3613C2.00444 14.2675 1.96851 14.16 1.9604 14.0487C1.95229 13.9374 1.97225 13.8258 2.01845 13.7242L6.55512 3.74423V14.6669Z" fill="black"/>
<path d="M16.306 13.1726L10.5093 0.418579C10.4427 0.278508 10.3303 0.165364 10.1906 0.0978452C10.051 0.030327 9.89248 0.012477 9.74132 0.0472455C9.59401 0.0807862 9.46246 0.163371 9.36822 0.281465C9.27399 0.39956 9.22266 0.546161 9.22266 0.697246V15.3332C9.22266 15.5101 9.29289 15.6796 9.41792 15.8047C9.54294 15.9297 9.71251 15.9999 9.88932 15.9999H14.4853C14.8199 15.9999 15.1492 15.9159 15.4429 15.7557C15.7366 15.5954 15.9855 15.364 16.1666 15.0827C16.3478 14.8014 16.4555 14.4791 16.4798 14.1454C16.5042 13.8117 16.4444 13.4772 16.306 13.1726Z" fill="black"/>
</g>
<defs>
<clipPath id="clip0_482_18063">
<rect width="16" height="16" fill="white" transform="translate(0.555664)"/>
</clipPath>
</defs>
</svg>
