<svg width="17" height="16" viewBox="0 0 17 16" fill="none" xmlns="http://www.w3.org/2000/svg">
<g clip-path="url(#clip0_482_17973)">
<path d="M8.44434 0C6.86209 0 5.31537 0.469192 3.99978 1.34824C2.68418 2.22729 1.6588 3.47672 1.0533 4.93853C0.447802 6.40034 0.289376 8.00887 0.598057 9.56072C0.906739 11.1126 1.66867 12.538 2.78749 13.6569C3.90631 14.7757 5.33177 15.5376 6.88362 15.8463C8.43547 16.155 10.044 15.9965 11.5058 15.391C12.9676 14.7855 14.217 13.7602 15.0961 12.4446C15.9751 11.129 16.4443 9.58225 16.4443 8C16.442 5.87897 15.5985 3.84547 14.0987 2.34568C12.5989 0.845886 10.5654 0.00229405 8.44434 0V0ZM13.697 12.0907C13.1279 11.6153 12.6645 11.0263 12.3363 10.3613L13.3583 9.95267C13.5226 9.88707 13.6541 9.75891 13.7238 9.59638C13.7936 9.43385 13.7959 9.25026 13.7303 9.086C13.6647 8.92174 13.5366 8.79027 13.3741 8.72051C13.2115 8.65074 13.0279 8.6484 12.8637 8.714L11.9003 9.09933C11.7366 8.37514 11.7366 7.62353 11.9003 6.89933L12.8637 7.28467C12.945 7.31715 13.0319 7.33329 13.1195 7.33217C13.2071 7.33106 13.2936 7.3127 13.3741 7.27816C13.4545 7.24362 13.5274 7.19356 13.5885 7.13085C13.6497 7.06814 13.6979 6.994 13.7303 6.91267C13.7628 6.83134 13.779 6.7444 13.7778 6.65683C13.7767 6.56926 13.7584 6.48277 13.7238 6.40229C13.6893 6.32181 13.6392 6.24893 13.5765 6.1878C13.5138 6.12666 13.4397 6.07848 13.3583 6.046L12.3363 5.63733C12.6645 4.97241 13.1279 4.38338 13.697 3.908C14.6131 5.07476 15.111 6.51525 15.111 7.99867C15.111 9.48209 14.6131 10.9226 13.697 12.0893V12.0907ZM3.19167 3.90933C3.76073 4.38471 4.22419 4.97374 4.55234 5.63867L3.53034 6.04733C3.36608 6.11293 3.23461 6.24109 3.16485 6.40362C3.09508 6.56616 3.09274 6.74974 3.15834 6.914C3.22394 7.07826 3.3521 7.20973 3.51463 7.27949C3.67716 7.34926 3.86075 7.3516 4.02501 7.286L4.98834 6.90067C5.06722 7.26187 5.10833 7.6303 5.11101 8C5.10833 8.36971 5.06722 8.73813 4.98834 9.09933L4.02501 8.714C3.94367 8.68152 3.85674 8.66538 3.76917 8.66649C3.6816 8.66761 3.59511 8.68596 3.51463 8.72051C3.43415 8.75505 3.36127 8.80511 3.30013 8.86782C3.239 8.93053 3.19082 9.00467 3.15834 9.086C3.12586 9.16733 3.10972 9.25427 3.11083 9.34184C3.11195 9.42941 3.1303 9.5159 3.16485 9.59638C3.19939 9.67686 3.24945 9.74974 3.31216 9.81087C3.37487 9.87201 3.44901 9.92019 3.53034 9.95267L4.55234 10.3613C4.22419 11.0263 3.76073 11.6153 3.19167 12.0907C2.27558 10.9239 1.77765 9.48342 1.77765 8C1.77765 6.51658 2.27558 5.07609 3.19167 3.90933ZM4.11567 13.06C4.82236 12.4511 5.39276 11.7001 5.78967 10.856L6.86367 11.286C6.945 11.3185 7.03194 11.3346 7.11951 11.3335C7.20708 11.3324 7.29357 11.314 7.37405 11.2795C7.45453 11.245 7.52741 11.1949 7.58855 11.1322C7.64968 11.0695 7.69786 10.9953 7.73034 10.914C7.76282 10.8327 7.77896 10.7457 7.77785 10.6582C7.77673 10.5706 7.75838 10.4841 7.72383 10.4036C7.68929 10.3231 7.63923 10.2503 7.57652 10.1891C7.51381 10.128 7.43967 10.0798 7.35834 10.0473L6.24767 9.60333C6.37777 9.0788 6.44381 8.54043 6.44434 8C6.44354 7.46069 6.37751 6.92345 6.24767 6.4L7.35834 5.956C7.5226 5.8904 7.65407 5.76224 7.72383 5.59971C7.7936 5.43718 7.79594 5.25359 7.73034 5.08933C7.66474 4.92508 7.53658 4.7936 7.37405 4.72384C7.21152 4.65408 7.02793 4.65174 6.86367 4.71733L5.78967 5.14733C5.39316 4.30199 4.82274 3.54983 4.11567 2.94C5.31967 1.90348 6.85563 1.3334 8.44434 1.3334C10.033 1.3334 11.569 1.90348 12.773 2.94C12.0663 3.54886 11.4959 4.29986 11.099 5.144L10.025 4.714C9.94368 4.68152 9.85674 4.66538 9.76917 4.66649C9.6816 4.66761 9.59511 4.68596 9.51463 4.72051C9.43415 4.75505 9.36127 4.80511 9.30013 4.86782C9.239 4.93053 9.19082 5.00467 9.15834 5.086C9.12586 5.16733 9.10972 5.25427 9.11083 5.34184C9.11195 5.42941 9.1303 5.5159 9.16485 5.59638C9.19939 5.67686 9.24945 5.74974 9.31216 5.81087C9.37487 5.87201 9.44901 5.92019 9.53034 5.95267L10.6443 6.4C10.3821 7.45281 10.3821 8.55386 10.6443 9.60667L9.53367 10.0507C9.36942 10.1163 9.23794 10.2444 9.16818 10.407C9.09842 10.5695 9.09608 10.7531 9.16167 10.9173C9.22727 11.0816 9.35543 11.2131 9.51796 11.2828C9.68049 11.3526 9.86408 11.3549 10.0283 11.2893L11.1023 10.8593C11.4993 11.7035 12.0697 12.4545 12.7763 13.0633C11.5723 14.0999 10.0364 14.6699 8.44767 14.6699C6.85897 14.6699 5.323 14.0999 4.11901 13.0633L4.11567 13.06Z" fill="black"/>
</g>
<defs>
<clipPath id="clip0_482_17973">
<rect width="16" height="16" fill="white" transform="translate(0.444336)"/>
</clipPath>
</defs>
</svg>
