<svg width="17" height="16" viewBox="0 0 17 16" fill="none" xmlns="http://www.w3.org/2000/svg">
<g clip-path="url(#clip0_482_18099)">
<path d="M15.8613 5.40009L11.2453 0.976087C10.6198 0.357085 9.77578 0.00905035 8.89572 0.00717921C8.01567 0.00530808 7.1702 0.349751 6.54201 0.966087L1.91534 5.40009C1.59175 5.71175 1.33411 6.08529 1.15774 6.4985C0.981376 6.9117 0.889872 7.35615 0.888672 7.80542L0.888672 12.6668C0.88973 13.5505 1.24126 14.3977 1.86615 15.0226C2.49104 15.6475 3.33828 15.999 4.22201 16.0001H13.5553C14.4391 15.999 15.2863 15.6475 15.9112 15.0226C16.5361 14.3977 16.8876 13.5505 16.8887 12.6668V7.80542C16.8875 7.35608 16.7959 6.91158 16.6195 6.49835C16.443 6.08512 16.1851 5.71163 15.8613 5.40009ZM7.47467 1.91875C7.8527 1.54408 8.36397 1.33476 8.89621 1.33676C9.42845 1.33876 9.93814 1.55192 10.3133 1.92942L14.8113 6.23875L10.3027 10.7481C9.92155 11.1114 9.41521 11.3141 8.88867 11.3141C8.36213 11.3141 7.8558 11.1114 7.47467 10.7481L2.96534 6.23875L7.47467 1.91875ZM15.5553 12.6668C15.5553 13.1972 15.3446 13.7059 14.9696 14.081C14.5945 14.456 14.0858 14.6668 13.5553 14.6668H4.22201C3.69157 14.6668 3.18286 14.456 2.80779 14.081C2.43272 13.7059 2.22201 13.1972 2.22201 12.6668V7.80542C2.22268 7.67601 2.23585 7.54697 2.26134 7.42009L6.53201 11.6908C7.15915 12.3118 8.00608 12.6601 8.88867 12.6601C9.77127 12.6601 10.6182 12.3118 11.2453 11.6908L15.516 7.42009C15.5415 7.54697 15.5547 7.67601 15.5553 7.80542V12.6668Z" fill="black"/>
</g>
<defs>
<clipPath id="clip0_482_18099">
<rect width="16" height="16" fill="white" transform="translate(0.888672)"/>
</clipPath>
</defs>
</svg>
