<svg width="17" height="16" viewBox="0 0 17 16" fill="none" xmlns="http://www.w3.org/2000/svg">
<g clip-path="url(#clip0_483_13638)">
<path d="M14.0006 5.33287C14.0015 4.3063 13.706 3.30132 13.1497 2.43855C12.5934 1.57579 11.7999 0.891899 10.8645 0.468984C9.9291 0.0460678 8.89152 -0.0979043 7.87631 0.0543493C6.8611 0.206603 5.9114 0.648612 5.14121 1.32732C4.37103 2.00603 3.81308 2.89259 3.53434 3.88059C3.25561 4.86859 3.26794 5.91603 3.56984 6.8972C3.87175 7.87837 4.45041 8.75155 5.23635 9.41195C6.0223 10.0723 6.98214 10.4919 8.00065 10.6202V12.6662H6.66732C6.49051 12.6662 6.32094 12.7364 6.19591 12.8615C6.07089 12.9865 6.00065 13.1561 6.00065 13.3329C6.00065 13.5097 6.07089 13.6792 6.19591 13.8043C6.32094 13.9293 6.49051 13.9995 6.66732 13.9995H8.00065V15.3329C8.00065 15.5097 8.07089 15.6792 8.19591 15.8043C8.32094 15.9293 8.49051 15.9995 8.66732 15.9995C8.84413 15.9995 9.0137 15.9293 9.13872 15.8043C9.26374 15.6792 9.33398 15.5097 9.33398 15.3329V13.9995H10.6673C10.8441 13.9995 11.0137 13.9293 11.1387 13.8043C11.2637 13.6792 11.334 13.5097 11.334 13.3329C11.334 13.1561 11.2637 12.9865 11.1387 12.8615C11.0137 12.7364 10.8441 12.6662 10.6673 12.6662H9.33398V10.6202C10.6216 10.4568 11.8057 9.82992 12.6646 8.85676C13.5235 7.8836 13.9985 6.63086 14.0006 5.33287ZM4.66732 5.33287C4.66732 4.54174 4.90191 3.76838 5.34144 3.11059C5.78096 2.45279 6.40568 1.9401 7.13658 1.63735C7.86749 1.3346 8.67175 1.25539 9.44768 1.40973C10.2236 1.56407 10.9363 1.94503 11.4957 2.50444C12.0552 3.06385 12.4361 3.77658 12.5905 4.55251C12.7448 5.32843 12.6656 6.1327 12.3628 6.8636C12.0601 7.59451 11.5474 8.21922 10.8896 8.65875C10.2318 9.09827 9.45844 9.33287 8.66732 9.33287C7.60678 9.33181 6.58997 8.91004 5.84006 8.16013C5.09014 7.41021 4.66838 6.39341 4.66732 5.33287Z" fill="black"/>
</g>
<defs>
<clipPath id="clip0_483_13638">
<rect width="16" height="16" fill="white" transform="translate(0.666992)"/>
</clipPath>
</defs>
</svg>
