<svg width="17" height="16" viewBox="0 0 17 16" fill="none" xmlns="http://www.w3.org/2000/svg">
<g clip-path="url(#clip0_483_13632)">
<path d="M8.79981 0C7.21756 0 5.67084 0.469192 4.35525 1.34824C3.03965 2.22729 2.01427 3.47672 1.40877 4.93853C0.803271 6.40034 0.644844 8.00887 0.953526 9.56072C1.26221 11.1126 2.02413 12.538 3.14295 13.6569C4.26177 14.7757 5.68724 15.5376 7.23909 15.8463C8.79093 16.155 10.3995 15.9965 11.8613 15.391C13.3231 14.7855 14.5725 13.7602 15.4516 12.4446C16.3306 11.129 16.7998 9.58225 16.7998 8C16.7975 5.87897 15.9539 3.84547 14.4541 2.34568C12.9543 0.845886 10.9208 0.00229405 8.79981 0V0ZM8.79981 1.33333C10.3375 1.33211 11.8278 1.86517 13.0158 2.84133L3.64114 12.216C2.84152 11.2399 2.33558 10.0567 2.18222 8.80429C2.02886 7.55182 2.23438 6.28156 2.77487 5.14136C3.31535 4.00116 4.16857 3.03792 5.23519 2.36376C6.30182 1.68961 7.53799 1.33227 8.79981 1.33333ZM8.79981 14.6667C7.26216 14.6679 5.77186 14.1348 4.58381 13.1587L13.9585 3.784C14.7581 4.76011 15.264 5.94325 15.4174 7.19572C15.5708 8.44818 15.3652 9.71844 14.8248 10.8586C14.2843 11.9988 13.4311 12.9621 12.3644 13.6362C11.2978 14.3104 10.0616 14.6677 8.79981 14.6667Z" fill="black"/>
</g>
<defs>
<clipPath id="clip0_483_13632">
<rect width="16" height="16" fill="white" transform="translate(0.799805)"/>
</clipPath>
</defs>
</svg>
