<svg width="16" height="16" viewBox="0 0 16 16" fill="none" xmlns="http://www.w3.org/2000/svg">
<g clip-path="url(#clip0_483_13653)">
<path d="M13.3267 10.0006H0.666667C0.489856 10.0006 0.320286 10.0708 0.195262 10.1958C0.0702379 10.3209 0 10.4904 0 10.6672C0 10.8441 0.0702379 11.0136 0.195262 11.1387C0.320286 11.2637 0.489856 11.3339 0.666667 11.3339H13.3267C13.7453 11.3347 14.1583 11.2368 14.5321 11.0483C14.906 10.8597 15.2302 10.5858 15.4785 10.2487C15.7268 9.91163 15.8922 9.5208 15.9614 9.10788C16.0306 8.69495 16.0015 8.27154 15.8767 7.87192C15.2871 5.9725 14.1038 4.31232 12.5005 3.13546C10.8973 1.9586 8.95879 1.32714 6.97 1.33392H0.666667C0.489856 1.33392 0.320286 1.40415 0.195262 1.52918C0.0702379 1.6542 0 1.82377 0 2.00058C0 2.17739 0.0702379 2.34696 0.195262 2.47199C0.320286 2.59701 0.489856 2.66725 0.666667 2.66725H2.66667V4.66725H0.666667C0.489856 4.66725 0.320286 4.73749 0.195262 4.86251C0.0702379 4.98754 0 5.15711 0 5.33392C0 5.51073 0.0702379 5.6803 0.195262 5.80532C0.320286 5.93035 0.489856 6.00058 0.666667 6.00058H13.4753C13.9696 6.69289 14.3508 7.45933 14.6047 8.27125C14.6676 8.47 14.6823 8.68087 14.6475 8.88641C14.6127 9.09196 14.5295 9.28627 14.4047 9.45325C14.2811 9.62328 14.119 9.76155 13.9316 9.8567C13.7442 9.95186 13.5368 10.0012 13.3267 10.0006ZM6 4.66725H4V2.66725H6V4.66725ZM7.33333 4.66725V2.68192C9.15823 2.75817 10.9015 3.45907 12.2713 4.66725H7.33333Z" fill="black"/>
<path d="M15.3333 13.3337H0.666667C0.489856 13.3337 0.320286 13.404 0.195262 13.529C0.0702379 13.654 0 13.8236 0 14.0004C0 14.1772 0.0702379 14.3468 0.195262 14.4718C0.320286 14.5968 0.489856 14.6671 0.666667 14.6671H15.3333C15.5101 14.6671 15.6797 14.5968 15.8047 14.4718C15.9298 14.3468 16 14.1772 16 14.0004C16 13.8236 15.9298 13.654 15.8047 13.529C15.6797 13.404 15.5101 13.3337 15.3333 13.3337Z" fill="black"/>
</g>
<defs>
<clipPath id="clip0_483_13653">
<rect width="16" height="16" fill="white"/>
</clipPath>
</defs>
</svg>
