<svg width="17" height="16" viewBox="0 0 17 16" fill="none" xmlns="http://www.w3.org/2000/svg">
<g clip-path="url(#clip0_482_17969)">
<path d="M14.7946 10.2207L12.28 14.324C12.0038 14.7773 11.6279 15.1617 11.1808 15.4479C10.7337 15.734 10.2273 15.9144 9.69996 15.9753C9.56102 15.9918 9.42122 16.0001 9.2813 16C8.56494 15.999 7.86639 15.7767 7.2813 15.3633C6.67667 15.8163 5.92978 16.0377 5.17597 15.9875C4.42215 15.9372 3.71127 15.6186 3.17213 15.0894C2.63298 14.5602 2.30124 13.8553 2.237 13.1026C2.17277 12.3498 2.38029 11.5989 2.82196 10.986L1.9453 10.1107C1.57096 9.73632 1.28617 9.28212 1.11226 8.78209C0.938355 8.28207 0.87983 7.74917 0.941073 7.22332C1.00232 6.69746 1.18174 6.19228 1.4659 5.7456C1.75007 5.29892 2.13161 4.92233 2.58196 4.64401L6.42663 2.26668C7.4681 1.5992 8.69287 1.27558 9.92813 1.34149C11.1634 1.4074 12.3468 1.8595 13.3113 2.63401L14.4173 1.52801C14.4788 1.46434 14.5524 1.41355 14.6337 1.37861C14.715 1.34367 14.8025 1.32528 14.891 1.32451C14.9795 1.32374 15.0673 1.34061 15.1493 1.37413C15.2312 1.40765 15.3056 1.45716 15.3682 1.51975C15.4308 1.58235 15.4803 1.65678 15.5138 1.73871C15.5474 1.82064 15.5642 1.90843 15.5635 1.99695C15.5627 2.08547 15.5443 2.17295 15.5094 2.25428C15.4744 2.33562 15.4236 2.40918 15.36 2.47068L14.2553 3.57601C14.9962 4.50417 15.4433 5.6323 15.5394 6.81601C15.6355 7.99972 15.3761 9.18518 14.7946 10.2207ZM6.2653 14.4313L3.78596 11.9513C3.59221 12.2979 3.51749 12.6984 3.57324 13.0914C3.629 13.4845 3.81216 13.8484 4.09463 14.1273C4.37958 14.398 4.74201 14.5728 5.13123 14.6273C5.52044 14.6819 5.91696 14.6133 6.2653 14.4313ZM12.8793 4.03135C12.139 3.28391 11.1645 2.81336 10.1188 2.69844C9.07305 2.58352 8.01959 2.83119 7.13463 3.40001L3.2833 5.77735C3.00399 5.94999 2.76736 6.18359 2.59113 6.46065C2.41491 6.73771 2.30364 7.05105 2.26568 7.3772C2.22772 7.70336 2.26403 8.03387 2.37192 8.344C2.4798 8.65413 2.65644 8.93583 2.88863 9.16801L7.74863 14.0287C7.98119 14.2615 8.26351 14.4386 8.57436 14.5465C8.88521 14.6545 9.21649 14.6906 9.54331 14.6521C9.87012 14.6136 10.1839 14.5015 10.4612 14.3243C10.7384 14.147 10.9719 13.9092 11.144 13.6287L13.6473 9.54535C14.1362 8.66717 14.3258 7.6536 14.1872 6.65808C14.0486 5.66255 13.5895 4.73928 12.8793 4.02801V4.03135ZM13.732 16C13.5912 16.0003 13.4539 15.9559 13.3399 15.8734C13.2258 15.7908 13.1408 15.6743 13.0971 15.5405C13.0533 15.4067 13.0531 15.2624 13.0964 15.1284C13.1396 14.9945 13.2242 14.8776 13.338 14.7947C14.5053 13.917 15.2953 12.6284 15.548 11.19C15.5657 11.1034 15.6004 11.0212 15.6502 10.9482C15.7 10.8751 15.7638 10.8127 15.8379 10.7646C15.912 10.7164 15.995 10.6835 16.0819 10.6677C16.1689 10.6519 16.2581 10.6536 16.3445 10.6726C16.4308 10.6916 16.5124 10.7275 16.5847 10.7784C16.657 10.8293 16.7185 10.894 16.7655 10.9688C16.8125 11.0436 16.8442 11.1271 16.8587 11.2143C16.8732 11.3015 16.8703 11.3907 16.85 11.4767C16.5233 13.2311 15.5509 14.7994 14.1246 15.872C14.0106 15.9552 13.8731 16 13.732 16ZM1.5553 3.82601C1.43217 3.82547 1.31159 3.79083 1.20694 3.72594C1.1023 3.66105 1.01767 3.56844 0.962433 3.45839C0.907201 3.34834 0.883526 3.22515 0.894034 3.10246C0.904542 2.97978 0.948821 2.8624 1.02196 2.76335C2.10928 1.31041 3.70984 0.326895 5.4973 0.0133472C5.67057 -0.022015 5.8508 0.0129043 5.99833 0.110423C6.14585 0.207942 6.2486 0.360072 6.28396 0.533347C6.31933 0.706622 6.28441 0.886847 6.18689 1.03438C6.08937 1.1819 5.93724 1.28465 5.76396 1.32001C4.29595 1.56243 2.97879 2.36376 2.08863 3.55601C2.02688 3.63943 1.94651 3.70727 1.85392 3.75414C1.76133 3.80102 1.65908 3.82563 1.5553 3.82601Z" fill="black"/>
</g>
<defs>
<clipPath id="clip0_482_17969">
<rect width="16" height="16" fill="white" transform="translate(0.888672)"/>
</clipPath>
</defs>
</svg>
