<svg width="17" height="16" viewBox="0 0 17 16" fill="none" xmlns="http://www.w3.org/2000/svg">
<g clip-path="url(#clip0_483_13765)">
<path d="M16.3027 14.2125C16.2767 14.1289 16.2345 14.0513 16.1785 13.984C16.1225 13.9167 16.0537 13.8611 15.9762 13.8203C15.8987 13.7796 15.814 13.7545 15.7268 13.7465C15.6396 13.7386 15.5516 13.7479 15.468 13.7739L14.6014 14.0405L13.9807 12.2159C14.6326 11.8501 15.1411 11.2739 15.423 10.5815C15.705 9.88921 15.7436 9.1217 15.5327 8.40454L14.304 4.75454C14.1494 4.25625 13.8075 3.83734 13.3504 3.58593C12.8932 3.33453 12.3563 3.27023 11.8527 3.40654L9.28471 4.12254C8.91643 4.22501 8.58576 4.43203 8.33271 4.71854C8.07965 4.43203 7.74898 4.22501 7.38071 4.12254L4.81204 3.40654C4.31209 3.26864 3.77815 3.32978 3.32232 3.57715C2.86649 3.82452 2.52422 4.23887 2.36737 4.73321L1.12271 8.43788C0.920052 9.15449 0.96544 9.91855 1.25151 10.6061C1.53758 11.2937 2.04755 11.8645 2.69871 12.2259L2.06937 14.0445L1.19937 13.7739C1.11576 13.7476 1.0278 13.7381 0.940507 13.7458C0.853212 13.7535 0.768294 13.7784 0.690603 13.8189C0.612911 13.8595 0.543967 13.9149 0.487706 13.9821C0.431445 14.0493 0.38897 14.1269 0.362706 14.2105C0.336442 14.2942 0.326902 14.3821 0.334633 14.4694C0.342363 14.5567 0.367212 14.6416 0.40776 14.7193C0.448308 14.797 0.503762 14.866 0.570955 14.9222C0.638148 14.9785 0.715764 15.0209 0.799373 15.0472L2.23937 15.4945C2.24937 15.4945 2.25537 15.5059 2.26537 15.5099C2.27537 15.5139 2.30004 15.5139 2.31737 15.5185L3.77137 15.9699C3.94023 16.0224 4.12303 16.0057 4.27956 15.9234C4.43609 15.8411 4.55353 15.7001 4.60604 15.5312C4.65855 15.3624 4.64184 15.1796 4.55957 15.023C4.4773 14.8665 4.33623 14.7491 4.16737 14.6965L3.34337 14.4399L3.96671 12.6399C4.09033 12.6558 4.21475 12.6647 4.33937 12.6665C5.06015 12.6648 5.76093 12.4294 6.33666 11.9957C6.91239 11.5621 7.33204 10.9535 7.53271 10.2612L8.33271 7.89054L9.12137 10.2239C9.31577 10.925 9.73421 11.5432 10.3128 11.9843C10.8915 12.4253 11.5985 12.6649 12.326 12.6665C12.4556 12.6653 12.5849 12.6564 12.7134 12.6399L13.3254 14.4399L12.496 14.6972C12.3272 14.7497 12.1861 14.8672 12.1038 15.0237C12.0216 15.1802 12.0049 15.363 12.0574 15.5319C12.1099 15.7007 12.2273 15.8418 12.3839 15.9241C12.5404 16.0063 12.7232 16.0231 12.892 15.9705L14.342 15.5205C14.3594 15.5159 14.3774 15.5205 14.3947 15.5119C14.412 15.5032 14.412 15.4992 14.4227 15.4952L15.864 15.0479C15.9477 15.0219 16.0255 14.9797 16.0928 14.9236C16.1602 14.8675 16.2158 14.7987 16.2566 14.7212C16.2973 14.6436 16.3223 14.5587 16.3303 14.4714C16.3382 14.3842 16.3288 14.2962 16.3027 14.2125ZM9.23737 5.72788C9.27979 5.64976 9.33756 5.58102 9.40721 5.5258C9.47687 5.47058 9.55697 5.43002 9.64271 5.40654L12.21 4.69121C12.2673 4.67517 12.3265 4.66687 12.386 4.66654C12.5327 4.66809 12.6749 4.71685 12.7916 4.8056C12.9083 4.89434 12.9933 5.01834 13.034 5.15921L13.5414 6.66654H9.32604L9.18271 6.24188C9.15714 6.15688 9.14881 6.06763 9.1582 5.97936C9.16758 5.8911 9.1945 5.8056 9.23737 5.72788ZM4.27804 4.66654C4.33773 4.66665 4.39715 4.67472 4.45471 4.69054L7.02271 5.40654C7.19236 5.45333 7.33663 5.56531 7.42405 5.71805C7.51147 5.87079 7.53495 6.05189 7.48937 6.22188L7.33937 6.66654H3.12404L3.63737 5.13988C3.67974 5.00298 3.76476 4.88321 3.88002 4.79805C3.99527 4.7129 4.13474 4.66682 4.27804 4.66654ZM6.26071 9.86654C6.15422 10.2471 5.93739 10.5876 5.63759 10.845C5.33779 11.1024 4.96845 11.2652 4.57618 11.313C4.18392 11.3607 3.78631 11.2911 3.43354 11.1131C3.08077 10.935 2.78864 10.6565 2.59404 10.3125C2.33639 9.86326 2.26643 9.33045 2.39937 8.82988L2.67537 7.99988H6.89004L6.26071 9.86654ZM11.3487 11.0719C11.1151 10.9393 10.9104 10.7614 10.7465 10.5486C10.5827 10.3357 10.4631 10.0923 10.3947 9.83254L9.77537 7.99988H13.9907L14.2574 8.79588C14.3638 9.1771 14.3547 9.58131 14.2312 9.95735C14.1078 10.3334 13.8755 10.6644 13.5639 10.9083C13.2522 11.1523 12.8752 11.2983 12.4805 11.3279C12.0858 11.3575 11.6912 11.2693 11.3467 11.0745L11.3487 11.0719Z" fill="black"/>
<path d="M10.7017 2.59992C10.7804 2.63949 10.8662 2.66308 10.9541 2.6693C11.0419 2.67553 11.1302 2.66428 11.2137 2.63619C11.2972 2.60811 11.3743 2.56376 11.4406 2.50569C11.5068 2.44763 11.5609 2.37701 11.5997 2.29792L12.2664 0.964587C12.3454 0.806341 12.3584 0.62318 12.3023 0.455397C12.2463 0.287615 12.126 0.148954 11.9677 0.0699199C11.8095 -0.00911457 11.6263 -0.0220491 11.4585 0.0339617C11.2907 0.0899726 11.1521 0.210341 11.073 0.368587L10.4064 1.70192C10.3666 1.78023 10.3426 1.86563 10.3359 1.95322C10.3292 2.04082 10.3399 2.12887 10.3674 2.21232C10.3948 2.29577 10.4385 2.37297 10.4958 2.43949C10.5532 2.50601 10.6232 2.56053 10.7017 2.59992Z" fill="black"/>
<path d="M5.06955 2.29792C5.14858 2.45661 5.28742 2.5774 5.45552 2.63372C5.53875 2.66161 5.62666 2.67283 5.71423 2.66675C5.8018 2.66066 5.88731 2.63739 5.96588 2.59825C6.04446 2.55912 6.11455 2.50489 6.17217 2.43867C6.22979 2.37244 6.2738 2.29552 6.30169 2.21229C6.32957 2.12906 6.3408 2.04115 6.33471 1.95358C6.32862 1.86601 6.30535 1.78049 6.26622 1.70192L5.59955 0.368587C5.56042 0.290231 5.50623 0.220351 5.44009 0.162936C5.37395 0.105521 5.29715 0.0616955 5.21407 0.0339617C5.04629 -0.0220491 4.86313 -0.00911457 4.70488 0.0699199C4.54664 0.148954 4.42627 0.287615 4.37026 0.455397C4.31425 0.62318 4.32718 0.806341 4.40622 0.964587L5.06955 2.29792Z" fill="black"/>
<path d="M8.33269 2.66667C8.5095 2.66667 8.67907 2.59643 8.80409 2.4714C8.92912 2.34638 8.99936 2.17681 8.99936 2V0.666667C8.99936 0.489856 8.92912 0.320286 8.80409 0.195262C8.67907 0.0702379 8.5095 0 8.33269 0C8.15587 0 7.9863 0.0702379 7.86128 0.195262C7.73625 0.320286 7.66602 0.489856 7.66602 0.666667V2C7.66602 2.17681 7.73625 2.34638 7.86128 2.4714C7.9863 2.59643 8.15587 2.66667 8.33269 2.66667Z" fill="black"/>
</g>
<defs>
<clipPath id="clip0_483_13765">
<rect width="16" height="16" fill="white" transform="translate(0.333008)"/>
</clipPath>
</defs>
</svg>
