<svg width="17" height="16" viewBox="0 0 17 16" fill="none" xmlns="http://www.w3.org/2000/svg">
<g clip-path="url(#clip0_483_13609)">
<path d="M13.1557 4.91919C13.0351 4.88479 12.9251 4.82078 12.8355 4.73299C12.746 4.6452 12.6798 4.53641 12.643 4.41652C12.4389 3.72455 12.0965 3.08119 11.6365 2.52538C11.1765 1.96957 10.6086 1.51286 9.96699 1.18289C9.32541 0.852923 8.62356 0.656551 7.9039 0.605662C7.18424 0.554772 6.46173 0.650423 5.78011 0.886825C5.09848 1.12323 4.4719 1.49547 3.93829 1.98102C3.40468 2.46657 2.97513 3.05534 2.67563 3.71169C2.37613 4.36805 2.21292 5.07834 2.19586 5.7996C2.1788 6.52085 2.30825 7.23807 2.57638 7.90786C2.63798 8.04881 2.65124 8.20617 2.6141 8.35545C2.57696 8.50472 2.49151 8.63753 2.37105 8.73319C1.8402 9.12718 1.42574 9.65737 1.17155 10.2676C0.917351 10.8779 0.83287 11.5455 0.927046 12.1999C1.07402 13.0844 1.53326 13.887 2.22143 14.4619C2.90961 15.0368 3.78109 15.346 4.67771 15.3332H8.22238C8.39919 15.3332 8.56876 15.2629 8.69378 15.1379C8.81881 15.0129 8.88905 14.8433 8.88905 14.6665C8.88905 14.4897 8.81881 14.3201 8.69378 14.1951C8.56876 14.0701 8.39919 13.9999 8.22238 13.9999H4.67771C4.1019 14.0138 3.54013 13.8211 3.09422 13.4565C2.64831 13.0919 2.34776 12.5796 2.24705 12.0125C2.18318 11.5957 2.23494 11.1693 2.39669 10.7798C2.55845 10.3904 2.82399 10.0528 3.16438 9.80385C3.52193 9.53663 3.78057 9.1582 3.89967 8.72801C4.01877 8.29782 3.99158 7.84025 3.82238 7.42719C3.48781 6.54366 3.47061 5.57133 3.77371 4.67652C4.01584 3.97557 4.44944 3.35644 5.02537 2.88926C5.6013 2.42208 6.29656 2.12552 7.03238 2.03319C7.20306 2.01121 7.37496 2.00008 7.54705 1.99985C8.40908 1.99701 9.24885 2.27347 9.94061 2.78785C10.6324 3.30222 11.1389 4.02683 11.3844 4.85319C11.4802 5.1681 11.6528 5.45424 11.8868 5.68583C12.1207 5.91742 12.4085 6.08719 12.7244 6.17985C13.4974 6.40847 14.1821 6.86777 14.6868 7.49627C15.1916 8.12476 15.4923 8.89246 15.5487 9.69658C15.6051 10.5007 15.4146 11.3029 15.0025 11.9957C14.5904 12.6885 13.9766 13.2389 13.243 13.5732C13.1345 13.6288 13.0437 13.7137 12.9811 13.8184C12.9186 13.9231 12.8866 14.0433 12.889 14.1652C12.8877 14.2755 12.9142 14.3844 12.9659 14.4818C13.0177 14.5793 13.093 14.6621 13.1851 14.7229C13.2773 14.7836 13.3831 14.8202 13.4931 14.8293C13.603 14.8385 13.7135 14.8199 13.8144 14.7752C16.5704 13.4505 18.0677 9.96585 15.7344 6.59919C15.0919 5.76113 14.1819 5.16827 13.1557 4.91919Z" fill="black"/>
<path d="M13.3603 11.138C13.4853 11.013 13.5555 10.8434 13.5555 10.6666C13.5555 10.4899 13.4853 10.3203 13.3603 10.1953L12.3029 9.13797C11.9279 8.76303 11.4193 8.5524 10.8889 8.5524C10.3586 8.5524 9.85 8.76303 9.47494 9.13797L8.41761 10.1953C8.29617 10.321 8.22898 10.4894 8.23049 10.6642C8.23201 10.839 8.30213 11.0062 8.42573 11.1299C8.54934 11.2535 8.71654 11.3236 8.89134 11.3251C9.06614 11.3266 9.23454 11.2594 9.36028 11.138L10.2223 10.276V15.3333C10.2223 15.5101 10.2925 15.6797 10.4175 15.8047C10.5426 15.9297 10.7121 16 10.8889 16C11.0658 16 11.2353 15.9297 11.3603 15.8047C11.4854 15.6797 11.5556 15.5101 11.5556 15.3333V10.276L12.4176 11.138C12.5426 11.263 12.7122 11.3332 12.8889 11.3332C13.0657 11.3332 13.2353 11.263 13.3603 11.138Z" fill="black"/>
</g>
<defs>
<clipPath id="clip0_483_13609">
<rect width="16" height="16" fill="white" transform="translate(0.888672)"/>
</clipPath>
</defs>
</svg>
