<svg width="17" height="16" viewBox="0 0 17 16" fill="none" xmlns="http://www.w3.org/2000/svg">
<g clip-path="url(#clip0_483_13864)">
<path d="M15.5368 11.8522L9.83878 3.68956C10.775 3.10341 11.0588 1.86928 10.4726 0.933062C9.88647 -0.00315684 8.65234 -0.286938 7.71613 0.299249C6.77991 0.885437 6.49613 2.11953 7.08231 3.05575C7.24291 3.31225 7.45963 3.52897 7.71613 3.68956L2.01809 11.8522C1.398 12.6642 1.27963 13.7533 1.71075 14.6796C2.21919 15.5578 3.18306 16.0701 4.19544 16.0002H13.3594C14.3718 16.0701 15.3357 15.5578 15.8441 14.6796C16.2752 13.7533 16.1568 12.6642 15.5368 11.8522ZM8.59809 14.6669L12.2367 9.45422L13.1774 10.8056L10.4847 14.6669H8.59809V14.6669ZM5.13678 14.6669L10.5061 6.97487L11.4235 8.28953L6.97209 14.6669H5.13678ZM2.89078 14.0629C2.69306 13.5764 2.7775 13.0207 3.11078 12.6149L8.77744 4.49822L9.69809 5.81687C9.68875 5.82887 9.67544 5.83487 9.66675 5.84687L3.57744 14.5729C3.28872 14.5033 3.04078 14.3192 2.89078 14.0629ZM14.6641 14.0629C14.3784 14.4947 13.8735 14.7284 13.3594 14.6669H12.1108L13.9921 11.9709L14.4421 12.6149C14.7761 13.0203 14.8613 13.576 14.6641 14.0629Z" fill="black"/>
</g>
<defs>
<clipPath id="clip0_483_13864">
<rect width="16" height="16" fill="white" transform="translate(0.777344)"/>
</clipPath>
</defs>
</svg>
