<svg width="17" height="16" viewBox="0 0 17 16" fill="none" xmlns="http://www.w3.org/2000/svg">
<g clip-path="url(#clip0_482_18047)">
<path d="M16.0497 0.290174C15.8927 0.164123 15.709 0.0755955 15.5126 0.031345C15.3162 -0.0129056 15.1122 -0.0117098 14.9164 0.0348411C14.2925 0.201798 13.7171 0.514189 13.2372 0.94642C12.7573 1.37865 12.3867 1.91842 12.1557 2.52151C10.9822 2.19817 9.77275 2.02303 8.55569 2.00017C7.33864 2.02303 6.12923 2.19817 4.95569 2.52151C4.72443 1.91822 4.35348 1.37833 3.87327 0.946091C3.39305 0.513851 2.81724 0.201568 2.19302 0.0348411C1.99715 -0.0117601 1.79321 -0.0129811 1.59679 0.0312713C1.40037 0.0755237 1.21666 0.164079 1.05969 0.290174C0.902073 0.415379 0.77485 0.574647 0.687563 0.756033C0.600277 0.937418 0.555192 1.13621 0.555691 1.33751V6.57218C0.553054 7.53558 0.741545 8.48995 1.11025 9.38002C1.47896 10.2701 2.02056 11.0782 2.70369 11.7575L5.80836 14.8622C6.53991 15.5853 7.52706 15.9909 8.55569 15.9909C9.58432 15.9909 10.5715 15.5853 11.303 14.8622L14.4077 11.7575C15.0907 11.0781 15.6322 10.27 16.0009 9.37993C16.3696 8.48988 16.5582 7.53556 16.5557 6.57218V1.33751C16.5562 1.136 16.511 0.937003 16.4233 0.755561C16.3357 0.574119 16.2079 0.41498 16.0497 0.290174ZM3.92303 3.54417C3.97887 3.71184 4.099 3.85047 4.25701 3.9296C4.41502 4.00873 4.59798 4.02188 4.76569 3.96617C5.99379 3.58147 7.26922 3.36856 8.55569 3.33351C9.84215 3.36864 11.1176 3.58155 12.3457 3.96617C12.5133 4.02168 12.6961 4.00842 12.854 3.9293C13.0118 3.85019 13.1318 3.71168 13.1877 3.54417C13.599 2.31151 14.3017 1.54751 15.2224 1.33751V5.44884C13.6037 5.82151 9.22236 7.32284 9.22236 12.6668V12.7895C8.79231 12.6295 8.31907 12.6295 7.88903 12.7895V12.6668C7.88903 7.32351 3.50836 5.82151 1.88902 5.44884V1.33351C2.80969 1.54751 3.51236 2.31217 3.92303 3.54417ZM3.64636 10.8148C2.57917 9.75055 1.95543 8.32105 1.90102 6.81484C2.35539 6.93443 2.79771 7.09579 3.22236 7.29684V7.33351C3.34213 7.88547 3.64382 8.38122 4.07902 8.74123C4.51422 9.10124 5.05773 9.30465 5.62236 9.31884C6.26251 10.3158 6.58773 11.4825 6.55569 12.6668V13.7242L3.64636 10.8148ZM13.465 10.8148L10.5557 13.7242V12.6668C10.5237 11.4825 10.8489 10.3158 11.489 9.31884C12.0536 9.30442 12.597 9.10092 13.0321 8.74095C13.4673 8.38097 13.769 7.88536 13.889 7.33351V7.29684C14.3137 7.09601 14.756 6.93488 15.2104 6.81551C15.1558 8.32148 14.5321 9.75071 13.465 10.8148Z" fill="black"/>
</g>
<defs>
<clipPath id="clip0_482_18047">
<rect width="16" height="16" fill="white" transform="translate(0.555664)"/>
</clipPath>
</defs>
</svg>
