<svg width="17" height="16" viewBox="0 0 17 16" fill="none" xmlns="http://www.w3.org/2000/svg">
<g clip-path="url(#clip0_483_13703)">
<path d="M15.819 0.514007C15.504 0.200544 15.0819 0.0180292 14.6377 0.00318654C14.1936 -0.0116562 13.7603 0.142275 13.425 0.434007L3.98101 8.75534C2.42434 9.04867 0.333008 9.91601 0.333008 11.7333C0.334243 12.8646 0.784162 13.9491 1.58405 14.749C2.38394 15.5489 3.46846 15.9988 4.59967 16C6.41634 16 7.28434 13.9093 7.57767 12.3527L15.901 2.90534C16.1922 2.5702 16.3456 2.13723 16.3303 1.69355C16.3151 1.24987 16.1324 0.828415 15.819 0.514007ZM7.09367 10.8847L5.44834 9.23934L6.78501 8.06134L8.27167 9.54801L7.09367 10.8847ZM4.59967 14.6667C3.82198 14.6658 3.07638 14.3565 2.52647 13.8065C1.97655 13.2566 1.66722 12.511 1.66634 11.7333C1.66634 10.728 3.42567 10.2087 4.36567 10.042L6.29101 11.9667C6.12367 12.9073 5.60501 14.6667 4.59967 14.6667ZM14.899 2.02667L9.15501 8.54534L7.78701 7.17801L14.3037 1.43601C14.3839 1.36714 14.4872 1.33103 14.5928 1.33485C14.6985 1.33866 14.7989 1.38214 14.8739 1.45661C14.949 1.53109 14.9932 1.6311 14.9979 1.73674C15.0025 1.84238 14.9672 1.94589 14.899 2.02667Z" fill="black"/>
</g>
<defs>
<clipPath id="clip0_483_13703">
<rect width="16" height="16" fill="white" transform="translate(0.333008)"/>
</clipPath>
</defs>
</svg>
