<svg width="17" height="16" viewBox="0 0 17 16" fill="none" xmlns="http://www.w3.org/2000/svg">
<g clip-path="url(#clip0_482_18115)">
<path d="M15.444 0H12.1107C11.7571 0 11.4179 0.140476 11.1679 0.390524C10.9178 0.640573 10.7773 0.979711 10.7773 1.33333V5.96533C10.7777 6.22266 10.8506 6.47467 10.9877 6.6924C11.1249 6.91012 11.3207 7.08473 11.5527 7.19615C11.7846 7.30756 12.0433 7.35126 12.299 7.32223C12.5547 7.29319 12.7969 7.19259 12.998 7.032L13.7773 6.40867L14.5567 7.03267C14.7578 7.19329 15.0001 7.2939 15.2559 7.32291C15.5116 7.35192 15.7704 7.30817 16.0023 7.19667C16.2343 7.08517 16.4301 6.91047 16.5672 6.69264C16.7043 6.47481 16.7771 6.22271 16.7773 5.96533V1.33333C16.7773 0.979711 16.6369 0.640573 16.3868 0.390524C16.1368 0.140476 15.7976 0 15.444 0V0ZM15.39 5.99133L14.194 5.03467C14.0758 4.94 13.9288 4.88842 13.7773 4.88842C13.6259 4.88842 13.4789 4.94 13.3607 5.03467L12.1107 5.96533V1.33333H15.444L15.39 5.99133ZM16.7773 9.33333V12.6667C16.7763 13.5504 16.4248 14.3976 15.7999 15.0225C15.175 15.6474 14.3277 15.9989 13.444 16H4.11068C3.22695 15.9989 2.37972 15.6474 1.75482 15.0225C1.12993 14.3976 0.778402 13.5504 0.777344 12.6667L0.777344 5.33333C0.778402 4.4496 1.12993 3.60237 1.75482 2.97748C2.37972 2.35259 3.22695 2.00106 4.11068 2H8.77734C8.95415 2 9.12372 2.07024 9.24875 2.19526C9.37377 2.32029 9.44401 2.48986 9.44401 2.66667C9.44401 2.84348 9.37377 3.01305 9.24875 3.13807C9.12372 3.2631 8.95415 3.33333 8.77734 3.33333H4.11068C3.74815 3.33434 3.39276 3.43419 3.08276 3.62214C2.77275 3.81009 2.51988 4.07903 2.35134 4.4L7.36268 9.412C7.74391 9.77535 8.25036 9.97803 8.77701 9.97803C9.30366 9.97803 9.81011 9.77535 10.1913 9.412L10.7633 8.854C10.8259 8.79272 10.9 8.74436 10.9813 8.7117C11.0626 8.67904 11.1495 8.6627 11.2371 8.66363C11.3247 8.66456 11.4112 8.68273 11.4918 8.71711C11.5724 8.75149 11.6454 8.8014 11.7067 8.864C11.768 8.9266 11.8163 9.00065 11.849 9.08194C11.8816 9.16322 11.898 9.25014 11.897 9.33774C11.8961 9.42533 11.8779 9.51189 11.8436 9.59246C11.8092 9.67304 11.7593 9.74605 11.6967 9.80733L11.1307 10.36C10.503 10.9785 9.65683 11.3248 8.77558 11.3238C7.89434 11.3228 7.04898 10.9746 6.42268 10.3547L2.11068 6.04733V12.6667C2.11068 13.1971 2.32139 13.7058 2.69646 14.0809C3.07154 14.456 3.58024 14.6667 4.11068 14.6667H13.444C13.9744 14.6667 14.4832 14.456 14.8582 14.0809C15.2333 13.7058 15.444 13.1971 15.444 12.6667V9.33333C15.444 9.15652 15.5142 8.98695 15.6393 8.86193C15.7643 8.73691 15.9339 8.66667 16.1107 8.66667C16.2875 8.66667 16.4571 8.73691 16.5821 8.86193C16.7071 8.98695 16.7773 9.15652 16.7773 9.33333Z" fill="black"/>
</g>
<defs>
<clipPath id="clip0_482_18115">
<rect width="16" height="16" fill="white" transform="translate(0.777344)"/>
</clipPath>
</defs>
</svg>
