<svg width="16" height="16" viewBox="0 0 16 16" fill="none" xmlns="http://www.w3.org/2000/svg">
<g clip-path="url(#clip0_483_13754)">
<path d="M14.6513 7.50933C14.4087 3.816 10.9827 0.694 7.154 0.666667C7.03703 0.464077 6.86883 0.295826 6.66627 0.178808C6.46371 0.0617896 6.23393 0.000122926 6 0L4.66667 0C3.95942 0 3.28115 0.280952 2.78105 0.781049C2.28095 1.28115 2 1.95942 2 2.66667V13.3333C2 14.0406 2.28095 14.7189 2.78105 15.219C3.28115 15.719 3.95942 16 4.66667 16H6C6.23393 15.9999 6.46371 15.9382 6.66627 15.8212C6.86883 15.7042 7.03703 15.5359 7.154 15.3333H7.33333C8.33648 15.3316 9.32869 15.1249 10.249 14.7258C11.1694 14.3268 11.9985 13.7438 12.6853 13.0127C13.3756 12.281 13.9067 11.4143 14.2451 10.467C14.5835 9.51981 14.7218 8.51272 14.6513 7.50933ZM11.712 12.1007C11.1531 12.7028 10.4755 13.1825 9.7218 13.5094C8.96813 13.8363 8.15485 14.0034 7.33333 14H6.66667C6.48986 14 6.32029 14.0702 6.19526 14.1953C6.07024 14.3203 6 14.4899 6 14.6667H4.66667C4.31304 14.6667 3.97391 14.5262 3.72386 14.2761C3.47381 14.0261 3.33333 13.687 3.33333 13.3333V12.6667H4C4.17681 12.6667 4.34638 12.5964 4.4714 12.4714C4.59643 12.3464 4.66667 12.1768 4.66667 12C4.66667 11.8232 4.59643 11.6536 4.4714 11.5286C4.34638 11.4036 4.17681 11.3333 4 11.3333H3.33333V10H4C4.17681 10 4.34638 9.92976 4.4714 9.80474C4.59643 9.67971 4.66667 9.51014 4.66667 9.33333C4.66667 9.15652 4.59643 8.98695 4.4714 8.86193C4.34638 8.73691 4.17681 8.66667 4 8.66667H3.33333V7.33333H4C4.17681 7.33333 4.34638 7.2631 4.4714 7.13807C4.59643 7.01305 4.66667 6.84348 4.66667 6.66667C4.66667 6.48986 4.59643 6.32029 4.4714 6.19526C4.34638 6.07024 4.17681 6 4 6H3.33333V4.66667H4C4.17681 4.66667 4.34638 4.59643 4.4714 4.4714C4.59643 4.34638 4.66667 4.17681 4.66667 4C4.66667 3.82319 4.59643 3.65362 4.4714 3.5286C4.34638 3.40357 4.17681 3.33333 4 3.33333H3.33333V2.66667C3.33333 2.31304 3.47381 1.97391 3.72386 1.72386C3.97391 1.47381 4.31304 1.33333 4.66667 1.33333H6C6 1.51014 6.07024 1.67971 6.19526 1.80474C6.32029 1.92976 6.48986 2 6.66667 2H7.104C10.2753 2 13.122 4.56267 13.32 7.596C13.3782 8.41725 13.2654 9.24164 12.9886 10.017C12.7118 10.7924 12.2771 11.5019 11.712 12.1007ZM7.33333 4.66667C6.97971 4.66667 6.64057 4.80714 6.39052 5.05719C6.14048 5.30724 6 5.64638 6 6V10C6.0041 10.3489 6.14394 10.6825 6.38986 10.93C6.63579 11.1776 6.96846 11.3196 7.31733 11.326C8.14278 11.317 8.93662 11.0073 9.5502 10.4551C10.1638 9.90289 10.555 9.14594 10.6507 8.326C10.6962 7.863 10.6442 7.39561 10.4982 6.95388C10.3522 6.51216 10.1154 6.10589 9.80291 5.76121C9.49045 5.41653 9.10929 5.14108 8.68396 4.95257C8.25864 4.76406 7.79856 4.66667 7.33333 4.66667ZM7.33333 10V6C7.6129 5.9999 7.88939 6.05842 8.14494 6.17177C8.4005 6.28513 8.62946 6.4508 8.81703 6.6581C9.00461 6.8654 9.14664 7.10973 9.23396 7.37531C9.32128 7.64089 9.35196 7.92183 9.324 8.2C9.26216 8.68846 9.02735 9.13859 8.66215 9.46881C8.29696 9.79903 7.82553 9.98748 7.33333 10Z" fill="black"/>
</g>
<defs>
<clipPath id="clip0_483_13754">
<rect width="16" height="16" fill="white"/>
</clipPath>
</defs>
</svg>
