<svg width="17" height="16" viewBox="0 0 17 16" fill="none" xmlns="http://www.w3.org/2000/svg">
<g clip-path="url(#clip0_482_18032)">
<path d="M16.0322 1.52323C15.9056 1.39711 15.7342 1.32629 15.5555 1.32629C15.3768 1.32629 15.2054 1.39711 15.0788 1.52323L11.9028 4.69923L11.6895 4.49056C11.1271 3.9412 10.3888 3.60795 9.60472 3.54954C8.82067 3.49112 8.04115 3.71128 7.4035 4.17123C6.48319 4.86522 5.46022 5.41135 4.3715 5.78989L2.98883 6.19522C2.53953 6.32711 2.12279 6.55153 1.76538 6.85406C1.40797 7.15659 1.11779 7.53054 0.913501 7.95189C0.712572 8.36752 0.60066 8.82053 0.584932 9.28191C0.569205 9.74329 0.650008 10.2029 0.822168 10.6312C1.47469 12.2331 2.59331 13.602 4.03305 14.5605C5.47279 15.5191 7.16726 16.0231 8.89683 16.0072H9.51283C9.65066 16.0071 9.78515 15.9648 9.89817 15.8859C11.0716 15.1199 12.0745 14.1202 12.8442 12.9491C13.6139 11.7781 14.1338 10.4609 14.3715 9.07989C14.4542 8.55182 14.4094 8.01163 14.2409 7.50438C14.0724 6.99714 13.785 6.53753 13.4028 6.16389L12.8695 5.64122L16.0342 2.47656C16.16 2.34972 16.2305 2.17817 16.2301 1.99948C16.2297 1.8208 16.1586 1.64954 16.0322 1.52323ZM9.29417 14.6565H8.89417C7.90912 14.6579 6.93338 14.4661 6.02217 14.0919L6.0295 14.0879C7.19543 13.5029 8.19356 12.6311 8.93017 11.5546L9.2755 11.0472C9.37611 10.8996 9.41394 10.718 9.38069 10.5425C9.34743 10.367 9.2458 10.2118 9.09817 10.1112C8.95053 10.0106 8.76897 9.97278 8.59344 10.006C8.41791 10.0393 8.26277 10.1409 8.16217 10.2886L7.81683 10.7959C7.2083 11.6836 6.38434 12.4023 5.42217 12.8845L4.58817 13.3045C3.92091 12.8355 3.33856 12.2561 2.86617 11.5912C3.95882 11.2236 4.9557 10.6169 5.78417 9.81522C5.912 9.69021 5.98494 9.51955 5.98694 9.34076C5.98894 9.16198 5.91984 8.98972 5.79483 8.86189C5.66983 8.73405 5.49916 8.66111 5.32038 8.65911C5.14159 8.65711 4.96934 8.72621 4.8415 8.85122C4.09543 9.57413 3.18486 10.1049 2.18817 10.3979C2.1475 10.3079 2.1035 10.2199 2.06683 10.1272C1.96358 9.87365 1.91525 9.60108 1.92502 9.32748C1.93478 9.05387 2.00243 8.78544 2.1235 8.53989C2.24607 8.28775 2.4199 8.06395 2.63387 7.88281C2.84784 7.70167 3.09726 7.56716 3.36617 7.48789L4.74817 7.08256C5.55014 6.82492 6.31726 6.46935 7.03217 6.02389L12.3088 11.1652C11.6077 12.5609 10.572 13.7612 9.29417 14.6592V14.6565ZM13.0408 8.86789C12.9899 9.17979 12.9211 9.48851 12.8348 9.79255L8.1875 5.26656C8.52844 5.02151 8.93764 4.88955 9.3575 4.88923C9.87688 4.88857 10.3758 5.09181 10.7468 5.45522L12.4595 7.12789C12.6881 7.3511 12.8602 7.62568 12.9613 7.92879C13.0624 8.2319 13.0897 8.55478 13.0408 8.87055V8.86789Z" fill="black"/>
</g>
<defs>
<clipPath id="clip0_482_18032">
<rect width="16" height="16" fill="white" transform="translate(0.222656)"/>
</clipPath>
</defs>
</svg>
