<svg width="16" height="16" viewBox="0 0 16 16" fill="none" xmlns="http://www.w3.org/2000/svg">
<g clip-path="url(#clip0_483_13827)">
<path d="M13.8711 2.86035C13.8092 2.79841 13.7356 2.74928 13.6547 2.71575C13.5738 2.68223 13.4871 2.66498 13.3995 2.66498C13.3119 2.66498 13.2251 2.68223 13.1442 2.71575C13.0633 2.74928 12.9897 2.79841 12.9278 2.86035C12.8659 2.92229 12.8167 2.99582 12.7832 3.07675C12.7497 3.15768 12.7324 3.24442 12.7324 3.33202C12.7324 3.41961 12.7497 3.50635 12.7832 3.58728C12.8167 3.66821 12.8659 3.74174 12.9278 3.80368C14.0391 4.91762 14.6632 6.42686 14.6632 8.00035C14.6632 9.57383 14.0391 11.0831 12.9278 12.197C12.8027 12.3221 12.7324 12.4918 12.7324 12.6687C12.7324 12.8456 12.8027 13.0153 12.9278 13.1403C13.0529 13.2654 13.2225 13.3357 13.3995 13.3357C13.5764 13.3357 13.746 13.2654 13.8711 13.1403C15.2323 11.7761 15.9968 9.92755 15.9968 8.00035C15.9968 6.07315 15.2323 4.22463 13.8711 2.86035Z" fill="black"/>
<path d="M12.0673 4.86061C12.0054 4.79845 11.9318 4.7491 11.8508 4.71538C11.7698 4.68166 11.6829 4.66422 11.5952 4.66406C11.5074 4.66391 11.4205 4.68104 11.3394 4.71448C11.2582 4.74792 11.1845 4.79701 11.1223 4.85895C11.0602 4.92089 11.0108 4.99446 10.9771 5.07547C10.9434 5.15649 10.9259 5.24335 10.9258 5.3311C10.9256 5.41885 10.9428 5.50577 10.9762 5.5869C11.0096 5.66804 11.0587 5.74179 11.1207 5.80394C11.7025 6.38667 12.0293 7.17648 12.0293 7.99994C12.0293 8.82341 11.7025 9.61321 11.1207 10.1959C11.0587 10.2581 11.0096 10.3318 10.9762 10.413C10.9428 10.4941 10.9256 10.581 10.9258 10.6688C10.9259 10.7565 10.9434 10.8434 10.9771 10.9244C11.0108 11.0054 11.0602 11.079 11.1223 11.1409C11.2479 11.266 11.418 11.3361 11.5952 11.3358C11.6829 11.3357 11.7698 11.3182 11.8508 11.2845C11.9318 11.2508 12.0054 11.2014 12.0673 11.1393C12.8989 10.3061 13.3659 9.17707 13.3659 7.99994C13.3659 6.82281 12.8989 5.69377 12.0673 4.86061Z" fill="black"/>
<path d="M9.21333 0.133448C7.1862 0.514293 5.38312 1.66001 4.17733 3.33345H3.33333C2.44971 3.33486 1.60268 3.6865 0.977869 4.31132C0.353053 4.93613 0.00141041 5.78316 0 6.66678L0 9.33345C0.00141041 10.2171 0.353053 11.0641 0.977869 11.6889C1.60268 12.3137 2.44971 12.6654 3.33333 12.6668H4.17733C5.38336 14.34 7.18633 15.4856 9.21333 15.8668C9.25308 15.8745 9.2935 15.8783 9.334 15.8781C9.51081 15.8781 9.68038 15.8079 9.8054 15.6829C9.93043 15.5578 10.0007 15.3883 10.0007 15.2114V0.790781C10.0009 0.692871 9.97959 0.596108 9.93821 0.50737C9.89684 0.418631 9.83642 0.340096 9.76126 0.277347C9.6861 0.214597 9.59804 0.169172 9.50334 0.144302C9.40864 0.119432 9.30963 0.115726 9.21333 0.133448ZM8.66667 14.3568C7.19626 13.888 5.93192 12.9276 5.086 11.6368C5.02556 11.5438 4.94288 11.4674 4.84544 11.4144C4.74801 11.3614 4.6389 11.3336 4.528 11.3334H3.33333C2.8029 11.3334 2.29419 11.1227 1.91912 10.7477C1.54405 10.3726 1.33333 9.86388 1.33333 9.33345V6.66678C1.33333 6.13635 1.54405 5.62764 1.91912 5.25257C2.29419 4.8775 2.8029 4.66678 3.33333 4.66678H4.53333C4.64411 4.66677 4.75314 4.63915 4.85056 4.58642C4.94799 4.53369 5.03074 4.45752 5.09133 4.36478C5.93553 3.07427 7.19792 2.11341 8.66667 1.64345V14.3568Z" fill="black"/>
</g>
<defs>
<clipPath id="clip0_483_13827">
<rect width="16" height="16" fill="white"/>
</clipPath>
</defs>
</svg>
