<svg width="17" height="16" viewBox="0 0 17 16" fill="none" xmlns="http://www.w3.org/2000/svg">
<g clip-path="url(#clip0_483_13686)">
<path d="M16.1107 14.6667H2.77734C2.60053 14.6667 2.43096 14.5964 2.30594 14.4714C2.18091 14.3464 2.11068 14.1768 2.11068 14V0.666667C2.11068 0.489856 2.04044 0.320286 1.91542 0.195262C1.79039 0.0702379 1.62082 0 1.44401 0C1.2672 0 1.09763 0.0702379 0.972606 0.195262C0.847582 0.320286 0.777344 0.489856 0.777344 0.666667L0.777344 14C0.777344 14.5304 0.988057 15.0391 1.36313 15.4142C1.7382 15.7893 2.24691 16 2.77734 16H16.1107C16.2875 16 16.4571 15.9298 16.5821 15.8047C16.7071 15.6797 16.7773 15.5101 16.7773 15.3333C16.7773 15.1565 16.7071 14.987 16.5821 14.8619C16.4571 14.7369 16.2875 14.6667 16.1107 14.6667Z" fill="black"/>
<path d="M10.777 13.3337C10.9538 13.3337 11.1234 13.2635 11.2484 13.1385C11.3735 13.0135 11.4437 12.8439 11.4437 12.6671V8.00041C11.4437 7.8236 11.3735 7.65403 11.2484 7.529C11.1234 7.40398 10.9538 7.33374 10.777 7.33374C10.6002 7.33374 10.4306 7.40398 10.3056 7.529C10.1806 7.65403 10.1104 7.8236 10.1104 8.00041V12.6671C10.1104 12.8439 10.1806 13.0135 10.3056 13.1385C10.4306 13.2635 10.6002 13.3337 10.777 13.3337Z" fill="black"/>
<path d="M5.44401 13.3337C5.62082 13.3337 5.79039 13.2635 5.91541 13.1385C6.04044 13.0135 6.11067 12.8439 6.11067 12.6671V8.00041C6.11067 7.8236 6.04044 7.65403 5.91541 7.529C5.79039 7.40398 5.62082 7.33374 5.44401 7.33374C5.2672 7.33374 5.09763 7.40398 4.97261 7.529C4.84758 7.65403 4.77734 7.8236 4.77734 8.00041V12.6671C4.77734 12.8439 4.84758 13.0135 4.97261 13.1385C5.09763 13.2635 5.2672 13.3337 5.44401 13.3337Z" fill="black"/>
<path d="M13.444 13.3333C13.6208 13.3333 13.7904 13.2631 13.9154 13.1381C14.0404 13.013 14.1107 12.8435 14.1107 12.6667V4.66667C14.1107 4.48986 14.0404 4.32029 13.9154 4.19526C13.7904 4.07024 13.6208 4 13.444 4C13.2672 4 13.0976 4.07024 12.9726 4.19526C12.8476 4.32029 12.7773 4.48986 12.7773 4.66667V12.6667C12.7773 12.8435 12.8476 13.013 12.9726 13.1381C13.0976 13.2631 13.2672 13.3333 13.444 13.3333Z" fill="black"/>
<path d="M8.11101 13.3333C8.28782 13.3333 8.45739 13.2631 8.58241 13.1381C8.70744 13.013 8.77768 12.8435 8.77768 12.6667V4.66667C8.77768 4.48986 8.70744 4.32029 8.58241 4.19526C8.45739 4.07024 8.28782 4 8.11101 4C7.93419 4 7.76462 4.07024 7.6396 4.19526C7.51457 4.32029 7.44434 4.48986 7.44434 4.66667V12.6667C7.44434 12.8435 7.51457 13.013 7.6396 13.1381C7.76462 13.2631 7.93419 13.3333 8.11101 13.3333Z" fill="black"/>
</g>
<defs>
<clipPath id="clip0_483_13686">
<rect width="16" height="16" fill="white" transform="translate(0.777344)"/>
</clipPath>
</defs>
</svg>
