<svg width="17" height="16" viewBox="0 0 17 16" fill="none" xmlns="http://www.w3.org/2000/svg">
<g clip-path="url(#clip0_483_13707)">
<path d="M7.96068 9.63145C7.99939 9.71046 8.05337 9.78102 8.11948 9.83908C8.1856 9.89713 8.26256 9.94151 8.34591 9.96968C8.42927 9.99785 8.51737 10.0092 8.60515 10.0032C8.69293 9.99714 8.77864 9.97378 8.85734 9.93445C8.93605 9.89512 9.00619 9.8406 9.06372 9.77403C9.12126 9.70746 9.16504 9.63017 9.19256 9.54659C9.22008 9.46302 9.23078 9.37483 9.22405 9.2871C9.21732 9.19937 9.19329 9.11385 9.15334 9.03545L5.48668 1.70212C5.43132 1.59135 5.34621 1.4982 5.24088 1.43309C5.13555 1.36798 5.01417 1.3335 4.89034 1.3335C4.76652 1.3335 4.64514 1.36798 4.53981 1.43309C4.43448 1.4982 4.34937 1.59135 4.29401 1.70212L0.627344 9.03545C0.587401 9.11385 0.563371 9.19937 0.556641 9.2871C0.54991 9.37483 0.560612 9.46302 0.588128 9.54659C0.615645 9.63017 0.659432 9.70746 0.716966 9.77403C0.774499 9.8406 0.84464 9.89512 0.923345 9.93445C1.00205 9.97378 1.08776 9.99714 1.17554 10.0032C1.26332 10.0092 1.35142 9.99785 1.43478 9.96968C1.51813 9.94151 1.59509 9.89713 1.6612 9.83908C1.72732 9.78102 1.78129 9.71046 1.82001 9.63145L2.96868 7.33345H6.81134L7.96068 9.63145ZM3.63534 6.00012L4.88934 3.49078L6.14468 6.00012H3.63534Z" fill="black"/>
<path d="M16.3601 7.52826C16.235 7.40328 16.0655 7.33307 15.8887 7.33307C15.7119 7.33307 15.5424 7.40328 15.4174 7.52826L9.22206 13.7236L6.36006 10.8616C6.29856 10.7979 6.225 10.7471 6.14366 10.7122C6.06233 10.6772 5.97485 10.6589 5.88633 10.6581C5.79781 10.6573 5.71002 10.6742 5.62809 10.7077C5.54616 10.7412 5.47172 10.7907 5.40913 10.8533C5.34653 10.9159 5.29703 10.9904 5.26351 11.0723C5.22999 11.1542 5.21312 11.242 5.21389 11.3305C5.21466 11.419 5.23305 11.5065 5.26799 11.5879C5.30293 11.6692 5.35372 11.7428 5.41739 11.8043L8.75073 15.1376C8.87574 15.2626 9.04528 15.3328 9.22206 15.3328C9.39884 15.3328 9.56837 15.2626 9.69339 15.1376L16.3601 8.47092C16.485 8.34591 16.5553 8.17637 16.5553 7.99959C16.5553 7.82282 16.485 7.65328 16.3601 7.52826Z" fill="black"/>
</g>
<defs>
<clipPath id="clip0_483_13707">
<rect width="16" height="16" fill="white" transform="translate(0.555664)"/>
</clipPath>
</defs>
</svg>
