<svg width="17" height="16" viewBox="0 0 17 16" fill="none" xmlns="http://www.w3.org/2000/svg">
<g clip-path="url(#clip0_483_13735)">
<path d="M16.222 9.33333H15.5553V3.33333C15.5543 2.4496 15.2028 1.60237 14.5779 0.97748C13.953 0.352588 13.1057 0.00105857 12.222 0L5.55534 0C4.67161 0.00105857 3.82438 0.352588 3.19949 0.97748C2.57459 1.60237 2.22306 2.4496 2.22201 3.33333V9.33333H1.55534C1.37853 9.33333 1.20896 9.40357 1.08393 9.5286C0.95891 9.65362 0.888672 9.82319 0.888672 10C0.888672 10.1768 0.95891 10.3464 1.08393 10.4714C1.20896 10.5964 1.37853 10.6667 1.55534 10.6667H8.22201V13.3333H6.88867C6.35824 13.3333 5.84953 13.544 5.47446 13.9191C5.09939 14.2942 4.88867 14.8029 4.88867 15.3333C4.88867 15.5101 4.95891 15.6797 5.08393 15.8047C5.20896 15.9298 5.37853 16 5.55534 16C5.73215 16 5.90172 15.9298 6.02674 15.8047C6.15177 15.6797 6.22201 15.5101 6.22201 15.3333C6.22201 15.1565 6.29224 14.987 6.41727 14.8619C6.54229 14.7369 6.71186 14.6667 6.88867 14.6667H10.8887C11.0655 14.6667 11.2351 14.7369 11.3601 14.8619C11.4851 14.987 11.5553 15.1565 11.5553 15.3333C11.5553 15.5101 11.6256 15.6797 11.7506 15.8047C11.8756 15.9298 12.0452 16 12.222 16C12.3988 16 12.5684 15.9298 12.6934 15.8047C12.8184 15.6797 12.8887 15.5101 12.8887 15.3333C12.8887 14.8029 12.678 14.2942 12.3029 13.9191C11.9278 13.544 11.4191 13.3333 10.8887 13.3333H9.55534V10.6667H16.222C16.3988 10.6667 16.5684 10.5964 16.6934 10.4714C16.8184 10.3464 16.8887 10.1768 16.8887 10C16.8887 9.82319 16.8184 9.65362 16.6934 9.5286C16.5684 9.40357 16.3988 9.33333 16.222 9.33333ZM3.55534 3.33333C3.55534 2.8029 3.76605 2.29419 4.14113 1.91912C4.5162 1.54405 5.02491 1.33333 5.55534 1.33333H12.222C12.7524 1.33333 13.2611 1.54405 13.6362 1.91912C14.0113 2.29419 14.222 2.8029 14.222 3.33333V9.33333H3.55534V3.33333Z" fill="black"/>
</g>
<defs>
<clipPath id="clip0_483_13735">
<rect width="16" height="16" fill="white" transform="translate(0.888672)"/>
</clipPath>
</defs>
</svg>
