<svg width="17" height="16" viewBox="0 0 17 16" fill="none" xmlns="http://www.w3.org/2000/svg">
<g clip-path="url(#clip0_483_13626)">
<path d="M4.778 0C4.60118 0 4.43161 0.0702379 4.30659 0.195262C4.18157 0.320286 4.11133 0.489856 4.11133 0.666667V2C4.11133 2.53043 3.90061 3.03914 3.52554 3.41421C3.15047 3.78929 2.64176 4 2.11133 4H0.777995C0.601184 4 0.431615 4.07024 0.30659 4.19526C0.181566 4.32029 0.111328 4.48986 0.111328 4.66667C0.111328 4.84348 0.181566 5.01305 0.30659 5.13807C0.431615 5.2631 0.601184 5.33333 0.777995 5.33333H2.11133C2.99506 5.33227 3.84229 4.98075 4.46718 4.35585C5.09207 3.73096 5.4436 2.88373 5.44466 2V0.666667C5.44466 0.489856 5.37442 0.320286 5.2494 0.195262C5.12437 0.0702379 4.95481 0 4.778 0V0Z" fill="black"/>
<path d="M15.445 10.6666H14.1116C13.2279 10.6677 12.3807 11.0192 11.7558 11.6441C11.1309 12.269 10.7794 13.1162 10.7783 14V15.3333C10.7783 15.5101 10.8486 15.6797 10.9736 15.8047C11.0986 15.9297 11.2682 15.9999 11.445 15.9999C11.6218 15.9999 11.7914 15.9297 11.9164 15.8047C12.0414 15.6797 12.1117 15.5101 12.1117 15.3333V14C12.1117 13.4695 12.3224 12.9608 12.6974 12.5857C13.0725 12.2107 13.5812 12 14.1116 12H15.445C15.6218 12 15.7914 11.9297 15.9164 11.8047C16.0414 11.6797 16.1116 11.5101 16.1116 11.3333C16.1116 11.1565 16.0414 10.9869 15.9164 10.8619C15.7914 10.7369 15.6218 10.6666 15.445 10.6666Z" fill="black"/>
<path d="M14.1116 5.33333H15.445C15.6218 5.33333 15.7914 5.2631 15.9164 5.13807C16.0414 5.01305 16.1116 4.84348 16.1116 4.66667C16.1116 4.48986 16.0414 4.32029 15.9164 4.19526C15.7914 4.07024 15.6218 4 15.445 4H14.1116C13.5812 4 13.0725 3.78929 12.6974 3.41421C12.3224 3.03914 12.1117 2.53043 12.1117 2V0.666667C12.1117 0.489856 12.0414 0.320286 11.9164 0.195262C11.7914 0.0702379 11.6218 0 11.445 0C11.2682 0 11.0986 0.0702379 10.9736 0.195262C10.8486 0.320286 10.7783 0.489856 10.7783 0.666667V2C10.7794 2.88373 11.1309 3.73096 11.7558 4.35585C12.3807 4.98075 13.2279 5.33227 14.1116 5.33333Z" fill="black"/>
<path d="M2.11133 10.6666H0.777995C0.601184 10.6666 0.431615 10.7368 0.30659 10.8618C0.181566 10.9869 0.111328 11.1564 0.111328 11.3332C0.111328 11.51 0.181566 11.6796 0.30659 11.8046C0.431615 11.9297 0.601184 11.9999 0.777995 11.9999H2.11133C2.64176 11.9999 3.15047 12.2106 3.52554 12.5857C3.90061 12.9608 4.11133 13.4695 4.11133 13.9999V15.3332C4.11133 15.51 4.18157 15.6796 4.30659 15.8046C4.43161 15.9297 4.60118 15.9999 4.778 15.9999C4.95481 15.9999 5.12437 15.9297 5.2494 15.8046C5.37442 15.6796 5.44466 15.51 5.44466 15.3332V13.9999C5.4436 13.1162 5.09207 12.2689 4.46718 11.644C3.84229 11.0192 2.99506 10.6676 2.11133 10.6666Z" fill="black"/>
</g>
<defs>
<clipPath id="clip0_483_13626">
<rect width="16" height="16" fill="white" transform="translate(0.111328)"/>
</clipPath>
</defs>
</svg>
