<svg width="17" height="16" viewBox="0 0 17 16" fill="none" xmlns="http://www.w3.org/2000/svg">
<g clip-path="url(#clip0_482_18014)">
<path d="M2.5558 4.66669V2.00002C2.5558 1.6464 2.69627 1.30726 2.94632 1.05721C3.19637 0.807163 3.53551 0.666687 3.88913 0.666687H6.5558C6.73261 0.666687 6.90218 0.736925 7.0272 0.861949C7.15223 0.986973 7.22246 1.15654 7.22246 1.33335C7.22246 1.51016 7.15223 1.67973 7.0272 1.80476C6.90218 1.92978 6.73261 2.00002 6.5558 2.00002H4.84846L8.7858 5.95069C8.7995 5.96449 8.81581 5.97543 8.83378 5.98287C8.85175 5.99031 8.87102 5.9941 8.89046 5.99402C8.90976 5.99417 8.9289 5.99048 8.94676 5.98315C8.96461 5.97582 8.98083 5.96501 8.99446 5.95135L13.5838 1.36202C13.7095 1.24058 13.8779 1.17339 14.0527 1.1749C14.2275 1.17642 14.3947 1.24654 14.5183 1.37014C14.6419 1.49375 14.7121 1.66095 14.7136 1.83575C14.7151 2.01055 14.6479 2.17895 14.5265 2.30469L9.93713 6.89402C9.80011 7.03204 9.63701 7.14142 9.45732 7.21582C9.27763 7.29021 9.08494 7.32813 8.89046 7.32735C8.69565 7.32782 8.50269 7.28958 8.32278 7.21484C8.14288 7.14011 7.97961 7.03038 7.84246 6.89202L3.88913 2.92602V4.66669C3.88913 4.8435 3.81889 5.01307 3.69387 5.13809C3.56884 5.26312 3.39927 5.33335 3.22246 5.33335C3.04565 5.33335 2.87608 5.26312 2.75106 5.13809C2.62603 5.01307 2.5558 4.8435 2.5558 4.66669ZM16.5558 13.4047L16.4991 14.2474C16.4893 14.7204 16.2942 15.1707 15.9556 15.5013C15.6171 15.8318 15.1623 16.0162 14.6891 16.0147C14.6598 16.0147 13.0078 15.8 13.0078 15.8C12.543 15.787 12.1008 15.5964 11.7723 15.2672C11.4437 14.9381 11.2539 14.4956 11.2418 14.0307L11.1385 13.1694C10.3145 12.849 9.43979 12.6788 8.5558 12.6667C7.67405 12.6711 6.80079 12.8393 5.98046 13.1627L5.8758 14.0294C5.86399 14.495 5.67383 14.9384 5.34458 15.2679C5.01533 15.5974 4.57212 15.7879 4.10646 15.8C4.10646 15.8 2.45446 16.0147 2.42513 16.0147C1.94407 16.0142 1.48288 15.8228 1.14279 15.4826C0.802692 15.1423 0.611483 14.6811 0.61113 14.2L0.555797 13.4507C0.551726 12.9831 0.641426 12.5194 0.819596 12.087C0.997765 11.6546 1.26079 11.2624 1.59313 10.9334C4.58713 7.94135 12.5265 7.94202 15.5178 10.9334C15.8457 11.2561 16.1063 11.6408 16.2845 12.065C16.4627 12.4892 16.5549 12.9446 16.5558 13.4047ZM15.2225 13.358C15.2085 12.7986 14.9753 12.2671 14.5731 11.878C11.9185 9.22135 4.8218 9.59202 2.53513 11.878C2.33194 12.0769 2.17022 12.3141 2.05933 12.576C1.94845 12.8378 1.8906 13.119 1.88913 13.4034L1.94313 14.1547C1.93525 14.2832 1.97743 14.4097 2.06083 14.5078C2.14423 14.6059 2.26237 14.6678 2.39046 14.6807C2.39046 14.6807 4.02913 14.4674 4.05713 14.4674C4.18468 14.467 4.3069 14.4162 4.3971 14.326C4.48729 14.2358 4.53811 14.1136 4.53846 13.986C4.53846 13.9594 4.6978 12.6194 4.6978 12.6194C4.71151 12.5049 4.75465 12.396 4.823 12.3033C4.89136 12.2105 4.98259 12.137 5.0878 12.09C6.16439 11.5977 7.33332 11.3398 8.51713 11.3334H8.55913C9.74893 11.3507 10.9232 11.6064 12.0125 12.0854C12.1201 12.1313 12.2137 12.2048 12.2839 12.2984C12.3541 12.392 12.3985 12.5025 12.4125 12.6187C12.4125 12.6187 12.5718 13.9587 12.5718 13.9854C12.5721 14.1129 12.623 14.2351 12.7132 14.3253C12.8034 14.4155 12.9256 14.4663 13.0531 14.4667C13.0825 14.4667 14.7198 14.68 14.7198 14.68C14.8409 14.6711 14.9541 14.6168 15.0369 14.5279C15.1196 14.439 15.1656 14.3221 15.1658 14.2007L15.2225 13.358Z" fill="black"/>
</g>
<defs>
<clipPath id="clip0_482_18014">
<rect width="16" height="16" fill="white" transform="translate(0.555664)"/>
</clipPath>
</defs>
</svg>
