<svg width="17" height="16" viewBox="0 0 17 16" fill="none" xmlns="http://www.w3.org/2000/svg">
<g clip-path="url(#clip0_483_13772)">
<path d="M11.3337 0H6.00033C5.1166 0.00105857 4.26936 0.352588 3.64447 0.97748C3.01958 1.60237 2.66805 2.4496 2.66699 3.33333V12.6667C2.66805 13.5504 3.01958 14.3976 3.64447 15.0225C4.26936 15.6474 5.1166 15.9989 6.00033 16H11.3337C12.2174 15.9989 13.0646 15.6474 13.6895 15.0225C14.3144 14.3976 14.6659 13.5504 14.667 12.6667V3.33333C14.6659 2.4496 14.3144 1.60237 13.6895 0.97748C13.0646 0.352588 12.2174 0.00105857 11.3337 0V0ZM13.3337 12.6667C13.3337 13.1971 13.1229 13.7058 12.7479 14.0809C12.3728 14.456 11.8641 14.6667 11.3337 14.6667H9.33366V14C9.33366 13.8232 9.26342 13.6536 9.1384 13.5286C9.01337 13.4036 8.8438 13.3333 8.66699 13.3333C8.49018 13.3333 8.32061 13.4036 8.19559 13.5286C8.07056 13.6536 8.00033 13.8232 8.00033 14V14.6667H6.00033C5.46989 14.6667 4.96118 14.456 4.58611 14.0809C4.21104 13.7058 4.00033 13.1971 4.00033 12.6667V3.33333C4.00033 2.8029 4.21104 2.29419 4.58611 1.91912C4.96118 1.54405 5.46989 1.33333 6.00033 1.33333H11.3337C11.8641 1.33333 12.3728 1.54405 12.7479 1.91912C13.1229 2.29419 13.3337 2.8029 13.3337 3.33333V12.6667ZM11.3337 10.6667C11.3337 10.8435 11.2634 11.013 11.1384 11.1381C11.0134 11.2631 10.8438 11.3333 10.667 11.3333H6.66699C6.49018 11.3333 6.32061 11.2631 6.19559 11.1381C6.07056 11.013 6.00033 10.8435 6.00033 10.6667C6.00033 10.4899 6.07056 10.3203 6.19559 10.1953C6.32061 10.0702 6.49018 10 6.66699 10H10.667C10.8438 10 11.0134 10.0702 11.1384 10.1953C11.2634 10.3203 11.3337 10.4899 11.3337 10.6667ZM7.33366 8.66667C7.51047 8.66667 7.68004 8.59643 7.80506 8.47141C7.93009 8.34638 8.00033 8.17681 8.00033 8V7.33333H9.33366V8C9.33366 8.17681 9.4039 8.34638 9.52892 8.47141C9.65395 8.59643 9.82351 8.66667 10.0003 8.66667C10.1771 8.66667 10.3467 8.59643 10.4717 8.47141C10.5968 8.34638 10.667 8.17681 10.667 8V5.33333C10.667 4.8029 10.4563 4.29419 10.0812 3.91912C9.70613 3.54405 9.19743 3.33333 8.66699 3.33333C8.13656 3.33333 7.62785 3.54405 7.25278 3.91912C6.87771 4.29419 6.66699 4.8029 6.66699 5.33333V8C6.66699 8.17681 6.73723 8.34638 6.86225 8.47141C6.98728 8.59643 7.15685 8.66667 7.33366 8.66667ZM8.66699 4.66667C8.8438 4.66667 9.01337 4.7369 9.1384 4.86193C9.26342 4.98695 9.33366 5.15652 9.33366 5.33333V6H8.00033V5.33333C8.00033 5.15652 8.07056 4.98695 8.19559 4.86193C8.32061 4.7369 8.49018 4.66667 8.66699 4.66667Z" fill="black"/>
</g>
<defs>
<clipPath id="clip0_483_13772">
<rect width="16" height="16" fill="white" transform="translate(0.666992)"/>
</clipPath>
</defs>
</svg>
