<svg width="16" height="16" viewBox="0 0 16 16" fill="none" xmlns="http://www.w3.org/2000/svg">
<path d="M14.103 2.18133L12.5803 0.608667C12.3933 0.416644 12.1699 0.263893 11.9231 0.159374C11.6762 0.0548549 11.411 0.000670954 11.143 0L7.99967 0C7.23154 0.000969683 6.48722 0.266727 5.89217 0.752479C5.29713 1.23823 4.88774 1.91428 4.73301 2.66667H4.66634C3.78261 2.66773 2.93538 3.01925 2.31049 3.64415C1.6856 4.26904 1.33407 5.11627 1.33301 6V12.6667C1.33407 13.5504 1.6856 14.3976 2.31049 15.0225C2.93538 15.6474 3.78261 15.9989 4.66634 16H8.66634C9.55007 15.9989 10.3973 15.6474 11.0222 15.0225C11.6471 14.3976 11.9986 13.5504 11.9997 12.6667V12.6C12.7521 12.4453 13.4281 12.0359 13.9139 11.4408C14.3996 10.8458 14.6654 10.1015 14.6663 9.33333V3.57333C14.6673 3.05361 14.4652 2.55408 14.103 2.18133ZM8.66634 14.6667H4.66634C4.13591 14.6667 3.6272 14.456 3.25213 14.0809C2.87705 13.7058 2.66634 13.1971 2.66634 12.6667V6C2.66634 5.46957 2.87705 4.96086 3.25213 4.58579C3.6272 4.21071 4.13591 4 4.66634 4V9.33333C4.6674 10.2171 5.01893 11.0643 5.64382 11.6892C6.26871 12.3141 7.11594 12.6656 7.99967 12.6667H10.6663C10.6663 13.1971 10.4556 13.7058 10.0806 14.0809C9.70548 14.456 9.19677 14.6667 8.66634 14.6667ZM11.333 11.3333H7.99967C7.46924 11.3333 6.96053 11.1226 6.58546 10.7475C6.21039 10.3725 5.99967 9.86377 5.99967 9.33333V3.33333C5.99967 2.8029 6.21039 2.29419 6.58546 1.91912C6.96053 1.54405 7.46924 1.33333 7.99967 1.33333H10.6663V2.66667C10.6663 3.02029 10.8068 3.35943 11.0569 3.60948C11.3069 3.85952 11.6461 4 11.9997 4H13.333V9.33333C13.333 9.86377 13.1223 10.3725 12.7472 10.7475C12.3721 11.1226 11.8634 11.3333 11.333 11.3333Z" fill="black"/>
</svg>
