<svg width="17" height="16" viewBox="0 0 17 16" fill="none" xmlns="http://www.w3.org/2000/svg">
<g clip-path="url(#clip0_483_13830)">
<path d="M11.2227 11.3333C10.76 11.3339 10.3079 11.472 9.92391 11.73C9.5399 11.9881 9.24128 12.3545 9.06599 12.7827C8.51441 12.628 7.93091 12.628 7.37932 12.7827C7.1665 12.2667 6.77547 11.8443 6.27742 11.5923C5.77937 11.3404 5.20742 11.2757 4.66566 11.4099C4.1239 11.5442 3.64836 11.8685 3.3256 12.3239C3.00284 12.7792 2.85432 13.3354 2.90707 13.891C2.95982 14.4467 3.21033 14.9649 3.61301 15.3514C4.01569 15.7379 4.54377 15.9669 5.10111 15.9969C5.65846 16.0268 6.20801 15.8556 6.64976 15.5144C7.0915 15.1732 7.39606 14.6848 7.50799 14.138C7.73759 14.0551 7.97871 14.0086 8.22266 14C8.46661 14.0085 8.70775 14.055 8.93732 14.138C9.02646 14.5702 9.23634 14.9683 9.54259 15.286C9.84885 15.6037 10.2389 15.8281 10.6676 15.933C11.0962 16.038 11.5458 16.0193 11.9642 15.879C12.3826 15.7387 12.7527 15.4827 13.0314 15.1406C13.3102 14.7985 13.4862 14.3843 13.5391 13.9462C13.592 13.5081 13.5195 13.064 13.3301 12.6654C13.1408 12.2668 12.8422 11.9301 12.4692 11.6943C12.0962 11.4585 11.664 11.3334 11.2227 11.3333ZM5.22266 14.6667C5.02488 14.6667 4.83154 14.608 4.66709 14.4981C4.50264 14.3883 4.37446 14.2321 4.29878 14.0494C4.22309 13.8666 4.20329 13.6656 4.24187 13.4716C4.28046 13.2776 4.3757 13.0994 4.51555 12.9596C4.6554 12.8197 4.83359 12.7245 5.02757 12.6859C5.22155 12.6473 5.42261 12.6671 5.60534 12.7428C5.78807 12.8185 5.94424 12.9466 6.05413 13.1111C6.16401 13.2755 6.22266 13.4689 6.22266 13.6667C6.22266 13.9319 6.1173 14.1862 5.92976 14.3738C5.74223 14.5613 5.48787 14.6667 5.22266 14.6667ZM11.2227 14.6667C11.0249 14.6667 10.8315 14.608 10.6671 14.4981C10.5026 14.3883 10.3745 14.2321 10.2988 14.0494C10.2231 13.8666 10.2033 13.6656 10.2419 13.4716C10.2805 13.2776 10.3757 13.0994 10.5155 12.9596C10.6554 12.8197 10.8336 12.7245 11.0276 12.6859C11.2215 12.6473 11.4226 12.6671 11.6053 12.7428C11.7881 12.8185 11.9442 12.9466 12.0541 13.1111C12.164 13.2755 12.2227 13.4689 12.2227 13.6667C12.2227 13.9319 12.1173 14.1862 11.9298 14.3738C11.7422 14.5613 11.4879 14.6667 11.2227 14.6667ZM13.5393 5.78333C13.362 0.408 10.4227 0.0173333 10.2927 0.004C10.2694 0.00133875 10.246 3.25467e-06 10.2227 0C9.64447 0.0229659 9.0852 0.212321 8.61199 0.545333C8.49795 0.6251 8.36215 0.667882 8.22299 0.667882C8.08383 0.667882 7.94802 0.6251 7.83399 0.545333C7.3605 0.212371 6.80104 0.0230267 6.22266 0C6.20038 0.000126802 6.17812 0.0014621 6.15599 0.004C6.02666 0.0173333 3.08932 0.408 2.90932 5.78333C2.01799 6.08133 0.222656 6.82867 0.222656 8C0.222656 10.46 4.35199 10.6667 8.22266 10.6667C12.0933 10.6667 16.2227 10.46 16.2227 8C16.2227 6.82867 14.4273 6.08133 13.5393 5.78333ZM6.25932 1.33667C6.55022 1.36801 6.82867 1.47159 7.06932 1.638C7.40777 1.87394 7.81042 2.00044 8.22299 2.00044C8.63556 2.00044 9.03821 1.87394 9.37666 1.638C9.61567 1.47272 9.89189 1.3692 10.1807 1.33667C10.4773 1.40733 12.12 1.97933 12.218 5.90867C10.9636 6.46964 9.59534 6.72923 8.22266 6.66667C6.85005 6.72919 5.48184 6.46984 4.22732 5.90933C4.32599 1.94667 5.99466 1.4 6.25932 1.33667ZM8.22266 9.33333C2.71266 9.33333 1.55599 8.608 1.54799 8.05467C2.07518 7.53651 2.73483 7.17347 3.45466 7.00533C4.93359 7.73682 6.57461 8.07915 8.22266 8C9.8707 8.07915 11.5117 7.73682 12.9907 7.00533C13.6937 7.18106 14.3446 7.52206 14.8893 8C14.8893 8.608 13.7327 9.33333 8.22266 9.33333Z" fill="black"/>
</g>
<defs>
<clipPath id="clip0_483_13830">
<rect width="16" height="16" fill="white" transform="translate(0.222656)"/>
</clipPath>
</defs>
</svg>
