<svg width="17" height="16" viewBox="0 0 17 16" fill="none" xmlns="http://www.w3.org/2000/svg">
<g clip-path="url(#clip0_482_18079)">
<path d="M7.3625 12.0813C7.54824 12.2672 7.76877 12.4146 8.01151 12.5152C8.25424 12.6158 8.51442 12.6676 8.77717 12.6676C9.03992 12.6676 9.3001 12.6158 9.54283 12.5152C9.78557 12.4146 10.0061 12.2672 10.1918 12.0813L12.3325 9.94067C12.4473 9.81373 12.5088 9.64752 12.5044 9.47644C12.5001 9.30536 12.43 9.14253 12.3089 9.02165C12.1878 8.90077 12.0248 8.8311 11.8537 8.82707C11.6826 8.82304 11.5165 8.88496 11.3898 9L9.43917 10.9513L9.44384 0.666667C9.44384 0.489856 9.3736 0.320286 9.24857 0.195262C9.12355 0.0702379 8.95398 0 8.77717 0V0C8.60036 0 8.43079 0.0702379 8.30576 0.195262C8.18074 0.320286 8.1105 0.489856 8.1105 0.666667L8.1045 10.9387L6.1645 9C6.03941 8.875 5.86978 8.8048 5.69293 8.80486C5.51609 8.80493 5.34651 8.87524 5.2215 9.00033C5.0965 9.12543 5.0263 9.29506 5.02637 9.4719C5.02643 9.64875 5.09674 9.81833 5.22184 9.94333L7.3625 12.0813Z" fill="black"/>
<path d="M16.1107 10.6666C15.9339 10.6666 15.7643 10.7368 15.6393 10.8618C15.5142 10.9869 15.444 11.1564 15.444 11.3332V13.9999C15.444 14.1767 15.3738 14.3463 15.2487 14.4713C15.1237 14.5963 14.9542 14.6666 14.7773 14.6666H2.77734C2.60053 14.6666 2.43096 14.5963 2.30594 14.4713C2.18091 14.3463 2.11068 14.1767 2.11068 13.9999V11.3332C2.11068 11.1564 2.04044 10.9869 1.91542 10.8618C1.79039 10.7368 1.62082 10.6666 1.44401 10.6666C1.2672 10.6666 1.09763 10.7368 0.972606 10.8618C0.847582 10.9869 0.777344 11.1564 0.777344 11.3332L0.777344 13.9999C0.777344 14.5303 0.988057 15.039 1.36313 15.4141C1.7382 15.7892 2.24691 15.9999 2.77734 15.9999H14.7773C15.3078 15.9999 15.8165 15.7892 16.1916 15.4141C16.5666 15.039 16.7773 14.5303 16.7773 13.9999V11.3332C16.7773 11.1564 16.7071 10.9869 16.5821 10.8618C16.4571 10.7368 16.2875 10.6666 16.1107 10.6666Z" fill="black"/>
</g>
<defs>
<clipPath id="clip0_482_18079">
<rect width="16" height="16" fill="white" transform="translate(0.777344)"/>
</clipPath>
</defs>
</svg>
