<svg width="17" height="16" viewBox="0 0 17 16" fill="none" xmlns="http://www.w3.org/2000/svg">
<g clip-path="url(#clip0_483_13791)">
<path d="M13.111 0H3.77767C2.89361 0 2.04577 0.351189 1.42065 0.976311C0.795525 1.60143 0.444336 2.44928 0.444336 3.33333L0.444336 12.6667C0.444336 13.1044 0.530555 13.5379 0.698071 13.9423C0.865587 14.3467 1.11112 14.7142 1.42065 15.0237C2.04577 15.6488 2.89361 16 3.77767 16H13.111C13.5487 16 13.9822 15.9138 14.3866 15.7463C14.791 15.5788 15.1585 15.3332 15.468 15.0237C15.7776 14.7142 16.0231 14.3467 16.1906 13.9423C16.3581 13.5379 16.4443 13.1044 16.4443 12.6667V3.33333C16.4443 2.89559 16.3581 2.46214 16.1906 2.05772C16.0231 1.6533 15.7776 1.28584 15.468 0.976311C15.1585 0.666782 14.791 0.421251 14.3866 0.253735C13.9822 0.0862192 13.5487 0 13.111 0V0ZM15.111 12.6667C15.111 13.1971 14.9003 13.7058 14.5252 14.0809C14.1501 14.456 13.6414 14.6667 13.111 14.6667H3.77767C3.24724 14.6667 2.73853 14.456 2.36346 14.0809C1.98838 13.7058 1.77767 13.1971 1.77767 12.6667V3.33333C1.77767 2.8029 1.98838 2.29419 2.36346 1.91912C2.73853 1.54405 3.24724 1.33333 3.77767 1.33333H13.111C13.6414 1.33333 14.1501 1.54405 14.5252 1.91912C14.9003 2.29419 15.111 2.8029 15.111 3.33333V12.6667Z" fill="black"/>
</g>
<defs>
<clipPath id="clip0_483_13791">
<rect width="16" height="16" fill="white" transform="translate(0.444336)"/>
</clipPath>
</defs>
</svg>
