<svg width="17" height="16" viewBox="0 0 17 16" fill="none" xmlns="http://www.w3.org/2000/svg">
<g clip-path="url(#clip0_483_13826)">
<path d="M15.3647 2.718C15.1771 2.49296 14.9424 2.31197 14.677 2.18788C14.4117 2.06379 14.1223 1.99964 13.8293 2H3.05066L3.02266 1.766C2.96536 1.27961 2.73158 0.831155 2.36565 0.505652C1.99972 0.180149 1.52707 0.000227862 1.03732 0L0.889323 0C0.712512 0 0.542943 0.0702379 0.417918 0.195262C0.292894 0.320286 0.222656 0.489856 0.222656 0.666667C0.222656 0.843478 0.292894 1.01305 0.417918 1.13807C0.542943 1.2631 0.712512 1.33333 0.889323 1.33333H1.03732C1.20061 1.33335 1.35821 1.3933 1.48024 1.50181C1.60226 1.61032 1.68022 1.75983 1.69932 1.922L2.61666 9.722C2.71189 10.5332 3.10164 11.2812 3.71193 11.824C4.32222 12.3668 5.11056 12.6667 5.92732 12.6667H12.8893C13.0661 12.6667 13.2357 12.5964 13.3607 12.4714C13.4858 12.3464 13.556 12.1768 13.556 12C13.556 11.8232 13.4858 11.6536 13.3607 11.5286C13.2357 11.4036 13.0661 11.3333 12.8893 11.3333H5.92732C5.51469 11.3322 5.11252 11.2034 4.77595 10.9647C4.43937 10.726 4.18486 10.389 4.04732 10H11.994C12.7755 10 13.5322 9.72549 14.1319 9.22429C14.7315 8.7231 15.136 8.02713 15.2747 7.258L15.798 4.35533C15.8502 4.06734 15.8385 3.77138 15.7636 3.48843C15.6887 3.20547 15.5525 2.94245 15.3647 2.718ZM14.4893 4.11867L13.9653 7.02133C13.8821 7.48333 13.639 7.90133 13.2786 8.20213C12.9182 8.50294 12.4634 8.66738 11.994 8.66667H3.83532L3.20799 3.33333H13.8293C13.9273 3.33275 14.0241 3.35375 14.113 3.39484C14.2019 3.43593 14.2807 3.4961 14.3437 3.57107C14.4067 3.64605 14.4524 3.73398 14.4776 3.82862C14.5027 3.92327 14.5068 4.0223 14.4893 4.11867Z" fill="black"/>
<path d="M4.88899 16.0004C5.62537 16.0004 6.22233 15.4034 6.22233 14.6671C6.22233 13.9307 5.62537 13.3337 4.88899 13.3337C4.15262 13.3337 3.55566 13.9307 3.55566 14.6671C3.55566 15.4034 4.15262 16.0004 4.88899 16.0004Z" fill="black"/>
<path d="M11.556 16.0004C12.2924 16.0004 12.8893 15.4035 12.8893 14.6671C12.8893 13.9307 12.2924 13.3338 11.556 13.3338C10.8196 13.3338 10.2227 13.9307 10.2227 14.6671C10.2227 15.4035 10.8196 16.0004 11.556 16.0004Z" fill="black"/>
</g>
<defs>
<clipPath id="clip0_483_13826">
<rect width="16" height="16" fill="white" transform="translate(0.222656)"/>
</clipPath>
</defs>
</svg>
