<svg width="17" height="16" viewBox="0 0 17 16" fill="none" xmlns="http://www.w3.org/2000/svg">
<g clip-path="url(#clip0_482_18102)">
<path d="M15.733 3.04397C15.4894 2.94249 15.2211 2.91582 14.9623 2.96735C14.7035 3.01887 14.4658 3.14627 14.2797 3.3333L12.5557 5.0573L9.49833 1.99997C9.24829 1.75001 8.90922 1.60959 8.55566 1.60959C8.20211 1.60959 7.86303 1.75001 7.613 1.99997L4.55566 5.0573L2.83166 3.3333C2.6452 3.14689 2.40764 3.01995 2.14904 2.96853C1.89044 2.9171 1.62239 2.94351 1.37879 3.0444C1.13519 3.14529 0.926974 3.31615 0.780462 3.53536C0.63395 3.75457 0.55572 4.0123 0.555664 4.27597V11.3333C0.556723 12.217 0.908252 13.0643 1.53314 13.6892C2.15804 14.3141 3.00527 14.6656 3.889 14.6666H13.2223C14.1061 14.6656 14.9533 14.3141 15.5782 13.6892C16.2031 13.0643 16.5546 12.217 16.5557 11.3333V4.27597C16.5557 4.01228 16.4776 3.7545 16.3312 3.5352C16.1847 3.31591 15.9766 3.14496 15.733 3.04397ZM15.2223 11.3333C15.2223 11.8637 15.0116 12.3724 14.6365 12.7475C14.2615 13.1226 13.7528 13.3333 13.2223 13.3333H3.889C3.35856 13.3333 2.84986 13.1226 2.47478 12.7475C2.09971 12.3724 1.889 11.8637 1.889 11.3333V4.27597L4.08433 6.4713C4.20935 6.59628 4.37889 6.6665 4.55566 6.6665C4.73244 6.6665 4.90198 6.59628 5.027 6.4713L8.55566 2.94264L12.0843 6.4713C12.2093 6.59628 12.3789 6.6665 12.5557 6.6665C12.7324 6.6665 12.902 6.59628 13.027 6.4713L15.2223 4.27597V11.3333Z" fill="black"/>
</g>
<defs>
<clipPath id="clip0_482_18102">
<rect width="16" height="16" fill="white" transform="translate(0.555664)"/>
</clipPath>
</defs>
</svg>
