<svg width="16" height="16" viewBox="0 0 16 16" fill="none" xmlns="http://www.w3.org/2000/svg">
<g clip-path="url(#clip0_483_13677)">
<path d="M15.3332 7.33333C15.51 7.33333 15.6796 7.2631 15.8046 7.13807C15.9296 7.01305 15.9998 6.84348 15.9998 6.66667C15.9998 6.48986 15.9296 6.32029 15.8046 6.19526C15.6796 6.07024 15.51 6 15.3332 6H14.3998L13.8865 4.346C13.6991 3.7364 13.3395 3.19393 12.851 2.78388C12.3626 2.37383 11.766 2.11366 11.1332 2.03467C10.8802 1.43277 10.4555 0.918761 9.91213 0.556883C9.36872 0.195005 8.73071 0.00130781 8.07784 0L7.92184 0C7.26896 0.00130781 6.63095 0.195005 6.08754 0.556883C5.54413 0.918761 5.11942 1.43277 4.8665 2.03467C4.23397 2.11385 3.63776 2.37403 3.14956 2.78394C2.66136 3.19385 2.30194 3.73604 2.1145 4.34533L1.59983 6H0.666501C0.48969 6 0.320121 6.07024 0.195097 6.19526C0.0700723 6.32029 -0.000165635 6.48986 -0.000165635 6.66667C-0.000165635 6.84348 0.0700723 7.01305 0.195097 7.13807C0.320121 7.2631 0.48969 7.33333 0.666501 7.33333H1.18717L0.710501 8.86667C0.438148 9.15788 0.235333 9.50704 0.117296 9.88789C-0.000740876 10.2687 -0.0309309 10.6714 0.0289944 11.0656C0.0889197 11.4598 0.237402 11.8353 0.463285 12.1639C0.689168 12.4924 0.986578 12.7655 1.33317 12.9627V14C1.33317 14.5304 1.54388 15.0391 1.91895 15.4142C2.29403 15.7893 2.80274 16 3.33317 16C3.8636 16 4.37231 15.7893 4.74738 15.4142C5.12245 15.0391 5.33317 14.5304 5.33317 14V13.3333H10.6665V14C10.6665 14.5304 10.8772 15.0391 11.2523 15.4142C11.6274 15.7893 12.1361 16 12.6665 16C13.1969 16 13.7056 15.7893 14.0807 15.4142C14.4558 15.0391 14.6665 14.5304 14.6665 14V12.9627C15.0129 12.7655 15.3101 12.4924 15.5358 12.164C15.7615 11.8355 15.9099 11.4602 15.9698 11.0662C16.0298 10.6722 15.9996 10.2697 15.8818 9.88898C15.7639 9.50827 15.5613 9.15921 15.2892 8.868L14.8125 7.33333H15.3332ZM7.92184 1.33333H8.07784C8.35816 1.3339 8.63521 1.39357 8.89092 1.50844C9.14662 1.62331 9.37523 1.79081 9.56184 2H6.43783C6.62435 1.79071 6.85295 1.62314 7.10867 1.50826C7.3644 1.39338 7.64149 1.33377 7.92184 1.33333ZM3.3885 4.74C3.51378 4.33175 3.76702 3.9746 4.11083 3.72131C4.45464 3.46801 4.8708 3.33199 5.29783 3.33333H10.7018C11.1291 3.33189 11.5454 3.46794 11.8894 3.72138C12.2333 3.97481 12.4866 4.33218 12.6118 4.74067L13.6332 8.03C13.5338 8.01427 13.4337 8.00425 13.3332 8H2.6665C2.56601 8.00425 2.46584 8.01427 2.3665 8.03L3.3885 4.74ZM3.99984 14C3.99984 14.1768 3.9296 14.3464 3.80457 14.4714C3.67955 14.5964 3.50998 14.6667 3.33317 14.6667C3.15636 14.6667 2.98679 14.5964 2.86176 14.4714C2.73674 14.3464 2.6665 14.1768 2.6665 14V13.3333H3.99984V14ZM13.3332 14C13.3332 14.1768 13.2629 14.3464 13.1379 14.4714C13.0129 14.5964 12.8433 14.6667 12.6665 14.6667C12.4897 14.6667 12.3201 14.5964 12.1951 14.4714C12.0701 14.3464 11.9998 14.1768 11.9998 14V13.3333H13.3332V14ZM13.3332 12H2.6665C2.31288 12 1.97374 11.8595 1.72369 11.6095C1.47364 11.3594 1.33317 11.0203 1.33317 10.6667C1.33317 10.313 1.47364 9.97391 1.72369 9.72386C1.97374 9.47381 2.31288 9.33333 2.6665 9.33333V10C2.6665 10.1768 2.73674 10.3464 2.86176 10.4714C2.98679 10.5964 3.15636 10.6667 3.33317 10.6667C3.50998 10.6667 3.67955 10.5964 3.80457 10.4714C3.9296 10.3464 3.99984 10.1768 3.99984 10V9.33333H11.9998V10C11.9998 10.1768 12.0701 10.3464 12.1951 10.4714C12.3201 10.5964 12.4897 10.6667 12.6665 10.6667C12.8433 10.6667 13.0129 10.5964 13.1379 10.4714C13.2629 10.3464 13.3332 10.1768 13.3332 10V9.33333C13.6868 9.33333 14.0259 9.47381 14.276 9.72386C14.526 9.97391 14.6665 10.313 14.6665 10.6667C14.6665 11.0203 14.526 11.3594 14.276 11.6095C14.0259 11.8595 13.6868 12 13.3332 12Z" fill="black"/>
</g>
<defs>
<clipPath id="clip0_483_13677">
<rect width="16" height="16" fill="white"/>
</clipPath>
</defs>
</svg>
