<svg width="17" height="16" viewBox="0 0 17 16" fill="none" xmlns="http://www.w3.org/2000/svg">
<g clip-path="url(#clip0_483_13730)">
<path d="M12.778 3.33374H3.44466C2.56061 3.33374 1.71276 3.68493 1.08764 4.31005C0.462518 4.93517 0.111328 5.78302 0.111328 6.66707L0.111328 9.33374C0.111328 10.2178 0.462518 11.0656 1.08764 11.6908C1.71276 12.3159 2.56061 12.6671 3.44466 12.6671H12.778C13.2157 12.6671 13.6492 12.5809 14.0536 12.4133C14.458 12.2458 14.8255 12.0003 15.135 11.6908C15.4445 11.3812 15.6901 11.0138 15.8576 10.6094C16.0251 10.2049 16.1113 9.77148 16.1113 9.33374V6.66707C16.1113 6.22933 16.0251 5.79588 15.8576 5.39146C15.6901 4.98704 15.4445 4.61958 15.135 4.31005C14.8255 4.00052 14.458 3.75499 14.0536 3.58748C13.6492 3.41996 13.2157 3.33374 12.778 3.33374ZM14.778 9.33374C14.778 9.86417 14.5673 10.3729 14.1922 10.748C13.8171 11.123 13.3084 11.3337 12.778 11.3337H3.44466C2.91423 11.3337 2.40552 11.123 2.03045 10.748C1.65538 10.3729 1.44466 9.86417 1.44466 9.33374V6.66707C1.44466 6.13664 1.65538 5.62793 2.03045 5.25286C2.40552 4.87779 2.91423 4.66707 3.44466 4.66707H12.778C13.3084 4.66707 13.8171 4.87779 14.1922 5.25286C14.5673 5.62793 14.778 6.13664 14.778 6.66707V9.33374Z" fill="black"/>
</g>
<defs>
<clipPath id="clip0_483_13730">
<rect width="16" height="16" fill="white" transform="translate(0.111328)"/>
</clipPath>
</defs>
</svg>
