<svg width="16" height="16" viewBox="0 0 16 16" fill="none" xmlns="http://www.w3.org/2000/svg">
<path d="M14.805 3.3528C14.2075 2.35696 13.1452 1.69305 11.9502 1.69305H3.98341C2.78837 1.69305 1.72616 2.35696 1.12863 3.3528C0.398344 4.68062 0 6.14121 0 7.66818C0 11.3196 1.46059 14.3072 3.3195 14.3072C4.31534 14.3072 5.11203 13.3777 5.70953 11.4524C5.77591 11.1868 6.04147 10.9877 6.37344 10.9877H9.62656C9.89212 10.9877 10.1577 11.1868 10.2905 11.4524C10.888 13.3777 11.6847 14.3072 12.6805 14.3072C14.5394 14.3072 16 11.3196 16 7.66818C15.9336 6.14121 15.5353 4.68062 14.805 3.3528ZM12.6141 12.9794C12.4149 12.9794 11.9502 12.4482 11.4855 11.0541C11.2199 10.191 10.4232 9.65987 9.56016 9.65987H6.37344C5.51038 9.65987 4.71369 10.2574 4.44812 11.0541C3.98341 12.4482 3.51866 12.9794 3.3195 12.9794C2.65559 12.9794 1.32781 10.9213 1.32781 7.66818C1.32781 6.40677 1.65975 5.14537 2.25728 4.01674C2.65563 3.41924 3.31953 3.0209 3.98344 3.0209H11.9502C12.6142 3.0209 13.2781 3.41924 13.6764 4.01674C14.2739 5.14537 14.6059 6.40677 14.6059 7.66818C14.6058 10.9213 13.278 12.9794 12.6141 12.9794Z" fill="black"/>
<path d="M5.9993 6.00006H5.33264V5.3334C5.33264 4.9334 5.06599 4.66675 4.66599 4.66675C4.26599 4.66675 3.99933 4.9334 3.99933 5.3334V6.00006H3.33267C2.93267 6.00006 2.66602 6.26671 2.66602 6.66671C2.66602 7.06671 2.93267 7.33337 3.33267 7.33337H3.9993V8.00005C3.9993 8.40005 4.26595 8.66671 4.66596 8.66671C5.06596 8.66671 5.33261 8.40005 5.33261 8.00005V7.3334H5.9993C6.3993 7.3334 6.66596 7.06674 6.66596 6.66674C6.66596 6.26671 6.3993 6.00006 5.9993 6.00006Z" fill="black"/>
<path d="M12.334 6.66663C12.8863 6.66663 13.334 6.21891 13.334 5.66663C13.334 5.11434 12.8863 4.66663 12.334 4.66663C11.7817 4.66663 11.334 5.11434 11.334 5.66663C11.334 6.21891 11.7817 6.66663 12.334 6.66663Z" fill="black"/>
<path d="M10.334 8.66664C10.8863 8.66664 11.334 8.21892 11.334 7.66663C11.334 7.11434 10.8863 6.66663 10.334 6.66663C9.7817 6.66663 9.33398 7.11434 9.33398 7.66663C9.33398 8.21892 9.7817 8.66664 10.334 8.66664Z" fill="black"/>
</svg>
