<svg width="16" height="16" viewBox="0 0 16 16" fill="none" xmlns="http://www.w3.org/2000/svg">
<path d="M8.00032 2.66667C8.7367 2.66667 9.33365 2.06971 9.33365 1.33333C9.33365 0.596954 8.7367 0 8.00032 0C7.26394 0 6.66699 0.596954 6.66699 1.33333C6.66699 2.06971 7.26394 2.66667 8.00032 2.66667Z" fill="black"/>
<path d="M8.00032 9.33365C8.7367 9.33365 9.33365 8.7367 9.33365 8.00032C9.33365 7.26394 8.7367 6.66699 8.00032 6.66699C7.26394 6.66699 6.66699 7.26394 6.66699 8.00032C6.66699 8.7367 7.26394 9.33365 8.00032 9.33365Z" fill="black"/>
<path d="M8.00032 15.9999C8.7367 15.9999 9.33365 15.403 9.33365 14.6666C9.33365 13.9302 8.7367 13.3333 8.00032 13.3333C7.26394 13.3333 6.66699 13.9302 6.66699 14.6666C6.66699 15.403 7.26394 15.9999 8.00032 15.9999Z" fill="black"/>
</svg>
