<svg width="16" height="16" viewBox="0 0 16 16" fill="none" xmlns="http://www.w3.org/2000/svg">
<g clip-path="url(#clip0_482_18001)">
<path d="M8 0C6.41775 0 4.87104 0.469192 3.55544 1.34824C2.23985 2.22729 1.21447 3.47672 0.608967 4.93853C0.00346629 6.40034 -0.15496 8.00887 0.153721 9.56072C0.462403 11.1126 1.22433 12.538 2.34315 13.6569C3.46197 14.7757 4.88743 15.5376 6.43928 15.8463C7.99113 16.155 9.59966 15.9965 11.0615 15.391C12.5233 14.7855 13.7727 13.7602 14.6518 12.4446C15.5308 11.129 16 9.58225 16 8C15.9977 5.87897 15.1541 3.84547 13.6543 2.34568C12.1545 0.845886 10.121 0.00229405 8 0V0ZM14.382 6.08L8.44334 7.23467C8.34987 7.09041 8.26785 6.93906 8.198 6.782L5.97134 1.64867C6.81429 1.37848 7.70267 1.2791 8.58449 1.35634C9.46631 1.43358 10.3239 1.68589 11.107 2.09851C11.8902 2.51113 12.5832 3.07577 13.1455 3.75941C13.7078 4.44305 14.1282 5.23197 14.382 6.08ZM8 14.6667C6.52475 14.6672 5.09102 14.1782 3.92362 13.2762C2.75621 12.3742 1.92114 11.1104 1.54932 9.68273C1.1775 8.2551 1.28997 6.74444 1.86909 5.3876C2.44821 4.03077 3.46124 2.90448 4.74934 2.18533L6.97467 7.31267C7.29131 8.04145 7.78853 8.67748 8.41934 9.16067L12.8547 12.5553C12.2334 13.2212 11.4818 13.7522 10.6467 14.1154C9.81158 14.4786 8.9107 14.6662 8 14.6667ZM13.6667 11.4967L9.58334 8.37133L14.6373 7.38933C14.6553 7.58933 14.668 7.794 14.668 8C14.6674 9.23621 14.3205 10.4475 13.6667 11.4967Z" fill="black"/>
</g>
<defs>
<clipPath id="clip0_482_18001">
<rect width="16" height="16" fill="white"/>
</clipPath>
</defs>
</svg>
