<svg width="17" height="16" viewBox="0 0 17 16" fill="none" xmlns="http://www.w3.org/2000/svg">
<g clip-path="url(#clip0_483_13652)">
<path d="M12.778 16H12.1113C11.9345 16 11.7649 15.9298 11.6399 15.8047C11.5149 15.6797 11.4447 15.5101 11.4447 15.3333C11.4447 15.1565 11.5149 14.987 11.6399 14.8619C11.7649 14.7369 11.9345 14.6667 12.1113 14.6667H12.778C13.3084 14.6667 13.8171 14.456 14.1922 14.0809C14.5673 13.7058 14.778 13.1971 14.778 12.6667V12C14.778 11.8232 14.8482 11.6536 14.9733 11.5286C15.0983 11.4036 15.2679 11.3333 15.4447 11.3333C15.6215 11.3333 15.791 11.4036 15.9161 11.5286C16.0411 11.6536 16.1113 11.8232 16.1113 12V12.6667C16.1103 13.5504 15.7587 14.3976 15.1338 15.0225C14.509 15.6474 13.6617 15.9989 12.778 16ZM16.1113 4V3.33333C16.1103 2.4496 15.7587 1.60237 15.1338 0.97748C14.509 0.352588 13.6617 0.00105857 12.778 0L12.1113 0C11.9345 0 11.7649 0.0702379 11.6399 0.195262C11.5149 0.320286 11.4447 0.489856 11.4447 0.666667C11.4447 0.843478 11.5149 1.01305 11.6399 1.13807C11.7649 1.2631 11.9345 1.33333 12.1113 1.33333H12.778C13.3084 1.33333 13.8171 1.54405 14.1922 1.91912C14.5673 2.29419 14.778 2.8029 14.778 3.33333V4C14.778 4.17681 14.8482 4.34638 14.9733 4.4714C15.0983 4.59643 15.2679 4.66667 15.4447 4.66667C15.6215 4.66667 15.791 4.59643 15.9161 4.4714C16.0411 4.34638 16.1113 4.17681 16.1113 4ZM4.778 15.3333C4.778 15.1565 4.70776 14.987 4.58273 14.8619C4.45771 14.7369 4.28814 14.6667 4.11133 14.6667H3.44466C2.91423 14.6667 2.40552 14.456 2.03045 14.0809C1.65538 13.7058 1.44466 13.1971 1.44466 12.6667V12C1.44466 11.8232 1.37442 11.6536 1.2494 11.5286C1.12438 11.4036 0.954806 11.3333 0.777995 11.3333C0.601184 11.3333 0.431615 11.4036 0.30659 11.5286C0.181566 11.6536 0.111328 11.8232 0.111328 12L0.111328 12.6667C0.112387 13.5504 0.463916 14.3976 1.08881 15.0225C1.7137 15.6474 2.56093 15.9989 3.44466 16H4.11133C4.28814 16 4.45771 15.9298 4.58273 15.8047C4.70776 15.6797 4.778 15.5101 4.778 15.3333ZM1.44466 4V3.33333C1.44466 2.8029 1.65538 2.29419 2.03045 1.91912C2.40552 1.54405 2.91423 1.33333 3.44466 1.33333H4.11133C4.28814 1.33333 4.45771 1.2631 4.58273 1.13807C4.70776 1.01305 4.778 0.843478 4.778 0.666667C4.778 0.489856 4.70776 0.320286 4.58273 0.195262C4.45771 0.0702379 4.28814 0 4.11133 0L3.44466 0C2.56093 0.00105857 1.7137 0.352588 1.08881 0.97748C0.463916 1.60237 0.112387 2.4496 0.111328 3.33333L0.111328 4C0.111328 4.17681 0.181566 4.34638 0.30659 4.4714C0.431615 4.59643 0.601184 4.66667 0.777995 4.66667C0.954806 4.66667 1.12438 4.59643 1.2494 4.4714C1.37442 4.34638 1.44466 4.17681 1.44466 4ZM10.778 8C10.778 7.47258 10.6216 6.95701 10.3286 6.51848C10.0356 6.07995 9.61909 5.73815 9.13182 5.53632C8.64455 5.33449 8.10837 5.28168 7.59109 5.38457C7.0738 5.48747 6.59865 5.74144 6.22571 6.11438C5.85277 6.48732 5.59879 6.96248 5.4959 7.47976C5.39301 7.99704 5.44582 8.53322 5.64765 9.02049C5.84948 9.50776 6.19128 9.92424 6.62981 10.2173C7.06834 10.5103 7.58391 10.6667 8.11133 10.6667C8.81857 10.6667 9.49685 10.3857 9.99695 9.88562C10.497 9.38552 10.778 8.70724 10.778 8ZM9.44466 8C9.44466 8.26371 9.36646 8.52149 9.21995 8.74076C9.07345 8.96003 8.86521 9.13092 8.62157 9.23184C8.37794 9.33276 8.10985 9.35916 7.85121 9.30771C7.59257 9.25627 7.35499 9.12928 7.16852 8.94281C6.98205 8.75634 6.85506 8.51876 6.80361 8.26012C6.75217 8.00148 6.77857 7.73339 6.87949 7.48976C6.98041 7.24612 7.1513 7.03788 7.37057 6.89137C7.58983 6.74487 7.84762 6.66667 8.11133 6.66667C8.46495 6.66667 8.80409 6.80714 9.05414 7.05719C9.30419 7.30724 9.44466 7.64638 9.44466 8Z" fill="black"/>
</g>
<defs>
<clipPath id="clip0_483_13652">
<rect width="16" height="16" fill="white" transform="translate(0.111328)"/>
</clipPath>
</defs>
</svg>
