<svg width="17" height="16" viewBox="0 0 17 16" fill="none" xmlns="http://www.w3.org/2000/svg">
<g clip-path="url(#clip0_483_13628)">
<path d="M8.33301 0C6.75076 0 5.20404 0.469192 3.88845 1.34824C2.57286 2.22729 1.54748 3.47672 0.941975 4.93853C0.336474 6.40034 0.178047 8.00887 0.486729 9.56072C0.795411 11.1126 1.55734 12.538 2.67616 13.6569C3.79498 14.7757 5.22044 15.5376 6.77229 15.8463C8.32414 16.155 9.93267 15.9965 11.3945 15.391C12.8563 14.7855 14.1057 13.7602 14.9848 12.4446C15.8638 11.129 16.333 9.58225 16.333 8C16.3307 5.87897 15.4871 3.84547 13.9873 2.34568C12.4875 0.845886 10.454 0.00229405 8.33301 0V0ZM8.33301 14.6667C7.01447 14.6667 5.72554 14.2757 4.62921 13.5431C3.53288 12.8106 2.6784 11.7694 2.17381 10.5512C1.66923 9.33305 1.53721 7.99261 1.79444 6.6994C2.05168 5.40619 2.68662 4.21831 3.61897 3.28596C4.55132 2.35361 5.7392 1.71867 7.03241 1.46143C8.32562 1.2042 9.66606 1.33622 10.8842 1.8408C12.1024 2.34539 13.1436 3.19987 13.8761 4.2962C14.6087 5.39253 14.9997 6.68146 14.9997 8C14.9977 9.76752 14.2947 11.4621 13.0449 12.7119C11.7951 13.9617 10.1005 14.6647 8.33301 14.6667Z" fill="black"/>
<path d="M8.33265 4C8.15584 4 7.98627 4.07024 7.86124 4.19526C7.73622 4.32029 7.66598 4.48985 7.66598 4.66667V7.54999L5.41865 8.95799C5.26836 9.05188 5.16152 9.20162 5.12164 9.37428C5.08175 9.54694 5.11209 9.72837 5.20598 9.87866C5.29987 10.0289 5.44961 10.1358 5.62227 10.1757C5.79493 10.2155 5.97636 10.1852 6.12665 10.0913L8.68665 8.49133C8.78337 8.43072 8.86291 8.3463 8.91766 8.24615C8.97241 8.14599 9.00052 8.03346 8.99931 7.91933V4.66667C8.99931 4.48985 8.92907 4.32029 8.80405 4.19526C8.67903 4.07024 8.50946 4 8.33265 4Z" fill="black"/>
</g>
<defs>
<clipPath id="clip0_483_13628">
<rect width="16" height="16" fill="white" transform="translate(0.333008)"/>
</clipPath>
</defs>
</svg>
