<svg width="17" height="16" viewBox="0 0 17 16" fill="none" xmlns="http://www.w3.org/2000/svg">
<g clip-path="url(#clip0_482_18114)">
<path d="M16.2489 0.195557C16.1238 0.0705765 15.9543 0.000366211 15.7775 0.000366211C15.6008 0.000366211 15.4312 0.0705765 15.3062 0.195557L8.44419 7.05756L1.58219 0.195557C1.45718 0.0705765 1.28764 0.000366211 1.11086 0.000366211C0.934084 0.000366211 0.764545 0.0705765 0.639527 0.195557C0.514546 0.320576 0.444336 0.490114 0.444336 0.666891C0.444336 0.843667 0.514546 1.01321 0.639527 1.13822L7.50153 8.00022L0.639527 14.8622C0.514546 14.9872 0.444336 15.1568 0.444336 15.3336C0.444336 15.5103 0.514546 15.6799 0.639527 15.8049C0.764545 15.9299 0.934084 16.0001 1.11086 16.0001C1.28764 16.0001 1.45718 15.9299 1.58219 15.8049L8.44419 8.94289L15.3062 15.8049C15.4312 15.9299 15.6008 16.0001 15.7775 16.0001C15.9543 16.0001 16.1238 15.9299 16.2489 15.8049C16.3738 15.6799 16.4441 15.5103 16.4441 15.3336C16.4441 15.1568 16.3738 14.9872 16.2489 14.8622L9.38686 8.00022L16.2489 1.13822C16.3738 1.01321 16.4441 0.843667 16.4441 0.666891C16.4441 0.490114 16.3738 0.320576 16.2489 0.195557Z" fill="black"/>
</g>
<defs>
<clipPath id="clip0_482_18114">
<rect width="16" height="16" fill="white" transform="translate(0.444336)"/>
</clipPath>
</defs>
</svg>
