<svg width="16" height="16" viewBox="0 0 16 16" fill="none" xmlns="http://www.w3.org/2000/svg">
<g clip-path="url(#clip0_483_13610)">
<path d="M4.86162 1.39399L3.59962 2.65665L1.13762 0.19532C1.01189 0.0738812 0.843484 0.00668497 0.668686 0.00820391C0.493888 0.00972286 0.32668 0.0798355 0.203075 0.203441C0.0794693 0.327046 0.00935665 0.494255 0.0078377 0.669052C0.00631876 0.84385 0.073515 1.01225 0.194954 1.13799L2.65629 3.59999L1.39362 4.86199C1.30033 4.9553 1.23684 5.0742 1.21117 5.20363C1.1855 5.33305 1.19881 5.46719 1.24942 5.58904C1.30003 5.71089 1.38567 5.81499 1.49548 5.88814C1.60529 5.9613 1.73434 6.00022 1.86629 5.99999H5.04229C5.29619 5.99999 5.53969 5.89913 5.71922 5.71959C5.89876 5.54006 5.99962 5.29655 5.99962 5.04265V1.86665C5.99986 1.73471 5.96093 1.60566 5.88778 1.49585C5.81462 1.38603 5.71053 1.3004 5.58867 1.24979C5.46682 1.19918 5.33269 1.18586 5.20326 1.21153C5.07383 1.2372 4.95494 1.3007 4.86162 1.39399Z" fill="black"/>
<path d="M13.3433 12.4L14.606 11.1373C14.6991 11.044 14.7624 10.9251 14.7879 10.7958C14.8134 10.6665 14.8001 10.5325 14.7495 10.4108C14.6989 10.2891 14.6134 10.1851 14.5037 10.112C14.394 10.0389 14.2651 9.9999 14.1333 10H10.9573C10.7034 10 10.4599 10.1009 10.2804 10.2804C10.1009 10.4599 10 10.7034 10 10.9573V14.1333C9.9999 14.2652 10.0389 14.3942 10.1121 14.5039C10.1853 14.6136 10.2894 14.6991 10.4113 14.7497C10.5331 14.8002 10.6672 14.8134 10.7965 14.7878C10.9259 14.7621 11.0447 14.6986 11.138 14.6053L12.4 13.3433L14.8613 15.8047C14.9871 15.9261 15.1555 15.9933 15.3303 15.9918C15.5051 15.9903 15.6723 15.9202 15.7959 15.7965C15.9195 15.6729 15.9896 15.5057 15.9911 15.3309C15.9926 15.1561 15.9254 14.9877 15.804 14.862L13.3433 12.4Z" fill="black"/>
<path d="M10.9573 5.99998H14.1333C14.2652 6.00009 14.3942 5.96107 14.5039 5.88786C14.6136 5.81466 14.6991 5.71056 14.7496 5.58873C14.8002 5.4669 14.8134 5.33282 14.7877 5.20346C14.7621 5.0741 14.6986 4.95526 14.6053 4.86199L13.3433 3.59998L15.8047 1.13865C15.9297 1.01365 16.0001 0.844067 16.0001 0.667221C16.0002 0.490374 15.93 0.320745 15.805 0.195652C15.68 0.0705577 15.5104 0.000245661 15.3336 0.000183147C15.1567 0.000120634 14.9871 0.0703128 14.862 0.195318L12.4 2.65665L11.138 1.39399C11.0447 1.3007 10.9258 1.2372 10.7964 1.21153C10.6669 1.18586 10.5328 1.19918 10.4109 1.24979C10.2891 1.3004 10.185 1.38603 10.1118 1.49584C10.0387 1.60565 9.99977 1.7347 10 1.86665V5.04265C10 5.29655 10.1009 5.54005 10.2804 5.71959C10.4599 5.89912 10.7034 5.99998 10.9573 5.99998Z" fill="black"/>
<path d="M5.04305 10H1.86705C1.73516 9.9999 1.6062 10.0389 1.49649 10.1121C1.38678 10.1853 1.30125 10.2894 1.25072 10.4113C1.20019 10.5331 1.18693 10.6672 1.21262 10.7965C1.23832 10.9259 1.3018 11.0447 1.39505 11.138L2.65705 12.4L0.195713 14.862C0.13204 14.9235 0.0812514 14.997 0.046312 15.0784C0.0113727 15.1597 -0.00701812 15.2472 -0.00778733 15.3357C-0.00855654 15.4242 0.00831127 15.512 0.0418319 15.594C0.0753524 15.6759 0.124855 15.7503 0.18745 15.8129C0.250045 15.8755 0.324479 15.925 0.40641 15.9585C0.488341 15.992 0.576128 16.0089 0.664647 16.0081C0.753167 16.0074 0.840647 15.989 0.921983 15.954C1.00332 15.9191 1.07688 15.8683 1.13838 15.8046L3.60038 13.3433L4.86305 14.606C4.9564 14.699 5.07524 14.7623 5.20455 14.7879C5.33386 14.8134 5.46784 14.8 5.58956 14.7495C5.71128 14.6989 5.81527 14.6133 5.88839 14.5037C5.96151 14.394 6.00048 14.2651 6.00038 14.1333V10.9573C6.00038 10.7034 5.89952 10.4599 5.71998 10.2804C5.54045 10.1009 5.29695 10 5.04305 10Z" fill="black"/>
</g>
<defs>
<clipPath id="clip0_483_13610">
<rect width="16" height="16" fill="white"/>
</clipPath>
</defs>
</svg>
