<svg width="16" height="16" viewBox="0 0 16 16" fill="none" xmlns="http://www.w3.org/2000/svg">
<g clip-path="url(#clip0_482_18075)">
<path d="M14.3324 1.66671C13.2615 0.605652 11.8149 0.010376 10.3074 0.010376C8.79985 0.010376 7.35329 0.605652 6.28239 1.66671C4.69772 3.25138 4.17772 6.93937 4.00905 9.00004C3.96267 9.57903 4.09908 10.158 4.39905 10.6554L1.86572 13.1887C1.77165 13.0166 1.62906 12.876 1.4557 12.7844C1.28234 12.6927 1.08585 12.654 0.890681 12.6732C0.695512 12.6923 0.510279 12.7684 0.358026 12.892C0.205773 13.0156 0.09322 13.1812 0.0343707 13.3683C-0.0244785 13.5554 -0.0270268 13.7556 0.027043 13.9441C0.0811128 14.1326 0.189414 14.3011 0.338473 14.4285C0.487531 14.5559 0.670768 14.6367 0.865386 14.6608C1.06 14.6849 1.25741 14.6512 1.43305 14.564C1.34583 14.7397 1.31218 14.9371 1.33628 15.1317C1.36038 15.3263 1.44117 15.5095 1.5686 15.6586C1.69603 15.8077 1.86447 15.916 2.05298 15.97C2.24148 16.0241 2.44172 16.0216 2.62879 15.9627C2.81585 15.9039 2.98149 15.7913 3.10509 15.6391C3.22868 15.4868 3.30478 15.3016 3.32392 15.1064C3.34306 14.9112 3.3044 14.7147 3.21273 14.5414C3.12107 14.368 2.98046 14.2254 2.80839 14.1314L5.34172 11.598C5.83827 11.901 6.41791 12.0391 6.99772 11.9927C9.05505 11.824 12.7424 11.3047 14.3311 9.71937C15.3933 8.64862 15.9894 7.20156 15.9897 5.69331C15.9899 4.18507 15.3942 2.73781 14.3324 1.66671ZM13.3891 8.7747C12.4644 9.69803 10.0364 10.404 6.89305 10.662C6.68416 10.6801 6.47384 10.6523 6.27684 10.5805C6.07984 10.5087 5.90094 10.3947 5.75268 10.2464C5.60442 10.0981 5.49039 9.91924 5.41859 9.72225C5.34679 9.52525 5.31896 9.31493 5.33705 9.10604C5.59505 5.96271 6.30105 3.53338 7.22439 2.61004C7.62756 2.19804 8.10844 1.87009 8.6392 1.64518C9.16996 1.42026 9.74006 1.30284 10.3165 1.29972C10.8929 1.2966 11.4643 1.40783 11.9974 1.62699C12.5306 1.84614 13.015 2.16886 13.4226 2.57647C13.8302 2.98408 14.153 3.46849 14.3721 4.00165C14.5913 4.53482 14.7025 5.10615 14.6994 5.68259C14.6963 6.25903 14.5788 6.82913 14.3539 7.35989C14.129 7.89065 13.8011 8.37153 13.3891 8.7747Z" fill="black"/>
</g>
<defs>
<clipPath id="clip0_482_18075">
<rect width="16" height="16" fill="white"/>
</clipPath>
</defs>
</svg>
