<svg width="16" height="16" viewBox="0 0 16 16" fill="none" xmlns="http://www.w3.org/2000/svg">
<g clip-path="url(#clip0_483_13611)">
<path d="M11.8612 4.80809C11.565 3.53427 10.811 2.41372 9.74265 1.65941C8.6743 0.905102 7.36603 0.569631 6.06652 0.716764C4.76701 0.863896 3.56686 1.48337 2.6942 2.45745C1.82153 3.43152 1.33719 4.69228 1.33323 6.00009C1.33265 6.85235 1.53852 7.69207 1.93323 8.44742C1.21398 8.83285 0.644159 9.44758 0.314305 10.194C-0.0155486 10.9403 -0.0865177 11.7755 0.112674 12.5668C0.311865 13.3582 0.769791 14.0602 1.4137 14.5615C2.0576 15.0627 2.85055 15.3344 3.66656 15.3334H10.6666C11.9726 15.3274 13.231 14.8423 14.2032 13.9701C15.1754 13.098 15.7938 11.8994 15.9411 10.6016C16.0884 9.3039 15.7544 7.99722 15.0024 6.92936C14.2504 5.86151 13.1327 5.10671 11.8612 4.80809ZM10.6666 14.0001H3.66656C3.09884 14.0018 2.55008 13.7959 2.12357 13.4212C1.69706 13.0465 1.42221 12.5289 1.35077 11.9657C1.27932 11.4024 1.41621 10.8325 1.73565 10.3632C2.05509 9.8939 2.53507 9.55753 3.08523 9.41742C3.19103 9.39018 3.28853 9.33736 3.36912 9.26359C3.44972 9.18983 3.51095 9.09739 3.54743 8.9944C3.58391 8.89141 3.59452 8.78104 3.57833 8.67299C3.56213 8.56493 3.51963 8.46252 3.45456 8.37475C2.94199 7.68925 2.6655 6.85603 2.66656 6.00009C2.67416 4.99074 3.06308 4.02159 3.75532 3.28699C4.44756 2.55239 5.39192 2.10665 6.39904 2.03917C7.40615 1.9717 8.40154 2.28746 9.18559 2.92315C9.96964 3.55884 10.4844 4.46745 10.6266 5.46675C10.6457 5.61186 10.7121 5.74661 10.8155 5.85023C10.9189 5.95385 11.0535 6.02057 11.1986 6.04009C12.1978 6.18224 13.1063 6.69687 13.742 7.48078C14.3777 8.26469 14.6936 9.25993 14.6263 10.267C14.559 11.274 14.1135 12.2183 13.3791 12.9107C12.6447 13.603 11.6758 13.9922 10.6666 14.0001Z" fill="black"/>
</g>
<defs>
<clipPath id="clip0_483_13611">
<rect width="16" height="16" fill="white"/>
</clipPath>
</defs>
</svg>
