<svg width="17" height="16" viewBox="0 0 17 16" fill="none" xmlns="http://www.w3.org/2000/svg">
<g clip-path="url(#clip0_482_18019)">
<path d="M12.1117 16H4.11165C3.22792 15.9989 2.38069 15.6474 1.7558 15.0225C1.13091 14.3976 0.779379 13.5504 0.77832 12.6667V3.33333C0.779379 2.4496 1.13091 1.60237 1.7558 0.97748C2.38069 0.352588 3.22792 0.00105857 4.11165 0L12.1117 0C12.9954 0.00105857 13.8426 0.352588 14.4675 0.97748C15.0924 1.60237 15.4439 2.4496 15.445 3.33333V12.6667C15.4439 13.5504 15.0924 14.3976 14.4675 15.0225C13.8426 15.6474 12.9954 15.9989 12.1117 16ZM4.11165 1.33333C3.58122 1.33333 3.07251 1.54405 2.69744 1.91912C2.32237 2.29419 2.11165 2.8029 2.11165 3.33333V12.6667C2.11165 13.1971 2.32237 13.7058 2.69744 14.0809C3.07251 14.456 3.58122 14.6667 4.11165 14.6667H12.1117C12.6421 14.6667 13.1508 14.456 13.5259 14.0809C13.9009 13.7058 14.1117 13.1971 14.1117 12.6667V3.33333C14.1117 2.8029 13.9009 2.29419 13.5259 1.91912C13.1508 1.54405 12.6421 1.33333 12.1117 1.33333H4.11165ZM10.7783 6.66667H5.44499C4.91455 6.66667 4.40585 6.45595 4.03077 6.08088C3.6557 5.70581 3.44499 5.1971 3.44499 4.66667C3.44499 4.13623 3.6557 3.62753 4.03077 3.25245C4.40585 2.87738 4.91455 2.66667 5.44499 2.66667H10.7783C11.3088 2.66667 11.8175 2.87738 12.1925 3.25245C12.5676 3.62753 12.7783 4.13623 12.7783 4.66667C12.7783 5.1971 12.5676 5.70581 12.1925 6.08088C11.8175 6.45595 11.3088 6.66667 10.7783 6.66667ZM5.44499 4C5.26818 4 5.09861 4.07024 4.97358 4.19526C4.84856 4.32029 4.77832 4.48986 4.77832 4.66667C4.77832 4.84348 4.84856 5.01305 4.97358 5.13807C5.09861 5.2631 5.26818 5.33333 5.44499 5.33333H10.7783C10.9551 5.33333 11.1247 5.2631 11.2497 5.13807C11.3748 5.01305 11.445 4.84348 11.445 4.66667C11.445 4.48986 11.3748 4.32029 11.2497 4.19526C11.1247 4.07024 10.9551 4 10.7783 4H5.44499ZM4.11165 8.66667C3.9798 8.66667 3.85091 8.70577 3.74127 8.77902C3.63164 8.85227 3.54619 8.95639 3.49573 9.07821C3.44528 9.20003 3.43207 9.33407 3.4578 9.46339C3.48352 9.59271 3.54701 9.7115 3.64025 9.80474C3.73348 9.89797 3.85227 9.96147 3.98159 9.98719C4.11091 10.0129 4.24496 9.99971 4.36678 9.94925C4.48859 9.8988 4.59271 9.81335 4.66597 9.70371C4.73922 9.59408 4.77832 9.46519 4.77832 9.33333C4.77832 9.15652 4.70808 8.98695 4.58306 8.86193C4.45803 8.73691 4.28846 8.66667 4.11165 8.66667ZM6.77832 8.66667C6.64647 8.66667 6.51757 8.70577 6.40794 8.77902C6.29831 8.85227 6.21286 8.95639 6.1624 9.07821C6.11194 9.20003 6.09874 9.33407 6.12446 9.46339C6.15019 9.59271 6.21368 9.7115 6.30692 9.80474C6.40015 9.89797 6.51894 9.96147 6.64826 9.98719C6.77758 10.0129 6.91163 9.99971 7.03344 9.94925C7.15526 9.8988 7.25938 9.81335 7.33263 9.70371C7.40589 9.59408 7.44499 9.46519 7.44499 9.33333C7.44499 9.15652 7.37475 8.98695 7.24972 8.86193C7.1247 8.73691 6.95513 8.66667 6.77832 8.66667ZM9.44499 8.66667C9.31313 8.66667 9.18424 8.70577 9.07461 8.77902C8.96497 8.85227 8.87953 8.95639 8.82907 9.07821C8.77861 9.20003 8.76541 9.33407 8.79113 9.46339C8.81685 9.59271 8.88035 9.7115 8.97358 9.80474C9.06682 9.89797 9.18561 9.96147 9.31493 9.98719C9.44425 10.0129 9.57829 9.99971 9.70011 9.94925C9.82193 9.8988 9.92605 9.81335 9.9993 9.70371C10.0726 9.59408 10.1117 9.46519 10.1117 9.33333C10.1117 9.15652 10.0414 8.98695 9.91639 8.86193C9.79137 8.73691 9.6218 8.66667 9.44499 8.66667ZM4.11165 11.3333C3.9798 11.3333 3.85091 11.3724 3.74127 11.4457C3.63164 11.5189 3.54619 11.6231 3.49573 11.7449C3.44528 11.8667 3.43207 12.0007 3.4578 12.1301C3.48352 12.2594 3.54701 12.3782 3.64025 12.4714C3.73348 12.5646 3.85227 12.6281 3.98159 12.6539C4.11091 12.6796 4.24496 12.6664 4.36678 12.6159C4.48859 12.5655 4.59271 12.48 4.66597 12.3704C4.73922 12.2607 4.77832 12.1319 4.77832 12C4.77832 11.8232 4.70808 11.6536 4.58306 11.5286C4.45803 11.4036 4.28846 11.3333 4.11165 11.3333ZM6.77832 11.3333C6.64647 11.3333 6.51757 11.3724 6.40794 11.4457C6.29831 11.5189 6.21286 11.6231 6.1624 11.7449C6.11194 11.8667 6.09874 12.0007 6.12446 12.1301C6.15019 12.2594 6.21368 12.3782 6.30692 12.4714C6.40015 12.5646 6.51894 12.6281 6.64826 12.6539C6.77758 12.6796 6.91163 12.6664 7.03344 12.6159C7.15526 12.5655 7.25938 12.48 7.33263 12.3704C7.40589 12.2607 7.44499 12.1319 7.44499 12C7.44499 11.8232 7.37475 11.6536 7.24972 11.5286C7.1247 11.4036 6.95513 11.3333 6.77832 11.3333ZM12.1117 8.66667C11.9798 8.66667 11.8509 8.70577 11.7413 8.77902C11.6316 8.85227 11.5462 8.95639 11.4957 9.07821C11.4453 9.20003 11.4321 9.33407 11.4578 9.46339C11.4835 9.59271 11.547 9.7115 11.6402 9.80474C11.7335 9.89797 11.8523 9.96147 11.9816 9.98719C12.1109 10.0129 12.245 9.99971 12.3668 9.94925C12.4886 9.8988 12.5927 9.81335 12.666 9.70371C12.7392 9.59408 12.7783 9.46519 12.7783 9.33333C12.7783 9.15652 12.7081 8.98695 12.5831 8.86193C12.458 8.73691 12.2885 8.66667 12.1117 8.66667ZM12.7783 12C12.7783 11.8232 12.7081 11.6536 12.5831 11.5286C12.458 11.4036 12.2885 11.3333 12.1117 11.3333H9.44499C9.26818 11.3333 9.09861 11.4036 8.97358 11.5286C8.84856 11.6536 8.77832 11.8232 8.77832 12C8.77832 12.1768 8.84856 12.3464 8.97358 12.4714C9.09861 12.5964 9.26818 12.6667 9.44499 12.6667H12.1117C12.2885 12.6667 12.458 12.5964 12.5831 12.4714C12.7081 12.3464 12.7783 12.1768 12.7783 12Z" fill="black"/>
</g>
<defs>
<clipPath id="clip0_482_18019">
<rect width="16" height="16" fill="white" transform="translate(0.111328)"/>
</clipPath>
</defs>
</svg>
