<svg width="17" height="16" viewBox="0 0 17 16" fill="none" xmlns="http://www.w3.org/2000/svg">
<g clip-path="url(#clip0_483_13724)">
<path d="M16.2217 1.99983H9.55506C9.37825 1.99983 9.20868 2.07006 9.08366 2.19509C8.95863 2.32011 8.88839 2.48968 8.88839 2.66649V4.84649L7.28839 2.07316C7.17164 1.86954 7.0032 1.70035 6.8001 1.5827C6.597 1.46504 6.36644 1.40308 6.13173 1.40308C5.89701 1.40308 5.66645 1.46504 5.46335 1.5827C5.26026 1.70035 5.09182 1.86954 4.97506 2.07316L0.975059 8.99982C0.916546 9.10116 0.885742 9.21613 0.885742 9.33315C0.885742 9.45017 0.916546 9.56514 0.975059 9.66648C1.03379 9.76822 1.11837 9.85263 1.22022 9.91116C1.32207 9.9697 1.43759 10.0003 1.55506 9.99981H4.41506C4.28562 10.4324 4.22048 10.8816 4.22173 11.3331C4.22173 12.5708 4.71339 13.7578 5.58856 14.633C6.46373 15.5081 7.65072 15.9998 8.88839 15.9998C10.1261 15.9998 11.3131 15.5081 12.1882 14.633C13.0634 13.7578 13.5551 12.5708 13.5551 11.3331C13.5563 10.8816 13.4912 10.4324 13.3617 9.99981H16.2217C16.3985 9.99981 16.5681 9.92958 16.6931 9.80455C16.8182 9.67953 16.8884 9.50996 16.8884 9.33315V2.66649C16.8884 2.48968 16.8182 2.32011 16.6931 2.19509C16.5681 2.07006 16.3985 1.99983 16.2217 1.99983ZM2.70839 8.66648L6.12839 2.73982L8.41506 6.66649C7.74835 6.74068 7.10546 6.95775 6.53023 7.30289C5.955 7.64802 5.46094 8.11312 5.08173 8.66648H2.70839ZM8.88839 14.6665C8.22912 14.6665 7.58466 14.471 7.03649 14.1047C6.48833 13.7384 6.06109 13.2178 5.80879 12.6088C5.5565 11.9997 5.49049 11.3294 5.61911 10.6828C5.74773 10.0362 6.0652 9.4423 6.53137 8.97613C6.99755 8.50995 7.59149 8.19248 8.23809 8.06387C8.8847 7.93525 9.55492 8.00126 10.164 8.25355C10.7731 8.50584 11.2937 8.93309 11.66 9.48125C12.0262 10.0294 12.2217 10.6739 12.2217 11.3331C12.2217 12.2172 11.8705 13.065 11.2454 13.6902C10.6203 14.3153 9.77245 14.6665 8.88839 14.6665ZM15.5551 8.66648H12.7151C12.1096 7.80212 11.2317 7.16593 10.2217 6.85982V3.33316H15.5551V8.66648Z" fill="black"/>
</g>
<defs>
<clipPath id="clip0_483_13724">
<rect width="16" height="16" fill="white" transform="translate(0.888672)"/>
</clipPath>
</defs>
</svg>
