<svg width="16" height="16" viewBox="0 0 16 16" fill="none" xmlns="http://www.w3.org/2000/svg">
<g clip-path="url(#clip0_482_18109)">
<path d="M5.00986 3.33878C4.97282 3.2476 4.90949 3.1695 4.82793 3.11441C4.74638 3.05933 4.65027 3.02975 4.55186 3.02945C4.45161 3.02974 4.35378 3.06024 4.27113 3.11697C4.18848 3.17369 4.12484 3.25401 4.08852 3.34745L2.77052 6.80545C2.75101 6.85662 2.74177 6.91113 2.74333 6.96587C2.7449 7.02062 2.75725 7.07451 2.77966 7.12448C2.80208 7.17445 2.83412 7.2195 2.87396 7.25708C2.9138 7.29465 2.96066 7.324 3.01186 7.34345C3.05918 7.36126 3.10929 7.37051 3.15986 7.37078C3.24408 7.37081 3.32634 7.34536 3.39583 7.29776C3.46532 7.25017 3.51878 7.18266 3.54919 7.10412L3.77519 6.51145H5.31586L5.53919 7.10278C5.55849 7.154 5.5877 7.20091 5.62513 7.24084C5.66257 7.28077 5.7075 7.31293 5.75736 7.3355C5.80723 7.35806 5.86105 7.37059 5.91575 7.37235C5.97046 7.37411 6.02497 7.36509 6.07619 7.34578C6.12741 7.32648 6.17432 7.29728 6.21425 7.25984C6.25418 7.22241 6.28634 7.17747 6.30891 7.12761C6.33147 7.07774 6.34399 7.02392 6.34576 6.96922C6.34752 6.91451 6.33849 6.86 6.31919 6.80878L5.00986 3.33878ZM4.09252 5.67612L4.54852 4.47612L5.00119 5.67612H4.09252Z" fill="black"/>
<path d="M7.48795 3.02945C7.3775 3.02963 7.27162 3.07358 7.19352 3.15168C7.11542 3.22978 7.07147 3.33566 7.07129 3.44612V6.95412C7.07129 7.06462 7.11519 7.1706 7.19333 7.24874C7.27147 7.32688 7.37745 7.37078 7.48795 7.37078C7.59846 7.37078 7.70444 7.32688 7.78258 7.24874C7.86072 7.1706 7.90462 7.06462 7.90462 6.95412V3.44612C7.90462 3.33561 7.86072 3.22963 7.78258 3.15149C7.70444 3.07335 7.59846 3.02945 7.48795 3.02945Z" fill="black"/>
<path d="M12.6667 0H3.33333C2.4496 0.00105857 1.60237 0.352588 0.97748 0.97748C0.352588 1.60237 0.00105857 2.4496 0 3.33333L0 12.6667C0.00105857 13.5504 0.352588 14.3976 0.97748 15.0225C1.60237 15.6474 2.4496 15.9989 3.33333 16H10.8953C11.3333 16.0013 11.7671 15.9156 12.1718 15.7481C12.5764 15.5806 12.9438 15.3345 13.2527 15.024L15.0233 13.252C15.3338 12.9432 15.58 12.576 15.7477 12.1715C15.9153 11.767 16.0011 11.3332 16 10.8953V3.33333C15.9989 2.4496 15.6474 1.60237 15.0225 0.97748C14.3976 0.352588 13.5504 0.00105857 12.6667 0V0ZM1.33333 12.6667V3.33333C1.33333 2.8029 1.54405 2.29419 1.91912 1.91912C2.29419 1.54405 2.8029 1.33333 3.33333 1.33333H12.6667C13.1971 1.33333 13.7058 1.54405 14.0809 1.91912C14.456 2.29419 14.6667 2.8029 14.6667 3.33333V10H12C11.4696 10 10.9609 10.2107 10.5858 10.5858C10.2107 10.9609 10 11.4696 10 12V14.6667H3.33333C2.8029 14.6667 2.29419 14.456 1.91912 14.0809C1.54405 13.7058 1.33333 13.1971 1.33333 12.6667ZM12.31 14.0813C12.042 14.3487 11.7031 14.5337 11.3333 14.6147V12C11.3333 11.8232 11.4036 11.6536 11.5286 11.5286C11.6536 11.4036 11.8232 11.3333 12 11.3333H14.6167C14.5342 11.7023 14.3493 12.0406 14.0833 12.3093L12.31 14.0813Z" fill="black"/>
</g>
<defs>
<clipPath id="clip0_482_18109">
<rect width="16" height="16" fill="white"/>
</clipPath>
</defs>
</svg>
