<svg width="17" height="16" viewBox="0 0 17 16" fill="none" xmlns="http://www.w3.org/2000/svg">
<g clip-path="url(#clip0_483_13693)">
<path d="M13.2223 0H3.889C3.00527 0.00105857 2.15804 0.352588 1.53314 0.97748C0.908252 1.60237 0.556723 2.4496 0.555664 3.33333L0.555664 12.6667C0.556723 13.5504 0.908252 14.3976 1.53314 15.0225C2.15804 15.6474 3.00527 15.9989 3.889 16H13.2223C14.1061 15.9989 14.9533 15.6474 15.5782 15.0225C16.2031 14.3976 16.5546 13.5504 16.5557 12.6667V3.33333C16.5546 2.4496 16.2031 1.60237 15.5782 0.97748C14.9533 0.352588 14.1061 0.00105857 13.2223 0V0ZM5.22233 14.6667V14C5.22233 13.1159 5.57352 12.2681 6.19864 11.643C6.82376 11.0179 7.67161 10.6667 8.55566 10.6667C9.43972 10.6667 10.2876 11.0179 10.9127 11.643C11.5378 12.2681 11.889 13.1159 11.889 14V14.6667H5.22233ZM15.2223 12.6667C15.2223 13.1971 15.0116 13.7058 14.6365 14.0809C14.2615 14.456 13.7528 14.6667 13.2223 14.6667V14C13.2223 12.7623 12.7307 11.5753 11.8555 10.7002C10.9803 9.825 9.79334 9.33333 8.55566 9.33333C7.31799 9.33333 6.131 9.825 5.25583 10.7002C4.38066 11.5753 3.889 12.7623 3.889 14V14.6667C3.35856 14.6667 2.84986 14.456 2.47478 14.0809C2.09971 13.7058 1.889 13.1971 1.889 12.6667V3.33333C1.889 2.8029 2.09971 2.29419 2.47478 1.91912C2.84986 1.54405 3.35856 1.33333 3.889 1.33333H13.2223C13.7528 1.33333 14.2615 1.54405 14.6365 1.91912C15.0116 2.29419 15.2223 2.8029 15.2223 3.33333V12.6667Z" fill="black"/>
<path d="M8.55534 2.66699C8.02792 2.66699 7.51235 2.82339 7.07382 3.11641C6.63529 3.40942 6.29349 3.8259 6.09166 4.31317C5.88983 4.80044 5.83702 5.33662 5.93991 5.8539C6.04281 6.37118 6.29678 6.84634 6.66972 7.21928C7.04266 7.59222 7.51782 7.84619 8.0351 7.94909C8.55238 8.05198 9.08856 7.99917 9.57583 7.79734C10.0631 7.5955 10.4796 7.25371 10.7726 6.81518C11.0656 6.37665 11.222 5.86108 11.222 5.33366C11.222 4.62641 10.9411 3.94814 10.441 3.44804C9.94086 2.94794 9.26258 2.66699 8.55534 2.66699ZM8.55534 6.66699C8.29163 6.66699 8.03385 6.58879 7.81458 6.44229C7.59531 6.29578 7.42442 6.08754 7.3235 5.8439C7.22258 5.60027 7.19618 5.33218 7.24763 5.07354C7.29907 4.8149 7.42606 4.57732 7.61253 4.39085C7.799 4.20438 8.03658 4.07739 8.29522 4.02595C8.55386 3.9745 8.82195 4.0009 9.06558 4.10182C9.30922 4.20274 9.51746 4.37363 9.66397 4.5929C9.81047 4.81216 9.88867 5.06995 9.88867 5.33366C9.88867 5.68728 9.7482 6.02642 9.49815 6.27647C9.2481 6.52652 8.90896 6.66699 8.55534 6.66699Z" fill="black"/>
</g>
<defs>
<clipPath id="clip0_483_13693">
<rect width="16" height="16" fill="white" transform="translate(0.555664)"/>
</clipPath>
</defs>
</svg>
