<svg width="17" height="16" viewBox="0 0 17 16" fill="none" xmlns="http://www.w3.org/2000/svg">
<g clip-path="url(#clip0_483_13760)">
<path d="M13.444 0H8.11068C7.22695 0.00105857 6.37972 0.352588 5.75482 0.97748C5.12993 1.60237 4.7784 2.4496 4.77734 3.33333V7.33333H4.11068C3.22695 7.33439 2.37972 7.68592 1.75482 8.31081C1.12993 8.93571 0.778402 9.78294 0.777344 10.6667L0.777344 12.6667C0.778402 13.5504 1.12993 14.3976 1.75482 15.0225C2.37972 15.6474 3.22695 15.9989 4.11068 16H6.11068C6.99441 15.9989 7.84164 15.6474 8.46653 15.0225C9.09142 14.3976 9.44295 13.5504 9.44401 12.6667V12H13.444C14.3277 11.9989 15.175 11.6474 15.7999 11.0225C16.4248 10.3976 16.7763 9.5504 16.7773 8.66667V3.33333C16.7763 2.4496 16.4248 1.60237 15.7999 0.97748C15.175 0.352588 14.3277 0.00105857 13.444 0V0ZM8.11068 10.6667C7.58024 10.6667 7.07154 10.456 6.69646 10.0809C6.32139 9.70581 6.11068 9.1971 6.11068 8.66667C6.64111 8.66667 7.14982 8.87738 7.52489 9.25245C7.89996 9.62753 8.11068 10.1362 8.11068 10.6667ZM8.11068 12.6667C8.11068 13.1971 7.89996 13.7058 7.52489 14.0809C7.14982 14.456 6.64111 14.6667 6.11068 14.6667H4.11068C3.58024 14.6667 3.07154 14.456 2.69646 14.0809C2.32139 13.7058 2.11068 13.1971 2.11068 12.6667V10.6667C2.11068 10.1362 2.32139 9.62753 2.69646 9.25245C3.07154 8.87738 3.58024 8.66667 4.11068 8.66667H4.77734C4.7784 9.5504 5.12993 10.3976 5.75482 11.0225C6.37972 11.6474 7.22695 11.9989 8.11068 12V12.6667ZM15.444 8.66667C15.444 9.1971 15.2333 9.70581 14.8582 10.0809C14.4832 10.456 13.9744 10.6667 13.444 10.6667H9.44401C9.44388 10.0135 9.25067 9.37499 8.88868 8.83133L12.7773 4.94267V6.66667C12.7773 6.84348 12.8476 7.01305 12.9726 7.13807C13.0976 7.2631 13.2672 7.33333 13.444 7.33333C13.6208 7.33333 13.7904 7.2631 13.9154 7.13807C14.0404 7.01305 14.1107 6.84348 14.1107 6.66667V4.66667C14.1107 4.13623 13.9 3.62753 13.5249 3.25245C13.1498 2.87738 12.6411 2.66667 12.1107 2.66667H10.1107C9.93387 2.66667 9.7643 2.7369 9.63927 2.86193C9.51425 2.98695 9.44401 3.15652 9.44401 3.33333C9.44401 3.51014 9.51425 3.67971 9.63927 3.80474C9.7643 3.92976 9.93387 4 10.1107 4H11.8347L7.94601 7.88867C7.40236 7.52667 6.76382 7.33346 6.11068 7.33333V3.33333C6.11068 2.8029 6.32139 2.29419 6.69646 1.91912C7.07154 1.54405 7.58024 1.33333 8.11068 1.33333H13.444C13.9744 1.33333 14.4832 1.54405 14.8582 1.91912C15.2333 2.29419 15.444 2.8029 15.444 3.33333V8.66667Z" fill="black"/>
</g>
<defs>
<clipPath id="clip0_483_13760">
<rect width="16" height="16" fill="white" transform="translate(0.777344)"/>
</clipPath>
</defs>
</svg>
