<svg width="17" height="16" viewBox="0 0 17 16" fill="none" xmlns="http://www.w3.org/2000/svg">
<g clip-path="url(#clip0_483_13821)">
<path d="M12.9997 2H3.66634C2.78261 2.00106 1.93538 2.35259 1.31049 2.97748C0.685596 3.60237 0.334066 4.4496 0.333008 5.33333L0.333008 9.33333C0.334066 10.2171 0.685596 11.0643 1.31049 11.6892C1.93538 12.3141 2.78261 12.6656 3.66634 12.6667H7.66634V13.3333H5.66634C5.48953 13.3333 5.31996 13.4036 5.19494 13.5286C5.06991 13.6536 4.99967 13.8232 4.99967 14C4.99967 14.1768 5.06991 14.3464 5.19494 14.4714C5.31996 14.5964 5.48953 14.6667 5.66634 14.6667H10.9997C11.1765 14.6667 11.3461 14.5964 11.4711 14.4714C11.5961 14.3464 11.6663 14.1768 11.6663 14C11.6663 13.8232 11.5961 13.6536 11.4711 13.5286C11.3461 13.4036 11.1765 13.3333 10.9997 13.3333H8.99967V12.6667H12.9997C13.8834 12.6656 14.7306 12.3141 15.3555 11.6892C15.9804 11.0643 16.332 10.2171 16.333 9.33333V5.33333C16.332 4.4496 15.9804 3.60237 15.3555 2.97748C14.7306 2.35259 13.8834 2.00106 12.9997 2ZM14.9997 9.33333C14.9997 9.86377 14.789 10.3725 14.4139 10.7475C14.0388 11.1226 13.5301 11.3333 12.9997 11.3333H3.66634C3.13591 11.3333 2.6272 11.1226 2.25213 10.7475C1.87705 10.3725 1.66634 9.86377 1.66634 9.33333V5.33333C1.66634 4.8029 1.87705 4.29419 2.25213 3.91912C2.6272 3.54405 3.13591 3.33333 3.66634 3.33333H12.9997C13.5301 3.33333 14.0388 3.54405 14.4139 3.91912C14.789 4.29419 14.9997 4.8029 14.9997 5.33333V9.33333Z" fill="black"/>
</g>
<defs>
<clipPath id="clip0_483_13821">
<rect width="16" height="16" fill="white" transform="translate(0.333008)"/>
</clipPath>
</defs>
</svg>
