<svg width="17" height="16" viewBox="0 0 17 16" fill="none" xmlns="http://www.w3.org/2000/svg">
<path d="M7.73389 8.47329C7.67141 8.41132 7.62181 8.33758 7.58796 8.25634C7.55412 8.1751 7.53669 8.08797 7.53669 7.99996C7.53669 7.91195 7.55412 7.82481 7.58796 7.74357C7.62181 7.66233 7.67141 7.5886 7.73389 7.52663L10.7939 4.47329C10.8564 4.41132 10.906 4.33758 10.9398 4.25634C10.9737 4.1751 10.9911 4.08797 10.9911 3.99996C10.9911 3.91195 10.9737 3.82481 10.9398 3.74357C10.906 3.66233 10.8564 3.5886 10.7939 3.52663C10.669 3.40246 10.5 3.33276 10.3239 3.33276C10.1478 3.33276 9.9788 3.40246 9.85389 3.52663L6.79389 6.58663C6.41936 6.96163 6.20898 7.46996 6.20898 7.99996C6.20898 8.52996 6.41936 9.03829 6.79389 9.41329L9.85389 12.4733C9.97807 12.5965 10.1457 12.6659 10.3206 12.6666C10.4083 12.6671 10.4953 12.6503 10.5765 12.6171C10.6577 12.584 10.7316 12.5351 10.7939 12.4733C10.8564 12.4113 10.906 12.3376 10.9398 12.2563C10.9737 12.1751 10.9911 12.088 10.9911 12C10.9911 11.912 10.9737 11.8248 10.9398 11.7436C10.906 11.6623 10.8564 11.5886 10.7939 11.5266L7.73389 8.47329Z" fill="black"/>
</svg>
