<svg width="17" height="16" viewBox="0 0 17 16" fill="none" xmlns="http://www.w3.org/2000/svg">
<g clip-path="url(#clip0_483_13890)">
<path d="M8.77734 6.66638C7.87826 6.66608 6.98138 6.75541 6.10001 6.93304L6.09601 5.40971L9.43534 4.02571C9.63875 3.92235 9.81223 3.76853 9.93918 3.57896C10.0661 3.38939 10.1423 3.17041 10.1605 2.94297C10.1786 2.71554 10.138 2.48725 10.0427 2.27996C9.9474 2.07267 9.80047 1.89331 9.61601 1.75904C9.59485 1.74303 9.57257 1.72855 9.54934 1.71571L6.71068 0.141042C6.5073 0.0385603 6.28107 -0.0101214 6.05354 -0.000361828C5.82601 0.00939774 5.60477 0.0772732 5.41092 0.196794C5.21707 0.316315 5.05706 0.483496 4.94615 0.682401C4.83524 0.881307 4.77712 1.1053 4.77734 1.33304V7.27571C2.37134 8.07238 0.777344 9.57304 0.777344 11.333C0.777344 13.9497 4.29134 15.9997 8.77734 15.9997C13.2633 15.9997 16.7773 13.9497 16.7773 11.333C16.7773 8.71638 13.2633 6.66638 8.77734 6.66638ZM8.82601 2.83638L6.09268 3.96971L6.08601 1.32238L8.82601 2.83638ZM8.77734 14.6664C5.16401 14.6664 2.11068 13.1397 2.11068 11.333C2.11068 10.2704 3.17134 9.30704 4.77734 8.69171V11.333C4.77734 11.5099 4.84758 11.6794 4.97261 11.8044C5.09763 11.9295 5.2672 11.9997 5.44401 11.9997C5.62082 11.9997 5.79039 11.9295 5.91541 11.8044C6.04044 11.6794 6.11068 11.5099 6.11068 11.333L6.10334 8.29304C6.98109 8.09669 7.87791 7.99831 8.77734 7.99971C12.3907 7.99971 15.444 9.52638 15.444 11.333C15.444 13.1397 12.3907 14.6664 8.77734 14.6664ZM12.1107 11.333C12.1107 11.5968 12.0325 11.8545 11.886 12.0738C11.7395 12.2931 11.5312 12.464 11.2876 12.5649C11.044 12.6658 10.7759 12.6922 10.5172 12.6408C10.2586 12.5893 10.021 12.4623 9.83454 12.2759C9.64807 12.0894 9.52108 11.8518 9.46963 11.5932C9.41818 11.3345 9.44459 11.0664 9.5455 10.8228C9.64642 10.5792 9.81732 10.3709 10.0366 10.2244C10.2558 10.0779 10.5136 9.99971 10.7773 9.99971C11.131 9.99971 11.4701 10.1402 11.7202 10.3902C11.9702 10.6403 12.1107 10.9794 12.1107 11.333Z" fill="black"/>
</g>
<defs>
<clipPath id="clip0_483_13890">
<rect width="16" height="16" fill="white" transform="translate(0.777344)"/>
</clipPath>
</defs>
</svg>
