<svg width="17" height="16" viewBox="0 0 17 16" fill="none" xmlns="http://www.w3.org/2000/svg">
<g clip-path="url(#clip0_483_13883)">
<path d="M3.11133 11.6669H1.44466C1.09104 11.6669 0.751901 11.8074 0.501852 12.0574C0.251804 12.3074 0.111328 12.6466 0.111328 13.0002L0.111328 14.6669C0.111328 15.0205 0.251804 15.3596 0.501852 15.6097C0.751901 15.8597 1.09104 16.0002 1.44466 16.0002H3.11133C3.46495 16.0002 3.80409 15.8597 4.05414 15.6097C4.30419 15.3596 4.44466 15.0205 4.44466 14.6669V13.0002C4.44466 12.6466 4.30419 12.3074 4.05414 12.0574C3.80409 11.8074 3.46495 11.6669 3.11133 11.6669ZM3.11133 14.6669H1.44466V13.0002H3.11133V14.6669Z" fill="black"/>
<path d="M14.7783 11.6669H13.1117C12.758 11.6669 12.4189 11.8073 12.1688 12.0574C11.9188 12.3074 11.7783 12.6466 11.7783 13.0002V14.6669C11.7783 15.0205 11.9188 15.3596 12.1688 15.6097C12.4189 15.8597 12.758 16.0002 13.1117 16.0002H14.7783C15.1319 16.0002 15.4711 15.8597 15.7211 15.6097C15.9712 15.3596 16.1116 15.0205 16.1116 14.6669V13.0002C16.1116 12.6466 15.9712 12.3074 15.7211 12.0574C15.4711 11.8073 15.1319 11.6669 14.7783 11.6669ZM14.7783 14.6669H13.1117V13.0002H14.7783V14.6669Z" fill="black"/>
<path d="M3.11133 5.83313H1.44466C1.09104 5.83313 0.751901 5.97361 0.501852 6.22365C0.251804 6.4737 0.111328 6.81284 0.111328 7.16646L0.111328 8.83312C0.111328 9.18674 0.251804 9.52588 0.501852 9.77593C0.751901 10.026 1.09104 10.1665 1.44466 10.1665H3.11133C3.46495 10.1665 3.80409 10.026 4.05414 9.77593C4.30419 9.52588 4.44466 9.18674 4.44466 8.83312V7.16646C4.44466 6.81284 4.30419 6.4737 4.05414 6.22365C3.80409 5.97361 3.46495 5.83313 3.11133 5.83313ZM3.11133 8.83312H1.44466V7.16646H3.11133V8.83312Z" fill="black"/>
<path d="M14.7783 5.83313H13.1117C12.758 5.83313 12.4189 5.97361 12.1688 6.22365C11.9188 6.4737 11.7783 6.81284 11.7783 7.16646V8.83312C11.7783 9.18674 11.9188 9.52588 12.1688 9.77593C12.4189 10.026 12.758 10.1665 13.1117 10.1665H14.7783C15.1319 10.1665 15.4711 10.026 15.7211 9.77593C15.9712 9.52588 16.1116 9.18674 16.1116 8.83312V7.16646C16.1116 6.81284 15.9712 6.4737 15.7211 6.22365C15.4711 5.97361 15.1319 5.83313 14.7783 5.83313ZM14.7783 8.83312H13.1117V7.16646H14.7783V8.83312Z" fill="black"/>
<path d="M3.11133 0H1.44466C1.09104 0 0.751901 0.140476 0.501852 0.390524C0.251804 0.640573 0.111328 0.979711 0.111328 1.33333L0.111328 3C0.111328 3.35362 0.251804 3.69276 0.501852 3.94281C0.751901 4.19286 1.09104 4.33333 1.44466 4.33333H3.11133C3.46495 4.33333 3.80409 4.19286 4.05414 3.94281C4.30419 3.69276 4.44466 3.35362 4.44466 3V1.33333C4.44466 0.979711 4.30419 0.640573 4.05414 0.390524C3.80409 0.140476 3.46495 0 3.11133 0V0ZM3.11133 3H1.44466V1.33333H3.11133V3Z" fill="black"/>
<path d="M8.94433 11.6669H7.27767C6.92405 11.6669 6.58491 11.8073 6.33486 12.0574C6.08481 12.3074 5.94434 12.6466 5.94434 13.0002V14.6669C5.94434 15.0205 6.08481 15.3596 6.33486 15.6097C6.58491 15.8597 6.92405 16.0002 7.27767 16.0002H8.94433C9.29795 16.0002 9.63709 15.8597 9.88714 15.6097C10.1372 15.3596 10.2777 15.0205 10.2777 14.6669V13.0002C10.2777 12.6466 10.1372 12.3074 9.88714 12.0574C9.63709 11.8073 9.29795 11.6669 8.94433 11.6669ZM8.94433 14.6669H7.27767V13.0002H8.94433V14.6669Z" fill="black"/>
<path d="M8.94433 5.83313H7.27767C6.92405 5.83313 6.58491 5.97361 6.33486 6.22365C6.08481 6.4737 5.94434 6.81284 5.94434 7.16646V8.83312C5.94434 9.18674 6.08481 9.52588 6.33486 9.77593C6.58491 10.026 6.92405 10.1665 7.27767 10.1665H8.94433C9.29795 10.1665 9.63709 10.026 9.88714 9.77593C10.1372 9.52588 10.2777 9.18674 10.2777 8.83312V7.16646C10.2777 6.81284 10.1372 6.4737 9.88714 6.22365C9.63709 5.97361 9.29795 5.83313 8.94433 5.83313ZM8.94433 8.83312H7.27767V7.16646H8.94433V8.83312Z" fill="black"/>
<path d="M8.94433 0H7.27767C6.92405 0 6.58491 0.140476 6.33486 0.390524C6.08481 0.640573 5.94434 0.979711 5.94434 1.33333V3C5.94434 3.35362 6.08481 3.69276 6.33486 3.94281C6.58491 4.19286 6.92405 4.33333 7.27767 4.33333H8.94433C9.29795 4.33333 9.63709 4.19286 9.88714 3.94281C10.1372 3.69276 10.2777 3.35362 10.2777 3V1.33333C10.2777 0.979711 10.1372 0.640573 9.88714 0.390524C9.63709 0.140476 9.29795 0 8.94433 0V0ZM8.94433 3H7.27767V1.33333H8.94433V3Z" fill="black"/>
<path d="M14.7783 0H13.1117C12.758 0 12.4189 0.140476 12.1688 0.390524C11.9188 0.640573 11.7783 0.979711 11.7783 1.33333V3C11.7783 3.35362 11.9188 3.69276 12.1688 3.94281C12.4189 4.19286 12.758 4.33333 13.1117 4.33333H14.7783C15.1319 4.33333 15.4711 4.19286 15.7211 3.94281C15.9712 3.69276 16.1116 3.35362 16.1116 3V1.33333C16.1116 0.979711 15.9712 0.640573 15.7211 0.390524C15.4711 0.140476 15.1319 0 14.7783 0V0ZM14.7783 3H13.1117V1.33333H14.7783V3Z" fill="black"/>
</g>
<defs>
<clipPath id="clip0_483_13883">
<rect width="16" height="16" fill="white" transform="translate(0.111328)"/>
</clipPath>
</defs>
</svg>
