<svg width="17" height="16" viewBox="0 0 17 16" fill="none" xmlns="http://www.w3.org/2000/svg">
<g clip-path="url(#clip0_482_18049)">
<path d="M6.99967 6.66646C6.46924 6.66646 5.96053 6.87718 5.58546 7.25225C5.21039 7.62732 4.99967 8.13603 4.99967 8.66646C4.99967 9.1969 5.21039 9.70561 5.58546 10.0807C5.96053 10.4558 6.46924 10.6665 6.99967 10.6665H9.66634C10.1968 10.6665 10.7055 10.4558 11.0806 10.0807C11.4556 9.70561 11.6663 9.1969 11.6663 8.66646C11.6663 8.13603 11.4556 7.62732 11.0806 7.25225C10.7055 6.87718 10.1968 6.66646 9.66634 6.66646H6.99967ZM10.333 8.66646C10.333 8.84328 10.2628 9.01284 10.1377 9.13787C10.0127 9.26289 9.84315 9.33313 9.66634 9.33313H6.99967C6.82286 9.33313 6.65329 9.26289 6.52827 9.13787C6.40325 9.01284 6.33301 8.84328 6.33301 8.66646C6.33301 8.48965 6.40325 8.32008 6.52827 8.19506C6.65329 8.07004 6.82286 7.9998 6.99967 7.9998H9.66634C9.84315 7.9998 10.0127 8.07004 10.1377 8.19506C10.2628 8.32008 10.333 8.48965 10.333 8.66646ZM11.6663 12.6665C11.6663 12.8433 11.5961 13.0128 11.4711 13.1379C11.3461 13.2629 11.1765 13.3331 10.9997 13.3331H5.66634C5.48953 13.3331 5.31996 13.2629 5.19494 13.1379C5.06991 13.0128 4.99967 12.8433 4.99967 12.6665C4.99967 12.4897 5.06991 12.3201 5.19494 12.1951C5.31996 12.07 5.48953 11.9998 5.66634 11.9998H10.9997C11.1765 11.9998 11.3461 12.07 11.4711 12.1951C11.5961 12.3201 11.6663 12.4897 11.6663 12.6665ZM13.357 2.08046L12.2517 0.976463C11.9429 0.665964 11.5757 0.419771 11.1711 0.252129C10.7666 0.0844858 10.3329 -0.00127894 9.89501 -0.000203636H5.66634C4.78261 0.000854936 3.93538 0.352384 3.31049 0.977276C2.6856 1.60217 2.33407 2.4494 2.33301 3.33313V12.6665C2.33407 13.5502 2.6856 14.3974 3.31049 15.0223C3.93538 15.6472 4.78261 15.9987 5.66634 15.9998H10.9997C11.8834 15.9987 12.7306 15.6472 13.3555 15.0223C13.9804 14.3974 14.3319 13.5502 14.333 12.6665V4.4378C14.3343 3.99985 14.2486 3.56601 14.0811 3.16138C13.9136 2.75674 13.6675 2.38935 13.357 2.08046ZM12.4143 3.02313C12.5082 3.11808 12.5925 3.2219 12.6663 3.33313H10.9997V1.66646C11.1111 1.73948 11.2147 1.8237 11.309 1.9178L12.4143 3.02313ZM12.9997 12.6665C12.9997 13.1969 12.789 13.7056 12.4139 14.0807C12.0388 14.4558 11.5301 14.6665 10.9997 14.6665H5.66634C5.13591 14.6665 4.6272 14.4558 4.25213 14.0807C3.87705 13.7056 3.66634 13.1969 3.66634 12.6665V3.33313C3.66634 2.8027 3.87705 2.29399 4.25213 1.91892C4.6272 1.54384 5.13591 1.33313 5.66634 1.33313H9.66634V3.33313C9.66634 3.68675 9.80682 4.02589 10.0569 4.27594C10.3069 4.52599 10.6461 4.66646 10.9997 4.66646H12.9997V12.6665Z" fill="black"/>
</g>
<defs>
<clipPath id="clip0_482_18049">
<rect width="16" height="16" fill="white" transform="translate(0.333008)"/>
</clipPath>
</defs>
</svg>
