<svg width="17" height="16" viewBox="0 0 17 16" fill="none" xmlns="http://www.w3.org/2000/svg">
<g clip-path="url(#clip0_483_13689)">
<path d="M15.0695 5.96551C14.9607 5.92661 14.8613 5.86531 14.7777 5.78557C14.6941 5.70583 14.6281 5.60942 14.5841 5.5026C14.5402 5.39577 14.5191 5.28089 14.5223 5.1654C14.5255 5.04992 14.5529 4.93639 14.6028 4.83217C14.7941 4.42954 14.8561 3.97757 14.7804 3.53828C14.7046 3.09899 14.4947 2.69393 14.1795 2.37868C13.8643 2.06343 13.4593 1.85345 13.0201 1.77757C12.5808 1.70168 12.1288 1.7636 11.7261 1.95484C11.6219 2.00459 11.5084 2.03193 11.3929 2.03509C11.2775 2.03825 11.1626 2.01716 11.0558 1.97318C10.949 1.9292 10.8526 1.86332 10.7729 1.77978C10.6931 1.69623 10.6318 1.59689 10.5928 1.48817C10.4429 1.06889 10.1671 0.706194 9.80309 0.449752C9.43909 0.193311 9.00472 0.0556641 8.55945 0.0556641C8.11419 0.0556641 7.67982 0.193311 7.31582 0.449752C6.95182 0.706194 6.67599 1.06889 6.52612 1.48817C6.48723 1.59696 6.42593 1.69637 6.34618 1.77997C6.26644 1.86357 6.17004 1.9295 6.06321 1.97348C5.95638 2.01747 5.84151 2.03854 5.72602 2.03533C5.61053 2.03212 5.49701 2.0047 5.39279 1.95484C4.9899 1.76209 4.53716 1.699 4.09693 1.77427C3.6567 1.84955 3.25064 2.05947 2.93469 2.37513C2.61874 2.69079 2.40844 3.09666 2.33276 3.53682C2.25708 3.97698 2.31974 4.42978 2.51212 4.83284C2.56209 4.93704 2.58959 5.05058 2.59286 5.1661C2.59612 5.28162 2.57507 5.39653 2.53107 5.50339C2.48707 5.61025 2.4211 5.70666 2.33744 5.78639C2.25379 5.86611 2.15431 5.92736 2.04545 5.96617C1.62647 6.11635 1.26411 6.39228 1.00793 6.75625C0.751751 7.12021 0.614258 7.55442 0.614258 7.99951C0.614258 8.44459 0.751751 8.8788 1.00793 9.24276C1.26411 9.60673 1.62647 9.88266 2.04545 10.0328C2.15453 10.0714 2.25429 10.1324 2.33825 10.212C2.42222 10.2916 2.48851 10.388 2.53282 10.4948C2.57714 10.6017 2.5985 10.7167 2.59551 10.8324C2.59251 10.948 2.56524 11.0617 2.51545 11.1662C2.32401 11.5686 2.26178 12.0203 2.33731 12.4595C2.41283 12.8986 2.62241 13.3036 2.93727 13.6189C3.25214 13.9342 3.65687 14.1444 4.09591 14.2205C4.53496 14.2967 4.98681 14.2351 5.38945 14.0442C5.49367 13.9943 5.6072 13.9669 5.72269 13.9637C5.83817 13.9605 5.95305 13.9815 6.05988 14.0255C6.16671 14.0695 6.26311 14.1354 6.34285 14.219C6.42259 14.3026 6.48389 14.4021 6.52279 14.5108C6.67266 14.9301 6.94849 15.2928 7.31248 15.5493C7.67648 15.8057 8.11086 15.9433 8.55612 15.9433C9.00138 15.9433 9.43576 15.8057 9.79976 15.5493C10.1638 15.2928 10.4396 14.9301 10.5895 14.5108C10.6283 14.4021 10.6896 14.3026 10.7694 14.219C10.8491 14.1354 10.9455 14.0695 11.0524 14.0255C11.1592 13.9815 11.2741 13.9605 11.3896 13.9637C11.505 13.9669 11.6186 13.9943 11.7228 14.0442C12.1254 14.2355 12.5774 14.2975 13.0167 14.2217C13.456 14.146 13.861 13.9361 14.1763 13.6209C14.4915 13.3057 14.7015 12.9007 14.7774 12.4614C14.8533 12.0222 14.7914 11.5702 14.6001 11.1675C14.5504 11.0633 14.523 10.9498 14.5199 10.8343C14.5167 10.7188 14.5378 10.604 14.5818 10.4972C14.6258 10.3904 14.6916 10.294 14.7752 10.2143C14.8587 10.1345 14.9581 10.0732 15.0668 10.0342C15.4861 9.8843 15.8488 9.60847 16.1052 9.24448C16.3616 8.88048 16.4993 8.4461 16.4993 8.00084C16.4993 7.55558 16.3616 7.1212 16.1052 6.7572C15.8488 6.3932 15.4861 6.11738 15.0668 5.96751L15.0695 5.96551ZM14.6228 8.77817C14.3382 8.87941 14.0779 9.03924 13.859 9.24734C13.64 9.45545 13.4671 9.70718 13.3515 9.98628C13.2359 10.2654 13.1801 10.5656 13.1878 10.8676C13.1955 11.1696 13.2665 11.4667 13.3961 11.7395C13.4695 11.8936 13.4933 12.0667 13.4644 12.2349C13.4354 12.4031 13.355 12.5582 13.2342 12.6789C13.1135 12.7995 12.9584 12.8798 12.7901 12.9087C12.6219 12.9376 12.4489 12.9137 12.2948 12.8402C12.022 12.7105 11.725 12.6395 11.4231 12.6319C11.1211 12.6242 10.8209 12.6799 10.5418 12.7955C10.2628 12.9112 10.0111 13.0841 9.80309 13.303C9.59505 13.522 9.43528 13.7822 9.33412 14.0668C9.27717 14.2277 9.17179 14.3669 9.03247 14.4654C8.89314 14.5638 8.72673 14.6167 8.55612 14.6167C8.38551 14.6167 8.2191 14.5638 8.07978 14.4654C7.94045 14.3669 7.83507 14.2277 7.77812 14.0668C7.6768 13.7823 7.51691 13.5221 7.3088 13.3032C7.10068 13.0843 6.84896 12.9114 6.56989 12.7958C6.29082 12.6802 5.9906 12.6244 5.68863 12.6321C5.38666 12.6397 5.08965 12.7106 4.81679 12.8402C4.6627 12.9133 4.48974 12.937 4.32167 12.9079C4.1536 12.8788 3.99865 12.7984 3.87811 12.6777C3.75757 12.557 3.67735 12.402 3.64847 12.2339C3.61958 12.0658 3.64345 11.8928 3.71679 11.7388C3.84644 11.466 3.91738 11.169 3.92502 10.867C3.93266 10.565 3.87684 10.2648 3.76116 9.98572C3.64548 9.70667 3.47251 9.455 3.25345 9.24699C3.0344 9.03898 2.77412 8.87927 2.48945 8.77817C2.32893 8.72092 2.19005 8.61542 2.09185 8.47614C1.99364 8.33685 1.94093 8.1706 1.94093 8.00017C1.94093 7.82975 1.99364 7.6635 2.09185 7.52421C2.19005 7.38492 2.32893 7.27942 2.48945 7.22217C2.77421 7.12111 3.03457 6.96137 3.25368 6.7533C3.47278 6.54524 3.64575 6.29347 3.76139 6.01432C3.87702 5.73516 3.93274 5.43483 3.92495 5.13277C3.91715 4.83071 3.846 4.53366 3.71612 4.26084C3.64287 4.10679 3.61911 3.93385 3.6481 3.76576C3.67709 3.59767 3.7574 3.44268 3.87801 3.32207C3.99863 3.20145 4.15362 3.12114 4.32171 3.09215C4.4898 3.06316 4.66274 3.08692 4.81679 3.16017C5.08964 3.28984 5.38666 3.36082 5.68866 3.36851C5.99066 3.3762 6.29091 3.32044 6.57001 3.20483C6.84911 3.08922 7.10085 2.91633 7.30895 2.69734C7.51705 2.47835 7.67688 2.21813 7.77812 1.9335C7.83507 1.77268 7.94045 1.63346 8.07978 1.53499C8.2191 1.43653 8.38551 1.38365 8.55612 1.38365C8.72673 1.38365 8.89314 1.43653 9.03247 1.53499C9.17179 1.63346 9.27717 1.77268 9.33412 1.9335C9.43536 2.21813 9.59519 2.47835 9.80329 2.69734C10.0114 2.91633 10.2631 3.08922 10.5422 3.20483C10.8213 3.32044 11.1216 3.3762 11.4236 3.36851C11.7256 3.36082 12.0226 3.28984 12.2955 3.16017C12.4496 3.08679 12.6226 3.06295 12.7908 3.09194C12.9591 3.12092 13.1142 3.20131 13.2348 3.32205C13.3555 3.44278 13.4358 3.59793 13.4647 3.76616C13.4935 3.93439 13.4696 4.10744 13.3961 4.26151C13.2665 4.53431 13.1955 4.83129 13.1878 5.13324C13.1801 5.43519 13.2359 5.7354 13.3515 6.01444C13.4671 6.29349 13.64 6.54517 13.859 6.75321C14.078 6.96125 14.3382 7.12101 14.6228 7.22217C14.7836 7.27912 14.9228 7.3845 15.0213 7.52383C15.1198 7.66315 15.1726 7.82957 15.1726 8.00017C15.1726 8.17078 15.1198 8.33719 15.0213 8.47652C14.9228 8.61584 14.7836 8.72123 14.6228 8.77817Z" fill="black"/>
</g>
<defs>
<clipPath id="clip0_483_13689">
<rect width="16" height="16" fill="white" transform="translate(0.555664)"/>
</clipPath>
</defs>
</svg>
