<svg width="17" height="16" viewBox="0 0 17 16" fill="none" xmlns="http://www.w3.org/2000/svg">
<g clip-path="url(#clip0_483_13682)">
<path d="M9.44499 8.66667C9.44605 8.90097 9.38535 9.13141 9.269 9.33479C9.15265 9.53816 8.98477 9.70729 8.78225 9.82513C8.57974 9.94297 8.34975 10.0054 8.11544 10.006C7.88114 10.0067 7.6508 9.94559 7.44762 9.8289C7.24444 9.71221 7.0756 9.54404 6.95811 9.34132C6.84061 9.13861 6.77861 8.90851 6.77834 8.67421C6.77807 8.43991 6.83955 8.20967 6.95659 8.00669C7.07362 7.80371 7.24208 7.63516 7.44499 7.518V4.66667C7.44499 4.48986 7.51523 4.32029 7.64025 4.19526C7.76528 4.07024 7.93485 4 8.11166 4C8.28847 4 8.45804 4.07024 8.58306 4.19526C8.70809 4.32029 8.77832 4.48986 8.77832 4.66667V7.518C8.9804 7.6342 9.14837 7.8015 9.26539 8.00311C9.3824 8.20472 9.44434 8.43356 9.44499 8.66667ZM13.485 3.69267C14.4563 4.73852 15.1013 6.04511 15.3409 7.4522C15.5805 8.85929 15.4043 10.3057 14.8338 11.6141C14.2633 12.9225 13.3234 14.036 12.1294 14.818C10.9353 15.6 9.539 16.0165 8.11166 16.0165C6.68431 16.0165 5.28799 15.6 4.09393 14.818C2.89987 14.036 1.95997 12.9225 1.3895 11.6141C0.819031 10.3057 0.642784 8.85929 0.882377 7.4522C1.12197 6.04511 1.76699 4.73852 2.73832 3.69267L2.29032 3.19467C2.01889 3.29021 1.73273 3.33716 1.44499 3.33333C1.26818 3.33333 1.09861 3.2631 0.973586 3.13807C0.848562 3.01305 0.778324 2.84348 0.778324 2.66667C0.778324 2.48986 0.848562 2.32029 0.973586 2.19526C1.09861 2.07024 1.26818 2 1.44499 2C1.96832 2 2.11166 1.85667 2.11166 1.33333C2.11166 1.15652 2.1819 0.986953 2.30692 0.861929C2.43194 0.736905 2.60151 0.666667 2.77832 0.666667C2.95514 0.666667 3.1247 0.736905 3.24973 0.861929C3.37475 0.986953 3.44499 1.15652 3.44499 1.33333C3.44887 1.65775 3.38531 1.97944 3.25832 2.278L3.72899 2.80067C4.81039 1.98685 6.09719 1.4905 7.44499 1.36733V0.666667C7.44499 0.489856 7.51523 0.320286 7.64025 0.195262C7.76528 0.0702379 7.93485 0 8.11166 0C8.28847 0 8.45804 0.0702379 8.58306 0.195262C8.70809 0.320286 8.77832 0.489856 8.77832 0.666667V1.36733C10.1261 1.49031 11.4128 1.98642 12.4943 2.8L12.965 2.27733C12.8381 1.97898 12.7745 1.65753 12.7783 1.33333C12.7783 1.15652 12.8486 0.986953 12.9736 0.861929C13.0986 0.736905 13.2682 0.666667 13.445 0.666667C13.6218 0.666667 13.7914 0.736905 13.9164 0.861929C14.0414 0.986953 14.1117 1.15652 14.1117 1.33333C14.1117 1.85667 14.255 2 14.7783 2C14.9551 2 15.1247 2.07024 15.2497 2.19526C15.3748 2.32029 15.445 2.48986 15.445 2.66667C15.445 2.84348 15.3748 3.01305 15.2497 3.13807C15.1247 3.2631 14.9551 3.33333 14.7783 3.33333C14.4906 3.33716 14.2044 3.29021 13.933 3.19467L13.485 3.69267ZM14.1117 8.66667C14.1117 7.47998 13.7598 6.31994 13.1005 5.33325C12.4412 4.34655 11.5041 3.57752 10.4078 3.12339C9.3114 2.66926 8.105 2.55044 6.94112 2.78196C5.77723 3.01347 4.70813 3.58491 3.86902 4.42403C3.0299 5.26314 2.45846 6.33224 2.22695 7.49613C1.99543 8.66001 2.11425 9.86641 2.56838 10.9628C3.02251 12.0591 3.79154 12.9962 4.77824 13.6555C5.76493 14.3148 6.92497 14.6667 8.11166 14.6667C9.70242 14.6649 11.2275 14.0322 12.3524 12.9074C13.4772 11.7825 14.1099 10.2574 14.1117 8.66667Z" fill="black"/>
</g>
<defs>
<clipPath id="clip0_483_13682">
<rect width="16" height="16" fill="white" transform="translate(0.111328)"/>
</clipPath>
</defs>
</svg>
