<svg width="16" height="16" viewBox="0 0 16 16" fill="none" xmlns="http://www.w3.org/2000/svg">
<g clip-path="url(#clip0_482_18051)">
<path d="M12.6667 2.0002H8.31467C8.21156 2.00088 8.10965 1.97809 8.01667 1.93354L5.91267 0.877537C5.63493 0.739234 5.32893 0.667128 5.01867 0.66687H3.33333C2.4496 0.667929 1.60237 1.01946 0.97748 1.64435C0.352588 2.26924 0.00105857 3.11647 0 4.0002L0 12.0002C0.00105857 12.8839 0.352588 13.7312 0.97748 14.3561C1.60237 14.9809 2.4496 15.3325 3.33333 15.3335H12.6667C13.5504 15.3325 14.3976 14.9809 15.0225 14.3561C15.6474 13.7312 15.9989 12.8839 16 12.0002V5.33354C15.9989 4.44981 15.6474 3.60258 15.0225 2.97768C14.3976 2.35279 13.5504 2.00126 12.6667 2.0002ZM3.33333 2.0002H5.01867C5.12177 1.99952 5.22368 2.02232 5.31667 2.06687L7.42067 3.11954C7.69813 3.25899 8.00413 3.33224 8.31467 3.33354H12.6667C13.0654 3.33419 13.4548 3.45398 13.7849 3.67754C14.115 3.90111 14.3708 4.21823 14.5193 4.5882L1.33333 4.66287V4.0002C1.33333 3.46977 1.54405 2.96106 1.91912 2.58599C2.29419 2.21092 2.8029 2.0002 3.33333 2.0002ZM12.6667 14.0002H3.33333C2.8029 14.0002 2.29419 13.7895 1.91912 13.4144C1.54405 13.0393 1.33333 12.5306 1.33333 12.0002V5.9962L14.6667 5.92087V12.0002C14.6667 12.5306 14.456 13.0393 14.0809 13.4144C13.7058 13.7895 13.1971 14.0002 12.6667 14.0002Z" fill="black"/>
</g>
<defs>
<clipPath id="clip0_482_18051">
<rect width="16" height="16" fill="white"/>
</clipPath>
</defs>
</svg>
