<svg width="17" height="16" viewBox="0 0 17 16" fill="none" xmlns="http://www.w3.org/2000/svg">
<g clip-path="url(#clip0_483_13855)">
<path d="M5.04429 3.7018C4.98278 3.59847 4.89548 3.5129 4.79094 3.45347C4.6864 3.39404 4.56821 3.36279 4.44796 3.36279C4.32771 3.36279 4.20952 3.39404 4.10498 3.45347C4.00044 3.5129 3.91314 3.59847 3.85163 3.7018L0.184961 11.0351C0.145018 11.1135 0.120989 11.1991 0.114258 11.2868C0.107528 11.3745 0.118229 11.4627 0.145746 11.5463C0.173262 11.6298 0.217049 11.7071 0.274583 11.7737C0.332116 11.8403 0.402257 11.8948 0.480962 11.9341C0.559667 11.9735 0.64538 11.9968 0.733157 12.0029C0.820934 12.0089 0.90904 11.9975 0.992394 11.9694C1.07575 11.9412 1.1527 11.8968 1.21882 11.8388C1.28494 11.7807 1.33891 11.7101 1.37763 11.6311L2.52363 9.33313H6.36629L7.51563 11.6311C7.55434 11.7101 7.60832 11.7807 7.67443 11.8388C7.74055 11.8968 7.81751 11.9412 7.90086 11.9694C7.98422 11.9975 8.07232 12.0089 8.1601 12.0029C8.24788 11.9968 8.33359 11.9735 8.41229 11.9341C8.491 11.8948 8.56114 11.8403 8.61867 11.7737C8.67621 11.7071 8.71999 11.6298 8.74751 11.5463C8.77503 11.4627 8.78573 11.3745 8.779 11.2868C8.77227 11.1991 8.74824 11.1135 8.70829 11.0351L5.04429 3.7018ZM3.19029 7.9998L4.44429 5.49046L5.69963 7.9998H3.19029Z" fill="black"/>
<path d="M15.4443 5.33313C15.2675 5.33313 15.0979 5.40337 14.9729 5.52839C14.8479 5.65342 14.7777 5.82299 14.7777 5.9998V6.01713C14.2041 5.57593 13.5013 5.33558 12.7777 5.33313C11.8936 5.33313 11.0458 5.68432 10.4206 6.30944C9.79552 6.93456 9.44434 7.78241 9.44434 8.66646C9.44434 9.55052 9.79552 10.3984 10.4206 11.0235C11.0458 11.6486 11.8936 11.9998 12.7777 11.9998C13.5013 11.9973 14.2041 11.757 14.7777 11.3158V11.3331C14.7777 11.5099 14.8479 11.6795 14.9729 11.8045C15.0979 11.9296 15.2675 11.9998 15.4443 11.9998C15.6211 11.9998 15.7907 11.9296 15.9157 11.8045C16.0407 11.6795 16.111 11.5099 16.111 11.3331V5.9998C16.111 5.82299 16.0407 5.65342 15.9157 5.52839C15.7907 5.40337 15.6211 5.33313 15.4443 5.33313ZM12.7777 10.6665C12.3821 10.6665 11.9954 10.5492 11.6665 10.3294C11.3376 10.1096 11.0813 9.79728 10.9299 9.43183C10.7785 9.06638 10.7389 8.66424 10.8161 8.27628C10.8933 7.88832 11.0837 7.53195 11.3635 7.25225C11.6432 6.97254 11.9995 6.78206 12.3875 6.70489C12.7754 6.62772 13.1776 6.66733 13.543 6.8187C13.9085 6.97008 14.2208 7.22642 14.4406 7.55532C14.6604 7.88422 14.7777 8.2709 14.7777 8.66646C14.7777 9.1969 14.5669 9.7056 14.1919 10.0807C13.8168 10.4557 13.3081 10.6665 12.7777 10.6665Z" fill="black"/>
</g>
<defs>
<clipPath id="clip0_483_13855">
<rect width="16" height="16" fill="white" transform="translate(0.111328)"/>
</clipPath>
</defs>
</svg>
