<svg width="17" height="16" viewBox="0 0 17 16" fill="none" xmlns="http://www.w3.org/2000/svg">
<g clip-path="url(#clip0_483_13676)">
<path d="M11.3832 15.9995C10.869 15.999 10.376 15.7945 10.0125 15.4309C9.64887 15.0674 9.44438 14.5744 9.44385 14.0602V9.99954C9.44385 9.82272 9.37361 9.65316 9.24859 9.52813C9.12356 9.40311 8.95399 9.33287 8.77718 9.33287C8.60037 9.33287 8.4308 9.40311 8.30578 9.52813C8.18076 9.65316 8.11052 9.82272 8.11052 9.99954V14.0602C8.11054 14.4859 7.97055 14.8998 7.71212 15.2381C7.45369 15.5763 7.09117 15.8202 6.68044 15.9321C6.26971 16.044 5.83358 16.0177 5.43928 15.8572C5.04499 15.6968 4.71441 15.4111 4.49852 15.0442C2.90118 12.3082 0.777183 8.18553 0.777183 3.99953C0.757064 3.46885 0.846765 2.93972 1.04066 2.44532C1.23456 1.95091 1.52848 1.50188 1.90401 1.12636C2.27953 0.750835 2.72856 0.456915 3.22297 0.263016C3.71737 0.0691161 4.2465 -0.0205847 4.77718 -0.000466322C5.66319 -0.000125539 6.54374 0.138199 7.38718 0.409534C7.8349 0.5648 8.30355 0.651338 8.77718 0.6662C9.25082 0.651338 9.71947 0.5648 10.1672 0.409534C11.0106 0.138114 11.8912 -0.000212362 12.7772 -0.000466322C13.3079 -0.0205847 13.837 0.0691161 14.3314 0.263016C14.8258 0.456915 15.2748 0.750835 15.6504 1.12636C16.0259 1.50188 16.3198 1.95091 16.5137 2.44532C16.7076 2.93972 16.7973 3.46885 16.7772 3.99953C16.7772 8.18487 14.6532 12.3075 13.0559 15.0442C12.8843 15.3353 12.6398 15.5765 12.3464 15.744C12.053 15.9116 11.721 15.9997 11.3832 15.9995ZM8.77718 7.99953C9.30762 7.99953 9.81633 8.21025 10.1914 8.58532C10.5665 8.96039 10.7772 9.4691 10.7772 9.99954V14.0602C10.7774 14.1928 10.8211 14.3217 10.9014 14.4271C10.9818 14.5326 11.0944 14.6089 11.2222 14.6443C11.35 14.6798 11.4858 14.6724 11.609 14.6234C11.7322 14.5744 11.836 14.4864 11.9045 14.3729C13.4239 11.7689 15.4439 7.86153 15.4439 3.99953C15.4579 3.64557 15.3986 3.29253 15.2696 2.96262C15.1405 2.63271 14.9446 2.33309 14.6941 2.0826C14.4436 1.83211 14.144 1.63619 13.8141 1.50716C13.4842 1.37813 13.1311 1.31879 12.7772 1.33287C12.0167 1.33247 11.2611 1.45309 10.5385 1.6902C9.97026 1.88112 9.37649 1.9854 8.77718 1.99953C8.17787 1.98546 7.5841 1.88118 7.01585 1.6902C6.29329 1.45316 5.53763 1.33254 4.77718 1.33287C2.14052 1.33287 2.11052 3.89087 2.11052 3.99953C2.11052 7.8622 4.13052 11.7695 5.65052 14.3729C5.71884 14.4866 5.82256 14.5747 5.94577 14.6239C6.06899 14.673 6.20492 14.6804 6.33274 14.645C6.46057 14.6095 6.57324 14.5331 6.65351 14.4275C6.73378 14.3219 6.77722 14.1929 6.77718 14.0602V9.99954C6.77718 9.4691 6.9879 8.96039 7.36297 8.58532C7.73804 8.21025 8.24675 7.99953 8.77718 7.99953Z" fill="black"/>
</g>
<defs>
<clipPath id="clip0_483_13676">
<rect width="16" height="16" fill="white" transform="translate(0.777344)"/>
</clipPath>
</defs>
</svg>
