<svg width="17" height="16" viewBox="0 0 17 16" fill="none" xmlns="http://www.w3.org/2000/svg">
<g clip-path="url(#clip0_482_17975)">
<path d="M14.2389 14.684H13.5723V13.5806C13.5708 13.2232 13.4978 12.8697 13.3576 12.541C13.2173 12.2123 13.0126 11.915 12.7556 11.6666C11.4729 10.4273 10.9496 9.00731 10.9116 6.68264H11.5702C11.7471 6.68264 11.9166 6.61241 12.0417 6.48738C12.1667 6.36236 12.2369 6.19279 12.2369 6.01598C12.2369 5.83917 12.1667 5.6696 12.0417 5.54457C11.9166 5.41955 11.7471 5.34931 11.5702 5.34931H11.1996C11.4398 4.94588 11.5678 4.48553 11.5702 4.01598C11.5702 3.09931 10.7956 1.53798 10.3082 0.769311C10.1575 0.533676 9.94991 0.339766 9.70455 0.20545C9.45919 0.071134 9.18397 0.000732422 8.90425 0.000732422C8.62453 0.000732422 8.34931 0.071134 8.10395 0.20545C7.85859 0.339766 7.65098 0.533676 7.50025 0.769311C7.01225 1.53864 6.23758 3.10264 6.23758 4.01664C6.24035 4.48615 6.3683 4.94641 6.60825 5.34998H6.23958C6.06277 5.34998 5.8932 5.42022 5.76818 5.54524C5.64315 5.67026 5.57292 5.83983 5.57292 6.01664C5.57292 6.19346 5.64315 6.36303 5.76818 6.48805C5.8932 6.61307 6.06277 6.68331 6.23958 6.68331H6.89892C6.86025 9.00798 6.33625 10.4273 5.05492 11.6666C4.79835 11.9151 4.59404 12.2124 4.45403 12.541C4.31401 12.8696 4.2411 13.2228 4.23958 13.58V14.6833H3.57292C3.39611 14.6833 3.22654 14.7536 3.10151 14.8786C2.97649 15.0036 2.90625 15.1732 2.90625 15.35C2.90625 15.5268 2.97649 15.6964 3.10151 15.8214C3.22654 15.9464 3.39611 16.0166 3.57292 16.0166H14.2396C14.4164 16.0166 14.586 15.9464 14.711 15.8214C14.836 15.6964 14.9062 15.5268 14.9062 15.35C14.9062 15.1732 14.836 15.0036 14.711 14.8786C14.586 14.7536 14.4164 14.6833 14.2396 14.6833L14.2389 14.684ZM8.62758 1.48398C8.65794 1.43791 8.69927 1.40009 8.74785 1.37392C8.79643 1.34776 8.85074 1.33406 8.90592 1.33406C8.96109 1.33406 9.01541 1.34776 9.06399 1.37392C9.11257 1.40009 9.15389 1.43791 9.18425 1.48398C9.69567 2.25262 10.0538 3.11283 10.2389 4.01731C10.2389 4.37093 10.0984 4.71007 9.84839 4.96012C9.59834 5.21017 9.25921 5.35064 8.90558 5.35064C8.55196 5.35064 8.21282 5.21017 7.96277 4.96012C7.71273 4.71007 7.57225 4.37093 7.57225 4.01731C7.75784 3.11307 8.11617 2.25312 8.62758 1.48464V1.48398ZM9.58092 6.68398C9.61692 9.02798 10.1143 10.6513 11.2623 12.0173H6.54958C7.69625 10.6513 8.19492 9.02731 8.23158 6.68398H9.58092ZM5.57292 13.5806C5.57391 13.5034 5.58194 13.4264 5.59692 13.3506H12.2156C12.23 13.4265 12.2378 13.5034 12.2389 13.5806V14.684H5.57225L5.57292 13.5806Z" fill="black"/>
</g>
<defs>
<clipPath id="clip0_482_17975">
<rect width="16" height="16" fill="white" transform="translate(0.888672)"/>
</clipPath>
</defs>
</svg>
