<svg width="17" height="16" viewBox="0 0 17 16" fill="none" xmlns="http://www.w3.org/2000/svg">
<g clip-path="url(#clip0_483_13648)">
<path d="M15.5559 15.9995C15.3791 15.9995 15.2095 15.9293 15.0845 15.8043C14.9595 15.6792 14.8893 15.5097 14.8893 15.3328C14.8882 14.2723 14.4664 13.2555 13.7165 12.5056C12.9666 11.7557 11.9498 11.3339 10.8893 11.3329H7.00259V12.3902C7.00253 12.6539 6.9243 12.9116 6.77779 13.1308C6.63128 13.35 6.42306 13.5209 6.17946 13.6218C5.93586 13.7226 5.66782 13.7491 5.40921 13.6976C5.15061 13.6462 4.91306 13.5193 4.72659 13.3329L0.807253 9.41352C0.43231 9.03847 0.22168 8.52985 0.22168 7.99953C0.22168 7.4692 0.43231 6.96058 0.807253 6.58553L4.72659 2.6662C4.91306 2.47979 5.15061 2.35285 5.40921 2.30142C5.66782 2.25 5.93586 2.2764 6.17946 2.3773C6.42306 2.47819 6.63128 2.64904 6.77779 2.86825C6.9243 3.08747 7.00253 3.3452 7.00259 3.60887V4.6662H10.2226C11.8133 4.66796 13.3384 5.30067 14.4633 6.4255C15.5881 7.55034 16.2208 9.07543 16.2226 10.6662V15.3328C16.2226 15.5097 16.1524 15.6792 16.0273 15.8043C15.9023 15.9293 15.7327 15.9995 15.5559 15.9995ZM5.66925 3.60887L1.74992 7.52819C1.62494 7.65321 1.55473 7.82275 1.55473 7.99953C1.55473 8.1763 1.62494 8.34584 1.74992 8.47086L5.66925 12.3902V10.6662C5.66925 10.4894 5.73949 10.3198 5.86452 10.1948C5.98954 10.0698 6.15911 9.99952 6.33592 9.99952H10.8893C11.6463 9.9993 12.3947 10.1606 13.0845 10.4726C13.7743 10.7846 14.3895 11.2401 14.8893 11.8089V10.6662C14.8878 9.42895 14.3957 8.24278 13.5209 7.36792C12.646 6.49306 11.4598 6.00094 10.2226 5.99953H6.33592C6.15911 5.99953 5.98954 5.92929 5.86452 5.80427C5.73949 5.67924 5.66925 5.50967 5.66925 5.33286V3.60887Z" fill="black"/>
</g>
<defs>
<clipPath id="clip0_483_13648">
<rect width="16" height="16" fill="white" transform="translate(0.222656)"/>
</clipPath>
</defs>
</svg>
