<svg width="17" height="16" viewBox="0 0 17 16" fill="none" xmlns="http://www.w3.org/2000/svg">
<g clip-path="url(#clip0_482_18076)">
<path d="M6.52504 8.71125C4.98037 9.00858 4.21504 10.7286 3.88304 11.8006C3.85173 11.9005 3.8444 12.0064 3.86164 12.1097C3.87888 12.213 3.92021 12.3107 3.98227 12.3951C4.04434 12.4794 4.1254 12.5479 4.21889 12.5951C4.31237 12.6423 4.41566 12.6668 4.52037 12.6666H6.9997C7.27778 12.6666 7.55281 12.6087 7.80723 12.4965C8.06165 12.3842 8.28988 12.2202 8.47733 12.0148C8.66478 11.8094 8.80734 11.5672 8.89591 11.3036C8.98448 11.04 9.0171 10.7608 8.9917 10.4839C8.95627 10.201 8.8628 9.9284 8.71714 9.68325C8.57148 9.43811 8.37678 9.22569 8.14522 9.05928C7.91366 8.89287 7.65024 8.77607 7.37145 8.71618C7.09266 8.65629 6.80451 8.65461 6.52504 8.71125Z" fill="black"/>
<path d="M15.6663 5.986C15.4895 5.986 15.32 6.05624 15.1949 6.18126C15.0699 6.30629 14.9997 6.47586 14.9997 6.65267V10H12.333C11.8026 10 11.2939 10.2107 10.9188 10.5858C10.5437 10.9609 10.333 11.4696 10.333 12V14.6667H3.66634C3.13591 14.6667 2.6272 14.456 2.25213 14.0809C1.87705 13.7058 1.66634 13.1971 1.66634 12.6667V3.33333C1.66634 2.8029 1.87705 2.29419 2.25213 1.91912C2.6272 1.54405 3.13591 1.33333 3.66634 1.33333H11.0277C11.2045 1.33333 11.3741 1.2631 11.4991 1.13807C11.6241 1.01305 11.6943 0.843478 11.6943 0.666667C11.6943 0.489856 11.6241 0.320286 11.4991 0.195262C11.3741 0.0702379 11.2045 0 11.0277 0L3.66634 0C2.78261 0.00105857 1.93538 0.352588 1.31049 0.97748C0.685596 1.60237 0.334066 2.4496 0.333008 3.33333L0.333008 12.6667C0.334066 13.5504 0.685596 14.3976 1.31049 15.0225C1.93538 15.6474 2.78261 15.9989 3.66634 16H11.2283C11.6662 16.0012 12.0999 15.9156 12.5044 15.7481C12.909 15.5805 13.2762 15.3344 13.585 15.024L15.357 13.252C15.6674 12.9432 15.9136 12.576 16.0811 12.1714C16.2486 11.7669 16.3342 11.3332 16.333 10.8953V6.65267C16.333 6.47586 16.2628 6.30629 16.1377 6.18126C16.0127 6.05624 15.8432 5.986 15.6663 5.986ZM12.6423 14.0813C12.3735 14.3472 12.0353 14.532 11.6663 14.6147V12C11.6663 11.8232 11.7366 11.6536 11.8616 11.5286C11.9866 11.4036 12.1562 11.3333 12.333 11.3333H14.9497C14.867 11.7023 14.6822 12.0405 14.4163 12.3093L12.6423 14.0813Z" fill="black"/>
<path d="M10.0438 9.44656C9.91192 9.44654 9.78305 9.40742 9.67345 9.33417C9.56384 9.26091 9.47841 9.1568 9.42797 9.035C9.37752 8.9132 9.36432 8.77918 9.39003 8.64988C9.41574 8.52057 9.47921 8.4018 9.57242 8.30856L14.8078 3.07323C14.8663 3.01484 14.9127 2.94547 14.9444 2.86912C14.976 2.79276 14.9923 2.7109 14.9923 2.62823C14.9923 2.54556 14.976 2.46371 14.9444 2.38735C14.9127 2.31099 14.8663 2.24162 14.8078 2.18323C14.7482 2.12135 14.6761 2.07296 14.5963 2.04133C14.5165 2.00971 14.4308 1.99558 14.3451 1.9999C14.2594 2.00176 14.175 2.02132 14.0972 2.05734C14.0194 2.09336 13.9499 2.14508 13.8931 2.20923L8.82642 7.8139C8.70787 7.94509 8.54205 8.02382 8.36546 8.03276C8.18886 8.0417 8.01595 7.98012 7.88475 7.86156C7.75356 7.74301 7.67483 7.5772 7.66589 7.4006C7.65695 7.22401 7.71853 7.05109 7.83708 6.9199L12.9038 1.3199C13.0814 1.12154 13.2976 0.96135 13.539 0.849043C13.7805 0.736736 14.0422 0.674654 14.3084 0.666564C14.575 0.660851 14.84 0.708778 15.0878 0.807497C15.3355 0.906216 15.5608 1.05371 15.7504 1.24123C16.1179 1.60955 16.3243 2.1086 16.3243 2.6289C16.3243 3.14919 16.1179 3.64825 15.7504 4.01656L10.5151 9.2519C10.4533 9.31389 10.3798 9.36302 10.2989 9.39644C10.218 9.42985 10.1313 9.44689 10.0438 9.44656Z" fill="black"/>
</g>
<defs>
<clipPath id="clip0_482_18076">
<rect width="16" height="16" fill="white" transform="translate(0.333008)"/>
</clipPath>
</defs>
</svg>
