<svg width="16" height="16" viewBox="0 0 16 16" fill="none" xmlns="http://www.w3.org/2000/svg">
<g clip-path="url(#clip0_483_13624)">
<path d="M2.00031 14.0821C1.86527 14.082 1.73345 14.0408 1.62231 13.9641C1.09406 13.6211 0.665669 13.1447 0.380398 12.5831C0.0951265 12.0215 -0.0369307 11.3946 -0.00244078 10.7657C0.0320491 10.1368 0.231865 9.52808 0.576833 9.00106C0.921802 8.47405 1.39971 8.04738 1.96231 7.76413C1.38348 6.71196 1.19461 5.48925 1.42897 4.31146C1.65688 3.14635 2.26701 2.09058 3.16273 1.3114C4.05844 0.532213 5.18853 0.0741616 6.37398 0.00979986C7.55943 -0.0545619 8.73246 0.278445 9.70727 0.956073C10.6821 1.6337 11.4029 2.6172 11.7556 3.7508C11.7892 3.86572 11.8507 3.97052 11.9347 4.05581C12.0187 4.1411 12.1226 4.2042 12.237 4.23946C13.0757 4.49642 13.838 4.95675 14.4558 5.57949C15.0737 6.20222 15.528 6.96804 15.7783 7.8088C15.8247 7.97691 15.8033 8.1565 15.7188 8.30905C15.6344 8.46161 15.4935 8.57498 15.3264 8.62487C15.1592 8.67476 14.9793 8.65718 14.825 8.57591C14.6707 8.49464 14.5544 8.35615 14.501 8.19013C14.3131 7.55987 13.9723 6.98579 13.5091 6.51894C13.0458 6.05209 12.4744 5.70693 11.8456 5.51413C11.5244 5.41434 11.2323 5.23763 10.9949 4.99934C10.7574 4.76106 10.5817 4.4684 10.483 4.1468C10.3227 3.61276 10.0526 3.11813 9.68994 2.69463C9.32728 2.27114 8.88008 1.92814 8.37706 1.68765C7.87403 1.44716 7.32628 1.31449 6.76896 1.29815C6.21164 1.28181 5.65706 1.38217 5.14081 1.59277C4.62456 1.80338 4.15804 2.11959 3.77119 2.52111C3.38434 2.92263 3.0857 3.40059 2.89444 3.92432C2.70318 4.44805 2.62353 5.00598 2.66059 5.56231C2.69765 6.11863 2.85061 6.66107 3.10964 7.1548C3.27481 7.46284 3.31201 7.82353 3.21319 8.1588C3.11436 8.49406 2.88748 8.77692 2.58164 8.94613C2.22245 9.1228 1.91697 9.39222 1.69683 9.72654C1.47668 10.0609 1.34985 10.4479 1.32945 10.8477C1.30906 11.2475 1.39585 11.6454 1.58083 12.0004C1.76582 12.3554 2.04229 12.6545 2.38164 12.8668C2.49883 12.9477 2.58704 13.064 2.63336 13.1986C2.67968 13.3333 2.68167 13.4792 2.63904 13.6151C2.59642 13.7509 2.51141 13.8696 2.39647 13.9536C2.28153 14.0377 2.1427 14.0827 2.00031 14.0821ZM12.7336 16.0001C12.9726 15.989 13.2098 15.9537 13.4416 15.8948C14.0423 15.7554 14.5919 15.4504 15.0279 15.0144C15.4639 14.5783 15.7689 14.0288 15.9083 13.4281C16.1099 12.584 15.9752 11.6945 15.5326 10.948C15.09 10.2014 14.3743 9.65634 13.537 9.42813C13.537 9.42813 13.1176 9.33146 13.0263 9.11413C12.7038 8.33608 12.1439 7.67967 11.4265 7.23848C10.7091 6.79728 9.87066 6.59381 9.03079 6.65705C8.19092 6.7203 7.39245 7.04704 6.74918 7.59071C6.1059 8.13437 5.65065 8.86722 5.44831 9.6848C5.30425 10.282 5.29129 10.9034 5.41031 11.5061C4.96629 11.6971 4.59253 12.0212 4.34065 12.4337C4.08878 12.8462 3.97123 13.3268 4.00423 13.809C4.03724 14.2912 4.21917 14.7513 4.52491 15.1256C4.83064 15.5 5.24508 15.7701 5.71098 15.8988C5.89195 15.9532 6.07844 15.9872 6.26697 16.0001H12.7336ZM11.8003 9.62946C11.9162 9.91728 12.1058 10.1695 12.3502 10.3606C12.5946 10.5517 12.8851 10.675 13.1923 10.7181C13.6961 10.8572 14.1261 11.1868 14.3914 11.6372C14.6566 12.0875 14.7363 12.6234 14.6136 13.1315C14.5275 13.4866 14.345 13.8112 14.0862 14.0692C13.8274 14.3273 13.5024 14.5089 13.147 14.5941C13.0036 14.627 12.8573 14.6454 12.7103 14.6488C11.6003 14.6708 7.19631 14.6741 6.31031 14.6488C6.22498 14.6461 6.14022 14.6338 6.05764 14.6121C5.89449 14.5677 5.74559 14.4819 5.62539 14.363C5.50519 14.2441 5.41778 14.0961 5.37164 13.9335C5.30291 13.6992 5.32266 13.4479 5.42714 13.2272C5.53162 13.0066 5.71354 12.8321 5.93831 12.7368C6.22892 12.6137 6.46698 12.3923 6.6108 12.1114C6.75462 11.8304 6.79503 11.5079 6.72498 11.2001C6.6412 10.8055 6.64827 10.397 6.74564 10.0055C6.88144 9.46094 7.18556 8.97314 7.61471 8.61152C8.04386 8.24989 8.57615 8.03287 9.13581 7.99136C9.69547 7.94985 10.254 8.08596 10.7318 8.38032C11.2096 8.67468 11.5823 9.11227 11.797 9.6308L11.8003 9.62946Z" fill="black"/>
</g>
<defs>
<clipPath id="clip0_483_13624">
<rect width="16" height="16" fill="white"/>
</clipPath>
</defs>
</svg>
