<svg width="17" height="16" viewBox="0 0 17 16" fill="none" xmlns="http://www.w3.org/2000/svg">
<g clip-path="url(#clip0_482_18003)">
<path d="M16.0003 14.6667H4.00033C3.46989 14.6667 2.96118 14.456 2.58611 14.0809C2.21104 13.7058 2.00033 13.1971 2.00033 12.6667V0.666667C2.00033 0.489856 1.93009 0.320286 1.80506 0.195262C1.68004 0.0702379 1.51047 0 1.33366 0C1.15685 0 0.987279 0.0702379 0.862254 0.195262C0.73723 0.320286 0.666992 0.489856 0.666992 0.666667L0.666992 12.6667C0.668051 13.5504 1.01958 14.3976 1.64447 15.0225C2.26936 15.6474 3.1166 15.9989 4.00033 16H16.0003C16.1771 16 16.3467 15.9298 16.4717 15.8047C16.5968 15.6797 16.667 15.5101 16.667 15.3333C16.667 15.1565 16.5968 14.987 16.4717 14.8619C16.3467 14.7369 16.1771 14.6667 16.0003 14.6667Z" fill="black"/>
<path d="M4.66667 13.3333C4.84348 13.3333 5.01304 13.263 5.13807 13.138C5.26309 13.013 5.33333 12.8434 5.33333 12.6666V7.99992C5.33333 7.82311 5.26309 7.65354 5.13807 7.52851C5.01304 7.40349 4.84348 7.33325 4.66667 7.33325C4.48985 7.33325 4.32029 7.40349 4.19526 7.52851C4.07024 7.65354 4 7.82311 4 7.99992V12.6666C4 12.8434 4.07024 13.013 4.19526 13.138C4.32029 13.263 4.48985 13.3333 4.66667 13.3333Z" fill="black"/>
<path d="M7.33398 6.66667V12.6667C7.33398 12.8435 7.40422 13.013 7.52925 13.1381C7.65427 13.2631 7.82384 13.3333 8.00065 13.3333C8.17747 13.3333 8.34704 13.2631 8.47206 13.1381C8.59709 13.013 8.66733 12.8435 8.66733 12.6667V6.66667C8.66733 6.48986 8.59709 6.32029 8.47206 6.19526C8.34704 6.07024 8.17747 6 8.00065 6C7.82384 6 7.65427 6.07024 7.52925 6.19526C7.40422 6.32029 7.33398 6.48986 7.33398 6.66667Z" fill="black"/>
<path d="M10.667 8.66667V12.6667C10.667 12.8435 10.7372 13.013 10.8623 13.1381C10.9873 13.2631 11.1569 13.3333 11.3337 13.3333C11.5105 13.3333 11.68 13.2631 11.8051 13.1381C11.9301 13.013 12.0003 12.8435 12.0003 12.6667V8.66667C12.0003 8.48985 11.9301 8.32029 11.8051 8.19526C11.68 8.07024 11.5105 8 11.3337 8C11.1569 8 10.9873 8.07024 10.8623 8.19526C10.7372 8.32029 10.667 8.48985 10.667 8.66667Z" fill="black"/>
<path d="M14 5.99992V12.6666C14 12.8434 14.0702 13.013 14.1953 13.138C14.3203 13.263 14.4899 13.3333 14.6667 13.3333C14.8435 13.3333 15.0131 13.263 15.1381 13.138C15.2631 13.013 15.3333 12.8434 15.3333 12.6666V5.99992C15.3333 5.82311 15.2631 5.65354 15.1381 5.52851C15.0131 5.40349 14.8435 5.33325 14.6667 5.33325C14.4899 5.33325 14.3203 5.40349 14.1953 5.52851C14.0702 5.65354 14 5.82311 14 5.99992Z" fill="black"/>
<path d="M4.66652 5.99999C4.84332 5.99995 5.01286 5.92969 5.13786 5.80465L7.52852 3.41399C7.65559 3.29294 7.82436 3.22542 7.99986 3.22542C8.17535 3.22542 8.34412 3.29294 8.47119 3.41399L9.91919 4.86199C10.2942 5.23693 10.8029 5.44756 11.3332 5.44756C11.8635 5.44756 12.3721 5.23693 12.7472 4.86199L16.4712 1.13799C16.5926 1.01225 16.6598 0.84385 16.6583 0.669052C16.6568 0.494255 16.5867 0.327046 16.4631 0.203441C16.3395 0.0798355 16.1723 0.00972286 15.9975 0.00820391C15.8227 0.00668497 15.6543 0.0738812 15.5285 0.19532L11.8045 3.91865C11.6795 4.04363 11.51 4.11384 11.3332 4.11384C11.1564 4.11384 10.9869 4.04363 10.8619 3.91865L9.41386 2.47132C9.0388 2.09638 8.53019 1.88575 7.99986 1.88575C7.46953 1.88575 6.96091 2.09638 6.58586 2.47132L4.19519 4.86199C4.10199 4.95522 4.03851 5.074 4.0128 5.2033C3.98709 5.3326 4.00029 5.46662 4.05074 5.58842C4.10119 5.71022 4.18661 5.81433 4.29622 5.88759C4.40583 5.96084 4.53469 5.99996 4.66652 5.99999Z" fill="black"/>
</g>
<defs>
<clipPath id="clip0_482_18003">
<rect width="16" height="16" fill="white" transform="translate(0.666992)"/>
</clipPath>
</defs>
</svg>
