<svg width="17" height="16" viewBox="0 0 17 16" fill="none" xmlns="http://www.w3.org/2000/svg">
<g clip-path="url(#clip0_482_17999)">
<path d="M12.1117 0H5.44499C4.79714 0.00085225 4.16359 0.19047 3.62179 0.545666C3.08 0.900862 2.65346 1.40624 2.39432 2H1.44499C1.26818 2 1.09861 2.07024 0.973582 2.19526C0.848558 2.32029 0.77832 2.48986 0.77832 2.66667C0.77832 2.84348 0.848558 3.01305 0.973582 3.13807C1.09861 3.2631 1.26818 3.33333 1.44499 3.33333H2.11165V4.66667H1.44499C1.26818 4.66667 1.09861 4.7369 0.973582 4.86193C0.848558 4.98695 0.77832 5.15652 0.77832 5.33333C0.77832 5.51014 0.848558 5.67971 0.973582 5.80474C1.09861 5.92976 1.26818 6 1.44499 6H2.11165V7.33333H1.44499C1.26818 7.33333 1.09861 7.40357 0.973582 7.5286C0.848558 7.65362 0.77832 7.82319 0.77832 8C0.77832 8.17681 0.848558 8.34638 0.973582 8.47141C1.09861 8.59643 1.26818 8.66667 1.44499 8.66667H2.11165V10H1.44499C1.26818 10 1.09861 10.0702 0.973582 10.1953C0.848558 10.3203 0.77832 10.4899 0.77832 10.6667C0.77832 10.8435 0.848558 11.013 0.973582 11.1381C1.09861 11.2631 1.26818 11.3333 1.44499 11.3333H2.11165V12.6667H1.44499C1.26818 12.6667 1.09861 12.7369 0.973582 12.8619C0.848558 12.987 0.77832 13.1565 0.77832 13.3333C0.77832 13.5101 0.848558 13.6797 0.973582 13.8047C1.09861 13.9298 1.26818 14 1.44499 14H2.39432C2.65346 14.5938 3.08 15.0991 3.62179 15.4543C4.16359 15.8095 4.79714 15.9991 5.44499 16H12.1117C12.9954 15.9989 13.8426 15.6474 14.4675 15.0225C15.0924 14.3976 15.4439 13.5504 15.445 12.6667V3.33333C15.4439 2.4496 15.0924 1.60237 14.4675 0.97748C13.8426 0.352588 12.9954 0.00105857 12.1117 0V0ZM14.1117 12.6667C14.1117 13.1971 13.9009 13.7058 13.5259 14.0809C13.1508 14.456 12.6421 14.6667 12.1117 14.6667H5.44499C4.91455 14.6667 4.40585 14.456 4.03077 14.0809C3.6557 13.7058 3.44499 13.1971 3.44499 12.6667V3.33333C3.44499 2.8029 3.6557 2.29419 4.03077 1.91912C4.40585 1.54405 4.91455 1.33333 5.44499 1.33333H12.1117C12.6421 1.33333 13.1508 1.54405 13.5259 1.91912C13.9009 2.29419 14.1117 2.8029 14.1117 3.33333V12.6667ZM8.77832 8C9.30875 8 9.81746 7.78929 10.1925 7.41421C10.5676 7.03914 10.7783 6.53043 10.7783 6C10.7783 5.46957 10.5676 4.96086 10.1925 4.58579C9.81746 4.21071 9.30875 4 8.77832 4C8.24789 4 7.73918 4.21071 7.36411 4.58579C6.98903 4.96086 6.77832 5.46957 6.77832 6C6.77832 6.53043 6.98903 7.03914 7.36411 7.41421C7.73918 7.78929 8.24789 8 8.77832 8ZM12.1117 12C12.1117 12.1768 12.0414 12.3464 11.9164 12.4714C11.7914 12.5964 11.6218 12.6667 11.445 12.6667C11.2682 12.6667 11.0986 12.5964 10.9736 12.4714C10.8486 12.3464 10.7783 12.1768 10.7783 12C10.7783 11.4696 10.5676 10.9609 10.1925 10.5858C9.81746 10.2107 9.30875 10 8.77832 10C8.24789 10 7.73918 10.2107 7.36411 10.5858C6.98903 10.9609 6.77832 11.4696 6.77832 12C6.77832 12.1768 6.70808 12.3464 6.58306 12.4714C6.45803 12.5964 6.28847 12.6667 6.11165 12.6667C5.93484 12.6667 5.76527 12.5964 5.64025 12.4714C5.51522 12.3464 5.44499 12.1768 5.44499 12C5.58565 7.59467 11.9723 7.596 12.1117 12Z" fill="black"/>
</g>
<defs>
<clipPath id="clip0_482_17999">
<rect width="16" height="16" fill="white" transform="translate(0.111328)"/>
</clipPath>
</defs>
</svg>
