<svg width="17" height="16" viewBox="0 0 17 16" fill="none" xmlns="http://www.w3.org/2000/svg">
<g clip-path="url(#clip0_483_13737)">
<path d="M15.6663 7.33333H8.99967V0.666667C8.99967 0.489856 8.92944 0.320286 8.80441 0.195262C8.67939 0.0702379 8.50982 0 8.33301 0V0C8.1562 0 7.98663 0.0702379 7.8616 0.195262C7.73658 0.320286 7.66634 0.489856 7.66634 0.666667V7.33333H0.999674C0.822863 7.33333 0.653294 7.40357 0.52827 7.5286C0.403246 7.65362 0.333008 7.82319 0.333008 8H0.333008C0.333008 8.17681 0.403246 8.34638 0.52827 8.47141C0.653294 8.59643 0.822863 8.66667 0.999674 8.66667H7.66634V15.3333C7.66634 15.5101 7.73658 15.6797 7.8616 15.8047C7.98663 15.9298 8.1562 16 8.33301 16C8.50982 16 8.67939 15.9298 8.80441 15.8047C8.92944 15.6797 8.99967 15.5101 8.99967 15.3333V8.66667H15.6663C15.8432 8.66667 16.0127 8.59643 16.1377 8.47141C16.2628 8.34638 16.333 8.17681 16.333 8C16.333 7.82319 16.2628 7.65362 16.1377 7.5286C16.0127 7.40357 15.8432 7.33333 15.6663 7.33333Z" fill="black"/>
</g>
<defs>
<clipPath id="clip0_483_13737">
<rect width="16" height="16" fill="white" transform="translate(0.333008)"/>
</clipPath>
</defs>
</svg>
