<svg width="17" height="16" viewBox="0 0 17 16" fill="none" xmlns="http://www.w3.org/2000/svg">
<g clip-path="url(#clip0_483_13670)">
<path d="M15.1346 5.64006C14.8257 5.33007 14.4583 5.08444 14.0538 4.91736C13.6493 4.75029 13.2156 4.6651 12.778 4.66673H1.97797L4.84464 1.80006C4.96947 1.6747 5.03938 1.50489 5.03901 1.32798C5.03863 1.15107 4.968 0.981554 4.84264 0.856726C4.71728 0.731897 4.54747 0.66198 4.37056 0.662355C4.19365 0.66273 4.02413 0.733367 3.89931 0.858726L0.599306 4.15806C0.286854 4.47061 0.111328 4.89445 0.111328 5.33639C0.111328 5.77833 0.286854 6.20218 0.599306 6.51473L3.89931 9.81539C3.9612 9.87746 4.03472 9.92674 4.11566 9.96039C4.1966 9.99405 4.28337 10.0114 4.37103 10.0116C4.45869 10.0117 4.54551 9.99455 4.62655 9.96112C4.70758 9.92769 4.78123 9.87862 4.84331 9.81673C4.90538 9.75483 4.95465 9.68131 4.98831 9.60037C5.02197 9.51944 5.03936 9.43266 5.03948 9.345C5.03961 9.25734 5.02246 9.17052 4.98903 9.08949C4.9556 9.00845 4.90654 8.9348 4.84464 8.87273L1.96997 6.00006H12.778C13.3084 6.00006 13.8171 6.21077 14.1922 6.58584C14.5673 6.96092 14.778 7.46963 14.778 8.00006V12.6667C14.778 13.1972 14.5673 13.7059 14.1922 14.0809C13.8171 14.456 13.3084 14.6667 12.778 14.6667H3.44464C3.26783 14.6667 3.09826 14.737 2.97323 14.862C2.84821 14.987 2.77797 15.1566 2.77797 15.3334C2.77797 15.5102 2.84821 15.6798 2.97323 15.8048C3.09826 15.9298 3.26783 16.0001 3.44464 16.0001H12.778C13.6617 15.999 14.5089 15.6475 15.1338 15.0226C15.7587 14.3977 16.1102 13.5505 16.1113 12.6667V8.00006C16.1128 7.56163 16.0272 7.12726 15.8596 6.72215C15.6919 6.31703 15.4455 5.94923 15.1346 5.64006Z" fill="black"/>
</g>
<defs>
<clipPath id="clip0_483_13670">
<rect width="16" height="16" fill="white" transform="translate(0.111328)"/>
</clipPath>
</defs>
</svg>
