<svg width="17" height="16" viewBox="0 0 17 16" fill="none" xmlns="http://www.w3.org/2000/svg">
<g clip-path="url(#clip0_482_17987)">
<path d="M11.7792 16C11.6914 16.0005 11.6045 15.9837 11.5232 15.9505C11.442 15.9174 11.3681 15.8685 11.3058 15.8067L5.85917 10.36C5.54875 10.0504 5.30247 9.68256 5.13442 9.27759C4.96638 8.87262 4.87988 8.43848 4.87988 8.00003C4.87988 7.56158 4.96638 7.12744 5.13442 6.72248C5.30247 6.31751 5.54875 5.94967 5.85917 5.64004L11.3058 0.193375C11.368 0.131216 11.4418 0.0819092 11.523 0.048269C11.6042 0.0146288 11.6913 -0.00268555 11.7792 -0.00268555C11.8671 -0.00268555 11.9541 0.0146288 12.0353 0.048269C12.1166 0.0819092 12.1903 0.131216 12.2525 0.193375C12.3147 0.255534 12.364 0.329328 12.3976 0.410542C12.4313 0.491757 12.4486 0.578802 12.4486 0.666708C12.4486 0.754614 12.4313 0.841659 12.3976 0.922874C12.364 1.00409 12.3147 1.07788 12.2525 1.14004L6.80584 6.5867C6.43131 6.9617 6.22093 7.47003 6.22093 8.00003C6.22093 8.53003 6.43131 9.03836 6.80584 9.41336L12.2525 14.86C12.315 14.922 12.3646 14.9957 12.3984 15.077C12.4323 15.1582 12.4497 15.2453 12.4497 15.3334C12.4497 15.4214 12.4323 15.5085 12.3984 15.5897C12.3646 15.671 12.315 15.7447 12.2525 15.8067C12.1902 15.8685 12.1163 15.9174 12.0351 15.9505C11.9539 15.9837 11.8669 16.0005 11.7792 16Z" fill="black"/>
</g>
<defs>
<clipPath id="clip0_482_17987">
<rect width="16" height="16" fill="white" transform="translate(0.333008)"/>
</clipPath>
</defs>
</svg>
