<svg width="16" height="16" viewBox="0 0 16 16" fill="none" xmlns="http://www.w3.org/2000/svg">
<path d="M13.9998 8.28246V7.33313C13.9998 5.74183 13.3677 4.2157 12.2424 3.09049C11.1172 1.96527 9.5911 1.33313 7.9998 1.33313C6.40851 1.33313 4.88238 1.96527 3.75716 3.09049C2.63195 4.2157 1.9998 5.74183 1.9998 7.33313V8.28246C1.30058 8.59035 0.728338 9.12909 0.378885 9.8085C0.0294327 10.4879 -0.0760217 11.2667 0.080176 12.0146C0.236374 12.7625 0.644743 13.434 1.23692 13.9168C1.82909 14.3995 2.56913 14.6642 3.33314 14.6665C3.68676 14.6665 4.0259 14.526 4.27595 14.2759C4.526 14.0259 4.66647 13.6867 4.66647 13.3331V9.33313C4.66647 8.9795 4.526 8.64037 4.27595 8.39032C4.0259 8.14027 3.68676 7.99979 3.33314 7.99979V7.33313C3.33314 6.09545 3.8248 4.90846 4.69997 4.03329C5.57514 3.15812 6.76213 2.66646 7.9998 2.66646C9.23748 2.66646 10.4245 3.15812 11.2996 4.03329C12.1748 4.90846 12.6665 6.09545 12.6665 7.33313V7.99979C12.3128 7.99979 11.9737 8.14027 11.7237 8.39032C11.4736 8.64037 11.3331 8.9795 11.3331 9.33313V13.3331H9.33314C9.15633 13.3331 8.98676 13.4034 8.86173 13.5284C8.73671 13.6534 8.66647 13.823 8.66647 13.9998C8.66647 14.1766 8.73671 14.3462 8.86173 14.4712C8.98676 14.5962 9.15633 14.6665 9.33314 14.6665H12.6665C13.4305 14.6642 14.1705 14.3995 14.7627 13.9168C15.3549 13.434 15.7632 12.7625 15.9194 12.0146C16.0756 11.2667 15.9702 10.4879 15.6207 9.8085C15.2713 9.12909 14.699 8.59035 13.9998 8.28246ZM3.33314 13.3331C2.8027 13.3331 2.294 13.1224 1.91892 12.7473C1.54385 12.3723 1.33314 11.8636 1.33314 11.3331C1.33314 10.8027 1.54385 10.294 1.91892 9.91891C2.294 9.54384 2.8027 9.33313 3.33314 9.33313V13.3331ZM12.6665 13.3331V9.33313C13.1969 9.33313 13.7056 9.54384 14.0807 9.91891C14.4558 10.294 14.6665 10.8027 14.6665 11.3331C14.6665 11.8636 14.4558 12.3723 14.0807 12.7473C13.7056 13.1224 13.1969 13.3331 12.6665 13.3331Z" fill="black"/>
</svg>
