<svg width="17" height="16" viewBox="0 0 17 16" fill="none" xmlns="http://www.w3.org/2000/svg">
<g clip-path="url(#clip0_482_18097)">
<path d="M5.889 0H3.22233C2.51509 0 1.83681 0.280952 1.33671 0.781049C0.836616 1.28115 0.555664 1.95942 0.555664 2.66667L0.555664 3.33333C0.555664 4.04058 0.836616 4.71885 1.33671 5.21895C1.83681 5.71905 2.51509 6 3.22233 6H3.889V7.33333H2.55566C2.37885 7.33333 2.20928 7.40357 2.08426 7.5286C1.95924 7.65362 1.889 7.82319 1.889 8C1.889 8.17681 1.95924 8.34638 2.08426 8.47141C2.20928 8.59643 2.37885 8.66667 2.55566 8.66667H6.55566C6.73248 8.66667 6.90204 8.59643 7.02707 8.47141C7.15209 8.34638 7.22233 8.17681 7.22233 8C7.22233 7.82319 7.15209 7.65362 7.02707 7.5286C6.90204 7.40357 6.73248 7.33333 6.55566 7.33333H5.22233V6H5.889C6.59624 6 7.27452 5.71905 7.77462 5.21895C8.27471 4.71885 8.55566 4.04058 8.55566 3.33333V2.66667C8.55566 1.95942 8.27471 1.28115 7.77462 0.781049C7.27452 0.280952 6.59624 0 5.889 0V0ZM7.22233 3.33333C7.22233 3.68696 7.08185 4.02609 6.83181 4.27614C6.58176 4.52619 6.24262 4.66667 5.889 4.66667H3.22233C2.86871 4.66667 2.52957 4.52619 2.27952 4.27614C2.02947 4.02609 1.889 3.68696 1.889 3.33333V2.66667C1.889 2.31304 2.02947 1.97391 2.27952 1.72386C2.52957 1.47381 2.86871 1.33333 3.22233 1.33333H5.889C6.24262 1.33333 6.58176 1.47381 6.83181 1.72386C7.08185 1.97391 7.22233 2.31304 7.22233 2.66667V3.33333ZM13.889 7.33333H12.5557C11.8484 7.33333 11.1701 7.61428 10.67 8.11438C10.1699 8.61448 9.889 9.29276 9.889 10V13.3333C9.889 14.0406 10.1699 14.7189 10.67 15.219C11.1701 15.719 11.8484 16 12.5557 16H13.889C14.5962 16 15.2745 15.719 15.7746 15.219C16.2747 14.7189 16.5557 14.0406 16.5557 13.3333V10C16.5557 9.29276 16.2747 8.61448 15.7746 8.11438C15.2745 7.61428 14.5962 7.33333 13.889 7.33333ZM15.2223 13.3333C15.2223 13.687 15.0819 14.0261 14.8318 14.2761C14.5818 14.5262 14.2426 14.6667 13.889 14.6667H12.5557C12.202 14.6667 11.8629 14.5262 11.6129 14.2761C11.3628 14.0261 11.2223 13.687 11.2223 13.3333V10C11.2223 9.64638 11.3628 9.30724 11.6129 9.05719C11.8629 8.80714 12.202 8.66667 12.5557 8.66667H13.889C14.2426 8.66667 14.5818 8.80714 14.8318 9.05719C15.0819 9.30724 15.2223 9.64638 15.2223 10V13.3333ZM9.889 2.66667C9.889 2.48986 9.95924 2.32029 10.0843 2.19526C10.2093 2.07024 10.3789 2 10.5557 2H11.889C12.4194 2 12.9281 2.21071 13.3032 2.58579C13.6783 2.96086 13.889 3.46957 13.889 4V5.33333C13.889 5.51014 13.8188 5.67971 13.6937 5.80474C13.5687 5.92976 13.3991 6 13.2223 6C13.0455 6 12.8759 5.92976 12.7509 5.80474C12.6259 5.67971 12.5557 5.51014 12.5557 5.33333V4C12.5557 3.82319 12.4854 3.65362 12.3604 3.5286C12.2354 3.40357 12.0658 3.33333 11.889 3.33333H10.5557C10.3789 3.33333 10.2093 3.2631 10.0843 3.13807C9.95924 3.01305 9.889 2.84348 9.889 2.66667ZM8.55566 13.3333C8.55566 13.5101 8.48543 13.6797 8.3604 13.8047C8.23538 13.9298 8.06581 14 7.889 14H5.889C5.35856 14 4.84986 13.7893 4.47478 13.4142C4.09971 13.0391 3.889 12.5304 3.889 12V10.6667C3.889 10.4899 3.95924 10.3203 4.08426 10.1953C4.20928 10.0702 4.37885 10 4.55566 10C4.73248 10 4.90204 10.0702 5.02707 10.1953C5.15209 10.3203 5.22233 10.4899 5.22233 10.6667V12C5.22233 12.1768 5.29257 12.3464 5.41759 12.4714C5.54262 12.5964 5.71219 12.6667 5.889 12.6667H7.889C8.06581 12.6667 8.23538 12.7369 8.3604 12.8619C8.48543 12.987 8.55566 13.1565 8.55566 13.3333ZM13.889 13.3333C13.889 13.4652 13.8499 13.5941 13.7766 13.7037C13.7034 13.8133 13.5993 13.8988 13.4775 13.9493C13.3556 13.9997 13.2216 14.0129 13.0923 13.9872C12.9629 13.9615 12.8442 13.898 12.7509 13.8047C12.6577 13.7115 12.5942 13.5927 12.5685 13.4634C12.5428 13.3341 12.556 13.2 12.6064 13.0782C12.6569 12.9564 12.7423 12.8523 12.852 12.779C12.9616 12.7058 13.0905 12.6667 13.2223 12.6667C13.3991 12.6667 13.5687 12.7369 13.6937 12.8619C13.8188 12.987 13.889 13.1565 13.889 13.3333Z" fill="black"/>
</g>
<defs>
<clipPath id="clip0_482_18097">
<rect width="16" height="16" fill="white" transform="translate(0.555664)"/>
</clipPath>
</defs>
</svg>
