<svg width="17" height="16" viewBox="0 0 17 16" fill="none" xmlns="http://www.w3.org/2000/svg">
<g clip-path="url(#clip0_483_13645)">
<path d="M13.2223 6.01733V2.66667C13.2223 1.95942 12.9414 1.28115 12.4413 0.781049C11.9412 0.280952 11.2629 0 10.5557 0L6.55566 0C5.84842 0 5.17014 0.280952 4.67005 0.781049C4.16995 1.28115 3.889 1.95942 3.889 2.66667V6.01733C3.47647 6.32524 3.14124 6.72491 2.90983 7.18473C2.67842 7.64455 2.55716 8.1519 2.55566 8.66667V10C2.55566 11.5913 3.18781 13.1174 4.31302 14.2426C5.43824 15.3679 6.96437 16 8.55566 16C10.147 16 11.6731 15.3679 12.7983 14.2426C13.9235 13.1174 14.5557 11.5913 14.5557 10V8.66667C14.5542 8.1519 14.4329 7.64455 14.2015 7.18473C13.9701 6.72491 13.6349 6.32524 13.2223 6.01733ZM5.22233 5.33333V2.66667C5.22233 2.31304 5.36281 1.97391 5.61285 1.72386C5.8629 1.47381 6.20204 1.33333 6.55566 1.33333H10.5557C10.9093 1.33333 11.2484 1.47381 11.4985 1.72386C11.7485 1.97391 11.889 2.31304 11.889 2.66667V5.33333H5.22233ZM13.2223 10C13.2223 11.2377 12.7307 12.4247 11.8555 13.2998C10.9803 14.175 9.79334 14.6667 8.55566 14.6667C7.31799 14.6667 6.131 14.175 5.25583 13.2998C4.38066 12.4247 3.889 11.2377 3.889 10V8.66667C3.889 8.13623 4.09971 7.62753 4.47478 7.25245C4.84986 6.87738 5.35856 6.66667 5.889 6.66667H11.2223C11.7528 6.66667 12.2615 6.87738 12.6365 7.25245C13.0116 7.62753 13.2223 8.13623 13.2223 8.66667V10Z" fill="black"/>
<path d="M7.22233 3.99959C7.59052 3.99959 7.88899 3.70111 7.88899 3.33293C7.88899 2.96474 7.59052 2.66626 7.22233 2.66626C6.85414 2.66626 6.55566 2.96474 6.55566 3.33293C6.55566 3.70111 6.85414 3.99959 7.22233 3.99959Z" fill="black"/>
<path d="M9.88933 3.99959C10.2575 3.99959 10.556 3.70111 10.556 3.33293C10.556 2.96474 10.2575 2.66626 9.88933 2.66626C9.52113 2.66626 9.22266 2.96474 9.22266 3.33293C9.22266 3.70111 9.52113 3.99959 9.88933 3.99959Z" fill="black"/>
</g>
<defs>
<clipPath id="clip0_483_13645">
<rect width="16" height="16" fill="white" transform="translate(0.555664)"/>
</clipPath>
</defs>
</svg>
