<svg width="17" height="16" viewBox="0 0 17 16" fill="none" xmlns="http://www.w3.org/2000/svg">
<g clip-path="url(#clip0_483_13644)">
<path d="M16.0006 7.33374H14.6673V6.00041C14.6673 5.82359 14.5971 5.65403 14.4721 5.529C14.347 5.40398 14.1775 5.33374 14.0006 5.33374C13.8238 5.33374 13.6543 5.40398 13.5292 5.529C13.4042 5.65403 13.334 5.82359 13.334 6.00041V7.33374H12.0006C11.8238 7.33374 11.6543 7.40397 11.5292 7.529C11.4042 7.65402 11.334 7.82359 11.334 8.0004C11.334 8.17721 11.4042 8.34678 11.5292 8.47181C11.6543 8.59683 11.8238 8.66707 12.0006 8.66707H13.334V10.0004C13.334 10.1772 13.4042 10.3468 13.5292 10.4718C13.6543 10.5968 13.8238 10.6671 14.0006 10.6671C14.1775 10.6671 14.347 10.5968 14.4721 10.4718C14.5971 10.3468 14.6673 10.1772 14.6673 10.0004V8.66707H16.0006C16.1775 8.66707 16.347 8.59683 16.472 8.47181C16.5971 8.34678 16.6673 8.17721 16.6673 8.0004C16.6673 7.82359 16.5971 7.65402 16.472 7.529C16.347 7.40397 16.1775 7.33374 16.0006 7.33374Z" fill="black"/>
<path d="M6.66699 7.99994C7.45812 7.99994 8.23148 7.76535 8.88927 7.32582C9.54707 6.88629 10.0598 6.26158 10.3625 5.53067C10.6653 4.79977 10.7445 3.9955 10.5901 3.21958C10.4358 2.44366 10.0548 1.73092 9.49542 1.17151C8.93601 0.612104 8.22328 0.231141 7.44735 0.0767996C6.67143 -0.0775412 5.86716 0.00167211 5.13626 0.304423C4.40535 0.607173 3.78064 1.11986 3.34111 1.77766C2.90159 2.43546 2.66699 3.20882 2.66699 3.99994C2.66805 5.06048 3.08982 6.07728 3.83973 6.8272C4.58965 7.57712 5.60645 7.99888 6.66699 7.99994ZM6.66699 1.33327C7.19441 1.33327 7.70998 1.48967 8.14851 1.78269C8.58704 2.07571 8.92884 2.49218 9.13067 2.97945C9.33251 3.46672 9.38531 4.0029 9.28242 4.52018C9.17953 5.03746 8.92555 5.51262 8.55261 5.88556C8.17967 6.2585 7.70452 6.51248 7.18723 6.61537C6.66995 6.71826 6.13377 6.66545 5.6465 6.46362C5.15923 6.26179 4.74276 5.91999 4.44974 5.48146C4.15672 5.04293 4.00033 4.52736 4.00033 3.99994C4.00033 3.2927 4.28128 2.61442 4.78137 2.11432C5.28147 1.61423 5.95975 1.33327 6.66699 1.33327Z" fill="black"/>
<path d="M6.66699 9.33374C5.07623 9.3355 3.55114 9.96821 2.4263 11.093C1.30146 12.2179 0.668757 13.743 0.666992 15.3337C0.666992 15.5106 0.73723 15.6801 0.862254 15.8051C0.987279 15.9302 1.15685 16.0004 1.33366 16.0004C1.51047 16.0004 1.68004 15.9302 1.80506 15.8051C1.93009 15.6801 2.00033 15.5106 2.00033 15.3337C2.00033 14.0961 2.49199 12.9091 3.36716 12.0339C4.24233 11.1587 5.42932 10.6671 6.66699 10.6671C7.90467 10.6671 9.09165 11.1587 9.96682 12.0339C10.842 12.9091 11.3337 14.0961 11.3337 15.3337C11.3337 15.5106 11.4039 15.6801 11.5289 15.8051C11.6539 15.9302 11.8235 16.0004 12.0003 16.0004C12.1771 16.0004 12.3467 15.9302 12.4717 15.8051C12.5968 15.6801 12.667 15.5106 12.667 15.3337C12.6652 13.743 12.0325 12.2179 10.9077 11.093C9.78285 9.96821 8.25775 9.3355 6.66699 9.33374Z" fill="black"/>
</g>
<defs>
<clipPath id="clip0_483_13644">
<rect width="16" height="16" fill="white" transform="translate(0.666992)"/>
</clipPath>
</defs>
</svg>
