<svg width="17" height="16" viewBox="0 0 17 16" fill="none" xmlns="http://www.w3.org/2000/svg">
<path d="M12.8881 10.3333C12.8004 10.3338 12.7134 10.317 12.6322 10.2838C12.551 10.2506 12.4771 10.2017 12.4148 10.14L9.36148 7.07996C9.2995 7.01747 9.22577 6.96788 9.14453 6.93403C9.06329 6.90018 8.97615 6.88276 8.88814 6.88276C8.80014 6.88276 8.713 6.90018 8.63176 6.93403C8.55052 6.96788 8.47679 7.01747 8.41481 7.07996L5.36148 10.14C5.23594 10.2655 5.06568 10.336 4.88814 10.336C4.71061 10.336 4.54035 10.2655 4.41481 10.14C4.28928 10.0144 4.21875 9.84415 4.21875 9.66662C4.21875 9.57871 4.23606 9.49167 4.2697 9.41045C4.30335 9.32924 4.35265 9.25545 4.41481 9.19329L7.47481 6.13996C7.85477 5.77492 8.36124 5.57104 8.88814 5.57104C9.41505 5.57104 9.92152 5.77492 10.3015 6.13996L13.3615 9.19329C13.424 9.25526 13.4736 9.329 13.5074 9.41023C13.5413 9.49147 13.5587 9.57861 13.5587 9.66662C13.5587 9.75463 13.5413 9.84176 13.5074 9.923C13.4736 10.0042 13.424 10.078 13.3615 10.14C13.2992 10.2017 13.2253 10.2506 13.1441 10.2838C13.0629 10.317 12.9759 10.3338 12.8881 10.3333Z" fill="black"/>
</svg>
