<svg width="17" height="16" viewBox="0 0 17 16" fill="none" xmlns="http://www.w3.org/2000/svg">
<g clip-path="url(#clip0_482_18072)">
<path d="M15.9635 3.44328C16.1509 3.256 16.2995 3.03364 16.4009 2.78891C16.5023 2.54417 16.5545 2.28185 16.5545 2.01694C16.5545 1.75203 16.5023 1.48971 16.4009 1.24498C16.2995 1.00024 16.1509 0.777886 15.9635 0.590608C15.5797 0.22369 15.0692 0.0189209 14.5382 0.0189209C14.0072 0.0189209 13.4967 0.22369 13.1129 0.590608L11.4889 2.21594C10.8142 2.89128 9.40686 2.74194 8.43619 2.20728C8.06861 2.00828 7.6415 1.94882 7.23355 2.03984C6.82559 2.13086 6.46427 2.36623 6.21613 2.7026C5.968 3.03896 5.84977 3.45366 5.88322 3.87031C5.91668 4.28696 6.09956 4.67748 6.39819 4.96994L7.34219 5.91394L1.90552 11.3499C1.54867 11.703 1.31692 12.163 1.24556 12.6599C1.1742 13.1568 1.26712 13.6634 1.51019 14.1026L0.750855 14.8619C0.625874 14.987 0.555664 15.1565 0.555664 15.3333C0.555664 15.5101 0.625874 15.6796 0.750855 15.8046C0.875874 15.9296 1.04541 15.9998 1.22219 15.9998C1.39896 15.9998 1.5685 15.9296 1.69352 15.8046L2.45285 15.0453C2.89208 15.2883 3.39869 15.3813 3.89558 15.3099C4.39248 15.2385 4.85246 15.0068 5.20552 14.6499L10.6415 9.21327L11.5855 10.1573C11.878 10.4559 12.2685 10.6388 12.6852 10.6722C13.1018 10.7057 13.5165 10.5875 13.8529 10.3393C14.1892 10.0912 14.4246 9.72987 14.5156 9.32192C14.6066 8.91396 14.5472 8.48685 14.3482 8.11928C13.8149 7.14861 13.6649 5.74061 14.3395 5.06594L15.9635 3.44328ZM4.26219 13.7073C4.0717 13.8891 3.81851 13.9905 3.55519 13.9905C3.29187 13.9905 3.03867 13.8891 2.84819 13.7073C2.66072 13.5197 2.5554 13.2654 2.5554 13.0003C2.5554 12.7351 2.66072 12.4808 2.84819 12.2933L8.28485 6.85728L9.69886 8.27127L4.26219 13.7073ZM13.3955 4.12328C12.2229 5.29594 12.3955 7.34461 13.1789 8.76194C13.216 8.83591 13.2283 8.91987 13.2141 9.0014C13.1998 9.08292 13.1596 9.15768 13.0995 9.21461C13.0225 9.2884 12.9199 9.32959 12.8132 9.32959C12.7065 9.32959 12.6039 9.2884 12.5269 9.21461L7.34086 4.02728C7.28482 3.97028 7.24676 3.89809 7.2314 3.81966C7.21604 3.74123 7.22405 3.66001 7.25444 3.58609C7.28483 3.51217 7.33627 3.44881 7.40235 3.40386C7.46844 3.35892 7.54627 3.33437 7.62619 3.33328C7.68461 3.33301 7.74215 3.34745 7.79352 3.37528C9.21086 4.15528 11.2602 4.33127 12.4322 3.15861L14.0582 1.53328C14.1879 1.409 14.3606 1.33962 14.5402 1.33962C14.7198 1.33962 14.8925 1.409 15.0222 1.53328C15.0857 1.59668 15.136 1.67197 15.1704 1.75485C15.2047 1.83772 15.2224 1.92656 15.2224 2.01628C15.2224 2.10599 15.2047 2.19483 15.1704 2.2777C15.136 2.36058 15.0857 2.43587 15.0222 2.49928L13.3955 4.12328Z" fill="black"/>
</g>
<defs>
<clipPath id="clip0_482_18072">
<rect width="16" height="16" fill="white" transform="translate(0.555664)"/>
</clipPath>
</defs>
</svg>
