<svg width="16" height="16" viewBox="0 0 16 16" fill="none" xmlns="http://www.w3.org/2000/svg">
<g clip-path="url(#clip0_483_13828)">
<path d="M15.3333 7.33313H0.666667C0.298477 7.33313 0 7.63161 0 7.9998C0 8.36799 0.298477 8.66647 0.666667 8.66647H15.3333C15.7015 8.66647 16 8.36799 16 7.9998C16 7.63161 15.7015 7.33313 15.3333 7.33313Z" fill="black"/>
<path d="M15.3333 2.66687H0.666667C0.298477 2.66687 0 2.96535 0 3.33354C0 3.70172 0.298477 4.0002 0.666667 4.0002H15.3333C15.7015 4.0002 16 3.70172 16 3.33354C16 2.96535 15.7015 2.66687 15.3333 2.66687Z" fill="black"/>
<path d="M15.3333 12H0.666667C0.298477 12 0 12.2985 0 12.6667C0 13.0349 0.298477 13.3333 0.666667 13.3333H15.3333C15.7015 13.3333 16 13.0349 16 12.6667C16 12.2985 15.7015 12 15.3333 12Z" fill="black"/>
</g>
<defs>
<clipPath id="clip0_483_13828">
<rect width="16" height="16" fill="white"/>
</clipPath>
</defs>
</svg>
