<svg width="17" height="16" viewBox="0 0 17 16" fill="none" xmlns="http://www.w3.org/2000/svg">
<path d="M11.556 7.33333H8.88932V4.66667C8.88932 4.48986 8.81909 4.32029 8.69406 4.19526C8.56904 4.07024 8.39947 4 8.22266 4C8.04585 4 7.87628 4.07024 7.75125 4.19526C7.62623 4.32029 7.55599 4.48986 7.55599 4.66667V7.33333H4.88932C4.71251 7.33333 4.54294 7.40357 4.41792 7.5286C4.29289 7.65362 4.22266 7.82319 4.22266 8C4.22266 8.17681 4.29289 8.34638 4.41792 8.4714C4.54294 8.59643 4.71251 8.66667 4.88932 8.66667H7.55599V11.3333C7.55599 11.5101 7.62623 11.6797 7.75125 11.8047C7.87628 11.9298 8.04585 12 8.22266 12C8.39947 12 8.56904 11.9298 8.69406 11.8047C8.81909 11.6797 8.88932 11.5101 8.88932 11.3333V8.66667H11.556C11.7328 8.66667 11.9024 8.59643 12.0274 8.4714C12.1524 8.34638 12.2227 8.17681 12.2227 8C12.2227 7.82319 12.1524 7.65362 12.0274 7.5286C11.9024 7.40357 11.7328 7.33333 11.556 7.33333Z" fill="black"/>
</svg>
