<svg width="17" height="16" viewBox="0 0 17 16" fill="none" xmlns="http://www.w3.org/2000/svg">
<g clip-path="url(#clip0_483_13896)">
<path d="M8.33301 16C6.75076 16 5.20404 15.5308 3.88845 14.6518C2.57286 13.7727 1.54748 12.5233 0.941975 11.0615C0.336474 9.59966 0.178047 7.99113 0.486729 6.43928C0.795411 4.88743 1.55734 3.46197 2.67616 2.34315C3.79498 1.22433 5.22044 0.462403 6.77229 0.153721C8.32414 -0.15496 9.93267 0.00346629 11.3945 0.608967C12.8563 1.21447 14.1057 2.23985 14.9848 3.55544C15.8638 4.87104 16.333 6.41775 16.333 8C16.3307 10.121 15.4871 12.1545 13.9873 13.6543C12.4875 15.1541 10.454 15.9977 8.33301 16ZM8.33301 1.33334C7.01447 1.33334 5.72554 1.72433 4.62921 2.45687C3.53288 3.18942 2.6784 4.23061 2.17381 5.44878C1.66923 6.66695 1.53721 8.0074 1.79444 9.30061C2.05168 10.5938 2.68662 11.7817 3.61897 12.714C4.55132 13.6464 5.7392 14.2813 7.03241 14.5386C8.32562 14.7958 9.66606 14.6638 10.8842 14.1592C12.1024 13.6546 13.1436 12.8001 13.8761 11.7038C14.6087 10.6075 14.9997 9.31855 14.9997 8C14.9977 6.23249 14.2947 4.53792 13.0449 3.2881C11.7951 2.03828 10.1005 1.33528 8.33301 1.33334ZM12.1103 10.4973C12.2424 10.3798 12.3224 10.2145 12.3326 10.038C12.3429 9.86146 12.2826 9.68808 12.165 9.556C12.0474 9.42393 11.8822 9.34397 11.7057 9.33371C11.5291 9.32346 11.3558 9.38376 11.2237 9.50134C10.4087 10.1875 9.39603 10.5958 8.33301 10.6667C7.27062 10.5958 6.25849 10.1881 5.44368 9.50267C5.31178 9.38491 5.1385 9.32438 4.96197 9.33438C4.78543 9.34438 4.6201 9.4241 4.50235 9.556C4.38459 9.68791 4.32405 9.86118 4.33405 10.0377C4.34406 10.2143 4.42378 10.3796 4.55568 10.4973C5.61426 11.4017 6.94249 11.9301 8.33301 12C9.72353 11.9301 11.0518 11.4017 12.1103 10.4973ZM9.66635 6.66667C9.66635 7.33334 10.263 7.33334 10.9997 7.33334C11.7363 7.33334 12.333 7.33334 12.333 6.66667C12.333 6.31305 12.1925 5.97391 11.9425 5.72386C11.6924 5.47381 11.3533 5.33334 10.9997 5.33334C10.6461 5.33334 10.3069 5.47381 10.0569 5.72386C9.80682 5.97391 9.66635 6.31305 9.66635 6.66667ZM7.66635 6.66667C7.66635 6.48986 7.59611 6.32029 7.47108 6.19527C7.34606 6.07024 7.17649 6 6.99968 6H4.99968C4.82287 6 4.6533 6.07024 4.52827 6.19527C4.40325 6.32029 4.33301 6.48986 4.33301 6.66667C4.33301 6.84348 4.40325 7.01305 4.52827 7.13807C4.6533 7.2631 4.82287 7.33334 4.99968 7.33334H6.99968C7.17649 7.33334 7.34606 7.2631 7.47108 7.13807C7.59611 7.01305 7.66635 6.84348 7.66635 6.66667Z" fill="black"/>
</g>
<defs>
<clipPath id="clip0_483_13896">
<rect width="16" height="16" fill="white" transform="translate(0.333008)"/>
</clipPath>
</defs>
</svg>
