<svg width="17" height="16" viewBox="0 0 17 16" fill="none" xmlns="http://www.w3.org/2000/svg">
<g clip-path="url(#clip0_483_13614)">
<path d="M9.66703 4.33326C9.66703 4.59848 9.56167 4.85283 9.37414 5.04037C9.1866 5.2279 8.93225 5.33326 8.66703 5.33326C8.40181 5.33326 8.14746 5.2279 7.95992 5.04037C7.77239 4.85283 7.66703 4.59848 7.66703 4.33326C7.66703 4.06804 7.77239 3.81369 7.95992 3.62615C8.14746 3.43862 8.40181 3.33326 8.66703 3.33326C8.93225 3.33326 9.1866 3.43862 9.37414 3.62615C9.56167 3.81369 9.66703 4.06804 9.66703 4.33326ZM16.667 12.6666V8.22659C16.6919 6.17156 15.9384 4.18319 14.5579 2.66071C13.1774 1.13823 11.272 0.194352 9.22436 0.0185934C8.08146 -0.0613682 6.93472 0.105086 5.86172 0.506695C4.78872 0.908304 3.8145 1.5357 3.00497 2.34643C2.19544 3.15715 1.56949 4.1323 1.16948 5.2059C0.76946 6.27949 0.604705 7.42648 0.686361 8.56926C0.981028 12.8053 4.72169 15.9999 9.38903 15.9999H13.3337C14.2174 15.9989 15.0647 15.6473 15.6896 15.0224C16.3144 14.3976 16.666 13.5503 16.667 12.6666ZM9.1337 1.34926C10.8447 1.50062 12.435 2.29387 13.5851 3.56963C14.7352 4.84539 15.3599 6.50914 15.3337 8.22659V12.6666C15.3337 13.197 15.123 13.7057 14.7479 14.0808C14.3728 14.4559 13.8641 14.6666 13.3337 14.6666H9.38903C5.36636 14.6666 2.26703 12.0666 2.01703 8.47726C1.9514 7.56298 2.07501 6.64499 2.38015 5.78064C2.68529 4.91629 3.1654 4.12415 3.79048 3.45371C4.41556 2.78327 5.17218 2.24894 6.01307 1.88409C6.85397 1.51925 7.76106 1.33173 8.6777 1.33326C8.82903 1.33326 8.9817 1.33926 9.1337 1.34926ZM10.0004 11.9999V7.99993C10.0004 7.64631 9.85989 7.30717 9.60984 7.05712C9.35979 6.80707 9.02065 6.66659 8.66703 6.66659H8.00036C7.82355 6.66659 7.65398 6.73683 7.52896 6.86186C7.40393 6.98688 7.3337 7.15645 7.3337 7.33326C7.3337 7.51007 7.40393 7.67964 7.52896 7.80467C7.65398 7.92969 7.82355 7.99993 8.00036 7.99993H8.66703V11.9999C8.66703 12.1767 8.73727 12.3463 8.86229 12.4713C8.98732 12.5964 9.15688 12.6666 9.3337 12.6666C9.51051 12.6666 9.68008 12.5964 9.8051 12.4713C9.93012 12.3463 10.0004 12.1767 10.0004 11.9999Z" fill="black"/>
</g>
<defs>
<clipPath id="clip0_483_13614">
<rect width="16" height="16" fill="white" transform="translate(0.666992)"/>
</clipPath>
</defs>
</svg>
