<svg width="17" height="16" viewBox="0 0 17 16" fill="none" xmlns="http://www.w3.org/2000/svg">
<g clip-path="url(#clip0_483_13834)">
<path d="M15.3998 1.26689C13.1091 -1.02044 6.91442 -0.0444396 3.76775 3.10156C0.621085 6.24756 -0.354249 12.4429 1.93308 14.7336C3.00414 15.6332 4.38229 16.0824 5.77775 15.9869C8.66714 15.9613 11.4434 14.8604 13.5651 12.8989C16.7104 9.75289 17.6871 3.55756 15.3998 1.26689ZM11.5551 1.33356C12.5978 1.24999 13.6336 1.56282 14.4558 2.20956C15.1331 2.88756 15.4071 4.20023 15.3058 5.69689L10.9724 1.36356C11.1691 1.35089 11.3664 1.33356 11.5551 1.33356ZM2.87708 13.7896C2.19975 13.1129 1.92575 11.8002 2.02708 10.3036L6.36042 14.6369C4.86642 14.7402 3.55375 14.4669 2.87708 13.7896ZM12.6224 11.9562C11.3318 13.1722 9.73524 14.0149 8.00308 14.3942L2.26975 8.66089C2.64995 6.92928 3.49356 5.33353 4.71042 4.04423C6.0031 2.82862 7.60263 1.98828 9.33708 1.61356L15.0611 7.33756C14.6818 9.06968 13.8389 10.6661 12.6224 11.9562ZM12.4711 7.80489C12.3461 7.92988 12.1765 8.00009 11.9998 8.00009C11.823 8.00009 11.6534 7.92988 11.5284 7.80489L10.6664 6.94289L9.60908 8.00023L10.4711 8.86223C10.5348 8.92373 10.5855 8.99729 10.6205 9.07862C10.6554 9.15996 10.6738 9.24744 10.6746 9.33596C10.6754 9.42448 10.6585 9.51227 10.625 9.5942C10.5914 9.67613 10.5419 9.75056 10.4793 9.81316C10.4168 9.87575 10.3423 9.92525 10.2604 9.95878C10.1785 9.9923 10.0907 10.0092 10.0022 10.0084C9.91363 10.0076 9.82615 9.98923 9.74481 9.9543C9.66348 9.91936 9.58992 9.86857 9.52842 9.80489L8.66642 8.94289L7.60908 10.0002L8.47108 10.8622C8.53476 10.9237 8.58555 10.9973 8.62049 11.0786C8.65543 11.16 8.67382 11.2474 8.67458 11.336C8.67535 11.4245 8.65849 11.5123 8.62497 11.5942C8.59144 11.6761 8.54194 11.7506 8.47935 11.8132C8.41675 11.8758 8.34232 11.9253 8.26039 11.9588C8.17846 11.9923 8.09067 12.0092 8.00215 12.0084C7.91363 12.0076 7.82615 11.9892 7.74481 11.9543C7.66348 11.9194 7.58992 11.8686 7.52842 11.8049L4.86175 9.13823C4.74031 9.01249 4.67312 8.84409 4.67463 8.66929C4.67615 8.4945 4.74627 8.32729 4.86987 8.20368C4.99348 8.08008 5.16069 8.00996 5.33548 8.00845C5.51028 8.00693 5.67868 8.07412 5.80442 8.19556L6.66642 9.05756L7.72375 8.00023L6.86175 7.13823C6.74031 7.01249 6.67312 6.84409 6.67463 6.66929C6.67615 6.4945 6.74627 6.32729 6.86987 6.20368C6.99348 6.08008 7.16069 6.00996 7.33548 6.00845C7.51028 6.00693 7.67868 6.07412 7.80442 6.19556L8.66642 7.05756L9.72375 6.00023L8.86175 5.13823C8.74031 5.01249 8.67312 4.84409 8.67463 4.66929C8.67615 4.4945 8.74627 4.32729 8.86987 4.20368C8.99348 4.08008 9.16069 4.00996 9.33548 4.00844C9.51028 4.00693 9.67868 4.07412 9.80442 4.19556L12.4711 6.86223C12.5961 6.98725 12.6663 7.15679 12.6663 7.33356C12.6663 7.51034 12.5961 7.67988 12.4711 7.80489Z" fill="black"/>
</g>
<defs>
<clipPath id="clip0_483_13834">
<rect width="16" height="16" fill="white" transform="translate(0.666992)"/>
</clipPath>
</defs>
</svg>
