<svg width="17" height="16" viewBox="0 0 17 16" fill="none" xmlns="http://www.w3.org/2000/svg">
<g clip-path="url(#clip0_483_13847)">
<path d="M8.55567 0C6.97342 0 5.4267 0.469192 4.11111 1.34824C2.79551 2.22729 1.77013 3.47672 1.16463 4.93853C0.55913 6.40034 0.400704 8.00887 0.709385 9.56072C1.01807 11.1126 1.77999 12.538 2.89881 13.6569C4.01763 14.7757 5.4431 15.5376 6.99495 15.8463C8.54679 16.155 10.1553 15.9965 11.6171 15.391C13.0789 14.7855 14.3284 13.7602 15.2074 12.4446C16.0865 11.129 16.5557 9.58225 16.5557 8C16.5534 5.87897 15.7098 3.84547 14.21 2.34568C12.7102 0.845886 10.6767 0.00229405 8.55567 0V0ZM8.55567 14.6667C7.23713 14.6667 5.94819 14.2757 4.85187 13.5431C3.75554 12.8106 2.90106 11.7694 2.39647 10.5512C1.89189 9.33305 1.75986 7.99261 2.0171 6.6994C2.27433 5.40619 2.90927 4.21831 3.84162 3.28596C4.77397 2.35361 5.96186 1.71867 7.25507 1.46143C8.54827 1.2042 9.88872 1.33622 11.1069 1.8408C12.3251 2.34539 13.3663 3.19987 14.0988 4.2962C14.8313 5.39253 15.2223 6.68146 15.2223 8C15.2204 9.76752 14.5174 11.4621 13.2676 12.7119C12.0177 13.9617 10.3232 14.6647 8.55567 14.6667Z" fill="black"/>
<path d="M8.55599 6.66687H7.88932C7.71251 6.66687 7.54294 6.73711 7.41792 6.86213C7.29289 6.98716 7.22266 7.15673 7.22266 7.33354C7.22266 7.51035 7.29289 7.67992 7.41792 7.80494C7.54294 7.92997 7.71251 8.0002 7.88932 8.0002H8.55599V12.0002C8.55599 12.177 8.62622 12.3466 8.75125 12.4716C8.87627 12.5966 9.04584 12.6669 9.22265 12.6669C9.39946 12.6669 9.56903 12.5966 9.69406 12.4716C9.81908 12.3466 9.88932 12.177 9.88932 12.0002V8.0002C9.88932 7.64658 9.74884 7.30744 9.49879 7.05739C9.24875 6.80735 8.90961 6.66687 8.55599 6.66687Z" fill="black"/>
<path d="M8.55566 5.33312C9.10795 5.33312 9.55566 4.88541 9.55566 4.33312C9.55566 3.78084 9.10795 3.33312 8.55566 3.33312C8.00338 3.33312 7.55566 3.78084 7.55566 4.33312C7.55566 4.88541 8.00338 5.33312 8.55566 5.33312Z" fill="black"/>
</g>
<defs>
<clipPath id="clip0_483_13847">
<rect width="16" height="16" fill="white" transform="translate(0.555664)"/>
</clipPath>
</defs>
</svg>
