<svg width="16" height="16" viewBox="0 0 16 16" fill="none" xmlns="http://www.w3.org/2000/svg">
<path d="M6.98657 12.6667C6.81168 12.6659 6.64408 12.5965 6.51991 12.4734L3.45991 9.41335C3.08537 9.03835 2.875 8.53002 2.875 8.00002C2.875 7.47002 3.08537 6.96169 3.45991 6.58669L6.51991 3.52669C6.64482 3.40252 6.81378 3.33282 6.98991 3.33282C7.16603 3.33282 7.335 3.40252 7.45991 3.52669C7.52239 3.58866 7.57199 3.6624 7.60584 3.74364C7.63968 3.82487 7.65711 3.91201 7.65711 4.00002C7.65711 4.08803 7.63968 4.17516 7.60584 4.2564C7.57199 4.33764 7.52239 4.41138 7.45991 4.47335L4.39991 7.52669C4.33742 7.58866 4.28783 7.6624 4.25398 7.74364C4.22013 7.82487 4.20271 7.91201 4.20271 8.00002C4.20271 8.08803 4.22013 8.17516 4.25398 8.2564C4.28783 8.33764 4.33742 8.41138 4.39991 8.47335L7.45991 11.5267C7.52239 11.5887 7.57199 11.6624 7.60584 11.7436C7.63968 11.8249 7.65711 11.912 7.65711 12C7.65711 12.088 7.63968 12.1752 7.60584 12.2564C7.57199 12.3376 7.52239 12.4114 7.45991 12.4734C7.39761 12.5351 7.32374 12.584 7.24251 12.6172C7.16129 12.6504 7.07431 12.6672 6.98657 12.6667Z" fill="black"/>
<path d="M11.6531 12.6667C11.4782 12.6659 11.3106 12.5965 11.1865 12.4734L7.18646 8.47335C7.12397 8.41138 7.07437 8.33764 7.04053 8.2564C7.00668 8.17516 6.98926 8.08803 6.98926 8.00002C6.98926 7.91201 7.00668 7.82487 7.04053 7.74364C7.07437 7.6624 7.12397 7.58866 7.18646 7.52669L11.1865 3.52669C11.3114 3.40252 11.4803 3.33282 11.6564 3.33282C11.8326 3.33282 12.0015 3.40252 12.1264 3.52669C12.1889 3.58866 12.2385 3.6624 12.2724 3.74364C12.3062 3.82487 12.3236 3.91201 12.3236 4.00002C12.3236 4.08803 12.3062 4.17516 12.2724 4.2564C12.2385 4.33764 12.1889 4.41138 12.1264 4.47335L8.59979 8.00002L12.1264 11.5267C12.1889 11.5887 12.2385 11.6624 12.2724 11.7436C12.3062 11.8249 12.3236 11.912 12.3236 12C12.3236 12.088 12.3062 12.1752 12.2724 12.2564C12.2385 12.3376 12.1889 12.4114 12.1264 12.4734C12.0642 12.5351 11.9903 12.584 11.9091 12.6172C11.8278 12.6504 11.7409 12.6672 11.6531 12.6667Z" fill="black"/>
</svg>
