<svg width="17" height="16" viewBox="0 0 17 16" fill="none" xmlns="http://www.w3.org/2000/svg">
<g clip-path="url(#clip0_482_18050)">
<path d="M8.22527 -0.00158691C3.80017 -0.00158691 0.212891 3.58569 0.212891 8.01079C0.212891 12.4359 3.80017 16.0231 8.22527 16.0231C12.6504 16.0231 16.2376 12.4359 16.2376 8.01079C16.2376 3.58569 12.6504 -0.00158691 8.22527 -0.00158691ZM13.1911 5.89188L13.7084 4.21923C14.4055 5.22969 14.8083 6.41391 14.8718 7.63988L13.4438 6.63388C13.2077 6.46741 13.1056 6.16785 13.1911 5.89188ZM9.95642 1.56854H9.95108L8.61773 2.53919C8.38402 2.7091 8.06745 2.7091 7.83373 2.53919L6.50039 1.56854C7.63105 1.25479 8.82577 1.25479 9.95642 1.56854ZM2.73773 4.21988L3.25508 5.89188C3.34052 6.16785 3.23848 6.46741 3.00242 6.63388L1.57442 7.63988C1.63789 6.41413 2.04064 5.2301 2.73773 4.21988ZM2.89442 11.9892L4.72577 11.9952C5.01486 11.9958 5.27064 12.1827 5.35911 12.4579L5.93511 14.2532C4.72439 13.8076 3.66839 13.0214 2.89442 11.9892ZM10.5117 14.2532L11.0871 12.4579C11.1755 12.1829 11.4309 11.9961 11.7197 11.9952L13.5517 11.9892C12.7782 13.0215 11.7224 13.8078 10.5117 14.2532ZM14.3357 10.6532L11.7157 10.6619C10.8483 10.663 10.081 11.2247 9.81773 12.0512L8.99439 14.6179C8.4822 14.6828 7.96389 14.6828 7.45173 14.6179L6.62839 12.0505C6.36483 11.224 5.59727 10.6626 4.72973 10.6619L2.11039 10.6539C1.9088 10.1888 1.76139 9.70201 1.67105 9.20323L3.77039 7.72388C4.48002 7.22582 4.78667 6.32638 4.52905 5.49854L3.77239 3.05054C4.15477 2.70307 4.57627 2.40126 5.02839 2.15119L7.04705 3.61785C7.74773 4.12904 8.69836 4.12904 9.39905 3.61785L11.4177 2.15119C11.8697 2.40141 12.2912 2.70319 12.6737 3.05054L11.917 5.49854C11.6595 6.32635 11.9661 7.22579 12.6757 7.72388L14.775 9.20323C14.6848 9.70182 14.5374 10.1884 14.3357 10.6532Z" fill="black"/>
<path d="M10.4807 6.14911L9.20275 5.22111C8.61934 4.79511 7.82746 4.79511 7.24409 5.22111L5.96608 6.14911C5.3793 6.57308 5.13446 7.32812 5.36074 8.01577L5.84874 9.51778C6.07177 10.2039 6.7119 10.6679 7.4334 10.6664H9.0134C9.73562 10.6665 10.3757 10.2014 10.5987 9.51443L11.0861 8.01243C11.311 7.32577 11.0662 6.57249 10.4807 6.14911ZM9.81806 7.60043L9.33071 9.10243C9.28618 9.24003 9.158 9.33318 9.01337 9.33309H7.43337C7.28899 9.3329 7.16118 9.23978 7.11671 9.10243L6.62874 7.59977C6.58384 7.46218 6.63287 7.31133 6.75009 7.22643L8.02743 6.29977C8.14431 6.21483 8.30259 6.21483 8.41943 6.29977L9.69743 7.22777C9.81406 7.31277 9.86278 7.46318 9.81806 7.60043Z" fill="black"/>
</g>
<defs>
<clipPath id="clip0_482_18050">
<rect width="16" height="16" fill="white" transform="translate(0.222656)"/>
</clipPath>
</defs>
</svg>
