<svg width="17" height="16" viewBox="0 0 17 16" fill="none" xmlns="http://www.w3.org/2000/svg">
<g clip-path="url(#clip0_482_18106)">
<path d="M15.9584 6.2792C15.3565 5.29369 14.5974 4.41337 13.711 3.6732L15.5777 1.80654C15.6991 1.6808 15.7663 1.5124 15.7648 1.3376C15.7633 1.1628 15.6932 0.995595 15.5696 0.871989C15.446 0.748384 15.2788 0.678271 15.104 0.676752C14.9292 0.675234 14.7608 0.74243 14.635 0.863869L12.605 2.89654C11.3466 2.14908 9.90798 1.75951 8.44437 1.76987C4.31704 1.76987 1.96504 4.5952 0.93037 6.2792C0.610722 6.79621 0.441406 7.39203 0.441406 7.99987C0.441406 8.60771 0.610722 9.20353 0.93037 9.72054C1.53221 10.7061 2.29136 11.5864 3.1777 12.3265L1.31104 14.1932C1.24736 14.2547 1.19658 14.3283 1.16164 14.4096C1.1267 14.4909 1.10831 14.5784 1.10754 14.6669C1.10677 14.7555 1.12364 14.8432 1.15716 14.9252C1.19068 15.0071 1.24018 15.0815 1.30277 15.1441C1.36537 15.2067 1.4398 15.2562 1.52173 15.2898C1.60366 15.3233 1.69145 15.3401 1.77997 15.3394C1.86849 15.3386 1.95597 15.3202 2.03731 15.2853C2.11864 15.2503 2.19221 15.1995 2.2537 15.1359L4.28837 13.1012C5.54522 13.8485 6.98215 14.2388 8.44437 14.2299C12.5717 14.2299 14.9237 11.4045 15.9584 9.72054C16.278 9.20353 16.4473 8.60771 16.4473 7.99987C16.4473 7.39203 16.278 6.79621 15.9584 6.2792ZM2.06637 9.02254C1.87646 8.71523 1.77587 8.36112 1.77587 7.99987C1.77587 7.63862 1.87646 7.28451 2.06637 6.9772C2.9557 5.5332 4.9657 3.1032 8.44437 3.1032C9.55122 3.097 10.6425 3.36376 11.6217 3.87987L10.2797 5.22187C9.63966 4.79694 8.87231 4.60653 8.10786 4.68297C7.34341 4.7594 6.62895 5.09796 6.0857 5.6412C5.54246 6.18445 5.2039 6.89891 5.12747 7.66336C5.05103 8.42781 5.24144 9.19516 5.66637 9.8352L4.12637 11.3752C3.30977 10.715 2.61293 9.91917 2.06637 9.02254ZM10.4444 7.99987C10.4444 8.5303 10.2337 9.03901 9.85858 9.41408C9.48351 9.78916 8.9748 9.99987 8.44437 9.99987C8.14738 9.99872 7.8545 9.93034 7.5877 9.79987L10.2444 7.1432C10.3748 7.41 10.4432 7.70288 10.4444 7.99987ZM6.44437 7.99987C6.44437 7.46944 6.65508 6.96073 7.03016 6.58565C7.40523 6.21058 7.91394 5.99987 8.44437 5.99987C8.74136 6.00102 9.03424 6.06939 9.30104 6.19987L6.64437 8.85653C6.5139 8.58974 6.44552 8.29686 6.44437 7.99987ZM14.8224 9.02254C13.933 10.4665 11.923 12.8965 8.44437 12.8965C7.33752 12.9027 6.24621 12.636 5.26704 12.1199L6.60904 10.7779C7.24908 11.2028 8.01643 11.3932 8.78088 11.3168C9.54533 11.2403 10.2598 10.9018 10.803 10.3585C11.3463 9.81529 11.6848 9.10083 11.7613 8.33638C11.8377 7.57193 11.6473 6.80458 11.2224 6.16454L12.7624 4.62454C13.579 5.28472 14.2758 6.08057 14.8224 6.9772C15.0123 7.28451 15.1129 7.63862 15.1129 7.99987C15.1129 8.36112 15.0123 8.71523 14.8224 9.02254Z" fill="black"/>
</g>
<defs>
<clipPath id="clip0_482_18106">
<rect width="16" height="16" fill="white" transform="translate(0.444336)"/>
</clipPath>
</defs>
</svg>
