<svg width="17" height="16" viewBox="0 0 17 16" fill="none" xmlns="http://www.w3.org/2000/svg">
<g clip-path="url(#clip0_482_18086)">
<path d="M16.3683 3.82867L14.361 1.11667C14.1141 0.771557 13.7886 0.490246 13.4113 0.296051C13.034 0.101856 12.6159 0.000369147 12.1916 1.17493e-06H5.58496C5.16272 -0.000395157 4.74642 0.0994832 4.37031 0.291417C3.99421 0.48335 3.66906 0.761851 3.42163 1.104L1.3783 3.83533C1.04561 4.30446 0.873793 4.86872 0.888575 5.44365C0.903357 6.01858 1.10394 6.57326 1.4603 7.02467L7.32163 15.2433C7.50842 15.4799 7.7465 15.6709 8.01789 15.802C8.28929 15.933 8.58691 16.0007 8.8883 16C9.19486 15.9994 9.49719 15.9285 9.77204 15.7926C10.0469 15.6568 10.2869 15.4598 10.4736 15.2167L16.2883 7.08933C16.6606 6.63132 16.8705 6.06273 16.8849 5.47266C16.8994 4.88259 16.7177 4.30439 16.3683 3.82867ZM13.283 1.90067L15.295 4.61933C15.3056 4.634 15.3083 4.65133 15.319 4.66667H12.0576L11.1056 1.33333H12.1916C12.4056 1.334 12.6163 1.38584 12.8062 1.48454C12.996 1.58323 13.1595 1.72591 13.283 1.90067ZM8.8883 12.7453L7.0883 6H10.6883L8.8883 12.7453ZM7.10563 4.66667L8.05763 1.33333H9.71896L10.671 4.66667H7.10563ZM4.49963 1.89133C4.62333 1.71893 4.78626 1.57841 4.97497 1.48139C5.16369 1.38437 5.37277 1.33362 5.58496 1.33333H6.67096L5.71896 4.66667H2.43363C2.44296 4.652 2.44563 4.634 2.4563 4.62L4.49963 1.89133ZM2.5203 6.21667C2.47216 6.14868 2.43085 6.0761 2.39696 6H5.70963L7.70563 13.4867L2.5203 6.21667ZM10.069 13.4933L12.069 6H15.393C15.35 6.09951 15.2956 6.1937 15.231 6.28067L10.069 13.4933Z" fill="black"/>
</g>
<defs>
<clipPath id="clip0_482_18086">
<rect width="16" height="16" fill="white" transform="translate(0.888672)"/>
</clipPath>
</defs>
</svg>
