<svg width="17" height="16" viewBox="0 0 17 16" fill="none" xmlns="http://www.w3.org/2000/svg">
<g clip-path="url(#clip0_482_18100)">
<path d="M13 15.9999H11.6667C11.4899 15.9999 11.3203 15.9297 11.1953 15.8047C11.0702 15.6797 11 15.5101 11 15.3333C11 15.1565 11.0702 14.9869 11.1953 14.8619C11.3203 14.7369 11.4899 14.6666 11.6667 14.6666H13C13.5304 14.6666 14.0391 14.4559 14.4142 14.0808C14.7893 13.7058 15 13.1971 15 12.6666V11.3333C15 11.1565 15.0702 10.9869 15.1953 10.8619C15.3203 10.7369 15.4898 10.6666 15.6667 10.6666C15.8435 10.6666 16.013 10.7369 16.1381 10.8619C16.2631 10.9869 16.3333 11.1565 16.3333 11.3333V12.6666C16.3323 13.5504 15.9807 14.3976 15.3558 15.0225C14.731 15.6474 13.8837 15.9989 13 15.9999Z" fill="black"/>
<path d="M0.999674 5.33333C0.822863 5.33333 0.653294 5.2631 0.52827 5.13807C0.403246 5.01305 0.333008 4.84348 0.333008 4.66667V3.33333C0.334066 2.4496 0.685596 1.60237 1.31049 0.97748C1.93538 0.352588 2.78261 0.00105857 3.66634 0L4.99967 0C5.17649 0 5.34605 0.0702379 5.47108 0.195262C5.5961 0.320286 5.66634 0.489856 5.66634 0.666667C5.66634 0.843478 5.5961 1.01305 5.47108 1.13807C5.34605 1.2631 5.17649 1.33333 4.99967 1.33333H3.66634C3.13591 1.33333 2.6272 1.54405 2.25213 1.91912C1.87705 2.29419 1.66634 2.8029 1.66634 3.33333V4.66667C1.66634 4.84348 1.5961 5.01305 1.47108 5.13807C1.34605 5.2631 1.17649 5.33333 0.999674 5.33333Z" fill="black"/>
<path d="M4.99967 15.9999H3.66634C2.78261 15.9988 1.93538 15.6473 1.31049 15.0224C0.685596 14.3975 0.334066 13.5503 0.333008 12.6666L0.333008 11.3332C0.333008 11.1564 0.403246 10.9869 0.52827 10.8618C0.653294 10.7368 0.822863 10.6666 0.999674 10.6666C1.17649 10.6666 1.34605 10.7368 1.47108 10.8618C1.5961 10.9869 1.66634 11.1564 1.66634 11.3332V12.6666C1.66634 13.197 1.87705 13.7057 2.25213 14.0808C2.6272 14.4558 3.13591 14.6666 3.66634 14.6666H4.99967C5.17649 14.6666 5.34605 14.7368 5.47108 14.8618C5.5961 14.9868 5.66634 15.1564 5.66634 15.3332C5.66634 15.51 5.5961 15.6796 5.47108 15.8046C5.34605 15.9297 5.17649 15.9999 4.99967 15.9999Z" fill="black"/>
<path d="M15.6667 5.33333C15.4898 5.33333 15.3203 5.2631 15.1953 5.13807C15.0702 5.01305 15 4.84348 15 4.66667V3.33333C15 2.8029 14.7893 2.29419 14.4142 1.91912C14.0391 1.54405 13.5304 1.33333 13 1.33333H11.6667C11.4899 1.33333 11.3203 1.2631 11.1953 1.13807C11.0702 1.01305 11 0.843478 11 0.666667C11 0.489856 11.0702 0.320286 11.1953 0.195262C11.3203 0.0702379 11.4899 0 11.6667 0L13 0C13.8837 0.00105857 14.731 0.352588 15.3558 0.97748C15.9807 1.60237 16.3323 2.4496 16.3333 3.33333V4.66667C16.3333 4.84348 16.2631 5.01305 16.1381 5.13807C16.013 5.2631 15.8435 5.33333 15.6667 5.33333Z" fill="black"/>
</g>
<defs>
<clipPath id="clip0_482_18100">
<rect width="16" height="16" fill="white" transform="translate(0.333008)"/>
</clipPath>
</defs>
</svg>
