<svg width="16" height="16" viewBox="0 0 16 16" fill="none" xmlns="http://www.w3.org/2000/svg">
<g clip-path="url(#clip0_483_13850)">
<path d="M10.6667 0H5.33333C4.44928 0 3.60143 0.351189 2.97631 0.976311C2.35119 1.60143 2 2.44928 2 3.33333V12.6667C2 13.1044 2.08622 13.5379 2.25373 13.9423C2.42125 14.3467 2.66678 14.7142 2.97631 15.0237C3.60143 15.6488 4.44928 16 5.33333 16H10.6667C11.1044 16 11.5379 15.9138 11.9423 15.7463C12.3467 15.5788 12.7142 15.3332 13.0237 15.0237C13.3332 14.7142 13.5787 14.3467 13.7463 13.9423C13.9138 13.5379 14 13.1044 14 12.6667V3.33333C14 2.44928 13.6488 1.60143 13.0237 0.976311C12.3986 0.351189 11.5507 0 10.6667 0V0ZM12.6667 12.6667C12.6667 13.1971 12.456 13.7058 12.0809 14.0809C11.7058 14.456 11.1971 14.6667 10.6667 14.6667H5.33333C4.8029 14.6667 4.29419 14.456 3.91912 14.0809C3.54405 13.7058 3.33333 13.1971 3.33333 12.6667V3.33333C3.33333 2.8029 3.54405 2.29419 3.91912 1.91912C4.29419 1.54405 4.8029 1.33333 5.33333 1.33333H10.6667C11.1971 1.33333 11.7058 1.54405 12.0809 1.91912C12.456 2.29419 12.6667 2.8029 12.6667 3.33333V12.6667Z" fill="black"/>
</g>
<defs>
<clipPath id="clip0_483_13850">
<rect width="16" height="16" fill="white"/>
</clipPath>
</defs>
</svg>
