<svg width="17" height="16" viewBox="0 0 17 16" fill="none" xmlns="http://www.w3.org/2000/svg">
<g clip-path="url(#clip0_482_18028)">
<path d="M5.33366 9.33333C5.33366 9.51014 5.26342 9.67971 5.1384 9.80474C5.01337 9.92976 4.8438 10 4.66699 10H4.00033C3.82351 10 3.65395 9.92976 3.52892 9.80474C3.4039 9.67971 3.33366 9.51014 3.33366 9.33333C3.33366 9.15652 3.4039 8.98695 3.52892 8.86193C3.65395 8.73691 3.82351 8.66667 4.00033 8.66667H4.66699C4.8438 8.66667 5.01337 8.73691 5.1384 8.86193C5.26342 8.98695 5.33366 9.15652 5.33366 9.33333ZM8.00033 8.66667H7.33366C7.15685 8.66667 6.98728 8.73691 6.86225 8.86193C6.73723 8.98695 6.66699 9.15652 6.66699 9.33333C6.66699 9.51014 6.73723 9.67971 6.86225 9.80474C6.98728 9.92976 7.15685 10 7.33366 10H8.00033C8.17714 10 8.34671 9.92976 8.47173 9.80474C8.59675 9.67971 8.66699 9.51014 8.66699 9.33333C8.66699 9.15652 8.59675 8.98695 8.47173 8.86193C8.34671 8.73691 8.17714 8.66667 8.00033 8.66667ZM4.66699 11.3333H4.00033C3.82351 11.3333 3.65395 11.4036 3.52892 11.5286C3.4039 11.6536 3.33366 11.8232 3.33366 12C3.33366 12.1768 3.4039 12.3464 3.52892 12.4714C3.65395 12.5964 3.82351 12.6667 4.00033 12.6667H4.66699C4.8438 12.6667 5.01337 12.5964 5.1384 12.4714C5.26342 12.3464 5.33366 12.1768 5.33366 12C5.33366 11.8232 5.26342 11.6536 5.1384 11.5286C5.01337 11.4036 4.8438 11.3333 4.66699 11.3333ZM8.00033 11.3333H7.33366C7.15685 11.3333 6.98728 11.4036 6.86225 11.5286C6.73723 11.6536 6.66699 11.8232 6.66699 12C6.66699 12.1768 6.73723 12.3464 6.86225 12.4714C6.98728 12.5964 7.15685 12.6667 7.33366 12.6667H8.00033C8.17714 12.6667 8.34671 12.5964 8.47173 12.4714C8.59675 12.3464 8.66699 12.1768 8.66699 12C8.66699 11.8232 8.59675 11.6536 8.47173 11.5286C8.34671 11.4036 8.17714 11.3333 8.00033 11.3333ZM4.66699 3.33333H4.00033C3.82351 3.33333 3.65395 3.40357 3.52892 3.5286C3.4039 3.65362 3.33366 3.82319 3.33366 4C3.33366 4.17681 3.4039 4.34638 3.52892 4.4714C3.65395 4.59643 3.82351 4.66667 4.00033 4.66667H4.66699C4.8438 4.66667 5.01337 4.59643 5.1384 4.4714C5.26342 4.34638 5.33366 4.17681 5.33366 4C5.33366 3.82319 5.26342 3.65362 5.1384 3.5286C5.01337 3.40357 4.8438 3.33333 4.66699 3.33333ZM8.00033 3.33333H7.33366C7.15685 3.33333 6.98728 3.40357 6.86225 3.5286C6.73723 3.65362 6.66699 3.82319 6.66699 4C6.66699 4.17681 6.73723 4.34638 6.86225 4.4714C6.98728 4.59643 7.15685 4.66667 7.33366 4.66667H8.00033C8.17714 4.66667 8.34671 4.59643 8.47173 4.4714C8.59675 4.34638 8.66699 4.17681 8.66699 4C8.66699 3.82319 8.59675 3.65362 8.47173 3.5286C8.34671 3.40357 8.17714 3.33333 8.00033 3.33333ZM4.66699 6H4.00033C3.82351 6 3.65395 6.07024 3.52892 6.19526C3.4039 6.32029 3.33366 6.48986 3.33366 6.66667C3.33366 6.84348 3.4039 7.01305 3.52892 7.13807C3.65395 7.2631 3.82351 7.33333 4.00033 7.33333H4.66699C4.8438 7.33333 5.01337 7.2631 5.1384 7.13807C5.26342 7.01305 5.33366 6.84348 5.33366 6.66667C5.33366 6.48986 5.26342 6.32029 5.1384 6.19526C5.01337 6.07024 4.8438 6 4.66699 6ZM8.00033 6H7.33366C7.15685 6 6.98728 6.07024 6.86225 6.19526C6.73723 6.32029 6.66699 6.48986 6.66699 6.66667C6.66699 6.84348 6.73723 7.01305 6.86225 7.13807C6.98728 7.2631 7.15685 7.33333 7.33366 7.33333H8.00033C8.17714 7.33333 8.34671 7.2631 8.47173 7.13807C8.59675 7.01305 8.66699 6.84348 8.66699 6.66667C8.66699 6.48986 8.59675 6.32029 8.47173 6.19526C8.34671 6.07024 8.17714 6 8.00033 6ZM16.667 6.66667V12.6667C16.6659 13.5504 16.3144 14.3976 15.6895 15.0225C15.0646 15.6474 14.2174 15.9989 13.3337 16H4.00033C3.1166 15.9989 2.26936 15.6474 1.64447 15.0225C1.01958 14.3976 0.668051 13.5504 0.666992 12.6667L0.666992 3.33333C0.668051 2.4496 1.01958 1.60237 1.64447 0.97748C2.26936 0.352588 3.1166 0.00105857 4.00033 0L8.00033 0C8.88406 0.00105857 9.73129 0.352588 10.3562 0.97748C10.9811 1.60237 11.3326 2.4496 11.3337 3.33333H13.3337C14.2174 3.33439 15.0646 3.68592 15.6895 4.31081C16.3144 4.93571 16.6659 5.78294 16.667 6.66667ZM4.00033 14.6667H10.0003V3.33333C10.0003 2.8029 9.78961 2.29419 9.41454 1.91912C9.03947 1.54405 8.53076 1.33333 8.00033 1.33333H4.00033C3.46989 1.33333 2.96118 1.54405 2.58611 1.91912C2.21104 2.29419 2.00033 2.8029 2.00033 3.33333V12.6667C2.00033 13.1971 2.21104 13.7058 2.58611 14.0809C2.96118 14.456 3.46989 14.6667 4.00033 14.6667ZM15.3337 6.66667C15.3337 6.13623 15.1229 5.62753 14.7479 5.25245C14.3728 4.87738 13.8641 4.66667 13.3337 4.66667H11.3337V14.6667H13.3337C13.8641 14.6667 14.3728 14.456 14.7479 14.0809C15.1229 13.7058 15.3337 13.1971 15.3337 12.6667V6.66667ZM13.3337 8.66667C13.2018 8.66667 13.0729 8.70577 12.9633 8.77902C12.8536 8.85227 12.7682 8.95639 12.7177 9.07821C12.6673 9.20003 12.6541 9.33407 12.6798 9.46339C12.7055 9.59271 12.769 9.7115 12.8623 9.80474C12.9555 9.89797 13.0743 9.96147 13.2036 9.98719C13.3329 10.0129 13.467 9.99971 13.5888 9.94925C13.7106 9.8988 13.8147 9.81335 13.888 9.70371C13.9612 9.59408 14.0003 9.46519 14.0003 9.33333C14.0003 9.15652 13.9301 8.98695 13.8051 8.86193C13.68 8.73691 13.5105 8.66667 13.3337 8.66667ZM13.3337 11.3333C13.2018 11.3333 13.0729 11.3724 12.9633 11.4457C12.8536 11.5189 12.7682 11.6231 12.7177 11.7449C12.6673 11.8667 12.6541 12.0007 12.6798 12.1301C12.7055 12.2594 12.769 12.3782 12.8623 12.4714C12.9555 12.5646 13.0743 12.6281 13.2036 12.6539C13.3329 12.6796 13.467 12.6664 13.5888 12.6159C13.7106 12.5655 13.8147 12.48 13.888 12.3704C13.9612 12.2607 14.0003 12.1319 14.0003 12C14.0003 11.8232 13.9301 11.6536 13.8051 11.5286C13.68 11.4036 13.5105 11.3333 13.3337 11.3333ZM13.3337 6C13.2018 6 13.0729 6.0391 12.9633 6.11235C12.8536 6.18561 12.7682 6.28973 12.7177 6.41154C12.6673 6.53336 12.6541 6.66741 12.6798 6.79673C12.7055 6.92605 12.769 7.04484 12.8623 7.13807C12.9555 7.23131 13.0743 7.2948 13.2036 7.32052C13.3329 7.34625 13.467 7.33305 13.5888 7.28259C13.7106 7.23213 13.8147 7.14668 13.888 7.03705C13.9612 6.92741 14.0003 6.79852 14.0003 6.66667C14.0003 6.48986 13.9301 6.32029 13.8051 6.19526C13.68 6.07024 13.5105 6 13.3337 6Z" fill="black"/>
</g>
<defs>
<clipPath id="clip0_482_18028">
<rect width="16" height="16" fill="white" transform="translate(0.666992)"/>
</clipPath>
</defs>
</svg>
