<svg width="17" height="16" viewBox="0 0 17 16" fill="none" xmlns="http://www.w3.org/2000/svg">
<g clip-path="url(#clip0_482_18091)">
<path d="M13.4435 1.33339H7.41416C6.90631 1.33182 6.4049 1.44711 5.94874 1.67034C5.49257 1.89357 5.09387 2.21875 4.7835 2.62072L0.91683 7.59072C0.825793 7.70775 0.776367 7.85179 0.776367 8.00006C0.776367 8.14832 0.825793 8.29236 0.91683 8.40939L4.7835 13.3794C5.09387 13.7814 5.49257 14.1065 5.94874 14.3298C6.4049 14.553 6.90631 14.6683 7.41416 14.6667H13.4435C14.3272 14.6657 15.1745 14.3141 15.7994 13.6892C16.4242 13.0644 16.7758 12.2171 16.7768 11.3334V4.66672C16.7758 3.78299 16.4242 2.93576 15.7994 2.31087C15.1745 1.68598 14.3272 1.33445 13.4435 1.33339ZM15.4435 11.3334C15.4435 11.8638 15.2328 12.3725 14.8577 12.7476C14.4826 13.1227 13.9739 13.3334 13.4435 13.3334H7.41416C7.10943 13.3344 6.80855 13.2654 6.5348 13.1315C6.26104 12.9976 6.02177 12.8026 5.8355 12.5614L2.28816 8.00006L5.8355 3.43872C6.02177 3.19755 6.26104 3.00248 6.5348 2.86861C6.80855 2.73474 7.10943 2.66566 7.41416 2.66672H13.4435C13.9739 2.66672 14.4826 2.87744 14.8577 3.25251C15.2328 3.62758 15.4435 4.13629 15.4435 4.66672V11.3334ZM12.2482 6.80472L11.0528 8.00006L12.2482 9.19539C12.3118 9.25689 12.3626 9.33045 12.3976 9.41179C12.4325 9.49312 12.4509 9.5806 12.4517 9.66912C12.4524 9.75764 12.4356 9.84543 12.402 9.92736C12.3685 10.0093 12.319 10.0837 12.2564 10.1463C12.1938 10.2089 12.1194 10.2584 12.0375 10.2919C11.9555 10.3255 11.8677 10.3423 11.7792 10.3416C11.6907 10.3408 11.6032 10.3224 11.5219 10.2875C11.4406 10.2525 11.367 10.2017 11.3055 10.1381L10.1102 8.94272L8.91483 10.1381C8.78909 10.2595 8.62069 10.3267 8.4459 10.3252C8.2711 10.3237 8.10389 10.2535 7.98028 10.1299C7.85668 10.0063 7.78657 9.83912 7.78505 9.66432C7.78353 9.48953 7.85073 9.32113 7.97216 9.19539L9.1675 8.00006L7.97216 6.80472C7.85073 6.67899 7.78353 6.51059 7.78505 6.33579C7.78657 6.16099 7.85668 5.99378 7.98028 5.87018C8.10389 5.74657 8.2711 5.67646 8.4459 5.67494C8.62069 5.67342 8.78909 5.74062 8.91483 5.86206L10.1102 7.05739L11.3055 5.86206C11.4312 5.74062 11.5996 5.67342 11.7744 5.67494C11.9492 5.67646 12.1164 5.74657 12.24 5.87018C12.3636 5.99378 12.4338 6.16099 12.4353 6.33579C12.4368 6.51059 12.3696 6.67899 12.2482 6.80472Z" fill="black"/>
</g>
<defs>
<clipPath id="clip0_482_18091">
<rect width="16" height="16" fill="white" transform="translate(0.777344)"/>
</clipPath>
</defs>
</svg>
