<svg width="17" height="16" viewBox="0 0 17 16" fill="none" xmlns="http://www.w3.org/2000/svg">
<g clip-path="url(#clip0_483_13714)">
<path d="M8.77735 16C7.1951 16 5.64838 15.5308 4.33279 14.6518C3.01719 13.7727 1.99181 12.5233 1.38631 11.0615C0.78081 9.59966 0.622383 7.99113 0.931065 6.43928C1.23975 4.88743 2.00167 3.46197 3.12049 2.34315C4.23931 1.22433 5.66478 0.462403 7.21663 0.153721C8.76847 -0.15496 10.377 0.00346629 11.8388 0.608967C13.3006 1.21447 14.5501 2.23985 15.4291 3.55544C16.3082 4.87104 16.7773 6.41775 16.7773 8C16.7751 10.121 15.9315 12.1545 14.4317 13.6543C12.9319 15.1541 10.8984 15.9977 8.77735 16ZM8.77735 1.33334C7.45881 1.33334 6.16987 1.72433 5.07355 2.45687C3.97722 3.18942 3.12273 4.23061 2.61815 5.44878C2.11357 6.66695 1.98154 8.0074 2.23878 9.30061C2.49601 10.5938 3.13095 11.7817 4.0633 12.714C4.99565 13.6464 6.18354 14.2813 7.47675 14.5386C8.76995 14.7958 10.1104 14.6638 11.3286 14.1592C12.5467 13.6546 13.5879 12.8001 14.3205 11.7038C15.053 10.6075 15.444 9.31855 15.444 8C15.4421 6.23249 14.7391 4.53792 13.4892 3.2881C12.2394 2.03828 10.5449 1.33528 8.77735 1.33334ZM12.608 11.778C12.6664 11.7127 12.7114 11.6365 12.7403 11.5538C12.7693 11.471 12.7816 11.3834 12.7766 11.2959C12.7717 11.2085 12.7495 11.1228 12.7115 11.0439C12.6734 10.965 12.6201 10.8943 12.5547 10.836C11.4961 9.93165 10.1679 9.40326 8.77735 9.33334C7.38683 9.40326 6.05859 9.93165 5.00001 10.836C4.86794 10.9536 4.78798 11.1188 4.77772 11.2953C4.76747 11.4719 4.82777 11.6453 4.94535 11.7773C5.06293 11.9094 5.22816 11.9894 5.40469 11.9996C5.58123 12.0099 5.7546 11.9496 5.88668 11.832C6.70166 11.1458 7.71433 10.7376 8.77735 10.6667C9.84035 10.7377 10.853 11.1459 11.668 11.832C11.7999 11.9493 11.973 12.0094 12.1492 11.9993C12.3254 11.9892 12.4904 11.9096 12.608 11.778ZM4.77735 6.66667C4.77735 7.33334 5.37401 7.33334 6.11068 7.33334C6.84735 7.33334 7.44401 7.33334 7.44401 6.66667C7.44401 6.31305 7.30354 5.97391 7.05349 5.72386C6.80344 5.47381 6.4643 5.33334 6.11068 5.33334C5.75706 5.33334 5.41792 5.47381 5.16787 5.72386C4.91782 5.97391 4.77735 6.31305 4.77735 6.66667ZM10.1107 6.66667C10.1107 7.33334 10.7073 7.33334 11.444 7.33334C12.1807 7.33334 12.7773 7.33334 12.7773 6.66667C12.7773 6.31305 12.6369 5.97391 12.3868 5.72386C12.1368 5.47381 11.7976 5.33334 11.444 5.33334C11.0904 5.33334 10.7513 5.47381 10.5012 5.72386C10.2512 5.97391 10.1107 6.31305 10.1107 6.66667Z" fill="black"/>
</g>
<defs>
<clipPath id="clip0_483_13714">
<rect width="16" height="16" fill="white" transform="translate(0.777344)"/>
</clipPath>
</defs>
</svg>
