<svg width="17" height="16" viewBox="0 0 17 16" fill="none" xmlns="http://www.w3.org/2000/svg">
<g clip-path="url(#clip0_482_18005)">
<path d="M5.11096 16C5.02322 16.0005 4.93625 15.9837 4.85502 15.9505C4.7738 15.9173 4.69992 15.8684 4.63763 15.8066C4.57514 15.7447 4.52555 15.6709 4.4917 15.5897C4.45786 15.5084 4.44043 15.4213 4.44043 15.3333C4.44043 15.2453 4.45786 15.1582 4.4917 15.0769C4.52555 14.9957 4.57514 14.9219 4.63763 14.86L10.0843 9.4133C10.4588 9.0383 10.6692 8.52997 10.6692 7.99997C10.6692 7.46997 10.4588 6.96164 10.0843 6.58664L4.63763 1.13998C4.51209 1.01444 4.44157 0.844181 4.44157 0.666647C4.44157 0.489113 4.51209 0.31885 4.63763 0.193314C4.76316 0.0677786 4.93343 -0.00274658 5.11096 -0.00274658C5.2885 -0.00274658 5.45876 0.0677786 5.5843 0.193314L11.031 5.63997C11.3414 5.94961 11.5877 6.31745 11.7557 6.72242C11.9238 7.12738 12.0103 7.56152 12.0103 7.99997C12.0103 8.43842 11.9238 8.87256 11.7557 9.27753C11.5877 9.68249 11.3414 10.0503 11.031 10.36L5.5843 15.8066C5.522 15.8684 5.44812 15.9173 5.3669 15.9505C5.28567 15.9837 5.1987 16.0005 5.11096 16Z" fill="black"/>
</g>
<defs>
<clipPath id="clip0_482_18005">
<rect width="16" height="16" fill="white" transform="translate(0.444336)"/>
</clipPath>
</defs>
</svg>
