<svg width="16" height="16" viewBox="0 0 16 16" fill="none" xmlns="http://www.w3.org/2000/svg">
<g clip-path="url(#clip0_482_18082)">
<path d="M16 6.66667V12.6667C15.9989 13.5504 15.6474 14.3976 15.0225 15.0225C14.3976 15.6474 13.5504 15.9989 12.6667 16H3.33333C2.4496 15.9989 1.60237 15.6474 0.97748 15.0225C0.352588 14.3976 0.00105857 13.5504 0 12.6667L0 5.33333C0.00105857 4.4496 0.352588 3.60237 0.97748 2.97748C1.60237 2.35259 2.4496 2.00106 3.33333 2H8.66667C8.84348 2 9.01305 2.07024 9.13807 2.19526C9.2631 2.32029 9.33333 2.48986 9.33333 2.66667C9.33333 2.84348 9.2631 3.01305 9.13807 3.13807C9.01305 3.2631 8.84348 3.33333 8.66667 3.33333H3.33333C2.97081 3.33434 2.61541 3.43419 2.30541 3.62214C1.99541 3.81009 1.74253 4.07903 1.574 4.4L6.58533 9.412C6.96113 9.78605 7.46978 9.99604 8 9.99604C8.53022 9.99604 9.03887 9.78605 9.41467 9.412L11.962 6.86667C12.0877 6.74523 12.2561 6.67803 12.4309 6.67955C12.6057 6.68107 12.7729 6.75118 12.8965 6.87479C13.0202 6.99839 13.0903 7.1656 13.0918 7.3404C13.0933 7.5152 13.0261 7.6836 12.9047 7.80933L10.3573 10.3573C9.7315 10.9813 8.88378 11.3318 8 11.3318C7.11623 11.3318 6.2685 10.9813 5.64267 10.3573L1.33333 6.04733V12.6667C1.33333 13.1971 1.54405 13.7058 1.91912 14.0809C2.29419 14.456 2.8029 14.6667 3.33333 14.6667H12.6667C13.1971 14.6667 13.7058 14.456 14.0809 14.0809C14.456 13.7058 14.6667 13.1971 14.6667 12.6667V6.66667C14.6667 6.48986 14.7369 6.32029 14.8619 6.19526C14.987 6.07024 15.1565 6 15.3333 6C15.5101 6 15.6797 6.07024 15.8047 6.19526C15.9298 6.32029 16 6.48986 16 6.66667ZM11.3333 3.33333H12.6667V4.66667C12.6667 4.84348 12.7369 5.01305 12.8619 5.13807C12.987 5.2631 13.1565 5.33333 13.3333 5.33333C13.5101 5.33333 13.6797 5.2631 13.8047 5.13807C13.9298 5.01305 14 4.84348 14 4.66667V3.33333H15.3333C15.5101 3.33333 15.6797 3.2631 15.8047 3.13807C15.9298 3.01305 16 2.84348 16 2.66667C16 2.48986 15.9298 2.32029 15.8047 2.19526C15.6797 2.07024 15.5101 2 15.3333 2H14V0.666667C14 0.489856 13.9298 0.320286 13.8047 0.195262C13.6797 0.0702379 13.5101 0 13.3333 0C13.1565 0 12.987 0.0702379 12.8619 0.195262C12.7369 0.320286 12.6667 0.489856 12.6667 0.666667V2H11.3333C11.1565 2 10.987 2.07024 10.8619 2.19526C10.7369 2.32029 10.6667 2.48986 10.6667 2.66667C10.6667 2.84348 10.7369 3.01305 10.8619 3.13807C10.987 3.2631 11.1565 3.33333 11.3333 3.33333Z" fill="black"/>
</g>
<defs>
<clipPath id="clip0_482_18082">
<rect width="16" height="16" fill="white"/>
</clipPath>
</defs>
</svg>
