<svg width="17" height="16" viewBox="0 0 17 16" fill="none" xmlns="http://www.w3.org/2000/svg">
<path d="M12.3329 4C12.2079 3.87502 12.0383 3.80481 11.8616 3.80481C11.6848 3.80481 11.5152 3.87502 11.3902 4L8.33289 7.05733L5.27555 4C5.15053 3.87502 4.981 3.80481 4.80422 3.80481C4.62744 3.80481 4.4579 3.87502 4.33289 4C4.20791 4.12502 4.1377 4.29456 4.1377 4.47133C4.1377 4.64811 4.20791 4.81765 4.33289 4.94267L7.39022 8L4.33289 11.0573C4.20791 11.1824 4.1377 11.3519 4.1377 11.5287C4.1377 11.7054 4.20791 11.875 4.33289 12C4.4579 12.125 4.62744 12.1952 4.80422 12.1952C4.981 12.1952 5.15053 12.125 5.27555 12L8.33289 8.94267L11.3902 12C11.5152 12.125 11.6848 12.1952 11.8616 12.1952C12.0383 12.1952 12.2079 12.125 12.3329 12C12.4579 11.875 12.5281 11.7054 12.5281 11.5287C12.5281 11.3519 12.4579 11.1824 12.3329 11.0573L9.27555 8L12.3329 4.94267C12.4579 4.81765 12.5281 4.64811 12.5281 4.47133C12.5281 4.29456 12.4579 4.12502 12.3329 4Z" fill="black"/>
</svg>
