<svg width="17" height="16" viewBox="0 0 17 16" fill="none" xmlns="http://www.w3.org/2000/svg">
<g clip-path="url(#clip0_483_13846)">
<path d="M12.777 12.6664C12.9088 12.6664 13.0377 12.6273 13.1473 12.554C13.2569 12.4808 13.3423 12.3767 13.3927 12.2549C13.4432 12.1331 13.4564 11.999 13.4307 11.8697C13.405 11.7404 13.3415 11.6217 13.2483 11.5284L9.13363 7.41443C8.50854 6.78953 7.66084 6.43848 6.77696 6.43848C5.89308 6.43848 5.04539 6.78953 4.4203 7.41443L2.9723 8.86176C2.85086 8.9875 2.78366 9.1559 2.78518 9.3307C2.7867 9.5055 2.85681 9.6727 2.98042 9.79631C3.10402 9.91992 3.27123 9.99003 3.44603 9.99155C3.62083 9.99307 3.78923 9.92587 3.91496 9.80443L5.36296 8.3571C5.74378 7.99319 6.25023 7.79011 6.77696 7.79011C7.3037 7.79011 7.81015 7.99319 8.19096 8.3571L12.3056 12.4711C12.4306 12.5961 12.6002 12.6664 12.777 12.6664Z" fill="black"/>
<path d="M11.4437 6.99968C11.9052 6.99968 12.3563 6.86283 12.74 6.60644C13.1237 6.35005 13.4228 5.98563 13.5994 5.55927C13.776 5.13291 13.8222 4.66375 13.7322 4.21113C13.6422 3.75851 13.4199 3.34275 13.0936 3.01643C12.7673 2.6901 12.3515 2.46788 11.8989 2.37784C11.4463 2.28781 10.9771 2.33402 10.5508 2.51062C10.1244 2.68723 9.75998 2.9863 9.50359 3.37001C9.2472 3.75373 9.11035 4.20485 9.11035 4.66634C9.11035 5.28518 9.35618 5.87867 9.79377 6.31626C10.2314 6.75384 10.8248 6.99968 11.4437 6.99968ZM11.4437 3.66634C11.6415 3.66634 11.8348 3.72499 11.9993 3.83487C12.1637 3.94475 12.2919 4.10093 12.3676 4.28366C12.4433 4.46638 12.4631 4.66745 12.4245 4.86143C12.3859 5.05541 12.2906 5.2336 12.1508 5.37345C12.0109 5.5133 11.8328 5.60854 11.6388 5.64713C11.4448 5.68571 11.2437 5.66591 11.061 5.59022C10.8783 5.51453 10.7221 5.38636 10.6122 5.22191C10.5023 5.05746 10.4437 4.86412 10.4437 4.66634C10.4437 4.40113 10.549 4.14677 10.7366 3.95924C10.9241 3.7717 11.1785 3.66634 11.4437 3.66634Z" fill="black"/>
<path d="M16.111 10.667C15.9342 10.667 15.7646 10.7372 15.6396 10.8623C15.5146 10.9873 15.4443 11.1568 15.4443 11.3337V12.667C15.4443 13.1974 15.2336 13.7061 14.8585 14.0812C14.4835 14.4563 13.9748 14.667 13.4443 14.667H12.111C11.9342 14.667 11.7646 14.7372 11.6396 14.8622C11.5146 14.9873 11.4443 15.1568 11.4443 15.3337C11.4443 15.5105 11.5146 15.68 11.6396 15.8051C11.7646 15.9301 11.9342 16.0003 12.111 16.0003H13.4443C14.3281 15.9993 15.1753 15.6477 15.8002 15.0228C16.4251 14.3979 16.7766 13.5507 16.7777 12.667V11.3337C16.7777 11.1568 16.7074 10.9873 16.5824 10.8623C16.4574 10.7372 16.2878 10.667 16.111 10.667Z" fill="black"/>
<path d="M1.44401 5.33333C1.62082 5.33333 1.79039 5.2631 1.91542 5.13807C2.04044 5.01305 2.11068 4.84348 2.11068 4.66667V3.33333C2.11068 2.8029 2.32139 2.29419 2.69646 1.91912C3.07154 1.54405 3.58024 1.33333 4.11068 1.33333H5.44401C5.62082 1.33333 5.79039 1.2631 5.91541 1.13807C6.04044 1.01305 6.11068 0.843478 6.11068 0.666667C6.11068 0.489856 6.04044 0.320286 5.91541 0.195262C5.79039 0.0702379 5.62082 0 5.44401 0L4.11068 0C3.22695 0.00105857 2.37972 0.352588 1.75482 0.97748C1.12993 1.60237 0.778402 2.4496 0.777344 3.33333L0.777344 4.66667C0.777344 4.84348 0.847582 5.01305 0.972606 5.13807C1.09763 5.2631 1.2672 5.33333 1.44401 5.33333Z" fill="black"/>
<path d="M5.44401 14.6669H4.11068C3.58024 14.6669 3.07154 14.4562 2.69646 14.0811C2.32139 13.706 2.11068 13.1973 2.11068 12.6669V11.3336C2.11068 11.1567 2.04044 10.9872 1.91542 10.8621C1.79039 10.7371 1.62082 10.6669 1.44401 10.6669C1.2672 10.6669 1.09763 10.7371 0.972606 10.8621C0.847582 10.9872 0.777344 11.1567 0.777344 11.3336L0.777344 12.6669C0.778402 13.5506 1.12993 14.3978 1.75482 15.0227C2.37972 15.6476 3.22695 15.9992 4.11068 16.0002H5.44401C5.62082 16.0002 5.79039 15.93 5.91541 15.8049C6.04044 15.6799 6.11068 15.5104 6.11068 15.3335C6.11068 15.1567 6.04044 14.9872 5.91541 14.8621C5.79039 14.7371 5.62082 14.6669 5.44401 14.6669Z" fill="black"/>
<path d="M13.4443 0H12.111C11.9342 0 11.7646 0.0702379 11.6396 0.195262C11.5146 0.320286 11.4443 0.489856 11.4443 0.666667C11.4443 0.843478 11.5146 1.01305 11.6396 1.13807C11.7646 1.2631 11.9342 1.33333 12.111 1.33333H13.4443C13.9748 1.33333 14.4835 1.54405 14.8585 1.91912C15.2336 2.29419 15.4443 2.8029 15.4443 3.33333V4.66667C15.4443 4.84348 15.5146 5.01305 15.6396 5.13807C15.7646 5.2631 15.9342 5.33333 16.111 5.33333C16.2878 5.33333 16.4574 5.2631 16.5824 5.13807C16.7074 5.01305 16.7777 4.84348 16.7777 4.66667V3.33333C16.7766 2.4496 16.4251 1.60237 15.8002 0.97748C15.1753 0.352588 14.3281 0.00105857 13.4443 0V0Z" fill="black"/>
</g>
<defs>
<clipPath id="clip0_483_13846">
<rect width="16" height="16" fill="white" transform="translate(0.777344)"/>
</clipPath>
</defs>
</svg>
