<svg width="17" height="16" viewBox="0 0 17 16" fill="none" xmlns="http://www.w3.org/2000/svg">
<g clip-path="url(#clip0_483_13729)">
<path d="M11.5997 9.81577C11.7247 9.94075 11.8942 10.011 12.071 10.011C12.2478 10.011 12.4173 9.94075 12.5423 9.81577L15.8417 6.51577C15.9965 6.361 16.1193 6.17725 16.2031 5.97501C16.2869 5.77277 16.33 5.55601 16.33 5.3371C16.33 5.1182 16.2869 4.90143 16.2031 4.6992C16.1193 4.49696 15.9965 4.31321 15.8417 4.15844L12.5417 0.859103C12.4149 0.744152 12.2488 0.682355 12.0777 0.686506C11.9066 0.690658 11.7437 0.76044 11.6226 0.881405C11.5016 1.00237 11.4317 1.16525 11.4274 1.33633C11.4231 1.50741 11.4848 1.67358 11.5997 1.80044L14.4663 4.6671H3.66634C2.78229 4.6671 1.93444 5.01829 1.30932 5.64341C0.684197 6.26854 0.333008 7.11638 0.333008 8.00044L0.333008 12.6671C0.334066 13.5508 0.685596 14.3981 1.31049 15.023C1.93538 15.6479 2.78261 15.9994 3.66634 16.0004H12.9997C13.1765 16.0004 13.3461 15.9302 13.4711 15.8052C13.5961 15.6802 13.6663 15.5106 13.6663 15.3338C13.6663 15.157 13.5961 14.9874 13.4711 14.8624C13.3461 14.7373 13.1765 14.6671 12.9997 14.6671H3.66634C3.13591 14.6671 2.6272 14.4564 2.25213 14.0813C1.87705 13.7062 1.66634 13.1975 1.66634 12.6671V8.00044C1.66634 7.47 1.87705 6.9613 2.25213 6.58622C2.6272 6.21115 3.13591 6.00044 3.66634 6.00044H14.4743L11.5997 8.8731C11.4747 8.99812 11.4045 9.16766 11.4045 9.34444C11.4045 9.52121 11.4747 9.69075 11.5997 9.81577Z" fill="black"/>
</g>
<defs>
<clipPath id="clip0_483_13729">
<rect width="16" height="16" fill="white" transform="translate(0.333008)"/>
</clipPath>
</defs>
</svg>
