<svg width="17" height="16" viewBox="0 0 17 16" fill="none" xmlns="http://www.w3.org/2000/svg">
<g clip-path="url(#clip0_483_13739)">
<path d="M13.0443 -0.000474867H3.84434C2.95169 -0.00847404 2.09234 0.338023 1.4549 0.962964C0.817457 1.58791 0.454013 2.44023 0.444336 3.33286L0.444336 5.33286C0.444336 5.50967 0.514574 5.67924 0.639598 5.80426C0.764622 5.92929 0.934192 5.99953 1.111 5.99953C1.28781 5.99953 1.45738 5.92929 1.58241 5.80426C1.70743 5.67924 1.77767 5.50967 1.77767 5.33286V3.33286C1.78714 2.79379 2.01004 2.28049 2.39748 1.90555C2.78491 1.53061 3.30525 1.32465 3.84434 1.33286H13.0443C13.5834 1.32465 14.1038 1.53061 14.4912 1.90555C14.8786 2.28049 15.1015 2.79379 15.111 3.33286V12.6662C15.1015 13.2053 14.8786 13.7186 14.4912 14.0935C14.1038 14.4684 13.5834 14.6744 13.0443 14.6662H3.84434C3.30525 14.6744 2.78491 14.4684 2.39748 14.0935C2.01004 13.7186 1.78714 13.2053 1.77767 12.6662V10.6662C1.77767 10.4894 1.70743 10.3198 1.58241 10.1948C1.45738 10.0698 1.28781 9.99953 1.111 9.99953C0.934192 9.99953 0.764622 10.0698 0.639598 10.1948C0.514574 10.3198 0.444336 10.4894 0.444336 10.6662L0.444336 12.6662C0.454013 13.5588 0.817457 14.4111 1.4549 15.0361C2.09234 15.661 2.95169 16.0075 3.84434 15.9995H13.0443C13.937 16.0075 14.7963 15.661 15.4338 15.0361C16.0712 14.4111 16.4347 13.5588 16.4443 12.6662V3.33286C16.4347 2.44023 16.0712 1.58791 15.4338 0.962964C14.7963 0.338023 13.937 -0.00847404 13.0443 -0.000474867Z" fill="black"/>
<path d="M2.44434 7.99945C2.44434 8.17626 2.51457 8.34583 2.6396 8.47085C2.76462 8.59588 2.93419 8.66611 3.111 8.66611L11.903 8.64611L9.021 11.5281C8.95733 11.5896 8.90654 11.6632 8.8716 11.7445C8.83666 11.8258 8.81827 11.9133 8.8175 12.0018C8.81673 12.0904 8.8336 12.1782 8.86712 12.2601C8.90064 12.342 8.95014 12.4164 9.01274 12.479C9.07533 12.5416 9.14977 12.5911 9.2317 12.6247C9.31363 12.6582 9.40142 12.675 9.48994 12.6743C9.57846 12.6735 9.66594 12.6551 9.74727 12.6202C9.82861 12.5852 9.90217 12.5345 9.96367 12.4708L13.021 9.41345C13.3959 9.03839 13.6066 8.52978 13.6066 7.99945C13.6066 7.46912 13.3959 6.9605 13.021 6.58545L9.965 3.52811C9.83927 3.40668 9.67087 3.33948 9.49607 3.341C9.32127 3.34252 9.15406 3.41263 9.03046 3.53624C8.90685 3.65984 8.83674 3.82705 8.83522 4.00185C8.8337 4.17664 8.9009 4.34505 9.02234 4.47078L11.8637 7.31278L3.111 7.33278C2.93419 7.33278 2.76462 7.40302 2.6396 7.52804C2.51457 7.65307 2.44434 7.82264 2.44434 7.99945Z" fill="black"/>
</g>
<defs>
<clipPath id="clip0_483_13739">
<rect width="16" height="16" fill="white" transform="translate(0.444336)"/>
</clipPath>
</defs>
</svg>
