<svg width="17" height="16" viewBox="0 0 17 16" fill="none" xmlns="http://www.w3.org/2000/svg">
<g clip-path="url(#clip0_483_13726)">
<path d="M15.5937 3.48657L10.6777 1.14457C9.59556 0.498195 8.24868 0.486726 7.15568 1.11457L2.18437 3.48657C2.16572 3.49591 2.14637 3.50591 2.12837 3.51657C0.948622 4.19113 0.53906 5.69435 1.21362 6.8741C1.44228 7.27404 1.77862 7.60173 2.18437 7.81991L3.55572 8.47326V11.7399C3.55653 13.2006 4.507 14.4911 5.90172 14.9253C6.87231 15.206 7.87872 15.3435 8.88906 15.3333C9.89925 15.3446 10.9057 15.2083 11.8764 14.9286C13.2711 14.4945 14.2216 13.204 14.2224 11.7433V8.47191L15.5557 7.83457V13.3332C15.5557 13.7014 15.8542 13.9999 16.2224 13.9999C16.5906 13.9999 16.8891 13.7014 16.8891 13.3332V5.33323C16.8935 4.55038 16.2754 3.82719 15.5937 3.48657ZM12.889 11.7433C12.8894 12.617 12.3225 13.3898 11.489 13.6519C10.6438 13.8934 9.768 14.0106 8.88903 13.9999C8.01006 14.0106 7.13422 13.8934 6.28903 13.6519C5.45556 13.3898 4.88868 12.617 4.88903 11.7433V9.1086L7.10037 10.1619C7.646 10.4859 8.26915 10.6562 8.90372 10.6546C9.50772 10.6589 10.1016 10.499 10.6217 10.1919L12.889 9.10857V11.7433ZM15.0224 6.61657L9.99437 9.01657C9.29331 9.42479 8.42434 9.41323 7.73437 8.98657L2.81503 6.64657C2.26668 6.35088 2.06187 5.66666 2.35756 5.11835C2.45756 4.93291 2.6075 4.7792 2.79037 4.67457L7.78703 2.28791C8.48831 1.8806 9.35681 1.89213 10.047 2.31791L14.963 4.65991C15.3246 4.86066 15.5507 5.23976 15.5557 5.65326C15.5563 6.04494 15.3547 6.40919 15.0224 6.61657Z" fill="black"/>
</g>
<defs>
<clipPath id="clip0_483_13726">
<rect width="16" height="16" fill="white" transform="translate(0.888672)"/>
</clipPath>
</defs>
</svg>
