<svg width="17" height="16" viewBox="0 0 17 16" fill="none" xmlns="http://www.w3.org/2000/svg">
<g clip-path="url(#clip0_483_13643)">
<path d="M12.1107 16C11.9339 16 11.7643 15.9298 11.6393 15.8047C11.5142 15.6797 11.444 15.5101 11.444 15.3333C11.444 14.0957 10.9523 12.9087 10.0772 12.0335C9.20201 11.1583 8.01502 10.6667 6.77734 10.6667C5.53967 10.6667 4.35268 11.1583 3.47751 12.0335C2.60234 12.9087 2.11068 14.0957 2.11068 15.3333C2.11068 15.5101 2.04044 15.6797 1.91542 15.8047C1.79039 15.9298 1.62082 16 1.44401 16C1.2672 16 1.09763 15.9298 0.972606 15.8047C0.847582 15.6797 0.777344 15.5101 0.777344 15.3333C0.777344 13.742 1.40948 12.2159 2.5347 11.0907C3.65992 9.96548 5.18605 9.33334 6.77734 9.33334C8.36864 9.33334 9.89477 9.96548 11.02 11.0907C12.1452 12.2159 12.7773 13.742 12.7773 15.3333C12.7773 15.5101 12.7071 15.6797 12.5821 15.8047C12.4571 15.9298 12.2875 16 12.1107 16ZM16.1107 8.66667H12.1107C11.9339 8.66667 11.7643 8.59643 11.6393 8.47141C11.5142 8.34638 11.444 8.17681 11.444 8C11.444 7.82319 11.5142 7.65362 11.6393 7.5286C11.7643 7.40357 11.9339 7.33334 12.1107 7.33334H16.1107C16.2875 7.33334 16.4571 7.40357 16.5821 7.5286C16.7071 7.65362 16.7773 7.82319 16.7773 8C16.7773 8.17681 16.7071 8.34638 16.5821 8.47141C16.4571 8.59643 16.2875 8.66667 16.1107 8.66667ZM6.77734 8C5.98622 8 5.21286 7.76541 4.55506 7.32588C3.89727 6.88635 3.38458 6.26164 3.08183 5.53074C2.77908 4.79983 2.69986 3.99556 2.8542 3.21964C3.00854 2.44372 3.38951 1.73098 3.94892 1.17157C4.50833 0.612165 5.22106 0.231202 5.99698 0.0768607C6.77291 -0.0774802 7.57717 0.00173314 8.30808 0.304484C9.03898 0.607234 9.6637 1.11992 10.1032 1.77772C10.5427 2.43552 10.7773 3.20888 10.7773 4C10.7763 5.06054 10.3545 6.07734 9.6046 6.82726C8.85469 7.57718 7.83788 7.99894 6.77734 8ZM6.77734 1.33334C6.24993 1.33334 5.73435 1.48973 5.29582 1.78275C4.85729 2.07577 4.5155 2.49224 4.31367 2.97951C4.11183 3.46678 4.05902 4.00296 4.16192 4.52024C4.26481 5.03753 4.51879 5.51268 4.89173 5.88562C5.26467 6.25856 5.73982 6.51254 6.2571 6.61543C6.77439 6.71832 7.31056 6.66551 7.79783 6.46368C8.2851 6.26185 8.70158 5.92005 8.9946 5.48152C9.28761 5.04299 9.44401 4.52742 9.44401 4C9.44401 3.29276 9.16306 2.61448 8.66296 2.11438C8.16287 1.61429 7.48459 1.33334 6.77734 1.33334Z" fill="black"/>
</g>
<defs>
<clipPath id="clip0_483_13643">
<rect width="16" height="16" fill="white" transform="translate(0.777344)"/>
</clipPath>
</defs>
</svg>
