<svg width="17" height="16" viewBox="0 0 17 16" fill="none" xmlns="http://www.w3.org/2000/svg">
<g clip-path="url(#clip0_482_17989)">
<path d="M8.88855 16C8.80081 16.0005 8.71384 15.9837 8.63261 15.9505C8.55139 15.9173 8.47751 15.8684 8.41522 15.8066L2.96855 10.36C2.65813 10.0503 2.41184 9.68251 2.2438 9.27754C2.07576 8.87257 1.98926 8.43843 1.98926 7.99998C1.98926 7.56153 2.07576 7.12739 2.2438 6.72242C2.41184 6.31746 2.65813 5.94962 2.96855 5.63998L8.41522 0.193314C8.54075 0.0677787 8.71101 -0.00274658 8.88855 -0.00274658C9.06608 -0.00274658 9.23635 0.0677787 9.36188 0.193314C9.48742 0.31885 9.55794 0.489113 9.55794 0.666648C9.55794 0.844182 9.48742 1.01445 9.36188 1.13998L3.91522 6.58665C3.54068 6.96165 3.33031 7.46998 3.33031 7.99998C3.33031 8.52998 3.54068 9.03831 3.91522 9.41331L9.36188 14.86C9.42437 14.922 9.47396 14.9957 9.50781 15.0769C9.54166 15.1582 9.55908 15.2453 9.55908 15.3333C9.55908 15.4213 9.54166 15.5085 9.50781 15.5897C9.47396 15.6709 9.42437 15.7447 9.36188 15.8066C9.29959 15.8684 9.22571 15.9173 9.14449 15.9505C9.06326 15.9837 8.97629 16.0005 8.88855 16Z" fill="black"/>
<path d="M15.5553 16C15.4675 16.0005 15.3805 15.9837 15.2993 15.9505C15.2181 15.9173 15.1442 15.8684 15.0819 15.8066L8.69526 9.41331C8.32072 9.03831 8.11035 8.52998 8.11035 7.99998C8.11035 7.46998 8.32072 6.96165 8.69526 6.58665L15.0819 0.193314C15.2075 0.0677787 15.3777 -0.00274658 15.5553 -0.00274658C15.7328 -0.00274658 15.9031 0.0677787 16.0286 0.193314C16.1541 0.31885 16.2247 0.489113 16.2247 0.666648C16.2247 0.844182 16.1541 1.01445 16.0286 1.13998L9.63526 7.52665C9.57277 7.58862 9.52318 7.66236 9.48933 7.7436C9.45549 7.82484 9.43806 7.91197 9.43806 7.99998C9.43806 8.08799 9.45549 8.17513 9.48933 8.25637C9.52318 8.33761 9.57277 8.41134 9.63526 8.47331L16.0286 14.86C16.0911 14.922 16.1407 14.9957 16.1745 15.0769C16.2084 15.1582 16.2258 15.2453 16.2258 15.3333C16.2258 15.4213 16.2084 15.5085 16.1745 15.5897C16.1407 15.6709 16.0911 15.7447 16.0286 15.8066C15.9663 15.8684 15.8924 15.9173 15.8112 15.9505C15.73 15.9837 15.643 16.0005 15.5553 16Z" fill="black"/>
</g>
<defs>
<clipPath id="clip0_482_17989">
<rect width="16" height="16" fill="white" transform="translate(0.888672)"/>
</clipPath>
</defs>
</svg>
