<svg width="16" height="16" viewBox="0 0 16 16" fill="none" xmlns="http://www.w3.org/2000/svg">
<g clip-path="url(#clip0_483_13873)">
<path d="M15.8123 6.366C15.1796 4.96782 14.1826 3.76554 12.9255 2.88515C11.6685 2.00476 10.1979 1.47867 8.66764 1.362V0.666667C8.66764 0.489856 8.5974 0.320286 8.47238 0.195262C8.34735 0.0702379 8.17778 0 8.00097 0C7.82416 0 7.65459 0.0702379 7.52957 0.195262C7.40454 0.320286 7.3343 0.489856 7.3343 0.666667V1.362C5.8024 1.47744 4.32977 2.00293 3.07083 2.88335C1.81189 3.76377 0.813027 4.9667 0.178971 6.366C0.0196024 6.766 -0.0391218 7.199 0.00795515 7.62699C0.0550321 8.05499 0.20647 8.46488 0.448971 8.82067C0.694038 9.1838 1.02449 9.48122 1.41132 9.68685C1.79816 9.89247 2.22955 10 2.66764 10H7.3343V14C7.3343 14.1768 7.26407 14.3464 7.13904 14.4714C7.01402 14.5964 6.84445 14.6667 6.66764 14.6667C6.49083 14.6667 6.32126 14.5964 6.19623 14.4714C6.07121 14.3464 6.00097 14.1768 6.00097 14C6.00097 13.8232 5.93073 13.6536 5.80571 13.5286C5.68068 13.4036 5.51112 13.3333 5.3343 13.3333C5.15749 13.3333 4.98792 13.4036 4.8629 13.5286C4.73788 13.6536 4.66764 13.8232 4.66764 14C4.66764 14.5304 4.87835 15.0391 5.25342 15.4142C5.6285 15.7893 6.1372 16 6.66764 16C7.19807 16 7.70678 15.7893 8.08185 15.4142C8.45692 15.0391 8.66764 14.5304 8.66764 14V10H13.323C13.7612 9.99999 14.1926 9.89246 14.5796 9.68685C14.9665 9.48123 15.2971 9.18381 15.5423 8.82067C15.7846 8.4648 15.936 8.05493 15.9831 7.62696C16.0301 7.199 15.9715 6.76603 15.8123 6.366ZM14.4383 8.07333C14.3162 8.25703 14.1504 8.40746 13.9557 8.51104C13.761 8.61462 13.5435 8.66811 13.323 8.66667H2.66764C2.44702 8.66809 2.22952 8.61454 2.03479 8.51083C1.84006 8.40712 1.67424 8.25653 1.5523 8.07267C1.43142 7.8975 1.35596 7.69504 1.33268 7.48349C1.30941 7.27194 1.33906 7.05792 1.41897 6.86067C2.3883 4.43067 5.15697 2.66667 8.00097 2.66667C9.38341 2.66162 10.7381 3.05433 11.9035 3.79797C13.0689 4.54161 13.9958 5.60478 14.5736 6.86067C14.6536 7.05813 14.6831 7.27241 14.6595 7.48413C14.6359 7.69586 14.5598 7.89836 14.4383 8.07333Z" fill="black"/>
</g>
<defs>
<clipPath id="clip0_483_13873">
<rect width="16" height="16" fill="white"/>
</clipPath>
</defs>
</svg>
