<svg width="17" height="16" viewBox="0 0 17 16" fill="none" xmlns="http://www.w3.org/2000/svg">
<g clip-path="url(#clip0_483_13762)">
<path d="M15.4803 0.615322C15.1794 0.364313 14.8265 0.183128 14.4471 0.0847997C14.0678 -0.0135287 13.6713 -0.0265558 13.2863 0.0466553L7.16367 1.19466C6.39949 1.33787 5.70941 1.7437 5.21283 2.34194C4.71625 2.94017 4.44441 3.69317 4.44434 4.47066V11.0373C4.04077 10.7974 3.58051 10.6694 3.111 10.6667C2.58359 10.6667 2.06801 10.8231 1.62948 11.1161C1.19095 11.4091 0.849159 11.8256 0.647325 12.3128C0.445491 12.8001 0.392682 13.3363 0.495576 13.8536C0.59847 14.3708 0.852446 14.846 1.22539 15.2189C1.59833 15.5919 2.07348 15.8459 2.59076 15.9487C3.10805 16.0516 3.64422 15.9988 4.13149 15.797C4.61876 15.5952 5.03524 15.2534 5.32826 14.8148C5.62127 14.3763 5.77767 13.8607 5.77767 13.3333V7.25066C5.77765 6.93958 5.88639 6.63828 6.08509 6.39893C6.28378 6.15957 6.55991 5.99723 6.86567 5.93999L14.321 4.53999C14.4177 4.52178 14.5173 4.52521 14.6125 4.55003C14.7077 4.57484 14.7963 4.62043 14.8718 4.68353C14.9473 4.74662 15.0079 4.82565 15.0493 4.91495C15.0906 5.00424 15.1117 5.10158 15.111 5.19999V9.03999C14.7077 8.79911 14.2474 8.67023 13.7777 8.66666C13.2503 8.66666 12.7347 8.82305 12.2962 9.11607C11.8576 9.40909 11.5158 9.82556 11.314 10.3128C11.1122 10.8001 11.0594 11.3363 11.1622 11.8536C11.2651 12.3708 11.5191 12.846 11.8921 13.2189C12.265 13.5919 12.7401 13.8459 13.2574 13.9487C13.7747 14.0516 14.3109 13.9988 14.7982 13.797C15.2854 13.5952 15.7019 13.2534 15.9949 12.8148C16.2879 12.3763 16.4443 11.8607 16.4443 11.3333V2.66666C16.4448 2.27481 16.3586 1.88772 16.192 1.53309C16.0253 1.17845 15.7823 0.865051 15.4803 0.615322ZM3.111 14.6667C2.8473 14.6667 2.58951 14.5885 2.37024 14.4419C2.15098 14.2954 1.98008 14.0872 1.87916 13.8436C1.77825 13.5999 1.75184 13.3318 1.80329 13.0732C1.85474 12.8146 1.98172 12.577 2.1682 12.3905C2.35467 12.204 2.59224 12.0771 2.85088 12.0256C3.10953 11.9742 3.37761 12.0006 3.62125 12.1015C3.86488 12.2024 4.07312 12.3733 4.21963 12.5926C4.36614 12.8118 4.44434 13.0696 4.44434 13.3333C4.44434 13.6869 4.30386 14.0261 4.05381 14.2761C3.80376 14.5262 3.46463 14.6667 3.111 14.6667ZM14.0757 3.23199L6.61967 4.62932C6.32322 4.68581 6.03851 4.79221 5.77767 4.94399V4.47066C5.77761 4.00414 5.94063 3.55227 6.23854 3.19325C6.53644 2.83423 6.95048 2.59065 7.409 2.50466L13.5323 1.35666C13.7248 1.32062 13.9229 1.32743 14.1125 1.3766C14.302 1.42577 14.4784 1.5161 14.6291 1.64116C14.7798 1.76621 14.9011 1.92293 14.9844 2.10017C15.0677 2.27741 15.1109 2.47082 15.111 2.66666V3.32266C14.7802 3.2003 14.4227 3.16899 14.0757 3.23199ZM13.7777 12.6667C13.514 12.6667 13.2562 12.5885 13.0369 12.4419C12.8176 12.2954 12.6467 12.0872 12.5458 11.8436C12.4449 11.5999 12.4185 11.3318 12.47 11.0732C12.5214 10.8146 12.6484 10.577 12.8349 10.3905C13.0213 10.204 13.2589 10.0771 13.5176 10.0256C13.7762 9.97416 14.0443 10.0006 14.2879 10.1015C14.5316 10.2024 14.7398 10.3733 14.8863 10.5926C15.0328 10.8118 15.111 11.0696 15.111 11.3333C15.111 11.6869 14.9705 12.0261 14.7205 12.2761C14.4704 12.5262 14.1313 12.6667 13.7777 12.6667Z" fill="black"/>
</g>
<defs>
<clipPath id="clip0_483_13762">
<rect width="16" height="16" fill="white" transform="translate(0.444336)"/>
</clipPath>
</defs>
</svg>
