<svg width="17" height="16" viewBox="0 0 17 16" fill="none" xmlns="http://www.w3.org/2000/svg">
<g clip-path="url(#clip0_483_13858)">
<path d="M8.88868 0C7.30643 0 5.75971 0.469192 4.44411 1.34824C3.12852 2.22729 2.10314 3.47672 1.49764 4.93853C0.892138 6.40034 0.733711 8.00887 1.04239 9.56072C1.35107 11.1126 2.113 12.538 3.23182 13.6569C4.35064 14.7757 5.77611 15.5376 7.32795 15.8463C8.8798 16.155 10.4883 15.9965 11.9501 15.391C13.412 14.7855 14.6614 13.7602 15.5404 12.4446C16.4195 11.129 16.8887 9.58225 16.8887 8C16.8864 5.87897 16.0428 3.84547 14.543 2.34568C13.0432 0.845886 11.0097 0.00229405 8.88868 0V0ZM8.88868 14.6667C7.57013 14.6667 6.2812 14.2757 5.18487 13.5431C4.08855 12.8106 3.23406 11.7694 2.72948 10.5512C2.22489 9.33305 2.09287 7.99261 2.35011 6.6994C2.60734 5.40619 3.24228 4.21831 4.17463 3.28596C5.10698 2.35361 6.29487 1.71867 7.58807 1.46143C8.88128 1.2042 10.2217 1.33622 11.4399 1.8408C12.6581 2.34539 13.6993 3.19987 14.4318 4.2962C15.1643 5.39253 15.5553 6.68146 15.5553 8C15.5534 9.76752 14.8504 11.4621 13.6006 12.7119C12.3508 13.9617 10.6562 14.6647 8.88868 14.6667Z" fill="black"/>
<path d="M9.36634 3.3751C8.98189 3.30505 8.58675 3.32036 8.20887 3.41993C7.83099 3.5195 7.47962 3.7009 7.17961 3.9513C6.8796 4.2017 6.63829 4.51498 6.47275 4.86896C6.30722 5.22295 6.22151 5.60899 6.22168 5.99977C6.22168 6.17658 6.29192 6.34615 6.41694 6.47117C6.54197 6.59619 6.71153 6.66643 6.88835 6.66643C7.06516 6.66643 7.23472 6.59619 7.35975 6.47117C7.48477 6.34615 7.55501 6.17658 7.55501 5.99977C7.55484 5.80362 7.59795 5.60985 7.68127 5.43227C7.76459 5.2547 7.88606 5.09769 8.03702 4.97245C8.18798 4.84721 8.36472 4.75682 8.55463 4.70773C8.74453 4.65864 8.94293 4.65205 9.13568 4.68843C9.39903 4.73956 9.64118 4.86802 9.83117 5.05743C10.0212 5.24683 10.1504 5.48857 10.2023 5.75177C10.2548 6.02803 10.2186 6.31382 10.0988 6.56826C9.97911 6.8227 9.78199 7.03277 9.53567 7.16843C9.12779 7.40474 8.79073 7.74611 8.55963 8.15697C8.32852 8.56782 8.21182 9.03314 8.22168 9.50443V9.99977C8.22168 10.1766 8.29191 10.3461 8.41694 10.4712C8.54196 10.5962 8.71153 10.6664 8.88834 10.6664C9.06515 10.6664 9.23472 10.5962 9.35975 10.4712C9.48477 10.3461 9.55501 10.1766 9.55501 9.99977V9.50443C9.54664 9.27244 9.59954 9.04234 9.70839 8.83729C9.81723 8.63225 9.97817 8.4595 10.175 8.33643C10.658 8.07115 11.047 7.66274 11.2884 7.16737C11.5298 6.672 11.6118 6.114 11.5232 5.57012C11.4345 5.02623 11.1796 4.52316 10.7933 4.1301C10.4071 3.73703 9.90859 3.47328 9.36634 3.3751Z" fill="black"/>
<path d="M9.55502 11.9998C9.55502 11.6316 9.25654 11.3331 8.88835 11.3331C8.52016 11.3331 8.22168 11.6316 8.22168 11.9998C8.22168 12.368 8.52016 12.6665 8.88835 12.6665C9.25654 12.6665 9.55502 12.368 9.55502 11.9998Z" fill="black"/>
</g>
<defs>
<clipPath id="clip0_483_13858">
<rect width="16" height="16" fill="white" transform="translate(0.888672)"/>
</clipPath>
</defs>
</svg>
