<svg width="17" height="16" viewBox="0 0 17 16" fill="none" xmlns="http://www.w3.org/2000/svg">
<g clip-path="url(#clip0_482_18071)">
<path d="M15.1162 3.41667C14.9294 3.18216 14.6919 2.9929 14.4217 2.86303C14.1515 2.73315 13.8554 2.66603 13.5555 2.66667H10.6709L10.7555 1.92667C10.7735 1.764 10.8507 1.61363 10.9724 1.50422C11.0942 1.3948 11.2519 1.33398 11.4155 1.33333H14.2222C14.399 1.33333 14.5686 1.2631 14.6936 1.13807C14.8186 1.01305 14.8889 0.843478 14.8889 0.666667C14.8889 0.489856 14.8186 0.320286 14.6936 0.195262C14.5686 0.0702379 14.399 0 14.2222 0L11.4155 0C10.9234 0.000112198 10.4485 0.181679 10.0819 0.509962C9.71523 0.838245 9.48249 1.29019 9.42819 1.77933L9.32952 2.66667H4.22219C3.92911 2.66939 3.64016 2.73606 3.37553 2.86203C3.11089 2.988 2.87695 3.17023 2.69005 3.39599C2.50314 3.62175 2.36778 3.88559 2.29342 4.16909C2.21906 4.45259 2.20749 4.7489 2.25952 5.03733L3.26752 13.0813C3.36965 13.8868 3.76179 14.6274 4.37055 15.1646C4.9793 15.7018 5.76295 15.9988 6.57485 16H11.2022C12.0142 15.9987 12.798 15.7016 13.4068 15.1643C14.0157 14.627 14.4079 13.8862 14.5102 13.0807L15.5102 5.102C15.5758 4.80955 15.5744 4.50605 15.5062 4.21421C15.438 3.92236 15.3047 3.64971 15.1162 3.41667ZM13.5555 4C13.6555 3.99996 13.7542 4.02241 13.8443 4.06569C13.9345 4.10896 14.0137 4.17195 14.0762 4.25C14.1431 4.33775 14.1888 4.43986 14.2095 4.54827C14.2302 4.65668 14.2254 4.76842 14.1955 4.87467L13.9702 6.66667H10.2262L10.5229 4H13.5555ZM3.70285 4.24933C3.76526 4.17159 3.84432 4.10883 3.9342 4.06568C4.02407 4.02252 4.12249 4.00008 4.22219 4H9.18019L8.88352 6.66667H3.80485L3.57152 4.81067C3.54967 4.71325 3.55013 4.61216 3.57287 4.51495C3.59562 4.41775 3.64005 4.32694 3.70285 4.24933ZM13.1869 12.916C13.1254 13.3992 12.89 13.8435 12.5247 14.1657C12.1595 14.4879 11.6893 14.666 11.2022 14.6667H6.57485C6.08767 14.6666 5.61727 14.4887 5.25197 14.1663C4.88667 13.844 4.65159 13.3994 4.59085 12.916L3.97285 8H13.8029L13.1869 12.916ZM9.84752 10.0733L9.55152 12.74C9.54189 12.827 9.51521 12.9113 9.47301 12.988C9.43081 13.0647 9.37392 13.1324 9.30557 13.1871C9.23723 13.2418 9.15878 13.2825 9.07469 13.307C8.99061 13.3314 8.90254 13.339 8.81552 13.3293C8.7285 13.3197 8.64422 13.293 8.56751 13.2508C8.4908 13.2086 8.42315 13.1517 8.36842 13.0834C8.3137 13.015 8.27297 12.9366 8.24857 12.8525C8.22416 12.7684 8.21656 12.6804 8.22619 12.5933L8.52219 9.92667C8.54394 9.7518 8.63312 9.59233 8.77072 9.48225C8.90832 9.37217 9.08347 9.32017 9.25885 9.33733C9.43449 9.35693 9.59515 9.44547 9.70554 9.58348C9.81592 9.72149 9.86699 9.89768 9.84752 10.0733Z" fill="black"/>
</g>
<defs>
<clipPath id="clip0_482_18071">
<rect width="16" height="16" fill="white" transform="translate(0.888672)"/>
</clipPath>
</defs>
</svg>
