<svg width="17" height="16" viewBox="0 0 17 16" fill="none" xmlns="http://www.w3.org/2000/svg">
<g clip-path="url(#clip0_483_13816)">
<path d="M9.67484 11.5113L7.50017 13.686C6.86879 14.3005 6.02084 14.6417 5.1398 14.6358C4.25876 14.6299 3.41547 14.2773 2.79238 13.6544C2.16929 13.0315 1.8165 12.1883 1.81035 11.3073C1.8042 10.4262 2.14517 9.57819 2.7595 8.94663L4.93417 6.76997C5.05918 6.64487 5.12937 6.47525 5.12931 6.2984C5.12924 6.12155 5.05893 5.95198 4.93384 5.82697C4.80874 5.70197 4.63912 5.63177 4.46227 5.63184C4.28542 5.6319 4.11584 5.70221 3.99084 5.8273L1.81684 8.00397C0.938353 8.88289 0.445 10.0748 0.445313 11.3175C0.445625 12.5601 0.939577 13.7518 1.8185 14.6303C2.69743 15.5088 3.88934 16.0021 5.13202 16.0018C6.3747 16.0015 7.56635 15.5075 8.44484 14.6286L10.6195 12.454C10.7409 12.3282 10.8081 12.1598 10.8066 11.985C10.8051 11.8102 10.735 11.643 10.6114 11.5194C10.4878 11.3958 10.3206 11.3257 10.1458 11.3242C9.97097 11.3227 9.80257 11.3899 9.67684 11.5113H9.67484Z" fill="black"/>
<path d="M15.0733 1.37426C14.6395 0.93747 14.1233 0.591113 13.5547 0.355258C12.9861 0.119403 12.3763 -0.00126016 11.7607 0.000260568C11.1454 -0.00137392 10.5359 0.118979 9.96738 0.354361C9.39889 0.589744 8.8827 0.935485 8.44866 1.37159L6.27066 3.54693C6.14557 3.67193 6.07526 3.84151 6.0752 4.01836C6.07513 4.19521 6.14533 4.36483 6.27033 4.48993C6.39534 4.61502 6.56491 4.68533 6.74176 4.6854C6.91861 4.68546 7.08824 4.61527 7.21333 4.49026L9.39 2.31559C9.70036 2.00336 10.0696 1.7558 10.4763 1.58723C10.883 1.41867 11.3191 1.33246 11.7593 1.33359C12.4222 1.33381 13.0701 1.53055 13.6211 1.89893C14.1722 2.26731 14.6016 2.79079 14.8552 3.40321C15.1088 4.01562 15.1751 4.68947 15.0458 5.33958C14.9165 5.98968 14.5973 6.58685 14.1287 7.05559L11.954 9.23026C11.8289 9.35536 11.7586 9.52502 11.7586 9.70193C11.7586 9.87884 11.8289 10.0485 11.954 10.1736C12.0791 10.2987 12.2488 10.369 12.4257 10.369C12.6026 10.369 12.7722 10.2987 12.8973 10.1736L15.072 8.00026C15.9494 7.12099 16.4422 5.92966 16.4425 4.68754C16.4427 3.44541 15.9503 2.25388 15.0733 1.37426Z" fill="black"/>
<path d="M9.97306 5.52873L5.97306 9.52872C5.90938 9.59022 5.85859 9.66378 5.82366 9.74512C5.78872 9.82646 5.77033 9.91394 5.76956 10.0025C5.76879 10.091 5.78566 10.1788 5.81918 10.2607C5.8527 10.3426 5.9022 10.4171 5.96479 10.4797C6.02739 10.5422 6.10182 10.5917 6.18375 10.6253C6.26568 10.6588 6.35347 10.6757 6.44199 10.6749C6.53051 10.6741 6.61799 10.6557 6.69933 10.6208C6.78066 10.5859 6.85423 10.5351 6.91572 10.4714L10.9157 6.4714C11.0372 6.34566 11.1044 6.17726 11.1028 6.00246C11.1013 5.82767 11.0312 5.66046 10.9076 5.53685C10.784 5.41325 10.6168 5.34314 10.442 5.34162C10.2672 5.3401 10.0988 5.40729 9.97306 5.52873Z" fill="black"/>
</g>
<defs>
<clipPath id="clip0_483_13816">
<rect width="16" height="16" fill="white" transform="translate(0.444336)"/>
</clipPath>
</defs>
</svg>
