<svg width="17" height="16" viewBox="0 0 17 16" fill="none" xmlns="http://www.w3.org/2000/svg">
<g clip-path="url(#clip0_483_13720)">
<path d="M10.7776 5.33304C10.0241 5.33368 9.27933 5.4945 8.59271 5.80482C7.90608 6.11515 7.29327 6.5679 6.79491 7.13304C6.47724 6.97862 6.14281 6.8614 5.79824 6.78371L6.71091 4.96438C6.76157 4.86294 6.78553 4.75026 6.78051 4.63699C6.7755 4.52372 6.74168 4.4136 6.68224 4.31704C6.47061 4.0086 6.18593 3.75733 5.8536 3.58563C5.52126 3.41394 5.1516 3.32716 4.77758 3.33304C4.40412 3.32771 4.03513 3.41476 3.70342 3.58643C3.37171 3.75809 3.08756 4.00907 2.87624 4.31704C2.81681 4.4136 2.78299 4.52372 2.77797 4.63699C2.77296 4.75026 2.79691 4.86294 2.84758 4.96438L3.75691 6.78238C3.07089 6.93343 2.42782 7.23741 1.87566 7.67164C1.32349 8.10587 0.876482 8.65915 0.567957 9.29022C0.259432 9.9213 0.0973542 10.6139 0.0938094 11.3163C0.0902647 12.0188 0.245345 12.7129 0.547485 13.3471C0.849626 13.9813 1.29103 14.539 1.83878 14.9788C2.38654 15.4186 3.02651 15.729 3.71097 15.887C4.39543 16.045 5.10672 16.0464 5.7918 15.8911C6.47689 15.7359 7.11808 15.428 7.66758 14.9904C8.34983 15.483 9.13895 15.8072 9.97047 15.9364C10.802 16.0657 11.6523 15.9963 12.4519 15.7341C13.2514 15.4718 13.9776 15.024 14.5711 14.4274C15.1645 13.8308 15.6083 13.1022 15.8662 12.3012C16.1242 11.5002 16.1889 10.6496 16.0552 9.81875C15.9215 8.98795 15.593 8.20058 15.0968 7.521C14.6005 6.84142 13.9504 6.28892 13.1998 5.90865C12.4491 5.52838 11.6191 5.33114 10.7776 5.33304ZM7.60024 13.0864C7.15754 12.5112 6.88127 11.8254 6.80157 11.104C6.72186 10.3825 6.84178 9.65302 7.14824 8.99504C7.67646 9.52463 8.00893 10.2181 8.09106 10.9615C8.1732 11.705 8.00012 12.4543 7.60024 13.0864ZM1.44424 11.333C1.44284 10.7866 1.57615 10.2482 1.83239 9.76553C2.08864 9.28286 2.4599 8.8708 2.91334 8.5658C3.36678 8.26081 3.8884 8.07229 4.43206 8.01692C4.97571 7.96156 5.52463 8.04105 6.03024 8.24838C5.55454 9.17461 5.36194 10.2204 5.47646 11.2553C5.59098 12.2902 6.00755 13.2686 6.67424 14.0684C6.17503 14.4166 5.58985 14.6212 4.9824 14.6599C4.37495 14.6986 3.76853 14.5699 3.22916 14.2878C2.6898 14.0057 2.23816 13.5811 1.92344 13.0601C1.60872 12.5391 1.44297 11.9417 1.44424 11.333ZM10.7776 14.6664C10.0009 14.6666 9.24113 14.4392 8.59225 14.0124C9.24863 13.0845 9.54183 11.9481 9.41625 10.8186C9.29067 9.68899 8.75505 8.64473 7.91091 7.88371C8.37061 7.40901 8.94076 7.0556 9.5704 6.85505C10.2 6.6545 10.8696 6.61306 11.5191 6.73444C12.1687 6.85583 12.7781 7.13625 13.2928 7.55064C13.8075 7.96503 14.2115 8.50049 14.4688 9.10917C14.7261 9.71785 14.8285 10.3808 14.767 11.0387C14.7055 11.6966 14.4819 12.3291 14.1163 12.8795C13.7507 13.43 13.2544 13.8813 12.6718 14.1931C12.0892 14.5049 11.4384 14.6675 10.7776 14.6664Z" fill="black"/>
<path d="M7.14665 3.26348C7.22516 3.30317 7.31075 3.32693 7.39848 3.33339C7.48622 3.33985 7.57436 3.32889 7.65784 3.30112C7.74132 3.27336 7.81847 3.22935 7.88486 3.17163C7.95125 3.11391 8.00556 3.04362 8.04465 2.96481L8.71132 1.63148C8.79036 1.47323 8.80329 1.29007 8.74728 1.12229C8.69127 0.954507 8.5709 0.815847 8.41265 0.736812C8.3343 0.697679 8.249 0.674361 8.16164 0.668191C8.07427 0.662022 7.98654 0.67312 7.90346 0.700854C7.73568 0.756865 7.59702 0.877233 7.51799 1.03548L6.85132 2.36881C6.77197 2.52664 6.7585 2.7095 6.81387 2.87725C6.86925 3.045 6.98894 3.18391 7.14665 3.26348Z" fill="black"/>
<path d="M1.51486 2.96478C1.5939 3.12347 1.73273 3.24426 1.90083 3.30059C1.98406 3.32847 2.07197 3.3397 2.15954 3.33361C2.24711 3.32752 2.33262 3.30425 2.4112 3.26512C2.48977 3.22598 2.55987 3.17175 2.61748 3.10553C2.6751 3.03931 2.71911 2.96238 2.747 2.87915C2.77489 2.79592 2.78611 2.70801 2.78002 2.62044C2.77394 2.53287 2.75066 2.44736 2.71153 2.36878L2.04486 1.03545C1.96583 0.877203 1.82717 0.756835 1.65938 0.700824C1.4916 0.644813 1.30844 0.657748 1.1502 0.736782C0.991949 0.815817 0.871581 0.954477 0.81557 1.12226C0.759559 1.29004 0.772494 1.4732 0.851529 1.63145L1.51486 2.96478Z" fill="black"/>
<path d="M4.77799 2.66667C4.9548 2.66667 5.12437 2.59643 5.2494 2.4714C5.37442 2.34638 5.44466 2.17681 5.44466 2V0.666667C5.44466 0.489856 5.37442 0.320286 5.2494 0.195262C5.12437 0.0702379 4.9548 0 4.77799 0C4.60118 0 4.43161 0.0702379 4.30659 0.195262C4.18157 0.320286 4.11133 0.489856 4.11133 0.666667V2C4.11133 2.17681 4.18157 2.34638 4.30659 2.4714C4.43161 2.59643 4.60118 2.66667 4.77799 2.66667Z" fill="black"/>
</g>
<defs>
<clipPath id="clip0_483_13720">
<rect width="16" height="16" fill="white" transform="translate(0.111328)"/>
</clipPath>
</defs>
</svg>
