<svg width="17" height="16" viewBox="0 0 17 16" fill="none" xmlns="http://www.w3.org/2000/svg">
<g clip-path="url(#clip0_483_13756)">
<path d="M16.222 13.3333H10.766C10.6664 13.0545 10.5061 12.8013 10.2968 12.5919C10.0874 12.3825 9.83417 12.2223 9.55534 12.1227V9.33333H13.5553C13.9598 9.3348 14.3551 9.21317 14.6888 8.98458C15.0224 8.756 15.2786 8.4313 15.4233 8.05362C15.568 7.67594 15.5944 7.26317 15.4989 6.87015C15.4034 6.47714 15.1906 6.12249 14.8887 5.85333V2.66667C14.8887 1.95942 14.6077 1.28115 14.1076 0.781049C13.6075 0.280952 12.9292 0 12.222 0L5.55534 0C4.84809 0 4.16982 0.280952 3.66972 0.781049C3.16962 1.28115 2.88867 1.95942 2.88867 2.66667V5.85333C2.58679 6.12249 2.37395 6.47714 2.27845 6.87015C2.18294 7.26317 2.2093 7.67594 2.354 8.05362C2.4987 8.4313 2.75491 8.756 3.08857 8.98458C3.42224 9.21317 3.81756 9.3348 4.22201 9.33333H8.22201V12.1227C7.94317 12.2223 7.68994 12.3825 7.48057 12.5919C7.27121 12.8013 7.11094 13.0545 7.01134 13.3333H1.55534C1.37853 13.3333 1.20896 13.4036 1.08393 13.5286C0.95891 13.6536 0.888672 13.8232 0.888672 14C0.888672 14.1768 0.95891 14.3464 1.08393 14.4714C1.20896 14.5964 1.37853 14.6667 1.55534 14.6667H7.01134C7.1471 15.0564 7.40078 15.3942 7.73717 15.6332C8.07356 15.8722 8.476 16.0006 8.88867 16.0006C9.30134 16.0006 9.70378 15.8722 10.0402 15.6332C10.3766 15.3942 10.6302 15.0564 10.766 14.6667H16.222C16.3988 14.6667 16.5684 14.5964 16.6934 14.4714C16.8184 14.3464 16.8887 14.1768 16.8887 14C16.8887 13.8232 16.8184 13.6536 16.6934 13.5286C16.5684 13.4036 16.3988 13.3333 16.222 13.3333ZM4.22201 2.66667C4.22201 2.31304 4.36248 1.97391 4.61253 1.72386C4.86258 1.47381 5.20172 1.33333 5.55534 1.33333H12.222C12.5756 1.33333 12.9148 1.47381 13.1648 1.72386C13.4149 1.97391 13.5553 2.31304 13.5553 2.66667V5.33333H11.1647C10.9895 5.33286 10.816 5.36714 10.6542 5.4342C10.4924 5.50126 10.3455 5.59976 10.222 5.724L9.94601 6H7.83134L7.55534 5.724C7.43186 5.59976 7.28497 5.50126 7.12315 5.4342C6.96134 5.36714 6.78783 5.33286 6.61267 5.33333H4.22201V2.66667ZM3.55534 7.33333C3.55534 7.15652 3.62558 6.98695 3.7506 6.86193C3.87563 6.73691 4.04519 6.66667 4.22201 6.66667H6.61267L6.88867 6.94267C7.01215 7.0669 7.15904 7.1654 7.32086 7.23246C7.48267 7.29952 7.65618 7.33381 7.83134 7.33333H9.94601C10.1212 7.33381 10.2947 7.29952 10.4565 7.23246C10.6183 7.1654 10.7652 7.0669 10.8887 6.94267L11.1647 6.66667H13.5553C13.7322 6.66667 13.9017 6.73691 14.0267 6.86193C14.1518 6.98695 14.222 7.15652 14.222 7.33333C14.222 7.51014 14.1518 7.67971 14.0267 7.80474C13.9017 7.92976 13.7322 8 13.5553 8H4.22201C4.04519 8 3.87563 7.92976 3.7506 7.80474C3.62558 7.67971 3.55534 7.51014 3.55534 7.33333ZM8.88867 14.6667C8.75682 14.6667 8.62792 14.6276 8.51829 14.5543C8.40866 14.4811 8.32321 14.3769 8.27275 14.2551C8.22229 14.1333 8.20909 13.9993 8.23482 13.8699C8.26054 13.7406 8.32403 13.6218 8.41727 13.5286C8.5105 13.4354 8.62929 13.3719 8.75861 13.3461C8.88793 13.3204 9.02198 13.3336 9.1438 13.3841C9.26561 13.4345 9.36973 13.52 9.44299 13.6296C9.51624 13.7393 9.55534 13.8681 9.55534 14C9.55534 14.1768 9.4851 14.3464 9.36008 14.4714C9.23505 14.5964 9.06548 14.6667 8.88867 14.6667Z" fill="black"/>
</g>
<defs>
<clipPath id="clip0_483_13756">
<rect width="16" height="16" fill="white" transform="translate(0.888672)"/>
</clipPath>
</defs>
</svg>
