<svg width="16" height="16" viewBox="0 0 16 16" fill="none" xmlns="http://www.w3.org/2000/svg">
<g clip-path="url(#clip0_483_13621)">
<path d="M16 10.6664V13.9997C16 14.5301 15.7893 15.0389 15.4142 15.4139C15.0391 15.789 14.5304 15.9997 14 15.9997H10.6667C9.7314 15.9988 8.81283 15.7519 8.0031 15.2838C7.19337 14.8158 6.52097 14.143 6.05333 13.333C6.55591 13.3295 7.05678 13.274 7.548 13.1677C7.9221 13.6355 8.39666 14.0131 8.93653 14.2725C9.47639 14.5319 10.0677 14.6665 10.6667 14.6664H14C14.1768 14.6664 14.3464 14.5961 14.4714 14.4711C14.5964 14.3461 14.6667 14.1765 14.6667 13.9997V10.6664C14.6665 10.0672 14.5315 9.47575 14.2716 8.93587C14.0117 8.396 13.6336 7.92155 13.1653 7.54771C13.2726 7.05659 13.3289 6.55572 13.3333 6.05305C14.1433 6.52068 14.8161 7.19309 15.2841 8.00281C15.7522 8.81254 15.999 9.73111 16 10.6664ZM11.9847 6.43371C12.047 5.57481 11.9237 4.71254 11.6232 3.90551C11.3227 3.09848 10.852 2.3656 10.2431 1.75666C9.63412 1.14772 8.90123 0.677001 8.0942 0.376484C7.28717 0.0759667 6.42491 -0.0473048 5.566 0.0150457C4.04394 0.188867 2.63795 0.913163 1.61278 2.05154C0.587618 3.18992 0.0140181 4.66383 0 6.19571L0 9.55571C0 11.2437 1.00467 11.9997 2 11.9997H5.8C7.33254 11.9865 8.80734 11.4133 9.94653 10.3881C11.0857 9.36285 11.8106 7.95639 11.9847 6.43371ZM9.3 2.70038C9.77329 3.17471 10.1392 3.74518 10.3729 4.37317C10.6066 5.00116 10.7027 5.67203 10.6547 6.34038C10.5124 7.5295 9.94033 8.62559 9.04622 9.42234C8.1521 10.2191 6.99759 10.6615 5.8 10.6664H2C1.38133 10.6664 1.33333 9.81638 1.33333 9.55571V6.19571C1.33889 4.99863 1.78177 3.84485 2.57861 2.9515C3.37546 2.05815 4.47133 1.48682 5.66 1.34505C5.77067 1.33705 5.88133 1.33305 5.992 1.33305C6.60618 1.33247 7.21445 1.45294 7.78206 1.68755C8.34966 1.92216 8.86547 2.26633 9.3 2.70038Z" fill="black"/>
</g>
<defs>
<clipPath id="clip0_483_13621">
<rect width="16" height="16" fill="white"/>
</clipPath>
</defs>
</svg>
