<svg width="17" height="16" viewBox="0 0 17 16" fill="none" xmlns="http://www.w3.org/2000/svg">
<g clip-path="url(#clip0_482_18045)">
<path d="M16.1107 13.3333H10.6547C10.5551 13.0545 10.3948 12.8013 10.1854 12.5919C9.97608 12.3825 9.72284 12.2223 9.44401 12.1227V10H12.1107C12.8179 10 13.4962 9.71905 13.9963 9.21895C14.4964 8.71886 14.7773 8.04058 14.7773 7.33333V4C14.7773 3.29276 14.4964 2.61448 13.9963 2.11438C13.4962 1.61429 12.8179 1.33333 12.1107 1.33333H9.19134C9.0569 1.33332 8.9256 1.29265 8.81468 1.21667L7.55734 0.352001C7.22403 0.122402 6.82875 -0.00036654 6.42401 8.22042e-07H5.44401C4.73677 8.22042e-07 4.05849 0.280952 3.55839 0.781049C3.0583 1.28115 2.77734 1.95942 2.77734 2.66667V7.33333C2.77734 8.04058 3.0583 8.71886 3.55839 9.21895C4.05849 9.71905 4.73677 10 5.44401 10H8.11068V12.1227C7.83185 12.2223 7.57861 12.3825 7.36924 12.5919C7.15988 12.8013 6.99961 13.0545 6.90001 13.3333H1.44401C1.2672 13.3333 1.09763 13.4036 0.972606 13.5286C0.847582 13.6536 0.777344 13.8232 0.777344 14C0.777344 14.1768 0.847582 14.3464 0.972606 14.4714C1.09763 14.5964 1.2672 14.6667 1.44401 14.6667H6.90001C7.03578 15.0564 7.28945 15.3942 7.62584 15.6332C7.96223 15.8722 8.36468 16.0006 8.77734 16.0006C9.19001 16.0006 9.59245 15.8722 9.92885 15.6332C10.2652 15.3942 10.5189 15.0564 10.6547 14.6667H16.1107C16.2875 14.6667 16.4571 14.5964 16.5821 14.4714C16.7071 14.3464 16.7773 14.1768 16.7773 14C16.7773 13.8232 16.7071 13.6536 16.5821 13.5286C16.4571 13.4036 16.2875 13.3333 16.1107 13.3333ZM5.44401 1.33333H6.42401C6.55898 1.33328 6.69079 1.37419 6.80201 1.45067L8.05801 2.31733C8.39108 2.54752 8.78648 2.67055 9.19134 2.67H12.1107C12.4643 2.67 12.8034 2.81048 13.0535 3.06053C13.3035 3.31057 13.444 3.64971 13.444 4.00333H4.11068V2.66667C4.11068 2.31305 4.25115 1.97391 4.5012 1.72386C4.75125 1.47381 5.09039 1.33333 5.44401 1.33333ZM4.11068 7.33333V5.33333H13.444V7.33333C13.444 7.68696 13.3035 8.0261 13.0535 8.27614C12.8034 8.52619 12.4643 8.66667 12.1107 8.66667H5.44401C5.09039 8.66667 4.75125 8.52619 4.5012 8.27614C4.25115 8.0261 4.11068 7.68696 4.11068 7.33333ZM8.77734 14.6667C8.64549 14.6667 8.5166 14.6276 8.40696 14.5543C8.29733 14.4811 8.21188 14.3769 8.16142 14.2551C8.11097 14.1333 8.09776 13.9993 8.12349 13.8699C8.14921 13.7406 8.2127 13.6218 8.30594 13.5286C8.39917 13.4354 8.51796 13.3719 8.64728 13.3461C8.7766 13.3204 8.91065 13.3336 9.03247 13.3841C9.15428 13.4345 9.2584 13.52 9.33166 13.6296C9.40491 13.7393 9.44401 13.8681 9.44401 14C9.44401 14.1768 9.37377 14.3464 9.24875 14.4714C9.12372 14.5964 8.95415 14.6667 8.77734 14.6667Z" fill="black"/>
</g>
<defs>
<clipPath id="clip0_482_18045">
<rect width="16" height="16" fill="white" transform="translate(0.777344)"/>
</clipPath>
</defs>
</svg>
