<svg width="17" height="16" viewBox="0 0 17 16" fill="none" xmlns="http://www.w3.org/2000/svg">
<g clip-path="url(#clip0_483_13607)">
<path d="M14.7773 11.9999C14.2601 12.0005 13.7636 12.2023 13.3926 12.5626L11.4193 11.5752C11.4326 11.4952 11.4408 11.4143 11.4439 11.3332C11.4408 11.2521 11.4326 11.1713 11.4193 11.0912L13.3926 10.1039C13.7249 10.4222 14.1569 10.6159 14.6156 10.6522C15.0743 10.6886 15.5314 10.5653 15.9097 10.3033C16.2879 10.0414 16.5641 9.65677 16.6914 9.2146C16.8187 8.77244 16.7893 8.29989 16.6082 7.8769C16.4271 7.45391 16.1054 7.10648 15.6976 6.89339C15.2898 6.68031 14.8209 6.61465 14.3703 6.70754C13.9197 6.80043 13.5149 7.04616 13.2247 7.40315C12.9344 7.76013 12.7763 8.20645 12.7773 8.66656C12.7804 8.74767 12.7886 8.8285 12.8019 8.90856L10.8286 9.8959C10.5463 9.62279 10.1899 9.43884 9.80379 9.36699C9.41766 9.29513 9.01893 9.33856 8.65732 9.49184C8.29571 9.64513 7.98724 9.90149 7.77039 10.229C7.55353 10.5564 7.43789 10.9405 7.43789 11.3332C7.43789 11.726 7.55353 12.11 7.77039 12.4375C7.98724 12.765 8.29571 13.0213 8.65732 13.1746C9.01893 13.3279 9.41766 13.3713 9.80379 13.2995C10.1899 13.2276 10.5463 13.0437 10.8286 12.7706L12.8019 13.7579C12.7886 13.838 12.7804 13.9188 12.7773 13.9999C12.7773 14.3955 12.8946 14.7821 13.1143 15.111C13.3341 15.4399 13.6464 15.6963 14.0119 15.8477C14.3774 15.999 14.7795 16.0386 15.1674 15.9615C15.5554 15.8843 15.9118 15.6938 16.1915 15.4141C16.4712 15.1344 16.6617 14.778 16.7388 14.3901C16.816 14.0021 16.7764 13.6 16.625 13.2345C16.4737 12.8691 16.2173 12.5567 15.8884 12.337C15.5595 12.1172 15.1728 11.9999 14.7773 11.9999ZM14.7773 7.9999C14.9091 7.9999 15.038 8.039 15.1476 8.11225C15.2573 8.1855 15.3427 8.28962 15.3932 8.41144C15.4436 8.53326 15.4568 8.6673 15.4311 8.79662C15.4054 8.92594 15.3419 9.04473 15.2487 9.13797C15.1554 9.2312 15.0366 9.2947 14.9073 9.32042C14.778 9.34614 14.644 9.33294 14.5221 9.28248C14.4003 9.23203 14.2962 9.14658 14.223 9.03694C14.1497 8.92731 14.1106 8.79842 14.1106 8.66656C14.1106 8.48975 14.1808 8.32018 14.3059 8.19516C14.4309 8.07014 14.6005 7.9999 14.7773 7.9999ZM9.44393 11.9999C9.31208 11.9999 9.18319 11.9608 9.07355 11.8875C8.96392 11.8143 8.87847 11.7102 8.82801 11.5884C8.77755 11.4665 8.76435 11.3325 8.79008 11.2032C8.8158 11.0738 8.87929 10.9551 8.97253 10.8618C9.06576 10.7686 9.18455 10.7051 9.31387 10.6794C9.44319 10.6537 9.57724 10.6669 9.69906 10.7173C9.82087 10.7678 9.92499 10.8532 9.99825 10.9628C10.0715 11.0725 10.1106 11.2014 10.1106 11.3332C10.1106 11.51 10.0404 11.6796 9.91534 11.8046C9.79031 11.9297 9.62074 11.9999 9.44393 11.9999ZM14.7773 14.6666C14.6454 14.6666 14.5165 14.6275 14.4069 14.5542C14.2973 14.481 14.2118 14.3768 14.1613 14.255C14.1109 14.1332 14.0977 13.9992 14.1234 13.8698C14.1491 13.7405 14.2126 13.6217 14.3059 13.5285C14.3991 13.4353 14.5179 13.3718 14.6472 13.346C14.7765 13.3203 14.9106 13.3335 15.0324 13.384C15.1542 13.4344 15.2583 13.5199 15.3316 13.6295C15.4048 13.7392 15.4439 13.868 15.4439 13.9999C15.4439 14.1767 15.3737 14.3463 15.2487 14.4713C15.1236 14.5963 14.9541 14.6666 14.7773 14.6666ZM8.77727 14.6666C8.77727 14.8434 8.70703 15.0129 8.582 15.138C8.45698 15.263 8.28741 15.3332 8.1106 15.3332H4.56327C3.67478 15.317 2.81857 14.9974 2.1368 14.4274C1.45503 13.8574 0.988707 13.0714 0.815266 12.1999C0.701739 11.4497 0.82623 10.6828 1.17123 10.007C1.51623 9.33123 2.06439 8.7806 2.7386 8.43256C2.15983 7.38013 1.97097 6.15723 2.20527 4.97923C2.43308 3.81409 3.04314 2.75826 3.93881 1.979C4.83448 1.19975 5.96455 0.741616 7.15001 0.677177C8.33546 0.612738 9.50853 0.945678 10.4834 1.62326C11.4583 2.30083 12.1792 3.28431 12.5319 4.4179C12.5655 4.53293 12.6271 4.63787 12.7111 4.72336C12.795 4.80885 12.8989 4.87225 13.0133 4.9079C13.0988 4.93198 13.1787 4.97294 13.2483 5.02836C13.3178 5.08378 13.3755 5.15255 13.418 5.23061C13.4606 5.30868 13.4871 5.39446 13.496 5.48292C13.5049 5.57138 13.496 5.66072 13.4698 5.74569C13.4437 5.83066 13.4008 5.90955 13.3437 5.9777C13.2867 6.04586 13.2165 6.10191 13.1374 6.14255C13.0584 6.1832 12.972 6.20762 12.8833 6.21437C12.7947 6.22113 12.7056 6.21009 12.6213 6.1819C12.2998 6.08198 12.0077 5.90506 11.7702 5.66653C11.5327 5.42801 11.3571 5.13508 11.2586 4.81323C11.0982 4.27937 10.8279 3.78493 10.4652 3.36164C10.1025 2.93835 9.65526 2.59555 9.15228 2.35523C8.64929 2.11491 8.10163 1.98237 7.54442 1.96613C6.98721 1.94988 6.43275 2.05028 5.91662 2.26089C5.40049 2.47149 4.93407 2.78765 4.5473 3.18909C4.16052 3.59053 3.86192 4.06838 3.67066 4.59199C3.47939 5.11559 3.39968 5.6734 3.43664 6.22962C3.4736 6.78584 3.62641 7.3282 3.88527 7.8219C4.05022 8.12987 4.08731 8.49041 3.9885 8.82551C3.88969 9.16062 3.66293 9.44335 3.35727 9.61256C2.92815 9.83461 2.57938 10.1855 2.35996 10.616C2.14054 11.0465 2.0615 11.5349 2.13393 12.0126C2.25734 12.5683 2.56397 13.0663 3.00457 13.4268C3.44516 13.7872 3.99413 13.9891 4.56327 13.9999H8.1106C8.28741 13.9999 8.45698 14.0701 8.582 14.1952C8.70703 14.3202 8.77727 14.4898 8.77727 14.6666Z" fill="black"/>
</g>
<defs>
<clipPath id="clip0_483_13607">
<rect width="16" height="16" fill="white" transform="translate(0.777344)"/>
</clipPath>
</defs>
</svg>
