<svg width="17" height="16" viewBox="0 0 17 16" fill="none" xmlns="http://www.w3.org/2000/svg">
<path d="M8.88965 2V0.666667C8.88965 0.489856 8.81941 0.320286 8.69439 0.195262C8.56936 0.0702379 8.39979 0 8.22298 0C8.04617 0 7.8766 0.0702379 7.75158 0.195262C7.62655 0.320286 7.55632 0.489856 7.55632 0.666667V2C6.31907 2.00141 5.13291 2.49353 4.25804 3.36839C3.38318 4.24326 2.89106 5.42942 2.88965 6.66667V10.6667C2.88965 12.0812 3.45155 13.4377 4.45175 14.4379C5.45194 15.4381 6.80849 16 8.22298 16C9.63747 16 10.994 15.4381 11.9942 14.4379C12.9944 13.4377 13.5563 12.0812 13.5563 10.6667V6.66667C13.5549 5.42942 13.0628 4.24326 12.1879 3.36839C11.3131 2.49353 10.1269 2.00141 8.88965 2ZM12.223 10.6667C12.223 11.7275 11.8016 12.7449 11.0514 13.4951C10.3013 14.2452 9.28385 14.6667 8.22298 14.6667C7.16212 14.6667 6.1447 14.2452 5.39455 13.4951C4.64441 12.7449 4.22298 11.7275 4.22298 10.6667V6.66667C4.22404 5.78294 4.57557 4.93571 5.20046 4.31081C5.82535 3.68592 6.67259 3.33439 7.55632 3.33333H8.88965C9.77338 3.33439 10.6206 3.68592 11.2455 4.31081C11.8704 4.93571 12.2219 5.78294 12.223 6.66667V10.6667Z" fill="black"/>
<path d="M8.22233 4.66699C8.04552 4.66699 7.87595 4.73723 7.75093 4.86225C7.6259 4.98728 7.55566 5.15685 7.55566 5.33366V6.66699C7.55566 6.8438 7.6259 7.01337 7.75093 7.13839C7.87595 7.26342 8.04552 7.33365 8.22233 7.33365C8.39915 7.33365 8.56872 7.26342 8.69374 7.13839C8.81877 7.01337 8.88901 6.8438 8.88901 6.66699V5.33366C8.88901 5.15685 8.81877 4.98728 8.69374 4.86225C8.56872 4.73723 8.39915 4.66699 8.22233 4.66699Z" fill="black"/>
</svg>
