<svg width="17" height="16" viewBox="0 0 17 16" fill="none" xmlns="http://www.w3.org/2000/svg">
<g clip-path="url(#clip0_482_18058)">
<path d="M10.5553 8.00026C10.5553 8.17707 10.4851 8.34664 10.3601 8.47166C10.2351 8.59669 10.0655 8.66693 9.88867 8.66693H9.22201V11.6669C9.22201 11.9966 9.12426 12.3188 8.94112 12.5929C8.75799 12.867 8.49769 13.0806 8.19314 13.2067C7.8886 13.3329 7.55349 13.3659 7.23019 13.3016C6.90689 13.2373 6.60991 13.0785 6.37683 12.8454C6.14374 12.6124 5.985 12.3154 5.9207 11.9921C5.85639 11.6688 5.88939 11.3337 6.01554 11.0291C6.14169 10.7246 6.35531 10.4643 6.62939 10.2811C6.90347 10.098 7.2257 10.0003 7.55534 10.0003C7.66727 10.0005 7.77891 10.0117 7.88867 10.0336V8.66693C7.88867 8.3133 8.02915 7.97417 8.2792 7.72412C8.52924 7.47407 8.86838 7.33359 9.22201 7.33359H9.88867C10.0655 7.33359 10.2351 7.40383 10.3601 7.52886C10.4851 7.65388 10.5553 7.82345 10.5553 8.00026ZM15.222 6.99026V12.6669C15.2209 13.5507 14.8694 14.3979 14.2445 15.0228C13.6196 15.6477 12.7724 15.9992 11.8887 16.0003H5.22201C4.33828 15.9992 3.49104 15.6477 2.86615 15.0228C2.24126 14.3979 1.88973 13.5507 1.88867 12.6669V3.33359C1.88973 2.44986 2.24126 1.60263 2.86615 0.97774C3.49104 0.352848 4.33828 0.00131852 5.22201 0.000259949H8.23201C8.84515 -0.00134105 9.45252 0.118683 10.019 0.353386C10.5854 0.588089 11.0997 0.932809 11.532 1.36759L13.8547 3.69026C14.2895 4.12259 14.6342 4.63686 14.8689 5.2033C15.1036 5.76975 15.2236 6.37712 15.222 6.99026ZM10.5893 2.31026C10.3797 2.10668 10.1441 1.93161 9.88867 1.78959V4.66693C9.88867 4.84374 9.95891 5.01331 10.0839 5.13833C10.209 5.26336 10.3785 5.33359 10.5553 5.33359H13.4327C13.2907 5.07818 13.1156 4.84259 12.912 4.63293L10.5893 2.31026ZM13.8887 6.99026C13.8887 6.88026 13.8673 6.77493 13.8573 6.66693H10.5553C10.0249 6.66693 9.5162 6.45621 9.14112 6.08114C8.76605 5.70607 8.55534 5.19736 8.55534 4.66693V1.36493C8.44734 1.35493 8.34201 1.33359 8.23201 1.33359H5.22201C4.69157 1.33359 4.18286 1.54431 3.80779 1.91938C3.43272 2.29445 3.22201 2.80316 3.22201 3.33359V12.6669C3.22201 13.1974 3.43272 13.7061 3.80779 14.0811C4.18286 14.4562 4.69157 14.6669 5.22201 14.6669H11.8887C12.4191 14.6669 12.9278 14.4562 13.3029 14.0811C13.678 13.7061 13.8887 13.1974 13.8887 12.6669V6.99026Z" fill="black"/>
</g>
<defs>
<clipPath id="clip0_482_18058">
<rect width="16" height="16" fill="white" transform="translate(0.555664)"/>
</clipPath>
</defs>
</svg>
