<svg width="17" height="16" viewBox="0 0 17 16" fill="none" xmlns="http://www.w3.org/2000/svg">
<g clip-path="url(#clip0_483_13868)">
<path d="M16.0003 4.66629H12.7943L13.3277 0.756288C13.3395 0.669528 13.3341 0.58129 13.3118 0.496611C13.2895 0.411932 13.2508 0.332472 13.1978 0.262766C13.1448 0.19306 13.0786 0.134474 13.003 0.0903531C12.9273 0.0462322 12.8438 0.0174403 12.757 0.00562136C12.6702 -0.0061976 12.582 -0.000812195 12.4973 0.0214701C12.4126 0.0437524 12.3332 0.0824952 12.2635 0.135487C12.1938 0.188478 12.1352 0.25468 12.0911 0.330313C12.0469 0.405946 12.0181 0.489528 12.0063 0.576288L11.449 4.66629H6.79433L7.32766 0.756288C7.33948 0.669528 7.33409 0.58129 7.31181 0.496611C7.28953 0.411932 7.25079 0.332472 7.19779 0.262766C7.1448 0.19306 7.0786 0.134474 7.00297 0.0903531C6.92734 0.0462322 6.84375 0.0174403 6.75699 0.00562138C6.67023 -0.00619759 6.58199 -0.000812178 6.49732 0.0214701C6.41264 0.0437524 6.33318 0.0824953 6.26347 0.135487C6.19376 0.188478 6.13518 0.25468 6.09106 0.330313C6.04694 0.405946 6.01814 0.489528 6.00633 0.576288L5.44899 4.66629H2.00033C1.82351 4.66629 1.65395 4.73653 1.52892 4.86155C1.4039 4.98657 1.33366 5.15614 1.33366 5.33296C1.33366 5.50977 1.4039 5.67934 1.52892 5.80436C1.65395 5.92938 1.82351 5.99962 2.00033 5.99962H5.26699L4.72166 9.99962H1.33366C1.15685 9.99962 0.987279 10.0699 0.862254 10.1949C0.73723 10.3199 0.666992 10.4895 0.666992 10.6663C0.666992 10.8431 0.73723 11.0127 0.862254 11.1377C0.987279 11.2627 1.15685 11.333 1.33366 11.333H4.53966L4.00633 15.243C3.98246 15.4182 4.02917 15.5957 4.13619 15.7365C4.24321 15.8773 4.40177 15.9698 4.57699 15.9936C4.75221 16.0175 4.92974 15.9708 5.07051 15.8638C5.21129 15.7567 5.30379 15.5982 5.32766 15.423L5.88499 11.333H10.5397L10.0063 15.243C9.98246 15.4182 10.0292 15.5957 10.1362 15.7365C10.2432 15.8773 10.4018 15.9698 10.577 15.9936C10.7522 16.0175 10.9297 15.9708 11.0705 15.8638C11.2113 15.7567 11.3038 15.5982 11.3277 15.423L11.885 11.333H15.3337C15.5105 11.333 15.68 11.2627 15.8051 11.1377C15.9301 11.0127 16.0003 10.8431 16.0003 10.6663C16.0003 10.4895 15.9301 10.3199 15.8051 10.1949C15.68 10.0699 15.5105 9.99962 15.3337 9.99962H12.067L12.6123 5.99962H16.0003C16.1771 5.99962 16.3467 5.92938 16.4717 5.80436C16.5968 5.67934 16.667 5.50977 16.667 5.33296C16.667 5.15614 16.5968 4.98657 16.4717 4.86155C16.3467 4.73653 16.1771 4.66629 16.0003 4.66629ZM10.7217 9.99962H6.06699L6.61233 5.99962H11.267L10.7217 9.99962Z" fill="black"/>
</g>
<defs>
<clipPath id="clip0_483_13868">
<rect width="16" height="16" fill="white" transform="translate(0.666992)"/>
</clipPath>
</defs>
</svg>
