<svg width="17" height="16" viewBox="0 0 17 16" fill="none" xmlns="http://www.w3.org/2000/svg">
<g clip-path="url(#clip0_483_13646)">
<path d="M7.78188 1.71866L7.77722 12.0107C7.77722 12.1875 7.84746 12.357 7.97248 12.4821C8.0975 12.6071 8.26707 12.6773 8.44388 12.6773C8.62069 12.6773 8.79026 12.6071 8.91529 12.4821C9.04031 12.357 9.11055 12.1875 9.11055 12.0107L9.11522 1.73L11.0566 3.672C11.1816 3.79698 11.3511 3.86719 11.5279 3.86719C11.7047 3.86719 11.8742 3.79698 11.9992 3.672C12.1242 3.54698 12.1944 3.37744 12.1944 3.20066C12.1944 3.02389 12.1242 2.85435 11.9992 2.72933L9.85855 0.585996C9.67282 0.400143 9.45228 0.252709 9.20955 0.152119C8.96681 0.0515299 8.70664 -0.000244141 8.44388 -0.000244141C8.18113 -0.000244141 7.92096 0.0515299 7.67822 0.152119C7.43549 0.252709 7.21495 0.400143 7.02922 0.585996L4.88855 2.72733C4.76357 2.85235 4.69336 3.02189 4.69336 3.19866C4.69336 3.37544 4.76357 3.54498 4.88855 3.67C5.01357 3.79498 5.18311 3.86519 5.35988 3.86519C5.53666 3.86519 5.7062 3.79498 5.83122 3.67L7.78188 1.71866Z" fill="black"/>
<path d="M15.111 11.3329V13.9996C15.111 14.1764 15.0408 14.346 14.9157 14.471C14.7907 14.596 14.6211 14.6663 14.4443 14.6663H2.44434C2.26752 14.6663 2.09796 14.596 1.97293 14.471C1.84791 14.346 1.77767 14.1764 1.77767 13.9996V11.3329C1.77767 11.1561 1.70743 10.9865 1.58241 10.8615C1.45738 10.7365 1.28781 10.6663 1.111 10.6663C0.934192 10.6663 0.764622 10.7365 0.639598 10.8615C0.514574 10.9865 0.444336 11.1561 0.444336 11.3329L0.444336 13.9996C0.444336 14.53 0.65505 15.0387 1.03012 15.4138C1.4052 15.7889 1.9139 15.9996 2.44434 15.9996H14.4443C14.9748 15.9996 15.4835 15.7889 15.8586 15.4138C16.2336 15.0387 16.4443 14.53 16.4443 13.9996V11.3329C16.4443 11.1561 16.3741 10.9865 16.2491 10.8615C16.1241 10.7365 15.9545 10.6663 15.7777 10.6663C15.6009 10.6663 15.4313 10.7365 15.3063 10.8615C15.1812 10.9865 15.111 11.1561 15.111 11.3329Z" fill="black"/>
</g>
<defs>
<clipPath id="clip0_483_13646">
<rect width="16" height="16" fill="white" transform="translate(0.444336)"/>
</clipPath>
</defs>
</svg>
