<svg width="17" height="16" viewBox="0 0 17 16" fill="none" xmlns="http://www.w3.org/2000/svg">
<g clip-path="url(#clip0_482_18055)">
<path d="M4.22314 12.6667C4.22314 12.8435 4.15291 13.013 4.02788 13.1381C3.90286 13.2631 3.73329 13.3333 3.55648 13.3333C3.37967 13.3333 3.2101 13.2631 3.08507 13.1381C2.96005 13.013 2.88981 12.8435 2.88981 12.6667C2.88981 12.4899 2.96005 12.3203 3.08507 12.1953C3.2101 12.0702 3.37967 12 3.55648 12C3.73329 12 3.90286 12.0702 4.02788 12.1953C4.15291 12.3203 4.22314 12.4899 4.22314 12.6667ZM16.0431 5.08333C15.9055 5.35957 15.6933 5.59181 15.4306 5.7538C15.1679 5.91578 14.8651 6.00106 14.5565 6H11.5438C11.5305 6.70733 11.5018 7.38067 11.4445 8H11.6898C11.9582 7.99463 12.2245 8.04836 12.4698 8.15738C12.7151 8.26639 12.9335 8.42803 13.1094 8.63083C13.2853 8.83363 13.4144 9.07264 13.4876 9.33091C13.5609 9.58918 13.5764 9.86039 13.5331 10.1253C13.4572 10.6442 13.1978 11.1187 12.802 11.4626C12.4062 11.8066 11.9002 11.9972 11.3758 12H10.4898C9.28981 14.5927 5.55648 16 2.88114 16C2.51729 15.9988 2.15754 15.9231 1.82404 15.7776C1.49054 15.6321 1.19034 15.4199 0.941915 15.154C0.693491 14.8882 0.502099 14.5743 0.379519 14.2317C0.256939 13.8891 0.205764 13.5251 0.229144 13.162C0.264701 11.3898 0.719564 9.65122 1.55648 8.08867V7.73333C1.56075 6.53448 1.98406 5.37485 2.75313 4.45518C3.5222 3.5355 4.58863 2.91368 5.76781 2.69733C6.06636 2.64635 6.37245 2.66128 6.66462 2.74109C6.9568 2.8209 7.22797 2.96365 7.45914 3.15933C7.69578 3.35815 7.88658 3.60582 8.01846 3.88534C8.15034 4.16486 8.22016 4.46961 8.22314 4.77867C8.84314 4.72133 9.51714 4.69267 10.2231 4.67933V1.66667C10.2231 1.35715 10.3093 1.05374 10.4721 0.790449C10.6348 0.527156 10.8676 0.314377 11.1445 0.175955C11.4213 0.037534 11.7312 -0.0210614 12.0395 0.00673527C12.3478 0.0345319 12.6422 0.147622 12.8898 0.333334C13.4878 0.768362 13.919 1.3948 14.1118 2.10867C14.827 2.30167 15.4545 2.73389 15.8898 3.33333C16.0758 3.58182 16.1887 3.8773 16.2158 4.18649C16.2428 4.49568 16.1831 4.80629 16.0431 5.08333ZM3.14648 6.36067C4.27022 5.61171 5.55088 5.13069 6.88981 4.95467V4.8C6.88981 4.68144 6.86385 4.56431 6.81375 4.45686C6.76365 4.3494 6.69063 4.25422 6.59981 4.178C6.5187 4.10694 6.42272 4.05491 6.31891 4.02573C6.21509 3.99655 6.10607 3.99094 5.99981 4.00933C5.36135 4.12072 4.76274 4.39597 4.26258 4.80813C3.76242 5.2203 3.37784 5.75526 3.14648 6.36067ZM6.07848 14.1333C5.84974 13.164 5.35534 12.2775 4.65078 11.5736C3.94621 10.8696 3.05937 10.3759 2.08981 10.148C1.79028 11.1585 1.61126 12.2008 1.55648 13.2533C1.54477 13.442 1.57331 13.631 1.6402 13.8077C1.70709 13.9845 1.81079 14.1451 1.94444 14.2787C2.07809 14.4124 2.23863 14.5161 2.41541 14.5829C2.59219 14.6498 2.78116 14.6784 2.96981 14.6667C4.02346 14.6123 5.06696 14.4333 6.07848 14.1333ZM10.2178 6.00533C6.05848 6.07667 3.79181 6.848 2.61781 8.91333C3.74044 9.22025 4.7637 9.81445 5.58671 10.6373C6.40972 11.4602 7.00406 12.4834 7.31114 13.606C9.37514 12.4307 10.1465 10.1647 10.2178 6.00533ZM11.2685 9.33333C11.194 9.78286 11.095 10.228 10.9718 10.6667H11.3758C11.58 10.6657 11.777 10.5915 11.9313 10.4577C12.0855 10.3239 12.1867 10.1393 12.2165 9.93733C12.2323 9.86134 12.2303 9.7827 12.2107 9.7076C12.191 9.6325 12.1543 9.56297 12.1032 9.50445C12.0522 9.44594 11.9883 9.40005 11.9166 9.37036C11.8449 9.34067 11.7673 9.328 11.6898 9.33333H11.2685ZM14.8231 4.126C14.6613 3.90559 14.4559 3.72083 14.2197 3.58321C13.9834 3.44558 13.7213 3.35803 13.4498 3.326C13.313 3.30307 13.1867 3.23802 13.0886 3.1399C12.9905 3.04179 12.9254 2.91551 12.9025 2.77867C12.8705 2.50711 12.783 2.24503 12.6454 2.00876C12.5077 1.77249 12.3229 1.56708 12.1025 1.40533C12.0522 1.36625 11.9917 1.34239 11.9283 1.3366C11.8648 1.33081 11.801 1.34333 11.7445 1.37267C11.6879 1.39801 11.6399 1.43934 11.6065 1.49158C11.5731 1.54381 11.5557 1.60467 11.5565 1.66667V4.66667H14.5565C14.6183 4.66845 14.6792 4.65218 14.7319 4.61986C14.7846 4.58753 14.8267 4.54055 14.8531 4.48467C14.883 4.42828 14.896 4.36451 14.8907 4.30094C14.8854 4.23736 14.8619 4.17665 14.8231 4.126Z" fill="black"/>
</g>
<defs>
<clipPath id="clip0_482_18055">
<rect width="16" height="16" fill="white" transform="translate(0.222656)"/>
</clipPath>
</defs>
</svg>
