<svg width="17" height="16" viewBox="0 0 17 16" fill="none" xmlns="http://www.w3.org/2000/svg">
<g clip-path="url(#clip0_482_18053)">
<path d="M16.4673 9.81697C16.3292 9.64929 16.1521 9.51807 15.9515 9.43485C15.7508 9.35162 15.5328 9.31893 15.3166 9.33964C14.1551 9.43147 13.0276 9.77607 12.0132 10.3493C10.9988 10.9226 10.1219 11.7106 9.44396 12.6583V9.27364C10.375 9.11546 11.2201 8.63329 11.8301 7.91232C12.44 7.19136 12.7755 6.27801 12.7773 5.33364C12.7773 3.47164 11.482 1.89897 10.2146 0.606305C9.83039 0.230869 9.3145 0.0206757 8.77729 0.0206757C8.24009 0.0206757 7.7242 0.230869 7.33996 0.606305C6.07263 1.89897 4.77729 3.47164 4.77729 5.33364C4.77905 6.27801 5.11454 7.19136 5.72449 7.91232C6.33444 8.63329 7.1796 9.11546 8.11063 9.27364V12.6583C7.4327 11.7106 6.55583 10.9226 5.54141 10.3493C4.52699 9.77607 3.39953 9.43147 2.23796 9.33964C2.02175 9.31904 1.80379 9.35179 1.60318 9.43501C1.40257 9.51823 1.22544 9.64938 1.08729 9.81697C0.950035 9.97994 0.854466 10.1738 0.808823 10.382C0.76318 10.5901 0.768833 10.8062 0.825293 11.0116C2.18463 15.9036 8.50463 16.0003 8.77329 16.0003H8.78129C9.04796 16.0003 15.3706 15.9036 16.73 11.0116C16.7861 10.8061 16.7915 10.59 16.7458 10.382C16.7 10.1739 16.6045 9.97999 16.4673 9.81697ZM6.11063 5.33364C6.11063 3.5643 8.32263 1.52097 8.33596 1.50964C8.09263 2.13364 6.57263 5.93364 8.11063 6.0003C8.28744 6.0003 8.45701 5.93007 8.58203 5.80504C8.70706 5.68002 8.77729 5.51045 8.77729 5.33364C8.82762 4.14793 9.11244 2.98395 9.61529 1.90897C10.5693 2.92897 11.444 4.10297 11.444 5.33364C11.444 6.04088 11.163 6.71916 10.6629 7.21926C10.1628 7.71935 9.48454 8.0003 8.77729 8.0003C8.07005 8.0003 7.39177 7.71935 6.89168 7.21926C6.39158 6.71916 6.11063 6.04088 6.11063 5.33364ZM2.11463 10.667C3.31578 10.7643 4.46997 11.1769 5.46053 11.8632C6.45109 12.5496 7.24291 13.4852 7.75596 14.5756C6.09129 14.345 2.91063 13.5336 2.11463 10.667ZM9.80729 14.5743C10.3245 13.4869 11.1166 12.5534 12.1051 11.8659C13.0937 11.1784 14.2446 10.7608 15.444 10.6543C14.648 13.5223 11.4746 14.341 9.80729 14.5743Z" fill="black"/>
</g>
<defs>
<clipPath id="clip0_482_18053">
<rect width="16" height="16" fill="white" transform="translate(0.777344)"/>
</clipPath>
</defs>
</svg>
