<svg width="17" height="16" viewBox="0 0 17 16" fill="none" xmlns="http://www.w3.org/2000/svg">
<g clip-path="url(#clip0_483_13663)">
<path d="M16.1375 10.8828C16.0125 10.7578 15.8429 10.6876 15.6662 10.6876C15.4894 10.6876 15.3198 10.7578 15.1948 10.8828L11.4435 14.6348L9.65148 12.8661C9.52772 12.7392 9.35862 12.6667 9.1814 12.6645C9.00418 12.6623 8.83335 12.7307 8.70648 12.8544C8.57962 12.9782 8.50712 13.1473 8.50493 13.3245C8.50275 13.5017 8.57105 13.6726 8.69482 13.7994L10.5241 15.5994C10.6389 15.7231 10.7775 15.8223 10.9316 15.8911C11.0857 15.9598 11.2521 15.9967 11.4208 15.9994H11.4428C11.6082 16 11.772 15.9677 11.9248 15.9044C12.0776 15.8411 12.2163 15.7481 12.3328 15.6308L16.1375 11.8254C16.2625 11.7004 16.3327 11.5309 16.3327 11.3541C16.3327 11.1773 16.2625 11.0078 16.1375 10.8828Z" fill="black"/>
<path d="M7.72634 14.6387C6.43904 14.5211 5.21369 14.0317 4.19949 13.2302C3.18529 12.4287 2.42598 11.3497 2.01399 10.1244C1.60201 8.89915 1.55512 7.58054 1.87905 6.32911C2.20297 5.07769 2.88373 3.94743 3.83845 3.07593C4.79316 2.20443 5.98066 1.62929 7.25636 1.42053C8.53206 1.21177 9.84094 1.37839 11.0236 1.9001C12.2064 2.42182 13.2119 3.27613 13.9178 4.35902C14.6237 5.44192 14.9996 6.70669 14.9997 7.99936C14.9997 8.20402 14.9897 8.40669 14.9723 8.60669C14.9642 8.6941 14.9734 8.78226 14.9994 8.86611C15.0254 8.94996 15.0677 9.02784 15.1239 9.0953C15.18 9.16276 15.249 9.21845 15.3268 9.25919C15.4045 9.29993 15.4896 9.32491 15.577 9.33269C15.6644 9.34148 15.7526 9.33273 15.8366 9.30694C15.9206 9.28116 15.9985 9.23886 16.0659 9.18253C16.1333 9.12621 16.1887 9.05699 16.229 8.97894C16.2692 8.90089 16.2935 8.81558 16.3003 8.72802C16.3217 8.48602 16.333 8.24402 16.333 7.99936C16.3329 6.4481 15.8818 4.93032 15.0347 3.63082C14.1875 2.33131 12.9808 1.30614 11.5615 0.680123C10.1421 0.0541021 8.57141 -0.145764 7.04053 0.104858C5.50964 0.35548 4.08465 1.04578 2.93904 2.09171C1.79342 3.13764 0.976607 4.49408 0.588042 5.99589C0.199477 7.4977 0.255923 9.08008 0.750508 10.5504C1.24509 12.0207 2.15648 13.3155 3.37371 14.2771C4.59094 15.2388 6.06149 15.8258 7.60634 15.9667H7.66701C7.84382 15.9746 8.01651 15.9119 8.1471 15.7924C8.27769 15.6729 8.35547 15.5065 8.36334 15.3297C8.37121 15.1529 8.30852 14.9802 8.18906 14.8496C8.0696 14.719 7.90315 14.6412 7.72634 14.6334V14.6387Z" fill="black"/>
<path d="M7.66639 4.66667V7.724L5.86173 9.52866C5.79805 9.59016 5.74727 9.66372 5.71233 9.74506C5.67739 9.82639 5.659 9.91387 5.65823 10.0024C5.65746 10.0909 5.67433 10.1787 5.70785 10.2606C5.74137 10.3426 5.79087 10.417 5.85346 10.4796C5.91606 10.5422 5.99049 10.5917 6.07242 10.6252C6.15436 10.6587 6.24214 10.6756 6.33066 10.6748C6.41918 10.6741 6.50666 10.6557 6.588 10.6207C6.66933 10.5858 6.74289 10.535 6.80439 10.4713L8.80439 8.47133C8.92942 8.34633 8.99968 8.17679 8.99972 7.99999V4.66667C8.99972 4.48986 8.92948 4.32029 8.80446 4.19526C8.67943 4.07024 8.50986 4 8.33305 4C8.15624 4 7.98668 4.07024 7.86165 4.19526C7.73663 4.32029 7.66639 4.48986 7.66639 4.66667Z" fill="black"/>
</g>
<defs>
<clipPath id="clip0_483_13663">
<rect width="16" height="16" fill="white" transform="translate(0.333008)"/>
</clipPath>
</defs>
</svg>
