<svg width="17" height="16" viewBox="0 0 17 16" fill="none" xmlns="http://www.w3.org/2000/svg">
<g clip-path="url(#clip0_483_13620)">
<path d="M10.667 13.3333H4.00033C3.1166 13.3323 2.26936 12.9807 1.64447 12.3559C1.01958 11.731 0.668051 10.8837 0.666992 10L0.666992 3.33333C0.668051 2.4496 1.01958 1.60237 1.64447 0.97748C2.26936 0.352588 3.1166 0.00105857 4.00033 0L10.667 0C11.5507 0.00105857 12.398 0.352588 13.0228 0.97748C13.6477 1.60237 13.9993 2.4496 14.0003 3.33333V10C13.9993 10.8837 13.6477 11.731 13.0228 12.3559C12.398 12.9807 11.5507 13.3323 10.667 13.3333ZM4.00033 1.33333C3.46989 1.33333 2.96118 1.54405 2.58611 1.91912C2.21104 2.29419 2.00033 2.8029 2.00033 3.33333V10C2.00033 10.5304 2.21104 11.0391 2.58611 11.4142C2.96118 11.7893 3.46989 12 4.00033 12H10.667C11.1974 12 11.7061 11.7893 12.0812 11.4142C12.4563 11.0391 12.667 10.5304 12.667 10V3.33333C12.667 2.8029 12.4563 2.29419 12.0812 1.91912C11.7061 1.54405 11.1974 1.33333 10.667 1.33333H4.00033ZM16.667 12.6667V4C16.667 3.82319 16.5968 3.65362 16.4717 3.5286C16.3467 3.40357 16.1771 3.33333 16.0003 3.33333C15.8235 3.33333 15.6539 3.40357 15.5289 3.5286C15.4039 3.65362 15.3337 3.82319 15.3337 4V12.6667C15.3337 13.1971 15.1229 13.7058 14.7479 14.0809C14.3728 14.456 13.8641 14.6667 13.3337 14.6667H4.66699C4.49018 14.6667 4.32061 14.7369 4.19559 14.8619C4.07056 14.987 4.00033 15.1565 4.00033 15.3333C4.00033 15.5101 4.07056 15.6797 4.19559 15.8047C4.32061 15.9298 4.49018 16 4.66699 16H13.3337C14.2174 15.9989 15.0646 15.6474 15.6895 15.0225C16.3144 14.3976 16.6659 13.5504 16.667 12.6667Z" fill="black"/>
</g>
<defs>
<clipPath id="clip0_483_13620">
<rect width="16" height="16" fill="white" transform="translate(0.666992)"/>
</clipPath>
</defs>
</svg>
