<svg width="17" height="16" viewBox="0 0 17 16" fill="none" xmlns="http://www.w3.org/2000/svg">
<g clip-path="url(#clip0_482_18113)">
<path d="M4.09266 14.856C3.94694 14.8559 3.80524 14.8081 3.68926 14.7199C3.57328 14.6317 3.4894 14.5079 3.45045 14.3675C3.41151 14.227 3.41965 14.0777 3.47363 13.9424C3.5276 13.807 3.62444 13.6931 3.74933 13.618C6.11133 12.1993 6.11133 9.15264 6.11133 7.33264C6.11133 6.8022 6.32204 6.29349 6.69711 5.91842C7.07219 5.54335 7.58089 5.33264 8.11133 5.33264C8.64176 5.33264 9.15047 5.54335 9.52554 5.91842C9.90061 6.29349 10.1113 6.8022 10.1113 7.33264C10.1113 7.50945 10.0411 7.67902 9.91607 7.80404C9.79104 7.92906 9.62147 7.9993 9.44466 7.9993C9.26785 7.9993 9.09828 7.92906 8.97326 7.80404C8.84823 7.67902 8.77799 7.50945 8.77799 7.33264C8.77799 7.15583 8.70776 6.98626 8.58273 6.86123C8.45771 6.73621 8.28814 6.66597 8.11133 6.66597C7.93452 6.66597 7.76495 6.73621 7.63992 6.86123C7.5149 6.98626 7.44466 7.15583 7.44466 7.33264C7.44466 9.2973 7.44466 12.9553 4.43533 14.7613C4.33178 14.8233 4.21335 14.856 4.09266 14.856ZM7.40133 15.8033C8.92266 14.27 9.81133 12.114 10.042 9.3893C10.0498 9.3019 10.0402 9.21382 10.0139 9.13012C9.98754 9.04642 9.94494 8.96874 9.88851 8.90154C9.83209 8.83433 9.76295 8.77893 9.68507 8.73851C9.60719 8.69808 9.52209 8.67343 9.43466 8.66597C9.34718 8.657 9.25879 8.66573 9.17475 8.69163C9.09071 8.71754 9.01275 8.7601 8.9455 8.81677C8.87825 8.87344 8.8231 8.94306 8.78333 9.0215C8.74356 9.09993 8.71998 9.18557 8.71399 9.2733C8.50666 11.7113 7.76799 13.54 6.45533 14.8606C6.33068 14.9861 6.26096 15.1559 6.26153 15.3328C6.26209 15.5096 6.33288 15.679 6.45833 15.8036C6.58378 15.9283 6.7536 15.998 6.93045 15.9974C7.1073 15.9969 7.27668 15.9261 7.40133 15.8006V15.8033ZM10.868 15.6793C11.2724 15.0074 11.6091 14.297 11.8733 13.5586C11.9286 13.3935 11.917 13.2133 11.8411 13.0566C11.7652 12.8999 11.631 12.7791 11.4671 12.72C11.3033 12.661 11.1229 12.6684 10.9645 12.7406C10.806 12.8129 10.6822 12.9442 10.6193 13.1066C10.3846 13.7613 10.0858 14.3913 9.72733 14.9873C9.68189 15.0622 9.65165 15.1453 9.63833 15.2319C9.62502 15.3185 9.62888 15.4068 9.64972 15.4919C9.67055 15.577 9.70793 15.6572 9.75974 15.7278C9.81155 15.7985 9.87676 15.8582 9.95166 15.9036C10.1029 15.9954 10.2844 16.0233 10.4563 15.9812C10.5414 15.9604 10.6215 15.923 10.6922 15.8712C10.7628 15.8194 10.8226 15.7542 10.868 15.6793ZM12.4447 11.46C12.6916 10.0986 12.8033 8.71604 12.778 7.33264C12.7774 6.38817 12.4902 5.46612 11.9544 4.68834C11.4186 3.91056 10.6594 3.31367 9.77714 2.97653C8.89489 2.63939 7.93111 2.57789 7.01317 2.80014C6.09522 3.02239 5.26632 3.51794 4.63599 4.2213C4.57461 4.28597 4.52682 4.3623 4.49545 4.44576C4.46408 4.52923 4.44978 4.61814 4.45338 4.70723C4.45699 4.79632 4.47843 4.88379 4.51644 4.96445C4.55444 5.04511 4.60824 5.11732 4.67465 5.17682C4.74107 5.23632 4.81874 5.28189 4.90307 5.31084C4.98741 5.33978 5.07669 5.35152 5.16565 5.34535C5.2546 5.33918 5.34141 5.31523 5.42094 5.27491C5.50047 5.23459 5.5711 5.17873 5.62866 5.11064C6.07885 4.60815 6.67091 4.25411 7.3266 4.09528C7.98229 3.93645 8.67074 3.98033 9.30096 4.22111C9.93119 4.46188 10.4735 4.88823 10.8563 5.44379C11.239 5.99935 11.4442 6.65798 11.4447 7.33264C11.4692 8.6305 11.3661 9.92764 11.1367 11.2053C11.103 11.3787 11.1396 11.5585 11.2383 11.705C11.3371 11.8515 11.4899 11.9528 11.6633 11.9866C11.7057 11.9951 11.7488 11.9993 11.792 11.9993C11.9464 11.9989 12.0959 11.9449 12.2149 11.8465C12.334 11.7482 12.4152 11.6115 12.4447 11.46ZM4.77799 7.33264C4.7778 7.14657 4.79319 6.96081 4.82399 6.7773C4.8439 6.68896 4.8456 6.59749 4.82899 6.50847C4.81238 6.41945 4.77781 6.33475 4.72739 6.25953C4.67696 6.18431 4.61174 6.12016 4.5357 6.07098C4.45967 6.02179 4.37441 5.98862 4.28513 5.97347C4.19585 5.95833 4.10442 5.96153 4.01642 5.98289C3.92841 6.00424 3.84569 6.04331 3.77328 6.09769C3.70087 6.15207 3.6403 6.22063 3.59526 6.2992C3.55023 6.37776 3.52167 6.46467 3.51133 6.55464C3.46732 6.81164 3.44502 7.07189 3.44466 7.33264C3.44466 10.4293 2.54733 11.9993 0.777995 11.9993C0.601184 11.9993 0.431615 12.0695 0.30659 12.1946C0.181566 12.3196 0.111328 12.4892 0.111328 12.666C0.111328 12.8428 0.181566 13.0124 0.30659 13.1374C0.431615 13.2624 0.601184 13.3326 0.777995 13.3326C3.35733 13.3326 4.77799 11.1993 4.77799 7.33264ZM13.9113 15.6086C15.0085 12.9914 15.5313 10.1692 15.4447 7.33264C15.4477 6.22525 15.1969 5.1319 14.7113 4.13664C14.673 4.05784 14.6196 3.98736 14.554 3.92923C14.4885 3.87109 14.4122 3.82643 14.3294 3.7978C14.2466 3.76917 14.1589 3.75712 14.0715 3.76236C13.984 3.76759 13.8985 3.79 13.8197 3.8283C13.7409 3.8666 13.6704 3.92005 13.6123 3.98559C13.5541 4.05113 13.5095 4.12748 13.4808 4.21028C13.4522 4.29308 13.4402 4.3807 13.4454 4.46816C13.4506 4.55561 13.473 4.64118 13.5113 4.71997C13.908 5.53368 14.1133 6.42738 14.1113 7.33264C14.1952 9.97848 13.7136 12.6118 12.6987 15.0566C12.6625 15.1365 12.6425 15.2226 12.6397 15.3102C12.6369 15.3978 12.6514 15.4851 12.6823 15.5671C12.7133 15.6491 12.7601 15.7241 12.8201 15.788C12.8801 15.8519 12.9521 15.9033 13.032 15.9393C13.1183 15.979 13.2123 15.9995 13.3073 15.9993C13.4348 15.9988 13.5595 15.9617 13.6665 15.8924C13.7736 15.8232 13.8585 15.7247 13.9113 15.6086ZM2.11133 9.33264V7.33264C2.11309 5.74188 2.7458 4.21678 3.87064 3.09194C4.99547 1.96711 6.52057 1.3344 8.11133 1.33264C9.41025 1.32831 10.6748 1.74982 11.7113 2.53264C11.8528 2.63872 12.0306 2.68427 12.2056 2.65927C12.3806 2.63426 12.5386 2.54075 12.6447 2.3993C12.7507 2.25785 12.7963 2.08005 12.7713 1.90502C12.7463 1.72999 12.6528 1.57206 12.5113 1.46597C11.2442 0.509583 9.69883 -0.00555562 8.11133 -0.000698386C6.16711 0.00159526 4.30318 0.774949 2.92841 2.14972C1.55364 3.52449 0.780288 5.38842 0.777995 7.33264V9.33264C0.777995 9.50945 0.848233 9.67902 0.973257 9.80404C1.09828 9.92906 1.26785 9.9993 1.44466 9.9993C1.62147 9.9993 1.79104 9.92906 1.91607 9.80404C2.04109 9.67902 2.11133 9.50945 2.11133 9.33264Z" fill="black"/>
</g>
<defs>
<clipPath id="clip0_482_18113">
<rect width="16" height="16" fill="white" transform="translate(0.111328)"/>
</clipPath>
</defs>
</svg>
