<svg width="17" height="16" viewBox="0 0 17 16" fill="none" xmlns="http://www.w3.org/2000/svg">
<g clip-path="url(#clip0_483_13796)">
<path d="M14.1113 5.33319H11.4447C10.9142 5.33319 10.4055 5.5439 10.0304 5.91897C9.65538 6.29405 9.44466 6.80276 9.44466 7.33319V10.6665H8.11133V7.99986C8.11091 7.28421 7.91851 6.58179 7.55419 5.96582C7.18986 5.34986 6.66695 4.84291 6.03999 4.49785C6.4006 4.12019 6.64239 3.64497 6.73538 3.13115C6.82836 2.61732 6.76844 2.0875 6.56306 1.60742C6.35767 1.12733 6.01586 0.718111 5.58002 0.43052C5.14418 0.142929 4.6335 -0.010376 4.11133 -0.010376C3.58916 -0.010376 3.07847 0.142929 2.64264 0.43052C2.2068 0.718111 1.86498 1.12733 1.6596 1.60742C1.45421 2.0875 1.3943 2.61732 1.48728 3.13115C1.58026 3.64497 1.82206 4.12019 2.18266 4.49785C1.5557 4.84291 1.0328 5.34986 0.66847 5.96582C0.304144 6.58179 0.111743 7.28421 0.111328 7.99986L0.111328 15.3332C0.111328 15.51 0.181566 15.6796 0.30659 15.8046C0.431615 15.9296 0.601184 15.9999 0.777995 15.9999C0.954806 15.9999 1.12438 15.9296 1.2494 15.8046C1.37442 15.6796 1.44466 15.51 1.44466 15.3332V11.9999H14.778V15.3332C14.778 15.51 14.8482 15.6796 14.9733 15.8046C15.0983 15.9296 15.2679 15.9999 15.4447 15.9999C15.6215 15.9999 15.791 15.9296 15.9161 15.8046C16.0411 15.6796 16.1113 15.51 16.1113 15.3332V7.33319C16.1113 6.80276 15.9006 6.29405 15.5255 5.91897C15.1505 5.5439 14.6418 5.33319 14.1113 5.33319ZM2.77799 2.66652C2.77799 2.40281 2.85619 2.14503 3.0027 1.92576C3.14921 1.7065 3.35745 1.5356 3.60108 1.43468C3.84472 1.33376 4.11281 1.30736 4.37145 1.35881C4.63009 1.41025 4.86767 1.53724 5.05414 1.72371C5.24061 1.91018 5.3676 2.14776 5.41904 2.4064C5.47049 2.66504 5.44408 2.93313 5.34317 3.17677C5.24225 3.4204 5.07135 3.62864 4.85209 3.77515C4.63282 3.92166 4.37504 3.99985 4.11133 3.99985C3.75771 3.99985 3.41857 3.85938 3.16852 3.60933C2.91847 3.35928 2.77799 3.02014 2.77799 2.66652ZM4.11133 5.33319C4.81857 5.33319 5.49685 5.61414 5.99695 6.11424C6.49704 6.61433 6.778 7.29261 6.778 7.99986V10.6665H1.44466V7.99986C1.44466 7.29261 1.72561 6.61433 2.22571 6.11424C2.72581 5.61414 3.40408 5.33319 4.11133 5.33319ZM10.778 10.6665V7.33319C10.778 7.15638 10.8482 6.98681 10.9733 6.86178C11.0983 6.73676 11.2679 6.66652 11.4447 6.66652H12.1113V7.33319C12.1113 7.51 12.1816 7.67957 12.3066 7.80459C12.4316 7.92962 12.6012 7.99986 12.778 7.99986C12.9548 7.99986 13.1244 7.92962 13.2494 7.80459C13.3744 7.67957 13.4447 7.51 13.4447 7.33319V6.66652H14.1113C14.2881 6.66652 14.4577 6.73676 14.5827 6.86178C14.7078 6.98681 14.778 7.15638 14.778 7.33319V10.6665H10.778Z" fill="black"/>
</g>
<defs>
<clipPath id="clip0_483_13796">
<rect width="16" height="16" fill="white" transform="translate(0.111328)"/>
</clipPath>
</defs>
</svg>
