<svg width="17" height="16" viewBox="0 0 17 16" fill="none" xmlns="http://www.w3.org/2000/svg">
<g clip-path="url(#clip0_482_17976)">
<path d="M12.1107 9.33325C11.7571 9.33325 11.4179 9.47373 11.1679 9.72378C10.9178 9.97382 10.7773 10.313 10.7773 10.6666C10.7773 11.0202 10.9178 11.3593 11.1679 11.6094C11.4179 11.8594 11.7571 11.9999 12.1107 11.9999C12.4643 11.9999 12.8034 11.8594 13.0535 11.6094C13.3035 11.3593 13.444 11.0202 13.444 10.6666C13.444 10.313 13.3035 9.97382 13.0535 9.72378C12.8034 9.47373 12.4643 9.33325 12.1107 9.33325Z" fill="black"/>
<path d="M6.111 7.33325C5.40375 7.33325 4.72548 7.6142 4.22538 8.1143C3.72529 8.61439 3.44434 9.29267 3.44434 9.99991C3.44434 10.7072 3.72529 11.3854 4.22538 11.8855C4.72548 12.3856 5.40375 12.6666 6.111 12.6666C6.81824 12.6666 7.49652 12.3856 7.99661 11.8855C8.49671 11.3854 8.77766 10.7072 8.77766 9.99991C8.77766 9.29267 8.49671 8.61439 7.99661 8.1143C7.49652 7.6142 6.81824 7.33325 6.111 7.33325ZM6.111 11.3332C5.75738 11.3332 5.41824 11.1928 5.16819 10.9427C4.91814 10.6927 4.77767 10.3535 4.77767 9.99991C4.77767 9.64629 4.91814 9.30715 5.16819 9.05711C5.41824 8.80706 5.75738 8.66658 6.111 8.66658C6.46462 8.66658 6.80376 8.80706 7.0538 9.05711C7.30385 9.30715 7.44433 9.64629 7.44433 9.99991C7.44433 10.3535 7.30385 10.6927 7.0538 10.9427C6.80376 11.1928 6.46462 11.3332 6.111 11.3332Z" fill="black"/>
<path d="M15.17 4.46676L9.94466 0.566096C9.38005 0.184835 8.71143 -0.0126818 8.03027 0.00056417C7.34912 0.0138102 6.68869 0.237172 6.13933 0.640096C3.98107 2.25521 2.36642 4.48986 1.51066 7.0461C1.501 7.08019 1.49387 7.11495 1.48932 7.1501C1.41588 7.29407 1.35283 7.44312 1.30066 7.5961C0.600301 9.58354 0.600301 11.7507 1.30066 13.7381C1.52471 14.3982 1.95008 14.9715 2.51692 15.3772C3.08376 15.783 3.76356 16.0008 4.46066 16.0001H6.87666C7.16578 15.9955 7.44591 15.8989 7.67634 15.7242C7.90677 15.5495 8.07549 15.3059 8.15799 15.0288C8.22553 14.8297 8.35374 14.6568 8.52462 14.5343C8.69549 14.4118 8.90043 14.346 9.11066 14.346C9.32088 14.346 9.52583 14.4118 9.6967 14.5343C9.86757 14.6568 9.99578 14.8297 10.0633 15.0288C10.1458 15.3059 10.3145 15.5495 10.545 15.7242C10.7754 15.8989 11.0555 15.9955 11.3447 16.0001H13.444C14.3277 15.999 15.175 15.6475 15.7998 15.0226C16.4247 14.3977 16.7763 13.5505 16.7773 12.6668V7.67143C16.7759 7.04928 16.6299 6.43597 16.351 5.87985C16.072 5.32373 15.6678 4.83999 15.17 4.46676ZM6.93732 1.7081C7.26047 1.47159 7.64829 1.3397 8.04863 1.33016C8.44896 1.32063 8.84262 1.43391 9.17666 1.65476L14.1033 5.33343H4.46133C4.2018 5.33317 3.94314 5.36338 3.69066 5.42343C4.50682 3.97557 5.61192 2.71095 6.93732 1.7081ZM15.444 12.6668C15.444 13.1972 15.2333 13.7059 14.8582 14.081C14.4831 14.456 13.9744 14.6668 13.444 14.6668L11.3333 14.6228C11.1771 14.1524 10.8755 13.7439 10.4722 13.4559C10.0689 13.1679 9.58453 13.0154 9.08895 13.0203C8.59338 13.0251 8.11215 13.1872 7.71458 13.4831C7.317 13.779 7.02361 14.1935 6.87666 14.6668H4.46066C4.04233 14.667 3.63447 14.536 3.29448 14.2923C2.95448 14.0485 2.69947 13.7043 2.56533 13.3081C1.96032 11.5994 1.96032 9.73479 2.56533 8.0261C2.69991 7.62995 2.95511 7.28587 3.29513 7.04209C3.63515 6.79832 4.04295 6.66707 4.46133 6.66676H15.244C15.375 6.98558 15.4429 7.32676 15.444 7.67143V12.6668Z" fill="black"/>
</g>
<defs>
<clipPath id="clip0_482_17976">
<rect width="16" height="16" fill="white" transform="translate(0.777344)"/>
</clipPath>
</defs>
</svg>
