<svg width="17" height="16" viewBox="0 0 17 16" fill="none" xmlns="http://www.w3.org/2000/svg">
<g clip-path="url(#clip0_483_13662)">
<path d="M16.2494 10.1957C16.1244 10.0707 15.9548 10.0005 15.778 10.0005C15.6013 10.0005 15.4317 10.0707 15.3067 10.1957L13.4447 12.0577L11.5827 10.1957C11.457 10.0742 11.2886 10.007 11.1138 10.0086C10.939 10.0101 10.7718 10.0802 10.6482 10.2038C10.5246 10.3274 10.4545 10.4946 10.4529 10.6694C10.4514 10.8442 10.5186 11.0126 10.64 11.1383L12.502 13.0003L10.64 14.8623C10.5764 14.9238 10.5256 14.9974 10.4906 15.0787C10.4557 15.1601 10.4373 15.2476 10.4365 15.3361C10.4358 15.4246 10.4526 15.5124 10.4862 15.5943C10.5197 15.6762 10.5692 15.7507 10.6318 15.8133C10.6944 15.8759 10.7688 15.9254 10.8507 15.9589C10.9327 15.9924 11.0205 16.0093 11.109 16.0085C11.1975 16.0077 11.285 15.9893 11.3663 15.9544C11.4477 15.9195 11.5212 15.8687 11.5827 15.805L13.4447 13.943L15.3067 15.805C15.4324 15.9264 15.6008 15.9936 15.7756 15.9921C15.9504 15.9906 16.1176 15.9205 16.2413 15.7969C16.3649 15.6733 16.435 15.5061 16.4365 15.3313C16.438 15.1565 16.3708 14.9881 16.2494 14.8623L14.3874 13.0003L16.2494 11.1383C16.3744 11.0133 16.4446 10.8438 16.4446 10.667C16.4446 10.4902 16.3744 10.3207 16.2494 10.1957Z" fill="black"/>
<path d="M8.44434 14.6667C7.1258 14.6667 5.83687 14.2757 4.74054 13.5431C3.64421 12.8106 2.78973 11.7694 2.28514 10.5512C1.78056 9.33305 1.64854 7.99261 1.90577 6.6994C2.16301 5.4062 2.79794 4.21831 3.73029 3.28596C4.66264 2.35361 5.85053 1.71867 7.14374 1.46144C8.43694 1.2042 9.77739 1.33622 10.9956 1.84081C12.2137 2.34539 13.2549 3.19987 13.9875 4.2962C14.72 5.39253 15.111 6.68146 15.111 8C15.111 8.17682 15.1812 8.34638 15.3063 8.47141C15.4313 8.59643 15.6009 8.66667 15.7777 8.66667C15.9545 8.66667 16.1241 8.59643 16.2491 8.47141C16.3741 8.34638 16.4443 8.17682 16.4443 8C16.4443 6.41775 15.9751 4.87104 15.0961 3.55544C14.217 2.23985 12.9676 1.21447 11.5058 0.608967C10.044 0.00346629 8.43547 -0.15496 6.88362 0.153721C5.33177 0.462403 3.90631 1.22433 2.78749 2.34315C1.66867 3.46197 0.906739 4.88743 0.598057 6.43928C0.289376 7.99113 0.447802 9.59966 1.0533 11.0615C1.6588 12.5233 2.68418 13.7727 3.99978 14.6518C5.31537 15.5308 6.86209 16 8.44434 16C8.62115 16 8.79072 15.9298 8.91574 15.8047C9.04077 15.6797 9.11101 15.5101 9.11101 15.3333C9.11101 15.1565 9.04077 14.987 8.91574 14.8619C8.79072 14.7369 8.62115 14.6667 8.44434 14.6667Z" fill="black"/>
<path d="M8.44438 4C8.26757 4 8.098 4.07024 7.97298 4.19526C7.84796 4.32029 7.77772 4.48986 7.77772 4.66667V7.724L5.97306 9.52866C5.90938 9.59016 5.85859 9.66372 5.82366 9.74506C5.78872 9.82639 5.77033 9.91387 5.76956 10.0024C5.76879 10.0909 5.78566 10.1787 5.81918 10.2606C5.8527 10.3426 5.9022 10.417 5.96479 10.4796C6.02739 10.5422 6.10182 10.5917 6.18375 10.6252C6.26568 10.6587 6.35347 10.6756 6.44199 10.6748C6.53051 10.6741 6.61799 10.6557 6.69932 10.6207C6.78066 10.5858 6.85422 10.535 6.91572 10.4713L8.91571 8.47133C9.04075 8.34633 9.11101 8.17679 9.11105 7.99999V4.66667C9.11105 4.48986 9.04081 4.32029 8.91579 4.19526C8.79076 4.07024 8.62119 4 8.44438 4Z" fill="black"/>
</g>
<defs>
<clipPath id="clip0_483_13662">
<rect width="16" height="16" fill="white" transform="translate(0.444336)"/>
</clipPath>
</defs>
</svg>
