<svg width="17" height="16" viewBox="0 0 17 16" fill="none" xmlns="http://www.w3.org/2000/svg">
<path d="M10.223 0H6.22298C5.33925 0.00105857 4.49202 0.352588 3.86713 0.97748C3.24224 1.60237 2.89071 2.4496 2.88965 3.33333V12.6667C2.89071 13.5504 3.24224 14.3976 3.86713 15.0225C4.49202 15.6474 5.33925 15.9989 6.22298 16H10.223C11.1067 15.9989 11.9539 15.6474 12.5788 15.0225C13.2037 14.3976 13.5553 13.5504 13.5563 12.6667V3.33333C13.5553 2.4496 13.2037 1.60237 12.5788 0.97748C11.9539 0.352588 11.1067 0.00105857 10.223 0V0ZM6.22298 1.33333H10.223C10.7534 1.33333 11.2621 1.54405 11.6372 1.91912C12.0123 2.29419 12.223 2.8029 12.223 3.33333V10.6667H4.22298V3.33333C4.22298 2.8029 4.4337 2.29419 4.80877 1.91912C5.18384 1.54405 5.69255 1.33333 6.22298 1.33333ZM10.223 14.6667H6.22298C5.69255 14.6667 5.18384 14.456 4.80877 14.0809C4.4337 13.7058 4.22298 13.1971 4.22298 12.6667V12H12.223V12.6667C12.223 13.1971 12.0123 13.7058 11.6372 14.0809C11.2621 14.456 10.7534 14.6667 10.223 14.6667Z" fill="black"/>
<path d="M8.22233 13.9996C8.59053 13.9996 8.88901 13.7011 8.88901 13.3329C8.88901 12.9647 8.59053 12.6663 8.22233 12.6663C7.85414 12.6663 7.55566 12.9647 7.55566 13.3329C7.55566 13.7011 7.85414 13.9996 8.22233 13.9996Z" fill="black"/>
</svg>
