<svg width="17" height="16" viewBox="0 0 17 16" fill="none" xmlns="http://www.w3.org/2000/svg">
<g clip-path="url(#clip0_483_13785)">
<path d="M15.5647 7.31467C15.2928 7.07149 14.9719 6.88947 14.6237 6.7809C14.2754 6.67234 13.9079 6.63975 13.546 6.68533C12.0879 6.86157 10.6492 7.17177 9.24801 7.612C9.46135 5.942 11.0553 5.33333 12.5553 5.33333C13.0858 5.33333 13.5945 5.12262 13.9696 4.74755C14.3446 4.37247 14.5553 3.86377 14.5553 3.33333C14.5553 2.8029 14.3446 2.29419 13.9696 1.91912C13.5945 1.54405 13.0858 1.33333 12.5553 1.33333C11.9339 1.33319 11.3187 1.45766 10.7461 1.69938C10.1736 1.94111 9.65534 2.29518 9.22201 2.74067V0.666667C9.22201 0.489856 9.15178 0.320286 9.02675 0.195262C8.90173 0.0702379 8.73216 0 8.55535 0C8.37854 0 8.20897 0.0702379 8.08394 0.195262C7.95892 0.320286 7.88868 0.489856 7.88868 0.666667V2.74C7.4552 2.29476 6.9369 1.94089 6.36439 1.69929C5.79187 1.45769 5.17675 1.33325 4.55535 1.33333C4.02492 1.33333 3.51621 1.54405 3.14113 1.91912C2.76606 2.29419 2.55535 2.8029 2.55535 3.33333C2.55535 3.86377 2.76606 4.37247 3.14113 4.74755C3.51621 5.12262 4.02492 5.33333 4.55535 5.33333C6.05535 5.33333 7.64935 5.942 7.86268 7.612C6.46149 7.17184 5.02275 6.86164 3.56468 6.68533C3.20278 6.64001 2.83536 6.67273 2.48716 6.78128C2.13896 6.88983 1.81805 7.07171 1.54601 7.31467C1.23223 7.60211 0.98277 7.95265 0.813991 8.34329C0.645213 8.73393 0.560934 9.15583 0.566682 9.58133C0.566682 15.3747 3.79001 16 5.17601 16C5.92863 15.9597 6.64941 15.6832 7.23601 15.21C7.60932 14.8938 8.06891 14.6969 8.55535 14.6447C9.04179 14.6969 9.50138 14.8938 9.87468 15.21C10.4614 15.6831 11.1821 15.9595 11.9347 16C13.3207 16 16.544 15.3747 16.544 9.58333C16.5499 9.15752 16.4657 8.73528 16.2969 8.3443C16.1281 7.95333 15.8786 7.60244 15.5647 7.31467ZM12.5553 2.66667C12.7322 2.66667 12.9017 2.7369 13.0268 2.86193C13.1518 2.98695 13.222 3.15652 13.222 3.33333C13.222 3.51014 13.1518 3.67971 13.0268 3.80474C12.9017 3.92976 12.7322 4 12.5553 4C11.4321 3.96354 10.3267 4.28732 9.40068 4.924C9.62575 4.26594 10.0508 3.69464 10.6164 3.28993C11.182 2.88521 11.8599 2.66731 12.5553 2.66667ZM4.55535 4C4.37854 4 4.20897 3.92976 4.08394 3.80474C3.95892 3.67971 3.88868 3.51014 3.88868 3.33333C3.88868 3.15652 3.95892 2.98695 4.08394 2.86193C4.20897 2.7369 4.37854 2.66667 4.55535 2.66667C5.25087 2.66747 5.92878 2.88542 6.49446 3.29011C7.06013 3.69479 7.48532 4.266 7.71068 4.924C6.78445 4.28718 5.67878 3.9634 4.55535 4ZM11.9347 14.6667C11.4482 14.6145 10.9887 14.4175 10.6153 14.1013C10.0286 13.6284 9.3079 13.352 8.55535 13.3113C7.8028 13.352 7.08211 13.6284 6.49535 14.1013C6.12204 14.4175 5.66245 14.6145 5.17601 14.6667C3.06335 14.6667 1.90001 12.8613 1.90001 9.58333C1.89581 9.34601 1.94106 9.11042 2.03288 8.89154C2.1247 8.67266 2.26108 8.47529 2.43335 8.312C2.56363 8.19313 2.71852 8.10444 2.88698 8.05224C3.05545 8.00005 3.23334 7.98562 3.40801 8.01C5.08161 8.20692 6.72651 8.59846 8.30935 9.17667C8.46853 9.24046 8.64617 9.24046 8.80535 9.17667C10.3879 8.59737 12.0329 8.20581 13.7067 8.01C13.8813 7.98595 14.0592 8.00053 14.2276 8.05271C14.396 8.10489 14.5509 8.1934 14.6813 8.312C14.8537 8.47519 14.9902 8.67254 15.082 8.89144C15.1739 9.11034 15.219 9.34599 15.2147 9.58333C15.2107 12.8613 14.0473 14.6667 11.9347 14.6667Z" fill="black"/>
<path d="M12.4423 10.0153C10.7617 10.4 8.55566 11.0986 8.55566 11.0986C9.895 11.2406 11.2597 12.466 11.965 12.662C12.7043 12.8673 12.983 12.0993 13.2097 10.8453C13.2357 10.7366 13.2345 10.6232 13.2063 10.515C13.178 10.4069 13.1235 10.3074 13.0477 10.2254C12.9718 10.1433 12.8769 10.0812 12.7713 10.0446C12.6657 10.0079 12.5527 9.99786 12.4423 10.0153Z" fill="black"/>
<path d="M3.9015 10.8453C4.12817 12.0993 4.40683 12.8673 5.14617 12.662C5.8515 12.466 7.21284 11.2406 8.55551 11.0986C8.55551 11.0986 6.3495 10.3973 4.66883 10.0153C4.55844 9.99786 4.44546 10.0079 4.33987 10.0446C4.23429 10.0812 4.13937 10.1433 4.0635 10.2254C3.98763 10.3074 3.93316 10.4069 3.90491 10.515C3.87665 10.6232 3.87548 10.7366 3.9015 10.8453Z" fill="black"/>
</g>
<defs>
<clipPath id="clip0_483_13785">
<rect width="16" height="16" fill="white" transform="translate(0.555664)"/>
</clipPath>
</defs>
</svg>
