<svg width="17" height="16" viewBox="0 0 17 16" fill="none" xmlns="http://www.w3.org/2000/svg">
<g clip-path="url(#clip0_482_18111)">
<path d="M13.6663 2.66667H10.333C10.333 1.95942 10.0521 1.28115 9.55196 0.781049C9.05186 0.280952 8.37359 0 7.66634 0L2.99967 0C2.29243 0 1.61415 0.280952 1.11406 0.781049C0.613959 1.28115 0.333008 1.95942 0.333008 2.66667L0.333008 15.3333C0.333008 15.5101 0.403246 15.6797 0.52827 15.8047C0.653294 15.9298 0.822863 16 0.999674 16C1.17649 16 1.34605 15.9298 1.47108 15.8047C1.5961 15.6797 1.66634 15.5101 1.66634 15.3333V8.66667H6.99967C6.99967 9.37391 7.28063 10.0522 7.78072 10.5523C8.28082 11.0524 8.9591 11.3333 9.66634 11.3333H13.6663C14.3736 11.3333 15.0519 11.0524 15.552 10.5523C16.0521 10.0522 16.333 9.37391 16.333 8.66667V5.33333C16.333 4.62609 16.0521 3.94781 15.552 3.44772C15.0519 2.94762 14.3736 2.66667 13.6663 2.66667ZM1.66634 7.33333V2.66667C1.66634 2.31304 1.80682 1.97391 2.05687 1.72386C2.30691 1.47381 2.64605 1.33333 2.99967 1.33333H7.66634C8.01996 1.33333 8.3591 1.47381 8.60915 1.72386C8.8592 1.97391 8.99967 2.31304 8.99967 2.66667V6C8.99967 6.35362 8.8592 6.69276 8.60915 6.94281C8.3591 7.19286 8.01996 7.33333 7.66634 7.33333H1.66634ZM14.9997 8.66667C14.9997 9.02029 14.8592 9.35943 14.6091 9.60948C14.3591 9.85952 14.02 10 13.6663 10H9.66634C9.31272 10 8.97358 9.85952 8.72353 9.60948C8.47348 9.35943 8.33301 9.02029 8.33301 8.66667V8.572C8.90377 8.42463 9.40962 8.0923 9.77148 7.62695C10.1333 7.16161 10.3308 6.58948 10.333 6V4H13.6663C14.02 4 14.3591 4.14048 14.6091 4.39052C14.8592 4.64057 14.9997 4.97971 14.9997 5.33333V8.66667Z" fill="black"/>
</g>
<defs>
<clipPath id="clip0_482_18111">
<rect width="16" height="16" fill="white" transform="translate(0.333008)"/>
</clipPath>
</defs>
</svg>
