<svg width="16" height="16" viewBox="0 0 16 16" fill="none" xmlns="http://www.w3.org/2000/svg">
<g clip-path="url(#clip0_482_17968)">
<path d="M6.66717 5.33338C6.93087 5.33338 7.18866 5.41158 7.40793 5.55809C7.62719 5.7046 7.79809 5.91283 7.89901 6.15647C7.99992 6.4001 8.02633 6.66819 7.97488 6.92683C7.92343 7.18548 7.79644 7.42305 7.60997 7.60952C7.4235 7.79599 7.18593 7.92298 6.92729 7.97443C6.66864 8.02588 6.40056 7.99947 6.15692 7.89855C5.91329 7.79764 5.70505 7.62674 5.55854 7.40747C5.41203 7.18821 5.33383 6.93042 5.33383 6.66671C5.33383 6.31309 5.47431 5.97395 5.72436 5.72391C5.97441 5.47386 6.31354 5.33338 6.66717 5.33338ZM16.0005 6.66671C15.9938 8.86246 15.2278 10.9883 13.8324 12.6836C12.4369 14.3789 10.498 15.5394 8.3445 15.968C8.05932 16.0201 7.76614 16.0086 7.48596 15.9341C7.20579 15.8597 6.94553 15.7242 6.72383 15.5374C6.4974 15.3488 6.31522 15.1128 6.19021 14.8459C6.06521 14.5791 6.00044 14.288 6.0005 13.9934V13.2994C4.87862 13.1874 3.80347 12.7927 2.8756 12.1522C1.94774 11.5117 1.19746 10.6464 0.694932 9.63713C0.192407 8.62786 -0.0459442 7.50763 0.00216725 6.38121C0.0502787 5.25478 0.383281 4.15895 0.970033 3.19621C1.55679 2.23347 2.37812 1.43526 3.35722 0.876231C4.33632 0.317204 5.44121 0.0156223 6.56855 -0.000310689C7.69589 -0.0162437 8.80886 0.253992 9.80337 0.785126C10.7979 1.31626 11.6414 2.09094 12.2552 3.03671C12.3029 3.11034 12.3357 3.19266 12.3517 3.27895C12.3676 3.36525 12.3664 3.45385 12.3481 3.53968C12.3298 3.62551 12.2948 3.7069 12.245 3.7792C12.1953 3.8515 12.1318 3.91329 12.0582 3.96105C11.9845 4.0088 11.9022 4.04159 11.8159 4.05754C11.7296 4.07348 11.641 4.07228 11.5552 4.05398C11.4694 4.03569 11.388 4.00067 11.3157 3.95092C11.2434 3.90118 11.1816 3.83768 11.1338 3.76405C10.5077 2.79898 9.5864 2.06221 8.50727 1.66367C7.42815 1.26513 6.24908 1.22619 5.14601 1.55266C4.04294 1.87912 3.07499 2.5535 2.38659 3.47515C1.69819 4.39681 1.32624 5.51635 1.32624 6.66671C1.32624 7.81708 1.69819 8.93662 2.38659 9.85827C3.07499 10.7799 4.04294 11.4543 5.14601 11.7808C6.24908 12.1072 7.42815 12.0683 8.50727 11.6698C9.5864 11.2712 10.5077 10.5345 11.1338 9.56938C11.1816 9.49597 11.2433 9.43269 11.3156 9.38314C11.3878 9.3336 11.469 9.29876 11.5547 9.28062C11.6404 9.26248 11.7288 9.2614 11.8149 9.27743C11.901 9.29346 11.9831 9.32629 12.0565 9.37405C12.1299 9.4218 12.1932 9.48355 12.2427 9.55577C12.2923 9.62798 12.3271 9.70925 12.3453 9.79493C12.3634 9.8806 12.3645 9.96901 12.3485 10.0551C12.3324 10.1412 12.2996 10.2233 12.2518 10.2967C11.7095 11.133 10.9857 11.8365 10.1344 12.3549C9.28299 12.8734 8.3258 13.1934 7.33383 13.2914V13.9934C7.3339 14.0928 7.35586 14.191 7.39814 14.281C7.44043 14.371 7.502 14.4505 7.5785 14.514C7.65019 14.5756 7.73477 14.6204 7.82604 14.6449C7.9173 14.6695 8.01291 14.6733 8.10583 14.656C9.62345 14.3552 11.0237 13.6275 12.142 12.5584C13.2604 11.4893 14.0504 10.1233 14.4192 8.62071C14.2817 8.65096 14.1413 8.66639 14.0005 8.66671C13.6049 8.66671 13.2183 8.54942 12.8894 8.32965C12.5605 8.10989 12.3041 7.79753 12.1527 7.43208C12.0014 7.06663 11.9618 6.6645 12.0389 6.27653C12.1161 5.88857 12.3066 5.53221 12.5863 5.2525C12.866 4.9728 13.2224 4.78231 13.6103 4.70514C13.9983 4.62797 14.4004 4.66758 14.7659 4.81895C15.1313 4.97033 15.4437 5.22668 15.6634 5.55557C15.8832 5.88447 16.0005 6.27115 16.0005 6.66671ZM14.6672 6.66671C14.6672 6.53486 14.6281 6.40597 14.5548 6.29633C14.4816 6.1867 14.3774 6.10125 14.2556 6.05079C14.1338 6.00034 13.9998 5.98713 13.8704 6.01286C13.7411 6.03858 13.6223 6.10207 13.5291 6.19531C13.4359 6.28854 13.3724 6.40733 13.3466 6.53665C13.3209 6.66597 13.3341 6.80002 13.3846 6.92184C13.435 7.04365 13.5205 7.14777 13.6301 7.22103C13.7398 7.29428 13.8686 7.33338 14.0005 7.33338C14.1773 7.33338 14.3469 7.26314 14.4719 7.13812C14.5969 7.01309 14.6672 6.84352 14.6672 6.66671Z" fill="black"/>
</g>
<defs>
<clipPath id="clip0_482_17968">
<rect width="16" height="16" fill="white"/>
</clipPath>
</defs>
</svg>
