<svg width="16" height="16" viewBox="0 0 16 16" fill="none" xmlns="http://www.w3.org/2000/svg">
<g clip-path="url(#clip0_483_13721)">
<path d="M8 4C7.46957 4 6.96086 4.21071 6.58579 4.58579C6.21071 4.96086 6 5.46957 6 6V14C6 14.5304 6.21071 15.0391 6.58579 15.4142C6.96086 15.7893 7.46957 16 8 16C8.53043 16 9.03914 15.7893 9.41421 15.4142C9.78929 15.0391 10 14.5304 10 14V6C10 5.46957 9.78929 4.96086 9.41421 4.58579C9.03914 4.21071 8.53043 4 8 4ZM8.66667 14C8.66667 14.1768 8.59643 14.3464 8.4714 14.4714C8.34638 14.5964 8.17681 14.6667 8 14.6667C7.82319 14.6667 7.65362 14.5964 7.5286 14.4714C7.40357 14.3464 7.33333 14.1768 7.33333 14V6C7.33333 5.82319 7.40357 5.65362 7.5286 5.5286C7.65362 5.40357 7.82319 5.33333 8 5.33333C8.17681 5.33333 8.34638 5.40357 8.4714 5.5286C8.59643 5.65362 8.66667 5.82319 8.66667 6V14Z" fill="black"/>
<path d="M14 0C13.4696 0 12.9609 0.210714 12.5858 0.585786C12.2107 0.960859 12 1.46957 12 2V14C12 14.5304 12.2107 15.0391 12.5858 15.4142C12.9609 15.7893 13.4696 16 14 16C14.5304 16 15.0391 15.7893 15.4142 15.4142C15.7893 15.0391 16 14.5304 16 14V2C16 1.46957 15.7893 0.960859 15.4142 0.585786C15.0391 0.210714 14.5304 0 14 0V0ZM14.6667 14C14.6667 14.1768 14.5964 14.3464 14.4714 14.4714C14.3464 14.5964 14.1768 14.6667 14 14.6667C13.8232 14.6667 13.6536 14.5964 13.5286 14.4714C13.4036 14.3464 13.3333 14.1768 13.3333 14V2C13.3333 1.82319 13.4036 1.65362 13.5286 1.5286C13.6536 1.40357 13.8232 1.33333 14 1.33333C14.1768 1.33333 14.3464 1.40357 14.4714 1.5286C14.5964 1.65362 14.6667 1.82319 14.6667 2V14Z" fill="black"/>
<path d="M2 8C1.46957 8 0.960859 8.21071 0.585786 8.58579C0.210714 8.96086 0 9.46957 0 10L0 14C0 14.5304 0.210714 15.0391 0.585786 15.4142C0.960859 15.7893 1.46957 16 2 16C2.53043 16 3.03914 15.7893 3.41421 15.4142C3.78929 15.0391 4 14.5304 4 14V10C4 9.46957 3.78929 8.96086 3.41421 8.58579C3.03914 8.21071 2.53043 8 2 8Z" fill="black"/>
</g>
<defs>
<clipPath id="clip0_483_13721">
<rect width="16" height="16" fill="white"/>
</clipPath>
</defs>
</svg>
