<svg width="16" height="16" viewBox="0 0 16 16" fill="none" xmlns="http://www.w3.org/2000/svg">
<g clip-path="url(#clip0_483_13640)">
<path d="M14 10.667V8.00029C13.9998 7.10464 13.7987 6.22044 13.4115 5.4128C13.0243 4.60517 12.4608 3.89467 11.7627 3.33363H13.518C13.6657 3.58537 13.8923 3.78139 14.1627 3.89135C14.4331 4.0013 14.7322 4.01907 15.0137 3.94188C15.2952 3.8647 15.5434 3.69687 15.7199 3.46438C15.8964 3.2319 15.9914 2.94771 15.9901 2.65582C15.9888 2.36393 15.8913 2.08061 15.7127 1.84972C15.5341 1.61883 15.2844 1.45325 15.0022 1.3786C14.72 1.30395 14.4211 1.3244 14.1517 1.43679C13.8823 1.54918 13.6575 1.74723 13.512 2.00029H10.572C10.4265 1.42857 10.0946 0.921627 9.62886 0.559553C9.16308 0.197479 8.58995 0.000915527 8 0.000915527C7.41005 0.000915527 6.83692 0.197479 6.37114 0.559553C5.90537 0.921627 5.57351 1.42857 5.428 2.00029H2.482C2.33426 1.74855 2.10765 1.55253 1.83726 1.44257C1.56687 1.33261 1.26777 1.31485 0.986268 1.39204C0.704763 1.46922 0.456551 1.63704 0.280053 1.86953C0.103555 2.10202 0.00861503 2.38621 0.00992854 2.6781C0.011242 2.96999 0.108736 3.25331 0.287319 3.4842C0.465902 3.71509 0.715615 3.88067 0.997802 3.95532C1.27999 4.02997 1.57892 4.00951 1.84831 3.89713C2.1177 3.78474 2.34253 3.58669 2.488 3.33363H4.23733C3.53917 3.89467 2.97575 4.60517 2.58854 5.4128C2.20134 6.22044 2.00022 7.10464 2 8.00029V10.667C1.46957 10.667 0.960859 10.8777 0.585786 11.2527C0.210714 11.6278 0 12.1365 0 12.667L0 14.0003C0 14.5307 0.210714 15.0394 0.585786 15.4145C0.960859 15.7896 1.46957 16.0003 2 16.0003H3.33333C3.86377 16.0003 4.37247 15.7896 4.74755 15.4145C5.12262 15.0394 5.33333 14.5307 5.33333 14.0003V12.667C5.33333 12.1365 5.12262 11.6278 4.74755 11.2527C4.37247 10.8777 3.86377 10.667 3.33333 10.667V8.00029C3.33442 7.17943 3.55201 6.37337 3.96414 5.66347C4.37627 4.95356 4.96836 4.36493 5.68067 3.95696C5.90796 4.37361 6.24329 4.72133 6.65141 4.9636C7.05954 5.20586 7.52539 5.33371 8 5.33371C8.47461 5.33371 8.94046 5.20586 9.34859 4.9636C9.75671 4.72133 10.092 4.37361 10.3193 3.95696C11.0316 4.36493 11.6237 4.95356 12.0359 5.66347C12.448 6.37337 12.6656 7.17943 12.6667 8.00029V10.667C12.1362 10.667 11.6275 10.8777 11.2525 11.2527C10.8774 11.6278 10.6667 12.1365 10.6667 12.667V14.0003C10.6667 14.5307 10.8774 15.0394 11.2525 15.4145C11.6275 15.7896 12.1362 16.0003 12.6667 16.0003H14C14.5304 16.0003 15.0391 15.7896 15.4142 15.4145C15.7893 15.0394 16 14.5307 16 14.0003V12.667C16 12.1365 15.7893 11.6278 15.4142 11.2527C15.0391 10.8777 14.5304 10.667 14 10.667ZM4 12.667V14.0003C4 14.1771 3.92976 14.3467 3.80474 14.4717C3.67971 14.5967 3.51014 14.667 3.33333 14.667H2C1.82319 14.667 1.65362 14.5967 1.5286 14.4717C1.40357 14.3467 1.33333 14.1771 1.33333 14.0003V12.667C1.33333 12.4901 1.40357 12.3206 1.5286 12.1956C1.65362 12.0705 1.82319 12.0003 2 12.0003H3.33333C3.51014 12.0003 3.67971 12.0705 3.80474 12.1956C3.92976 12.3206 4 12.4901 4 12.667ZM8 4.00029C7.73629 4.00029 7.47851 3.92209 7.25924 3.77558C7.03997 3.62908 6.86908 3.42084 6.76816 3.1772C6.66724 2.93357 6.64084 2.66548 6.69229 2.40684C6.74373 2.1482 6.87072 1.91062 7.05719 1.72415C7.24366 1.53768 7.48124 1.41069 7.73988 1.35924C7.99852 1.3078 8.26661 1.3342 8.51024 1.43512C8.75388 1.53604 8.96212 1.70693 9.10863 1.9262C9.25513 2.14546 9.33333 2.40325 9.33333 2.66696C9.33333 3.02058 9.19286 3.35972 8.94281 3.60977C8.69276 3.85982 8.35362 4.00029 8 4.00029ZM14.6667 14.0003C14.6667 14.1771 14.5964 14.3467 14.4714 14.4717C14.3464 14.5967 14.1768 14.667 14 14.667H12.6667C12.4899 14.667 12.3203 14.5967 12.1953 14.4717C12.0702 14.3467 12 14.1771 12 14.0003V12.667C12 12.4901 12.0702 12.3206 12.1953 12.1956C12.3203 12.0705 12.4899 12.0003 12.6667 12.0003H14C14.1768 12.0003 14.3464 12.0705 14.4714 12.1956C14.5964 12.3206 14.6667 12.4901 14.6667 12.667V14.0003Z" fill="black"/>
</g>
<defs>
<clipPath id="clip0_483_13640">
<rect width="16" height="16" fill="white"/>
</clipPath>
</defs>
</svg>
