<svg width="17" height="16" viewBox="0 0 17 16" fill="none" xmlns="http://www.w3.org/2000/svg">
<g clip-path="url(#clip0_483_13613)">
<path d="M15.5222 6.39984C15.3972 6.27486 15.2276 6.20465 15.0508 6.20465C14.8741 6.20465 14.7045 6.27486 14.5795 6.39984L7.31818 13.6925C7.00866 14.0021 6.64119 14.2476 6.23676 14.4152C5.83233 14.5828 5.39885 14.669 4.96109 14.669C4.07698 14.6691 3.22905 14.318 2.60385 13.6928C1.97865 13.0677 1.62738 12.2198 1.62731 11.3357C1.62725 10.4516 1.9784 9.60371 2.60352 8.97851L9.63618 1.91717C10.0122 1.5471 10.5193 1.34062 11.0469 1.3427C11.5745 1.34479 12.0799 1.55528 12.453 1.92831C12.8262 2.30134 13.0368 2.8067 13.039 3.33431C13.0412 3.86192 12.8348 4.36903 12.4649 4.74517L5.43218 11.8065C5.30535 11.928 5.13649 11.9958 4.96085 11.9958C4.78521 11.9958 4.61635 11.928 4.48952 11.8065C4.36454 11.6815 4.29433 11.5119 4.29433 11.3352C4.29433 11.1584 4.36454 10.9889 4.48952 10.8638L10.7509 4.57384C10.8723 4.4481 10.9395 4.2797 10.938 4.10491C10.9364 3.93011 10.8663 3.7629 10.7427 3.63929C10.6191 3.51569 10.4519 3.44558 10.2771 3.44406C10.1023 3.44254 9.93392 3.50973 9.80818 3.63117L3.54685 9.92117C3.3611 10.1069 3.21375 10.3274 3.11322 10.5701C3.01269 10.8127 2.96094 11.0728 2.96094 11.3355C2.96094 11.5982 3.01269 11.8583 3.11322 12.101C3.21375 12.3436 3.3611 12.5641 3.54685 12.7498C3.92793 13.1135 4.43444 13.3164 4.96118 13.3164C5.48793 13.3164 5.99444 13.1135 6.37552 12.7498L13.4075 5.68784C14.0195 5.06004 14.3595 4.21641 14.3539 3.33969C14.3483 2.46297 13.9975 1.62376 13.3775 1.00385C12.7575 0.38395 11.9183 0.0332688 11.0415 0.0277755C10.1648 0.0222822 9.32123 0.362419 8.69352 0.974505L1.66085 8.03584C0.785636 8.91105 0.293945 10.0981 0.293945 11.3358C0.293945 12.5736 0.785636 13.7606 1.66085 14.6358C2.53606 15.5111 3.72311 16.0027 4.96085 16.0027C6.19859 16.0027 7.38564 15.5111 8.26085 14.6358L15.5222 7.34517C15.5845 7.28322 15.6339 7.20957 15.6676 7.12845C15.7013 7.04734 15.7187 6.96035 15.7187 6.87251C15.7187 6.78466 15.7013 6.69767 15.6676 6.61656C15.6339 6.53544 15.5845 6.46179 15.5222 6.39984Z" fill="black"/>
</g>
<defs>
<clipPath id="clip0_483_13613">
<rect width="16" height="16" fill="white" transform="translate(0.222656)"/>
</clipPath>
</defs>
</svg>
