<svg width="17" height="16" viewBox="0 0 17 16" fill="none" xmlns="http://www.w3.org/2000/svg">
<g clip-path="url(#clip0_483_13825)">
<path d="M8.77735 16C7.1951 16 5.64838 15.5308 4.33279 14.6518C3.01719 13.7727 1.99181 12.5233 1.38631 11.0615C0.78081 9.59966 0.622383 7.99112 0.931065 6.43928C1.23975 4.88743 2.00167 3.46196 3.12049 2.34314C4.23931 1.22432 5.66478 0.462397 7.21663 0.153716C8.76847 -0.154966 10.377 0.00346057 11.8388 0.608962C13.3006 1.21446 14.5501 2.23984 15.4291 3.55544C16.3082 4.87103 16.7773 6.41775 16.7773 8C16.7751 10.121 15.9315 12.1545 14.4317 13.6543C12.9319 15.1541 10.8984 15.9977 8.77735 16ZM8.77735 1.33333C7.45881 1.33333 6.16987 1.72432 5.07355 2.45687C3.97722 3.18941 3.12273 4.2306 2.61815 5.44878C2.11357 6.66695 1.98154 8.00739 2.23878 9.3006C2.49601 10.5938 3.13095 11.7817 4.0633 12.714C4.99565 13.6464 6.18354 14.2813 7.47675 14.5386C8.76995 14.7958 10.1104 14.6638 11.3286 14.1592C12.5467 13.6546 13.5879 12.8001 14.3205 11.7038C15.053 10.6075 15.444 9.31854 15.444 8C15.4421 6.23248 14.7391 4.53792 13.4892 3.2881C12.2394 2.03827 10.5449 1.33527 8.77735 1.33333ZM6.11068 9.33333C6.00664 9.33287 5.90393 9.35676 5.81078 9.4031C5.71762 9.44944 5.63661 9.51693 5.57421 9.60019C5.51182 9.68345 5.46978 9.78015 5.45145 9.88257C5.43313 9.98499 5.43903 10.0903 5.46868 10.19C5.70754 10.8883 6.15159 11.4983 6.74274 11.9402C7.33389 12.3821 8.04463 12.6353 8.78201 12.6667C9.51971 12.6376 10.2312 12.3852 10.8223 11.943C11.4135 11.5007 11.8565 10.8895 12.0927 10.19C12.1194 10.0904 12.1231 9.98606 12.1035 9.88483C12.084 9.7836 12.0417 9.68813 11.9799 9.60563C11.9181 9.52312 11.8383 9.45574 11.7466 9.40857C11.6549 9.3614 11.5538 9.33568 11.4507 9.33333H6.11068ZM4.77735 6.66667C4.77735 7.33333 5.37401 7.33333 6.11068 7.33333C6.84735 7.33333 7.44401 7.33333 7.44401 6.66667C7.44401 6.31304 7.30354 5.9739 7.05349 5.72386C6.80344 5.47381 6.4643 5.33333 6.11068 5.33333C5.75706 5.33333 5.41792 5.47381 5.16787 5.72386C4.91782 5.9739 4.77735 6.31304 4.77735 6.66667ZM10.1107 6.66667C10.1107 7.33333 10.7073 7.33333 11.444 7.33333C12.1807 7.33333 12.7773 7.33333 12.7773 6.66667C12.7773 6.31304 12.6369 5.9739 12.3868 5.72386C12.1368 5.47381 11.7976 5.33333 11.444 5.33333C11.0904 5.33333 10.7513 5.47381 10.5012 5.72386C10.2512 5.9739 10.1107 6.31304 10.1107 6.66667Z" fill="black"/>
</g>
<defs>
<clipPath id="clip0_483_13825">
<rect width="16" height="16" fill="white" transform="translate(0.777344)"/>
</clipPath>
</defs>
</svg>
