<svg width="17" height="16" viewBox="0 0 17 16" fill="none" xmlns="http://www.w3.org/2000/svg">
<g clip-path="url(#clip0_483_13773)">
<path d="M15.7777 13.9998C15.6009 13.9998 15.4313 13.9296 15.3063 13.8045C15.1812 13.6795 15.111 13.5099 15.111 13.3331V9.9998C14.7437 1.15313 2.14167 1.16046 1.77767 9.9998V13.3331C1.77767 13.5099 1.70743 13.6795 1.58241 13.8045C1.45738 13.9296 1.28781 13.9998 1.111 13.9998C0.934192 13.9998 0.764622 13.9296 0.639598 13.8045C0.514574 13.6795 0.444336 13.5099 0.444336 13.3331V9.9998C0.885003 -0.616203 16.0077 -0.607537 16.4443 9.9998V13.3331C16.4443 13.5099 16.3741 13.6795 16.2491 13.8045C16.1241 13.9296 15.9545 13.9998 15.7777 13.9998ZM13.7777 13.3331V9.9998C13.511 2.93313 3.37767 2.9378 3.111 9.9998V13.3331C3.111 13.5099 3.18124 13.6795 3.30626 13.8045C3.43129 13.9296 3.60086 13.9998 3.77767 13.9998C3.95448 13.9998 4.12405 13.9296 4.24907 13.8045C4.3741 13.6795 4.44434 13.5099 4.44434 13.3331V9.9998C4.613 4.7118 12.2777 4.7158 12.4443 9.9998V13.3331C12.4443 13.5099 12.5146 13.6795 12.6396 13.8045C12.7646 13.9296 12.9342 13.9998 13.111 13.9998C13.2878 13.9998 13.4574 13.9296 13.5824 13.8045C13.7074 13.6795 13.7777 13.5099 13.7777 13.3331ZM11.111 13.3331V9.9998C11.111 9.29255 10.8301 8.61427 10.33 8.11418C9.82986 7.61408 9.15158 7.33313 8.44434 7.33313C7.73709 7.33313 7.05882 7.61408 6.55872 8.11418C6.05862 8.61427 5.77767 9.29255 5.77767 9.9998V13.3331C5.77767 13.5099 5.84791 13.6795 5.97293 13.8045C6.09796 13.9296 6.26753 13.9998 6.44434 13.9998C6.62115 13.9998 6.79072 13.9296 6.91574 13.8045C7.04076 13.6795 7.111 13.5099 7.111 13.3331V9.9998C7.111 9.64617 7.25148 9.30704 7.50153 9.05699C7.75158 8.80694 8.09071 8.66646 8.44434 8.66646C8.79796 8.66646 9.1371 8.80694 9.38715 9.05699C9.63719 9.30704 9.77767 9.64617 9.77767 9.9998V13.3331C9.77767 13.5099 9.84791 13.6795 9.97293 13.8045C10.098 13.9296 10.2675 13.9998 10.4443 13.9998C10.6211 13.9998 10.7907 13.9296 10.9157 13.8045C11.0408 13.6795 11.111 13.5099 11.111 13.3331Z" fill="black"/>
</g>
<defs>
<clipPath id="clip0_483_13773">
<rect width="16" height="16" fill="white" transform="translate(0.444336)"/>
</clipPath>
</defs>
</svg>
