<svg width="17" height="16" viewBox="0 0 17 16" fill="none" xmlns="http://www.w3.org/2000/svg">
<g clip-path="url(#clip0_483_13899)">
<path d="M8.11086 15.9999C7.16156 16.002 6.24961 15.6303 5.57219 14.9653L2.94419 12.5366C2.24742 11.8602 1.69192 11.0522 1.30993 10.1594C0.927949 9.26659 0.727087 8.30682 0.719004 7.33578C0.710921 6.36473 0.895779 5.40175 1.26285 4.50272C1.62992 3.6037 2.17189 2.78652 2.85731 2.09863C3.54273 1.41074 4.35794 0.865832 5.25564 0.495528C6.15335 0.125225 7.11565 -0.0630987 8.08672 -0.0585119C9.05779 -0.0539252 10.0183 0.14348 10.9124 0.522248C11.8066 0.901015 12.6166 1.4536 13.2955 2.14794C14.6707 3.52319 15.4433 5.38841 15.4433 7.33327C15.4433 9.27813 14.6707 11.1433 13.2955 12.5186L10.6349 14.9779C9.96018 15.6365 9.05369 16.0036 8.11086 15.9999ZM8.11086 1.33327C6.92416 1.33326 5.76411 1.68515 4.77741 2.34444C3.7907 3.00372 3.02166 3.9408 2.56753 5.03716C2.1134 6.13352 1.99458 7.33993 2.2261 8.50383C2.45761 9.66772 3.02906 10.7368 3.86819 11.5759L6.49086 13.9999C6.92468 14.4145 7.50097 14.6468 8.101 14.6492C8.70103 14.6516 9.27912 14.4237 9.71619 14.0126L12.3722 11.5579C13.4892 10.4309 14.1142 8.90736 14.1106 7.32061C14.107 5.73387 13.475 4.21316 12.3529 3.09127C11.7972 2.5323 11.1361 2.08911 10.408 1.78734C9.67982 1.48558 8.89905 1.33125 8.11086 1.33327ZM8.11086 11.9999C7.18788 11.9999 6.28563 11.7262 5.5182 11.2135C4.75077 10.7007 4.15263 9.97185 3.79942 9.11913C3.44621 8.2664 3.35379 7.32809 3.53386 6.42285C3.71392 5.5176 4.15838 4.68608 4.81103 4.03344C5.46367 3.38079 6.29519 2.93634 7.20044 2.75627C8.10568 2.57621 9.04399 2.66862 9.89671 3.02183C10.7494 3.37504 11.4783 3.97318 11.991 4.74061C12.5038 5.50804 12.7775 6.41029 12.7775 7.33327C12.7761 8.57051 12.284 9.75668 11.4091 10.6315C10.5343 11.5064 9.3481 11.9985 8.11086 11.9999ZM8.11086 3.99994C7.45159 3.99994 6.80712 4.19543 6.25896 4.5617C5.71079 4.92798 5.28355 5.44857 5.03126 6.05766C4.77897 6.66675 4.71296 7.33697 4.84157 7.98357C4.97019 8.63017 5.28766 9.22412 5.75383 9.69029C6.22001 10.1565 6.81395 10.4739 7.46056 10.6026C8.10716 10.7312 8.77738 10.6652 9.38647 10.4129C9.99556 10.1606 10.5162 9.73333 10.8824 9.18517C11.2487 8.63701 11.4442 7.99254 11.4442 7.33327C11.4431 6.44954 11.0916 5.60231 10.4667 4.97742C9.84182 4.35252 8.99459 4.00099 8.11086 3.99994ZM9.24886 8.47127C9.37384 8.34625 9.44405 8.17671 9.44405 7.99994C9.44405 7.82316 9.37384 7.65362 9.24886 7.5286L8.77752 7.05727V5.99994C8.77752 5.82313 8.70729 5.65356 8.58226 5.52853C8.45724 5.40351 8.28767 5.33327 8.11086 5.33327C7.93405 5.33327 7.76448 5.40351 7.63945 5.52853C7.51443 5.65356 7.44419 5.82313 7.44419 5.99994V7.33327C7.44423 7.51007 7.51449 7.67961 7.63952 7.8046L8.30619 8.47127C8.43121 8.59625 8.60075 8.66646 8.77752 8.66646C8.9543 8.66646 9.12384 8.59625 9.24886 8.47127Z" fill="black"/>
</g>
<defs>
<clipPath id="clip0_483_13899">
<rect width="16" height="16" fill="white" transform="translate(0.111328)"/>
</clipPath>
</defs>
</svg>
