<svg width="16" height="16" viewBox="0 0 16 16" fill="none" xmlns="http://www.w3.org/2000/svg">
<path d="M7.99984 1.33331C9.31838 1.33331 10.6073 1.72431 11.7036 2.45685C12.8 3.18939 13.6544 4.23058 14.159 5.44876C14.6636 6.66693 14.7956 8.00737 14.5384 9.30058C14.2812 10.5938 13.6462 11.7817 12.7139 12.714C11.7815 13.6464 10.5936 14.2813 9.30044 14.5385C8.00723 14.7958 6.66679 14.6638 5.44861 14.1592C4.23044 13.6546 3.18925 12.8001 2.45671 11.7038C1.72416 10.6075 1.33317 9.31852 1.33317 7.99998C1.33508 6.23246 2.03808 4.53787 3.2879 3.28805C4.53773 2.03822 6.23231 1.33522 7.99984 1.33331ZM7.99984 13.5555C9.09862 13.5555 10.1727 13.2297 11.0863 12.6193C11.9999 12.0088 12.712 11.1411 13.1325 10.126C13.553 9.11085 13.663 7.99382 13.4486 6.91614C13.2343 5.83847 12.7052 4.84857 11.9282 4.07161C11.1512 3.29465 10.1613 2.76553 9.08367 2.55117C8.006 2.33681 6.88896 2.44683 5.87382 2.86732C4.85867 3.2878 3.99101 3.99987 3.38056 4.91348C2.77011 5.82708 2.44428 6.90119 2.44428 7.99998C2.4459 9.47291 3.03173 10.885 4.07325 11.9266C5.11477 12.9681 6.52691 13.5539 7.99984 13.5555Z" fill="black"/>
<path d="M7.99984 4.66665C8.14718 4.66665 8.28849 4.72518 8.39268 4.82936C8.49686 4.93355 8.55539 5.07486 8.55539 5.2222V7.99998C8.55536 8.14731 8.49681 8.28859 8.39262 8.39276L6.72595 10.0594C6.62117 10.1606 6.48084 10.2166 6.33517 10.2154C6.18951 10.2141 6.05017 10.1557 5.94716 10.0527C5.84416 9.94965 5.78573 9.81031 5.78447 9.66465C5.7832 9.51898 5.8392 9.37865 5.9404 9.27387L7.44428 7.76998V5.2222C7.44428 5.07486 7.50282 4.93355 7.607 4.82936C7.71119 4.72518 7.8525 4.66665 7.99984 4.66665Z" fill="black"/>
</svg>
