<svg width="17" height="16" viewBox="0 0 17 16" fill="none" xmlns="http://www.w3.org/2000/svg">
<g clip-path="url(#clip0_483_13866)">
<path d="M0.444091 8C0.444091 7.82319 0.514329 7.65362 0.639353 7.52859C0.764378 7.40357 0.933947 7.33333 1.11076 7.33333H3.83009C3.8828 6.96733 3.97996 6.60913 4.11942 6.26667L1.76542 4.89933C1.68684 4.85704 1.61755 4.79941 1.56165 4.72984C1.50576 4.66027 1.4644 4.58019 1.44002 4.49434C1.41565 4.4085 1.40876 4.31863 1.41977 4.23007C1.43077 4.14151 1.45944 4.05606 1.50408 3.97879C1.54872 3.90152 1.60842 3.83399 1.67965 3.78022C1.75087 3.72645 1.83216 3.68752 1.9187 3.66575C2.00525 3.64398 2.09528 3.63981 2.18347 3.65348C2.27166 3.66715 2.3562 3.69838 2.43209 3.74533L4.78876 5.11067C5.01443 4.82765 5.2719 4.57153 5.55609 4.34733L4.18942 1.98933C4.10729 1.8367 4.08782 1.65808 4.13516 1.49134C4.1825 1.3246 4.29291 1.18285 4.443 1.09615C4.59308 1.00944 4.77104 0.984602 4.93913 1.02689C5.10722 1.06918 5.25223 1.17527 5.34342 1.32267L6.71076 3.67533C7.05342 3.5366 7.41156 3.43968 7.77742 3.38667V0.666667C7.77742 0.489856 7.84766 0.320286 7.97269 0.195262C8.09771 0.0702379 8.26728 0 8.44409 0C8.6209 0 8.79047 0.0702379 8.9155 0.195262C9.04052 0.320286 9.11076 0.489856 9.11076 0.666667V3.38667C9.47662 3.43968 9.83476 3.5366 10.1774 3.67533L11.5421 1.32067C11.6333 1.17327 11.7783 1.06718 11.9464 1.02489C12.1145 0.982602 12.2924 1.00744 12.4425 1.09415C12.5926 1.18085 12.703 1.3226 12.7504 1.48934C12.7977 1.65608 12.7782 1.8347 12.6961 1.98733L11.3294 4.34467C11.6135 4.56897 11.8712 4.82483 12.0974 5.10733L14.4514 3.74267C14.6041 3.66053 14.7827 3.64107 14.9494 3.6884C15.1162 3.73574 15.2579 3.84616 15.3446 3.99624C15.4313 4.14632 15.4562 4.32428 15.4139 4.49237C15.3716 4.66046 15.2655 4.80547 15.1181 4.89667L12.7708 6.26267C12.9118 6.60818 13.0105 6.96947 13.0648 7.33867L15.7774 7.33333C15.9542 7.33333 16.1238 7.40357 16.2488 7.52859C16.3739 7.65362 16.4441 7.82319 16.4441 8C16.4441 8.17681 16.3739 8.34638 16.2488 8.4714C16.1238 8.59643 15.9542 8.66667 15.7774 8.66667H13.0588C12.7393 8.66555 12.4309 8.54978 12.1896 8.34044C11.9484 8.13109 11.7902 7.84208 11.7441 7.526C11.6221 6.7383 11.2224 6.02022 10.6172 5.50151C10.012 4.98281 9.24117 4.69769 8.44409 4.69769C7.64701 4.69769 6.87621 4.98281 6.271 5.50151C5.66578 6.02022 5.26607 6.7383 5.14409 7.526C5.09795 7.84197 4.93995 8.13089 4.69881 8.34022C4.45767 8.54955 4.14941 8.66539 3.83009 8.66667H1.11076C0.933947 8.66667 0.764378 8.59643 0.639353 8.4714C0.514329 8.34638 0.444091 8.17681 0.444091 8ZM16.2734 11.0433C16.1553 10.9118 15.9898 10.8326 15.8133 10.8231C15.6367 10.8136 15.4636 10.8746 15.3321 10.9927C15.1564 11.1331 14.951 11.2316 14.7315 11.2805C14.512 11.3295 14.2842 11.3276 14.0655 11.275C13.8468 11.2225 13.643 11.1206 13.4697 10.9773C13.2964 10.834 13.1581 10.6529 13.0654 10.448C13.0343 10.3538 12.9821 10.268 12.9127 10.1971C12.8434 10.1262 12.7588 10.072 12.6654 10.0387C12.4989 9.97995 12.3158 9.98972 12.1564 10.0658C11.9971 10.142 11.8744 10.2782 11.8154 10.4447C11.6918 10.7048 11.497 10.9247 11.2536 11.0787C11.0102 11.2327 10.7282 11.3147 10.4401 11.315C10.1521 11.3154 9.86985 11.2341 9.62609 11.0807C9.38232 10.9272 9.187 10.7079 9.06276 10.448C9.03152 10.3538 8.97927 10.268 8.90998 10.1969C8.84068 10.1259 8.75615 10.0716 8.66276 10.038C8.5802 10.0088 8.49271 9.99623 8.40528 10.0009C8.31784 10.0055 8.23219 10.0274 8.15319 10.0651C8.0742 10.1029 8.00342 10.1559 7.94489 10.221C7.88637 10.2861 7.84124 10.3621 7.81209 10.4447C7.6884 10.7047 7.49363 10.9243 7.2503 11.0782C7.00698 11.2321 6.72505 11.314 6.43714 11.3143C6.14923 11.3147 5.86711 11.2335 5.62341 11.0802C5.37972 10.9269 5.18441 10.7077 5.06009 10.448C5.02885 10.3538 4.97661 10.268 4.90731 10.1969C4.83802 10.1259 4.75348 10.0716 4.66009 10.038C4.57753 10.0088 4.49004 9.99623 4.40261 10.0009C4.31518 10.0055 4.22952 10.0274 4.15053 10.0651C4.07153 10.1029 4.00075 10.1559 3.94223 10.221C3.8837 10.2861 3.83857 10.3621 3.80942 10.4447C3.71826 10.65 3.58116 10.8316 3.40868 10.9756C3.23621 11.1195 3.03297 11.2219 2.81466 11.2748C2.59634 11.3278 2.36878 11.3299 2.14953 11.281C1.93027 11.232 1.72519 11.1334 1.55009 10.9927C1.41653 10.8903 1.24921 10.8423 1.0817 10.8582C0.914184 10.8741 0.758875 10.9527 0.646926 11.0783C0.534976 11.2039 0.474667 11.3672 0.478098 11.5355C0.481529 11.7037 0.548446 11.8644 0.665425 11.9853C1.19733 12.442 1.88202 12.6811 2.58258 12.6548C3.28315 12.6284 3.94796 12.3386 4.44409 11.8433C4.9804 12.3626 5.69762 12.6529 6.44409 12.6529C7.19057 12.6529 7.90778 12.3626 8.44409 11.8433C8.98032 12.3627 9.69757 12.6531 10.4441 12.6531C11.1906 12.6531 11.9079 12.3627 12.4441 11.8433C12.9401 12.3387 13.6049 12.6286 14.3055 12.6551C15.006 12.6815 15.6908 12.4426 16.2228 11.986C16.2881 11.9275 16.3412 11.8567 16.3791 11.7776C16.417 11.6985 16.439 11.6127 16.4437 11.5252C16.4484 11.4376 16.4358 11.35 16.4066 11.2673C16.3773 11.1846 16.3321 11.1085 16.2734 11.0433ZM16.2734 14.3767C16.1553 14.2451 15.9898 14.1659 15.8133 14.1564C15.6367 14.1469 15.4636 14.2079 15.3321 14.326C15.1564 14.4665 14.951 14.5649 14.7315 14.6138C14.512 14.6628 14.2842 14.6609 14.0655 14.6084C13.8468 14.5558 13.643 14.454 13.4697 14.3106C13.2964 14.1673 13.1581 13.9863 13.0654 13.7813C13.0343 13.6872 12.9821 13.6014 12.9127 13.5304C12.8434 13.4595 12.7588 13.4053 12.6654 13.372C12.4989 13.3133 12.3158 13.3231 12.1564 13.3992C11.9971 13.4753 11.8744 13.6115 11.8154 13.778C11.6915 14.038 11.4964 14.2576 11.2529 14.4113C11.0093 14.5651 10.7271 14.6467 10.4391 14.6467C10.1511 14.6467 9.8689 14.5651 9.62532 14.4113C9.38174 14.2576 9.18669 14.038 9.06276 13.778C9.03152 13.6838 8.97927 13.598 8.90998 13.5269C8.84068 13.4559 8.75615 13.4016 8.66276 13.368C8.5802 13.3388 8.49271 13.3262 8.40528 13.3309C8.31784 13.3355 8.23219 13.3574 8.15319 13.3951C8.0742 13.4329 8.00342 13.4859 7.94489 13.551C7.88637 13.6161 7.84124 13.6921 7.81209 13.7747C7.68809 14.0345 7.49305 14.2539 7.24954 14.4075C7.00603 14.5611 6.724 14.6426 6.43609 14.6426C6.14818 14.6426 5.86616 14.5611 5.62265 14.4075C5.37914 14.2539 5.1841 14.0345 5.06009 13.7747C5.02885 13.6805 4.97661 13.5946 4.90731 13.5236C4.83802 13.4526 4.75348 13.3982 4.66009 13.3647C4.57753 13.3355 4.49004 13.3229 4.40261 13.3276C4.31518 13.3322 4.22952 13.354 4.15053 13.3918C4.07153 13.4296 4.00075 13.4825 3.94223 13.5476C3.8837 13.6128 3.83857 13.6888 3.80942 13.7713C3.71826 13.9767 3.58116 14.1583 3.40868 14.3022C3.23621 14.4462 3.03297 14.5486 2.81466 14.6015C2.59634 14.6545 2.36878 14.6566 2.14953 14.6076C1.93027 14.5587 1.72519 14.4601 1.55009 14.3193C1.41757 14.202 1.24388 14.1422 1.06722 14.1529C0.890558 14.1637 0.725405 14.2441 0.608091 14.3767C0.490777 14.5092 0.430911 14.6829 0.441663 14.8595C0.452415 15.0362 0.532905 15.2014 0.665425 15.3187C1.19733 15.7753 1.88202 16.0144 2.58258 15.9881C3.28315 15.9618 3.94796 15.672 4.44409 15.1767C4.9804 15.6959 5.69762 15.9862 6.44409 15.9862C7.19057 15.9862 7.90778 15.6959 8.44409 15.1767C8.98032 15.696 9.69757 15.9865 10.4441 15.9865C11.1906 15.9865 11.9079 15.696 12.4441 15.1767C12.9401 15.6721 13.6049 15.962 14.3055 15.9884C15.006 16.0149 15.6908 15.7759 16.2228 15.3193C16.2881 15.2608 16.3412 15.19 16.3791 15.1109C16.417 15.0319 16.439 14.9461 16.4437 14.8585C16.4484 14.7709 16.4358 14.6833 16.4066 14.6006C16.3773 14.5179 16.3321 14.4418 16.2734 14.3767Z" fill="black"/>
</g>
<defs>
<clipPath id="clip0_483_13866">
<rect width="16" height="16" fill="white" transform="translate(0.444336)"/>
</clipPath>
</defs>
</svg>
