<svg width="17" height="16" viewBox="0 0 17 16" fill="none" xmlns="http://www.w3.org/2000/svg">
<g clip-path="url(#clip0_483_13859)">
<path d="M8.667 0C7.08475 0 5.53803 0.469192 4.22243 1.34824C2.90684 2.22729 1.88146 3.47672 1.27596 4.93853C0.670458 6.40034 0.512032 8.00887 0.820714 9.56072C1.1294 11.1126 1.89132 12.538 3.01014 13.6569C4.12896 14.7757 5.55443 15.5376 7.10627 15.8463C8.65812 16.155 10.2667 15.9965 11.7285 15.391C13.1903 14.7855 14.4397 13.7602 15.3188 12.4446C16.1978 11.129 16.667 9.58225 16.667 8C16.6647 5.87897 15.8211 3.84547 14.3213 2.34568C12.8215 0.845886 10.788 0.00229405 8.667 0V0ZM14.4317 4.66667H12.2843C11.8036 3.55266 11.1707 2.51072 10.4037 1.57067C12.1013 2.03262 13.5485 3.14498 14.4317 4.66667ZM11.667 8C11.6615 8.67876 11.5546 9.35288 11.3497 10H5.98433C5.77943 9.35288 5.67247 8.67876 5.667 8C5.67247 7.32124 5.77943 6.64712 5.98433 6H11.3497C11.5546 6.64712 11.6615 7.32124 11.667 8ZM6.519 11.3333H10.815C10.2492 12.4505 9.52577 13.4806 8.667 14.392C7.80791 13.4808 7.08449 12.4507 6.519 11.3333ZM6.519 4.66667C7.08484 3.54952 7.80823 2.51944 8.667 1.608C9.52608 2.51918 10.2495 3.54931 10.815 4.66667H6.519ZM6.93366 1.57067C6.16544 2.51052 5.53139 3.55247 5.04966 4.66667H2.90233C3.78623 3.14429 5.23477 2.03184 6.93366 1.57067ZM2.30766 6H4.60033C4.4275 6.65276 4.3379 7.32476 4.33366 8C4.3379 8.67524 4.4275 9.34724 4.60033 10H2.30766C1.89789 8.69815 1.89789 7.30185 2.30766 6ZM2.90233 11.3333H5.04966C5.53139 12.4475 6.16544 13.4895 6.93366 14.4293C5.23477 13.9682 3.78623 12.8557 2.90233 11.3333ZM10.4037 14.4293C11.1707 13.4893 11.8036 12.4473 12.2843 11.3333H14.4317C13.5485 12.855 12.1013 13.9674 10.4037 14.4293ZM15.0263 10H12.7337C12.9065 9.34724 12.9961 8.67524 13.0003 8C12.9961 7.32476 12.9065 6.65276 12.7337 6H15.025C15.4348 7.30185 15.4348 8.69815 15.025 10H15.0263Z" fill="black"/>
</g>
<defs>
<clipPath id="clip0_483_13859">
<rect width="16" height="16" fill="white" transform="translate(0.666992)"/>
</clipPath>
</defs>
</svg>
