<svg width="17" height="16" viewBox="0 0 17 16" fill="none" xmlns="http://www.w3.org/2000/svg">
<g clip-path="url(#clip0_483_13604)">
<path d="M9.22201 13.3333C10.1057 13.3323 10.953 12.9808 11.5779 12.3559C12.2028 11.731 12.5543 10.8837 12.5553 10V4.16201C12.5564 3.81158 12.4878 3.46444 12.3537 3.14069C12.2196 2.81694 12.0226 2.52304 11.774 2.27601L10.2793 0.781345C10.0323 0.532794 9.73841 0.335747 9.41466 0.201625C9.09091 0.0675033 8.74377 -0.0010253 8.39334 1.15931e-05H5.22201C4.33828 0.00107016 3.49104 0.3526 2.86615 0.977492C2.24126 1.60238 1.88973 2.44961 1.88867 3.33334V10C1.88973 10.8837 2.24126 11.731 2.86615 12.3559C3.49104 12.9808 4.33828 13.3323 5.22201 13.3333H9.22201ZM3.22201 10V3.33334C3.22201 2.80291 3.43272 2.2942 3.80779 1.91913C4.18286 1.54406 4.69157 1.33334 5.22201 1.33334C5.22201 1.33334 8.50134 1.34268 8.55534 1.34934V2.66668C8.55534 3.0203 8.69581 3.35944 8.94586 3.60949C9.19591 3.85954 9.53505 4.00001 9.88867 4.00001H11.206C11.2127 4.05401 11.222 10 11.222 10C11.222 10.5304 11.0113 11.0392 10.6362 11.4142C10.2611 11.7893 9.75244 12 9.22201 12H5.22201C4.69157 12 4.18286 11.7893 3.80779 11.4142C3.43272 11.0392 3.22201 10.5304 3.22201 10ZM15.222 5.33334V12.6667C15.2209 13.5504 14.8694 14.3976 14.2445 15.0225C13.6196 15.6474 12.7724 15.999 11.8887 16H5.88867C5.71186 16 5.54229 15.9298 5.41727 15.8048C5.29224 15.6797 5.22201 15.5102 5.22201 15.3333C5.22201 15.1565 5.29224 14.987 5.41727 14.8619C5.54229 14.7369 5.71186 14.6667 5.88867 14.6667H11.8887C12.4191 14.6667 12.9278 14.456 13.3029 14.0809C13.678 13.7058 13.8887 13.1971 13.8887 12.6667V5.33334C13.8887 5.15653 13.9589 4.98696 14.0839 4.86194C14.209 4.73692 14.3785 4.66668 14.5553 4.66668C14.7322 4.66668 14.9017 4.73692 15.0267 4.86194C15.1518 4.98696 15.222 5.15653 15.222 5.33334Z" fill="black"/>
</g>
<defs>
<clipPath id="clip0_483_13604">
<rect width="16" height="16" fill="white" transform="translate(0.555664)"/>
</clipPath>
</defs>
</svg>
