<svg width="17" height="16" viewBox="0 0 17 16" fill="none" xmlns="http://www.w3.org/2000/svg">
<path d="M14.6667 14.6667H5.256C5.7706 13.8747 6.03025 12.944 6 12V9.33333H10.6667C10.8435 9.33333 11.013 9.2631 11.1381 9.13807C11.2631 9.01305 11.3333 8.84348 11.3333 8.66667C11.3333 8.48986 11.2631 8.32029 11.1381 8.19526C11.013 8.07024 10.8435 8 10.6667 8H6V5.33333C6 4.27247 6.42143 3.25505 7.17157 2.50491C7.92172 1.75476 8.93913 1.33333 10 1.33333C11.0609 1.33333 12.0783 1.75476 12.8284 2.50491C13.5786 3.25505 14 4.27247 14 5.33333C14 5.51014 14.0702 5.67971 14.1953 5.80474C14.3203 5.92976 14.4899 6 14.6667 6C14.8435 6 15.013 5.92976 15.1381 5.80474C15.2631 5.67971 15.3333 5.51014 15.3333 5.33333C15.3333 3.91885 14.7714 2.56229 13.7712 1.5621C12.771 0.561903 11.4145 0 10 0C8.58551 0 7.22896 0.561903 6.22876 1.5621C5.22857 2.56229 4.66667 3.91885 4.66667 5.33333V8H3.33333C3.15652 8 2.98695 8.07024 2.86193 8.19526C2.7369 8.32029 2.66667 8.48986 2.66667 8.66667C2.66667 8.84348 2.7369 9.01305 2.86193 9.13807C2.98695 9.2631 3.15652 9.33333 3.33333 9.33333H4.66667V12C4.66667 12.8 4.472 14.6667 2.66667 14.6667C2.48986 14.6667 2.32029 14.7369 2.19526 14.8619C2.07024 14.987 2 15.1565 2 15.3333C2 15.5101 2.07024 15.6797 2.19526 15.8047C2.32029 15.9298 2.48986 16 2.66667 16H14.6667C14.8435 16 15.013 15.9298 15.1381 15.8047C15.2631 15.6797 15.3333 15.5101 15.3333 15.3333C15.3333 15.1565 15.2631 14.987 15.1381 14.8619C15.013 14.7369 14.8435 14.6667 14.6667 14.6667Z" fill="black"/>
</svg>
