<svg width="17" height="16" viewBox="0 0 17 16" fill="none" xmlns="http://www.w3.org/2000/svg">
<g clip-path="url(#clip0_483_13863)">
<path d="M12.1107 0C11.9339 0 11.7643 0.0702379 11.6393 0.195262C11.5142 0.320286 11.444 0.489856 11.444 0.666667C11.444 2.63267 9.72201 3.33333 8.11068 3.33333H3.44401C2.73677 3.33333 2.05849 3.61428 1.55839 4.11438C1.0583 4.61448 0.777344 5.29276 0.777344 6L0.777344 7.33333C0.7788 7.73249 0.870318 8.12618 1.04508 8.48505C1.21984 8.84392 1.47334 9.15872 1.78668 9.406L4.16801 14.7207C4.33737 15.1014 4.61346 15.4249 4.96286 15.6519C5.31226 15.879 5.71998 15.9999 6.13668 16C6.46822 15.9998 6.79444 15.9167 7.08565 15.7582C7.37687 15.5997 7.62382 15.3709 7.80404 15.0926C7.98426 14.8144 8.09202 14.4954 8.11752 14.1649C8.14301 13.8343 8.08543 13.5026 7.95001 13.2L6.48334 10H8.11068C9.72201 10 11.444 10.7007 11.444 12.6667C11.444 12.8435 11.5142 13.013 11.6393 13.1381C11.7643 13.2631 11.9339 13.3333 12.1107 13.3333C12.2875 13.3333 12.4571 13.2631 12.5821 13.1381C12.7071 13.013 12.7773 12.8435 12.7773 12.6667V0.666667C12.7773 0.489856 12.7071 0.320286 12.5821 0.195262C12.4571 0.0702379 12.2875 0 12.1107 0V0ZM6.73534 13.746C6.7795 13.8457 6.79807 13.9549 6.78937 14.0636C6.78067 14.1723 6.74498 14.2771 6.68552 14.3686C6.62607 14.46 6.54474 14.5352 6.4489 14.5872C6.35306 14.6393 6.24574 14.6666 6.13668 14.6667C5.97761 14.6666 5.82199 14.6203 5.68873 14.5334C5.55548 14.4465 5.45031 14.3228 5.38601 14.1773L3.51401 10H5.01668L6.73534 13.746ZM11.444 9.73333C10.4915 8.99946 9.31225 8.62209 8.11068 8.66667H3.44401C3.09039 8.66667 2.75125 8.52619 2.5012 8.27614C2.25115 8.02609 2.11068 7.68696 2.11068 7.33333V6C2.11068 5.64638 2.25115 5.30724 2.5012 5.05719C2.75125 4.80714 3.09039 4.66667 3.44401 4.66667H8.11068C9.31185 4.7122 10.4911 4.33602 11.444 3.60333V9.73333ZM16.7107 10.3013C16.6716 10.3797 16.6174 10.4496 16.5513 10.5071C16.4851 10.5645 16.4083 10.6083 16.3252 10.6361C16.2422 10.6638 16.1544 10.6749 16.067 10.6687C15.9797 10.6625 15.8944 10.6392 15.816 10.6L14.4827 9.93333C14.3244 9.8543 14.2041 9.71564 14.1481 9.54786C14.092 9.38007 14.105 9.19691 14.184 9.03867C14.263 8.88042 14.4017 8.76005 14.5695 8.70404C14.7373 8.64803 14.9204 8.66097 15.0787 8.74L16.412 9.40667C16.5694 9.48565 16.6892 9.62373 16.7452 9.79073C16.8011 9.95774 16.7887 10.1401 16.7107 10.298V10.3013ZM14.184 4.30133C14.1448 4.22299 14.1215 4.13769 14.1153 4.05031C14.1091 3.96293 14.1202 3.8752 14.1479 3.79211C14.1757 3.70902 14.2195 3.63221 14.277 3.56608C14.3344 3.49994 14.4043 3.44577 14.4827 3.40667L15.816 2.74C15.9743 2.66097 16.1574 2.64803 16.3252 2.70404C16.493 2.76005 16.6316 2.88042 16.7107 3.03867C16.7897 3.19691 16.8026 3.38007 16.7466 3.54786C16.6906 3.71564 16.5703 3.8543 16.412 3.93333L15.0787 4.6C15.0003 4.63917 14.915 4.66252 14.8277 4.66871C14.7403 4.6749 14.6525 4.6638 14.5695 4.63607C14.4864 4.60833 14.4096 4.56449 14.3434 4.50706C14.2773 4.44962 14.2231 4.37971 14.184 4.30133ZM14.1107 6.66667C14.1107 6.48986 14.1809 6.32029 14.3059 6.19526C14.431 6.07024 14.6005 6 14.7773 6H16.1107C16.2875 6 16.4571 6.07024 16.5821 6.19526C16.7071 6.32029 16.7773 6.48986 16.7773 6.66667C16.7773 6.84348 16.7071 7.01305 16.5821 7.13807C16.4571 7.2631 16.2875 7.33333 16.1107 7.33333H14.7773C14.6005 7.33333 14.431 7.2631 14.3059 7.13807C14.1809 7.01305 14.1107 6.84348 14.1107 6.66667Z" fill="black"/>
</g>
<defs>
<clipPath id="clip0_483_13863">
<rect width="16" height="16" fill="white" transform="translate(0.777344)"/>
</clipPath>
</defs>
</svg>
