<svg width="17" height="16" viewBox="0 0 17 16" fill="none" xmlns="http://www.w3.org/2000/svg">
<g clip-path="url(#clip0_482_17979)">
<path d="M15.1952 8.46673L14.4712 9.19073L12.0812 6.80006C11.7001 6.43661 11.1938 6.23384 10.6672 6.23384C10.1406 6.23384 9.63423 6.43661 9.25318 6.80006L9.13785 6.91539C9.01094 7.03675 8.84211 7.10447 8.66652 7.10447C8.49092 7.10447 8.3221 7.03675 8.19518 6.91539L4.81318 3.52939C4.75169 3.46572 4.67812 3.41493 4.59679 3.37999C4.51545 3.34505 4.42797 3.32666 4.33945 3.32589C4.25093 3.32512 4.16315 3.34199 4.08121 3.37551C3.99928 3.40903 3.92485 3.45853 3.86225 3.52113C3.79966 3.58372 3.75016 3.65816 3.71664 3.74009C3.68312 3.82202 3.66625 3.90981 3.66702 3.99833C3.66779 4.08685 3.68618 4.17433 3.72112 4.25566C3.75606 4.337 3.80684 4.41056 3.87052 4.47206L7.25185 7.85406C7.63282 8.21766 8.13921 8.42054 8.66585 8.42054C9.19249 8.42054 9.69888 8.21766 10.0799 7.85406L10.1952 7.73873C10.3221 7.61737 10.4909 7.54964 10.6665 7.54964C10.8421 7.54964 11.0109 7.61737 11.1379 7.73873L13.5285 10.1334L12.8045 10.8574C12.7113 10.9506 12.6478 11.0694 12.6221 11.1987C12.5964 11.328 12.6096 11.462 12.6601 11.5838C12.7105 11.7056 12.7959 11.8097 12.9055 11.883C13.0152 11.9563 13.144 11.9954 13.2759 11.9954H15.3332C15.5984 11.9954 15.8528 11.89 16.0403 11.7025C16.2278 11.515 16.3332 11.2606 16.3332 10.9954V8.93339C16.3322 8.80196 16.2925 8.67373 16.2189 8.56484C16.1452 8.45594 16.0411 8.37124 15.9195 8.32137C15.7979 8.2715 15.6642 8.25869 15.5354 8.28455C15.4065 8.31041 15.2881 8.37379 15.1952 8.46673Z" fill="black"/>
<path d="M15.6663 14.6507H3.66634C3.13591 14.6507 2.6272 14.44 2.25213 14.0649C1.87705 13.6898 1.66634 13.1811 1.66634 12.6507V0.666667C1.66634 0.489856 1.5961 0.320286 1.47108 0.195262C1.34605 0.0702379 1.17649 0 0.999674 0C0.822863 0 0.653294 0.0702379 0.52827 0.195262C0.403246 0.320286 0.333008 0.489856 0.333008 0.666667L0.333008 12.6507C0.334066 13.5344 0.685596 14.3816 1.31049 15.0065C1.93538 15.6314 2.78261 15.9829 3.66634 15.984H15.6663C15.8432 15.984 16.0127 15.9138 16.1377 15.7887C16.2628 15.6637 16.333 15.4941 16.333 15.3173C16.333 15.1405 16.2628 14.971 16.1377 14.8459C16.0127 14.7209 15.8432 14.6507 15.6663 14.6507Z" fill="black"/>
</g>
<defs>
<clipPath id="clip0_482_17979">
<rect width="16" height="16" fill="white" transform="translate(0.333008)"/>
</clipPath>
</defs>
</svg>
