<svg width="17" height="16" viewBox="0 0 17 16" fill="none" xmlns="http://www.w3.org/2000/svg">
<g clip-path="url(#clip0_483_13829)">
<path d="M12.778 5.33333H11.4447V3.33333C11.4447 2.44928 11.0935 1.60143 10.4684 0.976311C9.84323 0.351189 8.99538 0 8.11133 0C7.22727 0 6.37943 0.351189 5.75431 0.976311C5.12918 1.60143 4.778 2.44928 4.778 3.33333V5.33333H3.44466C2.56093 5.33439 1.7137 5.68592 1.08881 6.31081C0.463916 6.93571 0.112387 7.78294 0.111328 8.66667L0.111328 11.3333C0.11218 11.9812 0.301798 12.6147 0.656994 13.1565C1.01219 13.6983 1.51757 14.1249 2.11133 14.384V15.3333C2.11133 15.5101 2.18157 15.6797 2.30659 15.8047C2.43161 15.9298 2.60118 16 2.77799 16C2.95481 16 3.12438 15.9298 3.2494 15.8047C3.37442 15.6797 3.44466 15.5101 3.44466 15.3333V14.6667H12.778V15.3333C12.778 15.5101 12.8482 15.6797 12.9733 15.8047C13.0983 15.9298 13.2679 16 13.4447 16C13.6215 16 13.791 15.9298 13.9161 15.8047C14.0411 15.6797 14.1113 15.5101 14.1113 15.3333V14.384C14.7051 14.1249 15.2105 13.6983 15.5657 13.1565C15.9209 12.6147 16.1105 11.9812 16.1113 11.3333V8.66667C16.1103 7.78294 15.7587 6.93571 15.1338 6.31081C14.509 5.68592 13.6617 5.33439 12.778 5.33333ZM6.11133 3.33333C6.11133 2.8029 6.32204 2.29419 6.69711 1.91912C7.07219 1.54405 7.5809 1.33333 8.11133 1.33333C8.64176 1.33333 9.15047 1.54405 9.52554 1.91912C9.90061 2.29419 10.1113 2.8029 10.1113 3.33333V5.33333H6.11133V3.33333ZM14.778 11.3333C14.778 11.8638 14.5673 12.3725 14.1922 12.7475C13.8171 13.1226 13.3084 13.3333 12.778 13.3333H3.44466C2.91423 13.3333 2.40552 13.1226 2.03045 12.7475C1.65538 12.3725 1.44466 11.8638 1.44466 11.3333V8.66667C1.44466 8.13623 1.65538 7.62753 2.03045 7.25245C2.40552 6.87738 2.91423 6.66667 3.44466 6.66667H12.778C13.3084 6.66667 13.8171 6.87738 14.1922 7.25245C14.5673 7.62753 14.778 8.13623 14.778 8.66667V11.3333ZM11.4447 8.66667C11.4447 8.84348 11.3744 9.01305 11.2494 9.13807C11.1244 9.2631 10.9548 9.33333 10.778 9.33333H5.44466C5.26785 9.33333 5.09828 9.2631 4.97326 9.13807C4.84823 9.01305 4.778 8.84348 4.778 8.66667C4.778 8.48986 4.84823 8.32029 4.97326 8.19526C5.09828 8.07024 5.26785 8 5.44466 8H10.778C10.9548 8 11.1244 8.07024 11.2494 8.19526C11.3744 8.32029 11.4447 8.48986 11.4447 8.66667Z" fill="black"/>
</g>
<defs>
<clipPath id="clip0_483_13829">
<rect width="16" height="16" fill="white" transform="translate(0.111328)"/>
</clipPath>
</defs>
</svg>
