<svg width="17" height="16" viewBox="0 0 17 16" fill="none" xmlns="http://www.w3.org/2000/svg">
<g clip-path="url(#clip0_482_18119)">
<path d="M6.11133 7.99996C6.90245 7.99996 7.67581 7.76536 8.33361 7.32583C8.99141 6.88631 9.5041 6.26159 9.80685 5.53069C10.1096 4.79979 10.1888 3.99552 10.0345 3.21959C9.88013 2.44367 9.49917 1.73094 8.93976 1.17153C8.38035 0.612119 7.66761 0.231156 6.89169 0.0768149C6.11577 -0.077526 5.3115 0.00168737 4.58059 0.304438C3.84969 0.607188 3.22498 1.11988 2.78545 1.77768C2.34592 2.43547 2.11133 3.20883 2.11133 3.99996C2.11239 5.0605 2.53415 6.0773 3.28407 6.82721C4.03399 7.57713 5.05079 7.9989 6.11133 7.99996ZM6.11133 1.33329C6.63875 1.33329 7.15432 1.48969 7.59285 1.7827C8.03138 2.07572 8.37317 2.4922 8.57501 2.97947C8.77684 3.46674 8.82965 4.00291 8.72676 4.5202C8.62386 5.03748 8.36989 5.51263 7.99695 5.88557C7.62401 6.25851 7.14885 6.51249 6.63157 6.61538C6.11429 6.71828 5.57811 6.66547 5.09084 6.46364C4.60357 6.2618 4.18709 5.92001 3.89408 5.48148C3.60106 5.04295 3.44466 4.52737 3.44466 3.99996C3.44466 3.29271 3.72561 2.61443 4.22571 2.11434C4.72581 1.61424 5.40408 1.33329 6.11133 1.33329Z" fill="black"/>
<path d="M6.11133 9.33311C4.52063 9.33506 2.99563 9.96782 1.87083 11.0926C0.746033 12.2174 0.113269 13.7424 0.111328 15.3331C0.111328 15.5099 0.181566 15.6795 0.30659 15.8045C0.431615 15.9295 0.601184 15.9998 0.777995 15.9998C0.954806 15.9998 1.12438 15.9295 1.2494 15.8045C1.37442 15.6795 1.44466 15.5099 1.44466 15.3331C1.44466 14.0954 1.93633 12.9084 2.8115 12.0333C3.68667 11.1581 4.87365 10.6664 6.11133 10.6664C7.34901 10.6664 8.53599 11.1581 9.41116 12.0333C10.2863 12.9084 10.778 14.0954 10.778 15.3331C10.778 15.5099 10.8482 15.6795 10.9733 15.8045C11.0983 15.9295 11.2679 15.9998 11.4447 15.9998C11.6215 15.9998 11.791 15.9295 11.9161 15.8045C12.0411 15.6795 12.1113 15.5099 12.1113 15.3331C12.1094 13.7424 11.4766 12.2174 10.3518 11.0926C9.22703 9.96782 7.70203 9.33506 6.11133 9.33311Z" fill="black"/>
<path d="M14.7778 5.25C14.4068 5.26848 14.0582 5.43318 13.8083 5.70805C13.5584 5.98291 13.4276 6.34557 13.4445 6.71667C13.4613 6.34557 13.3305 5.98291 13.0806 5.70805C12.8307 5.43318 12.4822 5.26848 12.1111 5.25C11.7401 5.26848 11.3915 5.43318 11.1417 5.70805C10.8918 5.98291 10.761 6.34557 10.7778 6.71667C10.7778 7.87 12.2818 9.22133 13.0311 9.82267C13.1484 9.91658 13.2942 9.96775 13.4445 9.96775C13.5947 9.96775 13.7405 9.91658 13.8578 9.82267C14.6071 9.22267 16.1111 7.87 16.1111 6.71667C16.128 6.34557 15.9972 5.98291 15.7473 5.70805C15.4974 5.43318 15.1488 5.26848 14.7778 5.25Z" fill="black"/>
</g>
<defs>
<clipPath id="clip0_482_18119">
<rect width="16" height="16" fill="white" transform="translate(0.111328)"/>
</clipPath>
</defs>
</svg>
