<svg width="17" height="16" viewBox="0 0 17 16" fill="none" xmlns="http://www.w3.org/2000/svg">
<g clip-path="url(#clip0_483_13795)">
<path d="M13.2223 0.66687H9.22233C8.3386 0.667929 7.49137 1.01946 6.86648 1.64435C6.24159 2.26924 5.89006 3.11647 5.889 4.0002V9.35087C5.31541 8.90967 4.61265 8.66932 3.889 8.66687C3.22973 8.66687 2.58526 8.86237 2.0371 9.22864C1.48893 9.59491 1.06169 10.1155 0.8094 10.7246C0.557108 11.3337 0.491097 12.0039 0.619715 12.6505C0.748332 13.2971 1.0658 13.8911 1.53198 14.3572C1.99815 14.8234 2.59209 15.1409 3.2387 15.2695C3.8853 15.3981 4.55552 15.3321 5.16461 15.0798C5.7737 14.8275 6.29429 14.4003 6.66056 13.8521C7.02684 13.3039 7.22233 12.6595 7.22233 12.0002V4.0002C7.22233 3.46977 7.43305 2.96106 7.80812 2.58599C8.18319 2.21092 8.6919 2.0002 9.22233 2.0002H13.2223C13.7528 2.0002 14.2615 2.21092 14.6365 2.58599C15.0116 2.96106 15.2223 3.46977 15.2223 4.0002V9.35087C14.6487 8.90967 13.946 8.66932 13.2223 8.66687C12.5631 8.66687 11.9186 8.86237 11.3704 9.22864C10.8223 9.59491 10.395 10.1155 10.1427 10.7246C9.89044 11.3337 9.82443 12.0039 9.95305 12.6505C10.0817 13.2971 10.3991 13.8911 10.8653 14.3572C11.3315 14.8234 11.9254 15.1409 12.572 15.2695C13.2186 15.3981 13.8889 15.3321 14.4979 15.0798C15.107 14.8275 15.6276 14.4003 15.9939 13.8521C16.3602 13.3039 16.5557 12.6595 16.5557 12.0002V4.0002C16.5546 3.11647 16.2031 2.26924 15.5782 1.64435C14.9533 1.01946 14.1061 0.667929 13.2223 0.66687ZM3.889 14.0002C3.49344 14.0002 3.10676 13.8829 2.77786 13.6631C2.44896 13.4434 2.19262 13.131 2.04124 12.7656C1.88986 12.4001 1.85026 11.998 1.92743 11.61C2.0046 11.2221 2.19508 10.8657 2.47479 10.586C2.75449 10.3063 3.11086 10.1158 3.49882 10.0386C3.88678 9.96146 4.28891 10.0011 4.65437 10.1524C5.01982 10.3038 5.33218 10.5602 5.55194 10.8891C5.7717 11.218 5.889 11.6046 5.889 12.0002C5.889 12.5306 5.67829 13.0393 5.30321 13.4144C4.92814 13.7895 4.41943 14.0002 3.889 14.0002ZM13.2223 14.0002C12.8268 14.0002 12.4401 13.8829 12.1112 13.6631C11.7823 13.4434 11.5259 13.131 11.3746 12.7656C11.2232 12.4001 11.1836 11.998 11.2608 11.61C11.3379 11.2221 11.5284 10.8657 11.8081 10.586C12.0878 10.3063 12.4442 10.1158 12.8322 10.0386C13.2201 9.96146 13.6222 10.0011 13.9877 10.1524C14.3532 10.3038 14.6655 10.5602 14.8853 10.8891C15.105 11.218 15.2223 11.6046 15.2223 12.0002C15.2223 12.5306 15.0116 13.0393 14.6365 13.4144C14.2615 13.7895 13.7528 14.0002 13.2223 14.0002Z" fill="black"/>
</g>
<defs>
<clipPath id="clip0_483_13795">
<rect width="16" height="16" fill="white" transform="translate(0.555664)"/>
</clipPath>
</defs>
</svg>
