<svg width="17" height="16" viewBox="0 0 17 16" fill="none" xmlns="http://www.w3.org/2000/svg">
<g clip-path="url(#clip0_482_18009)">
<path d="M16.6537 1.34868V4.01534C16.6537 4.19215 16.5834 4.36172 16.4584 4.48675C16.3334 4.61177 16.1638 4.68201 15.987 4.68201C15.8102 4.68201 15.6406 4.61177 15.5156 4.48675C15.3906 4.36172 15.3203 4.19215 15.3203 4.01534V2.30668L11.787 5.82134C11.6609 5.94247 11.4923 6.00923 11.3175 6.00724C11.1427 6.00525 10.9757 5.93466 10.8524 5.81068C10.7291 5.68671 10.6595 5.51927 10.6585 5.34445C10.6575 5.16962 10.7252 5.00139 10.847 4.87601L14.3937 1.34868H12.6537C12.4769 1.34868 12.3073 1.27844 12.1823 1.15341C12.0573 1.02839 11.987 0.858819 11.987 0.682008C11.987 0.505197 12.0573 0.335628 12.1823 0.210604C12.3073 0.0855796 12.4769 0.0153417 12.6537 0.0153417H15.3203C15.674 0.0153417 16.0131 0.155818 16.2632 0.405866C16.5132 0.655915 16.6537 0.995053 16.6537 1.34868ZM16.0503 11.1747C16.4367 11.5621 16.6536 12.0869 16.6536 12.634C16.6536 13.1811 16.4367 13.7059 16.0503 14.0933L15.4423 14.7933C9.98168 20.0187 -3.30432 6.73668 1.84234 1.26001L2.60834 0.593342C2.99641 0.217856 3.51657 0.010049 4.05653 0.0147888C4.5965 0.0195286 5.11293 0.236435 5.49434 0.618675C5.51434 0.639342 6.74968 2.24468 6.74968 2.24468C7.11612 2.62964 7.32017 3.14099 7.31943 3.67248C7.31868 4.20397 7.1132 4.71474 6.74568 5.09867L5.97301 6.07001C6.40024 7.10808 7.02839 8.05151 7.82135 8.84607C8.61431 9.64064 9.55647 10.2707 10.5937 10.7L11.5703 9.92334C11.9542 9.55601 12.4649 9.35066 12.9962 9.34991C13.5275 9.34917 14.0387 9.55309 14.4237 9.91934C14.4237 9.91934 16.0297 11.1547 16.0503 11.1747ZM15.1337 12.144C15.1337 12.144 13.5383 10.916 13.5177 10.896C13.3803 10.7598 13.1948 10.6834 13.0013 10.6834C12.8079 10.6834 12.6224 10.7598 12.485 10.896C12.467 10.9133 11.1223 11.9853 11.1223 11.9853C11.0317 12.0575 10.9239 12.1047 10.8094 12.1225C10.695 12.1403 10.5779 12.1279 10.4697 12.0867C9.12515 11.5867 7.90393 10.8033 6.88891 9.78965C5.87389 8.77601 5.08883 7.55585 4.58701 6.21201C4.54311 6.10275 4.52893 5.98382 4.54591 5.86731C4.56289 5.75079 4.61042 5.64086 4.68368 5.54868C4.68368 5.54868 5.75501 4.20401 5.77301 4.18601C5.90919 4.04867 5.9856 3.86309 5.9856 3.66967C5.9856 3.47626 5.90919 3.29068 5.77301 3.15334C5.75301 3.13334 4.52501 1.53734 4.52501 1.53734C4.3857 1.41226 4.20381 1.3452 4.01664 1.34991C3.82947 1.35462 3.65119 1.43074 3.51834 1.56268L2.75234 2.22934C-1.01032 6.75068 10.505 17.628 14.467 13.884L15.075 13.184C15.2184 13.0525 15.3047 12.8702 15.3157 12.6759C15.3266 12.4817 15.2613 12.2908 15.1337 12.144Z" fill="black"/>
</g>
<defs>
<clipPath id="clip0_482_18009">
<rect width="16" height="16" fill="white" transform="translate(0.666992)"/>
</clipPath>
</defs>
</svg>
