<svg width="17" height="16" viewBox="0 0 17 16" fill="none" xmlns="http://www.w3.org/2000/svg">
<g clip-path="url(#clip0_482_18018)">
<path d="M12.8893 1.33333H12.2227V0.666667C12.2227 0.489856 12.1524 0.320286 12.0274 0.195262C11.9024 0.0702379 11.7328 0 11.556 0C11.3792 0 11.2096 0.0702379 11.0846 0.195262C10.9596 0.320286 10.8893 0.489856 10.8893 0.666667V1.33333H5.55599V0.666667C5.55599 0.489856 5.48575 0.320286 5.36073 0.195262C5.2357 0.0702379 5.06613 0 4.88932 0C4.71251 0 4.54294 0.0702379 4.41792 0.195262C4.29289 0.320286 4.22266 0.489856 4.22266 0.666667V1.33333H3.55599C2.67226 1.33439 1.82503 1.68592 1.20014 2.31081C0.575244 2.93571 0.223715 3.78294 0.222656 4.66667L0.222656 12.6667C0.223715 13.5504 0.575244 14.3976 1.20014 15.0225C1.82503 15.6474 2.67226 15.9989 3.55599 16H12.8893C13.7731 15.9989 14.6203 15.6474 15.2452 15.0225C15.8701 14.3976 16.2216 13.5504 16.2227 12.6667V4.66667C16.2216 3.78294 15.8701 2.93571 15.2452 2.31081C14.6203 1.68592 13.7731 1.33439 12.8893 1.33333ZM1.55599 4.66667C1.55599 4.13623 1.7667 3.62753 2.14178 3.25245C2.51685 2.87738 3.02556 2.66667 3.55599 2.66667H12.8893C13.4198 2.66667 13.9285 2.87738 14.3035 3.25245C14.6786 3.62753 14.8893 4.13623 14.8893 4.66667V5.33333H1.55599V4.66667ZM12.8893 14.6667H3.55599C3.02556 14.6667 2.51685 14.456 2.14178 14.0809C1.7667 13.7058 1.55599 13.1971 1.55599 12.6667V6.66667H14.8893V12.6667C14.8893 13.1971 14.6786 13.7058 14.3035 14.0809C13.9285 14.456 13.4198 14.6667 12.8893 14.6667Z" fill="black"/>
<path d="M8.22266 11C8.77494 11 9.22266 10.5523 9.22266 10C9.22266 9.44772 8.77494 9 8.22266 9C7.67037 9 7.22266 9.44772 7.22266 10C7.22266 10.5523 7.67037 11 8.22266 11Z" fill="black"/>
<path d="M4.88965 11C5.44193 11 5.88965 10.5523 5.88965 10C5.88965 9.44772 5.44193 9 4.88965 9C4.33736 9 3.88965 9.44772 3.88965 10C3.88965 10.5523 4.33736 11 4.88965 11Z" fill="black"/>
<path d="M11.5557 11C12.1079 11 12.5557 10.5523 12.5557 10C12.5557 9.44772 12.1079 9 11.5557 9C11.0034 9 10.5557 9.44772 10.5557 10C10.5557 10.5523 11.0034 11 11.5557 11Z" fill="black"/>
</g>
<defs>
<clipPath id="clip0_482_18018">
<rect width="16" height="16" fill="white" transform="translate(0.222656)"/>
</clipPath>
</defs>
</svg>
