<svg width="17" height="16" viewBox="0 0 17 16" fill="none" xmlns="http://www.w3.org/2000/svg">
<g clip-path="url(#clip0_483_13618)">
<path d="M13.6663 0H2.99967C2.29243 0 1.61415 0.280952 1.11406 0.781049C0.613959 1.28115 0.333008 1.95942 0.333008 2.66667L0.333008 10.6667C0.333008 11.3739 0.613959 12.0522 1.11406 12.5523C1.61415 13.0524 2.29243 13.3333 2.99967 13.3333H4.93301L7.90034 15.842C8.02072 15.9439 8.17331 15.9998 8.33101 15.9998C8.48871 15.9998 8.6413 15.9439 8.76167 15.842L11.733 13.3333H13.6663C14.3736 13.3333 15.0519 13.0524 15.552 12.5523C16.0521 12.0522 16.333 11.3739 16.333 10.6667V2.66667C16.333 1.95942 16.0521 1.28115 15.552 0.781049C15.0519 0.280952 14.3736 0 13.6663 0V0ZM14.9997 10.6667C14.9997 11.0203 14.8592 11.3594 14.6091 11.6095C14.3591 11.8595 14.02 12 13.6663 12H11.733C11.4179 12.0001 11.113 12.1118 10.8723 12.3153L8.33301 14.46L5.79501 12.3153C5.55405 12.1115 5.24861 11.9998 4.93301 12H2.99967C2.64605 12 2.30691 11.8595 2.05687 11.6095C1.80682 11.3594 1.66634 11.0203 1.66634 10.6667V2.66667C1.66634 2.31304 1.80682 1.97391 2.05687 1.72386C2.30691 1.47381 2.64605 1.33333 2.99967 1.33333H13.6663C14.02 1.33333 14.3591 1.47381 14.6091 1.72386C14.8592 1.97391 14.9997 2.31304 14.9997 2.66667V10.6667Z" fill="black"/>
<path d="M4.99967 4.66677H8.33301C8.50982 4.66677 8.67939 4.59653 8.80441 4.4715C8.92944 4.34648 8.99967 4.17691 8.99967 4.0001C8.99967 3.82329 8.92944 3.65372 8.80441 3.5287C8.67939 3.40367 8.50982 3.33344 8.33301 3.33344H4.99967C4.82286 3.33344 4.65329 3.40367 4.52827 3.5287C4.40325 3.65372 4.33301 3.82329 4.33301 4.0001C4.33301 4.17691 4.40325 4.34648 4.52827 4.4715C4.65329 4.59653 4.82286 4.66677 4.99967 4.66677Z" fill="black"/>
<path d="M11.6663 6H4.99967C4.82286 6 4.65329 6.07024 4.52827 6.19526C4.40325 6.32029 4.33301 6.48985 4.33301 6.66667C4.33301 6.84348 4.40325 7.01304 4.52827 7.13807C4.65329 7.26309 4.82286 7.33333 4.99967 7.33333H11.6663C11.8432 7.33333 12.0127 7.26309 12.1377 7.13807C12.2628 7.01304 12.333 6.84348 12.333 6.66667C12.333 6.48985 12.2628 6.32029 12.1377 6.19526C12.0127 6.07024 11.8432 6 11.6663 6Z" fill="black"/>
<path d="M11.6663 8.66656H4.99967C4.82286 8.66656 4.65329 8.7368 4.52827 8.86183C4.40325 8.98685 4.33301 9.15642 4.33301 9.33324C4.33301 9.51005 4.40325 9.67962 4.52827 9.80464C4.65329 9.92967 4.82286 9.99991 4.99967 9.99991H11.6663C11.8432 9.99991 12.0127 9.92967 12.1377 9.80464C12.2628 9.67962 12.333 9.51005 12.333 9.33324C12.333 9.15642 12.2628 8.98685 12.1377 8.86183C12.0127 8.7368 11.8432 8.66656 11.6663 8.66656Z" fill="black"/>
</g>
<defs>
<clipPath id="clip0_483_13618">
<rect width="16" height="16" fill="white" transform="translate(0.333008)"/>
</clipPath>
</defs>
</svg>
