<svg width="17" height="16" viewBox="0 0 17 16" fill="none" xmlns="http://www.w3.org/2000/svg">
<g clip-path="url(#clip0_482_18074)">
<path d="M10.6382 6.90365C10.639 7.13324 10.8253 7.31899 11.0549 7.31899C11.0549 7.31899 11.7695 7.31899 12.0455 7.31099C13.0669 7.29365 13.8002 6.40565 13.8002 5.20034C13.8002 3.93368 13.0802 3.08168 12.0095 3.08168H11.0475C10.8172 3.08243 10.6309 3.26934 10.6309 3.49968L10.6382 6.90365ZM12.0122 3.91496C12.7182 3.91496 12.9695 4.58162 12.9695 5.20031C12.9695 5.81899 12.6802 6.46696 12.0329 6.47765C11.8995 6.47765 11.6742 6.48231 11.4702 6.48365L11.4669 3.91499L12.0122 3.91496Z" fill="black"/>
<path d="M8.74857 4.83692C8.56657 4.77492 8.37792 4.74092 8.19191 4.69226C8.04432 4.66248 7.90751 4.59339 7.79591 4.49226C7.68448 4.38657 7.64488 4.2256 7.69457 4.08026C7.75779 3.95501 7.88201 3.87204 8.02191 3.8616C8.15945 3.85304 8.29729 3.87326 8.42657 3.92095C8.6126 3.97901 8.79514 4.04779 8.97323 4.12695C9.16923 4.21295 9.40058 4.26429 9.55858 4.0776C9.67558 3.93735 9.68433 3.73614 9.57992 3.58626C9.51092 3.4857 9.41758 3.40429 9.30858 3.3496C8.82054 3.06307 8.2382 2.9836 7.69123 3.12895C7.40232 3.22038 7.15822 3.41688 7.00722 3.6796C6.93641 3.80423 6.8896 3.94104 6.86922 4.08295C6.83204 4.33817 6.88738 4.59829 7.02522 4.81629C7.18079 5.04404 7.40535 5.21579 7.66588 5.30629C7.93854 5.41829 8.21123 5.52695 8.48788 5.62829C8.60685 5.66607 8.71642 5.72879 8.80923 5.81229C8.91314 5.91154 8.95167 6.0612 8.90857 6.19829C8.85235 6.32964 8.74076 6.42926 8.60392 6.47029C8.39579 6.54854 8.16779 6.55673 7.95457 6.49364C7.74707 6.41854 7.55538 6.30551 7.38923 6.16029C7.37188 6.14629 7.31523 6.10364 7.30457 6.09364C7.14922 5.98257 6.93701 5.99679 6.79791 6.12764C6.62744 6.28223 6.61457 6.54573 6.76913 6.7162C6.76916 6.71623 6.76919 6.71626 6.76922 6.71632C7.16697 7.13867 7.72244 7.37654 8.30257 7.37298C8.9901 7.4032 9.60105 6.93785 9.75458 6.26698C9.8193 5.86101 9.66767 5.4507 9.35457 5.18432C9.17754 5.02951 8.97157 4.91145 8.74857 4.83692Z" fill="black"/>
<path d="M3.41406 3.44568V6.95368C3.41406 7.1838 3.60063 7.37033 3.83072 7.37033C4.06081 7.37033 4.24738 7.18377 4.24738 6.95368V5.84502H4.80738C5.58425 5.84502 6.21404 5.21524 6.21404 4.43836C6.21404 3.66149 5.58425 3.03171 4.80738 3.03171L4.80338 3.02905H3.82672C3.79844 3.02955 3.64931 3.03502 3.53141 3.15733C3.41862 3.27433 3.41428 3.41552 3.41406 3.44568ZM4.80338 5.00902H4.24872L4.24472 3.86237H4.80338C5.12003 3.86221 5.37685 4.11877 5.377 4.43543C5.37716 4.75208 5.1206 5.0089 4.80394 5.00905C4.80378 5.00902 4.80356 5.00902 4.80338 5.00902Z" fill="black"/>
<path d="M13.3336 0H4.00034C2.1603 0.00221875 0.669211 1.49331 0.666992 3.33334V12.6667C0.669211 14.5067 2.1603 15.9978 4.00034 16H11.5623C12.4469 16.0025 13.2958 15.6511 13.9197 15.024L15.6903 13.252C16.3175 12.6284 16.6692 11.7798 16.667 10.8953V3.33334C16.6648 1.49331 15.1737 0.00221875 13.3336 0ZM2.00034 12.6667V3.33334C2.00034 2.22878 2.89577 1.33334 4.00034 1.33334H13.3337C14.4382 1.33334 15.3337 2.22878 15.3337 3.33334V10H12.667C11.5624 10 10.667 10.8954 10.667 12V14.6667H4.00034C2.89574 14.6667 2.00034 13.7712 2.00034 12.6667ZM12.977 14.0813C12.709 14.3487 12.3701 14.5338 12.0003 14.6147V12C12.0003 11.6318 12.2988 11.3333 12.667 11.3333H15.2836C15.2012 11.7023 15.0163 12.0406 14.7503 12.3093L12.977 14.0813Z" fill="black"/>
</g>
<defs>
<clipPath id="clip0_482_18074">
<rect width="16" height="16" fill="white" transform="translate(0.666992)"/>
</clipPath>
</defs>
</svg>
