<svg width="17" height="16" viewBox="0 0 17 16" fill="none" xmlns="http://www.w3.org/2000/svg">
<g clip-path="url(#clip0_482_18101)">
<path d="M13.2223 6.66667C13.9935 6.66621 14.7407 6.39837 15.3366 5.90877C15.9324 5.41916 16.3401 4.7381 16.4901 3.98163C16.64 3.22515 16.5231 2.44007 16.1591 1.76017C15.7952 1.08026 15.2067 0.547585 14.494 0.252917C13.7813 -0.0417507 12.9885 -0.0801832 12.2507 0.144168C11.5128 0.36852 10.8756 0.841774 10.4476 1.48329C10.0195 2.12481 9.8272 2.89489 9.90332 3.66233C9.97943 4.42976 10.3193 5.14706 10.865 5.692C11.1745 6.00156 11.542 6.24701 11.9465 6.41426C12.351 6.58151 12.7846 6.66729 13.2223 6.66667ZM14.637 4.74933C14.3442 5.03955 13.9689 5.23221 13.5625 5.30094C13.156 5.36968 12.7382 5.31114 12.3663 5.13333L15.0223 2.47733C15.2 2.84938 15.2583 3.26723 15.1893 3.6737C15.1203 4.08017 14.9274 4.45539 14.637 4.748V4.74933ZM11.8077 1.91867C12.1003 1.62823 12.4755 1.43533 12.882 1.36635C13.2884 1.29737 13.7063 1.35569 14.0783 1.53333L11.4223 4.18933C11.2447 3.81729 11.1864 3.39944 11.2553 2.99297C11.3243 2.5865 11.5172 2.21128 11.8077 1.91867ZM16.5557 8V12.6667C16.5546 13.5504 16.2031 14.3976 15.5782 15.0225C14.9533 15.6474 14.1061 15.9989 13.2223 16H3.889C3.00527 15.9989 2.15804 15.6474 1.53314 15.0225C0.908252 14.3976 0.556723 13.5504 0.555664 12.6667L0.555664 5.33333C0.556723 4.4496 0.908252 3.60237 1.53314 2.97748C2.15804 2.35259 3.00527 2.00106 3.889 2H7.889C8.06581 2 8.23538 2.07024 8.3604 2.19526C8.48543 2.32029 8.55566 2.48986 8.55566 2.66667C8.55566 2.84348 8.48543 3.01305 8.3604 3.13807C8.23538 3.2631 8.06581 3.33333 7.889 3.33333H3.889C3.52647 3.33434 3.17108 3.43419 2.86108 3.62214C2.55107 3.81009 2.2982 4.07903 2.12966 4.4L7.141 9.412C7.5168 9.78605 8.02544 9.99604 8.55566 9.99604C9.08589 9.99604 9.59453 9.78605 9.97033 9.412L11.217 8.188C11.3438 8.06717 11.5131 8.00111 11.6882 8.0041C11.8634 8.00708 12.0303 8.07887 12.1529 8.20395C12.2755 8.32903 12.344 8.49734 12.3435 8.67251C12.343 8.84767 12.2736 9.0156 12.1503 9.14L10.9077 10.3587C10.2822 10.982 9.4349 11.3317 8.55184 11.331C7.66877 11.3302 6.82209 10.9791 6.19766 10.3547L1.889 6.04733V12.6667C1.889 13.1971 2.09971 13.7058 2.47478 14.0809C2.84986 14.456 3.35856 14.6667 3.889 14.6667H13.2223C13.7528 14.6667 14.2615 14.456 14.6365 14.0809C15.0116 13.7058 15.2223 13.1971 15.2223 12.6667V8C15.2223 7.82319 15.2926 7.65362 15.4176 7.5286C15.5426 7.40357 15.7122 7.33333 15.889 7.33333C16.0658 7.33333 16.2354 7.40357 16.3604 7.5286C16.4854 7.65362 16.5557 7.82319 16.5557 8Z" fill="black"/>
</g>
<defs>
<clipPath id="clip0_482_18101">
<rect width="16" height="16" fill="white" transform="translate(0.555664)"/>
</clipPath>
</defs>
</svg>
