<svg width="17" height="16" viewBox="0 0 17 16" fill="none" xmlns="http://www.w3.org/2000/svg">
<g clip-path="url(#clip0_482_18039)">
<path d="M8.22266 16C6.64041 16 5.09369 15.5308 3.7781 14.6518C2.4625 13.7727 1.43712 12.5233 0.831624 11.0615C0.226123 9.59966 0.0676958 7.99113 0.376378 6.43928C0.685059 4.88743 1.44699 3.46197 2.56581 2.34315C3.68463 1.22433 5.11009 0.462403 6.66194 0.153721C8.21379 -0.15496 9.82232 0.00346629 11.2841 0.608967C12.7459 1.21447 13.9954 2.23985 14.8744 3.55544C15.7535 4.87104 16.2227 6.41775 16.2227 8C16.2204 10.121 15.3768 12.1545 13.877 13.6543C12.3772 15.1541 10.3437 15.9977 8.22266 16ZM8.22266 1.33334C6.90412 1.33334 5.61519 1.72433 4.51886 2.45687C3.42253 3.18942 2.56805 4.23061 2.06346 5.44878C1.55888 6.66695 1.42686 8.0074 1.68409 9.30061C1.94133 10.5938 2.57626 11.7817 3.50861 12.714C4.44096 13.6464 5.62885 14.2813 6.92206 14.5386C8.21526 14.7958 9.55571 14.6638 10.7739 14.1592C11.9921 13.6546 13.0332 12.8001 13.7658 11.7038C14.4983 10.6075 14.8893 9.31855 14.8893 8C14.8874 6.23249 14.1844 4.53792 12.9346 3.2881C11.6847 2.03828 9.99017 1.33528 8.22266 1.33334ZM8.22266 13.3333C7.16783 13.3333 6.13668 13.0205 5.25962 12.4345C4.38256 11.8485 3.69897 11.0155 3.2953 10.041C2.89164 9.06644 2.78602 7.99409 2.99181 6.95952C3.19759 5.92496 3.70554 4.97465 4.45142 4.22877C5.1973 3.48289 6.14761 2.97494 7.18218 2.76915C8.21674 2.56336 9.2891 2.66898 10.2636 3.07265C11.2382 3.47631 12.0711 4.1599 12.6572 5.03696C13.2432 5.91402 13.556 6.94517 13.556 8C13.5544 9.414 12.992 10.7696 11.9921 11.7695C10.9923 12.7693 9.63666 13.3317 8.22266 13.3333ZM8.22266 4C7.43153 4 6.65818 4.2346 6.00038 4.67413C5.34258 5.11365 4.82989 5.73837 4.52714 6.46927C4.22439 7.20017 4.14518 8.00444 4.29952 8.78036C4.45386 9.55629 4.83482 10.269 5.39423 10.8284C5.95364 11.3878 6.66638 11.7688 7.4423 11.9231C8.21822 12.0775 9.02249 11.9983 9.75339 11.6955C10.4843 11.3928 11.109 10.8801 11.5485 10.2223C11.9881 9.56449 12.2227 8.79113 12.2227 8C12.2216 6.93946 11.7998 5.92266 11.0499 5.17275C10.3 4.42283 9.2832 4.00106 8.22266 4ZM8.12733 10.3433L10.1273 7.01C10.1881 6.90886 10.2209 6.79339 10.2225 6.67541C10.224 6.55742 10.1942 6.44113 10.1361 6.33843C10.078 6.23573 9.99371 6.15028 9.89179 6.09082C9.78987 6.03137 9.67399 6.00003 9.55599 6H6.88933C6.71252 6 6.54295 6.07024 6.41792 6.19527C6.2929 6.32029 6.22266 6.48986 6.22266 6.66667C6.22266 6.84348 6.2929 7.01305 6.41792 7.13807C6.54295 7.2631 6.71252 7.33334 6.88933 7.33334H8.37866L6.98466 9.65667C6.93768 9.73174 6.90613 9.81542 6.89185 9.90283C6.87757 9.99023 6.88085 10.0796 6.90149 10.1657C6.92214 10.2518 6.95973 10.333 7.01208 10.4044C7.06444 10.4758 7.1305 10.5361 7.2064 10.5817C7.28231 10.6274 7.36655 10.6574 7.4542 10.6701C7.54184 10.6828 7.63114 10.6779 7.71687 10.6557C7.80261 10.6335 7.88306 10.5945 7.95353 10.5408C8.02401 10.4872 8.08309 10.4201 8.12733 10.3433Z" fill="black"/>
</g>
<defs>
<clipPath id="clip0_482_18039">
<rect width="16" height="16" fill="white" transform="translate(0.222656)"/>
</clipPath>
</defs>
</svg>
