<svg width="17" height="16" viewBox="0 0 17 16" fill="none" xmlns="http://www.w3.org/2000/svg">
<g clip-path="url(#clip0_483_13697)">
<path d="M11.0266 2.66707C10.5894 2.66812 10.1645 2.81197 9.81662 3.07672C9.46871 3.34148 9.21682 3.71264 9.09927 4.13374L6.39994 13.8457C6.3354 14.0799 6.19642 14.2866 6.00399 14.4348C5.81156 14.583 5.57613 14.6645 5.33328 14.6671C5.09575 14.6639 4.86486 14.5882 4.67158 14.4501C4.4783 14.312 4.33188 14.1181 4.25195 13.8944L2.38995 8.77441C2.2686 8.42555 2.06527 8.11092 1.79705 7.85698C1.52884 7.60303 1.20358 7.41719 0.848617 7.31507C0.676757 7.27343 0.528477 7.16523 0.436396 7.01426C0.344316 6.8633 0.315978 6.68193 0.357617 6.51007C0.399256 6.33821 0.507461 6.18993 0.658428 6.09785C0.809394 6.00577 0.990756 5.97743 1.16262 6.01907C1.73203 6.17167 2.25561 6.46093 2.6879 6.86174C3.12019 7.26255 3.44814 7.7628 3.64328 8.31907L5.29261 12.8524L7.81528 3.77507C8.01171 3.07397 8.43164 2.45616 9.01126 2.01552C9.59089 1.57487 10.2985 1.33549 11.0266 1.33374H15.6666C15.8434 1.33374 16.013 1.40398 16.138 1.529C16.263 1.65403 16.3333 1.8236 16.3333 2.00041C16.3333 2.17722 16.263 2.34679 16.138 2.47181C16.013 2.59684 15.8434 2.66707 15.6666 2.66707H11.0266ZM16.0666 8.13374C15.9252 8.02765 15.7474 7.9821 15.5723 8.00711C15.3973 8.03211 15.2394 8.12562 15.1333 8.26707L13.6666 10.2224L12.1999 8.26707C12.0939 8.12562 11.9359 8.03211 11.7609 8.00711C11.5859 7.9821 11.4081 8.02765 11.2666 8.13374C11.1252 8.23983 11.0316 8.39776 11.0066 8.57279C10.9816 8.74783 11.0272 8.92562 11.1333 9.06707L12.8333 11.3337L11.1333 13.6004C11.0807 13.6704 11.0425 13.7501 11.0208 13.835C10.9991 13.9198 10.9943 14.008 11.0066 14.0947C11.019 14.1814 11.0484 14.2647 11.093 14.3401C11.1376 14.4154 11.1966 14.4812 11.2666 14.5337C11.3366 14.5863 11.4163 14.6245 11.5012 14.6462C11.586 14.6679 11.6742 14.6728 11.7609 14.6604C11.8476 14.648 11.9309 14.6187 12.0063 14.5741C12.0816 14.5295 12.1474 14.4704 12.1999 14.4004L13.6666 12.4451L15.1333 14.4004C15.1858 14.4704 15.2516 14.5295 15.3269 14.5741C15.4023 14.6187 15.4857 14.648 15.5723 14.6604C15.659 14.6728 15.7472 14.6679 15.8321 14.6462C15.9169 14.6245 15.9966 14.5863 16.0666 14.5337C16.1366 14.4812 16.1956 14.4154 16.2402 14.3401C16.2849 14.2647 16.3142 14.1814 16.3266 14.0947C16.3389 14.008 16.3341 13.9198 16.3124 13.835C16.2907 13.7501 16.2525 13.6704 16.1999 13.6004L14.4999 11.3337L16.1999 9.06707C16.2525 8.99704 16.2907 8.91734 16.3124 8.83253C16.3341 8.74772 16.3389 8.65946 16.3266 8.57279C16.3142 8.48612 16.2849 8.40274 16.2402 8.32741C16.1956 8.25208 16.1366 8.18627 16.0666 8.13374Z" fill="black"/>
</g>
<defs>
<clipPath id="clip0_483_13697">
<rect width="16" height="16" fill="white" transform="translate(0.333008)"/>
</clipPath>
</defs>
</svg>
