<svg width="17" height="16" viewBox="0 0 17 16" fill="none" xmlns="http://www.w3.org/2000/svg">
<g clip-path="url(#clip0_482_18107)">
<path d="M15.0285 2.52332C14.0312 1.95566 12.9342 1.58473 11.7971 1.43065C11.625 1.09937 11.3854 0.807788 11.0938 0.574655C10.7798 0.32494 10.413 0.149969 10.0213 0.062994C9.62967 -0.0239807 9.22334 -0.020677 8.83313 0.0726547C7.99912 0.283104 7.19023 0.582835 6.42046 0.966655C5.87401 0.706843 5.26364 0.612042 4.66413 0.693864C4.06461 0.775686 3.50197 1.03058 3.04513 1.42732C2.80046 1.63732 2.55446 1.85665 2.31179 2.08265C2.05713 2.32199 1.79779 2.59399 1.53913 2.88932C1.21502 3.25986 0.983718 3.7022 0.864321 4.17979C0.744923 4.65738 0.740858 5.15652 0.852461 5.63599C0.903982 5.86232 0.980217 6.08231 1.07979 6.29199C0.69337 7.06722 0.391197 7.88165 0.178461 8.72132C0.084729 9.1115 0.0812244 9.51793 0.168214 9.90967C0.255203 10.3014 0.430395 10.6681 0.680461 10.982C0.916021 11.2766 1.21141 11.5179 1.54713 11.69C1.7016 12.8254 2.07229 13.9208 2.63913 14.9167C2.85905 15.3117 3.19996 15.6258 3.61171 15.8127C4.02346 15.9995 4.48431 16.0493 4.92646 15.9547C5.38383 15.8641 5.79993 15.6288 6.11326 15.2835C6.4266 14.9382 6.62055 14.5013 6.66646 14.0373C6.7909 13.1791 7.01647 12.3386 7.33846 11.5333C7.33846 11.5333 7.7018 11.3093 7.86779 11.174C8.26749 10.8387 8.55118 10.3859 8.67846 9.87999C8.98668 9.77795 9.26695 9.60563 9.49713 9.37665C9.72133 9.14847 9.89091 8.87245 9.99313 8.56932C10.4973 8.44141 10.9484 8.15801 11.2825 7.75932C11.4158 7.59332 11.6425 7.22932 11.6425 7.22932C12.4459 6.89868 13.2883 6.67174 14.1491 6.55399C14.6131 6.50808 15.05 6.31412 15.3953 6.00079C15.7406 5.68745 15.9759 5.27136 16.0665 4.81399C16.1626 4.37132 16.1136 3.90945 15.9266 3.49684C15.7396 3.08424 15.4247 2.74286 15.0285 2.52332ZM5.33779 13.8887C5.32175 14.0725 5.24624 14.2462 5.12271 14.3833C4.99917 14.5204 4.83433 14.6136 4.65313 14.6487C4.48639 14.6866 4.31179 14.6686 4.15626 14.5976C4.00073 14.5265 3.8729 14.4062 3.79246 14.2553C3.39153 13.5531 3.1042 12.792 2.94113 12H5.54113C5.61379 12 5.68446 11.9853 5.75646 11.9813C5.56579 12.57 5.33779 13.886 5.33779 13.8887ZM7.02446 10.138C6.60589 10.4793 6.08253 10.666 5.54246 10.6667H2.77846C2.57567 10.6671 2.37544 10.6213 2.19303 10.5327C2.01062 10.444 1.85082 10.315 1.72579 10.1553C1.60109 9.99907 1.51364 9.81646 1.47009 9.62135C1.42654 9.42624 1.42803 9.22377 1.47446 9.02932C1.60793 8.4911 1.78633 7.96503 2.00779 7.45666C2.2136 7.61771 2.43895 7.75211 2.67846 7.85665L7.1298 9.80599C7.17113 9.82532 7.21513 9.83265 7.25713 9.84865C7.19747 9.95822 7.11867 10.0562 7.02446 10.138ZM8.5478 8.43666C8.4364 8.54961 8.29274 8.62526 8.13658 8.65319C7.98042 8.68113 7.81944 8.65998 7.6758 8.59266L3.21379 6.63865C2.94775 6.52209 2.71322 6.34399 2.5295 6.11901C2.34579 5.89403 2.21816 5.62863 2.15713 5.34466C2.09242 5.06939 2.09411 4.78268 2.16203 4.5082C2.22996 4.23371 2.36218 3.97931 2.54779 3.76599C2.77846 3.50332 3.00646 3.26332 3.22979 3.05332C3.45313 2.84332 3.68446 2.63665 3.91446 2.43999C4.12672 2.25526 4.37954 2.12317 4.65241 2.05444C4.92528 1.98571 5.2105 1.98229 5.48494 2.04443C5.75938 2.10658 6.01531 2.23256 6.23194 2.41213C6.44858 2.59171 6.61983 2.81983 6.7318 3.07799L8.7078 7.53799C8.7739 7.68663 8.79399 7.85167 8.76548 8.01184C8.73696 8.172 8.66115 8.31996 8.5478 8.43666ZM10.7785 5.43065C10.778 5.97065 10.5916 6.49402 10.2505 6.91265C10.1725 7.00291 10.0799 7.07932 9.97646 7.13865C9.95913 7.09199 9.94646 7.04399 9.92646 6.99799L7.95113 2.53865C7.85127 2.31225 7.72554 2.09816 7.57646 1.90065C8.08231 1.67975 8.60567 1.50136 9.14113 1.36732C9.33557 1.32079 9.53806 1.31925 9.73319 1.3628C9.92832 1.40635 10.1109 1.49386 10.2671 1.61865C10.4272 1.74395 10.5564 1.90418 10.645 2.08709C10.7337 2.27 10.7793 2.47074 10.7785 2.67399V5.43065ZM14.7605 4.54132C14.7254 4.72252 14.6322 4.88736 14.4951 5.0109C14.358 5.13444 14.1843 5.20994 14.0005 5.22599C14.0005 5.22599 12.6818 5.45399 12.0931 5.64599C12.0978 5.57399 12.1118 5.50332 12.1118 5.43065V2.83065C12.9038 2.99372 13.6649 3.28105 14.3671 3.68199C14.5175 3.76261 14.6374 3.89027 14.7084 4.04544C14.7795 4.20062 14.7977 4.37478 14.7605 4.54132Z" fill="black"/>
</g>
<defs>
<clipPath id="clip0_482_18107">
<rect width="16" height="16" fill="white" transform="translate(0.111328)"/>
</clipPath>
</defs>
</svg>
