<svg width="16" height="16" viewBox="0 0 16 16" fill="none" xmlns="http://www.w3.org/2000/svg">
<path d="M14.0002 1.3335H2.00016C1.82335 1.3335 1.65378 1.40373 1.52876 1.52876C1.40373 1.65378 1.3335 1.82335 1.3335 2.00016V14.0002C1.3335 14.177 1.40373 14.3465 1.52876 14.4716C1.65378 14.5966 1.82335 14.6668 2.00016 14.6668H14.0002C14.177 14.6668 14.3465 14.5966 14.4716 14.4716C14.5966 14.3465 14.6668 14.177 14.6668 14.0002V2.00016C14.6668 1.82335 14.5966 1.65378 14.4716 1.52876C14.3465 1.40373 14.177 1.3335 14.0002 1.3335ZM13.3335 13.3335H2.66683V6.66683H13.3335V13.3335ZM13.3335 5.3335H2.66683V2.66683H13.3335V5.3335Z" fill="#444444"/>
</svg>
