<svg width="17" height="16" viewBox="0 0 17 16" fill="none" xmlns="http://www.w3.org/2000/svg">
<g clip-path="url(#clip0_483_13832)">
<path d="M16.4714 14.8617L15.7534 14.1437L14.6001 12.9924L16.4594 11.133C16.5385 11.0538 16.5964 10.9558 16.6277 10.8483C16.659 10.7407 16.6627 10.627 16.6385 10.5177C16.6142 10.4083 16.5628 10.3068 16.489 10.2226C16.4152 10.1384 16.3213 10.0741 16.2161 10.0357L10.2367 7.86638C9.99857 7.78029 9.7408 7.76382 9.49361 7.81889C9.24641 7.87396 9.02002 7.99829 8.8409 8.17733C8.66179 8.35637 8.53737 8.58272 8.48221 8.82989C8.42705 9.07706 8.44342 9.33484 8.52941 9.57304L10.7047 15.5524C10.7429 15.6577 10.8071 15.7517 10.8912 15.8257C10.9753 15.8997 11.0767 15.9513 11.1861 15.9757C11.2336 15.986 11.2821 15.9912 11.3307 15.991C11.5075 15.991 11.6771 15.9207 11.8021 15.7957L13.6594 13.933L14.8107 15.0844L15.5287 15.8024C15.6545 15.9238 15.8229 15.991 15.9977 15.9895C16.1725 15.988 16.3397 15.9179 16.4633 15.7943C16.5869 15.6706 16.657 15.5034 16.6585 15.3286C16.66 15.1538 16.5928 14.9854 16.4714 14.8597V14.8617ZM11.6001 14.1097L9.78407 9.11638L14.7774 10.9324L11.6001 14.1097Z" fill="black"/>
<path d="M7.33366 13.3333C6.01512 13.3333 4.72619 12.9423 3.62986 12.2098C2.53353 11.4773 1.67905 10.4361 1.17447 9.21789C0.669881 7.99971 0.537859 6.65927 0.795093 5.36606C1.05233 4.07286 1.68727 2.88497 2.61962 1.95262C3.55197 1.02027 4.73985 0.385332 6.03306 0.128097C7.32627 -0.129138 8.66671 0.00288427 9.88489 0.507469C11.1031 1.01205 12.1442 1.86654 12.8768 2.96286C13.6093 4.05919 14.0003 5.34812 14.0003 6.66667C14.0003 6.84348 13.9301 7.01305 13.8051 7.13807C13.68 7.26309 13.5105 7.33333 13.3337 7.33333C13.1569 7.33333 12.9873 7.26309 12.8623 7.13807C12.7372 7.01305 12.667 6.84348 12.667 6.66667C12.667 5.61183 12.3542 4.58069 11.7682 3.70362C11.1821 2.82656 10.3492 2.14298 9.37464 1.73931C8.4001 1.33564 7.32775 1.23002 6.29318 1.43581C5.25862 1.6416 4.30831 2.14955 3.56243 2.89543C2.81655 3.64131 2.30859 4.59162 2.10281 5.62618C1.89702 6.66075 2.00264 7.7331 2.4063 8.70764C2.80997 9.68218 3.49356 10.5151 4.37062 11.1012C5.24768 11.6872 6.27883 12 7.33366 12C7.51047 12 7.68004 12.0702 7.80507 12.1953C7.93009 12.3203 8.00033 12.4899 8.00033 12.6667C8.00033 12.8435 7.93009 13.013 7.80507 13.1381C7.68004 13.2631 7.51047 13.3333 7.33366 13.3333Z" fill="black"/>
<path d="M6.05602 10.4134C5.96841 10.4135 5.88164 10.3962 5.80069 10.3627C5.19326 10.1105 4.65742 9.71227 4.24061 9.20345C3.82381 8.69463 3.53891 8.09089 3.41115 7.44568C3.28339 6.80047 3.3167 6.13371 3.50815 5.50445C3.69959 4.87519 4.04325 4.30284 4.5087 3.83811C4.97415 3.37337 5.54701 3.03059 6.17657 2.84011C6.80612 2.64963 7.47293 2.61733 8.11795 2.74608C8.76296 2.87483 9.36627 3.16065 9.87445 3.57823C10.3826 3.99582 10.78 4.53227 11.0314 5.14008C11.0666 5.22129 11.0853 5.3087 11.0864 5.39721C11.0875 5.48572 11.0709 5.57357 11.0377 5.65562C11.0045 5.73767 10.9553 5.81228 10.8929 5.8751C10.8305 5.93792 10.7563 5.98769 10.6745 6.02151C10.5927 6.05533 10.5049 6.07252 10.4164 6.07208C10.3279 6.07163 10.2404 6.05357 10.1589 6.01893C10.0774 5.98429 10.0037 5.93378 9.94196 5.87034C9.88023 5.80689 9.83175 5.73179 9.79936 5.64941C9.6314 5.24457 9.36624 4.88737 9.02734 4.60942C8.68845 4.33146 8.28627 4.14133 7.85638 4.05584C7.4265 3.97035 6.98217 3.99214 6.56272 4.11928C6.14326 4.24642 5.76161 4.47499 5.45153 4.78477C5.14146 5.09455 4.91252 5.47598 4.78498 5.89531C4.65744 6.31465 4.63523 6.75895 4.72031 7.18892C4.80538 7.61888 4.99513 8.02124 5.27276 8.3604C5.55039 8.69957 5.90734 8.96507 6.31202 9.13341C6.45464 9.19243 6.57236 9.29911 6.6451 9.43524C6.71783 9.57138 6.74108 9.72853 6.71087 9.87989C6.68066 10.0313 6.59887 10.1674 6.47944 10.2652C6.36002 10.363 6.21037 10.4163 6.05602 10.4161V10.4134Z" fill="black"/>
</g>
<defs>
<clipPath id="clip0_483_13832">
<rect width="16" height="16" fill="white" transform="translate(0.666992)"/>
</clipPath>
</defs>
</svg>
