<svg width="17" height="16" viewBox="0 0 17 16" fill="none" xmlns="http://www.w3.org/2000/svg">
<g clip-path="url(#clip0_483_13639)">
<path d="M7.00434 2L5.66634 1.99067C5.66387 1.46185 5.45207 0.955539 5.07727 0.582483C4.70246 0.209426 4.19516 -5.75817e-06 3.66634 1.18739e-10L2.33301 1.1874e-10C1.80257 1.1874e-10 1.29387 0.210714 0.918794 0.585786C0.543721 0.960859 0.333008 1.46957 0.333008 2L0.333008 3.33333C0.333006 3.86296 0.543079 4.37096 0.917143 4.7459C1.29121 5.12084 1.79872 5.3321 2.32834 5.33333L2.31901 6.662C2.31839 6.7496 2.33505 6.83647 2.36803 6.91763C2.40101 6.9988 2.44966 7.07266 2.5112 7.13501C2.57274 7.19736 2.64597 7.24697 2.7267 7.281C2.80743 7.31502 2.89407 7.33281 2.98167 7.33333H2.98567C3.16168 7.33334 3.33055 7.26374 3.45544 7.13972C3.58033 7.01571 3.65111 6.84733 3.65234 6.67133L3.66167 5.33333H3.66634C4.19677 5.33333 4.70548 5.12262 5.08055 4.74755C5.45563 4.37247 5.66634 3.86377 5.66634 3.33333V3.324L6.99501 3.33333H6.99967C7.08722 3.33364 7.17397 3.3167 7.25497 3.28348C7.33598 3.25026 7.40964 3.20141 7.47176 3.13972C7.53389 3.07803 7.58325 3.00471 7.61703 2.92394C7.65082 2.84318 7.66837 2.75655 7.66867 2.669C7.66898 2.58145 7.65204 2.4947 7.61882 2.4137C7.5856 2.3327 7.53675 2.25903 7.47506 2.19691C7.41337 2.13479 7.34005 2.08543 7.25929 2.05164C7.17852 2.01785 7.09189 2.00031 7.00434 2ZM4.33301 3.33333C4.33301 3.51014 4.26277 3.67971 4.13775 3.80474C4.01272 3.92976 3.84315 4 3.66634 4H2.33301C2.1562 4 1.98663 3.92976 1.8616 3.80474C1.73658 3.67971 1.66634 3.51014 1.66634 3.33333V2C1.66634 1.82319 1.73658 1.65362 1.8616 1.5286C1.98663 1.40357 2.1562 1.33333 2.33301 1.33333H3.66634C3.84315 1.33333 4.01272 1.40357 4.13775 1.5286C4.26277 1.65362 4.33301 1.82319 4.33301 2V3.33333Z" fill="black"/>
<path d="M14.3327 0H12.9994C12.4698 -1.44175e-06 11.9618 0.210072 11.5868 0.584136C11.2119 0.9582 11.0006 1.46571 10.9994 1.99533L9.67007 1.986H9.66607C9.48926 1.98538 9.31945 2.05503 9.19399 2.17961C9.06852 2.3042 8.99769 2.47352 8.99707 2.65033C8.99646 2.82714 9.0661 2.99696 9.19069 3.12242C9.31527 3.24788 9.4846 3.31871 9.66141 3.31933L10.9994 3.32867V3.33333C10.9994 3.86377 11.2101 4.37247 11.5852 4.74755C11.9603 5.12262 12.469 5.33333 12.9994 5.33333H13.0087L12.9994 6.662C12.9988 6.74955 13.0154 6.83636 13.0484 6.91748C13.0813 6.9986 13.1299 7.07244 13.1914 7.13478C13.2528 7.19712 13.326 7.24674 13.4066 7.28081C13.4873 7.31487 13.5739 7.33272 13.6614 7.33333H13.6661C13.8421 7.33334 14.0109 7.26374 14.1358 7.13972C14.2607 7.01571 14.3315 6.84733 14.3327 6.67133L14.3421 5.33333C14.8709 5.33087 15.3772 5.11906 15.7503 4.74426C16.1233 4.36945 16.3327 3.86215 16.3327 3.33333V2C16.3327 1.46957 16.122 0.960859 15.747 0.585786C15.3719 0.210714 14.8632 0 14.3327 0V0ZM14.9994 3.33333C14.9994 3.51014 14.9292 3.67971 14.8041 3.80474C14.6791 3.92976 14.5096 4 14.3327 4H12.9994C12.8226 4 12.653 3.92976 12.528 3.80474C12.403 3.67971 12.3327 3.51014 12.3327 3.33333V2C12.3327 1.82319 12.403 1.65362 12.528 1.5286C12.653 1.40357 12.8226 1.33333 12.9994 1.33333H14.3327C14.5096 1.33333 14.6791 1.40357 14.8041 1.5286C14.9292 1.65362 14.9994 1.82319 14.9994 2V3.33333Z" fill="black"/>
<path d="M14.3374 10.6663L14.3467 9.33693C14.3473 9.24938 14.3305 9.16258 14.2975 9.0815C14.2645 9.00041 14.2158 8.92662 14.1543 8.86435C14.0928 8.80207 14.0196 8.75252 13.9389 8.71853C13.8582 8.68455 13.7716 8.66678 13.6841 8.66626H13.6801C13.5041 8.66626 13.3352 8.73585 13.2103 8.85987C13.0854 8.98389 13.0146 9.15226 13.0134 9.32826L13.0041 10.6663H12.9994C12.469 10.6663 11.9603 10.877 11.5852 11.252C11.2101 11.6271 10.9994 12.1358 10.9994 12.6663V12.6756L9.67074 12.6663H9.66607C9.48926 12.6656 9.31945 12.7353 9.19399 12.8599C9.06852 12.9845 8.99769 13.1538 8.99707 13.3306C8.99646 13.5074 9.0661 13.6772 9.19069 13.8027C9.31527 13.9281 9.4846 13.999 9.66141 13.9996L10.9994 14.0089C11.0019 14.5377 11.2137 15.044 11.5885 15.4171C11.9633 15.7902 12.4706 15.9996 12.9994 15.9996H14.3327C14.8632 15.9996 15.3719 15.7889 15.747 15.4138C16.122 15.0387 16.3327 14.53 16.3327 13.9996V12.6663C16.3327 12.1366 16.1227 11.6286 15.7486 11.2537C15.3745 10.8788 14.867 10.6675 14.3374 10.6663ZM14.9994 13.9996C14.9994 14.1764 14.9292 14.346 14.8041 14.471C14.6791 14.596 14.5096 14.6663 14.3327 14.6663H12.9994C12.8226 14.6663 12.653 14.596 12.528 14.471C12.403 14.346 12.3327 14.1764 12.3327 13.9996V12.6663C12.3327 12.4894 12.403 12.3199 12.528 12.1949C12.653 12.0698 12.8226 11.9996 12.9994 11.9996H14.3327C14.5096 11.9996 14.6791 12.0698 14.8041 12.1949C14.9292 12.3199 14.9994 12.4894 14.9994 12.6663V13.9996Z" fill="black"/>
<path d="M7.00434 12.6803L5.66634 12.6709V12.6663C5.66634 12.1358 5.45563 11.6271 5.08055 11.252C4.70548 10.877 4.19677 10.6663 3.66634 10.6663H3.65701L3.66634 9.33759C3.66696 9.25004 3.65032 9.16323 3.61738 9.08211C3.58445 9.00099 3.53586 8.92716 3.47438 8.86482C3.41291 8.80248 3.33976 8.75286 3.25911 8.71879C3.17846 8.68472 3.09189 8.66687 3.00434 8.66626H2.99967C2.82367 8.66626 2.6548 8.73585 2.52991 8.85987C2.40502 8.98389 2.33424 9.15226 2.33301 9.32826L2.32367 10.6663C1.79486 10.6687 1.28855 10.8805 0.915491 11.2553C0.542434 11.6301 0.333002 12.1374 0.333008 12.6663L0.333008 13.9996C0.333008 14.53 0.543721 15.0387 0.918794 15.4138C1.29387 15.7889 1.80257 15.9996 2.33301 15.9996H3.66634C4.19597 15.9996 4.70397 15.7895 5.07891 15.4154C5.45385 15.0414 5.66511 14.5339 5.66634 14.0043L6.99568 14.0136H6.99967C7.17649 14.0142 7.3463 13.9446 7.47176 13.82C7.59722 13.6954 7.66806 13.5261 7.66867 13.3493C7.66929 13.1724 7.59965 13.0026 7.47506 12.8772C7.35048 12.7517 7.18115 12.6809 7.00434 12.6803ZM4.33301 13.9996C4.33301 14.1764 4.26277 14.346 4.13775 14.471C4.01272 14.596 3.84315 14.6663 3.66634 14.6663H2.33301C2.1562 14.6663 1.98663 14.596 1.8616 14.471C1.73658 14.346 1.66634 14.1764 1.66634 13.9996V12.6663C1.66634 12.4894 1.73658 12.3199 1.8616 12.1949C1.98663 12.0698 2.1562 11.9996 2.33301 11.9996H3.66634C3.84315 11.9996 4.01272 12.0698 4.13775 12.1949C4.26277 12.3199 4.33301 12.4894 4.33301 12.6663V13.9996Z" fill="black"/>
</g>
<defs>
<clipPath id="clip0_483_13639">
<rect width="16" height="16" fill="white" transform="translate(0.333008)"/>
</clipPath>
</defs>
</svg>
