<svg width="17" height="16" viewBox="0 0 17 16" fill="none" xmlns="http://www.w3.org/2000/svg">
<g clip-path="url(#clip0_482_18064)">
<path d="M13.411 3.69093L11.087 1.36693C10.6547 0.932313 10.1405 0.587743 9.57421 0.353156C9.00788 0.118569 8.40066 -0.00137623 7.78767 0.000260671H4.77767C3.89394 0.00131924 3.04671 0.352849 2.42182 0.977741C1.79692 1.60263 1.44539 2.44986 1.44434 3.33359V12.6669C1.44539 13.5507 1.79692 14.3979 2.42182 15.0228C3.04671 15.6477 3.89394 15.9992 4.77767 16.0003H11.4443C12.3281 15.9992 13.1753 15.6477 13.8002 15.0228C14.4251 14.3979 14.7766 13.5507 14.7777 12.6669V6.99026C14.7793 6.37727 14.6594 5.77005 14.4248 5.20372C14.1902 4.63739 13.8456 4.12321 13.411 3.69093ZM12.4683 4.63359C12.6717 4.8432 12.8467 5.07853 12.989 5.33359H10.111C9.93419 5.33359 9.76462 5.26336 9.6396 5.13833C9.51457 5.01331 9.44434 4.84374 9.44434 4.66693V1.78893C9.6994 1.93118 9.93473 2.10623 10.1443 2.30959L12.4683 4.63359ZM13.4443 12.6669C13.4443 13.1974 13.2336 13.7061 12.8585 14.0811C12.4835 14.4562 11.9748 14.6669 11.4443 14.6669H4.77767C4.24724 14.6669 3.73853 14.4562 3.36346 14.0811C2.98838 13.7061 2.77767 13.1974 2.77767 12.6669V3.33359C2.77767 2.80316 2.98838 2.29445 3.36346 1.91938C3.73853 1.54431 4.24724 1.33359 4.77767 1.33359H7.78767C7.89767 1.33359 8.003 1.35493 8.111 1.36493V4.66693C8.111 5.19736 8.32172 5.70607 8.69679 6.08114C9.07186 6.45621 9.58057 6.66693 10.111 6.66693H13.413C13.423 6.77493 13.4443 6.88026 13.4443 6.99026V12.6669ZM11.2603 8.87426C11.3821 9.00232 11.448 9.17346 11.4436 9.35009C11.4392 9.52672 11.3649 9.69439 11.237 9.81626L8.84434 12.0923C8.46823 12.4624 7.96106 12.669 7.43333 12.6669C6.90561 12.6647 6.40012 12.4541 6.027 12.0809L5.00034 11.1649C4.86826 11.0472 4.78837 10.8818 4.77824 10.7051C4.77323 10.6176 4.78549 10.53 4.81433 10.4473C4.84317 10.3646 4.88803 10.2883 4.94634 10.2229C5.00464 10.1575 5.07526 10.1043 5.15416 10.0661C5.23305 10.028 5.31868 10.0058 5.40615 10.0008C5.58281 9.99071 5.75626 10.0512 5.88834 10.1689L6.945 11.1116C7.00549 11.1795 7.07925 11.2344 7.16172 11.2727C7.2442 11.3111 7.33365 11.3322 7.42457 11.3347C7.5155 11.3372 7.60597 11.321 7.69043 11.2872C7.77489 11.2535 7.85154 11.2028 7.91567 11.1383L10.3157 8.85093C10.3791 8.79025 10.454 8.7427 10.5358 8.71102C10.6177 8.67934 10.7051 8.66415 10.7928 8.66632C10.8806 8.66848 10.9671 8.68797 11.0473 8.72366C11.1276 8.75934 11.1999 8.81052 11.2603 8.87426Z" fill="black"/>
</g>
<defs>
<clipPath id="clip0_482_18064">
<rect width="16" height="16" fill="white" transform="translate(0.111328)"/>
</clipPath>
</defs>
</svg>
