<svg width="17" height="16" viewBox="0 0 17 16" fill="none" xmlns="http://www.w3.org/2000/svg">
<g clip-path="url(#clip0_482_18108)">
<path d="M10.487 5.13333C10.4257 5.07074 10.3774 4.99668 10.3447 4.9154C10.312 4.83411 10.2957 4.74719 10.2966 4.6596C10.2976 4.572 10.3157 4.48544 10.3501 4.40487C10.3845 4.3243 10.4344 4.25128 10.497 4.19C10.5596 4.12872 10.6336 4.08036 10.7149 4.0477C10.7962 4.01503 10.8831 3.9987 10.9707 3.99963C11.0583 4.00056 11.1449 4.01873 11.2255 4.05311C11.306 4.08749 11.379 4.1374 11.4403 4.2L12.667 5.454V0.666667C12.667 0.489856 12.7372 0.320286 12.8623 0.195262C12.9873 0.0702379 13.1568 0 13.3337 0C13.5105 0 13.68 0.0702379 13.8051 0.195262C13.9301 0.320286 14.0003 0.489856 14.0003 0.666667V5.454L15.227 4.2C15.3508 4.07358 15.5197 4.0015 15.6966 3.99963C15.8735 3.99775 16.0439 4.06623 16.1703 4.19C16.2967 4.31377 16.3688 4.48269 16.3707 4.6596C16.3726 4.8365 16.3041 5.00691 16.1803 5.13333L14.5037 6.84667C14.1958 7.15601 13.7781 7.33097 13.3417 7.33333C13.3375 7.33435 13.3332 7.33435 13.329 7.33333C13.1135 7.33339 12.9001 7.29091 12.701 7.20831C12.5019 7.12571 12.3212 7.00463 12.169 6.852L10.487 5.13333ZM16.0003 7.33333C15.8235 7.33333 15.6539 7.40357 15.5289 7.5286C15.4039 7.65362 15.3337 7.82319 15.3337 8V12.6667C15.3337 13.1971 15.1229 13.7058 14.7479 14.0809C14.3728 14.456 13.8641 14.6667 13.3337 14.6667H4.00033C3.46989 14.6667 2.96118 14.456 2.58611 14.0809C2.21104 13.7058 2.00033 13.1971 2.00033 12.6667V6.04733L6.31033 10.3573C6.9364 10.9771 7.78137 11.3252 8.66229 11.3265C9.54321 11.3277 10.3892 10.9819 11.017 10.364L12.2717 9.14467C12.3355 9.08389 12.3866 9.01107 12.4221 8.93041C12.4575 8.84976 12.4767 8.76287 12.4784 8.67477C12.4801 8.58667 12.4643 8.49911 12.4319 8.41715C12.3995 8.33519 12.3513 8.26046 12.2898 8.19728C12.2284 8.1341 12.1551 8.08372 12.0741 8.04906C11.9931 8.0144 11.906 7.99614 11.8179 7.99533C11.7298 7.99453 11.6424 8.01121 11.5607 8.04439C11.4791 8.07758 11.4049 8.12661 11.3423 8.18867L10.081 9.41467C9.69987 9.77797 9.19353 9.98064 8.66699 9.98064C8.14045 9.98064 7.63412 9.77797 7.25299 9.41467L2.24099 4.4C2.40952 4.07903 2.6624 3.81009 2.9724 3.62214C3.28241 3.43419 3.6378 3.33434 4.00033 3.33333H8.66699C8.8438 3.33333 9.01337 3.2631 9.1384 3.13807C9.26342 3.01305 9.33366 2.84348 9.33366 2.66667C9.33366 2.48986 9.26342 2.32029 9.1384 2.19526C9.01337 2.07024 8.8438 2 8.66699 2H4.00033C3.1166 2.00106 2.26936 2.35259 1.64447 2.97748C1.01958 3.60237 0.668051 4.4496 0.666992 5.33333L0.666992 12.6667C0.668051 13.5504 1.01958 14.3976 1.64447 15.0225C2.26936 15.6474 3.1166 15.9989 4.00033 16H13.3337C14.2174 15.9989 15.0646 15.6474 15.6895 15.0225C16.3144 14.3976 16.6659 13.5504 16.667 12.6667V8C16.667 7.82319 16.5968 7.65362 16.4717 7.5286C16.3467 7.40357 16.1771 7.33333 16.0003 7.33333Z" fill="black"/>
</g>
<defs>
<clipPath id="clip0_482_18108">
<rect width="16" height="16" fill="white" transform="translate(0.666992)"/>
</clipPath>
</defs>
</svg>
