<svg width="17" height="16" viewBox="0 0 17 16" fill="none" xmlns="http://www.w3.org/2000/svg">
<g clip-path="url(#clip0_483_13879)">
<path d="M13.8888 0.00684133C11.3474 0.00684133 8.47209 1.36551 6.19609 3.64084C3.90723 5.91006 2.06665 8.59042 0.77076 11.5415C0.558869 12.0317 0.499663 12.5744 0.600869 13.0987C0.702075 13.6231 0.958993 14.1047 1.33809 14.4808L2.07543 15.2175C2.45083 15.5957 2.93139 15.8522 3.45457 15.9535C3.97775 16.0548 4.51931 15.9963 5.00876 15.7855C7.96166 14.4915 10.6431 12.6505 12.9114 10.3595C15.1901 8.08417 16.5488 5.20884 16.5488 2.66684C16.5862 2.30832 16.5432 1.94594 16.4228 1.60617C16.3024 1.2664 16.1076 0.957804 15.8527 0.702906C15.5978 0.448008 15.2892 0.25324 14.9494 0.132817C14.6097 0.0123938 14.2473 -0.030645 13.8888 0.00684133ZM11.9721 9.41684C9.82403 11.5875 7.28502 13.3326 4.48876 14.5602C4.26642 14.6512 4.02365 14.6807 3.78598 14.6455C3.5483 14.6103 3.3245 14.5118 3.13809 14.3602L11.6934 5.80484C11.7571 5.74334 11.8079 5.66978 11.8428 5.58844C11.8778 5.50711 11.8962 5.41963 11.8969 5.33111C11.8977 5.24259 11.8808 5.1548 11.8473 5.07287C11.8138 4.99094 11.7643 4.91651 11.7017 4.85391C11.6391 4.79132 11.5647 4.74181 11.4827 4.70829C11.4008 4.67477 11.313 4.6579 11.2245 4.65867C11.136 4.65944 11.0485 4.67783 10.9672 4.71277C10.8858 4.74771 10.8123 4.7985 10.7508 4.86217L2.19343 13.4195C2.04165 13.2329 1.94298 13.0089 1.90778 12.771C1.87258 12.533 1.90217 12.29 1.99343 12.0675C3.22282 9.27157 4.96843 6.73254 7.13876 4.58351C9.53076 2.19217 12.1941 1.34017 13.8888 1.34017C14.8561 1.34017 15.2154 1.69951 15.2154 2.66684C15.2154 4.36217 14.3634 7.02551 11.9721 9.41684Z" fill="black"/>
</g>
<defs>
<clipPath id="clip0_483_13879">
<rect width="16" height="16" fill="white" transform="translate(0.555664)"/>
</clipPath>
</defs>
</svg>
