<svg width="17" height="16" viewBox="0 0 17 16" fill="none" xmlns="http://www.w3.org/2000/svg">
<g clip-path="url(#clip0_483_13771)">
<path d="M15.889 12H13.889V6C13.8879 5.11627 13.5364 4.26904 12.9115 3.64415C12.2866 3.01925 11.4394 2.66773 10.5557 2.66667H4.55566V0.666667C4.55566 0.489856 4.48543 0.320286 4.3604 0.195262C4.23538 0.0702379 4.06581 0 3.889 0C3.71219 0 3.54262 0.0702379 3.41759 0.195262C3.29257 0.320286 3.22233 0.489856 3.22233 0.666667V2.66667H1.22233C1.04552 2.66667 0.87595 2.7369 0.750926 2.86193C0.625902 2.98695 0.555664 3.15652 0.555664 3.33333C0.555664 3.51014 0.625902 3.67971 0.750926 3.80474C0.87595 3.92976 1.04552 4 1.22233 4H3.22233V10C3.22339 10.8837 3.57492 11.731 4.19981 12.3559C4.8247 12.9807 5.67193 13.3323 6.55566 13.3333H12.5557V15.3333C12.5557 15.5101 12.6259 15.6797 12.7509 15.8047C12.8759 15.9298 13.0455 16 13.2223 16C13.3991 16 13.5687 15.9298 13.6937 15.8047C13.8188 15.6797 13.889 15.5101 13.889 15.3333V13.3333H15.889C16.0658 13.3333 16.2354 13.2631 16.3604 13.1381C16.4854 13.013 16.5557 12.8435 16.5557 12.6667C16.5557 12.4899 16.4854 12.3203 16.3604 12.1953C16.2354 12.0702 16.0658 12 15.889 12ZM6.55566 12C6.02523 12 5.51652 11.7893 5.14145 11.4142C4.76638 11.0391 4.55566 10.5304 4.55566 10V4H10.5557C11.0861 4 11.5948 4.21071 11.9699 4.58579C12.345 4.96086 12.5557 5.46957 12.5557 6V12H6.55566Z" fill="black"/>
</g>
<defs>
<clipPath id="clip0_483_13771">
<rect width="16" height="16" fill="white" transform="translate(0.555664)"/>
</clipPath>
</defs>
</svg>
