<svg width="17" height="16" viewBox="0 0 17 16" fill="none" xmlns="http://www.w3.org/2000/svg">
<path d="M10.5554 11.3333C10.5554 11.5101 10.4852 11.6796 10.3601 11.8047C10.2351 11.9297 10.0655 11.9999 9.88873 11.9999H7.22206C7.04525 11.9999 6.87568 11.9297 6.75065 11.8047C6.62563 11.6796 6.55539 11.5101 6.55539 11.3333C6.55539 11.1564 6.62563 10.9869 6.75065 10.8618C6.87568 10.7368 7.04525 10.6666 7.22206 10.6666H9.88873C10.0655 10.6666 10.2351 10.7368 10.3601 10.8618C10.4852 10.9869 10.5554 11.1564 10.5554 11.3333ZM10.3601 4.86193C10.235 4.73695 10.0655 4.66674 9.88873 4.66674C9.71195 4.66674 9.54241 4.73695 9.41739 4.86193L8.55539 5.72393L7.69339 4.86193C7.63189 4.79825 7.55833 4.74747 7.47699 4.71253C7.39566 4.67759 7.30818 4.6592 7.21966 4.65843C7.13114 4.65766 7.04335 4.67453 6.96142 4.70805C6.87949 4.74157 6.80506 4.79107 6.74246 4.85366C6.67987 4.91626 6.63037 4.99069 6.59684 5.07262C6.56332 5.15455 6.54646 5.24234 6.54722 5.33086C6.54799 5.41938 6.56639 5.50686 6.60132 5.5882C6.63626 5.66953 6.68705 5.74309 6.75073 5.80459L7.61273 6.66659L6.75073 7.52859C6.68705 7.59009 6.63626 7.66365 6.60132 7.74499C6.56639 7.82632 6.54799 7.9138 6.54722 8.00232C6.54646 8.09084 6.56332 8.17863 6.59684 8.26056C6.63037 8.34249 6.67987 8.41692 6.74246 8.47952C6.80506 8.54211 6.87949 8.59162 6.96142 8.62514C7.04335 8.65866 7.13114 8.67552 7.21966 8.67476C7.30818 8.67399 7.39566 8.6556 7.47699 8.62066C7.55833 8.58572 7.63189 8.53493 7.69339 8.47126L8.55539 7.60926L9.41739 8.47126C9.54313 8.59269 9.71153 8.65989 9.88633 8.65837C10.0611 8.65685 10.2283 8.58674 10.3519 8.46313C10.4755 8.33953 10.5457 8.17232 10.5472 7.99752C10.5487 7.82273 10.4815 7.65432 10.3601 7.52859L9.49806 6.66659L10.3601 5.80459C10.485 5.67957 10.5552 5.51004 10.5552 5.33326C10.5552 5.15648 10.485 4.98695 10.3601 4.86193ZM15.2221 10.6666H12.5554C12.3786 10.6666 12.209 10.7368 12.084 10.8618C11.959 10.9869 11.8887 11.1564 11.8887 11.3333C11.8887 11.5101 11.959 11.6796 12.084 11.8047C12.209 11.9297 12.3786 11.9999 12.5554 11.9999H15.2221C15.3989 11.9999 15.5684 11.9297 15.6935 11.8047C15.8185 11.6796 15.8887 11.5101 15.8887 11.3333C15.8887 11.1564 15.8185 10.9869 15.6935 10.8618C15.5684 10.7368 15.3989 10.6666 15.2221 10.6666ZM14.8314 6.66659L15.6934 5.80459C15.7571 5.74309 15.8079 5.66953 15.8428 5.5882C15.8777 5.50686 15.8961 5.41938 15.8969 5.33086C15.8977 5.24234 15.8808 5.15455 15.8473 5.07262C15.8138 4.99069 15.7643 4.91626 15.7017 4.85366C15.6391 4.79107 15.5646 4.74157 15.4827 4.70805C15.4008 4.67453 15.313 4.65766 15.2245 4.65843C15.1359 4.6592 15.0485 4.67759 14.9671 4.71253C14.8858 4.74747 14.8122 4.79825 14.7507 4.86193L13.8887 5.72393L13.0267 4.86193C12.9652 4.79825 12.8917 4.74747 12.8103 4.71253C12.729 4.67759 12.6415 4.6592 12.553 4.65843C12.4645 4.65766 12.3767 4.67453 12.2948 4.70805C12.2128 4.74157 12.1384 4.79107 12.0758 4.85366C12.0132 4.91626 11.9637 4.99069 11.9302 5.07262C11.8967 5.15455 11.8798 5.24234 11.8806 5.33086C11.8813 5.41938 11.8997 5.50686 11.9347 5.5882C11.9696 5.66953 12.0204 5.74309 12.0841 5.80459L12.9461 6.66659L12.0841 7.52859C12.0204 7.59009 11.9696 7.66365 11.9347 7.74499C11.8997 7.82632 11.8813 7.9138 11.8806 8.00232C11.8798 8.09084 11.8967 8.17863 11.9302 8.26056C11.9637 8.34249 12.0132 8.41692 12.0758 8.47952C12.1384 8.54211 12.2128 8.59162 12.2948 8.62514C12.3767 8.65866 12.4645 8.67552 12.553 8.67476C12.6415 8.67399 12.729 8.6556 12.8103 8.62066C12.8917 8.58572 12.9652 8.53493 13.0267 8.47126L13.8887 7.60926L14.7507 8.47126C14.8765 8.59269 15.0449 8.65989 15.2197 8.65837C15.3945 8.65685 15.5617 8.58674 15.6853 8.46313C15.8089 8.33953 15.879 8.17232 15.8805 7.99752C15.882 7.82273 15.8148 7.65432 15.6934 7.52859L14.8314 6.66659ZM4.55539 10.6666H1.88873C1.71191 10.6666 1.54235 10.7368 1.41732 10.8618C1.2923 10.9869 1.22206 11.1564 1.22206 11.3333C1.22206 11.5101 1.2923 11.6796 1.41732 11.8047C1.54235 11.9297 1.71191 11.9999 1.88873 11.9999H4.55539C4.7322 11.9999 4.90177 11.9297 5.0268 11.8047C5.15182 11.6796 5.22206 11.5101 5.22206 11.3333C5.22206 11.1564 5.15182 10.9869 5.0268 10.8618C4.90177 10.7368 4.7322 10.6666 4.55539 10.6666ZM5.02673 4.86193C4.90171 4.73695 4.73217 4.66674 4.55539 4.66674C4.37862 4.66674 4.20908 4.73695 4.08406 4.86193L3.22206 5.72393L2.36006 4.86193C2.29856 4.79825 2.225 4.74747 2.14366 4.71253C2.06233 4.67759 1.97485 4.6592 1.88633 4.65843C1.79781 4.65766 1.71002 4.67453 1.62809 4.70805C1.54616 4.74157 1.47172 4.79107 1.40913 4.85366C1.34653 4.91626 1.29703 4.99069 1.26351 5.07262C1.22999 5.15455 1.21312 5.24234 1.21389 5.33086C1.21466 5.41938 1.23305 5.50686 1.26799 5.5882C1.30293 5.66953 1.35372 5.74309 1.41739 5.80459L2.27939 6.66659L1.41739 7.52859C1.35372 7.59009 1.30293 7.66365 1.26799 7.74499C1.23305 7.82632 1.21466 7.9138 1.21389 8.00232C1.21312 8.09084 1.22999 8.17863 1.26351 8.26056C1.29703 8.34249 1.34653 8.41692 1.40913 8.47952C1.47172 8.54211 1.54616 8.59162 1.62809 8.62514C1.71002 8.65866 1.79781 8.67552 1.88633 8.67476C1.97485 8.67399 2.06233 8.6556 2.14366 8.62066C2.225 8.58572 2.29856 8.53493 2.36006 8.47126L3.22206 7.60926L4.08406 8.47126C4.14556 8.53493 4.21912 8.58572 4.30046 8.62066C4.38179 8.6556 4.46927 8.67399 4.55779 8.67476C4.64631 8.67552 4.7341 8.65866 4.81603 8.62514C4.89796 8.59162 4.97239 8.54211 5.03499 8.47952C5.09758 8.41692 5.14709 8.34249 5.18061 8.26056C5.21413 8.17863 5.231 8.09084 5.23023 8.00232C5.22946 7.9138 5.21107 7.82632 5.17613 7.74499C5.14119 7.66365 5.0904 7.59009 5.02673 7.52859L4.16473 6.66659L5.02673 5.80459C5.15171 5.67957 5.22192 5.51004 5.22192 5.33326C5.22192 5.15648 5.15171 4.98695 5.02673 4.86193Z" fill="black"/>
</svg>
