<svg width="17" height="16" viewBox="0 0 17 16" fill="none" xmlns="http://www.w3.org/2000/svg">
<g clip-path="url(#clip0_482_18067)">
<path d="M14.588 12.242C13.8244 13.1678 12.825 13.8704 11.6953 14.2755C10.5656 14.6806 9.34751 14.7732 8.16955 14.5436C6.99159 14.314 5.89745 13.7707 5.00259 12.971C4.10773 12.1713 3.44535 11.1448 3.08533 9.99997H10.1113C10.2881 9.99997 10.4577 9.92974 10.5827 9.80471C10.7078 9.67969 10.778 9.51012 10.778 9.33331C10.778 9.1565 10.7078 8.98693 10.5827 8.8619C10.4577 8.73688 10.2881 8.66664 10.1113 8.66664H2.81199C2.76666 8.22335 2.76666 7.7766 2.81199 7.33331H10.1113C10.2881 7.33331 10.4577 7.26307 10.5827 7.13805C10.7078 7.01302 10.778 6.84346 10.778 6.66664C10.778 6.48983 10.7078 6.32026 10.5827 6.19524C10.4577 6.07022 10.2881 5.99998 10.1113 5.99998H3.08533C3.44535 4.85512 4.10773 3.82868 5.00259 3.02897C5.89745 2.22926 6.99159 1.68594 8.16955 1.45634C9.34751 1.22674 10.5656 1.31939 11.6953 1.72449C12.825 2.12959 13.8244 2.83214 14.588 3.75798C14.6438 3.82548 14.7123 3.88133 14.7896 3.92235C14.867 3.96337 14.9517 3.98876 15.0388 3.99705C15.126 4.00535 15.2139 3.99639 15.2976 3.9707C15.3813 3.94501 15.4592 3.90308 15.5267 3.84731C15.5942 3.79155 15.65 3.72303 15.691 3.64568C15.7321 3.56832 15.7574 3.48365 15.7657 3.39648C15.774 3.30932 15.7651 3.22138 15.7394 3.13767C15.7137 3.05397 15.6718 2.97615 15.616 2.90865C14.6778 1.77151 13.4433 0.916018 12.0491 0.436781C10.655 -0.0424553 9.15541 -0.126763 7.71631 0.193183C6.27721 0.513128 4.95464 1.22486 3.89485 2.24967C2.83507 3.27447 2.07937 4.57242 1.71133 5.99998H0.777995C0.601184 5.99998 0.431615 6.07022 0.30659 6.19524C0.181566 6.32026 0.111328 6.48983 0.111328 6.66664C0.111328 6.84346 0.181566 7.01302 0.30659 7.13805C0.431615 7.26307 0.601184 7.33331 0.777995 7.33331H1.47866C1.45999 7.55398 1.44466 7.77464 1.44466 7.99998C1.44466 8.22531 1.45999 8.44598 1.47866 8.66664H0.777995C0.601184 8.66664 0.431615 8.73688 0.30659 8.8619C0.181566 8.98693 0.111328 9.1565 0.111328 9.33331C0.111328 9.51012 0.181566 9.67969 0.30659 9.80471C0.431615 9.92974 0.601184 9.99997 0.777995 9.99997H1.71133C2.07895 11.4283 2.83461 12.727 3.89465 13.7524C4.95469 14.7778 6.27779 15.4899 7.7175 15.8099C9.15721 16.1299 10.6574 16.0454 12.052 15.5655C13.4466 15.0857 14.6813 14.2294 15.6193 13.0913C15.732 12.955 15.7858 12.7795 15.7691 12.6035C15.7523 12.4274 15.6663 12.2653 15.53 12.1526C15.3937 12.04 15.2182 11.9861 15.0422 12.0029C14.8661 12.0197 14.704 12.1056 14.5913 12.242H14.588Z" fill="black"/>
</g>
<defs>
<clipPath id="clip0_482_18067">
<rect width="16" height="16" fill="white" transform="translate(0.111328)"/>
</clipPath>
</defs>
</svg>
