<svg width="16" height="16" viewBox="0 0 16 16" fill="none" xmlns="http://www.w3.org/2000/svg">
<g clip-path="url(#clip0_483_13635)">
<path d="M0 7.99954C0 7.82273 0.0702379 7.65316 0.195262 7.52813C0.320286 7.40311 0.489856 7.33287 0.666667 7.33287H4.66667C4.84348 7.33287 5.01305 7.40311 5.13807 7.52813C5.2631 7.65316 5.33333 7.82273 5.33333 7.99954C5.33333 8.17635 5.2631 8.34592 5.13807 8.47094C5.01305 8.59596 4.84348 8.6662 4.66667 8.6662H0.666667C0.489856 8.6662 0.320286 8.59596 0.195262 8.47094C0.0702379 8.34592 0 8.17635 0 7.99954ZM13.924 7.4042C14.2563 6.98896 14.4842 6.5001 14.5886 5.97861C14.693 5.45712 14.6708 4.91819 14.524 4.40703C14.3771 3.89587 14.1099 3.42737 13.7446 3.04081C13.3793 2.65425 12.9267 2.36091 12.4246 2.18537C11.9226 2.00983 11.3858 1.95722 10.8592 2.03195C10.3327 2.10667 9.83171 2.30656 9.39834 2.61484C8.96496 2.92313 8.61182 3.33082 8.36851 3.80374C8.12521 4.27667 7.99884 4.80103 8 5.33287C8 5.50968 8.07024 5.67925 8.19526 5.80427C8.32029 5.9293 8.48986 5.99954 8.66667 5.99954C8.84348 5.99954 9.01305 5.9293 9.13807 5.80427C9.2631 5.67925 9.33333 5.50968 9.33333 5.33287C9.33333 4.93731 9.45063 4.55063 9.67039 4.22173C9.89016 3.89283 10.2025 3.63649 10.568 3.48511C10.9334 3.33373 11.3356 3.29413 11.7235 3.3713C12.1115 3.44847 12.4678 3.63895 12.7475 3.91866C13.0273 4.19836 13.2177 4.55473 13.2949 4.94269C13.3721 5.33065 13.3325 5.73278 13.1811 6.09824C13.0297 6.46369 12.7734 6.77605 12.4445 6.99581C12.1156 7.21557 11.7289 7.33287 11.3333 7.33287H7.33333C7.15652 7.33287 6.98695 7.40311 6.86193 7.52813C6.73691 7.65316 6.66667 7.82273 6.66667 7.99954C6.66667 8.17635 6.73691 8.34592 6.86193 8.47094C6.98695 8.59596 7.15652 8.6662 7.33333 8.6662H13.3333C13.687 8.6662 14.0261 8.80668 14.2761 9.05673C14.5262 9.30678 14.6667 9.64591 14.6667 9.99954C14.6607 11.5575 12.4793 11.7649 11.962 10.4442C11.9031 10.2775 11.7804 10.141 11.6209 10.0647C11.4614 9.98843 11.2781 9.97866 11.1113 10.0375C10.9446 10.0964 10.8081 10.2191 10.7318 10.3786C10.6556 10.5382 10.6458 10.7215 10.7047 10.8882C11.7433 13.6095 15.968 13.0522 16 9.99954C15.9988 9.39582 15.7929 8.81036 15.4158 8.33891C15.0386 7.86746 14.5127 7.53793 13.924 7.4042ZM7.33333 10.6662H0.666667C0.489856 10.6662 0.320286 10.7364 0.195262 10.8615C0.0702379 10.9865 0 11.1561 0 11.3329C0 11.5097 0.0702379 11.6793 0.195262 11.8043C0.320286 11.9293 0.489856 11.9995 0.666667 11.9995H7.33333C7.68696 11.9995 8.02609 12.14 8.27614 12.3901C8.52619 12.6401 8.66667 12.9792 8.66667 13.3329C8.66067 14.8909 6.47933 15.0982 5.962 13.7775C5.93285 13.695 5.88772 13.619 5.82919 13.5539C5.77066 13.4887 5.69988 13.4358 5.62089 13.398C5.5419 13.3603 5.45624 13.3384 5.36881 13.3338C5.28138 13.3291 5.19389 13.3417 5.11133 13.3709C5.02878 13.4 4.95277 13.4452 4.88765 13.5037C4.82254 13.5622 4.76958 13.633 4.73182 13.712C4.69406 13.791 4.67222 13.8766 4.66757 13.9641C4.66291 14.0515 4.67551 14.139 4.70467 14.2215C5.74333 16.9429 9.968 16.3855 10 13.3329C10 12.6256 9.71905 11.9473 9.21895 11.4473C8.71885 10.9472 8.04058 10.6662 7.33333 10.6662ZM0.666667 5.33287H4.66667C5.37391 5.33287 6.05219 5.05192 6.55229 4.55182C7.05238 4.05172 7.33333 3.37345 7.33333 2.6662C7.30133 -0.387798 3.07533 -0.943131 2.038 1.77754C1.97912 1.94427 1.98889 2.12756 2.06515 2.28709C2.14142 2.44662 2.27793 2.56932 2.44467 2.6282C2.6114 2.68708 2.79469 2.67731 2.95422 2.60105C3.11375 2.52478 3.23646 2.38827 3.29533 2.22154C3.81333 0.900202 5.994 1.1082 6 2.6662C6 3.01982 5.85952 3.35896 5.60948 3.60901C5.35943 3.85906 5.02029 3.99954 4.66667 3.99954H0.666667C0.489856 3.99954 0.320286 4.06977 0.195262 4.1948C0.0702379 4.31982 0 4.48939 0 4.6662C0 4.84301 0.0702379 5.01258 0.195262 5.13761C0.320286 5.26263 0.489856 5.33287 0.666667 5.33287Z" fill="black"/>
</g>
<defs>
<clipPath id="clip0_483_13635">
<rect width="16" height="16" fill="white"/>
</clipPath>
</defs>
</svg>
