<svg width="17" height="16" viewBox="0 0 17 16" fill="none" xmlns="http://www.w3.org/2000/svg">
<g clip-path="url(#clip0_483_13684)">
<path d="M16.8887 6C16.8902 5.63299 16.7907 5.27263 16.6011 4.9584C16.4114 4.64417 16.139 4.38817 15.8136 4.21844C15.4882 4.04871 15.1224 3.9718 14.7561 3.99612C14.3899 4.02044 14.0375 4.14506 13.7374 4.35634C13.4373 4.56761 13.2011 4.85739 13.0547 5.19394C12.9083 5.53049 12.8573 5.90084 12.9074 6.26443C12.9574 6.62802 13.1065 6.97082 13.3384 7.25531C13.5703 7.5398 13.876 7.75499 14.222 7.87733V10.6667C14.222 11.7275 13.8006 12.7449 13.0504 13.4951C12.3003 14.2452 11.2829 14.6667 10.222 14.6667C9.16114 14.6667 8.14372 14.2452 7.39358 13.4951C6.64343 12.7449 6.22201 11.7275 6.22201 10.6667V10.6133C7.33139 10.4524 8.34588 9.89777 9.08025 9.05081C9.81461 8.20384 10.2199 7.121 10.222 6V3.33333C10.2209 2.4496 9.86942 1.60237 9.24453 0.97748C8.61963 0.352588 7.7724 0.00105857 6.88867 0C6.71186 0 6.54229 0.0702379 6.41727 0.195262C6.29224 0.320286 6.22201 0.489856 6.22201 0.666667C6.22201 0.843478 6.29224 1.01305 6.41727 1.13807C6.54229 1.2631 6.71186 1.33333 6.88867 1.33333C7.41911 1.33333 7.92781 1.54405 8.30289 1.91912C8.67796 2.29419 8.88867 2.8029 8.88867 3.33333V6C8.88867 6.88406 8.53748 7.7319 7.91236 8.35702C7.28724 8.98214 6.43939 9.33333 5.55534 9.33333C4.67128 9.33333 3.82344 8.98214 3.19832 8.35702C2.57319 7.7319 2.22201 6.88406 2.22201 6V3.33333C2.22201 2.8029 2.43272 2.29419 2.80779 1.91912C3.18286 1.54405 3.69157 1.33333 4.22201 1.33333C4.39882 1.33333 4.56839 1.2631 4.69341 1.13807C4.81843 1.01305 4.88867 0.843478 4.88867 0.666667C4.88867 0.489856 4.81843 0.320286 4.69341 0.195262C4.56839 0.0702379 4.39882 0 4.22201 0C3.33828 0.00105857 2.49104 0.352588 1.86615 0.97748C1.24126 1.60237 0.88973 2.4496 0.888672 3.33333L0.888672 6C0.890816 7.121 1.29607 8.20384 2.03043 9.05081C2.7648 9.89777 3.77929 10.4524 4.88867 10.6133V10.6667C4.88867 12.0812 5.45057 13.4377 6.45077 14.4379C7.45096 15.4381 8.80752 16 10.222 16C11.6365 16 12.993 15.4381 13.9932 14.4379C14.9934 13.4377 15.5553 12.0812 15.5553 10.6667V7.87733C15.9439 7.73994 16.2806 7.48585 16.5193 7.1498C16.7579 6.81375 16.887 6.41217 16.8887 6ZM14.8887 6.66667C14.7568 6.66667 14.6279 6.62757 14.5183 6.55431C14.4087 6.48106 14.3232 6.37694 14.2728 6.25512C14.2223 6.13331 14.2091 5.99926 14.2348 5.86994C14.2605 5.74062 14.324 5.62183 14.4173 5.5286C14.5105 5.43536 14.6293 5.37187 14.7586 5.34614C14.8879 5.32042 15.022 5.33362 15.1438 5.38408C15.2656 5.43454 15.3697 5.51999 15.443 5.62962C15.5162 5.73925 15.5553 5.86815 15.5553 6C15.5553 6.17681 15.4851 6.34638 15.3601 6.4714C15.2351 6.59643 15.0655 6.66667 14.8887 6.66667Z" fill="black"/>
</g>
<defs>
<clipPath id="clip0_483_13684">
<rect width="16" height="16" fill="white" transform="translate(0.888672)"/>
</clipPath>
</defs>
</svg>
