<svg width="16" height="16" viewBox="0 0 16 16" fill="none" xmlns="http://www.w3.org/2000/svg">
<g clip-path="url(#clip0_482_18025)">
<path d="M7.88733 16C7.79959 16.0005 7.71262 15.9837 7.63139 15.9506C7.55017 15.9174 7.47629 15.8685 7.414 15.8067C7.35151 15.7447 7.30191 15.671 7.26807 15.5898C7.23422 15.5085 7.2168 15.4214 7.2168 15.3334C7.2168 15.2454 7.23422 15.1582 7.26807 15.077C7.30191 14.9958 7.35151 14.922 7.414 14.86L12.8607 9.41338C13.2352 9.03837 13.4456 8.53004 13.4456 8.00004C13.4456 7.47004 13.2352 6.96171 12.8607 6.58671L7.414 1.14004C7.35184 1.07788 7.30253 1.00409 7.26889 0.922875C7.23525 0.84166 7.21793 0.754615 7.21793 0.666709C7.21793 0.489174 7.28846 0.318911 7.414 0.193376C7.53953 0.0678397 7.70979 -0.00268555 7.88733 -0.00268555C8.06486 -0.00268555 8.23513 0.0678397 8.36066 0.193376L13.8073 5.64004C14.1177 5.94968 14.364 6.31752 14.5321 6.72248C14.7001 7.12745 14.7866 7.56159 14.7866 8.00004C14.7866 8.43849 14.7001 8.87263 14.5321 9.2776C14.364 9.68257 14.1177 10.0504 13.8073 10.36L8.36066 15.8067C8.29837 15.8685 8.22449 15.9174 8.14327 15.9506C8.06204 15.9837 7.97507 16.0005 7.88733 16Z" fill="black"/>
<path d="M1.21936 16C1.13162 16.0005 1.04465 15.9837 0.963423 15.9506C0.882198 15.9174 0.80832 15.8685 0.746027 15.8067C0.683541 15.7447 0.633945 15.671 0.600099 15.5898C0.566254 15.5085 0.548828 15.4214 0.548828 15.3334C0.548828 15.2454 0.566254 15.1582 0.600099 15.077C0.633945 14.9958 0.683541 14.922 0.746027 14.86L7.13936 8.47338C7.20185 8.4114 7.25144 8.33767 7.28529 8.25643C7.31913 8.17519 7.33656 8.08805 7.33656 8.00004C7.33656 7.91203 7.31913 7.8249 7.28529 7.74366C7.25144 7.66242 7.20185 7.58868 7.13936 7.52671L0.746027 1.14004C0.620491 1.01451 0.549966 0.844243 0.549966 0.666709C0.549966 0.489174 0.620491 0.318911 0.746027 0.193376C0.871563 0.0678397 1.04183 -0.00268555 1.21936 -0.00268555C1.39689 -0.00268555 1.56716 0.0678397 1.69269 0.193376L8.07936 6.58671C8.4539 6.96171 8.66427 7.47004 8.66427 8.00004C8.66427 8.53004 8.4539 9.03837 8.07936 9.41338L1.69269 15.8067C1.6304 15.8685 1.55652 15.9174 1.4753 15.9506C1.39407 15.9837 1.3071 16.0005 1.21936 16Z" fill="black"/>
</g>
<defs>
<clipPath id="clip0_482_18025">
<rect width="16" height="16" fill="white"/>
</clipPath>
</defs>
</svg>
