<svg width="17" height="16" viewBox="0 0 17 16" fill="none" xmlns="http://www.w3.org/2000/svg">
<g clip-path="url(#clip0_482_18117)">
<path d="M13.378 2.06074C13.296 1.70851 13.1433 1.37663 12.929 1.08529C12.7148 0.793944 12.4435 0.549224 12.1317 0.366012C11.8199 0.182799 11.4741 0.064921 11.1153 0.0195468C10.7565 -0.0258274 10.3923 0.00225026 10.0447 0.102072L8.89533 0.430739C8.60418 0.514419 8.33602 0.663551 8.11133 0.866739C7.88664 0.663551 7.61848 0.514419 7.32733 0.430739L6.178 0.102072C5.83062 0.00277053 5.46669 -0.0249068 5.10829 0.0207201C4.74989 0.066347 4.4045 0.184327 4.09308 0.367498C3.78167 0.550669 3.51072 0.795211 3.29669 1.08628C3.08266 1.37735 2.93 1.70888 2.84799 2.06074C2.08119 2.20025 1.38752 2.60404 0.88755 3.20194C0.38758 3.79983 0.112925 4.55402 0.111328 5.33341L0.111328 10.0001C0.112387 10.8838 0.463916 11.731 1.08881 12.3559C1.7137 12.9808 2.56093 13.3323 3.44466 13.3334H7.44466V14.6667H5.44466C5.26785 14.6667 5.09828 14.737 4.97326 14.862C4.84823 14.987 4.778 15.1566 4.778 15.3334C4.778 15.5102 4.84823 15.6798 4.97326 15.8048C5.09828 15.9298 5.26785 16.0001 5.44466 16.0001H10.778C10.9548 16.0001 11.1244 15.9298 11.2494 15.8048C11.3744 15.6798 11.4447 15.5102 11.4447 15.3334C11.4447 15.1566 11.3744 14.987 11.2494 14.862C11.1244 14.737 10.9548 14.6667 10.778 14.6667H8.778V13.3334H12.778C13.6617 13.3323 14.509 12.9808 15.1338 12.3559C15.7587 11.731 16.1103 10.8838 16.1113 10.0001V5.33341C16.1099 4.5545 15.8357 3.80069 15.3364 3.20286C14.8371 2.60504 14.1442 2.20094 13.378 2.06074ZM8.778 2.35407C8.77806 2.20928 8.82526 2.06845 8.91246 1.95286C8.99966 1.83728 9.12212 1.75322 9.26133 1.71341L10.4113 1.38474C10.6098 1.32798 10.8187 1.31806 11.0216 1.35578C11.2246 1.3935 11.416 1.47782 11.5808 1.60211C11.7456 1.72639 11.8793 1.88724 11.9714 2.07198C12.0634 2.25673 12.1113 2.46033 12.1113 2.66674V5.29207C12.1104 5.58137 12.0157 5.86258 11.8414 6.09348C11.6671 6.32439 11.4226 6.49256 11.1447 6.57274L8.778 7.24874V2.35407ZM4.64466 1.60007C4.80915 1.47624 5.00016 1.39233 5.20263 1.35496C5.40509 1.31759 5.61348 1.32779 5.81133 1.38474L6.96133 1.71341C7.10054 1.75322 7.223 1.83728 7.3102 1.95286C7.3974 2.06845 7.4446 2.20928 7.44466 2.35407V7.24874L5.07799 6.57274C4.80002 6.49256 4.55555 6.32439 4.38126 6.09348C4.20697 5.86258 4.11225 5.58137 4.11133 5.29207V2.66674C4.11065 2.45963 4.15855 2.25524 4.25117 2.06999C4.34379 1.88475 4.47857 1.7238 4.64466 1.60007ZM14.778 10.0001C14.778 10.5305 14.5673 11.0392 14.1922 11.4143C13.8171 11.7894 13.3084 12.0001 12.778 12.0001H3.44466C2.91423 12.0001 2.40552 11.7894 2.03045 11.4143C1.65538 11.0392 1.44466 10.5305 1.44466 10.0001V5.33341C1.44637 4.92123 1.57538 4.51965 1.81405 4.18361C2.05272 3.84756 2.38939 3.59346 2.77799 3.45607V5.29207C2.77963 5.87097 2.96894 6.43372 3.31753 6.8959C3.66611 7.35807 4.15517 7.69475 4.71133 7.85541L7.01199 8.51341C7.73101 8.71836 8.49298 8.71836 9.212 8.51341L11.5127 7.85541C12.0686 7.69451 12.5573 7.35773 12.9057 6.89557C13.254 6.43342 13.4431 5.87079 13.4447 5.29207V3.45607C13.8333 3.59346 14.1699 3.84756 14.4086 4.18361C14.6473 4.51965 14.7763 4.92123 14.778 5.33341V10.0001Z" fill="black"/>
</g>
<defs>
<clipPath id="clip0_482_18117">
<rect width="16" height="16" fill="white" transform="translate(0.111328)"/>
</clipPath>
</defs>
</svg>
