<svg width="17" height="16" viewBox="0 0 17 16" fill="none" xmlns="http://www.w3.org/2000/svg">
<g clip-path="url(#clip0_483_13806)">
<path d="M10.1114 8.66693C9.91362 8.66693 9.72028 8.60828 9.55583 8.4984C9.39138 8.38852 9.26321 8.23234 9.18752 8.04961C9.11183 7.86688 9.09203 7.66582 9.13061 7.47184C9.1692 7.27786 9.26444 7.09967 9.40429 6.95982C9.54414 6.81997 9.72233 6.72473 9.91631 6.68614C10.1103 6.64756 10.3114 6.66736 10.4941 6.74305C10.6768 6.81874 10.833 6.94691 10.9429 7.11136C11.0527 7.27581 11.1114 7.46915 11.1114 7.66693C11.1114 7.93214 11.006 8.1865 10.8185 8.37403C10.631 8.56157 10.3766 8.66693 10.1114 8.66693ZM15.0121 5.51626C14.7444 3.96966 13.9383 2.56758 12.7364 1.55809C11.5345 0.548606 10.0143 -0.00321676 8.44473 0.000260474C3.84473 0.000260474 2.5274 3.11626 1.6574 5.17826C1.48099 5.76169 1.18109 6.30033 0.778064 6.75759C0.65767 6.82781 0.562311 6.93399 0.505393 7.06122C0.448475 7.18844 0.43286 7.3303 0.460746 7.46686C0.488631 7.60341 0.558612 7.72779 0.660852 7.82252C0.763091 7.91724 0.892447 7.97753 1.03073 7.99493C2.6786 8.1335 4.33595 7.88228 5.86873 7.26159C5.78416 7.44901 5.75942 7.65794 5.79787 7.85992C5.83633 8.06191 5.93611 8.24713 6.08363 8.39036C6.23115 8.53359 6.41923 8.62786 6.62226 8.66034C6.82529 8.69282 7.0334 8.66193 7.21824 8.57187C7.40308 8.48181 7.55567 8.33696 7.65521 8.15705C7.75476 7.97714 7.79643 7.77092 7.77455 7.56648C7.75267 7.36203 7.6683 7.1693 7.53293 7.01454C7.39756 6.85977 7.21778 6.7505 7.01806 6.70159C8.3278 5.96789 9.45673 4.95035 10.3221 3.72359C10.377 3.65267 10.417 3.57139 10.4398 3.48462C10.4625 3.39786 10.4676 3.3074 10.4545 3.21865C10.4415 3.1299 10.4107 3.04469 10.364 2.96813C10.3172 2.89156 10.2555 2.82522 10.1825 2.77307C10.1096 2.72091 10.0268 2.68402 9.93924 2.6646C9.85167 2.64519 9.76108 2.64364 9.67289 2.66006C9.58471 2.67648 9.50074 2.71053 9.42603 2.76016C9.35131 2.8098 9.28738 2.874 9.23806 2.94893C8.46062 4.04349 7.44574 4.94809 6.26933 5.59506C5.09293 6.24202 3.78546 6.6146 2.44473 6.68493C2.59606 6.38293 2.73673 6.04759 2.88606 5.69626C3.70606 3.75226 4.72673 1.33359 8.44473 1.33359C9.76195 1.33044 11.0335 1.8162 12.0131 2.69679C12.9927 3.57738 13.6107 4.79015 13.7474 6.10026C13.7627 6.2435 13.8239 6.37795 13.922 6.48347C14.02 6.58898 14.1497 6.6599 14.2914 6.68559C14.5343 6.7331 14.7509 6.86899 14.8994 7.06698C15.0479 7.26497 15.1177 7.511 15.0953 7.75747C15.073 8.00395 14.96 8.23337 14.7782 8.40136C14.5965 8.56935 14.3589 8.66397 14.1114 8.66693C14.055 8.66536 13.9988 8.65934 13.9434 8.64893C13.7879 8.62058 13.6274 8.64874 13.4909 8.72832C13.3543 8.8079 13.2507 8.93367 13.1987 9.08293C12.5881 10.8143 10.5327 12.6669 8.44473 12.6669C6.5114 12.6669 4.7114 11.1449 3.93406 9.64093C3.85273 9.48392 3.71236 9.36565 3.54383 9.31214C3.37529 9.25863 3.19241 9.27426 3.0354 9.35559C2.87839 9.43693 2.76012 9.5773 2.70661 9.74583C2.6531 9.91437 2.66873 10.0973 2.75006 10.2543C3.44101 11.5435 4.49342 12.6028 5.77806 13.3023V15.3336C5.77806 15.5104 5.8483 15.68 5.97333 15.805C6.09835 15.93 6.26792 16.0003 6.44473 16.0003C6.62154 16.0003 6.79111 15.93 6.91614 15.805C7.04116 15.68 7.1114 15.5104 7.1114 15.3336V13.8256C7.9848 14.0603 8.90466 14.0603 9.77806 13.8256V15.3336C9.77806 15.5104 9.8483 15.68 9.97333 15.805C10.0984 15.93 10.2679 16.0003 10.4447 16.0003C10.6215 16.0003 10.7911 15.93 10.9161 15.805C11.0412 15.68 11.1114 15.5104 11.1114 15.3336V13.3029C12.4875 12.5631 13.5924 11.4045 14.2661 9.99493C14.7899 9.95918 15.2864 9.74778 15.6753 9.39491C16.0641 9.04204 16.3226 8.56833 16.4088 8.05038C16.4951 7.53243 16.4042 7.00052 16.1507 6.54066C15.8972 6.0808 15.4961 5.71988 15.0121 5.51626Z" fill="black"/>
</g>
<defs>
<clipPath id="clip0_483_13806">
<rect width="16" height="16" fill="white" transform="translate(0.444336)"/>
</clipPath>
</defs>
</svg>
