<svg width="17" height="16" viewBox="0 0 17 16" fill="none" xmlns="http://www.w3.org/2000/svg">
<path d="M13.0292 5.47332C12.9672 5.41084 12.8935 5.36124 12.8123 5.32739C12.731 5.29355 12.6439 5.27612 12.5559 5.27612C12.4679 5.27612 12.3807 5.29355 12.2995 5.32739C12.2182 5.36124 12.1445 5.41084 12.0825 5.47332L9.0292 8.52665C8.96723 8.58913 8.89349 8.63873 8.81225 8.67258C8.73101 8.70642 8.64388 8.72385 8.55587 8.72385C8.46786 8.72385 8.38072 8.70642 8.29948 8.67258C8.21824 8.63873 8.14451 8.58913 8.08253 8.52665L5.0292 5.47332C4.96722 5.41084 4.89349 5.36124 4.81225 5.32739C4.73101 5.29355 4.64387 5.27612 4.55587 5.27612C4.46786 5.27612 4.38072 5.29355 4.29948 5.32739C4.21824 5.36124 4.14451 5.41084 4.08253 5.47332C3.95837 5.59823 3.88867 5.7672 3.88867 5.94332C3.88867 6.11944 3.95837 6.28841 4.08253 6.41332L7.14253 9.47331C7.51753 9.84785 8.02587 10.0582 8.55587 10.0582C9.08587 10.0582 9.5942 9.84785 9.9692 9.47331L13.0292 6.41332C13.1534 6.28841 13.2231 6.11944 13.2231 5.94332C13.2231 5.7672 13.1534 5.59823 13.0292 5.47332Z" fill="black"/>
</svg>
