<svg width="17" height="16" viewBox="0 0 17 16" fill="none" xmlns="http://www.w3.org/2000/svg">
<g clip-path="url(#clip0_483_13878)">
<path d="M13.556 4.66667H12.3973C12.7743 4.3344 13.0735 3.92325 13.2737 3.4624C13.4739 3.00154 13.5703 2.50227 13.556 2C13.556 1.82319 13.4858 1.65362 13.3607 1.5286C13.2357 1.40357 13.0661 1.33333 12.8893 1.33333C12.7125 1.33333 12.5429 1.40357 12.4179 1.5286C12.2929 1.65362 12.2227 1.82319 12.2227 2C12.2227 3.748 10.642 4.35333 9.43999 4.56067C9.88365 3.77404 10.1507 2.90025 10.2227 2C10.2227 1.46957 10.0119 0.960859 9.63687 0.585786C9.2618 0.210714 8.75309 0 8.22266 0C7.69222 0 7.18352 0.210714 6.80844 0.585786C6.43337 0.960859 6.22266 1.46957 6.22266 2C6.29459 2.90025 6.56167 3.77404 7.00532 4.56067C5.80332 4.35333 4.22266 3.748 4.22266 2C4.22266 1.82319 4.15242 1.65362 4.02739 1.5286C3.90237 1.40357 3.7328 1.33333 3.55599 1.33333C3.37918 1.33333 3.20961 1.40357 3.08459 1.5286C2.95956 1.65362 2.88932 1.82319 2.88932 2C2.875 2.50227 2.97137 3.00154 3.17161 3.4624C3.37185 3.92325 3.67105 4.3344 4.04799 4.66667H2.88932C2.18208 4.66667 1.5038 4.94762 1.0037 5.44772C0.503608 5.94781 0.222656 6.62609 0.222656 7.33333L0.222656 8C0.222656 8.35362 0.363132 8.69276 0.613181 8.94281C0.863229 9.19286 1.20237 9.33333 1.55599 9.33333V12.6667C1.55705 13.5504 1.90858 14.3976 2.53347 15.0225C3.15836 15.6474 4.00559 15.9989 4.88932 16H11.556C12.4397 15.9989 13.287 15.6474 13.9118 15.0225C14.5367 14.3976 14.8883 13.5504 14.8893 12.6667V9.33333C15.2429 9.33333 15.5821 9.19286 15.8321 8.94281C16.0822 8.69276 16.2227 8.35362 16.2227 8V7.33333C16.2227 6.62609 15.9417 5.94781 15.4416 5.44772C14.9415 4.94762 14.2632 4.66667 13.556 4.66667ZM8.22266 1.33333C8.39947 1.33333 8.56904 1.40357 8.69406 1.5286C8.81909 1.65362 8.88932 1.82319 8.88932 2C8.80884 2.70855 8.58181 3.39261 8.22266 4.00867C7.8635 3.39261 7.63647 2.70855 7.55599 2C7.55599 1.82319 7.62623 1.65362 7.75125 1.5286C7.87628 1.40357 8.04585 1.33333 8.22266 1.33333ZM1.55599 7.33333C1.55599 6.97971 1.69647 6.64057 1.94651 6.39052C2.19656 6.14048 2.5357 6 2.88932 6H7.55599V8H1.55599V7.33333ZM2.88932 12.6667V9.33333H7.55599V14.6667H4.88932C4.35889 14.6667 3.85018 14.456 3.47511 14.0809C3.10004 13.7058 2.88932 13.1971 2.88932 12.6667ZM13.556 12.6667C13.556 13.1971 13.3453 13.7058 12.9702 14.0809C12.5951 14.456 12.0864 14.6667 11.556 14.6667H8.88932V9.33333H13.556V12.6667ZM8.88932 8V6H13.556C13.9096 6 14.2488 6.14048 14.4988 6.39052C14.7488 6.64057 14.8893 6.97971 14.8893 7.33333V8H8.88932Z" fill="black"/>
</g>
<defs>
<clipPath id="clip0_483_13878">
<rect width="16" height="16" fill="white" transform="translate(0.222656)"/>
</clipPath>
</defs>
</svg>
