<svg width="17" height="16" viewBox="0 0 17 16" fill="none" xmlns="http://www.w3.org/2000/svg">
<g clip-path="url(#clip0_483_13787)">
<path d="M14.4521 0H11.1318C10.7651 0 10.4678 0.297812 10.4678 0.665156C10.4678 1.0325 10.7651 1.33031 11.1318 1.33031H14.1772L9.64033 5.87472C7.18495 3.93472 3.62436 4.35581 1.68757 6.81525C-0.249211 9.27469 0.171164 12.8411 2.62654 14.7811C5.08192 16.7211 8.64252 16.3 10.5793 13.8406C12.2015 11.7807 12.2015 8.87519 10.5793 6.81528L15.1162 2.27087V5.32131C15.1162 5.68869 15.4136 5.98647 15.7803 5.98647C16.1471 5.98647 16.4444 5.68866 16.4444 5.32131V1.9955C16.4444 0.893406 15.5524 0 14.4521 0ZM6.1513 14.6336C3.76739 14.6336 1.83485 12.6979 1.83485 10.31C1.83485 7.92219 3.76739 5.98647 6.1513 5.98647C8.53521 5.98647 10.4677 7.92219 10.4677 10.31C10.4648 12.6967 8.53399 14.6307 6.1513 14.6336Z" fill="black"/>
</g>
<defs>
<clipPath id="clip0_483_13787">
<rect width="16" height="16" fill="white" transform="translate(0.444336)"/>
</clipPath>
</defs>
</svg>
