<svg width="17" height="16" viewBox="0 0 17 16" fill="none" xmlns="http://www.w3.org/2000/svg">
<g clip-path="url(#clip0_483_13651)">
<path d="M6.33301 6C6.33301 5.82319 6.40325 5.65362 6.52827 5.5286C6.65329 5.40357 6.82286 5.33333 6.99967 5.33333H7.66634V4.66667C7.66634 4.48986 7.73658 4.32029 7.8616 4.19526C7.98663 4.07024 8.1562 4 8.33301 4C8.50982 4 8.67939 4.07024 8.80441 4.19526C8.92944 4.32029 8.99967 4.48986 8.99967 4.66667V5.33333H9.66634C9.84315 5.33333 10.0127 5.40357 10.1377 5.5286C10.2628 5.65362 10.333 5.82319 10.333 6C10.333 6.17681 10.2628 6.34638 10.1377 6.4714C10.0127 6.59643 9.84315 6.66667 9.66634 6.66667H8.99967V7.33333C8.99967 7.51014 8.92944 7.67971 8.80441 7.80474C8.67939 7.92976 8.50982 8 8.33301 8C8.1562 8 7.98663 7.92976 7.8616 7.80474C7.73658 7.67971 7.66634 7.51014 7.66634 7.33333V6.66667H6.99967C6.82286 6.66667 6.65329 6.59643 6.52827 6.4714C6.40325 6.34638 6.33301 6.17681 6.33301 6ZM10.9997 9.33333H5.66634C5.48953 9.33333 5.31996 9.40357 5.19494 9.5286C5.06991 9.65362 4.99967 9.82319 4.99967 10C4.99967 10.1768 5.06991 10.3464 5.19494 10.4714C5.31996 10.5964 5.48953 10.6667 5.66634 10.6667H10.9997C11.1765 10.6667 11.3461 10.5964 11.4711 10.4714C11.5961 10.3464 11.6663 10.1768 11.6663 10C11.6663 9.82319 11.5961 9.65362 11.4711 9.5286C11.3461 9.40357 11.1765 9.33333 10.9997 9.33333ZM8.33301 12H5.66634C5.48953 12 5.31996 12.0702 5.19494 12.1953C5.06991 12.3203 4.99967 12.4899 4.99967 12.6667C4.99967 12.8435 5.06991 13.013 5.19494 13.1381C5.31996 13.2631 5.48953 13.3333 5.66634 13.3333H8.33301C8.50982 13.3333 8.67939 13.2631 8.80441 13.1381C8.92944 13.013 8.99967 12.8435 8.99967 12.6667C8.99967 12.4899 8.92944 12.3203 8.80441 12.1953C8.67939 12.0702 8.50982 12 8.33301 12ZM14.333 4.66667V12.6667C14.3319 13.5504 13.9804 14.3976 13.3555 15.0225C12.7306 15.6474 11.8834 15.9989 10.9997 16H5.66634C4.78261 15.9989 3.93538 15.6474 3.31049 15.0225C2.6856 14.3976 2.33407 13.5504 2.33301 12.6667V4.66667C2.33407 3.78294 2.6856 2.93571 3.31049 2.31081C3.93538 1.68592 4.78261 1.33439 5.66634 1.33333H5.78034C5.91873 0.943661 6.17427 0.60634 6.51193 0.367629C6.84959 0.128917 7.25283 0.000504499 7.66634 0L8.99967 0C9.41319 0.000504499 9.81643 0.128917 10.1541 0.367629C10.4917 0.60634 10.7473 0.943661 10.8857 1.33333H10.9997C11.8834 1.33439 12.7306 1.68592 13.3555 2.31081C13.9804 2.93571 14.3319 3.78294 14.333 4.66667ZM12.9997 4.66667C12.9997 4.13623 12.789 3.62753 12.4139 3.25245C12.0388 2.87738 11.5301 2.66667 10.9997 2.66667H10.333C10.1562 2.66667 9.98663 2.59643 9.8616 2.4714C9.73658 2.34638 9.66634 2.17681 9.66634 2C9.66634 1.82319 9.5961 1.65362 9.47108 1.5286C9.34606 1.40357 9.17649 1.33333 8.99967 1.33333H7.66634C7.48953 1.33333 7.31996 1.40357 7.19494 1.5286C7.06991 1.65362 6.99967 1.82319 6.99967 2C6.99967 2.17681 6.92944 2.34638 6.80441 2.4714C6.67939 2.59643 6.50982 2.66667 6.33301 2.66667H5.66634C5.13591 2.66667 4.6272 2.87738 4.25213 3.25245C3.87705 3.62753 3.66634 4.13623 3.66634 4.66667V12.6667C3.66634 13.1971 3.87705 13.7058 4.25213 14.0809C4.6272 14.456 5.13591 14.6667 5.66634 14.6667H10.9997C11.5301 14.6667 12.0388 14.456 12.4139 14.0809C12.789 13.7058 12.9997 13.1971 12.9997 12.6667V4.66667Z" fill="black"/>
</g>
<defs>
<clipPath id="clip0_483_13651">
<rect width="16" height="16" fill="white" transform="translate(0.333008)"/>
</clipPath>
</defs>
</svg>
