<svg width="17" height="16" viewBox="0 0 17 16" fill="none" xmlns="http://www.w3.org/2000/svg">
<path d="M6.11363 8.88154L7.63788 7.35729L6.11363 5.83304C5.84957 5.57801 5.84222 5.15716 6.09729 4.8931C6.35232 4.62904 6.77316 4.62169 7.03722 4.87676C7.04275 4.8821 7.04822 4.88757 7.05357 4.8931L8.57782 6.41735L10.1021 4.8931C10.3571 4.62904 10.7779 4.62173 11.042 4.87679C11.3061 5.13185 11.3134 5.55266 11.0583 5.81673C11.053 5.82226 11.0475 5.82769 11.042 5.83304L9.51776 7.35729L11.042 8.88154C11.3061 9.1366 11.3134 9.55741 11.0583 9.82147C10.8033 10.0855 10.3824 10.0928 10.1184 9.83779C10.1128 9.83244 10.1074 9.82701 10.1021 9.82147L8.57782 8.29722L7.05357 9.82147C6.78951 10.0765 6.36869 10.0692 6.11363 9.80516C5.86482 9.54757 5.86482 9.13916 6.11363 8.88154ZM3.4261 12.5456C0.536317 9.72469 0.480442 5.09526 3.30135 2.20544C6.12225 -0.684368 10.7517 -0.740211 13.6415 2.08069C13.6774 2.11576 13.7129 2.15119 13.7481 2.18698C16.6035 5.04251 16.6035 9.6721 13.7481 12.5276L11.0945 14.9798C9.68641 16.3436 7.44841 16.338 6.04716 14.9672L3.4261 12.5456ZM2.59519 7.35732C2.59085 8.94488 3.22182 10.4682 4.34744 11.5877L6.96319 14.0047C7.86122 14.8629 9.27379 14.8684 10.1785 14.0173L12.8268 11.5697C15.1583 9.22819 15.1501 5.44004 12.8086 3.10863C10.467 0.777226 6.67888 0.785382 4.34747 3.12691C3.22179 4.24641 2.59085 5.76976 2.59519 7.35732Z" fill="black"/>
</svg>
