<svg width="17" height="16" viewBox="0 0 17 16" fill="none" xmlns="http://www.w3.org/2000/svg">
<g clip-path="url(#clip0_482_17971)">
<path d="M13.3337 4.00004H9.33366C8.72487 4.00227 8.12838 4.17162 7.60924 4.48962C7.09009 4.80762 6.66823 5.26205 6.38966 5.80337C5.98992 5.4999 5.5022 5.33491 5.00033 5.33337C4.38149 5.33337 3.78799 5.57921 3.35041 6.01679C2.91283 6.45438 2.66699 7.04787 2.66699 7.66671C2.66894 8.01338 2.74892 8.35516 2.90099 8.66671H2.00033V2.00004C2.00033 1.82323 1.93009 1.65366 1.80506 1.52864C1.68004 1.40361 1.51047 1.33337 1.33366 1.33337C1.15685 1.33337 0.987279 1.40361 0.862254 1.52864C0.73723 1.65366 0.666992 1.82323 0.666992 2.00004L0.666992 14C0.666992 14.1769 0.73723 14.3464 0.862254 14.4714C0.987279 14.5965 1.15685 14.6667 1.33366 14.6667C1.51047 14.6667 1.68004 14.5965 1.80506 14.4714C1.93009 14.3464 2.00033 14.1769 2.00033 14V12.6667H15.3337V14C15.3337 14.1769 15.4039 14.3464 15.5289 14.4714C15.6539 14.5965 15.8235 14.6667 16.0003 14.6667C16.1771 14.6667 16.3467 14.5965 16.4717 14.4714C16.5968 14.3464 16.667 14.1769 16.667 14V7.33337C16.6659 6.44964 16.3144 5.60241 15.6895 4.97752C15.0646 4.35263 14.2174 4.0011 13.3337 4.00004ZM7.33366 7.33337C7.33366 6.80294 7.54437 6.29423 7.91945 5.91916C8.29452 5.54409 8.80323 5.33337 9.33366 5.33337H13.3337C13.8641 5.33337 14.3728 5.54409 14.7479 5.91916C15.1229 6.29423 15.3337 6.80294 15.3337 7.33337V8.66671H7.33366V7.33337ZM4.00033 7.66671C4.00033 7.46893 4.05897 7.27559 4.16886 7.11114C4.27874 6.94669 4.43492 6.81852 4.61764 6.74283C4.80037 6.66714 5.00143 6.64734 5.19542 6.68592C5.3894 6.72451 5.56758 6.81975 5.70743 6.9596C5.84729 7.09945 5.94253 7.27764 5.98111 7.47162C6.0197 7.6656 5.99989 7.86667 5.92421 8.04939C5.84852 8.23212 5.72035 8.3883 5.5559 8.49818C5.39145 8.60806 5.19811 8.66671 5.00033 8.66671C4.73511 8.66671 4.48076 8.56135 4.29322 8.37382C4.10568 8.18628 4.00033 7.93192 4.00033 7.66671ZM2.00033 11.3334V10H15.3337V11.3334H2.00033Z" fill="black"/>
</g>
<defs>
<clipPath id="clip0_482_17971">
<rect width="16" height="16" fill="white" transform="translate(0.666992)"/>
</clipPath>
</defs>
</svg>
