<svg width="17" height="16" viewBox="0 0 17 16" fill="none" xmlns="http://www.w3.org/2000/svg">
<g clip-path="url(#clip0_482_17972)">
<path d="M8.55827 -0.00146484C4.13318 -0.00146484 0.545898 3.58582 0.545898 8.01091C0.545898 12.436 4.13318 16.0233 8.55827 16.0233C12.9834 16.0233 16.5706 12.436 16.5706 8.01091C16.5706 3.58582 12.9834 -0.00146484 8.55827 -0.00146484ZM15.1847 7.29466L15.1814 7.292C13.8908 7.15813 12.668 6.64813 11.6647 5.82535L13.7114 3.77869C14.536 4.78129 15.0482 6.00375 15.1847 7.29466ZM12.7661 2.83535L10.7221 4.88535C9.89902 3.88225 9.38899 2.65935 9.25543 1.36869C10.5437 1.50432 11.7642 2.01416 12.7661 2.83535ZM7.92474 1.36535C8.06437 3.01116 8.7128 4.57272 9.78009 5.83335L8.55609 7.05735L4.34009 2.84135C5.36146 2.00357 6.60962 1.48966 7.92474 1.36535ZM3.39712 3.78438L3.39409 3.78135L3.39743 3.784C3.3973 3.78413 3.39721 3.78425 3.39712 3.78438L7.61343 8L6.38877 9.22466C5.1289 8.15694 3.56768 7.50822 1.92212 7.36866C2.04618 6.05375 2.55977 4.80575 3.39712 3.78438ZM1.92743 8.70535V8.70269C3.21809 8.83625 4.44099 9.34628 5.44409 10.1693L3.39743 12.216C2.57505 11.2145 2.06402 9.994 1.92743 8.70535ZM4.34274 13.1587L6.38674 11.112C7.2098 12.1151 7.71984 13.338 7.8534 14.6287C6.56474 14.4921 5.34427 13.981 4.34274 13.1587ZM9.18743 14.6347C9.04802 12.9888 8.39927 11.4274 7.33143 10.1673L8.55609 8.94266L12.7721 13.1587C11.7509 13.9967 10.5026 14.5107 9.18743 14.6347ZM13.7134 12.216L9.49874 8L10.7227 6.776C11.983 7.84304 13.5441 8.49147 15.1894 8.63135C15.0651 9.94647 14.5512 11.1946 13.7134 12.216Z" fill="black"/>
</g>
<defs>
<clipPath id="clip0_482_17972">
<rect width="16" height="16" fill="white" transform="translate(0.555664)"/>
</clipPath>
</defs>
</svg>
