<svg width="17" height="16" viewBox="0 0 17 16" fill="none" xmlns="http://www.w3.org/2000/svg">
<path d="M4.60625 10.6667H12.0596C12.1914 10.6661 12.3202 10.6265 12.4295 10.5528C12.5388 10.4791 12.6238 10.3746 12.6738 10.2526C12.7237 10.1306 12.7364 9.99648 12.7101 9.86727C12.6839 9.73806 12.6199 9.61954 12.5263 9.52669L8.80625 5.8067C8.74428 5.74421 8.67055 5.69461 8.58931 5.66077C8.50807 5.62692 8.42093 5.6095 8.33292 5.6095C8.24491 5.6095 8.15778 5.62692 8.07654 5.66077C7.9953 5.69461 7.92156 5.74421 7.85959 5.8067L4.13959 9.52669C4.04597 9.61954 3.98199 9.73806 3.95574 9.86727C3.92948 9.99648 3.94213 10.1306 3.99208 10.2526C4.04203 10.3746 4.12704 10.4791 4.23636 10.5528C4.34568 10.6265 4.47441 10.6661 4.60625 10.6667Z" fill="black"/>
</svg>
