<svg width="17" height="16" viewBox="0 0 17 16" fill="none" xmlns="http://www.w3.org/2000/svg">
<g clip-path="url(#clip0_482_17981)">
<path d="M13.3862 5.71553C13.3862 5.69972 13.3862 5.68391 13.3862 5.66741C13.3862 2.75525 11.0254 0.39447 8.11329 0.39447C5.20113 0.39447 2.84035 2.75525 2.84035 5.66741C2.84035 5.68388 2.84035 5.69969 2.84035 5.71553C0.291008 7.12319 -0.634522 10.331 0.773134 12.8803C2.18079 15.4297 5.38857 16.3552 7.93791 14.9476C7.99701 14.9149 8.05551 14.8812 8.11332 14.8463C10.6067 16.3508 13.8477 15.5491 15.3522 13.0557C16.8567 10.5623 16.055 7.32134 13.5616 5.81684C13.5038 5.78194 13.4453 5.74816 13.3862 5.71553ZM8.11329 13.2295C7.4042 12.596 6.94738 11.728 6.8267 10.7848C7.67051 10.9962 8.55341 10.9962 9.39726 10.7848C9.27651 11.7264 8.8207 12.5931 8.11329 13.2262V13.2295ZM8.11329 9.62213C7.69716 9.62234 7.2836 9.55672 6.88798 9.42769C7.06782 8.61966 7.49632 7.88825 8.11329 7.33631C8.73026 7.88825 9.15876 8.61966 9.3386 9.42769C8.94298 9.55672 8.52941 9.62234 8.11329 9.62213ZM5.6917 8.79163C4.9622 8.22666 4.45282 7.42472 4.25154 6.52428C5.1382 6.23553 6.09835 6.26938 6.96248 6.61984C6.37001 7.23075 5.93401 7.97585 5.6917 8.79163ZM9.2641 6.61653C10.1282 6.26606 11.0884 6.23222 11.975 6.52097C11.7744 7.42263 11.265 8.22585 10.5349 8.79163C10.293 7.97466 9.85704 7.22838 9.2641 6.61653ZM8.11329 1.71272C10.103 1.71528 11.782 3.19369 12.0364 5.16716C10.707 4.83335 9.29991 5.03028 8.11329 5.71619C6.92666 5.03025 5.51957 4.83335 4.19023 5.16716C4.44454 3.19372 6.12354 1.71528 8.11329 1.71272ZM1.52213 10.2812C1.52226 9.05872 2.08835 7.90513 3.05523 7.157C3.43991 8.45403 4.30635 9.55466 5.47682 10.2331C5.47682 10.2489 5.47682 10.2647 5.47682 10.2812C5.4761 11.6496 6.00907 12.9643 6.96248 13.9459C4.93832 14.7664 2.63229 13.7907 1.81179 11.7665C1.62054 11.2947 1.52216 10.7904 1.52213 10.2812ZM10.7498 14.2359C10.2404 14.2363 9.73592 14.1378 9.2641 13.9459C10.2175 12.9643 10.7505 11.6496 10.7498 10.2813C10.7498 10.2648 10.7498 10.249 10.7498 10.2331C11.9205 9.55481 12.7872 8.45416 13.172 7.15703C14.8975 8.49613 15.2107 10.9804 13.8716 12.7059C13.1229 13.6705 11.9708 14.2352 10.7498 14.2359Z" fill="black"/>
</g>
<defs>
<clipPath id="clip0_482_17981">
<rect width="16" height="16" fill="white" transform="translate(0.111328)"/>
</clipPath>
</defs>
</svg>
