<svg width="17" height="16" viewBox="0 0 17 16" fill="none" xmlns="http://www.w3.org/2000/svg">
<path d="M14.2223 2.66667H12.1557C12.0009 1.91428 11.5915 1.23823 10.9965 0.752479C10.4015 0.266727 9.65713 0.000969683 8.889 0L7.55566 0C6.78753 0.000969683 6.04321 0.266727 5.44816 0.752479C4.85312 1.23823 4.44373 1.91428 4.289 2.66667H2.22233C2.04552 2.66667 1.87595 2.7369 1.75093 2.86193C1.6259 2.98695 1.55566 3.15652 1.55566 3.33333C1.55566 3.51014 1.6259 3.67971 1.75093 3.80474C1.87595 3.92976 2.04552 4 2.22233 4H2.889V12.6667C2.89006 13.5504 3.24159 14.3976 3.86648 15.0225C4.49137 15.6474 5.3386 15.9989 6.22233 16H10.2223C11.1061 15.9989 11.9533 15.6474 12.5782 15.0225C13.2031 14.3976 13.5546 13.5504 13.5557 12.6667V4H14.2223C14.3991 4 14.5687 3.92976 14.6937 3.80474C14.8188 3.67971 14.889 3.51014 14.889 3.33333C14.889 3.15652 14.8188 2.98695 14.6937 2.86193C14.5687 2.7369 14.3991 2.66667 14.2223 2.66667ZM7.55566 1.33333H8.889C9.30251 1.33384 9.70575 1.46225 10.0434 1.70096C10.3811 1.93967 10.6366 2.27699 10.775 2.66667H5.66966C5.80805 2.27699 6.0636 1.93967 6.40126 1.70096C6.73891 1.46225 7.14215 1.33384 7.55566 1.33333ZM12.2223 12.6667C12.2223 13.1971 12.0116 13.7058 11.6365 14.0809C11.2615 14.456 10.7528 14.6667 10.2223 14.6667H6.22233C5.6919 14.6667 5.18319 14.456 4.80812 14.0809C4.43304 13.7058 4.22233 13.1971 4.22233 12.6667V4H12.2223V12.6667Z" fill="black"/>
<path d="M6.88932 11.9996C7.06613 11.9996 7.2357 11.9293 7.36073 11.8043C7.48575 11.6793 7.55599 11.5097 7.55599 11.3329V7.33293C7.55599 7.15611 7.48575 6.98655 7.36073 6.86152C7.2357 6.7365 7.06613 6.66626 6.88932 6.66626C6.71251 6.66626 6.54294 6.7365 6.41792 6.86152C6.29289 6.98655 6.22266 7.15611 6.22266 7.33293V11.3329C6.22266 11.5097 6.29289 11.6793 6.41792 11.8043C6.54294 11.9293 6.71251 11.9996 6.88932 11.9996Z" fill="black"/>
<path d="M9.55632 11.9996C9.73313 11.9996 9.9027 11.9293 10.0277 11.8043C10.1528 11.6793 10.223 11.5097 10.223 11.3329V7.33293C10.223 7.15611 10.1528 6.98655 10.0277 6.86152C9.9027 6.7365 9.73313 6.66626 9.55632 6.66626C9.37951 6.66626 9.20994 6.7365 9.08491 6.86152C8.95989 6.98655 8.88965 7.15611 8.88965 7.33293V11.3329C8.88965 11.5097 8.95989 11.6793 9.08491 11.8043C9.20994 11.9293 9.37951 11.9996 9.55632 11.9996Z" fill="black"/>
</svg>
