<svg width="17" height="16" viewBox="0 0 17 16" fill="none" xmlns="http://www.w3.org/2000/svg">
<g clip-path="url(#clip0_483_13880)">
<path d="M15.6277 4.55794L14.1731 3.10261L14.8044 2.47128C14.8681 2.40978 14.9189 2.33621 14.9538 2.25488C14.9888 2.17354 15.0071 2.08606 15.0079 1.99754C15.0087 1.90902 14.9918 1.82124 14.9583 1.73931C14.9248 1.65737 14.8753 1.58294 14.8127 1.52035C14.7501 1.45775 14.6756 1.40825 14.5937 1.37473C14.5118 1.34121 14.424 1.32434 14.3355 1.32511C14.247 1.32588 14.1595 1.34427 14.0781 1.37921C13.9968 1.41415 13.9232 1.46493 13.8617 1.52861L13.2304 2.15994L11.7751 0.705275C11.3164 0.268157 10.707 0.0243225 10.0734 0.0243225C9.43978 0.0243225 8.83045 0.268157 8.37174 0.705275C8.14812 0.928719 7.97071 1.19404 7.84968 1.48608C7.72864 1.77812 7.66634 2.09115 7.66634 2.40728C7.66634 2.7234 7.72864 3.03643 7.84968 3.32847C7.97071 3.62051 8.14812 3.88583 8.37174 4.10928L9.82641 5.56394L5.89708 9.49327L4.44174 8.03861C3.98304 7.60149 3.37371 7.35766 2.74008 7.35766C2.10645 7.35766 1.49712 7.60149 1.03841 8.03861C0.814782 8.26205 0.63738 8.52738 0.516343 8.81941C0.395307 9.11145 0.333008 9.42448 0.333008 9.74061C0.333008 10.0567 0.395307 10.3698 0.516343 10.6618C0.63738 10.9538 0.814782 11.2192 1.03841 11.4426L2.49308 12.8973L1.86174 13.5286C1.79807 13.5901 1.74728 13.6637 1.71234 13.745C1.6774 13.8263 1.65901 13.9138 1.65824 14.0023C1.65747 14.0909 1.67434 14.1786 1.70786 14.2606C1.74138 14.3425 1.79089 14.4169 1.85348 14.4795C1.91608 14.5421 1.99051 14.5916 2.07244 14.6252C2.15437 14.6587 2.24216 14.6755 2.33068 14.6748C2.4192 14.674 2.50668 14.6556 2.58801 14.6207C2.66935 14.5857 2.74291 14.5349 2.80441 14.4713L3.43574 13.8399L4.89108 15.2946C5.11451 15.5181 5.37979 15.6955 5.67177 15.8164C5.96374 15.9374 6.2767 15.9997 6.59274 15.9997C6.90879 15.9997 7.22174 15.9374 7.51372 15.8164C7.8057 15.6955 8.07098 15.5181 8.29441 15.2946C8.51802 15.0712 8.69541 14.806 8.81643 14.514C8.93746 14.222 8.99976 13.909 8.99976 13.5929C8.99976 13.2769 8.93746 12.9639 8.81643 12.6719C8.69541 12.3799 8.51802 12.1147 8.29441 11.8913L6.83974 10.4366L10.7731 6.50661L12.2277 7.96128C12.4512 8.1848 12.7165 8.36212 13.0084 8.4831C13.3004 8.60408 13.6134 8.66634 13.9294 8.66634C14.2455 8.66634 14.5584 8.60408 14.8504 8.4831C15.1424 8.36212 15.4076 8.1848 15.6311 7.96128C15.8547 7.73789 16.0321 7.47262 16.1531 7.18064C16.2741 6.88866 16.3364 6.57568 16.3364 6.25961C16.3364 5.94354 16.2741 5.63056 16.1531 5.33858C16.0321 5.0466 15.8547 4.78133 15.6311 4.55794H15.6277ZM7.66641 13.5933C7.6667 13.7343 7.63904 13.8739 7.58503 14.0041C7.53102 14.1343 7.45173 14.2526 7.35174 14.3519C7.1474 14.5474 6.87552 14.6565 6.59274 14.6565C6.30996 14.6565 6.03808 14.5474 5.83374 14.3519L1.98108 10.4993C1.77978 10.298 1.66669 10.025 1.66669 9.74028C1.66669 9.4556 1.77978 9.18257 1.98108 8.98128C2.18238 8.77998 2.4554 8.66689 2.74008 8.66689C3.02476 8.66689 3.29778 8.77998 3.49908 8.98128L7.35174 12.8339C7.45181 12.9334 7.53114 13.0517 7.58516 13.1821C7.63917 13.3124 7.66679 13.4522 7.66641 13.5933ZM14.6851 7.01861C14.4807 7.21408 14.2089 7.32318 13.9261 7.32318C13.6433 7.32318 13.3714 7.21408 13.1671 7.01861L9.31441 3.16594C9.21474 3.06627 9.13567 2.94794 9.08173 2.81771C9.02779 2.68748 9.00002 2.5479 9.00002 2.40694C9.00002 2.12226 9.11311 1.84924 9.31441 1.64794C9.51571 1.44664 9.78873 1.33355 10.0734 1.33355C10.3581 1.33355 10.6311 1.44664 10.8324 1.64794L14.6851 5.50061C14.7848 5.60023 14.864 5.71855 14.918 5.84878C14.972 5.97902 14.9998 6.11862 14.9998 6.25961C14.9998 6.40059 14.972 6.5402 14.918 6.67043C14.864 6.80067 14.7848 6.91898 14.6851 7.01861Z" fill="black"/>
</g>
<defs>
<clipPath id="clip0_483_13880">
<rect width="16" height="16" fill="white" transform="translate(0.333008)"/>
</clipPath>
</defs>
</svg>
