<svg width="17" height="16" viewBox="0 0 17 16" fill="none" xmlns="http://www.w3.org/2000/svg">
<g clip-path="url(#clip0_482_18092)">
<path d="M16.181 6.27923C15.147 4.59523 12.795 1.7699 8.66703 1.7699C4.53903 1.7699 2.18703 4.59523 1.15303 6.27923C0.833378 6.79624 0.664063 7.39206 0.664062 7.9999C0.664062 8.60774 0.833378 9.20356 1.15303 9.72056C2.18703 11.4046 4.53903 14.2299 8.66703 14.2299C12.795 14.2299 15.147 11.4046 16.181 9.72056C16.5007 9.20356 16.67 8.60774 16.67 7.9999C16.67 7.39206 16.5007 6.79624 16.181 6.27923ZM15.0444 9.02256C14.1564 10.4666 12.1464 12.8966 8.66703 12.8966C5.18769 12.8966 3.17769 10.4666 2.28969 9.02256C2.09978 8.71526 1.99919 8.36115 1.99919 7.9999C1.99919 7.63865 2.09978 7.28453 2.28969 6.97723C3.17769 5.53323 5.18769 3.10323 8.66703 3.10323C12.1464 3.10323 14.1564 5.53056 15.0444 6.97723C15.2343 7.28453 15.3349 7.63865 15.3349 7.9999C15.3349 8.36115 15.2343 8.71526 15.0444 9.02256Z" fill="black"/>
<path d="M8.66732 4.6665C8.00805 4.6665 7.36358 4.862 6.81542 5.22827C6.26725 5.59454 5.84001 6.11514 5.58772 6.72423C5.33543 7.33331 5.26942 8.00354 5.39803 8.65014C5.52665 9.29674 5.84412 9.89069 6.3103 10.3569C6.77647 10.823 7.37041 11.1405 8.01702 11.2691C8.66362 11.3977 9.33384 11.3317 9.94293 11.0794C10.552 10.8271 11.0726 10.3999 11.4389 9.85174C11.8052 9.30357 12.0007 8.65911 12.0007 7.99984C11.9996 7.11611 11.6481 6.26888 11.0232 5.64398C10.3983 5.01909 9.55105 4.66756 8.66732 4.6665ZM8.66732 9.99984C8.27176 9.99984 7.88508 9.88254 7.55618 9.66278C7.22728 9.44301 6.97094 9.13066 6.81956 8.7652C6.66818 8.39975 6.62858 7.99762 6.70575 7.60966C6.78292 7.22169 6.9734 6.86533 7.25311 6.58562C7.53281 6.30592 7.88918 6.11544 8.27714 6.03827C8.6651 5.9611 9.06723 6.0007 9.43269 6.15208C9.79814 6.30345 10.1105 6.5598 10.3303 6.8887C10.55 7.2176 10.6673 7.60427 10.6673 7.99984C10.6673 8.53027 10.4566 9.03898 10.0815 9.41405C9.70646 9.78912 9.19775 9.99984 8.66732 9.99984Z" fill="black"/>
</g>
<defs>
<clipPath id="clip0_482_18092">
<rect width="16" height="16" fill="white" transform="translate(0.666992)"/>
</clipPath>
</defs>
</svg>
