<svg width="17" height="16" viewBox="0 0 17 16" fill="none" xmlns="http://www.w3.org/2000/svg">
<g clip-path="url(#clip0_482_17965)">
<path d="M6.11133 6.66671C6.11133 6.53485 6.15043 6.40596 6.22368 6.29633C6.29694 6.18669 6.40105 6.10125 6.52287 6.05079C6.64469 6.00033 6.77873 5.98713 6.90806 6.01285C7.03738 6.03857 7.15616 6.10207 7.2494 6.1953C7.34263 6.28854 7.40613 6.40733 7.43185 6.53665C7.45758 6.66597 7.44437 6.80001 7.39391 6.92183C7.34346 7.04365 7.25801 7.14777 7.14838 7.22102C7.03874 7.29427 6.90985 7.33337 6.778 7.33337C6.60118 7.33337 6.43161 7.26314 6.30659 7.13811C6.18157 7.01309 6.11133 6.84352 6.11133 6.66671ZM9.44466 7.33337C9.57652 7.33337 9.70541 7.29427 9.81504 7.22102C9.92467 7.14777 10.0101 7.04365 10.0606 6.92183C10.111 6.80001 10.1242 6.66597 10.0985 6.53665C10.0728 6.40733 10.0093 6.28854 9.91607 6.1953C9.82283 6.10207 9.70404 6.03857 9.57472 6.01285C9.4454 5.98713 9.31136 6.00033 9.18954 6.05079C9.06772 6.10125 8.9636 6.18669 8.89035 6.29633C8.81709 6.40596 8.778 6.53485 8.778 6.66671C8.778 6.84352 8.84823 7.01309 8.97326 7.13811C9.09828 7.26314 9.26785 7.33337 9.44466 7.33337ZM6.778 8.66671C6.64614 8.66671 6.51725 8.70581 6.40761 8.77906C6.29798 8.85232 6.21253 8.95643 6.16208 9.07825C6.11162 9.20007 6.09841 9.33411 6.12414 9.46343C6.14986 9.59275 6.21336 9.71154 6.30659 9.80478C6.39983 9.89801 6.51861 9.96151 6.64793 9.98723C6.77726 10.013 6.9113 9.99975 7.03312 9.94929C7.15493 9.89884 7.25905 9.81339 7.33231 9.70375C7.40556 9.59412 7.44466 9.46523 7.44466 9.33337C7.44466 9.15656 7.37442 8.98699 7.2494 8.86197C7.12438 8.73695 6.95481 8.66671 6.778 8.66671ZM9.44466 10C9.57652 10 9.70541 9.96094 9.81504 9.88769C9.92467 9.81443 10.0101 9.71031 10.0606 9.5885C10.111 9.46668 10.1242 9.33263 10.0985 9.20331C10.0728 9.07399 10.0093 8.9552 9.91607 8.86197C9.82283 8.76873 9.70404 8.70524 9.57472 8.67952C9.4454 8.65379 9.31136 8.667 9.18954 8.71745C9.06772 8.76791 8.9636 8.85336 8.89035 8.96299C8.81709 9.07263 8.778 9.20152 8.778 9.33337C8.778 9.51019 8.84823 9.67975 8.97326 9.80478C9.09828 9.9298 9.26785 10 9.44466 10ZM16.1113 6.66671V9.33337C16.1103 10.2171 15.7587 11.0643 15.1338 11.6892C14.509 12.3141 13.6617 12.6656 12.778 12.6667H3.44466C2.56093 12.6656 1.7137 12.3141 1.08881 11.6892C0.463916 11.0643 0.112387 10.2171 0.111328 9.33337L0.111328 6.66671C0.112387 5.78298 0.463916 4.93575 1.08881 4.31085C1.7137 3.68596 2.56093 3.33443 3.44466 3.33337H12.778C13.6617 3.33443 14.509 3.68596 15.1338 4.31085C15.7587 4.93575 16.1103 5.78298 16.1113 6.66671ZM4.778 4.66671V11.3334H11.4447V4.66671H4.778ZM3.44466 11.3334V4.66671C2.91423 4.66671 2.40552 4.87742 2.03045 5.25249C1.65538 5.62757 1.44466 6.13627 1.44466 6.66671V9.33337C1.44466 9.86381 1.65538 10.3725 2.03045 10.7476C2.40552 11.1227 2.91423 11.3334 3.44466 11.3334ZM14.778 6.66671C14.778 6.13627 14.5673 5.62757 14.1922 5.25249C13.8171 4.87742 13.3084 4.66671 12.778 4.66671V11.3334C13.3084 11.3334 13.8171 11.1227 14.1922 10.7476C14.5673 10.3725 14.778 9.86381 14.778 9.33337V6.66671Z" fill="black"/>
</g>
<defs>
<clipPath id="clip0_482_17965">
<rect width="16" height="16" fill="white" transform="translate(0.111328)"/>
</clipPath>
</defs>
</svg>
