<svg width="17" height="16" viewBox="0 0 17 16" fill="none" xmlns="http://www.w3.org/2000/svg">
<g clip-path="url(#clip0_483_13831)">
<path d="M6.88899 10.6667C7.62537 10.6667 8.22233 10.0697 8.22233 9.33333C8.22233 8.59695 7.62537 8 6.88899 8C6.15262 8 5.55566 8.59695 5.55566 9.33333C5.55566 10.0697 6.15262 10.6667 6.88899 10.6667Z" fill="black"/>
<path d="M4.02727 10.8618C3.90153 10.7404 3.73313 10.6732 3.55833 10.6747C3.38354 10.6762 3.21633 10.7464 3.09272 10.87C2.96912 10.9936 2.89901 11.1608 2.89749 11.3356C2.89597 11.5104 2.96316 11.6788 3.0846 11.8045L4.41794 13.1378C4.47943 13.2015 4.553 13.2523 4.63433 13.2872C4.71567 13.3222 4.80315 13.3406 4.89167 13.3413C4.98019 13.3421 5.06797 13.3252 5.1499 13.2917C5.23184 13.2582 5.30627 13.2087 5.36887 13.1461C5.43146 13.0835 5.48096 13.0091 5.51448 12.9271C5.548 12.8452 5.56487 12.7574 5.5641 12.6689C5.56333 12.5804 5.54494 12.4929 5.51 12.4116C5.47506 12.3302 5.42428 12.2567 5.3606 12.1952L4.02727 10.8618Z" fill="black"/>
<path d="M15.877 0.34539C15.7676 0.235894 15.6377 0.149032 15.4947 0.0897678C15.3517 0.0305038 15.1984 0 15.0437 0C14.8889 0 14.7356 0.0305038 14.5926 0.0897678C14.4496 0.149032 14.3197 0.235894 14.2103 0.34539L14.0677 0.488057C13.5835 0.973619 13.2315 1.57487 13.045 2.23472L11.0617 4.21806C10.3298 3.6237 9.40861 3.3123 8.46623 3.3407C7.52385 3.36909 6.62309 3.73538 5.92833 4.37272C5.82182 4.4787 5.7227 4.59186 5.63166 4.71139C5.51227 4.88351 5.35863 5.02914 5.18037 5.13915C5.0021 5.24916 4.80305 5.32119 4.59566 5.35072C3.4646 5.42727 2.39924 5.90975 1.59566 6.70939C-0.375005 8.68072 -0.204339 12.0594 1.97899 14.2427C3.0657 15.3502 4.54686 15.9821 6.09833 16.0001C6.72999 16.0085 7.35705 15.8915 7.94319 15.6558C8.52932 15.4202 9.06289 15.0707 9.51299 14.6274C10.3126 13.8238 10.7951 12.7585 10.8717 11.6274C10.9012 11.42 10.9732 11.221 11.0832 11.0427C11.1932 10.8644 11.3389 10.7108 11.511 10.5914C11.6305 10.5004 11.7437 10.4012 11.8497 10.2947C12.4862 9.59958 12.852 8.69894 12.8804 7.75678C12.9088 6.81463 12.5979 5.8936 12.0043 5.16139L13.9877 3.17806C14.6475 2.99158 15.2488 2.63955 15.7343 2.15539L15.877 2.01272C15.9866 1.90331 16.0735 1.77336 16.1329 1.63031C16.1922 1.48726 16.2227 1.33392 16.2227 1.17906C16.2227 1.02419 16.1922 0.870851 16.1329 0.727801C16.0735 0.584752 15.9866 0.454803 15.877 0.34539ZM10.907 9.35139C10.8445 9.41483 10.7777 9.47386 10.707 9.52806C10.3823 9.75831 10.1106 10.0553 9.90994 10.399C9.70932 10.7428 9.58444 11.1255 9.54366 11.5214C9.49053 12.3348 9.14535 13.1016 8.57166 13.6807C7.12166 15.1307 4.58833 14.9607 2.92633 13.2981C1.26433 11.6354 1.08899 9.10339 2.54166 7.65272C3.12075 7.07904 3.88759 6.73386 4.70099 6.68072C5.09693 6.63995 5.47959 6.51507 5.82336 6.31444C6.16713 6.11381 6.46408 5.84207 6.69433 5.51739C6.74852 5.44672 6.80755 5.37989 6.87099 5.31739C7.08609 5.10625 7.34103 4.93999 7.62098 4.82829C7.90093 4.71658 8.20029 4.66166 8.50166 4.66672C9.07561 4.67401 9.63504 4.84821 10.1117 5.16806L9.08433 6.19539C9.02065 6.25689 8.96987 6.33045 8.93493 6.41179C8.89999 6.49312 8.8816 6.5806 8.88083 6.66912C8.88006 6.75764 8.89693 6.84543 8.93045 6.92736C8.96397 7.00929 9.01347 7.08372 9.07607 7.14632C9.13866 7.20892 9.21309 7.25842 9.29503 7.29194C9.37696 7.32546 9.46474 7.34233 9.55326 7.34156C9.64178 7.34079 9.72926 7.3224 9.8106 7.28746C9.89193 7.25252 9.9655 7.20173 10.027 7.13806L11.0523 6.11272C11.4034 6.58726 11.5806 7.16813 11.5542 7.75784C11.5277 8.34755 11.2992 8.91021 10.907 9.35139Z" fill="black"/>
</g>
<defs>
<clipPath id="clip0_483_13831">
<rect width="16" height="16" fill="white" transform="translate(0.222656)"/>
</clipPath>
</defs>
</svg>
