<svg width="17" height="16" viewBox="0 0 17 16" fill="none" xmlns="http://www.w3.org/2000/svg">
<g clip-path="url(#clip0_482_18068)">
<path d="M12.9997 3.33323H10.9997V2.66656C10.9997 2.13613 10.789 1.62742 10.4139 1.25235C10.0388 0.877279 9.53011 0.666565 8.99967 0.666565H7.66634C7.13591 0.666565 6.6272 0.877279 6.25213 1.25235C5.87705 1.62742 5.66634 2.13613 5.66634 2.66656V3.33323H3.66634C2.78261 3.33429 1.93538 3.68582 1.31049 4.31071C0.685596 4.9356 0.334066 5.78284 0.333008 6.66656L0.333008 11.9999C0.334066 12.8836 0.685596 13.7309 1.31049 14.3558C1.93538 14.9806 2.78261 15.3322 3.66634 15.3332H12.9997C13.8834 15.3322 14.7306 14.9806 15.3555 14.3558C15.9804 13.7309 16.332 12.8836 16.333 11.9999V6.66656C16.332 5.78284 15.9804 4.9356 15.3555 4.31071C14.7306 3.68582 13.8834 3.33429 12.9997 3.33323ZM6.99967 2.66656C6.99967 2.48975 7.06991 2.32018 7.19494 2.19516C7.31996 2.07014 7.48953 1.9999 7.66634 1.9999H8.99967C9.17649 1.9999 9.34606 2.07014 9.47108 2.19516C9.5961 2.32018 9.66634 2.48975 9.66634 2.66656V3.33323H6.99967V2.66656ZM14.9997 11.9999C14.9997 12.5303 14.789 13.039 14.4139 13.4141C14.0388 13.7892 13.5301 13.9999 12.9997 13.9999H3.66634C3.13591 13.9999 2.6272 13.7892 2.25213 13.4141C1.87705 13.039 1.66634 12.5303 1.66634 11.9999V6.66656C1.66634 6.13613 1.87705 5.62742 2.25213 5.25235C2.6272 4.87728 3.13591 4.66656 3.66634 4.66656H12.9997C13.5301 4.66656 14.0388 4.87728 14.4139 5.25235C14.789 5.62742 14.9997 6.13613 14.9997 6.66656V11.9999ZM10.9997 9.33323C10.9997 9.51004 10.9294 9.67961 10.8044 9.80464C10.6794 9.92966 10.5098 9.9999 10.333 9.9999H8.99967V11.3332C8.99967 11.51 8.92944 11.6796 8.80441 11.8046C8.67939 11.9297 8.50982 11.9999 8.33301 11.9999C8.1562 11.9999 7.98663 11.9297 7.8616 11.8046C7.73658 11.6796 7.66634 11.51 7.66634 11.3332V9.9999H6.33301C6.1562 9.9999 5.98663 9.92966 5.8616 9.80464C5.73658 9.67961 5.66634 9.51004 5.66634 9.33323C5.66634 9.15642 5.73658 8.98685 5.8616 8.86183C5.98663 8.7368 6.1562 8.66656 6.33301 8.66656H7.66634V7.33323C7.66634 7.15642 7.73658 6.98685 7.8616 6.86183C7.98663 6.7368 8.1562 6.66656 8.33301 6.66656C8.50982 6.66656 8.67939 6.7368 8.80441 6.86183C8.92944 6.98685 8.99967 7.15642 8.99967 7.33323V8.66656H10.333C10.5098 8.66656 10.6794 8.7368 10.8044 8.86183C10.9294 8.98685 10.9997 9.15642 10.9997 9.33323Z" fill="black"/>
</g>
<defs>
<clipPath id="clip0_482_18068">
<rect width="16" height="16" fill="white" transform="translate(0.333008)"/>
</clipPath>
</defs>
</svg>
