<svg width="17" height="16" viewBox="0 0 17 16" fill="none" xmlns="http://www.w3.org/2000/svg">
<g clip-path="url(#clip0_483_13764)">
<path d="M12.9997 15.3333C12.9997 15.5101 12.9294 15.6797 12.8044 15.8047C12.6794 15.9298 12.5098 16 12.333 16H0.999674C0.822863 16 0.653294 15.9298 0.52827 15.8047C0.403246 15.6797 0.333008 15.5101 0.333008 15.3333C0.333008 15.1565 0.403246 14.9869 0.52827 14.8619C0.653294 14.7369 0.822863 14.6667 0.999674 14.6667H12.333C12.5098 14.6667 12.6794 14.7369 12.8044 14.8619C12.9294 14.9869 12.9997 15.1565 12.9997 15.3333ZM16.333 5.33332C16.333 7.18266 14.8763 9.33332 12.9997 9.33332H11.925L11.725 10.5473C11.5974 11.3271 11.196 12.036 10.5929 12.5465C9.98985 13.0571 9.22453 13.3361 8.43434 13.3333H4.90101C4.11127 13.3355 3.3466 13.0562 2.74407 12.5457C2.14154 12.0351 1.74056 11.3267 1.61301 10.5473L0.370341 3.10466C0.30675 2.72276 0.32708 2.33159 0.429916 1.95834C0.532753 1.58509 0.715631 1.2387 0.96584 0.943261C1.21605 0.647818 1.52759 0.410401 1.87881 0.247507C2.23004 0.0846134 2.61252 0.000150827 2.99967 -1.12874e-05H10.333C10.683 -0.00134591 11.0299 0.0668017 11.3534 0.200482C11.6769 0.334163 11.9706 0.530718 12.2176 0.778757C12.4646 1.0268 12.6599 1.32139 12.7922 1.64546C12.9245 1.96953 12.9912 2.31663 12.9883 2.66666H12.9997C15.087 2.66666 16.333 3.66666 16.333 5.33332ZM11.6477 2.88599C11.6795 2.69501 11.6694 2.49939 11.618 2.31273C11.5666 2.12606 11.4752 1.95283 11.3501 1.80507C11.225 1.65731 11.0692 1.53857 10.8935 1.4571C10.7179 1.37563 10.5266 1.3334 10.333 1.33332H2.99967C2.80613 1.33341 2.61492 1.37564 2.43934 1.45706C2.26375 1.53849 2.108 1.65717 1.9829 1.80485C1.85781 1.95253 1.76636 2.12568 1.71491 2.31227C1.66347 2.49885 1.65327 2.6944 1.68501 2.88532L2.92567 10.3287C3.00234 10.7962 3.24295 11.2211 3.60442 11.5274C3.96589 11.8336 4.42458 12.0012 4.89834 12H8.43167C8.90543 12.0012 9.36413 11.8336 9.7256 11.5274C10.0871 11.2211 10.3277 10.7962 10.4043 10.3287L11.6477 2.88599ZM14.9997 5.33332C14.9997 4.99999 14.9997 3.99999 12.9997 3.99999H12.8137L12.147 7.99999H12.9997C14.0297 7.99999 14.9997 6.49732 14.9997 5.33332Z" fill="black"/>
</g>
<defs>
<clipPath id="clip0_483_13764">
<rect width="16" height="16" fill="white" transform="translate(0.333008)"/>
</clipPath>
</defs>
</svg>
