<svg width="17" height="16" viewBox="0 0 17 16" fill="none" xmlns="http://www.w3.org/2000/svg">
<g clip-path="url(#clip0_482_18046)">
<path d="M8.667 16C7.08475 16 5.53803 15.5308 4.22243 14.6518C2.90684 13.7727 1.88146 12.5233 1.27596 11.0615C0.670458 9.59966 0.512032 7.99113 0.820714 6.43928C1.1294 4.88743 1.89132 3.46197 3.01014 2.34315C4.12896 1.22433 5.55443 0.462403 7.10627 0.153721C8.65812 -0.15496 10.2667 0.00346629 11.7285 0.608967C13.1903 1.21447 14.4397 2.23985 15.3188 3.55544C16.1978 4.87104 16.667 6.41775 16.667 8C16.6647 10.121 15.8211 12.1545 14.3213 13.6543C12.8215 15.1541 10.788 15.9977 8.667 16ZM8.667 1.33334C7.34845 1.33334 6.05952 1.72433 4.96319 2.45687C3.86687 3.18942 3.01238 4.23061 2.5078 5.44878C2.00321 6.66695 1.87119 8.0074 2.12843 9.30061C2.38566 10.5938 3.0206 11.7817 3.95295 12.714C4.8853 13.6464 6.07319 14.2813 7.36639 14.5386C8.6596 14.7958 10 14.6638 11.2182 14.1592C12.4364 13.6546 13.4776 12.8001 14.2101 11.7038C14.9427 10.6075 15.3337 9.31855 15.3337 8C15.3317 6.23249 14.6287 4.53792 13.3789 3.2881C12.1291 2.03828 10.4345 1.33528 8.667 1.33334ZM11.3403 12C11.4434 11.9977 11.5446 11.9719 11.6363 11.9248C11.728 11.8776 11.8077 11.8102 11.8695 11.7277C11.9314 11.6452 11.9737 11.5497 11.9932 11.4485C12.0127 11.3473 12.009 11.2429 11.9823 11.1433C11.7461 10.4439 11.3032 9.8326 10.712 9.39036C10.1208 8.94812 9.40936 8.69577 8.67166 8.66667C7.93475 8.6986 7.22459 8.95203 6.63396 9.39387C6.04333 9.83572 5.59969 10.4454 5.361 11.1433C5.33141 11.2428 5.32547 11.3479 5.34365 11.4501C5.36184 11.5523 5.40364 11.6489 5.46573 11.7321C5.52783 11.8153 5.60849 11.8828 5.70131 11.9293C5.79412 11.9759 5.89651 12.0001 6.00033 12H11.3403ZM4.667 6.66667C4.667 7.33334 5.26366 7.33334 6.00033 7.33334C6.737 7.33334 7.33366 7.33334 7.33366 6.66667C7.33366 6.31305 7.19319 5.97391 6.94314 5.72386C6.69309 5.47381 6.35395 5.33334 6.00033 5.33334C5.64671 5.33334 5.30757 5.47381 5.05752 5.72386C4.80747 5.97391 4.667 6.31305 4.667 6.66667ZM10.0003 6.66667C10.0003 7.33334 10.597 7.33334 11.3337 7.33334C12.0703 7.33334 12.667 7.33334 12.667 6.66667C12.667 6.31305 12.5265 5.97391 12.2765 5.72386C12.0264 5.47381 11.6873 5.33334 11.3337 5.33334C10.98 5.33334 10.6409 5.47381 10.3909 5.72386C10.1408 5.97391 10.0003 6.31305 10.0003 6.66667Z" fill="black"/>
</g>
<defs>
<clipPath id="clip0_482_18046">
<rect width="16" height="16" fill="white" transform="translate(0.666992)"/>
</clipPath>
</defs>
</svg>
