<svg width="17" height="16" viewBox="0 0 17 16" fill="none" xmlns="http://www.w3.org/2000/svg">
<g clip-path="url(#clip0_482_17992)">
<path d="M1.22233 4.00002H15.889C16.0658 4.00002 16.2354 3.92978 16.3604 3.80476C16.4854 3.67973 16.5557 3.51016 16.5557 3.33335C16.5557 3.15654 16.4854 2.98697 16.3604 2.86195C16.2354 2.73692 16.0658 2.66669 15.889 2.66669H1.22233C1.04552 2.66669 0.87595 2.73692 0.750926 2.86195C0.625902 2.98697 0.555664 3.15654 0.555664 3.33335C0.555664 3.51016 0.625902 3.67973 0.750926 3.80476C0.87595 3.92978 1.04552 4.00002 1.22233 4.00002Z" fill="black"/>
<path d="M1.22233 7.33333H10.5557C10.7325 7.33333 10.902 7.26309 11.0271 7.13807C11.1521 7.01304 11.2223 6.84348 11.2223 6.66667C11.2223 6.48985 11.1521 6.32029 11.0271 6.19526C10.902 6.07024 10.7325 6 10.5557 6H1.22233C1.04552 6 0.87595 6.07024 0.750926 6.19526C0.625902 6.32029 0.555664 6.48985 0.555664 6.66667C0.555664 6.84348 0.625902 7.01304 0.750926 7.13807C0.87595 7.26309 1.04552 7.33333 1.22233 7.33333Z" fill="black"/>
<path d="M10.5557 12.6666H1.22233C1.04552 12.6666 0.87595 12.7369 0.750926 12.8619C0.625902 12.9869 0.555664 13.1565 0.555664 13.3333C0.555664 13.5101 0.625902 13.6797 0.750926 13.8047C0.87595 13.9297 1.04552 14 1.22233 14H10.5557C10.7325 14 10.902 13.9297 11.0271 13.8047C11.1521 13.6797 11.2223 13.5101 11.2223 13.3333C11.2223 13.1565 11.1521 12.9869 11.0271 12.8619C10.902 12.7369 10.7325 12.6666 10.5557 12.6666Z" fill="black"/>
<path d="M15.889 9.33337H1.22233C1.04552 9.33337 0.87595 9.40361 0.750926 9.52864C0.625902 9.65366 0.555664 9.82323 0.555664 10C0.555664 10.1769 0.625902 10.3464 0.750926 10.4715C0.87595 10.5965 1.04552 10.6667 1.22233 10.6667H15.889C16.0658 10.6667 16.2354 10.5965 16.3604 10.4715C16.4854 10.3464 16.5557 10.1769 16.5557 10C16.5557 9.82323 16.4854 9.65366 16.3604 9.52864C16.2354 9.40361 16.0658 9.33337 15.889 9.33337Z" fill="black"/>
</g>
<defs>
<clipPath id="clip0_482_17992">
<rect width="16" height="16" fill="white" transform="translate(0.555664)"/>
</clipPath>
</defs>
</svg>
