<svg width="17" height="16" viewBox="0 0 17 16" fill="none" xmlns="http://www.w3.org/2000/svg">
<g clip-path="url(#clip0_482_18096)">
<path d="M13.6662 0.000131332H12.4949C12.1445 -0.000795042 11.7973 0.0677839 11.4736 0.201899C11.1499 0.336015 10.856 0.533004 10.6089 0.781465L8.44753 2.9428C7.94876 3.44369 7.66795 4.12126 7.6662 4.82813V7.1368C5.48887 8.7468 2.6122 10.8921 2.2522 11.2528C1.96213 11.5448 1.76946 11.9194 1.70059 12.3252C1.63173 12.731 1.69004 13.1481 1.86753 13.5195L0.528199 14.8621C0.403218 14.9871 0.333008 15.1567 0.333008 15.3335C0.333008 15.5102 0.403218 15.6798 0.528199 15.8048C0.653217 15.9298 0.822756 16 0.999532 16C1.17631 16 1.34585 15.9298 1.47087 15.8048L2.80887 14.4668C3.1803 14.648 3.59917 14.7082 4.00658 14.6389C4.414 14.5697 4.78947 14.3745 5.0802 14.0808C5.44087 13.7201 7.5862 10.8441 9.19953 8.6668H11.5075C11.8579 8.66772 12.2051 8.59915 12.5288 8.46503C12.8525 8.33091 13.1464 8.13393 13.3935 7.88547L15.5549 5.72413C16.0524 5.2227 16.332 4.54519 16.3329 3.8388V2.6668C16.3329 1.95955 16.0519 1.28128 15.5518 0.78118C15.0517 0.281083 14.3734 0.000131332 13.6662 0.000131332ZM4.13753 13.1381C4.01078 13.2598 3.84189 13.3277 3.6662 13.3277C3.49051 13.3277 3.32162 13.2598 3.19487 13.1381C3.06989 13.0131 2.99967 12.8436 2.99967 12.6668C2.99967 12.49 3.06989 12.3205 3.19487 12.1955C3.42087 11.9715 5.19487 10.6335 7.1602 9.1728C5.69887 11.1375 4.36087 12.9128 4.13753 13.1381ZM14.9995 3.8388C14.9987 4.19223 14.8583 4.53102 14.6089 4.78146L12.4475 6.9428C12.3239 7.06699 12.1769 7.16546 12.015 7.23252C11.853 7.29957 11.6794 7.33388 11.5042 7.33347H10.1802L10.8409 6.4348L13.4709 3.8048C13.5345 3.7433 13.5853 3.66974 13.6203 3.5884C13.6552 3.50707 13.6736 3.41959 13.6744 3.33107C13.6751 3.24255 13.6583 3.15476 13.6247 3.07283C13.5912 2.9909 13.5417 2.91646 13.4791 2.85387C13.4165 2.79127 13.3421 2.74177 13.2602 2.70825C13.1782 2.67473 13.0905 2.65786 13.0019 2.65863C12.9134 2.6594 12.8259 2.67779 12.7446 2.71273C12.6633 2.74767 12.5897 2.79846 12.5282 2.86213L9.89887 5.49147L8.99953 6.1528V4.82813C9.00041 4.4747 9.14081 4.13591 9.3902 3.88546L11.5515 1.72413C11.6752 1.59994 11.8222 1.50147 11.9841 1.43441C12.146 1.36736 12.3196 1.33305 12.4949 1.33346H13.6662C14.0198 1.33346 14.359 1.47394 14.609 1.72399C14.8591 1.97404 14.9995 2.31318 14.9995 2.6668V3.8388Z" fill="black"/>
</g>
<defs>
<clipPath id="clip0_482_18096">
<rect width="16" height="16" fill="white" transform="translate(0.333008)"/>
</clipPath>
</defs>
</svg>
