<svg width="17" height="16" viewBox="0 0 17 16" fill="none" xmlns="http://www.w3.org/2000/svg">
<g clip-path="url(#clip0_483_13622)">
<path d="M8.23911 15.3332C7.97638 15.3339 7.71612 15.2824 7.47341 15.1819C7.2307 15.0813 7.01034 14.9335 6.82511 14.7472L4.56711 12.4666C4.49598 12.4069 4.43808 12.3331 4.39711 12.2499C4.35614 12.1666 4.33301 12.0757 4.3292 11.983C4.32538 11.8903 4.34097 11.7978 4.37496 11.7114C4.40895 11.6251 4.46059 11.5467 4.52658 11.4815C4.59257 11.4163 4.67146 11.3655 4.7582 11.3325C4.84493 11.2995 4.9376 11.285 5.03027 11.2898C5.12295 11.2947 5.21358 11.3189 5.29638 11.3608C5.37918 11.4027 5.45232 11.4614 5.51111 11.5332L7.76711 13.8092C7.89408 13.9297 8.06242 13.9968 8.23744 13.9968C8.41246 13.9968 8.58081 13.9297 8.70778 13.8092L12.3171 10.1999C12.4421 10.0748 12.6117 10.0045 12.7885 10.0044C12.9654 10.0044 13.135 10.0745 13.2601 10.1995C13.3852 10.3246 13.4555 10.4941 13.4556 10.671C13.4556 10.8478 13.3855 11.0175 13.2604 11.1426L9.65044 14.7519C9.46523 14.9372 9.24515 15.0839 9.00292 15.1837C8.76068 15.2835 8.50109 15.3343 8.23911 15.3332ZM5.11111 14.6665C5.11111 14.4897 5.04087 14.3202 4.91585 14.1951C4.79082 14.0701 4.62125 13.9999 4.44444 13.9999H4.23311C3.66375 13.989 3.11458 13.787 2.67377 13.4265C2.23296 13.066 1.9261 12.5678 1.80244 12.0119C1.73001 11.5342 1.80905 11.0458 2.02847 10.6153C2.24789 10.1848 2.59666 9.83393 3.02578 9.61188C3.33144 9.44267 3.5582 9.15994 3.65701 8.82483C3.75582 8.48973 3.71873 8.12919 3.55378 7.82122C3.29492 7.32752 3.14211 6.78516 3.10515 6.22894C3.06819 5.67272 3.1479 5.11491 3.33917 4.59131C3.53043 4.0677 3.82903 3.58985 4.21581 3.18841C4.60258 2.78697 5.069 2.47081 5.58513 2.2602C6.10126 2.0496 6.65572 1.9492 7.21293 1.96545C7.77014 1.98169 8.3178 2.11423 8.82079 2.35455C9.32377 2.59487 9.77097 2.93767 10.1337 3.36096C10.4964 3.78425 10.7667 4.27869 10.9271 4.81255C11.0256 5.1344 11.2012 5.42733 11.4387 5.66585C11.6762 5.90438 11.9684 6.0813 12.2898 6.18122C13.1609 6.44611 13.9149 7.00162 14.426 7.75512C14.9371 8.50863 15.1744 9.41457 15.0984 10.3219C15.0217 11.1099 14.7067 11.8559 14.1954 12.4604C13.6841 13.0649 13.0008 13.4994 12.2364 13.7059C12.0705 13.7627 11.9337 13.8826 11.8555 14.0396C11.7774 14.1966 11.7643 14.378 11.819 14.5446C11.8737 14.7112 11.9919 14.8496 12.1479 14.9297C12.3039 15.0098 12.4852 15.0252 12.6524 14.9725C13.7449 14.6608 14.7064 14.0023 15.3921 13.0964C16.0777 12.1906 16.4502 11.0863 16.4535 9.95025C16.4568 8.81416 16.0907 7.70779 15.4104 6.79792C14.7301 5.88805 13.7724 5.224 12.6818 4.90588C12.5674 4.87023 12.4635 4.80684 12.3796 4.72134C12.2956 4.63585 12.234 4.53092 12.2004 4.41588C11.8477 3.2823 11.1268 2.29882 10.1519 1.62124C9.17704 0.943664 8.00398 0.610724 6.81852 0.675163C5.63306 0.739601 4.50299 1.19773 3.60732 1.97699C2.71165 2.75625 2.10159 3.81207 1.87378 4.97722C1.63948 6.15522 1.82834 7.37812 2.40711 8.43055C1.73229 8.7785 1.18361 9.32936 0.838333 10.0056C0.493058 10.6818 0.368586 11.4492 0.482443 12.1999C0.65621 13.0718 1.12299 13.858 1.80525 14.4279C2.48752 14.9979 3.34423 15.3173 4.23311 15.3332H4.44444C4.62125 15.3332 4.79082 15.263 4.91585 15.138C5.04087 15.0129 5.11111 14.8434 5.11111 14.6665Z" fill="black"/>
</g>
<defs>
<clipPath id="clip0_483_13622">
<rect width="16" height="16" fill="white" transform="translate(0.444336)"/>
</clipPath>
</defs>
</svg>
