<svg width="17" height="16" viewBox="0 0 17 16" fill="none" xmlns="http://www.w3.org/2000/svg">
<g clip-path="url(#clip0_482_18061)">
<path d="M16.6671 7.40028C16.6728 6.90195 16.495 6.41896 16.1674 6.04335C15.8399 5.66774 15.3856 5.42579 14.8911 5.36361C15.0911 5.00028 15.3818 4.15494 15.3271 2.03028C15.3232 1.81633 15.2701 1.60616 15.1719 1.416C15.0738 1.22585 14.9332 1.0608 14.7611 0.93361C14.5978 0.811952 14.4087 0.729346 14.2084 0.692134C14.0081 0.654922 13.802 0.664093 13.6058 0.718943C12.6132 0.997058 11.6835 1.46354 10.8671 2.09294C10.5412 1.55169 10.1795 1.03277 9.78448 0.53961C9.64641 0.378402 9.47509 0.248989 9.28228 0.16026C9.08946 0.0715313 8.87973 0.025589 8.66748 0.025589C8.45523 0.025589 8.24549 0.0715313 8.05268 0.16026C7.85987 0.248989 7.68854 0.378402 7.55048 0.53961C7.15699 1.03182 6.79664 1.54963 6.47181 2.08961C5.65123 1.46204 4.71894 0.996007 3.72448 0.716276C3.52878 0.661478 3.32308 0.652581 3.12339 0.690276C2.9237 0.727972 2.73539 0.811244 2.57314 0.93361C2.40121 1.06049 2.26075 1.2252 2.16261 1.415C2.06447 1.60481 2.01128 1.81464 2.00714 2.02828C1.95248 4.15361 2.24514 4.99828 2.44181 5.36161C1.9473 5.42427 1.49314 5.66668 1.16585 6.04265C0.838574 6.41861 0.661061 6.90185 0.667143 7.40028C0.667143 10.2603 4.92514 12.1903 6.98581 12.9569C6.67601 13.2352 6.40833 13.557 6.19114 13.9123C6.0672 14.1196 6.00108 14.3563 5.99968 14.5979C5.99827 14.8394 6.06162 15.0769 6.18314 15.2856C6.30704 15.5024 6.48595 15.6826 6.70181 15.8081C6.91766 15.9336 7.1628 15.9999 7.41248 16.0003H9.92181C10.1717 15.9996 10.4171 15.9329 10.6329 15.8069C10.8488 15.681 11.0276 15.5002 11.1511 15.2829C11.2726 15.0743 11.336 14.837 11.3347 14.5956C11.3335 14.3542 11.2675 14.1176 11.1438 13.9103C11.0183 13.7049 10.8737 13.5118 10.7118 13.3336H11.3338C11.6874 13.3336 12.0266 13.4741 12.2766 13.7241C12.5267 13.9742 12.6671 14.3133 12.6671 14.6669C12.6671 14.8438 12.7374 15.0133 12.8624 15.1383C12.9874 15.2634 13.157 15.3336 13.3338 15.3336C13.5106 15.3336 13.6802 15.2634 13.8052 15.1383C13.9302 15.0133 14.0005 14.8438 14.0005 14.6669C13.9988 14.1154 13.8258 13.578 13.5053 13.129C13.1849 12.6801 12.7329 12.3418 12.2118 12.1609C14.2771 11.1603 16.6671 9.54028 16.6671 7.40028ZM11.5818 3.25628C12.2666 2.65781 13.0819 2.2277 13.9625 2.00028C13.9625 2.00028 13.9931 2.01294 13.9945 2.06228C14.0365 3.68494 13.8518 4.54228 13.6811 4.78428C13.5835 4.92769 13.4573 5.04943 13.3105 5.14188C13.1637 5.23433 12.9993 5.29552 12.8278 5.32161C12.6644 5.34469 12.4979 5.33362 12.339 5.2891C12.1801 5.24457 12.0321 5.16757 11.9045 5.06294C11.7613 4.96833 11.6388 4.84561 11.5445 4.70221C11.4501 4.55882 11.3859 4.39776 11.3558 4.2288C11.3256 4.05983 11.3301 3.8865 11.3689 3.71932C11.4078 3.55215 11.4802 3.39461 11.5818 3.25628ZM8.59514 1.36828C8.60375 1.35732 8.61474 1.34847 8.62727 1.34238C8.6398 1.33629 8.65355 1.33313 8.66748 1.33313C8.68141 1.33313 8.69516 1.33629 8.70769 1.34238C8.72022 1.34847 8.7312 1.35732 8.73981 1.36828C9.24786 1.97474 9.67953 2.64128 10.0251 3.35294C10.0389 3.37622 10.0543 3.3985 10.0711 3.41961C9.99595 3.7463 9.98711 4.08477 10.0451 4.41494C9.93455 4.67969 9.75002 4.90698 9.51364 5.0696C9.27725 5.23223 8.99902 5.32332 8.71223 5.33197C8.42544 5.34062 8.14223 5.26647 7.89647 5.11838C7.65072 4.97029 7.45283 4.75455 7.32648 4.49694C7.31182 4.47566 7.29602 4.45518 7.27914 4.43561C7.34176 4.10682 7.33768 3.7688 7.26714 3.44161C7.27065 3.43651 7.27376 3.43117 7.27648 3.42561C7.62245 2.68417 8.06593 1.99227 8.59514 1.36828ZM3.33981 2.06161C3.33953 2.05019 3.34163 2.03883 3.346 2.02827C3.35036 2.0177 3.35688 2.00817 3.36514 2.00028C4.25161 2.22673 5.07326 2.65627 5.76514 3.25494C5.86365 3.39606 5.93284 3.5555 5.9686 3.72384C6.00436 3.89218 6.00597 4.06599 5.97333 4.23496C5.94069 4.40393 5.87447 4.56463 5.77859 4.70754C5.68271 4.85046 5.55912 4.97267 5.41514 5.06694C5.2889 5.17101 5.14239 5.24768 4.98493 5.2921C4.82747 5.33651 4.66249 5.3477 4.50048 5.32494C4.32967 5.29909 4.1661 5.23804 4.02012 5.14565C3.87415 5.05327 3.74896 4.93158 3.65248 4.78828C3.48181 4.54294 3.29781 3.68494 3.33981 2.06161ZM9.92181 14.6669H7.41248C7.37114 14.6669 7.34581 14.6363 7.33781 14.5896C7.6723 14.0836 8.12045 13.6629 8.64648 13.3609C9.19296 13.6636 9.65552 14.0976 9.99248 14.6236C9.98556 14.6364 9.97538 14.6472 9.96297 14.6548C9.95056 14.6624 9.93636 14.6666 9.92181 14.6669ZM10.4511 11.4729C10.8731 10.8601 11.1701 10.17 11.3251 9.44228C11.354 9.26777 11.3123 9.08895 11.2093 8.94517C11.1062 8.8014 10.9503 8.70443 10.7758 8.67561C10.6013 8.64679 10.4225 8.68848 10.2787 8.7915C10.1349 8.89452 10.038 9.05043 10.0091 9.22494C9.7552 10.1242 9.29915 10.9535 8.67581 11.6496C8.05956 10.9305 7.59757 10.0926 7.31848 9.18761C7.2993 9.10216 7.26349 9.02133 7.21308 8.94973C7.16266 8.87812 7.09864 8.81715 7.02466 8.77028C6.95069 8.72342 6.8682 8.69159 6.78192 8.6766C6.69564 8.66162 6.60726 8.66377 6.52181 8.68294C6.43636 8.70212 6.35553 8.73793 6.28392 8.78835C6.21232 8.83876 6.15134 8.90278 6.10448 8.97676C6.05762 9.05073 6.02579 9.13322 6.0108 9.2195C5.99582 9.30578 5.99797 9.39416 6.01714 9.47961C6.20415 10.1955 6.51044 10.8748 6.92314 11.4889C4.86714 10.6436 2.00048 9.09361 2.00048 7.40028C1.99749 7.30418 2.01402 7.20848 2.04906 7.11895C2.0841 7.02942 2.13693 6.94792 2.20435 6.87938C2.27177 6.81084 2.35238 6.75668 2.44132 6.72016C2.53026 6.68365 2.62568 6.66555 2.72181 6.66694H14.6125C14.7086 6.66555 14.804 6.68365 14.893 6.72016C14.9819 6.75668 15.0625 6.81084 15.1299 6.87938C15.1974 6.94792 15.2502 7.02942 15.2852 7.11895C15.3203 7.20848 15.3368 7.30418 15.3338 7.40028C15.3338 9.08228 12.5038 10.6236 10.4511 11.4729Z" fill="black"/>
</g>
<defs>
<clipPath id="clip0_482_18061">
<rect width="16" height="16" fill="white" transform="translate(0.666992)"/>
</clipPath>
</defs>
</svg>
