<svg width="16" height="16" viewBox="0 0 16 16" fill="none" xmlns="http://www.w3.org/2000/svg">
<g clip-path="url(#clip0_483_13836)">
<path d="M0.666525 16.0003C0.843321 16.0003 1.01286 15.93 1.13786 15.805L5.55053 11.3923L6.38253 12.2536C7.00961 12.9163 7.8739 13.3032 8.78586 13.3296C9.08987 13.3305 9.3918 13.2794 9.67852 13.1783C10.1216 13.0258 10.5108 12.7479 10.7989 12.3784C11.0871 12.009 11.2618 11.5638 11.3019 11.097C11.3742 10.4209 11.3241 9.73726 11.1539 9.07896L11.0112 8.38429C10.9842 8.2732 10.9862 8.15703 11.017 8.04694C11.0478 7.93685 11.1064 7.83653 11.1872 7.75562L12.2452 6.69696C12.2869 6.65506 12.3434 6.63114 12.4025 6.63029C12.4233 6.62643 12.4447 6.62844 12.4644 6.6361C12.484 6.64375 12.5012 6.65675 12.5139 6.67362C12.8487 7.02873 13.2992 7.2528 13.7844 7.30558C14.2697 7.35837 14.7578 7.23642 15.1612 6.96162C15.3979 6.79288 15.595 6.57457 15.7387 6.3219C15.8824 6.06922 15.9693 5.78825 15.9934 5.49856C16.0174 5.20886 15.978 4.91741 15.8779 4.64449C15.7779 4.37158 15.6195 4.12375 15.4139 3.91829L12.1332 0.63629C11.7963 0.291024 11.3488 0.0751467 10.8689 0.026401C10.389 -0.0223448 9.90726 0.099143 9.50786 0.369624C9.27111 0.538312 9.07398 0.756582 8.9302 1.00923C8.78642 1.26188 8.69945 1.54284 8.67533 1.83253C8.65122 2.12223 8.69054 2.4137 8.79057 2.68664C8.8906 2.95959 9.04893 3.20745 9.25453 3.41296L9.30519 3.46362C9.34338 3.50209 9.36481 3.55409 9.36481 3.60829C9.36481 3.66249 9.34338 3.71449 9.30519 3.75296L8.23853 4.81962C8.1567 4.90128 8.05504 4.96025 7.94354 4.99076C7.83204 5.02126 7.71452 5.02225 7.60253 4.99362L7.05786 4.85429C6.38789 4.67932 5.69185 4.6267 5.00319 4.69896C4.51476 4.74954 4.05098 4.93871 3.66651 5.24416C3.28204 5.54961 2.9929 5.95862 2.83319 6.42296C2.6589 6.90013 2.62453 7.41715 2.73414 7.91319C2.84374 8.40923 3.09274 8.86364 3.45186 9.22296L4.62386 10.4363L0.195191 14.8623C0.101985 14.9555 0.038514 15.0743 0.0128023 15.2036C-0.0129094 15.3329 0.000292604 15.4669 0.0507393 15.5887C0.101186 15.7105 0.186612 15.8146 0.296219 15.8879C0.405826 15.9611 0.534691 16.0003 0.666525 16.0003ZM4.08986 6.86696C4.16498 6.63984 4.30433 6.43936 4.49104 6.2898C4.67775 6.14025 4.90381 6.04802 5.14186 6.02429C5.29534 6.00832 5.44955 6.0003 5.60386 6.00029C5.98207 6.00031 6.35871 6.04893 6.72452 6.14496L7.27319 6.28496C7.60934 6.37 7.96178 6.3665 8.29617 6.27478C8.63056 6.18306 8.93547 6.00627 9.18119 5.76162L10.2479 4.69496C10.5357 4.40628 10.6973 4.01527 10.6973 3.60762C10.6973 3.19998 10.5357 2.80896 10.2479 2.52029L10.1972 2.46962C10.1282 2.40076 10.0751 2.31759 10.0417 2.22598C10.0083 2.13437 9.99541 2.03656 10.0039 1.93942C10.0124 1.84229 10.0422 1.74821 10.091 1.66381C10.1398 1.57942 10.2066 1.50676 10.2865 1.45096C10.4288 1.36484 10.5964 1.33042 10.7611 1.35349C10.9257 1.37657 11.0774 1.45573 11.1905 1.57762L14.4732 4.86029C14.5422 4.92916 14.5953 5.01232 14.6287 5.10393C14.6621 5.19554 14.675 5.29336 14.6665 5.39049C14.6579 5.48762 14.6282 5.5817 14.5794 5.6661C14.5306 5.7505 14.4638 5.82316 14.3839 5.87896C14.2401 5.96625 14.0703 6.00069 13.9039 5.97636C13.7374 5.95202 13.5847 5.87043 13.4719 5.74562C13.3347 5.60419 13.1706 5.49168 12.9892 5.41474C12.8078 5.33779 12.6129 5.29797 12.4159 5.29762C12.0002 5.29952 11.6017 5.46305 11.3045 5.75362L10.2472 6.81162C10.0071 7.05188 9.83216 7.34932 9.73885 7.67591C9.64554 8.00249 9.63694 8.34746 9.71386 8.67829L9.85986 9.38362C9.99438 9.89791 10.0353 10.4322 9.98053 10.961C9.96459 11.1766 9.88564 11.3828 9.75348 11.554C9.62133 11.7251 9.44179 11.8537 9.23719 11.9236C8.89616 12.0133 8.5367 12.0045 8.20044 11.8983C7.86419 11.7921 7.56488 11.5929 7.33719 11.3236L4.40386 8.29029C4.22095 8.10787 4.09416 7.87685 4.03851 7.62459C3.98286 7.37233 4.00068 7.1094 4.08986 6.86696Z" fill="black"/>
</g>
<defs>
<clipPath id="clip0_483_13836">
<rect width="16" height="16" fill="white"/>
</clipPath>
</defs>
</svg>
