<svg width="17" height="16" viewBox="0 0 17 16" fill="none" xmlns="http://www.w3.org/2000/svg">
<g clip-path="url(#clip0_482_18105)">
<path d="M16.5631 7.60539C16.0402 6.37764 15.2198 5.29938 14.1761 4.4679C13.1323 3.63643 11.898 3.07791 10.5844 2.84272C10.727 2.53853 10.7905 2.20328 10.769 1.86802C10.7475 1.53276 10.6417 1.20834 10.4615 0.924834C10.2813 0.641323 10.0324 0.407888 9.73797 0.246158C9.44352 0.0844273 9.11301 -0.000366211 8.77706 -0.000366211C8.44111 -0.000366211 8.1106 0.0844273 7.81615 0.246158C7.5217 0.407888 7.27283 0.641323 7.0926 0.924834C6.91237 1.20834 6.80662 1.53276 6.78514 1.86802C6.76366 2.20328 6.82715 2.53853 6.96973 2.84272C5.65653 3.07827 4.42261 3.63696 3.37923 4.4684C2.33585 5.29985 1.51581 6.37792 0.99306 7.60539C0.81921 8.01533 0.749709 8.46198 0.790778 8.90536C0.831847 9.34874 0.982204 9.77503 1.22839 10.1461C1.46603 10.5024 1.78622 10.796 2.16173 11.0021L2.56173 13.2501C2.69787 14.0213 3.10159 14.7198 3.70187 15.2228C4.30216 15.7258 5.06057 16.001 5.84373 16.0001H11.7104C12.4935 16.0011 13.2519 15.7259 13.8521 15.2229C14.4523 14.7199 14.8558 14.0213 14.9917 13.2501L15.3917 11.0027C15.7674 10.797 16.0877 10.5033 16.3251 10.1467C16.5716 9.77577 16.7224 9.3495 16.764 8.90602C16.8055 8.46254 16.7365 8.01567 16.5631 7.60539ZM8.77706 1.33339C8.95387 1.33339 9.12344 1.40363 9.24846 1.52865C9.37349 1.65368 9.44373 1.82325 9.44373 2.00006C9.44373 2.17687 9.37349 2.34644 9.24846 2.47146C9.12344 2.59649 8.95387 2.66672 8.77706 2.66672C8.60025 2.66672 8.43068 2.59649 8.30566 2.47146C8.18063 2.34644 8.11039 2.17687 8.11039 2.00006C8.11039 1.82325 8.18063 1.65368 8.30566 1.52865C8.43068 1.40363 8.60025 1.33339 8.77706 1.33339ZM13.6817 13.0167C13.5995 13.4796 13.3568 13.8987 12.9963 14.2004C12.6358 14.5021 12.1805 14.6672 11.7104 14.6667H5.84373C5.37396 14.6668 4.91917 14.5015 4.55908 14.1998C4.199 13.8981 3.9566 13.4792 3.87439 13.0167L3.62706 11.6301C3.9971 11.8892 4.44396 12.0154 4.89489 11.9882C5.34582 11.9609 5.77424 11.7818 6.11039 11.4801C6.4764 11.8094 6.95135 11.9916 7.44373 11.9916C7.9361 11.9916 8.41105 11.8094 8.77706 11.4801C9.14307 11.8094 9.61802 11.9916 10.1104 11.9916C10.6028 11.9916 11.0777 11.8094 11.4437 11.4801C11.78 11.7823 12.2088 11.9617 12.6602 11.989C13.1116 12.0162 13.5588 11.8897 13.9291 11.6301L13.6817 13.0167ZM15.2151 9.40806C15.0955 9.59157 14.9316 9.74201 14.7385 9.84547C14.5454 9.94894 14.3294 10.0021 14.1104 10.0001C13.9528 10.0069 13.7986 10.0477 13.6583 10.1196C13.5179 10.1915 13.3947 10.2929 13.2971 10.4167C13.2339 10.4935 13.1545 10.5554 13.0646 10.5978C12.9747 10.6403 12.8765 10.6623 12.7771 10.6623C12.6776 10.6623 12.5794 10.6403 12.4895 10.5978C12.3996 10.5554 12.3202 10.4935 12.2571 10.4167C12.162 10.2909 12.0391 10.1889 11.898 10.1186C11.7569 10.0484 11.6014 10.0118 11.4437 10.0118C11.2861 10.0118 11.1306 10.0484 10.9895 10.1186C10.8483 10.1889 10.7254 10.2909 10.6304 10.4167C10.5672 10.4935 10.4878 10.5554 10.3979 10.5978C10.308 10.6403 10.2098 10.6623 10.1104 10.6623C10.011 10.6623 9.91277 10.6403 9.82286 10.5978C9.73295 10.5554 9.65356 10.4935 9.59039 10.4167C9.49537 10.2909 9.37246 10.1889 9.23133 10.1186C9.09021 10.0484 8.93471 10.0118 8.77706 10.0118C8.61941 10.0118 8.46391 10.0484 8.32279 10.1186C8.18166 10.1889 8.05875 10.2909 7.96373 10.4167C7.90056 10.4935 7.82117 10.5554 7.73126 10.5978C7.64135 10.6403 7.54316 10.6623 7.44373 10.6623C7.3443 10.6623 7.2461 10.6403 7.15619 10.5978C7.06628 10.5554 6.98689 10.4935 6.92373 10.4167C6.8287 10.2909 6.70579 10.1889 6.56467 10.1186C6.42354 10.0484 6.26804 10.0118 6.11039 10.0118C5.95275 10.0118 5.79725 10.0484 5.65612 10.1186C5.51499 10.1889 5.39209 10.2909 5.29706 10.4167C5.23389 10.4935 5.1545 10.5554 5.0646 10.5978C4.97469 10.6403 4.87649 10.6623 4.77706 10.6623C4.67763 10.6623 4.57943 10.6403 4.48952 10.5978C4.39962 10.5554 4.32023 10.4935 4.25706 10.4167C4.15948 10.2928 4.0363 10.1914 3.89592 10.1195C3.75555 10.0476 3.6013 10.0069 3.44373 10.0001C3.2248 10.0021 3.00889 9.94886 2.81594 9.84539C2.62299 9.74193 2.45921 9.59152 2.33973 9.40806C2.21378 9.22093 2.13695 9.00511 2.11633 8.78048C2.09571 8.55586 2.13195 8.32966 2.22173 8.12272C4.39973 2.65606 13.1551 2.65606 15.3337 8.12272C15.4235 8.32966 15.4597 8.55586 15.4391 8.78048C15.4185 9.00511 15.3417 9.22093 15.2157 9.40806H15.2151Z" fill="black"/>
</g>
<defs>
<clipPath id="clip0_482_18105">
<rect width="16" height="16" fill="white" transform="translate(0.777344)"/>
</clipPath>
</defs>
</svg>
