<svg width="17" height="16" viewBox="0 0 17 16" fill="none" xmlns="http://www.w3.org/2000/svg">
<g clip-path="url(#clip0_482_18080)">
<path d="M10.8896 5.33337C10.7646 5.20839 10.595 5.13818 10.4183 5.13818C10.2415 5.13818 10.072 5.20839 9.94694 5.33337L8.22294 7.05737L6.49895 5.33337C6.37321 5.21194 6.20481 5.14474 6.03001 5.14626C5.85522 5.14778 5.68801 5.21789 5.5644 5.3415C5.4408 5.4651 5.37068 5.63231 5.36917 5.80711C5.36765 5.98191 5.43484 6.15031 5.55628 6.27604L7.28028 8.00004L5.55628 9.72404C5.43484 9.84978 5.36765 10.0182 5.36917 10.193C5.37068 10.3678 5.4408 10.535 5.5644 10.6586C5.68801 10.7822 5.85522 10.8523 6.03001 10.8538C6.20481 10.8553 6.37321 10.7881 6.49895 10.6667L8.22294 8.94271L9.94694 10.6667C10.0727 10.7881 10.2411 10.8553 10.4159 10.8538C10.5907 10.8523 10.7579 10.7822 10.8815 10.6586C11.0051 10.535 11.0752 10.3678 11.0767 10.193C11.0782 10.0182 11.011 9.84978 10.8896 9.72404L9.16561 8.00004L10.8896 6.27604C11.0146 6.15102 11.0848 5.98148 11.0848 5.80471C11.0848 5.62793 11.0146 5.45839 10.8896 5.33337Z" fill="black"/>
<path d="M8.22266 0C6.64041 0 5.09369 0.469192 3.7781 1.34824C2.4625 2.22729 1.43712 3.47672 0.831624 4.93853C0.226123 6.40034 0.0676958 8.00887 0.376378 9.56072C0.685059 11.1126 1.44699 12.538 2.56581 13.6569C3.68463 14.7757 5.11009 15.5376 6.66194 15.8463C8.21379 16.155 9.82232 15.9965 11.2841 15.391C12.7459 14.7855 13.9954 13.7602 14.8744 12.4446C15.7535 11.129 16.2227 9.58225 16.2227 8C16.2204 5.87897 15.3768 3.84547 13.877 2.34568C12.3772 0.845886 10.3437 0.00229405 8.22266 0V0ZM8.22266 14.6667C6.90412 14.6667 5.61519 14.2757 4.51886 13.5431C3.42253 12.8106 2.56805 11.7694 2.06346 10.5512C1.55888 9.33305 1.42686 7.99261 1.68409 6.6994C1.94133 5.40619 2.57626 4.21831 3.50861 3.28596C4.44096 2.35361 5.62885 1.71867 6.92206 1.46143C8.21526 1.2042 9.55571 1.33622 10.7739 1.8408C11.9921 2.34539 13.0332 3.19987 13.7658 4.2962C14.4983 5.39253 14.8893 6.68146 14.8893 8C14.8874 9.76752 14.1844 11.4621 12.9346 12.7119C11.6847 13.9617 9.99017 14.6647 8.22266 14.6667Z" fill="black"/>
</g>
<defs>
<clipPath id="clip0_482_18080">
<rect width="16" height="16" fill="white" transform="translate(0.222656)"/>
</clipPath>
</defs>
</svg>
