<svg width="17" height="16" viewBox="0 0 17 16" fill="none" xmlns="http://www.w3.org/2000/svg">
<g clip-path="url(#clip0_483_13681)">
<path d="M12.8893 14.6671H3.55599C2.67226 14.666 1.82503 14.3145 1.20014 13.6896C0.575244 13.0647 0.223715 12.2175 0.222656 11.3337L0.222656 4.66707C0.223715 3.78334 0.575244 2.93611 1.20014 2.31122C1.82503 1.68633 2.67226 1.3348 3.55599 1.33374H12.8893C13.7731 1.3348 14.6203 1.68633 15.2452 2.31122C15.8701 2.93611 16.2216 3.78334 16.2227 4.66707V11.3337C16.2216 12.2175 15.8701 13.0647 15.2452 13.6896C14.6203 14.3145 13.7731 14.666 12.8893 14.6671ZM3.55599 2.66707C3.02556 2.66707 2.51685 2.87779 2.14178 3.25286C1.7667 3.62793 1.55599 4.13664 1.55599 4.66707V11.3337C1.55599 11.8642 1.7667 12.3729 2.14178 12.748C2.51685 13.123 3.02556 13.3337 3.55599 13.3337H12.8893C13.4198 13.3337 13.9285 13.123 14.3035 12.748C14.6786 12.3729 14.8893 11.8642 14.8893 11.3337V4.66707C14.8893 4.13664 14.6786 3.62793 14.3035 3.25286C13.9285 2.87779 13.4198 2.66707 12.8893 2.66707H3.55599Z" fill="black"/>
<path d="M12.8896 8.66708H7.55632C7.3795 8.66708 7.20993 8.59684 7.08491 8.47182C6.95989 8.34679 6.88965 8.17722 6.88965 8.00041C6.88965 7.8236 6.95989 7.65403 7.08491 7.529C7.20993 7.40398 7.3795 7.33374 7.55632 7.33374H12.8896C13.0665 7.33374 13.236 7.40398 13.3611 7.529C13.4861 7.65403 13.5563 7.8236 13.5563 8.00041C13.5563 8.17722 13.4861 8.34679 13.3611 8.47182C13.236 8.59684 13.0665 8.66708 12.8896 8.66708Z" fill="black"/>
<path d="M4.88964 8.66708H3.55631C3.3795 8.66708 3.20993 8.59684 3.08491 8.47182C2.95989 8.34679 2.88965 8.17722 2.88965 8.00041C2.88965 7.8236 2.95989 7.65403 3.08491 7.529C3.20993 7.40398 3.3795 7.33374 3.55631 7.33374H4.88964C5.06646 7.33374 5.23602 7.40398 5.36105 7.529C5.48607 7.65403 5.55631 7.8236 5.55631 8.00041C5.55631 8.17722 5.48607 8.34679 5.36105 8.47182C5.23602 8.59684 5.06646 8.66708 4.88964 8.66708Z" fill="black"/>
<path d="M8.88965 11.9996H3.55632C3.3795 11.9996 3.20993 11.9294 3.08491 11.8043C2.95989 11.6793 2.88965 11.5097 2.88965 11.3329C2.88965 11.1561 2.95989 10.9865 3.08491 10.8615C3.20993 10.7365 3.3795 10.6663 3.55632 10.6663H8.88965C9.06646 10.6663 9.23603 10.7365 9.36105 10.8615C9.48608 10.9865 9.55632 11.1561 9.55632 11.3329C9.55632 11.5097 9.48608 11.6793 9.36105 11.8043C9.23603 11.9294 9.06646 11.9996 8.88965 11.9996Z" fill="black"/>
<path d="M12.8896 11.9996H11.5563C11.3795 11.9996 11.2099 11.9294 11.0849 11.8043C10.9599 11.6793 10.8896 11.5097 10.8896 11.3329C10.8896 11.1561 10.9599 10.9865 11.0849 10.8615C11.2099 10.7365 11.3795 10.6663 11.5563 10.6663H12.8896C13.0665 10.6663 13.236 10.7365 13.361 10.8615C13.4861 10.9865 13.5563 11.1561 13.5563 11.3329C13.5563 11.5097 13.4861 11.6793 13.361 11.8043C13.236 11.9294 13.0665 11.9996 12.8896 11.9996Z" fill="black"/>
</g>
<defs>
<clipPath id="clip0_483_13681">
<rect width="16" height="16" fill="white" transform="translate(0.222656)"/>
</clipPath>
</defs>
</svg>
