<svg width="17" height="16" viewBox="0 0 17 16" fill="none" xmlns="http://www.w3.org/2000/svg">
<g clip-path="url(#clip0_483_13619)">
<path d="M15.7898 1.39133C15.5597 0.970392 15.2207 0.619103 14.8081 0.374305C14.3956 0.129507 13.9248 0.000219051 13.4451 0L2.77844 0C2.29874 0.000219051 1.82794 0.129507 1.41541 0.374305C1.00287 0.619103 0.663809 0.970392 0.43377 1.39133C0.201831 1.80574 0.0874457 2.2756 0.102954 2.75025C0.118462 3.22489 0.263275 3.68629 0.52177 4.08467C1.30315 5.21784 2.33308 6.15753 3.53294 6.83204C4.7328 7.50655 6.07089 7.89805 7.4451 7.97667V14.6667H4.77844C4.60163 14.6667 4.43206 14.7369 4.30703 14.8619C4.18201 14.987 4.11177 15.1565 4.11177 15.3333C4.11177 15.5101 4.18201 15.6797 4.30703 15.8047C4.43206 15.9298 4.60163 16 4.77844 16H11.4451C11.6219 16 11.7915 15.9298 11.9165 15.8047C12.0415 15.6797 12.1118 15.5101 12.1118 15.3333C12.1118 15.1565 12.0415 14.987 11.9165 14.8619C11.7915 14.7369 11.6219 14.6667 11.4451 14.6667H8.77844V7.97667C10.1526 7.89805 11.4907 7.50655 12.6906 6.83204C13.8905 6.15753 14.9204 5.21784 15.7018 4.08467C15.9603 3.68629 16.1051 3.22489 16.1206 2.75025C16.1361 2.2756 16.0217 1.80574 15.7898 1.39133ZM2.77844 1.33333H13.4451C13.7987 1.33333 14.1379 1.47381 14.3879 1.72386C14.638 1.97391 14.7784 2.31304 14.7784 2.66667H1.4451C1.4451 2.31304 1.58558 1.97391 1.83563 1.72386C2.08568 1.47381 2.42481 1.33333 2.77844 1.33333ZM8.11177 6.66667C6.98121 6.67062 5.86265 6.43502 4.82973 5.97539C3.79682 5.51575 2.87299 4.84251 2.1191 4H14.1044C13.3507 4.84271 12.4269 5.51609 11.394 5.97574C10.361 6.43539 9.24237 6.67087 8.11177 6.66667Z" fill="black"/>
</g>
<defs>
<clipPath id="clip0_483_13619">
<rect width="16" height="16" fill="white" transform="translate(0.111328)"/>
</clipPath>
</defs>
</svg>
