<svg width="17" height="16" viewBox="0 0 17 16" fill="none" xmlns="http://www.w3.org/2000/svg">
<g clip-path="url(#clip0_482_18094)">
<path d="M16.3777 7.62477C16.1158 5.60838 15.0959 3.76739 13.5253 2.47599C11.9547 1.1846 9.95131 0.539708 7.92231 0.672399C5.89332 0.805091 3.99098 1.70541 2.60196 3.19035C1.21294 4.6753 0.441482 6.63344 0.444385 8.66677C0.440542 9.75511 0.661091 10.8326 1.09226 11.8319C1.52343 12.8312 2.15597 13.7309 2.95039 14.4748C3.55795 15.0373 4.35849 15.3447 5.18639 15.3334H11.6977C12.5724 15.3355 13.4127 14.9933 14.0371 14.3808C14.9269 13.5151 15.6019 12.4533 16.0083 11.2803C16.4147 10.1072 16.5412 8.8554 16.3777 7.62477ZM13.1051 13.4248C12.73 13.7943 12.2243 14.0011 11.6977 14.0001H5.18639C4.69923 14.0101 4.22671 13.8334 3.86572 13.5061C3.2039 12.8862 2.67693 12.1365 2.31769 11.3039C1.95844 10.4713 1.77463 9.57357 1.77772 8.66677C1.77837 7.72826 1.9769 6.80044 2.36034 5.94384C2.74379 5.08724 3.30353 4.32111 4.00305 3.69543C5.21848 2.59937 6.79841 1.99502 8.43505 2.0001C8.69656 2.00021 8.95785 2.0149 9.21772 2.0441C10.4681 2.18932 11.6518 2.68581 12.6317 3.47605C13.6115 4.26629 14.3475 5.31795 14.7543 6.50923C15.1611 7.7005 15.222 8.98264 14.9302 10.2071C14.6383 11.4317 14.0055 12.5484 13.1051 13.4281V13.4248ZM5.64905 11.5234C5.77547 11.6472 5.84755 11.8161 5.84942 11.993C5.8513 12.1699 5.78282 12.3403 5.65905 12.4668C5.53528 12.5932 5.36637 12.6653 5.18946 12.6671C5.01255 12.669 4.84214 12.6005 4.71572 12.4768C3.95903 11.7356 3.44018 10.7858 3.22533 9.74859C3.01047 8.71137 3.10933 7.63366 3.50931 6.65285C3.90929 5.67203 4.59227 4.83253 5.47118 4.24135C6.3501 3.65018 7.38515 3.33411 8.44439 3.33343C8.69934 3.33336 8.95399 3.35141 9.20639 3.38743C9.29307 3.39993 9.37644 3.42938 9.45174 3.47411C9.52703 3.51884 9.59278 3.57797 9.64521 3.64811C9.69765 3.71825 9.73576 3.79804 9.75735 3.88292C9.77894 3.96779 9.7836 4.05609 9.77105 4.14277C9.75957 4.22992 9.73078 4.3139 9.68637 4.38976C9.64195 4.46562 9.58282 4.53183 9.51245 4.58451C9.44207 4.63718 9.36187 4.67525 9.27657 4.69648C9.19126 4.7177 9.10257 4.72165 9.01572 4.7081C8.18138 4.58893 7.33071 4.73634 6.58511 5.1293C5.83952 5.52227 5.2371 6.1407 4.86382 6.89634C4.49055 7.65198 4.36549 8.50622 4.5065 9.33715C4.64751 10.1681 5.04739 10.9332 5.64905 11.5234ZM13.7237 7.90477C13.7597 8.15717 13.7778 8.41181 13.7777 8.66677C13.7799 9.37722 13.6388 10.0808 13.363 10.7355C13.0872 11.3903 12.6823 11.9827 12.1724 12.4774C12.0458 12.6012 11.8752 12.6696 11.6982 12.6676C11.5211 12.6656 11.3522 12.5934 11.2284 12.4668C11.1046 12.3402 11.0362 12.1696 11.0382 11.9926C11.0402 11.8155 11.1125 11.6465 11.2391 11.5228C11.6895 11.0837 12.0296 10.5443 12.2317 9.94864C12.4338 9.35297 12.492 8.71793 12.4017 8.09543C12.3764 7.9203 12.4218 7.7423 12.5277 7.60059C12.6337 7.45887 12.7916 7.36505 12.9667 7.33977C13.1419 7.31448 13.3199 7.35981 13.4616 7.46576C13.6033 7.57172 13.6971 7.72964 13.7224 7.90477H13.7237ZM9.72839 8.32543C9.80861 8.61394 9.79104 8.92089 9.6784 9.19835C9.56577 9.4758 9.36442 9.70815 9.1058 9.8591C8.84717 10.01 8.54584 10.0711 8.24886 10.0327C7.95188 9.99432 7.67598 9.85866 7.46424 9.64692C7.25249 9.43517 7.11684 9.15927 7.07845 8.86229C7.04006 8.56531 7.10111 8.26398 7.25206 8.00536C7.403 7.74674 7.63535 7.54538 7.91281 7.43275C8.19027 7.32012 8.49722 7.30254 8.78572 7.38277L11.3064 4.8621C11.3679 4.79843 11.4414 4.74764 11.5228 4.7127C11.6041 4.67776 11.6916 4.65937 11.7801 4.6586C11.8686 4.65783 11.9564 4.6747 12.0384 4.70822C12.1203 4.74174 12.1947 4.79124 12.2573 4.85384C12.3199 4.91643 12.3694 4.99087 12.4029 5.0728C12.4365 5.15473 12.4533 5.24252 12.4526 5.33104C12.4518 5.41956 12.4334 5.50703 12.3985 5.58837C12.3635 5.66971 12.3127 5.74327 12.2491 5.80477L9.72839 8.32543Z" fill="black"/>
</g>
<defs>
<clipPath id="clip0_482_18094">
<rect width="16" height="16" fill="white" transform="translate(0.444336)"/>
</clipPath>
</defs>
</svg>
