<svg width="16" height="16" viewBox="0 0 16 16" fill="none" xmlns="http://www.w3.org/2000/svg">
<g clip-path="url(#clip0_483_13886)">
<path d="M13.3333 -5.24521e-06H4.66667C4.48986 -5.24521e-06 4.32029 0.0702327 4.19526 0.195257C4.07024 0.320281 4 0.48985 4 0.666661C4 0.843472 4.07024 1.01304 4.19526 1.13807C4.32029 1.26309 4.48986 1.33333 4.66667 1.33333H8.236L6.418 14.6667H2.66667C2.48986 14.6667 2.32029 14.7369 2.19526 14.8619C2.07024 14.9869 2 15.1565 2 15.3333C2 15.5101 2.07024 15.6797 2.19526 15.8047C2.32029 15.9298 2.48986 16 2.66667 16H11.3333C11.5101 16 11.6797 15.9298 11.8047 15.8047C11.9298 15.6797 12 15.5101 12 15.3333C12 15.1565 11.9298 14.9869 11.8047 14.8619C11.6797 14.7369 11.5101 14.6667 11.3333 14.6667H7.764L9.582 1.33333H13.3333C13.5101 1.33333 13.6797 1.26309 13.8047 1.13807C13.9298 1.01304 14 0.843472 14 0.666661C14 0.48985 13.9298 0.320281 13.8047 0.195257C13.6797 0.0702327 13.5101 -5.24521e-06 13.3333 -5.24521e-06V-5.24521e-06Z" fill="black"/>
</g>
<defs>
<clipPath id="clip0_483_13886">
<rect width="16" height="16" fill="white"/>
</clipPath>
</defs>
</svg>
