<svg width="16" height="16" viewBox="0 0 16 16" fill="none" xmlns="http://www.w3.org/2000/svg">
<g clip-path="url(#clip0_483_13842)">
<path d="M12.6667 13.3335H3.33333C2.4496 13.3325 1.60237 12.9809 0.97748 12.3561C0.352588 11.7312 0.00105857 10.8839 0 10.0002L0 6.0002C0.00105857 5.11647 0.352588 4.26924 0.97748 3.64435C1.60237 3.01946 2.4496 2.66793 3.33333 2.66687H12.6667C13.5504 2.66793 14.3976 3.01946 15.0225 3.64435C15.6474 4.26924 15.9989 5.11647 16 6.0002V10.0002C15.9989 10.8839 15.6474 11.7312 15.0225 12.3561C14.3976 12.9809 13.5504 13.3325 12.6667 13.3335ZM3.33333 4.0002C2.8029 4.0002 2.29419 4.21092 1.91912 4.58599C1.54405 4.96106 1.33333 5.46977 1.33333 6.0002V10.0002C1.33333 10.5306 1.54405 11.0393 1.91912 11.4144C2.29419 11.7895 2.8029 12.0002 3.33333 12.0002H12.6667C13.1971 12.0002 13.7058 11.7895 14.0809 11.4144C14.456 11.0393 14.6667 10.5306 14.6667 10.0002V6.0002C14.6667 5.46977 14.456 4.96106 14.0809 4.58599C13.7058 4.21092 13.1971 4.0002 12.6667 4.0002H3.33333ZM8 10.6669C7.47258 10.6669 6.95701 10.5105 6.51848 10.2175C6.07995 9.92444 5.73815 9.50796 5.53632 9.02069C5.33449 8.53342 5.28168 7.99725 5.38457 7.47996C5.48747 6.96268 5.74144 6.48753 6.11438 6.11459C6.48732 5.74165 6.96248 5.48767 7.47976 5.38478C7.99704 5.28188 8.53322 5.33469 9.02049 5.53652C9.50776 5.73836 9.92424 6.08015 10.2173 6.51868C10.5103 6.95721 10.6667 7.47279 10.6667 8.0002C10.6667 8.70745 10.3857 9.38573 9.88562 9.88582C9.38552 10.3859 8.70724 10.6669 8 10.6669ZM8 6.66687C7.73629 6.66687 7.47851 6.74507 7.25924 6.89158C7.03997 7.03809 6.86908 7.24632 6.76816 7.48996C6.66724 7.73359 6.64084 8.00168 6.69229 8.26032C6.74373 8.51897 6.87072 8.75654 7.05719 8.94301C7.24366 9.12948 7.48124 9.25647 7.73988 9.30792C7.99852 9.35936 8.26661 9.33296 8.51024 9.23204C8.75388 9.13113 8.96212 8.96023 9.10863 8.74096C9.25513 8.5217 9.33333 8.26391 9.33333 8.0002C9.33333 7.64658 9.19286 7.30744 8.94281 7.05739C8.69276 6.80735 8.35362 6.66687 8 6.66687ZM3.33333 5.33354C3.20148 5.33354 3.07259 5.37264 2.96295 5.44589C2.85332 5.51914 2.76787 5.62326 2.71741 5.74508C2.66696 5.8669 2.65375 6.00094 2.67948 6.13026C2.7052 6.25958 2.76869 6.37837 2.86193 6.47161C2.95516 6.56484 3.07395 6.62834 3.20327 6.65406C3.33259 6.67978 3.46664 6.66658 3.58846 6.61612C3.71027 6.56567 3.81439 6.48022 3.88765 6.37058C3.9609 6.26095 4 6.13206 4 6.0002C4 5.82339 3.92976 5.65382 3.80474 5.5288C3.67971 5.40377 3.51014 5.33354 3.33333 5.33354ZM12 6.0002C12 6.13206 12.0391 6.26095 12.1124 6.37058C12.1856 6.48022 12.2897 6.56567 12.4115 6.61612C12.5334 6.66658 12.6674 6.67978 12.7967 6.65406C12.926 6.62834 13.0448 6.56484 13.1381 6.47161C13.2313 6.37837 13.2948 6.25958 13.3205 6.13026C13.3462 6.00094 13.333 5.8669 13.2826 5.74508C13.2321 5.62326 13.1467 5.51914 13.037 5.44589C12.9274 5.37264 12.7985 5.33354 12.6667 5.33354C12.4899 5.33354 12.3203 5.40377 12.1953 5.5288C12.0702 5.65382 12 5.82339 12 6.0002ZM3.33333 9.33354C3.20148 9.33354 3.07259 9.37264 2.96295 9.44589C2.85332 9.51915 2.76787 9.62326 2.71741 9.74508C2.66696 9.8669 2.65375 10.0009 2.67948 10.1303C2.7052 10.2596 2.76869 10.3784 2.86193 10.4716C2.95516 10.5648 3.07395 10.6283 3.20327 10.6541C3.33259 10.6798 3.46664 10.6666 3.58846 10.6161C3.71027 10.5657 3.81439 10.4802 3.88765 10.3706C3.9609 10.261 4 10.1321 4 10.0002C4 9.82339 3.92976 9.65382 3.80474 9.5288C3.67971 9.40378 3.51014 9.33354 3.33333 9.33354ZM12 10.0002C12 10.1321 12.0391 10.261 12.1124 10.3706C12.1856 10.4802 12.2897 10.5657 12.4115 10.6161C12.5334 10.6666 12.6674 10.6798 12.7967 10.6541C12.926 10.6283 13.0448 10.5648 13.1381 10.4716C13.2313 10.3784 13.2948 10.2596 13.3205 10.1303C13.3462 10.0009 13.333 9.8669 13.2826 9.74508C13.2321 9.62326 13.1467 9.51915 13.037 9.44589C12.9274 9.37264 12.7985 9.33354 12.6667 9.33354C12.4899 9.33354 12.3203 9.40378 12.1953 9.5288C12.0702 9.65382 12 9.82339 12 10.0002Z" fill="black"/>
</g>
<defs>
<clipPath id="clip0_483_13842">
<rect width="16" height="16" fill="white"/>
</clipPath>
</defs>
</svg>
