<svg width="17" height="16" viewBox="0 0 17 16" fill="none" xmlns="http://www.w3.org/2000/svg">
<g clip-path="url(#clip0_483_13718)">
<path d="M15.7777 12.6664V11.3331C15.7752 9.50465 15.0905 7.74294 13.8574 6.39285C12.6243 5.04276 10.9317 4.2015 9.111 4.03377V3.14843C9.36519 3.00168 9.56385 2.77515 9.67618 2.50398C9.7885 2.23281 9.8082 1.93215 9.73224 1.64864C9.65627 1.36513 9.48888 1.11461 9.25602 0.935929C9.02316 0.75725 8.73785 0.6604 8.44434 0.6604C8.15082 0.6604 7.86551 0.75725 7.63265 0.935929C7.3998 1.11461 7.2324 1.36513 7.15644 1.64864C7.08047 1.93215 7.10017 2.23281 7.2125 2.50398C7.32482 2.77515 7.52348 3.00168 7.77767 3.14843V4.03377C5.95693 4.2015 4.26435 5.04276 3.03127 6.39285C1.7982 7.74294 1.11342 9.50465 1.111 11.3331V12.6664C0.934192 12.6664 0.764622 12.7367 0.639598 12.8617C0.514574 12.9867 0.444336 13.1563 0.444336 13.3331C0.444336 13.5099 0.514574 13.6795 0.639598 13.8045C0.764622 13.9295 0.934192 13.9998 1.111 13.9998H15.7777C15.9545 13.9998 16.1241 13.9295 16.2491 13.8045C16.3741 13.6795 16.4443 13.5099 16.4443 13.3331C16.4443 13.1563 16.3741 12.9867 16.2491 12.8617C16.1241 12.7367 15.9545 12.6664 15.7777 12.6664ZM2.44434 11.3331C2.75967 3.3771 14.1317 3.3831 14.4443 11.3331V12.6664H2.44434V11.3331Z" fill="black"/>
</g>
<defs>
<clipPath id="clip0_483_13718">
<rect width="16" height="16" fill="white" transform="translate(0.444336)"/>
</clipPath>
</defs>
</svg>
