<svg width="17" height="16" viewBox="0 0 17 16" fill="none" xmlns="http://www.w3.org/2000/svg">
<g clip-path="url(#clip0_482_18041)">
<path d="M15.2443 1.44198C14.8696 1.1286 14.4304 0.901575 13.958 0.777025C13.4856 0.652474 12.9916 0.633454 12.511 0.721315L9.963 1.18398C9.37474 1.29201 8.83986 1.59467 8.44434 2.04331C8.04778 1.59389 7.51137 1.29117 6.92167 1.18398L4.37767 0.721315C3.89711 0.633377 3.40309 0.652148 2.93059 0.776299C2.45808 0.900449 2.01865 1.12694 1.64338 1.43975C1.26811 1.75256 0.966193 2.14403 0.758991 2.58645C0.551788 3.02888 0.444368 3.51144 0.444336 3.99998L0.444336 11.1953C0.444374 11.9758 0.71832 12.7316 1.21842 13.3309C1.71853 13.9302 2.41308 14.3349 3.181 14.4746L7.37167 15.2366C8.08097 15.3655 8.8077 15.3655 9.517 15.2366L13.711 14.4746C14.4783 14.3342 15.1721 13.9292 15.6715 13.33C16.171 12.7308 16.4444 11.9754 16.4443 11.1953V3.99998C16.4446 3.51161 16.3373 3.02918 16.1298 2.58704C15.9224 2.14491 15.6201 1.75394 15.2443 1.44198ZM7.77767 13.952C7.72167 13.944 7.66567 13.9346 7.60967 13.9246L3.41967 13.1633C2.95885 13.0795 2.54207 12.8366 2.24199 12.4769C1.94192 12.1173 1.7776 11.6637 1.77767 11.1953V3.99998C1.77767 3.46955 1.98838 2.96084 2.36346 2.58577C2.73853 2.2107 3.24724 1.99998 3.77767 1.99998C3.8984 2.00027 4.01886 2.0112 4.13767 2.03265L6.68434 2.49931C6.99074 2.55538 7.26785 2.71696 7.46757 2.95601C7.66728 3.19506 7.77699 3.49649 7.77767 3.80798V13.952ZM15.111 11.1953C15.1111 11.6637 14.9467 12.1173 14.6467 12.4769C14.3466 12.8366 13.9298 13.0795 13.469 13.1633L9.279 13.9246C9.223 13.9346 9.167 13.944 9.111 13.952V3.80798C9.11096 3.49572 9.22051 3.19335 9.42055 2.95359C9.6206 2.71382 9.89845 2.55188 10.2057 2.49598L12.753 2.02931C13.0415 1.97683 13.338 1.98842 13.6215 2.06326C13.905 2.13809 14.1686 2.27435 14.3935 2.46239C14.6185 2.65042 14.7994 2.88562 14.9234 3.15133C15.0474 3.41704 15.1114 3.70677 15.111 3.99998V11.1953Z" fill="black"/>
</g>
<defs>
<clipPath id="clip0_482_18041">
<rect width="16" height="16" fill="white" transform="translate(0.444336)"/>
</clipPath>
</defs>
</svg>
