<svg width="16" height="16" viewBox="0 0 16 16" fill="none" xmlns="http://www.w3.org/2000/svg">
<g clip-path="url(#clip0_482_18116)">
<path d="M10.6667 10.0002C10.6667 10.177 10.5964 10.3466 10.4714 10.4716C10.3464 10.5966 10.1768 10.6669 10 10.6669H8.66667V12.0002C8.66667 12.177 8.59643 12.3466 8.47141 12.4716C8.34638 12.5966 8.17681 12.6669 8 12.6669C7.82319 12.6669 7.65362 12.5966 7.5286 12.4716C7.40357 12.3466 7.33333 12.177 7.33333 12.0002V10.6669H6C5.82319 10.6669 5.65362 10.5966 5.5286 10.4716C5.40357 10.3466 5.33333 10.177 5.33333 10.0002C5.33333 9.82339 5.40357 9.65382 5.5286 9.5288C5.65362 9.40377 5.82319 9.33354 6 9.33354H7.33333V8.0002C7.33333 7.82339 7.40357 7.65382 7.5286 7.5288C7.65362 7.40377 7.82319 7.33354 8 7.33354C8.17681 7.33354 8.34638 7.40377 8.47141 7.5288C8.59643 7.65382 8.66667 7.82339 8.66667 8.0002V9.33354H10C10.1768 9.33354 10.3464 9.40377 10.4714 9.5288C10.5964 9.65382 10.6667 9.82339 10.6667 10.0002ZM16 5.33354V12.0002C15.9989 12.8839 15.6474 13.7312 15.0225 14.3561C14.3976 14.9809 13.5504 15.3325 12.6667 15.3335H3.33333C2.4496 15.3325 1.60237 14.9809 0.97748 14.3561C0.352588 13.7312 0.00105857 12.8839 0 12.0002L0 4.0002C0.00105857 3.11647 0.352588 2.26924 0.97748 1.64435C1.60237 1.01946 2.4496 0.667929 3.33333 0.66687H5.01867C5.32893 0.667128 5.63493 0.739234 5.91267 0.877537L8.01667 1.93354C8.10963 1.97815 8.21155 2.00095 8.31467 2.0002H12.6667C13.5504 2.00126 14.3976 2.35279 15.0225 2.97768C15.6474 3.60258 15.9989 4.44981 16 5.33354ZM1.33333 4.0002V4.66687H14.544C14.4066 4.27826 14.1525 3.9416 13.8165 3.70293C13.4804 3.46426 13.0788 3.33525 12.6667 3.33354H8.31467C8.0044 3.33328 7.6984 3.26117 7.42067 3.12287L5.31667 2.0702C5.22398 2.02444 5.12204 2.00049 5.01867 2.0002H3.33333C2.8029 2.0002 2.29419 2.21092 1.91912 2.58599C1.54405 2.96106 1.33333 3.46977 1.33333 4.0002ZM14.6667 12.0002V6.0002H1.33333V12.0002C1.33333 12.5306 1.54405 13.0393 1.91912 13.4144C2.29419 13.7895 2.8029 14.0002 3.33333 14.0002H12.6667C13.1971 14.0002 13.7058 13.7895 14.0809 13.4144C14.456 13.0393 14.6667 12.5306 14.6667 12.0002Z" fill="black"/>
</g>
<defs>
<clipPath id="clip0_482_18116">
<rect width="16" height="16" fill="white"/>
</clipPath>
</defs>
</svg>
