<svg width="16" height="16" viewBox="0 0 16 16" fill="none" xmlns="http://www.w3.org/2000/svg">
<g clip-path="url(#clip0_4024_19256)">
<path d="M14.9897 7.31693L7.99968 11.5116L1.00967 7.31693C0.858059 7.22596 0.676516 7.19895 0.504982 7.24183C0.333449 7.28471 0.185977 7.39398 0.0950075 7.5456C0.00403825 7.69721 -0.0229762 7.87876 0.0199072 8.05029C0.0627905 8.22182 0.172059 8.3693 0.323674 8.46026L7.65701 12.8603C7.7607 12.9226 7.87938 12.9555 8.00034 12.9555C8.1213 12.9555 8.23999 12.9226 8.34368 12.8603L15.677 8.46026C15.8286 8.3693 15.9379 8.22182 15.9808 8.05029C16.0237 7.87876 15.9966 7.69721 15.9057 7.5456C15.8147 7.39398 15.6672 7.28471 15.4957 7.24183C15.3242 7.19895 15.1426 7.22596 14.991 7.31693H14.9897Z" fill="#444444"/>
<path d="M14.9897 10.3619L7.99967 14.5559L1.00967 10.3619C0.9346 10.3168 0.851391 10.287 0.764795 10.2741C0.6782 10.2612 0.589915 10.2655 0.50498 10.2868C0.420046 10.308 0.340125 10.3457 0.269781 10.3979C0.199438 10.45 0.140049 10.5154 0.0950055 10.5905C0.0499621 10.6656 0.0201464 10.7488 0.00726063 10.8354C-0.00562511 10.922 -0.00132848 11.0103 0.0199052 11.0952C0.0627885 11.2667 0.172057 11.4142 0.323672 11.5052L7.65701 15.9052C7.76069 15.9675 7.87938 16.0004 8.00034 16.0004C8.1213 16.0004 8.23998 15.9675 8.34367 15.9052L15.677 11.5052C15.8286 11.4142 15.9379 11.2667 15.9808 11.0952C16.0237 10.9237 15.9966 10.7421 15.9057 10.5905C15.8147 10.4389 15.6672 10.3296 15.4957 10.2868C15.3242 10.2439 15.1426 10.2709 14.991 10.3619H14.9897Z" fill="#444444"/>
<path d="M7.99979 9.84893C7.64018 9.84873 7.28738 9.7508 6.97912 9.56559L0.323122 5.57159C0.224554 5.51233 0.142996 5.42856 0.0863762 5.32845C0.0297562 5.22834 0 5.11528 0 5.00026C0 4.88525 0.0297562 4.77219 0.0863762 4.67207C0.142996 4.57196 0.224554 4.4882 0.323122 4.42893L6.97912 0.434928C7.28737 0.249747 7.64019 0.151917 7.99979 0.151917C8.35938 0.151917 8.71221 0.249747 9.02046 0.434928L15.6765 4.42893C15.775 4.4882 15.8566 4.57196 15.9132 4.67207C15.9698 4.77219 15.9996 4.88525 15.9996 5.00026C15.9996 5.11528 15.9698 5.22834 15.9132 5.32845C15.8566 5.42856 15.775 5.51233 15.6765 5.57159L9.02046 9.56559C8.7122 9.7508 8.3594 9.84873 7.99979 9.84893ZM1.96246 5.00026L7.66646 8.42226C7.7672 8.48252 7.8824 8.51435 7.99979 8.51435C8.11718 8.51435 8.23238 8.48252 8.33312 8.42226L14.0371 5.00026L8.33312 1.57826C8.23238 1.518 8.11718 1.48617 7.99979 1.48617C7.8824 1.48617 7.7672 1.518 7.66646 1.57826L1.96246 5.00026Z" fill="#444444"/>
</g>
<defs>
<clipPath id="clip0_4024_19256">
<rect width="16" height="16" fill="white"/>
</clipPath>
</defs>
</svg>
