<svg width="17" height="16" viewBox="0 0 17 16" fill="none" xmlns="http://www.w3.org/2000/svg">
<g clip-path="url(#clip0_482_18052)">
<path d="M8.88873 10.6668C8.18149 10.6668 7.50321 10.3858 7.00311 9.88575C6.50302 9.38565 6.22206 8.70738 6.22206 8.00013C6.22206 7.29289 6.50302 6.61461 7.00311 6.11451C7.50321 5.61442 8.18149 5.33346 8.88873 5.33346C9.59597 5.33346 10.2743 5.61442 10.7743 6.11451C11.2744 6.61461 11.5554 7.29289 11.5554 8.00013C11.5554 8.70738 11.2744 9.38565 10.7743 9.88575C10.2743 10.3858 9.59597 10.6668 8.88873 10.6668ZM8.88873 6.6668C8.53511 6.6668 8.19597 6.80727 7.94592 7.05732C7.69587 7.30737 7.5554 7.64651 7.5554 8.00013C7.5554 8.35375 7.69587 8.69289 7.94592 8.94294C8.19597 9.19299 8.53511 9.33346 8.88873 9.33346C9.24235 9.33346 9.58149 9.19299 9.83154 8.94294C10.0816 8.69289 10.2221 8.35375 10.2221 8.00013C10.2221 7.64651 10.0816 7.30737 9.83154 7.05732C9.58149 6.80727 9.24235 6.6668 8.88873 6.6668ZM8.88873 16.0001C8.16151 15.9994 7.45442 15.7612 6.875 15.3217C6.29558 14.8822 5.87553 14.2656 5.67873 13.5655C4.97518 13.7208 4.2404 13.6475 3.58144 13.3561C2.92247 13.0648 2.37376 12.5706 2.01522 11.9456C1.65669 11.3207 1.50707 10.5976 1.58817 9.88165C1.66926 9.16572 1.97683 8.4944 2.46606 7.96546C0.199397 5.6248 2.47206 1.56546 5.68873 2.39946C5.89622 1.71224 6.31943 1.11006 6.89575 0.68205C7.47207 0.254039 8.17086 0.022934 8.88873 0.022934C9.6066 0.022934 10.3054 0.254039 10.8817 0.68205C11.458 1.11006 11.8812 1.71224 12.0887 2.39946C15.3554 1.5888 17.5554 5.60813 15.3081 7.99413C17.5801 10.3528 15.3154 14.2888 12.0987 13.5655C11.9019 14.2656 11.4819 14.8822 10.9025 15.3217C10.323 15.7612 9.61596 15.9994 8.88873 16.0001ZM6.22206 12.0001C6.39888 12.0001 6.56844 12.0704 6.69347 12.1954C6.81849 12.3204 6.88873 12.49 6.88873 12.6668C6.88873 13.1972 7.09944 13.7059 7.47452 14.081C7.84959 14.4561 8.3583 14.6668 8.88873 14.6668C9.41916 14.6668 9.92787 14.4561 10.3029 14.081C10.678 13.7059 10.8887 13.1972 10.8887 12.6668C10.8887 12.5494 10.9196 12.434 10.9785 12.3324C11.0374 12.2307 11.122 12.1465 11.2239 12.0881C11.3258 12.0297 11.4413 11.9992 11.5588 11.9998C11.6762 12.0004 11.7914 12.032 11.8927 12.0915C14.2034 13.2081 16.1594 9.97013 13.9034 8.58546C13.7993 8.52724 13.7126 8.44231 13.6523 8.33942C13.5919 8.23653 13.5601 8.11941 13.5601 8.00013C13.5601 7.88085 13.5919 7.76373 13.6523 7.66085C13.7126 7.55796 13.7993 7.47302 13.9034 7.4148C16.1121 6.07546 14.2514 2.60213 11.8907 3.91213C11.7892 3.9712 11.6739 4.00241 11.5565 4.00261C11.4391 4.0028 11.3237 3.97198 11.222 3.91325C11.1203 3.85452 11.0359 3.76998 10.9774 3.66817C10.9189 3.56636 10.8883 3.45089 10.8887 3.33346C10.8887 2.80303 10.678 2.29432 10.3029 1.91925C9.92787 1.54418 9.41916 1.33346 8.88873 1.33346C8.3583 1.33346 7.84959 1.54418 7.47452 1.91925C7.09944 2.29432 6.88873 2.80303 6.88873 3.33346C6.88896 3.4506 6.85833 3.56573 6.79991 3.66726C6.74149 3.76879 6.65735 3.85313 6.55597 3.9118C6.45458 3.97047 6.33953 4.00139 6.22239 4.00145C6.10526 4.00151 5.99017 3.9707 5.88873 3.91213C3.5554 2.60546 1.6474 6.05346 3.87406 7.38013C3.97815 7.43845 4.06481 7.52345 4.12513 7.62639C4.18545 7.72933 4.21725 7.84649 4.21725 7.9658C4.21725 8.08511 4.18545 8.20226 4.12513 8.3052C4.06481 8.40814 3.97815 8.49314 3.87406 8.55146C1.64206 9.96013 3.5314 13.2001 5.88473 12.0915C5.98705 12.0316 6.1035 12 6.22206 12.0001Z" fill="black"/>
</g>
<defs>
<clipPath id="clip0_482_18052">
<rect width="16" height="16" fill="white" transform="translate(0.888672)"/>
</clipPath>
</defs>
</svg>
