<svg width="17" height="16" viewBox="0 0 17 16" fill="none" xmlns="http://www.w3.org/2000/svg">
<g clip-path="url(#clip0_482_18035)">
<path d="M11.4435 10.6667C11.4435 10.7985 11.4044 10.9274 11.3312 11.037C11.2579 11.1467 11.1538 11.2321 11.032 11.2826C10.9102 11.333 10.7761 11.3462 10.6468 11.3205C10.5175 11.2948 10.3987 11.2313 10.3055 11.1381C10.2122 11.0448 10.1487 10.926 10.123 10.7967C10.0973 10.6674 10.1105 10.5334 10.1609 10.4115C10.2114 10.2897 10.2969 10.1856 10.4065 10.1124C10.5161 10.0391 10.645 10 10.7769 10C10.9537 10 11.1232 10.0702 11.2483 10.1953C11.3733 10.3203 11.4435 10.4899 11.4435 10.6667ZM13.4435 10C13.3117 10 13.1828 10.0391 13.0732 10.1124C12.9635 10.1856 12.8781 10.2897 12.8276 10.4115C12.7772 10.5334 12.764 10.6674 12.7897 10.7967C12.8154 10.926 12.8789 11.0448 12.9721 11.1381C13.0654 11.2313 13.1842 11.2948 13.3135 11.3205C13.4428 11.3462 13.5768 11.333 13.6987 11.2826C13.8205 11.2321 13.9246 11.1467 13.9978 11.037C14.0711 10.9274 14.1102 10.7985 14.1102 10.6667C14.1102 10.4899 14.04 10.3203 13.9149 10.1953C13.7899 10.0702 13.6203 10 13.4435 10ZM12.1102 8C11.9783 8 11.8495 8.0391 11.7398 8.11235C11.6302 8.18561 11.5447 8.28973 11.4943 8.41154C11.4438 8.53336 11.4306 8.66741 11.4563 8.79673C11.4821 8.92605 11.5456 9.04484 11.6388 9.13807C11.732 9.23131 11.8508 9.2948 11.9801 9.32052C12.1095 9.34625 12.2435 9.33305 12.3653 9.28259C12.4871 9.23213 12.5913 9.14668 12.6645 9.03705C12.7378 8.92741 12.7769 8.79852 12.7769 8.66667C12.7769 8.48986 12.7066 8.32029 12.5816 8.19526C12.4566 8.07024 12.287 8 12.1102 8ZM16.7769 10.6667C16.7782 11.6863 16.4868 12.6848 15.9374 13.5437C15.388 14.4026 14.6036 15.0858 13.6774 15.5121C12.7512 15.9384 11.7221 16.09 10.7123 15.9487C9.70257 15.8075 8.75455 15.3794 7.98087 14.7153C7.74329 15.1068 7.40903 15.4305 7.01022 15.6555C6.6114 15.8805 6.16143 15.9991 5.70354 16H3.8502C3.34342 16.0004 2.84701 15.8564 2.41912 15.5848C1.99123 15.3133 1.64959 14.9254 1.4342 14.4667C0.988662 13.4828 0.764281 12.4133 0.776869 11.3333C0.856915 10.0426 1.25446 8.79153 1.9342 7.69133C2.38862 6.9786 2.67664 6.17265 2.77687 5.33333C2.70084 4.83921 2.57715 4.35361 2.40754 3.88333C2.25548 3.49258 2.15551 3.08351 2.1102 2.66667C2.1102 1.95942 2.39115 1.28115 2.89125 0.781049C3.39135 0.280952 4.06962 0 4.77687 0C5.48411 0 6.16239 0.280952 6.66249 0.781049C7.16258 1.28115 7.44353 1.95942 7.44353 2.66667C7.39823 3.08351 7.29826 3.49258 7.1462 3.88333C6.97658 4.35361 6.85289 4.83921 6.77687 5.33333C6.83377 6.00162 7.04044 6.64851 7.38154 7.226C8.08569 6.39092 9.02963 5.79261 10.0854 5.5122C11.1411 5.2318 12.2575 5.28288 13.2832 5.65851C14.309 6.03413 15.1943 6.71614 15.8193 7.61203C16.4442 8.50791 16.7786 9.57434 16.7769 10.6667ZM3.44354 2.66667C3.4542 2.76667 3.5842 3.18133 3.67954 3.484C3.9048 4.07852 4.04964 4.70046 4.1102 5.33333H5.44354C5.5041 4.70046 5.64894 4.07852 5.8742 3.484C5.96793 3.21003 6.04671 2.93118 6.1102 2.64867C6.10781 2.29504 5.96505 1.95685 5.71331 1.70849C5.46158 1.46013 5.12149 1.32195 4.76787 1.32433C4.41425 1.32672 4.07606 1.46949 3.8277 1.72122C3.57934 1.97296 3.44115 2.31304 3.44354 2.66667ZM6.9102 13.904C7.27382 13.0964 7.45587 12.2189 7.44353 11.3333C7.35504 10.2578 7.00933 9.21931 6.43553 8.30533C6.14682 7.77815 5.89726 7.23045 5.68887 6.66667H3.86487C3.65648 7.23045 3.40692 7.77815 3.1182 8.30533C2.54441 9.21931 2.1987 10.2578 2.1102 11.3333C2.09794 12.2191 2.27999 13.0968 2.64354 13.9047C2.7518 14.133 2.92271 14.3258 3.13634 14.4607C3.34997 14.5956 3.59754 14.667 3.8502 14.6667H5.70354C5.95627 14.667 6.20389 14.5954 6.41753 14.4604C6.63117 14.3254 6.80203 14.1324 6.9102 13.904ZM15.4435 10.6667C15.4447 9.79759 15.1624 8.95184 14.6394 8.25774C14.1164 7.56364 13.3813 7.05907 12.5455 6.82059C11.7098 6.5821 10.8191 6.62271 10.0086 6.93626C9.19802 7.24981 8.51187 7.81919 8.0542 8.558C8.50072 9.417 8.74774 10.3657 8.77687 11.3333C8.77701 12.0222 8.68554 12.708 8.50487 13.3727C9.04931 13.9658 9.76026 14.3806 10.5445 14.5627C11.3288 14.7448 12.1498 14.6857 12.8999 14.3932C13.65 14.1007 14.2942 13.5883 14.7481 12.9234C15.202 12.2584 15.4444 11.4718 15.4435 10.6667Z" fill="black"/>
</g>
<defs>
<clipPath id="clip0_482_18035">
<rect width="16" height="16" fill="white" transform="translate(0.777344)"/>
</clipPath>
</defs>
</svg>
