<svg width="17" height="16" viewBox="0 0 17 16" fill="none" xmlns="http://www.w3.org/2000/svg">
<g clip-path="url(#clip0_482_18104)">
<path d="M8.22266 0C6.64041 0 5.09369 0.469192 3.7781 1.34824C2.4625 2.22729 1.43712 3.47672 0.831624 4.93853C0.226123 6.40034 0.0676958 8.00887 0.376378 9.56072C0.685059 11.1126 1.44699 12.538 2.56581 13.6569C3.68463 14.7757 5.11009 15.5376 6.66194 15.8463C8.21379 16.155 9.82232 15.9965 11.2841 15.391C12.7459 14.7855 13.9954 13.7602 14.8744 12.4446C15.7535 11.129 16.2227 9.58225 16.2227 8C16.2204 5.87897 15.3768 3.84547 13.877 2.34568C12.3772 0.845886 10.3437 0.00229405 8.22266 0V0ZM8.22266 14.6667C6.90412 14.6667 5.61519 14.2757 4.51886 13.5431C3.42253 12.8106 2.56805 11.7694 2.06346 10.5512C1.55888 9.33305 1.42686 7.99261 1.68409 6.6994C1.94133 5.40619 2.57626 4.21831 3.50861 3.28596C4.44096 2.35361 5.62885 1.71867 6.92206 1.46143C8.21526 1.2042 9.55571 1.33622 10.7739 1.8408C11.9921 2.34539 13.0332 3.19987 13.7658 4.2962C14.4983 5.39253 14.8893 6.68146 14.8893 8C14.8874 9.76752 14.1844 11.4621 12.9346 12.7119C11.6847 13.9617 9.99017 14.6647 8.22266 14.6667Z" fill="black"/>
<path d="M8.22233 3.3335C8.04552 3.3335 7.87595 3.40373 7.75093 3.52876C7.6259 3.65378 7.55566 3.82335 7.55566 4.00016V9.3335C7.55566 9.51031 7.6259 9.67988 7.75093 9.8049C7.87595 9.92992 8.04552 10.0002 8.22233 10.0002C8.39915 10.0002 8.56872 9.92992 8.69374 9.8049C8.81877 9.67988 8.88901 9.51031 8.88901 9.3335V4.00016C8.88901 3.82335 8.81877 3.65378 8.69374 3.52876C8.56872 3.40373 8.39915 3.3335 8.22233 3.3335Z" fill="black"/>
<path d="M8.88901 12C8.88901 11.6319 8.59053 11.3334 8.22233 11.3334C7.85414 11.3334 7.55566 11.6319 7.55566 12C7.55566 12.3682 7.85414 12.6667 8.22233 12.6667C8.59053 12.6667 8.88901 12.3682 8.88901 12Z" fill="black"/>
</g>
<defs>
<clipPath id="clip0_482_18104">
<rect width="16" height="16" fill="white" transform="translate(0.222656)"/>
</clipPath>
</defs>
</svg>
