<svg width="17" height="16" viewBox="0 0 17 16" fill="none" xmlns="http://www.w3.org/2000/svg">
<g clip-path="url(#clip0_483_13752)">
<path d="M11.7432 5.36678C11.5521 5.41757 11.3803 5.52388 11.2496 5.67229C11.1189 5.8207 11.0351 6.00454 11.0088 6.20055C10.9826 6.39657 11.0151 6.59597 11.1021 6.77354C11.1892 6.9511 11.327 7.09886 11.498 7.19814C11.6691 7.29741 11.8657 7.34373 12.0631 7.33126C12.2605 7.31878 12.4497 7.24805 12.6069 7.12803C12.7641 7.00801 12.8822 6.84407 12.9462 6.65695C13.0102 6.46983 13.0173 6.26793 12.9666 6.07678C12.9329 5.94983 12.8745 5.83075 12.7948 5.72636C12.7151 5.62196 12.6156 5.5343 12.502 5.46836C12.3884 5.40243 12.2629 5.35952 12.1327 5.3421C12.0025 5.32467 11.8702 5.33305 11.7432 5.36678Z" fill="black"/>
<path d="M8.40924 3.36678C8.2181 3.41757 8.04631 3.52388 7.9156 3.67229C7.78488 3.8207 7.7011 4.00454 7.67486 4.20055C7.64862 4.39657 7.68108 4.59597 7.76816 4.77354C7.85523 4.95111 7.993 5.09887 8.16405 5.19814C8.3351 5.29741 8.53174 5.34374 8.72911 5.33126C8.92649 5.31878 9.11573 5.24806 9.27291 5.12803C9.43009 5.00801 9.54816 4.84407 9.61218 4.65695C9.67619 4.46984 9.68329 4.26793 9.63257 4.07678C9.59888 3.94983 9.54051 3.83075 9.4608 3.72636C9.38108 3.62196 9.28158 3.5343 9.16798 3.46836C9.05438 3.40243 8.9289 3.35952 8.79871 3.3421C8.66853 3.32467 8.53618 3.33305 8.40924 3.36678Z" fill="black"/>
<path d="M5.07623 5.36678C4.88509 5.41757 4.7133 5.52388 4.58259 5.67229C4.45187 5.8207 4.3681 6.00454 4.34185 6.20055C4.31561 6.39657 4.34808 6.59597 4.43515 6.77354C4.52223 6.9511 4.66 7.09886 4.83104 7.19814C5.00209 7.29741 5.19873 7.34373 5.3961 7.33126C5.59348 7.31878 5.78272 7.24805 5.9399 7.12803C6.09708 7.00801 6.21515 6.84407 6.27916 6.65695C6.34318 6.46983 6.35028 6.26793 6.29956 6.07678C6.26587 5.94983 6.2075 5.83075 6.12779 5.72636C6.04807 5.62196 5.94857 5.5343 5.83497 5.46836C5.72137 5.40243 5.59589 5.35952 5.4657 5.3421C5.33552 5.32467 5.20317 5.33305 5.07623 5.36678Z" fill="black"/>
<path d="M5.07623 9.36678C4.88509 9.41757 4.7133 9.52388 4.58259 9.67229C4.45187 9.8207 4.3681 10.0045 4.34185 10.2006C4.31561 10.3966 4.34808 10.596 4.43515 10.7735C4.52223 10.9511 4.66 11.0989 4.83104 11.1981C5.00209 11.2974 5.19873 11.3437 5.3961 11.3313C5.59348 11.3188 5.78272 11.2481 5.9399 11.128C6.09708 11.008 6.21515 10.8441 6.27916 10.657C6.34318 10.4698 6.35028 10.2679 6.29956 10.0768C6.26587 9.94983 6.2075 9.83075 6.12779 9.72636C6.04807 9.62196 5.94857 9.5343 5.83497 9.46836C5.72137 9.40243 5.59589 9.35952 5.4657 9.3421C5.33552 9.32467 5.20317 9.33305 5.07623 9.36678Z" fill="black"/>
<path d="M8.66667 0.00440474C7.59333 -0.0329164 6.52346 0.146265 5.52085 0.531266C4.51824 0.916267 3.60342 1.49921 2.83092 2.24533C2.05841 2.99145 1.44406 3.88548 1.02447 4.87411C0.604879 5.86275 0.38865 6.92575 0.388672 7.99974C0.391142 10.1207 1.23479 12.1541 2.73455 13.6539C4.2343 15.1536 6.2677 15.9973 8.38867 15.9997C8.61401 15.9997 8.83534 15.9851 9.05534 15.9664C9.22227 15.9523 9.37779 15.8759 9.49094 15.7524C9.6041 15.6289 9.6666 15.4673 9.66601 15.2997L9.64467 12.9077C9.63927 12.4351 9.77488 11.9715 10.0342 11.5762C10.2935 11.181 10.6647 10.872 11.1004 10.6887C11.5361 10.5053 12.0166 10.4561 12.4805 10.5471C12.9443 10.6381 13.3705 10.8653 13.7047 11.1997L13.7713 11.2664C13.9227 11.419 14.1102 11.5309 14.3164 11.5917C14.5226 11.6524 14.7408 11.66 14.9507 11.6137C15.1572 11.5704 15.3495 11.4758 15.5099 11.3387C15.6703 11.2016 15.7937 11.0263 15.8687 10.8291C16.2367 9.8626 16.4127 8.8336 16.3867 7.79974C16.3116 5.76908 15.4764 3.84072 14.0465 2.39689C12.6167 0.953061 10.6965 0.0991464 8.66667 0.00440474ZM14.6547 10.2711L14.6453 10.2617C14.1242 9.7415 13.4602 9.38803 12.7376 9.2463C12.015 9.10457 11.2666 9.18097 10.5876 9.46581C9.90858 9.75064 9.32963 10.231 8.92441 10.8458C8.5192 11.4606 8.30602 12.1821 8.31201 12.9184L8.328 14.6664C6.5599 14.6584 4.86736 13.9484 3.62275 12.6926C2.37813 11.4367 1.68338 9.73785 1.69134 7.96974C1.6993 6.20163 2.4093 4.5091 3.66517 3.26448C4.92104 2.01986 6.61989 1.32511 8.38801 1.33307C8.46601 1.33307 8.54467 1.33307 8.62334 1.33707C10.3143 1.41649 11.9136 2.12823 13.1046 3.33125C14.2955 4.53426 14.991 6.14077 15.0533 7.8324C15.0753 8.66146 14.9408 9.48723 14.6567 10.2664L14.6547 10.2711Z" fill="black"/>
</g>
<defs>
<clipPath id="clip0_483_13752">
<rect width="16" height="16" fill="white" transform="translate(0.333008)"/>
</clipPath>
</defs>
</svg>
