<svg width="17" height="16" viewBox="0 0 17 16" fill="none" xmlns="http://www.w3.org/2000/svg">
<g clip-path="url(#clip0_483_13623)">
<path d="M13.1649 13.5561C13.2232 13.6215 13.2681 13.6977 13.297 13.7804C13.3259 13.8632 13.3382 13.9508 13.3332 14.0383C13.3282 14.1258 13.3059 14.2114 13.2678 14.2903C13.2296 14.3692 13.1763 14.4398 13.1109 14.4981L12.0535 15.4408C11.8724 15.6201 11.6575 15.7619 11.4214 15.8579C11.1852 15.9538 10.9324 16.0022 10.6775 16.0001C10.4131 16.0006 10.1513 15.949 9.90691 15.8481C9.66254 15.7472 9.4405 15.599 9.25352 15.4121L8.22419 14.4961C8.15879 14.4379 8.1055 14.3674 8.06736 14.2885C8.02922 14.2097 8.00697 14.1242 8.0019 14.0368C7.99165 13.8602 8.05194 13.6869 8.16952 13.5548C8.2871 13.4227 8.45233 13.3427 8.62887 13.3325C8.71628 13.3274 8.80383 13.3396 8.88653 13.3684C8.96923 13.3971 9.04546 13.4419 9.11085 13.5001L10.0009 14.2961V9.33344C10.0009 9.15663 10.0711 8.98706 10.1961 8.86203C10.3211 8.73701 10.4907 8.66677 10.6675 8.66677C10.8443 8.66677 11.0139 8.73701 11.1389 8.86203C11.2639 8.98706 11.3342 9.15663 11.3342 9.33344V14.2968L12.2242 13.5021C12.3561 13.3846 12.5293 13.3243 12.7057 13.3345C12.8821 13.3446 13.0472 13.4243 13.1649 13.5561ZM12.9049 4.90744C12.7904 4.87189 12.6865 4.80853 12.6025 4.72302C12.5185 4.63752 12.457 4.53252 12.4235 4.41744C12.0705 3.28416 11.3496 2.30103 10.3748 1.62371C9.40006 0.946394 8.22721 0.613602 7.04198 0.678032C5.85676 0.742463 4.7269 1.20043 3.83131 1.97943C2.93572 2.75842 2.32558 3.81391 2.09752 4.97877C1.86351 6.15678 2.05236 7.37958 2.63085 8.43211C1.95649 8.78027 1.40813 9.33094 1.0628 10.0068C0.717472 10.6826 0.592529 11.4496 0.705521 12.2001C0.879288 13.072 1.34606 13.8582 2.02833 14.4282C2.7106 14.9981 3.56731 15.3176 4.45619 15.3334H6.00085C6.17767 15.3334 6.34723 15.2632 6.47226 15.1382C6.59728 15.0132 6.66752 14.8436 6.66752 14.6668C6.66752 14.49 6.59728 14.3204 6.47226 14.1954C6.34723 14.0703 6.17767 14.0001 6.00085 14.0001H4.45619C3.88683 13.9892 3.33765 13.7872 2.89685 13.4267C2.45604 13.0662 2.14917 12.568 2.02552 12.0121C1.95313 11.5345 2.03212 11.0462 2.2514 10.6157C2.47069 10.1853 2.81926 9.83433 3.24819 9.61211C3.55392 9.44314 3.78081 9.16057 3.87975 8.82556C3.97869 8.49056 3.94173 8.13006 3.77685 7.8221C3.51799 7.32841 3.36518 6.78605 3.32822 6.22983C3.29127 5.67361 3.37098 5.1158 3.56224 4.59219C3.75351 4.06859 4.05211 3.59074 4.43888 3.1893C4.82566 2.78786 5.29207 2.4717 5.80821 2.26109C6.32434 2.05049 6.87879 1.95009 7.436 1.96633C7.99321 1.98258 8.54088 2.11511 9.04386 2.35543C9.54685 2.59576 9.99405 2.93856 10.3568 3.36185C10.7195 3.78514 10.9898 4.27957 11.1502 4.81344C11.2489 5.13524 11.4246 5.42808 11.6622 5.66649C11.8998 5.9049 12.1921 6.08167 12.5135 6.18144C13.3844 6.44643 14.1381 7.0019 14.6491 7.75525C15.1601 8.5086 15.3974 9.41432 15.3215 10.3214C15.2713 11.0268 15.0136 11.7015 14.5809 12.2608C14.4731 12.401 14.4254 12.5783 14.4484 12.7536C14.4713 12.929 14.563 13.088 14.7032 13.1958C14.8434 13.3035 15.0207 13.3512 15.196 13.3283C15.3714 13.3053 15.5304 13.2137 15.6382 13.0734C16.2255 12.3077 16.5776 11.3877 16.6515 10.4254C16.7522 9.2159 16.4352 8.00839 15.7534 7.00426C15.0716 6.00013 14.0662 5.26005 12.9049 4.90744Z" fill="black"/>
</g>
<defs>
<clipPath id="clip0_483_13623">
<rect width="16" height="16" fill="white" transform="translate(0.666992)"/>
</clipPath>
</defs>
</svg>
