<svg width="17" height="16" viewBox="0 0 17 16" fill="none" xmlns="http://www.w3.org/2000/svg">
<g clip-path="url(#clip0_483_13841)">
<path d="M8.88867 4C8.35824 4 7.84953 4.21071 7.47446 4.58579C7.09939 4.96086 6.88867 5.46957 6.88867 6V14C6.88867 14.5304 7.09939 15.0391 7.47446 15.4142C7.84953 15.7893 8.35824 16 8.88867 16C9.4191 16 9.92781 15.7893 10.3029 15.4142C10.678 15.0391 10.8887 14.5304 10.8887 14V6C10.8887 5.46957 10.678 4.96086 10.3029 4.58579C9.92781 4.21071 9.4191 4 8.88867 4Z" fill="black"/>
<path d="M14.8887 0C14.3582 0 13.8495 0.210714 13.4745 0.585786C13.0994 0.960859 12.8887 1.46957 12.8887 2V14C12.8887 14.5304 13.0994 15.0391 13.4745 15.4142C13.8495 15.7893 14.3582 16 14.8887 16C15.4191 16 15.9278 15.7893 16.3029 15.4142C16.678 15.0391 16.8887 14.5304 16.8887 14V2C16.8887 1.46957 16.678 0.960859 16.3029 0.585786C15.9278 0.210714 15.4191 0 14.8887 0V0ZM15.5553 14C15.5553 14.1768 15.4851 14.3464 15.3601 14.4714C15.2351 14.5964 15.0655 14.6667 14.8887 14.6667C14.7119 14.6667 14.5423 14.5964 14.4173 14.4714C14.2922 14.3464 14.222 14.1768 14.222 14V2C14.222 1.82319 14.2922 1.65362 14.4173 1.5286C14.5423 1.40357 14.7119 1.33333 14.8887 1.33333C15.0655 1.33333 15.2351 1.40357 15.3601 1.5286C15.4851 1.65362 15.5553 1.82319 15.5553 2V14Z" fill="black"/>
<path d="M2.88867 8C2.35824 8 1.84953 8.21071 1.47446 8.58579C1.09939 8.96086 0.888672 9.46957 0.888672 10L0.888672 14C0.888672 14.5304 1.09939 15.0391 1.47446 15.4142C1.84953 15.7893 2.35824 16 2.88867 16C3.4191 16 3.92781 15.7893 4.30289 15.4142C4.67796 15.0391 4.88867 14.5304 4.88867 14V10C4.88867 9.46957 4.67796 8.96086 4.30289 8.58579C3.92781 8.21071 3.4191 8 2.88867 8Z" fill="black"/>
</g>
<defs>
<clipPath id="clip0_483_13841">
<rect width="16" height="16" fill="white" transform="translate(0.888672)"/>
</clipPath>
</defs>
</svg>
