<svg width="16" height="16" viewBox="0 0 16 16" fill="none" xmlns="http://www.w3.org/2000/svg">
<g clip-path="url(#clip0_483_13759)">
<path d="M10.6667 0H5.33333C4.4496 0.00105857 3.60237 0.352588 2.97748 0.97748C2.35259 1.60237 2.00106 2.4496 2 3.33333V12.6667C2.00106 13.5504 2.35259 14.3976 2.97748 15.0225C3.60237 15.6474 4.4496 15.9989 5.33333 16H10.6667C11.5504 15.9989 12.3976 15.6474 13.0225 15.0225C13.6474 14.3976 13.9989 13.5504 14 12.6667V3.33333C13.9989 2.4496 13.6474 1.60237 13.0225 0.97748C12.3976 0.352588 11.5504 0.00105857 10.6667 0V0ZM12.6667 12.6667C12.6667 13.1971 12.456 13.7058 12.0809 14.0809C11.7058 14.456 11.1971 14.6667 10.6667 14.6667H5.33333C4.8029 14.6667 4.29419 14.456 3.91912 14.0809C3.54405 13.7058 3.33333 13.1971 3.33333 12.6667V3.33333C3.33333 2.8029 3.54405 2.29419 3.91912 1.91912C4.29419 1.54405 4.8029 1.33333 5.33333 1.33333H10.6667C11.1971 1.33333 11.7058 1.54405 12.0809 1.91912C12.456 2.29419 12.6667 2.8029 12.6667 3.33333V12.6667Z" fill="black"/>
<path d="M8 5C8.55228 5 9 4.55228 9 4C9 3.44772 8.55228 3 8 3C7.44772 3 7 3.44772 7 4C7 4.55228 7.44772 5 8 5Z" fill="black"/>
<path d="M7.99935 6.66626C7.34008 6.66626 6.69561 6.86176 6.14745 7.22803C5.59929 7.5943 5.17204 8.11489 4.91975 8.72398C4.66746 9.33307 4.60145 10.0033 4.73007 10.6499C4.85868 11.2965 5.17615 11.8904 5.64233 12.3566C6.1085 12.8228 6.70245 13.1403 7.34905 13.2689C7.99565 13.3975 8.66587 13.3315 9.27496 13.0792C9.88405 12.8269 10.4046 12.3997 10.7709 11.8515C11.1372 11.3033 11.3327 10.6589 11.3327 9.99959C11.3316 9.11586 10.9801 8.26863 10.3552 7.64374C9.73031 7.01885 8.88308 6.66732 7.99935 6.66626ZM7.99935 11.9996C7.60379 11.9996 7.21711 11.8823 6.88821 11.6625C6.55931 11.4428 6.30297 11.1304 6.15159 10.765C6.00022 10.3995 5.96061 9.99738 6.03778 9.60941C6.11495 9.22145 6.30543 8.86508 6.58514 8.58538C6.86484 8.30567 7.22121 8.11519 7.60917 8.03802C7.99713 7.96085 8.39927 8.00046 8.76472 8.15183C9.13017 8.30321 9.44253 8.55955 9.66229 8.88845C9.88205 9.21735 9.99935 9.60403 9.99935 9.99959C9.99935 10.53 9.78864 11.0387 9.41356 11.4138C9.03849 11.7889 8.52978 11.9996 7.99935 11.9996Z" fill="black"/>
<path d="M8.00065 10.6671C8.36885 10.6671 8.66733 10.3686 8.66733 10.0004C8.66733 9.63222 8.36885 9.33374 8.00065 9.33374C7.63246 9.33374 7.33398 9.63222 7.33398 10.0004C7.33398 10.3686 7.63246 10.6671 8.00065 10.6671Z" fill="black"/>
</g>
<defs>
<clipPath id="clip0_483_13759">
<rect width="16" height="16" fill="white"/>
</clipPath>
</defs>
</svg>
