<svg width="17" height="16" viewBox="0 0 17 16" fill="none" xmlns="http://www.w3.org/2000/svg">
<path d="M11.0439 6.58669L7.98388 3.52669C7.85897 3.40252 7.69 3.33282 7.51388 3.33282C7.33775 3.33282 7.16879 3.40252 7.04388 3.52669C6.98139 3.58866 6.9318 3.6624 6.89795 3.74364C6.86411 3.82487 6.84668 3.91201 6.84668 4.00002C6.84668 4.08803 6.86411 4.17516 6.89795 4.2564C6.9318 4.33764 6.98139 4.41138 7.04388 4.47335L10.1105 7.52669C10.173 7.58866 10.2226 7.6624 10.2565 7.74364C10.2903 7.82488 10.3077 7.91201 10.3077 8.00002C10.3077 8.08803 10.2903 8.17517 10.2565 8.25641C10.2226 8.33764 10.173 8.41138 10.1105 8.47335L7.04388 11.5267C6.91834 11.6513 6.84747 11.8208 6.84684 11.9977C6.84622 12.1746 6.91589 12.3445 7.04055 12.47C7.1652 12.5956 7.33461 12.6664 7.51152 12.6671C7.68843 12.6677 7.85834 12.598 7.98388 12.4734L11.0439 9.41335C11.4184 9.03835 11.6288 8.53002 11.6288 8.00002C11.6288 7.47002 11.4184 6.96169 11.0439 6.58669Z" fill="black"/>
</svg>
