<svg width="17" height="16" viewBox="0 0 17 16" fill="none" xmlns="http://www.w3.org/2000/svg">
<g clip-path="url(#clip0_483_13892)">
<path d="M14.5295 2.75591C14.3947 1.98341 13.9915 1.28331 13.3909 0.779093C12.7904 0.274875 12.031 -0.00107521 11.2469 -8.77026e-05H5.1902C4.40542 -0.0012809 3.64546 0.274903 3.04455 0.779683C2.44365 1.28446 2.04046 1.98536 1.90621 2.75858L0.273543 12.0919C0.1897 12.571 0.211696 13.0625 0.337986 13.5322C0.464276 14.0018 0.691801 14.4381 1.0046 14.8105C1.3174 15.1829 1.70789 15.4823 2.14868 15.6878C2.58947 15.8933 3.06988 15.9998 3.55621 15.9999H12.8895C13.3762 16 13.8569 15.8935 14.298 15.6879C14.7391 15.4823 15.1299 15.1826 15.4428 14.8099C15.7557 14.4372 15.9832 14.0005 16.1093 13.5305C16.2355 13.0605 16.2571 12.5685 16.1729 12.0892L14.5295 2.75591ZM14.4229 13.9526C14.235 14.1764 14.0003 14.3563 13.7354 14.4797C13.4705 14.603 13.1818 14.6668 12.8895 14.6666H3.55621C3.26432 14.6666 2.97598 14.6027 2.71141 14.4794C2.44684 14.3561 2.21246 14.1764 2.02473 13.9529C1.837 13.7294 1.70046 13.4676 1.62471 13.1857C1.54895 12.9038 1.53581 12.6087 1.58621 12.3212L3.21887 2.98791C3.30016 2.5242 3.54243 2.10403 3.90302 1.80136C4.26361 1.49869 4.71942 1.33292 5.1902 1.33325H11.2469C11.7171 1.33334 12.1723 1.49913 12.5324 1.80149C12.8926 2.10385 13.1347 2.52345 13.2162 2.98658L14.8582 12.3199C14.9092 12.6073 14.8966 12.9024 14.8214 13.1845C14.7462 13.4665 14.6102 13.7287 14.4229 13.9526ZM8.88953 3.33325V4.66658C8.88953 4.84339 8.81929 5.01296 8.69427 5.13798C8.56925 5.26301 8.39968 5.33325 8.22287 5.33325C8.04606 5.33325 7.87649 5.26301 7.75146 5.13798C7.62644 5.01296 7.5562 4.84339 7.5562 4.66658V3.33325C7.5562 3.15643 7.62644 2.98687 7.75146 2.86184C7.87649 2.73682 8.04606 2.66658 8.22287 2.66658C8.39968 2.66658 8.56925 2.73682 8.69427 2.86184C8.81929 2.98687 8.88953 3.15643 8.88953 3.33325ZM8.88953 7.33325V8.66658C8.88953 8.84339 8.81929 9.01296 8.69427 9.13798C8.56925 9.26301 8.39968 9.33325 8.22287 9.33325C8.04606 9.33325 7.87649 9.26301 7.75146 9.13798C7.62644 9.01296 7.5562 8.84339 7.5562 8.66658V7.33325C7.5562 7.15644 7.62644 6.98687 7.75146 6.86184C7.87649 6.73682 8.04606 6.66658 8.22287 6.66658C8.39968 6.66658 8.56925 6.73682 8.69427 6.86184C8.81929 6.98687 8.88953 7.15644 8.88953 7.33325ZM8.88953 11.3332V12.6666C8.88953 12.8434 8.81929 13.013 8.69427 13.138C8.56925 13.263 8.39968 13.3332 8.22287 13.3332C8.04606 13.3332 7.87649 13.263 7.75146 13.138C7.62644 13.013 7.5562 12.8434 7.5562 12.6666V11.3332C7.5562 11.1564 7.62644 10.9869 7.75146 10.8618C7.87649 10.7368 8.04606 10.6666 8.22287 10.6666C8.39968 10.6666 8.56925 10.7368 8.69427 10.8618C8.81929 10.9869 8.88953 11.1564 8.88953 11.3332Z" fill="black"/>
</g>
<defs>
<clipPath id="clip0_483_13892">
<rect width="16" height="16" fill="white" transform="translate(0.222656)"/>
</clipPath>
</defs>
</svg>
