<svg width="17" height="16" viewBox="0 0 17 16" fill="none" xmlns="http://www.w3.org/2000/svg">
<g clip-path="url(#clip0_483_13669)">
<path d="M9.44369 9.4564V5.33374C9.44369 5.15693 9.37345 4.98736 9.24843 4.86233C9.1234 4.73731 8.95383 4.66707 8.77702 4.66707C8.60021 4.66707 8.43064 4.73731 8.30562 4.86233C8.18059 4.98736 8.11035 5.15693 8.11035 5.33374V9.4564C7.66666 9.61362 7.29281 9.9226 7.05485 10.3287C6.81688 10.7349 6.73012 11.2121 6.80989 11.676C6.88965 12.1399 7.13081 12.5607 7.49076 12.8641C7.85071 13.1674 8.30629 13.3338 8.77702 13.3338C9.24775 13.3338 9.70333 13.1674 10.0633 12.8641C10.4232 12.5607 10.6644 12.1399 10.7442 11.676C10.8239 11.2121 10.7372 10.7349 10.4992 10.3287C10.2612 9.9226 9.88738 9.61362 9.44369 9.4564ZM12.1104 8.0744V3.33374C11.9697 -1.07225 5.58302 -1.06625 5.44369 3.33374V8.0744C4.80057 8.73078 4.36556 9.56241 4.19319 10.465C4.02082 11.3676 4.11877 12.301 4.47475 13.1482C4.83074 13.9954 5.42891 14.7186 6.19427 15.2272C6.95962 15.7357 7.8581 16.007 8.77702 16.007C9.69594 16.007 10.5944 15.7357 11.3598 15.2272C12.1251 14.7186 12.7233 13.9954 13.0793 13.1482C13.4353 12.301 13.5332 11.3676 13.3609 10.465C13.1885 9.56241 12.7535 8.73078 12.1104 8.0744ZM8.77702 14.6671C8.10604 14.6595 7.45283 14.4504 6.90225 14.0668C6.35167 13.6832 5.92917 13.143 5.68963 12.5161C5.45009 11.8893 5.40459 11.205 5.55904 10.552C5.71348 9.89896 6.06074 9.30749 6.55569 8.8544C6.62532 8.79189 6.68102 8.71542 6.71916 8.62996C6.75729 8.54451 6.77701 8.45198 6.77702 8.3584V3.33374C6.77702 2.80331 6.98773 2.2946 7.36281 1.91953C7.73788 1.54446 8.24659 1.33374 8.77702 1.33374C9.30745 1.33374 9.81616 1.54446 10.1912 1.91953C10.5663 2.2946 10.777 2.80331 10.777 3.33374V8.3584C10.777 8.45198 10.7968 8.54451 10.8349 8.62996C10.873 8.71542 10.9287 8.79189 10.9984 8.8544C11.4933 9.30749 11.8406 9.89896 11.995 10.552C12.1494 11.205 12.1039 11.8893 11.8644 12.5161C11.6249 13.143 11.2024 13.6832 10.6518 14.0668C10.1012 14.4504 9.448 14.6595 8.77702 14.6671Z" fill="black"/>
</g>
<defs>
<clipPath id="clip0_483_13669">
<rect width="16" height="16" fill="white" transform="translate(0.777344)"/>
</clipPath>
</defs>
</svg>
