<svg width="17" height="16" viewBox="0 0 17 16" fill="none" xmlns="http://www.w3.org/2000/svg">
<g clip-path="url(#clip0_482_18095)">
<path d="M12.8814 0.62013L4.75336 8.74813C4.44292 9.05689 4.19681 9.42417 4.02928 9.82869C3.86175 10.2332 3.77612 10.667 3.77736 11.1048V12.0001C3.77736 12.1769 3.84759 12.3465 3.97262 12.4715C4.09764 12.5966 4.26721 12.6668 4.44402 12.6668H5.33936C5.7772 12.668 6.21094 12.5824 6.61546 12.4149C7.01999 12.2473 7.38726 12.0012 7.69602 11.6908L15.824 3.5628C16.2136 3.17224 16.4324 2.64311 16.4324 2.09146C16.4324 1.53981 16.2136 1.01068 15.824 0.62013C15.4278 0.241392 14.9008 0.0300293 14.3527 0.0300293C13.8046 0.0300293 13.2776 0.241392 12.8814 0.62013ZM14.8814 2.62013L6.75336 10.7481C6.37744 11.1218 5.86936 11.3321 5.33936 11.3335H5.11069V11.1048C5.11208 10.5748 5.3224 10.0667 5.69602 9.6908L13.824 1.5628C13.9664 1.42677 14.1558 1.35086 14.3527 1.35086C14.5496 1.35086 14.739 1.42677 14.8814 1.5628C15.0213 1.70314 15.0999 1.89326 15.0999 2.09146C15.0999 2.28967 15.0213 2.47979 14.8814 2.62013Z" fill="black"/>
<path d="M15.7777 5.986C15.6009 5.986 15.4313 6.05624 15.3063 6.18126C15.1812 6.30629 15.111 6.47586 15.111 6.65267V10H12.4443C11.9139 10 11.4052 10.2107 11.0301 10.5858C10.6551 10.9609 10.4443 11.4696 10.4443 12V14.6667H3.77767C3.24724 14.6667 2.73853 14.456 2.36346 14.0809C1.98838 13.7058 1.77767 13.1971 1.77767 12.6667V3.33333C1.77767 2.8029 1.98838 2.29419 2.36346 1.91912C2.73853 1.54405 3.24724 1.33333 3.77767 1.33333H9.80567C9.98248 1.33333 10.1521 1.2631 10.2771 1.13807C10.4021 1.01305 10.4723 0.843478 10.4723 0.666667C10.4723 0.489856 10.4021 0.320286 10.2771 0.195262C10.1521 0.0702379 9.98248 0 9.80567 0L3.77767 0C2.89394 0.00105857 2.04671 0.352588 1.42182 0.97748C0.796924 1.60237 0.445395 2.4496 0.444336 3.33333L0.444336 12.6667C0.445395 13.5504 0.796924 14.3976 1.42182 15.0225C2.04671 15.6474 2.89394 15.9989 3.77767 16H11.3397C11.7776 16.0013 12.2115 15.9156 12.6161 15.7481C13.0207 15.5806 13.3881 15.3345 13.697 15.024L15.4677 13.252C15.7782 12.9432 16.0244 12.576 16.192 12.1715C16.3596 11.767 16.4454 11.3332 16.4443 10.8953V6.65267C16.4443 6.47586 16.3741 6.30629 16.2491 6.18126C16.1241 6.05624 15.9545 5.986 15.7777 5.986ZM12.7543 14.0813C12.4863 14.3487 12.1475 14.5337 11.7777 14.6147V12C11.7777 11.8232 11.8479 11.6536 11.9729 11.5286C12.098 11.4036 12.2675 11.3333 12.4443 11.3333H15.061C14.9785 11.7023 14.7937 12.0406 14.5277 12.3093L12.7543 14.0813Z" fill="black"/>
</g>
<defs>
<clipPath id="clip0_482_18095">
<rect width="16" height="16" fill="white" transform="translate(0.444336)"/>
</clipPath>
</defs>
</svg>
