<svg width="16" height="16" viewBox="0 0 16 16" fill="none" xmlns="http://www.w3.org/2000/svg">
<path d="M13.6627 5.31174L7.30267 0.645071C6.80593 0.281327 6.21815 0.0622668 5.60451 0.0121794C4.99087 -0.037908 4.37535 0.082935 3.8262 0.361309C3.27704 0.639683 2.81572 1.06471 2.49337 1.58926C2.17103 2.11381 2.00026 2.71739 2 3.33307V12.6664C2.00011 13.2824 2.17089 13.8862 2.49338 14.411C2.81588 14.9358 3.27748 15.361 3.82695 15.6393C4.37642 15.9177 4.99227 16.0384 5.60616 15.988C6.22006 15.9375 6.80797 15.718 7.30467 15.3537L13.6647 10.6871C14.0868 10.3775 14.4302 9.97278 14.6668 9.50578C14.9034 9.03878 15.0268 8.5226 15.0268 7.99907C15.0268 7.47554 14.9034 6.95936 14.6668 6.49236C14.4302 6.02537 14.0868 5.62067 13.6647 5.31107L13.6627 5.31174ZM12.8733 9.61174L6.51333 14.2784C6.21534 14.4962 5.86291 14.6272 5.49505 14.6571C5.12718 14.6869 4.75824 14.6144 4.42904 14.4475C4.09985 14.2806 3.82326 14.0259 3.62987 13.7116C3.43648 13.3972 3.33385 13.0355 3.33333 12.6664V3.33307C3.32963 2.9633 3.43033 2.59999 3.62385 2.28489C3.81737 1.96978 4.09587 1.71566 4.42733 1.55174C4.70926 1.40833 5.02103 1.33342 5.33733 1.33307C5.76126 1.33469 6.17348 1.47233 6.51333 1.72574L12.8733 6.3924C13.1263 6.5782 13.332 6.82094 13.4738 7.10098C13.6156 7.38103 13.6895 7.69051 13.6895 8.0044C13.6895 8.3183 13.6156 8.62778 13.4738 8.90783C13.332 9.18787 13.1263 9.43061 12.8733 9.6164V9.61174Z" fill="black"/>
</svg>
