<svg width="16" height="16" viewBox="0 0 16 16" fill="none" xmlns="http://www.w3.org/2000/svg">
<g clip-path="url(#clip0_483_13838)">
<path d="M15.3333 12.6664C15.1565 12.6664 14.987 12.7367 14.8619 12.8617C14.7369 12.9867 14.6667 13.1563 14.6667 13.3331C14.6667 13.6867 14.5262 14.0259 14.2761 14.2759C14.0261 14.526 13.687 14.6664 13.3333 14.6664H10.6667V11.9998H12.0667C12.756 11.9989 13.4168 11.7247 13.9042 11.2373C14.3916 10.7499 14.6658 10.0891 14.6667 9.39976C14.6648 8.47561 14.3438 7.58047 13.7579 6.86579C13.172 6.15111 12.3572 5.66078 11.4513 5.47776L8.86667 4.95976C8.59357 4.90534 8.34436 4.76678 8.15401 4.56352C7.96366 4.36026 7.84174 4.10251 7.80533 3.82643L7.53333 1.71709C7.49385 1.44086 7.397 1.17595 7.24901 0.939386C7.10103 0.702822 6.90517 0.499843 6.67405 0.343499C6.44292 0.187154 6.18164 0.080904 5.90699 0.0315788C5.63235 -0.0177464 5.35042 -0.0090549 5.07933 0.0570944L1.94 0.946428C1.38222 1.1061 0.891426 1.44269 0.54153 1.90549C0.191634 2.36829 0.00158267 2.93225 0 3.51243L0 9.33309C0 10.0403 0.280952 10.7186 0.781049 11.2187C1.28115 11.7188 1.95942 11.9998 2.66667 11.9998H3.33333V14.6664H0.666667C0.489856 14.6664 0.320286 14.7367 0.195262 14.8617C0.0702379 14.9867 0 15.1563 0 15.3331C0 15.5099 0.0702379 15.6795 0.195262 15.8045C0.320286 15.9295 0.489856 15.9998 0.666667 15.9998H13.3333C14.0406 15.9998 14.7189 15.7188 15.219 15.2187C15.719 14.7186 16 14.0403 16 13.3331C16 13.1563 15.9298 12.9867 15.8047 12.8617C15.6797 12.7367 15.5101 12.6664 15.3333 12.6664ZM1.33333 9.33309V3.51243C1.33432 3.22235 1.42942 2.94042 1.60433 2.70901C1.77924 2.4776 2.02453 2.30919 2.30333 2.22909L5.40467 1.34909C5.45308 1.33858 5.50246 1.33321 5.552 1.33309C5.71098 1.33347 5.86459 1.39065 5.98512 1.49431C6.10565 1.59797 6.18517 1.7413 6.20933 1.89843L6.31067 2.66643H4.66667C4.48986 2.66643 4.32029 2.73667 4.19526 2.86169C4.07024 2.98671 4 3.15628 4 3.33309C4 3.50991 4.07024 3.67947 4.19526 3.8045C4.32029 3.92952 4.48986 3.99976 4.66667 3.99976H6.486C6.51583 4.2089 6.57067 4.4137 6.64933 4.60976L5.09 5.55843C4.93892 5.65028 4.83051 5.79839 4.78862 5.97017C4.76789 6.05523 4.7641 6.14354 4.77749 6.23006C4.79088 6.31658 4.82119 6.39962 4.86667 6.47443C4.91215 6.54924 4.97192 6.61436 5.04257 6.66607C5.11321 6.71778 5.19335 6.75507 5.27841 6.7758C5.4502 6.81769 5.63158 6.78961 5.78267 6.69776L7.42667 5.69776C7.60258 5.84316 7.79665 5.96507 8.004 6.06043L7.08733 7.66909C6.99981 7.82274 6.97691 8.00487 7.02367 8.1754C7.07043 8.34593 7.18302 8.49091 7.33667 8.57843C7.49032 8.66595 7.67244 8.68885 7.84297 8.64209C8.0135 8.59533 8.15848 8.48274 8.246 8.32909L9.338 6.41309L11.1893 6.78376C11.7934 6.90592 12.3368 7.23302 12.7275 7.70971C13.1182 8.18641 13.3322 8.78343 13.3333 9.39976C13.3333 9.7357 13.1999 10.0579 12.9623 10.2954C12.7248 10.533 12.4026 10.6664 12.0667 10.6664H2.66667C2.31304 10.6664 1.97391 10.526 1.72386 10.2759C1.47381 10.0259 1.33333 9.68672 1.33333 9.33309ZM4.66667 11.9998H9.33333V14.6664H4.66667V11.9998Z" fill="black"/>
</g>
<defs>
<clipPath id="clip0_483_13838">
<rect width="16" height="16" fill="white"/>
</clipPath>
</defs>
</svg>
