<svg width="17" height="16" viewBox="0 0 17 16" fill="none" xmlns="http://www.w3.org/2000/svg">
<g clip-path="url(#clip0_483_13734)">
<path d="M10.7777 2.56568C10.7798 2.69825 10.8206 2.82733 10.8951 2.93701C10.9696 3.04669 11.0745 3.1322 11.197 3.18301C12.2918 3.66473 13.2177 4.46268 13.8557 5.47441C14.4937 6.48615 14.8148 7.66548 14.7777 8.86101C14.7518 10.4523 14.0949 11.9682 12.9515 13.0751C11.808 14.1821 10.2716 14.7895 8.68032 14.7637C7.08902 14.7379 5.57316 14.081 4.46619 12.9375C3.35923 11.794 2.75184 10.2576 2.77766 8.66634C2.7792 7.50383 3.11842 6.36679 3.75409 5.39346C4.38976 4.42013 5.2945 3.65243 6.35832 3.18368C6.48085 3.13256 6.58579 3.0468 6.66028 2.9369C6.73477 2.827 6.77556 2.69776 6.77766 2.56501C6.77783 2.45582 6.75118 2.34825 6.70004 2.25177C6.64891 2.15529 6.57486 2.07285 6.4844 2.01169C6.39394 1.95053 6.28985 1.91252 6.18126 1.90101C6.07268 1.8895 5.96293 1.90484 5.86166 1.94568C4.31451 2.61644 3.0458 3.79991 2.26923 5.29674C1.49266 6.79357 1.25568 8.51231 1.5982 10.1634C1.94072 11.8146 2.84181 13.2972 4.1497 14.3617C5.4576 15.4261 7.09237 16.0072 8.77866 16.0072C10.4649 16.0072 12.0997 15.4261 13.4076 14.3617C14.7155 13.2972 15.6166 11.8146 15.9591 10.1634C16.3016 8.51231 16.0647 6.79357 15.2881 5.29674C14.5115 3.79991 13.2428 2.61644 11.6957 1.94568C11.5942 1.90439 11.4842 1.88873 11.3753 1.90007C11.2664 1.91141 11.1619 1.9494 11.0712 2.01068C10.9804 2.07197 10.9062 2.15467 10.855 2.25146C10.8038 2.34826 10.7772 2.45618 10.7777 2.56568Z" fill="black"/>
<path d="M9.44369 0.666667C9.44369 0.298477 9.14521 0 8.77702 0C8.40883 0 8.11035 0.298477 8.11035 0.666667V4.66667C8.11035 5.03486 8.40883 5.33333 8.77702 5.33333C9.14521 5.33333 9.44369 5.03486 9.44369 4.66667V0.666667Z" fill="black"/>
</g>
<defs>
<clipPath id="clip0_483_13734">
<rect width="16" height="16" fill="white" transform="translate(0.777344)"/>
</clipPath>
</defs>
</svg>
