<svg width="17" height="16" viewBox="0 0 17 16" fill="none" xmlns="http://www.w3.org/2000/svg">
<path d="M12.1555 2.68029C11.9974 1.93109 11.5865 1.25903 10.9917 0.77674C10.397 0.294452 9.65456 0.03125 8.88885 0.03125C8.12314 0.03125 7.3807 0.294452 6.78596 0.77674C6.19123 1.25903 5.78035 1.93109 5.62218 2.68029C5.00336 2.72928 4.40707 2.93441 3.88908 3.27649C3.37108 3.61857 2.9483 4.08643 2.66027 4.63632C2.37224 5.18621 2.22837 5.80017 2.24211 6.42077C2.25585 7.04138 2.42676 7.64836 2.73885 8.18496L6.90152 14.889C7.11291 15.2249 7.40602 15.5017 7.75345 15.6935C8.10089 15.8854 8.49129 15.986 8.88818 15.986C9.28507 15.986 9.67548 15.8854 10.0229 15.6935C10.3703 15.5017 10.6635 15.2249 10.8748 14.889L15.0488 8.16896C15.3573 7.63207 15.5249 7.02589 15.5362 6.40681C15.5474 5.78773 15.4019 5.17586 15.1131 4.62812C14.8244 4.08039 14.4018 3.61457 13.8847 3.27401C13.3676 2.93345 12.7728 2.72921 12.1555 2.68029ZM14.2222 6.33362C14.2208 6.4618 14.2083 6.58961 14.1848 6.71562C12.7353 7.05384 11.2564 7.2512 9.76885 7.30496C8.44152 3.76496 13.9508 2.56162 14.2222 6.33362ZM8.88885 1.33362C9.33081 1.33532 9.75977 1.48335 10.1087 1.75461C10.4576 2.02587 10.7069 2.40506 10.8175 2.83296C10.0379 3.07137 9.3595 3.56193 8.88885 4.22762C8.4182 3.56193 7.73981 3.07137 6.96018 2.83296C7.07082 2.40506 7.32007 2.02587 7.669 1.75461C8.01793 1.48335 8.44689 1.33532 8.88885 1.33362ZM5.88885 4.00029C6.27847 4.00345 6.66117 4.10366 7.00234 4.29186C7.34351 4.48007 7.6324 4.75033 7.8429 5.07821C8.05339 5.4061 8.17886 5.78127 8.20795 6.16982C8.23704 6.55837 8.16884 6.94805 8.00952 7.30362C6.5225 7.24552 5.04412 7.04912 3.59352 6.71696C3.53793 6.38323 3.55559 6.04141 3.64526 5.71519C3.73493 5.38896 3.89447 5.08614 4.11282 4.82771C4.33116 4.56928 4.6031 4.36143 4.90978 4.21855C5.21645 4.07568 5.55053 4.0012 5.88885 4.00029ZM9.74085 14.191C9.64697 14.3309 9.52008 14.4456 9.37138 14.525C9.22267 14.6043 9.05672 14.6458 8.88818 14.6458C8.71964 14.6458 8.5537 14.6043 8.40499 14.525C8.25628 14.4456 8.12939 14.3309 8.03552 14.191L4.33552 8.23096C7.3452 8.78163 10.4298 8.78163 13.4395 8.23096L9.74085 14.191Z" fill="black"/>
</svg>
