<svg width="17" height="16" viewBox="0 0 17 16" fill="none" xmlns="http://www.w3.org/2000/svg">
<g clip-path="url(#clip0_483_13799)">
<path d="M5.22233 14.6667H3.889C3.35856 14.6667 2.84986 14.456 2.47478 14.0809C2.09971 13.7058 1.889 13.1971 1.889 12.6667V3.33333C1.889 2.8029 2.09971 2.29419 2.47478 1.91912C2.84986 1.54405 3.35856 1.33333 3.889 1.33333H5.22233C5.39914 1.33333 5.56871 1.2631 5.69374 1.13807C5.81876 1.01305 5.889 0.843478 5.889 0.666667C5.889 0.489856 5.81876 0.320286 5.69374 0.195262C5.56871 0.0702379 5.39914 0 5.22233 0L3.889 0C3.00527 0.00105857 2.15804 0.352588 1.53314 0.97748C0.908252 1.60237 0.556723 2.4496 0.555664 3.33333L0.555664 12.6667C0.556723 13.5504 0.908252 14.3976 1.53314 15.0225C2.15804 15.6474 3.00527 15.9989 3.889 16H5.22233C5.39914 16 5.56871 15.9298 5.69374 15.8047C5.81876 15.6797 5.889 15.5101 5.889 15.3333C5.889 15.1565 5.81876 14.987 5.69374 14.8619C5.56871 14.7369 5.39914 14.6667 5.22233 14.6667Z" fill="black"/>
<path d="M15.8887 7.33348L5.37071 7.35481C5.42918 7.24621 5.50231 7.14616 5.58805 7.05748L8.17405 4.47148C8.23772 4.40998 8.28851 4.33642 8.32345 4.25508C8.35839 4.17375 8.37678 4.08627 8.37755 3.99775C8.37831 3.90923 8.36145 3.82144 8.32793 3.73951C8.29441 3.65758 8.2449 3.58314 8.18231 3.52055C8.11971 3.45795 8.04528 3.40845 7.96335 3.37493C7.88142 3.34141 7.79363 3.32454 7.70511 3.32531C7.61659 3.32608 7.52911 3.34447 7.44778 3.37941C7.36644 3.41435 7.29288 3.46514 7.23138 3.52881L4.64405 6.11481C4.14412 6.61489 3.86328 7.29304 3.86328 8.00015C3.86328 8.70725 4.14412 9.38541 4.64405 9.88548L7.23005 12.4715C7.29154 12.5352 7.36511 12.5859 7.44644 12.6209C7.52778 12.6558 7.61526 12.6742 7.70378 12.675C7.7923 12.6757 7.88008 12.6589 7.96201 12.6254C8.04395 12.5918 8.11838 12.5423 8.18097 12.4797C8.24357 12.4171 8.29307 12.3427 8.32659 12.2608C8.36011 12.1789 8.37698 12.0911 8.37621 12.0025C8.37544 11.914 8.35705 11.8265 8.32211 11.7452C8.28717 11.6639 8.23638 11.5903 8.17271 11.5288L5.58671 8.94281C5.5121 8.86598 5.44697 8.78048 5.39271 8.68815L15.8887 8.66681C16.0655 8.66681 16.2351 8.59657 16.3601 8.47155C16.4851 8.34653 16.5554 8.17696 16.5554 8.00015C16.5554 7.82333 16.4851 7.65377 16.3601 7.52874C16.2351 7.40372 16.0655 7.33348 15.8887 7.33348Z" fill="black"/>
</g>
<defs>
<clipPath id="clip0_483_13799">
<rect width="16" height="16" fill="white" transform="translate(0.555664)"/>
</clipPath>
</defs>
</svg>
