<svg width="17" height="16" viewBox="0 0 17 16" fill="none" xmlns="http://www.w3.org/2000/svg">
<g clip-path="url(#clip0_483_13845)">
<path d="M16.2218 7.33333C16.045 7.33333 15.8754 7.40357 15.7504 7.5286C15.6254 7.65362 15.5552 7.82319 15.5552 8C15.5606 9.55018 15.0274 11.0541 14.0468 12.2548C13.0663 13.4554 11.6991 14.2782 10.1791 14.5825C8.65905 14.8869 7.08052 14.6538 5.71328 13.9232C4.34604 13.1927 3.27498 12.0099 2.68318 10.5771C2.09137 9.14433 2.01556 7.55049 2.4687 6.06801C2.92184 4.58552 3.8758 3.30644 5.16752 2.44938C6.45924 1.59232 8.00853 1.2105 9.55058 1.36918C11.0926 1.52786 12.5317 2.21718 13.6218 3.31933C13.5999 3.32531 13.5776 3.32999 13.5552 3.33333H11.5552C11.3783 3.33333 11.2088 3.40357 11.0837 3.5286C10.9587 3.65362 10.8885 3.82319 10.8885 4C10.8885 4.17681 10.9587 4.34638 11.0837 4.47141C11.2088 4.59643 11.3783 4.66667 11.5552 4.66667H13.5552C14.0856 4.66667 14.5943 4.45595 14.9694 4.08088C15.3444 3.70581 15.5552 3.1971 15.5552 2.66667V0.666667C15.5552 0.489856 15.4849 0.320286 15.3599 0.195262C15.2349 0.0702379 15.0653 0 14.8885 0C14.7117 0 14.5421 0.0702379 14.4171 0.195262C14.2921 0.320286 14.2218 0.489856 14.2218 0.666667V2.04333C12.8569 0.82302 11.1144 0.108111 9.28572 0.0180684C7.45701 -0.0719742 5.65279 0.468305 4.17454 1.54862C2.69629 2.62894 1.63358 4.18386 1.16397 5.95354C0.694364 7.72322 0.846317 9.60046 1.59444 11.2716C2.34256 12.9427 3.64152 14.3064 5.27428 15.1349C6.90703 15.9634 8.77466 16.2065 10.5651 15.8235C12.3555 15.4405 13.9603 14.4547 15.1112 13.0307C16.2621 11.6067 16.8895 9.83093 16.8885 8C16.8885 7.82319 16.8182 7.65362 16.6932 7.5286C16.5682 7.40357 16.3986 7.33333 16.2218 7.33333Z" fill="black"/>
<path d="M8.88835 4C8.71154 4 8.54197 4.07024 8.41694 4.19526C8.29192 4.32029 8.22168 4.48986 8.22168 4.66667V8C8.22172 8.1768 8.29198 8.34634 8.41701 8.47133L10.417 10.4713C10.5427 10.5928 10.7111 10.66 10.8859 10.6584C11.0607 10.6569 11.228 10.5868 11.3516 10.4632C11.4752 10.3396 11.5453 10.1724 11.5468 9.9976C11.5483 9.8228 11.4811 9.6544 11.3597 9.52867L9.55501 7.724V4.66667C9.55501 4.48986 9.48477 4.32029 9.35975 4.19526C9.23473 4.07024 9.06516 4 8.88835 4Z" fill="black"/>
</g>
<defs>
<clipPath id="clip0_483_13845">
<rect width="16" height="16" fill="white" transform="translate(0.888672)"/>
</clipPath>
</defs>
</svg>
