<svg width="17" height="16" viewBox="0 0 17 16" fill="none" xmlns="http://www.w3.org/2000/svg">
<g clip-path="url(#clip0_483_13808)">
<path d="M11.8896 1.27771C11.1389 1.28939 10.4046 1.49895 9.7608 1.88522C9.117 2.2715 8.58653 2.82082 8.22295 3.47771C7.85938 2.82082 7.32891 2.2715 6.68511 1.88522C6.04131 1.49895 5.30699 1.28939 4.55629 1.27771C3.35958 1.3297 2.23209 1.85321 1.42014 2.73386C0.608194 3.61452 0.177787 4.78073 0.222954 5.97771C0.222954 9.00904 3.41362 12.3197 6.08962 14.5644C6.6871 15.0665 7.44252 15.3417 8.22295 15.3417C9.00338 15.3417 9.75881 15.0665 10.3563 14.5644C13.0323 12.3197 16.223 9.00904 16.223 5.97771C16.2681 4.78073 15.8377 3.61452 15.0258 2.73386C14.2138 1.85321 13.0863 1.3297 11.8896 1.27771ZM9.49962 13.5444C9.14228 13.8453 8.69012 14.0103 8.22295 14.0103C7.75579 14.0103 7.30363 13.8453 6.94629 13.5444C3.52095 10.6704 1.55629 7.91304 1.55629 5.97771C1.51071 5.13419 1.80053 4.30686 2.36253 3.67618C2.92453 3.04549 3.71311 2.66261 4.55629 2.61104C5.39947 2.66261 6.18805 3.04549 6.75005 3.67618C7.31204 4.30686 7.60186 5.13419 7.55629 5.97771C7.55629 6.15452 7.62653 6.32409 7.75155 6.44911C7.87657 6.57414 8.04614 6.64438 8.22295 6.64438C8.39977 6.64438 8.56933 6.57414 8.69436 6.44911C8.81938 6.32409 8.88962 6.15452 8.88962 5.97771C8.84405 5.13419 9.13386 4.30686 9.69586 3.67618C10.2579 3.04549 11.0464 2.66261 11.8896 2.61104C12.7328 2.66261 13.5214 3.04549 14.0834 3.67618C14.6454 4.30686 14.9352 5.13419 14.8896 5.97771C14.8896 7.91304 12.925 10.6704 9.49962 13.5417V13.5444Z" fill="black"/>
</g>
<defs>
<clipPath id="clip0_483_13808">
<rect width="16" height="16" fill="white" transform="translate(0.222656)"/>
</clipPath>
</defs>
</svg>
