<svg width="17" height="16" viewBox="0 0 17 16" fill="none" xmlns="http://www.w3.org/2000/svg">
<g clip-path="url(#clip0_483_13857)">
<path d="M15.9697 6.04595L10.913 0.988612C10.2872 0.364605 9.43945 0.0141945 8.55567 0.0141945C7.6719 0.0141945 6.82418 0.364605 6.19834 0.988612L1.14167 6.04595C0.955289 6.23113 0.807519 6.45148 0.706927 6.6942C0.606336 6.93693 0.554924 7.1972 0.555672 7.45995V14.0046C0.555672 14.535 0.766386 15.0438 1.14146 15.4188C1.51653 15.7939 2.02524 16.0046 2.55567 16.0046H14.5557C15.0861 16.0046 15.5948 15.7939 15.9699 15.4188C16.345 15.0438 16.5557 14.535 16.5557 14.0046V7.45995C16.5564 7.1972 16.505 6.93693 16.4044 6.6942C16.3038 6.45148 16.1561 6.23113 15.9697 6.04595ZM10.5557 14.6713H6.55567V12.0486C6.55567 11.5182 6.76639 11.0095 7.14146 10.6344C7.51653 10.2593 8.02524 10.0486 8.55567 10.0486C9.08611 10.0486 9.59481 10.2593 9.96989 10.6344C10.345 11.0095 10.5557 11.5182 10.5557 12.0486V14.6713ZM15.2223 14.0046C15.2223 14.1814 15.1521 14.351 15.0271 14.476C14.9021 14.601 14.7325 14.6713 14.5557 14.6713H11.889V12.0486C11.889 11.1646 11.5378 10.3167 10.9127 9.69159C10.2876 9.06647 9.43973 8.71528 8.55567 8.71528C7.67162 8.71528 6.82377 9.06647 6.19865 9.69159C5.57353 10.3167 5.22234 11.1646 5.22234 12.0486V14.6713H2.55567C2.37886 14.6713 2.20929 14.601 2.08427 14.476C1.95924 14.351 1.88901 14.1814 1.88901 14.0046V7.45995C1.88962 7.28326 1.9598 7.11394 2.08434 6.98861L7.14101 1.93328C7.51681 1.55923 8.02545 1.34924 8.55567 1.34924C9.0859 1.34924 9.59454 1.55923 9.97034 1.93328L15.027 6.99061C15.1511 7.11544 15.2212 7.28396 15.2223 7.45995V14.0046Z" fill="black"/>
</g>
<defs>
<clipPath id="clip0_483_13857">
<rect width="16" height="16" fill="white" transform="translate(0.555664)"/>
</clipPath>
</defs>
</svg>
