<svg width="17" height="16" viewBox="0 0 17 16" fill="none" xmlns="http://www.w3.org/2000/svg">
<g clip-path="url(#clip0_483_13875)">
<path d="M14.0888 2.94615C13.3072 1.88709 12.2526 1.06019 11.0377 0.553773C9.82281 0.0473526 8.49316 -0.119574 7.19077 0.0708193C5.924 0.250919 4.7264 0.759326 3.71693 1.54553C2.70747 2.33174 1.92128 3.36839 1.43646 4.55249C0.95165 5.73659 0.785083 7.02693 0.953313 8.29533C1.12154 9.56373 1.61871 10.766 2.39543 11.7828C2.72614 12.2386 2.89933 12.7898 2.88877 13.3528V14.0002C2.88877 14.5306 3.09948 15.0393 3.47455 15.4144C3.84963 15.7894 4.35833 16.0002 4.88877 16.0002H9.55543C10.0859 16.0002 10.5946 15.7894 10.9696 15.4144C11.3447 15.0393 11.5554 14.5306 11.5554 14.0002H11.8848C12.6926 13.9982 13.4725 13.7037 14.08 13.1712C14.6875 12.6387 15.0816 11.9041 15.1894 11.1035L15.3354 10.0002H15.5554C15.7315 10.0039 15.9066 9.97194 16.0701 9.90625C16.2335 9.84056 16.382 9.74249 16.5065 9.61793C16.6311 9.49337 16.7292 9.34489 16.7949 9.18144C16.8605 9.01799 16.8925 8.84294 16.8888 8.66682C16.8888 7.72015 14.9341 3.99015 14.0888 2.94615ZM14.7508 8.66682C14.5891 8.66688 14.433 8.72567 14.3115 8.83224C14.1899 8.93881 14.1113 9.08591 14.0901 9.24615L13.8674 10.9295C13.8027 11.4098 13.5662 11.8503 13.2017 12.1697C12.8372 12.4891 12.3694 12.6657 11.8848 12.6668H10.8888C10.712 12.6668 10.5424 12.7371 10.4174 12.8621C10.2923 12.9871 10.2221 13.1567 10.2221 13.3335V14.0002C10.2221 14.177 10.1519 14.3465 10.0268 14.4716C9.90181 14.5966 9.73224 14.6668 9.55543 14.6668H4.88877C4.71195 14.6668 4.54239 14.5966 4.41736 14.4716C4.29234 14.3465 4.2221 14.177 4.2221 14.0002V13.3528C4.23217 12.4969 3.96277 11.6611 3.45477 10.9722C2.82001 10.1407 2.41367 9.15766 2.27605 8.12067C2.13844 7.08367 2.27434 6.02872 2.67027 5.06046C3.06621 4.09219 3.70841 3.24427 4.53317 2.60079C5.35794 1.95732 6.33661 1.54066 7.3721 1.39215C7.65485 1.3529 7.93997 1.3333 8.22543 1.33349C9.1622 1.33222 10.0861 1.55177 10.9221 1.97431C11.7582 2.39686 12.4829 3.0105 13.0374 3.76549C14.0903 5.28041 14.9371 6.92864 15.5554 8.66682H14.7508ZM11.6888 5.34082C11.6452 5.26484 11.587 5.1982 11.5176 5.1447C11.4482 5.09121 11.369 5.05192 11.2844 5.02907C11.1998 5.00623 11.1116 5.00027 11.0247 5.01155C10.9378 5.02284 10.854 5.05113 10.7781 5.09482L10.1234 5.47082C9.7839 5.12667 9.35708 4.88146 8.88877 4.76149V4.00015C8.88877 3.82334 8.81853 3.65377 8.6935 3.52875C8.56848 3.40372 8.39891 3.33349 8.2221 3.33349C8.04529 3.33349 7.87572 3.40372 7.75069 3.52875C7.62567 3.65377 7.55543 3.82334 7.55543 4.00015V4.76149C7.0864 4.88113 6.65885 5.12636 6.31877 5.47082L5.6641 5.09482C5.58819 5.05105 5.50441 5.02265 5.41753 5.01126C5.33066 4.99986 5.24239 5.00569 5.15776 5.02841C5.07314 5.05113 4.99381 5.09029 4.92432 5.14367C4.85484 5.19704 4.79654 5.26358 4.75277 5.33949C4.70899 5.41539 4.6806 5.49917 4.6692 5.58605C4.65781 5.67293 4.66364 5.7612 4.68636 5.84582C4.70907 5.93045 4.74824 6.00977 4.80161 6.07926C4.85499 6.14875 4.92153 6.20705 4.99743 6.25082L5.65943 6.63149C5.59315 6.8597 5.55817 7.09586 5.55543 7.33349C5.55882 7.57121 5.59448 7.80737 5.66143 8.03549L4.99943 8.41615C4.84614 8.50456 4.73424 8.65024 4.68836 8.82115C4.64247 8.99206 4.66636 9.17419 4.75477 9.32749C4.84317 9.48078 4.98885 9.59268 5.15976 9.63856C5.33067 9.68445 5.5128 9.66056 5.6661 9.57215L6.32077 9.19615C6.6603 9.5403 7.08711 9.78551 7.55543 9.90549V10.6668C7.55543 10.8436 7.62567 11.0132 7.75069 11.1382C7.87572 11.2632 8.04529 11.3335 8.2221 11.3335C8.39891 11.3335 8.56848 11.2632 8.6935 11.1382C8.81853 11.0132 8.88877 10.8436 8.88877 10.6668V9.90549C9.3578 9.78585 9.78535 9.54061 10.1254 9.19615L10.7801 9.57215C10.856 9.61593 10.9398 9.64432 11.0267 9.65572C11.1135 9.66711 11.2018 9.66128 11.2864 9.63856C11.3711 9.61584 11.4504 9.57668 11.5199 9.5233C11.5894 9.46993 11.6477 9.40339 11.6914 9.32749C11.7352 9.25158 11.7636 9.1678 11.775 9.08092C11.7864 8.99404 11.7806 8.90577 11.7578 8.82115C11.7351 8.73652 11.696 8.6572 11.6426 8.58771C11.5892 8.51822 11.5227 8.45993 11.4468 8.41615L10.7848 8.03549C10.851 7.80727 10.886 7.57111 10.8888 7.33349C10.8854 7.09577 10.8497 6.85961 10.7828 6.63149L11.4448 6.25082C11.5977 6.16241 11.7093 6.01692 11.755 5.8463C11.8008 5.67568 11.777 5.49388 11.6888 5.34082ZM8.2221 8.66682C7.95839 8.66682 7.7006 8.58862 7.48134 8.44211C7.26207 8.2956 7.09118 8.08737 6.99026 7.84373C6.88934 7.6001 6.86294 7.33201 6.91439 7.07337C6.96583 6.81472 7.09282 6.57715 7.27929 6.39068C7.46576 6.20421 7.70334 6.07722 7.96198 6.02577C8.22062 5.97433 8.48871 6.00073 8.73234 6.10165C8.97598 6.20256 9.18422 6.37346 9.33072 6.59273C9.47723 6.81199 9.55543 7.06978 9.55543 7.33349C9.55543 7.68711 9.41496 8.02625 9.16491 8.27629C8.91486 8.52634 8.57572 8.66682 8.2221 8.66682Z" fill="black"/>
</g>
<defs>
<clipPath id="clip0_483_13875">
<rect width="16" height="16" fill="white" transform="translate(0.888672)"/>
</clipPath>
</defs>
</svg>
