<svg width="16" height="16" viewBox="0 0 16 16" fill="none" xmlns="http://www.w3.org/2000/svg">
<g clip-path="url(#clip0_483_13851)">
<path d="M15.9784 6.94438C15.7773 5.46256 15.1662 4.06639 14.2141 2.91328C13.2619 1.76017 12.0066 0.895974 10.5896 0.41813C9.17254 -0.0597132 7.65022 -0.132205 6.19421 0.208828C4.7382 0.54986 3.40642 1.29086 2.349 2.34827C1.29159 3.40569 0.550593 4.73747 0.20956 6.19348C-0.131473 7.64948 -0.0589808 9.17181 0.418863 10.5888C0.896706 12.0058 1.7609 13.2612 2.91401 14.2133C4.06712 15.1655 5.46329 15.7766 6.94511 15.9777C7.05321 15.9918 7.1621 15.9989 7.27111 15.999C7.97423 15.9932 8.64649 15.7095 9.14111 15.2097L15.2078 9.14305C15.4958 8.85988 15.715 8.51444 15.8486 8.13328C15.9822 7.75211 16.0266 7.34539 15.9784 6.94438ZM1.37845 7.26038C1.55775 5.6782 2.29556 4.21187 3.45925 3.12499C4.62293 2.03812 6.13615 1.40199 7.72687 1.33097C9.3176 1.25995 10.8815 1.75869 12.1374 2.73754C13.3933 3.71639 14.2589 5.11114 14.5784 6.67105C12.4902 6.69627 10.4946 7.53666 9.01735 9.01287C7.54015 10.4891 6.69841 12.4842 6.67178 14.5724C5.03191 14.2417 3.57659 13.3059 2.5953 11.951C1.614 10.5962 1.17863 8.9216 1.37578 7.26038H1.37845ZM8.20045 14.2664C8.143 14.3215 8.081 14.3717 8.01511 14.4164C8.07984 12.7386 8.77531 11.1469 9.96253 9.9596C11.1498 8.77225 12.7413 8.07662 14.4191 8.01171C14.3749 8.07796 14.3249 8.1402 14.2698 8.19771L8.20045 14.2664Z" fill="black"/>
</g>
<defs>
<clipPath id="clip0_483_13851">
<rect width="16" height="16" fill="white"/>
</clipPath>
</defs>
</svg>
