<svg width="17" height="16" viewBox="0 0 17 16" fill="none" xmlns="http://www.w3.org/2000/svg">
<path d="M14.0713 11.2362L13.084 9.75552C13.2457 9.64826 13.3846 9.51016 13.4929 9.34913C13.6012 9.18811 13.6767 9.00731 13.715 8.81709C13.7533 8.62687 13.7538 8.43096 13.7163 8.24057C13.6788 8.05018 13.6042 7.86904 13.4967 7.70752L12.1027 5.61753C12.2247 5.50638 12.3274 5.37571 12.4067 5.23086C12.5334 4.99828 12.595 4.73585 12.5852 4.47117C12.5753 4.2065 12.4943 3.94938 12.3507 3.72686C12.334 3.70166 12.316 3.67741 12.2967 3.6542L9.56332 0.4662C9.41334 0.317616 9.23521 0.200457 9.03938 0.121588C8.84354 0.0427194 8.63394 0.00372591 8.42284 0.00689235C8.21174 0.0100588 8.0034 0.0553215 7.81002 0.140029C7.61664 0.224736 7.44211 0.347184 7.29665 0.5002L4.58198 3.65153C4.56226 3.67395 4.54421 3.69779 4.52798 3.72286C4.33634 4.01798 4.25654 4.3719 4.303 4.7207C4.34946 5.0695 4.51911 5.39019 4.78132 5.62486L3.39265 7.70752C3.28511 7.86904 3.21047 8.05018 3.17301 8.24057C3.13554 8.43096 3.13599 8.62687 3.17432 8.81709C3.21265 9.00731 3.28811 9.18811 3.39638 9.34913C3.50465 9.51016 3.64362 9.64826 3.80532 9.75552L2.81798 11.2362C2.59645 11.5684 2.46922 11.9544 2.44986 12.3532C2.4305 12.752 2.51974 13.1486 2.70805 13.5007C2.89637 13.8527 3.17671 14.1471 3.51917 14.3523C3.86163 14.5576 4.25338 14.6661 4.65265 14.6662H7.77798V15.3328C7.77798 15.5097 7.84822 15.6792 7.97325 15.8043C8.09827 15.9293 8.26784 15.9995 8.44465 15.9995C8.62146 15.9995 8.79103 15.9293 8.91606 15.8043C9.04108 15.6792 9.11132 15.5097 9.11132 15.3328V14.6662H12.236C12.6353 14.6662 13.0271 14.5578 13.3697 14.3526C13.7123 14.1474 13.9927 13.853 14.1811 13.5009C14.3695 13.1489 14.4588 12.7522 14.4394 12.3534C14.4201 11.9545 14.2929 11.5684 14.0713 11.2362ZM13.0047 12.8722C12.9311 13.0121 12.8205 13.1291 12.6849 13.2104C12.5494 13.2916 12.394 13.334 12.236 13.3329H4.65265C4.49477 13.3327 4.3399 13.2897 4.20451 13.2085C4.06913 13.1273 3.95832 13.0109 3.88388 12.8716C3.80945 12.7324 3.77417 12.5756 3.78182 12.4179C3.78947 12.2602 3.83976 12.1076 3.92732 11.9762L5.44465 9.70286C5.5117 9.60236 5.55018 9.48554 5.55598 9.36487C5.56178 9.2442 5.53469 9.12422 5.47759 9.01776C5.42049 8.91129 5.33553 8.82235 5.2318 8.76043C5.12807 8.6985 5.00946 8.66593 4.88865 8.66619H4.61865C4.59306 8.66707 4.56776 8.66055 4.54577 8.64743C4.52378 8.63431 4.50603 8.61513 4.49465 8.59219C4.4818 8.56993 4.47566 8.54444 4.47696 8.51877C4.47826 8.49311 4.48695 8.46837 4.50198 8.44752L6.33198 5.70286C6.39798 5.60184 6.43531 5.48479 6.44001 5.36422C6.44471 5.24364 6.41659 5.12405 6.35865 5.01819C6.30019 4.9116 6.21415 4.82268 6.10953 4.76075C6.00491 4.69882 5.88556 4.66616 5.76398 4.66619C5.73846 4.66713 5.71321 4.66072 5.69123 4.64772C5.66925 4.63472 5.65146 4.61568 5.63998 4.59286C5.62966 4.575 5.62363 4.55498 5.62236 4.53439C5.62109 4.5138 5.62461 4.49319 5.63265 4.4742L8.27398 1.40753C8.29185 1.38471 8.31408 1.36568 8.33939 1.35155C8.3647 1.33742 8.39257 1.32848 8.42137 1.32525C8.45018 1.32203 8.47933 1.32457 8.50714 1.33275C8.53495 1.34092 8.56084 1.35456 8.58332 1.37287L11.2447 4.47486C11.2527 4.49386 11.2562 4.51447 11.2549 4.53506C11.2537 4.55565 11.2476 4.57566 11.2373 4.59353C11.2256 4.61654 11.2075 4.63566 11.1851 4.64856C11.1627 4.66146 11.1371 4.66758 11.1113 4.66619C10.9906 4.66618 10.8722 4.69893 10.7686 4.76095C10.6651 4.82297 10.5803 4.91193 10.5234 5.01835C10.4665 5.12477 10.4395 5.24465 10.4453 5.3652C10.4512 5.48576 10.4897 5.60246 10.5567 5.70286L12.3867 8.44752C12.4017 8.46837 12.4104 8.49311 12.4117 8.51877C12.413 8.54444 12.4068 8.56993 12.394 8.59219C12.3826 8.61513 12.3649 8.63431 12.3429 8.64743C12.3209 8.66055 12.2956 8.66707 12.27 8.66619H12C11.8793 8.66617 11.7609 8.69892 11.6573 8.76094C11.5538 8.82296 11.469 8.91193 11.4121 9.01835C11.3551 9.12477 11.3281 9.24465 11.334 9.3652C11.3399 9.48575 11.3783 9.60246 11.4453 9.70286L12.9613 11.9762C13.0505 12.107 13.1018 12.2599 13.1095 12.418C13.1173 12.5761 13.0812 12.7333 13.0053 12.8722H13.0047Z" fill="black"/>
<path d="M6.44401 11.9996C6.8122 11.9996 7.11067 11.7011 7.11067 11.3329C7.11067 10.9647 6.8122 10.6663 6.44401 10.6663C6.07582 10.6663 5.77734 10.9647 5.77734 11.3329C5.77734 11.7011 6.07582 11.9996 6.44401 11.9996Z" fill="black"/>
<path d="M9.778 11.9996C10.1462 11.9996 10.4447 11.7011 10.4447 11.3329C10.4447 10.9647 10.1462 10.6663 9.778 10.6663C9.40981 10.6663 9.11133 10.9647 9.11133 11.3329C9.11133 11.7011 9.40981 11.9996 9.778 11.9996Z" fill="black"/>
<path d="M7.778 9.33334C8.14619 9.33334 8.44467 9.03486 8.44467 8.66667C8.44467 8.29848 8.14619 8 7.778 8C7.40981 8 7.11133 8.29848 7.11133 8.66667C7.11133 9.03486 7.40981 9.33334 7.778 9.33334Z" fill="black"/>
<path d="M9.11101 7.33333C9.4792 7.33333 9.77768 7.03485 9.77768 6.66667C9.77768 6.29848 9.4792 6 9.11101 6C8.74281 6 8.44434 6.29848 8.44434 6.66667C8.44434 7.03485 8.74281 7.33333 9.11101 7.33333Z" fill="black"/>
<path d="M7.778 5.33333C8.14619 5.33333 8.44467 5.03485 8.44467 4.66667C8.44467 4.29848 8.14619 4 7.778 4C7.40981 4 7.11133 4.29848 7.11133 4.66667C7.11133 5.03485 7.40981 5.33333 7.778 5.33333Z" fill="black"/>
</svg>
