<svg width="17" height="16" viewBox="0 0 17 16" fill="none" xmlns="http://www.w3.org/2000/svg">
<g clip-path="url(#clip0_483_13874)">
<path d="M16.4444 9.33733C16.4436 9.05772 16.3838 8.78144 16.2689 8.52652C16.154 8.27161 15.9867 8.0438 15.7777 7.85799V6.66666C15.7758 4.89915 15.0728 3.20458 13.823 1.95476C12.5731 0.704936 10.8786 0.00193344 9.11106 -7.62939e-06L7.77773 -7.62939e-06C6.01021 0.00193344 4.31565 0.704936 3.06583 1.95476C1.816 3.20458 1.113 4.89915 1.11106 6.66666V7.89133C0.903903 8.08682 0.738864 8.32257 0.626063 8.58411C0.513263 8.84566 0.455078 9.12749 0.455078 9.41233C0.455078 9.69716 0.513263 9.97899 0.626063 10.2405C0.738864 10.5021 0.903903 10.7378 1.11106 10.9333V11.3333C1.11247 12.5706 1.60459 13.7567 2.47945 14.6316C3.35432 15.5065 4.54048 15.9986 5.77773 16H11.1111C12.3483 15.9986 13.5345 15.5065 14.4093 14.6316C15.2842 13.7567 15.7763 12.5706 15.7777 11.3333V10.8173C15.9867 10.6314 16.1542 10.4035 16.2691 10.1485C16.3839 9.89346 16.4437 9.61704 16.4444 9.33733ZM2.31906 10.1053C2.15283 10.0549 2.0099 9.94711 1.91573 9.80114C1.82155 9.65518 1.78225 9.48052 1.80482 9.30829C1.82739 9.13605 1.91037 8.97742 2.03897 8.86065C2.16757 8.74388 2.33345 8.67655 2.50706 8.67066H14.4444C14.6212 8.67066 14.7908 8.7409 14.9158 8.86592C15.0408 8.99095 15.1111 9.16051 15.1111 9.33733C15.1111 9.51414 15.0408 9.68371 14.9158 9.80873C14.7908 9.93375 14.6212 10.004 14.4444 10.004H11.7777C10.4737 10.004 9.12506 10.5293 7.53506 11.658C7.21494 11.8803 6.83449 11.9995 6.44473 11.9995C6.05496 11.9995 5.67452 11.8803 5.35439 11.658C5.20239 11.55 5.05639 11.4373 4.90973 11.3247C4.1835 10.6744 3.28302 10.2505 2.31906 10.1053ZM2.44439 6.66666C2.44598 5.25266 3.00839 3.89703 4.00824 2.89718C5.00809 1.89733 6.36373 1.33491 7.77773 1.33333H9.11106C10.5251 1.33491 11.8807 1.89733 12.8805 2.89718C13.8804 3.89703 14.4428 5.25266 14.4444 6.66666V7.33733L2.44439 7.34399V6.66666ZM11.1111 14.6667H5.77773C4.92385 14.6644 4.10348 14.3341 3.4862 13.7441C2.86892 13.1542 2.50192 12.3496 2.46106 11.4967C3.06617 11.6643 3.62548 11.9667 4.09706 12.3813C4.25639 12.5047 4.41639 12.6273 4.58306 12.7453C5.1295 13.125 5.77899 13.3285 6.44439 13.3285C7.1098 13.3285 7.75928 13.125 8.30573 12.7453C9.29207 11.9324 10.5037 11.441 11.7777 11.3373H14.4444C14.4433 12.2207 14.0917 13.0675 13.4667 13.6918C12.8417 14.316 11.9944 14.6667 11.1111 14.6667ZM6.44439 3.33333C6.44439 3.15651 6.51463 2.98695 6.63966 2.86192C6.76468 2.7369 6.93425 2.66666 7.11106 2.66666C7.28787 2.66666 7.45744 2.7369 7.58246 2.86192C7.70749 2.98695 7.77773 3.15651 7.77773 3.33333C7.77773 3.51014 7.70749 3.67971 7.58246 3.80473C7.45744 3.92975 7.28787 3.99999 7.11106 3.99999C6.93425 3.99999 6.76468 3.92975 6.63966 3.80473C6.51463 3.67971 6.44439 3.51014 6.44439 3.33333ZM4.44439 5.33333C4.44439 5.15651 4.51463 4.98695 4.63966 4.86192C4.76468 4.7369 4.93425 4.66666 5.11106 4.66666C5.28787 4.66666 5.45744 4.7369 5.58246 4.86192C5.70749 4.98695 5.77773 5.15651 5.77773 5.33333C5.77773 5.51014 5.70749 5.67971 5.58246 5.80473C5.45744 5.92975 5.28787 5.99999 5.11106 5.99999C4.93425 5.99999 4.76468 5.92975 4.63966 5.80473C4.51463 5.67971 4.44439 5.51014 4.44439 5.33333Z" fill="black"/>
</g>
<defs>
<clipPath id="clip0_483_13874">
<rect width="16" height="16" fill="white" transform="translate(0.444336)"/>
</clipPath>
</defs>
</svg>
