<svg width="17" height="16" viewBox="0 0 17 16" fill="none" xmlns="http://www.w3.org/2000/svg">
<g clip-path="url(#clip0_483_13668)">
<path d="M13.9657 16.0001H3.36837C2.90768 16.0028 2.45403 15.887 2.05102 15.6637C1.648 15.4405 1.30916 15.1174 1.06704 14.7255C0.827914 14.3429 0.69116 13.9053 0.669913 13.4546C0.648665 13.004 0.743636 12.5555 0.945707 12.1521L6.25371 2.80812C6.48213 2.36263 6.8294 1.98907 7.25705 1.7288C7.68471 1.46853 8.17606 1.33172 8.67669 1.33351C9.17732 1.33531 9.66768 1.47564 10.0935 1.73897C10.5192 2.0023 10.8638 2.37834 11.089 2.82545L16.3704 12.1195C16.5797 12.5258 16.6802 12.9794 16.662 13.4362C16.6437 13.8929 16.5074 14.3371 16.2664 14.7255C16.0243 15.1173 15.6856 15.4404 15.2827 15.6636C14.8798 15.8868 14.4263 16.0027 13.9657 16.0001ZM8.66704 2.66678C8.41198 2.66256 8.161 2.73111 7.94351 2.86442C7.72602 2.99772 7.55103 3.19025 7.43904 3.41945L7.42171 3.45212L2.12304 12.7781C2.02868 12.9749 1.98624 13.1926 1.99978 13.4105C2.01332 13.6284 2.08237 13.8391 2.20037 14.0228C2.32355 14.2212 2.49566 14.3847 2.7002 14.4975C2.90473 14.6102 3.13482 14.6685 3.36837 14.6668H13.9684C14.2019 14.6685 14.432 14.6102 14.6366 14.4975C14.8411 14.3847 15.0132 14.2212 15.1364 14.0228C15.2564 13.8334 15.3251 13.616 15.3356 13.3921C15.3461 13.1681 15.2981 12.9452 15.1964 12.7455L9.91237 3.45212C9.80214 3.21544 9.62608 3.01552 9.40523 2.87625C9.18439 2.73699 8.92812 2.66427 8.66704 2.66678Z" fill="black"/>
</g>
<defs>
<clipPath id="clip0_483_13668">
<rect width="16" height="16" fill="white" transform="translate(0.666992)"/>
</clipPath>
</defs>
</svg>
