<svg width="16" height="16" viewBox="0 0 16 16" fill="none" xmlns="http://www.w3.org/2000/svg">
<g clip-path="url(#clip0_483_13710)">
<path d="M12.6667 1.33293H10.974C10.513 0.807465 9.92046 0.414218 9.25719 0.193597C8.59392 -0.0270249 7.88387 -0.0670646 7.2 0.0775922C6.36712 0.247439 5.61419 0.688974 5.05933 1.33293H3.33333C2.4496 1.33398 1.60237 1.68551 0.97748 2.31041C0.352588 2.9353 0.00105857 3.78253 0 4.66626L0 12.6663C0.00105857 13.55 0.352588 14.3972 0.97748 15.0221C1.60237 15.647 2.4496 15.9985 3.33333 15.9996H12.6667C13.5504 15.9985 14.3976 15.647 15.0225 15.0221C15.6474 14.3972 15.9989 13.55 16 12.6663V4.66626C15.9989 3.78253 15.6474 2.9353 15.0225 2.31041C14.3976 1.68551 13.5504 1.33398 12.6667 1.33293ZM8 1.33293C8.70724 1.33293 9.38552 1.61388 9.88562 2.11397C10.3857 2.61407 10.6667 3.29235 10.6667 3.99959C10.6667 4.1764 10.5964 4.34597 10.4714 4.471C10.3464 4.59602 10.1768 4.66626 10 4.66626H8.57867L9.22133 3.70293C9.31946 3.55582 9.35514 3.37576 9.32051 3.20235C9.28587 3.02894 9.18377 2.87639 9.03667 2.77826C8.88956 2.68013 8.7095 2.64446 8.53609 2.67909C8.36268 2.71372 8.21013 2.81582 8.112 2.96293L6.97667 4.66626H6C5.82319 4.66626 5.65362 4.59602 5.5286 4.471C5.40357 4.34597 5.33333 4.1764 5.33333 3.99959C5.33333 3.29235 5.61428 2.61407 6.11438 2.11397C6.61448 1.61388 7.29276 1.33293 8 1.33293ZM14.6667 12.6663C14.6667 13.1967 14.456 13.7054 14.0809 14.0805C13.7058 14.4555 13.1971 14.6663 12.6667 14.6663H3.33333C2.8029 14.6663 2.29419 14.4555 1.91912 14.0805C1.54405 13.7054 1.33333 13.1967 1.33333 12.6663V4.66626C1.33333 4.13583 1.54405 3.62712 1.91912 3.25205C2.29419 2.87697 2.8029 2.66626 3.33333 2.66626H4.262C4.08927 3.13945 4.0006 3.6392 4 4.14293C4.00053 4.63518 4.19631 5.10712 4.54439 5.4552C4.89247 5.80328 5.36441 5.99906 5.85667 5.99959H10.1433C10.6213 6.00399 11.0823 5.82232 11.4288 5.493C11.7753 5.16369 11.9801 4.71253 12 4.23493C12.0067 3.70322 11.9293 3.1738 11.7707 2.66626H12.6667C13.1971 2.66626 13.7058 2.87697 14.0809 3.25205C14.456 3.62712 14.6667 4.13583 14.6667 4.66626V12.6663Z" fill="black"/>
</g>
<defs>
<clipPath id="clip0_483_13710">
<rect width="16" height="16" fill="white"/>
</clipPath>
</defs>
</svg>
