<svg width="16" height="16" viewBox="0 0 16 16" fill="none" xmlns="http://www.w3.org/2000/svg">
<g clip-path="url(#clip0_483_13862)">
<path d="M8.00261 -0.00146484C3.57752 -0.00146484 -0.00976562 3.58582 -0.00976562 8.01091C-0.00976562 12.436 3.57752 16.0233 8.00261 16.0233C12.4277 16.0233 16.015 12.436 16.015 8.01091C16.015 3.58582 12.4277 -0.00146484 8.00261 -0.00146484ZM14.5838 7V7.002C13.979 7.37857 13.3177 7.65566 12.6251 7.82266C12.4815 5.68725 11.7756 3.62785 10.5791 1.85332C12.7178 2.75619 14.2342 4.705 14.5838 7ZM8.00042 1.33335C8.16908 1.33335 8.33377 1.346 8.49977 1.35869C10.163 3.18507 11.1511 5.52563 11.2998 7.99135C10.3887 8.0225 9.48105 7.86594 8.63311 7.53135C8.50039 5.2771 7.42358 3.18322 5.66711 1.764C6.41255 1.48097 7.20305 1.33507 8.00042 1.33335ZM4.32508 2.44335C4.95136 2.85175 5.50458 3.36241 5.96173 3.954C3.96342 5.29403 2.4072 7.19641 1.48977 9.42066C0.896297 6.73194 2.02436 3.95597 4.32508 2.44335ZM2.23777 11.3367C2.90327 8.79107 4.47189 6.57441 6.65111 5.1C7.0457 5.91072 7.27095 6.79335 7.31311 7.694C5.49373 9.07657 4.3503 11.1694 4.16977 13.4473C3.38139 12.891 2.72236 12.1711 2.23777 11.3367ZM8.00042 14.6667C7.13792 14.6664 6.28373 14.4979 5.48577 14.1707C5.47108 13.3107 5.6232 12.4561 5.93377 11.654C8.12505 12.6268 10.5585 12.9169 12.9171 12.4867C11.6589 13.874 9.87336 14.6657 8.00042 14.6667ZM6.53377 10.46C6.95636 9.80503 7.49095 9.2296 8.11311 8.76C9.05548 9.14107 10.062 9.3386 11.0785 9.342C12.3151 9.34188 13.5352 9.05672 14.6438 8.50866C14.5813 9.32347 14.3682 10.1196 14.0151 10.8567C11.5535 11.618 8.90108 11.4774 6.53377 10.46Z" fill="black"/>
</g>
<defs>
<clipPath id="clip0_483_13862">
<rect width="16" height="16" fill="white"/>
</clipPath>
</defs>
</svg>
