<svg width="16" height="16" viewBox="0 0 16 16" fill="none" xmlns="http://www.w3.org/2000/svg">
<g clip-path="url(#clip0_482_17983)">
<path d="M15.8074 10.86L10.3608 5.41337C10.0511 5.10295 9.6833 4.85667 9.27833 4.68862C8.87337 4.52058 8.43922 4.43408 8.00078 4.43408C7.56233 4.43408 7.12819 4.52058 6.72322 4.68862C6.31825 4.85667 5.95041 5.10295 5.64078 5.41337L0.194108 10.86C0.0685721 10.9856 -0.00195312 11.1558 -0.00195312 11.3334C-0.00195313 11.5109 0.0685721 11.6812 0.194108 11.8067C0.319644 11.9322 0.489907 12.0028 0.667441 12.0028C0.844976 12.0028 1.01524 11.9322 1.14077 11.8067L6.58744 6.36004C6.96244 5.98551 7.47077 5.77513 8.00078 5.77513C8.53078 5.77513 9.03911 5.98551 9.41411 6.36004L14.8608 11.8067C14.9228 11.8692 14.9965 11.9188 15.0777 11.9526C15.159 11.9865 15.2461 12.0039 15.3341 12.0039C15.4221 12.0039 15.5093 11.9865 15.5905 11.9526C15.6717 11.9188 15.7455 11.8692 15.8074 11.8067C15.8699 11.7447 15.9195 11.671 15.9534 11.5898C15.9872 11.5085 16.0046 11.4214 16.0046 11.3334C16.0046 11.2454 15.9872 11.1582 15.9534 11.077C15.9195 10.9957 15.8699 10.922 15.8074 10.86Z" fill="black"/>
</g>
<defs>
<clipPath id="clip0_482_17983">
<rect width="16" height="16" fill="white"/>
</clipPath>
</defs>
</svg>
