<svg width="16" height="16" viewBox="0 0 16 16" fill="none" xmlns="http://www.w3.org/2000/svg">
<g clip-path="url(#clip0_482_18023)">
<path d="M15.3333 14.6667H14.6667V9.33335C14.6656 8.44962 14.3141 7.60239 13.6892 6.9775C13.0643 6.35261 12.2171 6.00108 11.3333 6.00002H8.66667V4.02602C8.96365 3.89641 9.21641 3.68303 9.39402 3.412C9.57162 3.14098 9.66637 2.82406 9.66667 2.50002C9.48658 1.64787 9.08088 0.859742 8.492 0.21802C8.42954 0.149707 8.35353 0.0951495 8.26882 0.0578235C8.18412 0.0204975 8.09257 0.0012207 8 0.0012207C7.90743 0.0012207 7.81588 0.0204975 7.73118 0.0578235C7.64647 0.0951495 7.57046 0.149707 7.508 0.21802C6.91912 0.859742 6.51342 1.64787 6.33333 2.50002C6.33363 2.82406 6.42838 3.14098 6.60598 3.412C6.78359 3.68303 7.03635 3.89641 7.33333 4.02602V6.00002H4.66667C3.78294 6.00108 2.93571 6.35261 2.31081 6.9775C1.68592 7.60239 1.33439 8.44962 1.33333 9.33335V14.6667H0.666667C0.489856 14.6667 0.320286 14.7369 0.195262 14.8619C0.0702379 14.987 0 15.1565 0 15.3334C0 15.5102 0.0702379 15.6797 0.195262 15.8048C0.320286 15.9298 0.489856 16 0.666667 16H15.3333C15.5101 16 15.6797 15.9298 15.8047 15.8048C15.9298 15.6797 16 15.5102 16 15.3334C16 15.1565 15.9298 14.987 15.8047 14.8619C15.6797 14.7369 15.5101 14.6667 15.3333 14.6667ZM4.66667 7.33335H11.3333C11.8638 7.33335 12.3725 7.54407 12.7475 7.91914C13.1226 8.29421 13.3333 8.80292 13.3333 9.33335V10.6534C12.7093 10.5867 12.3333 10.1867 12.3333 10C12.3333 9.82321 12.2631 9.65364 12.1381 9.52862C12.013 9.40359 11.8435 9.33335 11.6667 9.33335C11.4899 9.33335 11.3203 9.40359 11.1953 9.52862C11.0702 9.65364 11 9.82321 11 10C11 10.2287 10.5453 10.6667 9.83333 10.6667C9.10733 10.6667 8.66667 10.204 8.66667 10C8.66667 9.82321 8.59643 9.65364 8.47141 9.52862C8.34638 9.40359 8.17681 9.33335 8 9.33335C7.82319 9.33335 7.65362 9.40359 7.5286 9.52862C7.40357 9.65364 7.33333 9.82321 7.33333 10C7.33333 10.2287 6.87867 10.6667 6.16667 10.6667C5.44067 10.6667 5 10.204 5 10C5 9.82321 4.92976 9.65364 4.80474 9.52862C4.67971 9.40359 4.51014 9.33335 4.33333 9.33335C4.15652 9.33335 3.98695 9.40359 3.86193 9.52862C3.7369 9.65364 3.66667 9.82321 3.66667 10C3.66667 10.21 3.28067 10.592 2.66667 10.654V9.33335C2.66667 8.80292 2.87738 8.29421 3.25245 7.91914C3.62753 7.54407 4.13623 7.33335 4.66667 7.33335ZM2.66667 11.986C3.27913 11.9588 3.86529 11.7293 4.33333 11.3334C4.84758 11.762 5.49539 11.9976 6.16486 11.9994C6.83434 12.0013 7.48343 11.7692 8 11.3434C8.51657 11.7692 9.16566 12.0013 9.83514 11.9994C10.5046 11.9976 11.1524 11.762 11.6667 11.3334C12.1348 11.7291 12.721 11.9584 13.3333 11.9854V14.6667H2.66667V11.986Z" fill="black"/>
</g>
<defs>
<clipPath id="clip0_482_18023">
<rect width="16" height="16" fill="white"/>
</clipPath>
</defs>
</svg>
