<svg width="17" height="16" viewBox="0 0 17 16" fill="none" xmlns="http://www.w3.org/2000/svg">
<g clip-path="url(#clip0_483_13704)">
<path d="M16.3688 14.8668L12.3952 10.8932C14.7262 8.04239 14.3048 3.8417 11.4539 1.51076C8.60309 -0.820177 4.40243 -0.398802 2.07146 2.45204C-0.259508 5.30289 0.161929 9.50357 3.01277 11.8345C5.46834 13.8423 8.9984 13.8423 11.454 11.8345L15.4276 15.8081C15.692 16.0635 16.1135 16.0562 16.3689 15.7918C16.618 15.5338 16.618 15.1248 16.3688 14.8668ZM1.91834 6.68329C1.91834 3.74201 4.30271 1.35764 7.24399 1.35764C10.1853 1.35764 12.5696 3.74201 12.5696 6.68329C12.5696 9.62457 10.1853 12.0089 7.24399 12.0089C4.30409 12.0056 1.92165 9.6232 1.91834 6.68329ZM8.57543 4.02045C8.07812 4.0227 7.60096 4.21735 7.24402 4.56367C6.88709 4.21739 6.40993 4.0227 5.91262 4.02045C4.77409 4.05989 3.88146 5.01201 3.91549 6.1507C3.91549 7.4821 5.27421 8.85548 6.41455 9.77213C6.89996 10.1587 7.58809 10.1587 8.07349 9.77213C9.21384 8.85545 10.5726 7.4821 10.5726 6.1507C10.6066 5.01201 9.71396 4.05989 8.57543 4.02045ZM7.24799 8.73367C6.01377 7.74176 5.24687 6.74985 5.24687 6.15073C5.21365 5.74742 5.50987 5.39192 5.91259 5.35188C6.31527 5.39192 6.61152 5.74742 6.5783 6.15073C6.5783 6.51838 6.87634 6.81645 7.24402 6.81645C7.61168 6.81645 7.90974 6.51842 7.90974 6.15073C7.87652 5.74742 8.17274 5.39192 8.57546 5.35188C8.97815 5.39192 9.2744 5.74742 9.24118 6.15073C9.24112 6.74985 8.47424 7.74176 7.24799 8.73367Z" fill="black"/>
</g>
<defs>
<clipPath id="clip0_483_13704">
<rect width="16" height="16" fill="white" transform="translate(0.555664)"/>
</clipPath>
</defs>
</svg>
