<svg width="17" height="16" viewBox="0 0 17 16" fill="none" xmlns="http://www.w3.org/2000/svg">
<g clip-path="url(#clip0_483_13803)">
<path d="M5.00033 0C4.38149 0 3.78799 0.245833 3.35041 0.683417C2.91282 1.121 2.66699 1.71449 2.66699 2.33333V13.6667C2.66699 14.2855 2.91282 14.879 3.35041 15.3166C3.78799 15.7542 4.38149 16 5.00033 16C5.61916 16 6.21266 15.7542 6.65024 15.3166C7.08783 14.879 7.33366 14.2855 7.33366 13.6667V2.33333C7.33366 1.71449 7.08783 1.121 6.65024 0.683417C6.21266 0.245833 5.61916 0 5.00033 0ZM6.00033 13.6667C6.00033 13.9319 5.89497 14.1862 5.70743 14.3738C5.5199 14.5613 5.26554 14.6667 5.00033 14.6667C4.73511 14.6667 4.48076 14.5613 4.29322 14.3738C4.10568 14.1862 4.00033 13.9319 4.00033 13.6667V2.33333C4.00033 2.06812 4.10568 1.81376 4.29322 1.62623C4.48076 1.43869 4.73511 1.33333 5.00033 1.33333C5.26554 1.33333 5.5199 1.43869 5.70743 1.62623C5.89497 1.81376 6.00033 2.06812 6.00033 2.33333V13.6667Z" fill="black"/>
<path d="M12.3333 0C11.7145 0 11.121 0.245833 10.6834 0.683417C10.2458 1.121 10 1.71449 10 2.33333V13.6667C10 14.2855 10.2458 14.879 10.6834 15.3166C11.121 15.7542 11.7145 16 12.3333 16C12.9522 16 13.5457 15.7542 13.9832 15.3166C14.4208 14.879 14.6667 14.2855 14.6667 13.6667V2.33333C14.6667 1.71449 14.4208 1.121 13.9832 0.683417C13.5457 0.245833 12.9522 0 12.3333 0ZM13.3333 13.6667C13.3333 13.9319 13.228 14.1862 13.0404 14.3738C12.8529 14.5613 12.5985 14.6667 12.3333 14.6667C12.0681 14.6667 11.8138 14.5613 11.6262 14.3738C11.4387 14.1862 11.3333 13.9319 11.3333 13.6667V2.33333C11.3333 2.06812 11.4387 1.81376 11.6262 1.62623C11.8138 1.43869 12.0681 1.33333 12.3333 1.33333C12.5985 1.33333 12.8529 1.43869 13.0404 1.62623C13.228 1.81376 13.3333 2.06812 13.3333 2.33333V13.6667Z" fill="black"/>
</g>
<defs>
<clipPath id="clip0_483_13803">
<rect width="16" height="16" fill="white" transform="translate(0.666992)"/>
</clipPath>
</defs>
</svg>
