<svg width="17" height="16" viewBox="0 0 17 16" fill="none" xmlns="http://www.w3.org/2000/svg">
<g clip-path="url(#clip0_483_13894)">
<path d="M13.7777 0C13.0704 0 12.3921 0.280952 11.8921 0.781049C11.392 1.28115 11.111 1.95942 11.111 2.66667C11.111 2.84348 11.1812 3.01305 11.3063 3.13807C11.4313 3.2631 11.6009 3.33333 11.7777 3.33333C11.9545 3.33333 12.1241 3.2631 12.2491 3.13807C12.3741 3.01305 12.4443 2.84348 12.4443 2.66667C12.4443 2.31304 12.5848 1.97391 12.8349 1.72386C13.0849 1.47381 13.424 1.33333 13.7777 1.33333C14.1313 1.33333 14.4704 1.47381 14.7205 1.72386C14.9705 1.97391 15.111 2.31304 15.111 2.66667V10.0173C14.5374 9.57613 13.8346 9.33578 13.111 9.33333C12.5651 9.33357 12.0277 9.46786 11.5459 9.72441C11.064 9.98096 10.6526 10.3519 10.3477 10.8047C10.1004 10.55 9.80449 10.3476 9.47756 10.2094C9.15063 10.0712 8.79929 9.99998 8.44434 9.99998C8.08939 9.99998 7.73805 10.0712 7.41111 10.2094C7.08418 10.3476 6.78831 10.55 6.541 10.8047C6.23608 10.3519 5.82464 9.98096 5.34281 9.72441C4.86099 9.46786 4.32354 9.33357 3.77767 9.33333C3.05402 9.33578 2.35126 9.57613 1.77767 10.0173V2.66667C1.77767 2.31304 1.91815 1.97391 2.16819 1.72386C2.41824 1.47381 2.75738 1.33333 3.111 1.33333C3.46462 1.33333 3.80376 1.47381 4.05381 1.72386C4.30386 1.97391 4.44434 2.31304 4.44434 2.66667C4.44434 2.84348 4.51457 3.01305 4.6396 3.13807C4.76462 3.2631 4.93419 3.33333 5.111 3.33333C5.28781 3.33333 5.45738 3.2631 5.58241 3.13807C5.70743 3.01305 5.77767 2.84348 5.77767 2.66667C5.77767 1.95942 5.49672 1.28115 4.99662 0.781049C4.49652 0.280952 3.81825 0 3.111 0C2.40376 0 1.72548 0.280952 1.22538 0.781049C0.725288 1.28115 0.444336 1.95942 0.444336 2.66667L0.444336 12.6667C0.444336 13.5507 0.795525 14.3986 1.42065 15.0237C2.04577 15.6488 2.89361 16 3.77767 16C4.66172 16 5.50957 15.6488 6.13469 15.0237C6.75981 14.3986 7.111 13.5507 7.111 12.6667C7.111 12.313 7.25148 11.9739 7.50153 11.7239C7.75158 11.4738 8.09071 11.3333 8.44434 11.3333C8.79796 11.3333 9.1371 11.4738 9.38715 11.7239C9.63719 11.9739 9.77767 12.313 9.77767 12.6667C9.77767 13.5507 10.1289 14.3986 10.754 15.0237C11.3791 15.6488 12.2269 16 13.111 16C13.9951 16 14.8429 15.6488 15.468 15.0237C16.0931 14.3986 16.4443 13.5507 16.4443 12.6667V2.66667C16.4443 1.95942 16.1634 1.28115 15.6633 0.781049C15.1632 0.280952 14.4849 0 13.7777 0V0ZM3.77767 14.6667C3.38211 14.6667 2.99543 14.5494 2.66653 14.3296C2.33763 14.1098 2.08129 13.7975 1.92991 13.432C1.77854 13.0666 1.73893 12.6644 1.8161 12.2765C1.89327 11.8885 2.08375 11.5322 2.36346 11.2525C2.64316 10.9727 2.99953 10.7823 3.38749 10.7051C3.77545 10.6279 4.17758 10.6675 4.54304 10.8189C4.90849 10.9703 5.22085 11.2266 5.44061 11.5555C5.66037 11.8844 5.77767 12.2711 5.77767 12.6667C5.77767 13.1971 5.56696 13.7058 5.19188 14.0809C4.81681 14.456 4.3081 14.6667 3.77767 14.6667ZM13.111 14.6667C12.7154 14.6667 12.3288 14.5494 11.9999 14.3296C11.671 14.1098 11.4146 13.7975 11.2632 13.432C11.1119 13.0666 11.0723 12.6644 11.1494 12.2765C11.2266 11.8885 11.4171 11.5322 11.6968 11.2525C11.9765 10.9727 12.3329 10.7823 12.7208 10.7051C13.1088 10.6279 13.5109 10.6675 13.8764 10.8189C14.2418 10.9703 14.5542 11.2266 14.7739 11.5555C14.9937 11.8844 15.111 12.2711 15.111 12.6667C15.111 13.1971 14.9003 13.7058 14.5252 14.0809C14.1501 14.456 13.6414 14.6667 13.111 14.6667Z" fill="black"/>
</g>
<defs>
<clipPath id="clip0_483_13894">
<rect width="16" height="16" fill="white" transform="translate(0.444336)"/>
</clipPath>
</defs>
</svg>
