<svg width="17" height="16" viewBox="0 0 17 16" fill="none" xmlns="http://www.w3.org/2000/svg">
<g clip-path="url(#clip0_483_13869)">
<path d="M15.9968 6.11421L13.4108 3.52821C13.2851 3.40677 13.1167 3.33957 12.9419 3.34109C12.7671 3.34261 12.5999 3.41272 12.4763 3.53633C12.3527 3.65993 12.2826 3.82714 12.2811 4.00194C12.2795 4.17674 12.3467 4.34514 12.4682 4.47087L15.0542 7.05687C15.131 7.13522 15.1982 7.22252 15.2542 7.31687C15.2442 7.31687 15.2362 7.31154 15.2262 7.31154L4.77018 7.33287C4.59337 7.33287 4.4238 7.40311 4.29878 7.52813C4.17375 7.65316 4.10352 7.82273 4.10352 7.99954C4.10352 8.17635 4.17375 8.34592 4.29878 8.47094C4.4238 8.59597 4.59337 8.66621 4.77018 8.66621L15.2222 8.64487C15.2408 8.64487 15.2562 8.63554 15.2742 8.63421C15.215 8.74698 15.1401 8.8507 15.0515 8.9422L12.4655 11.5282C12.4018 11.5897 12.3511 11.6633 12.3161 11.7446C12.2812 11.8259 12.2628 11.9134 12.262 12.0019C12.2612 12.0905 12.2781 12.1782 12.3116 12.2602C12.3452 12.3421 12.3947 12.4165 12.4573 12.4791C12.5198 12.5417 12.5943 12.5912 12.6762 12.6248C12.7581 12.6583 12.8459 12.6751 12.9344 12.6744C13.023 12.6736 13.1104 12.6552 13.1918 12.6203C13.2731 12.5853 13.3467 12.5345 13.4082 12.4709L15.9942 9.88487C16.4941 9.3848 16.7749 8.70664 16.7749 7.99954C16.7749 7.29243 16.4941 6.61428 15.9942 6.11421H15.9968Z" fill="black"/>
<path d="M5.44401 14.6667H4.11068C3.58024 14.6667 3.07154 14.456 2.69646 14.0809C2.32139 13.7058 2.11068 13.1971 2.11068 12.6667V3.33333C2.11068 2.8029 2.32139 2.29419 2.69646 1.91912C3.07154 1.54405 3.58024 1.33333 4.11068 1.33333H5.44401C5.62082 1.33333 5.79039 1.2631 5.91541 1.13807C6.04044 1.01305 6.11068 0.843478 6.11068 0.666667C6.11068 0.489856 6.04044 0.320286 5.91541 0.195262C5.79039 0.0702379 5.62082 0 5.44401 0L4.11068 0C3.22695 0.00105857 2.37972 0.352588 1.75482 0.97748C1.12993 1.60237 0.778402 2.4496 0.777344 3.33333L0.777344 12.6667C0.778402 13.5504 1.12993 14.3976 1.75482 15.0225C2.37972 15.6474 3.22695 15.9989 4.11068 16H5.44401C5.62082 16 5.79039 15.9298 5.91541 15.8047C6.04044 15.6797 6.11068 15.5101 6.11068 15.3333C6.11068 15.1565 6.04044 14.987 5.91541 14.8619C5.79039 14.7369 5.62082 14.6667 5.44401 14.6667Z" fill="black"/>
</g>
<defs>
<clipPath id="clip0_483_13869">
<rect width="16" height="16" fill="white" transform="translate(0.777344)"/>
</clipPath>
</defs>
</svg>
