<svg width="17" height="16" viewBox="0 0 17 16" fill="none" xmlns="http://www.w3.org/2000/svg">
<g clip-path="url(#clip0_482_18021)">
<path d="M13.111 0H3.77767C2.89394 0.00105857 2.04671 0.352588 1.42182 0.97748C0.796924 1.60237 0.445395 2.4496 0.444336 3.33333L0.444336 6.66667C0.445924 7.90386 0.938099 9.08992 1.81292 9.96474C2.68775 10.8396 3.87381 11.3317 5.111 11.3333H6.44434V14C6.44434 14.5304 6.65505 15.0391 7.03012 15.4142C7.4052 15.7893 7.9139 16 8.44434 16C8.97477 16 9.48348 15.7893 9.85855 15.4142C10.2336 15.0391 10.4443 14.5304 10.4443 14V11.3333H11.7777C13.0149 11.3317 14.2009 10.8396 15.0757 9.96474C15.9506 9.08992 16.4427 7.90386 16.4443 6.66667V3.33333C16.4433 2.4496 16.0917 1.60237 15.4669 0.97748C14.842 0.352588 13.9947 0.00105857 13.111 0V0ZM1.77767 3.33333C1.77767 2.8029 1.98838 2.29419 2.36346 1.91912C2.73853 1.54405 3.24724 1.33333 3.77767 1.33333H7.111V2C7.111 2.17681 7.18124 2.34638 7.30626 2.4714C7.43129 2.59643 7.60086 2.66667 7.77767 2.66667C7.95448 2.66667 8.12405 2.59643 8.24907 2.4714C8.3741 2.34638 8.44434 2.17681 8.44434 2V1.33333H9.77767V3.33333C9.77767 3.51014 9.84791 3.67971 9.97293 3.80474C10.098 3.92976 10.2675 4 10.4443 4C10.6211 4 10.7907 3.92976 10.9157 3.80474C11.0408 3.67971 11.111 3.51014 11.111 3.33333V1.33333H12.4443V4.66667C12.4443 4.84348 12.5146 5.01305 12.6396 5.13807C12.7646 5.2631 12.9342 5.33333 13.111 5.33333C13.2878 5.33333 13.4574 5.2631 13.5824 5.13807C13.7074 5.01305 13.7777 4.84348 13.7777 4.66667V1.456C14.1663 1.59339 14.5029 1.84749 14.7416 2.18353C14.9803 2.51958 15.1093 2.92116 15.111 3.33333V6.66667H1.77767V3.33333ZM11.7777 10H9.77767C9.60086 10 9.43129 10.0702 9.30626 10.1953C9.18124 10.3203 9.111 10.4899 9.111 10.6667V14C9.111 14.1768 9.04076 14.3464 8.91574 14.4714C8.79072 14.5964 8.62115 14.6667 8.44434 14.6667C8.26753 14.6667 8.09796 14.5964 7.97293 14.4714C7.84791 14.3464 7.77767 14.1768 7.77767 14V10.6667C7.77767 10.4899 7.70743 10.3203 7.58241 10.1953C7.45738 10.0702 7.28781 10 7.111 10H5.111C4.46316 9.99915 3.8296 9.80953 3.28781 9.45433C2.74602 9.09914 2.31947 8.59376 2.06034 8H14.8283C14.5692 8.59376 14.1427 9.09914 13.6009 9.45433C13.0591 9.80953 12.4255 9.99915 11.7777 10Z" fill="black"/>
</g>
<defs>
<clipPath id="clip0_482_18021">
<rect width="16" height="16" fill="white" transform="translate(0.444336)"/>
</clipPath>
</defs>
</svg>
