<svg width="17" height="16" viewBox="0 0 17 16" fill="none" xmlns="http://www.w3.org/2000/svg">
<g clip-path="url(#clip0_483_13809)">
<path d="M3.3332 4.00012C3.07037 4.00081 2.81001 3.94937 2.56719 3.84879C2.32436 3.7482 2.1039 3.60046 1.91854 3.41412L0.889205 2.49812C0.757127 2.38036 0.677237 2.21496 0.66711 2.0383C0.656983 1.86164 0.717449 1.6882 0.835205 1.55612C0.952961 1.42404 1.11836 1.34415 1.29502 1.33402C1.47168 1.3239 1.64513 1.38436 1.7772 1.50212L2.83387 2.44478C2.89436 2.51272 2.96811 2.56755 3.05059 2.60591C3.13306 2.64427 3.22252 2.66535 3.31344 2.66785C3.40437 2.67035 3.49484 2.65421 3.5793 2.62044C3.66376 2.58666 3.74041 2.53596 3.80454 2.47145L6.2072 0.184118C6.3364 0.0690981 6.50524 0.00879725 6.67807 0.0159519C6.8509 0.0231066 7.01419 0.0971565 7.13343 0.222461C7.25268 0.347766 7.31855 0.514514 7.31714 0.687485C7.31573 0.860457 7.24715 1.02611 7.12587 1.14945L4.7332 3.42545C4.54905 3.60853 4.33062 3.75352 4.0904 3.85212C3.85018 3.95073 3.59288 4.00102 3.3332 4.00012ZM16.6665 2.66678C16.6665 2.48997 16.5963 2.3204 16.4713 2.19538C16.3463 2.07036 16.1767 2.00012 15.9999 2.00012H9.33321C9.15639 2.00012 8.98682 2.07036 8.8618 2.19538C8.73678 2.3204 8.66654 2.48997 8.66654 2.66678C8.66654 2.8436 8.73678 3.01316 8.8618 3.13819C8.98682 3.26321 9.15639 3.33345 9.33321 3.33345H15.9999C16.1767 3.33345 16.3463 3.26321 16.4713 3.13819C16.5963 3.01316 16.6665 2.8436 16.6665 2.66678ZM4.7332 8.75878L7.12587 6.48278C7.19265 6.42333 7.24679 6.35105 7.28507 6.27025C7.32334 6.18944 7.34498 6.10176 7.34867 6.01243C7.35237 5.92309 7.33806 5.83393 7.3066 5.75024C7.27513 5.66654 7.22715 5.59004 7.16551 5.52527C7.10387 5.4605 7.02983 5.40879 6.9478 5.37322C6.86577 5.33765 6.77742 5.31894 6.68801 5.31821C6.59861 5.31748 6.50996 5.33474 6.42736 5.36897C6.34476 5.4032 6.26989 5.4537 6.2072 5.51745L3.8072 7.80478C3.68029 7.92614 3.51147 7.99387 3.33587 7.99387C3.16028 7.99387 2.99145 7.92614 2.86454 7.80478L1.80454 6.74812C1.6788 6.62668 1.5104 6.55948 1.3356 6.561C1.16081 6.56252 0.993598 6.63263 0.869992 6.75624C0.746387 6.87984 0.676274 7.04705 0.674755 7.22185C0.673236 7.39665 0.740433 7.56505 0.861871 7.69078L1.91854 8.74745C2.29165 9.12065 2.79715 9.33126 3.32487 9.33339C3.85259 9.33551 4.35977 9.12897 4.73587 8.75878H4.7332ZM16.6665 8.00012C16.6665 7.82331 16.5963 7.65374 16.4713 7.52871C16.3463 7.40369 16.1767 7.33345 15.9999 7.33345H9.33321C9.15639 7.33345 8.98682 7.40369 8.8618 7.52871C8.73678 7.65374 8.66654 7.82331 8.66654 8.00012C8.66654 8.17693 8.73678 8.3465 8.8618 8.47152C8.98682 8.59655 9.15639 8.66678 9.33321 8.66678H15.9999C16.1767 8.66678 16.3463 8.59655 16.4713 8.47152C16.5963 8.3465 16.6665 8.17693 16.6665 8.00012ZM4.7332 14.0921L7.12321 11.8161C7.18999 11.7567 7.24413 11.6844 7.2824 11.6036C7.32068 11.5228 7.34231 11.4351 7.34601 11.3458C7.3497 11.2564 7.33539 11.1673 7.30393 11.0836C7.27246 10.9999 7.22448 10.9234 7.16284 10.8586C7.10121 10.7938 7.02717 10.7421 6.94514 10.7066C6.86311 10.671 6.77476 10.6523 6.68535 10.6515C6.59594 10.6508 6.5073 10.6681 6.4247 10.7023C6.3421 10.7365 6.26723 10.787 6.20454 10.8508L3.80454 13.1381C3.74041 13.2026 3.66376 13.2533 3.5793 13.2871C3.49484 13.3209 3.40437 13.337 3.31344 13.3345C3.22252 13.332 3.13306 13.3109 3.05059 13.2726C2.96811 13.2342 2.89436 13.1794 2.83387 13.1115L1.7772 12.1688C1.64513 12.051 1.47168 11.9906 1.29502 12.0007C1.11836 12.0108 0.952961 12.0907 0.835205 12.2228C0.717449 12.3549 0.656983 12.5283 0.66711 12.705C0.677237 12.8816 0.757127 13.047 0.889205 13.1648L1.91854 14.0808C2.29165 14.454 2.79715 14.6646 3.32487 14.6667C3.85259 14.6688 4.35977 14.4623 4.73587 14.0921H4.7332ZM16.6665 13.3335C16.6665 13.1566 16.5963 12.9871 16.4713 12.862C16.3463 12.737 16.1767 12.6668 15.9999 12.6668H9.33321C9.15639 12.6668 8.98682 12.737 8.8618 12.862C8.73678 12.9871 8.66654 13.1566 8.66654 13.3335C8.66654 13.5103 8.73678 13.6798 8.8618 13.8049C8.98682 13.9299 9.15639 14.0001 9.33321 14.0001H15.9999C16.1767 14.0001 16.3463 13.9299 16.4713 13.8049C16.5963 13.6798 16.6665 13.5103 16.6665 13.3335Z" fill="black"/>
</g>
<defs>
<clipPath id="clip0_483_13809">
<rect width="16" height="16" fill="white" transform="translate(0.666992)"/>
</clipPath>
</defs>
</svg>
