<svg width="17" height="16" viewBox="0 0 17 16" fill="none" xmlns="http://www.w3.org/2000/svg">
<g clip-path="url(#clip0_483_13687)">
<path d="M14.082 3.03669L8.76801 0.0840275C8.66891 0.0289207 8.5574 0 8.44401 0C8.33062 0 8.21911 0.0289207 8.12001 0.0840275L2.80601 3.03669C2.49428 3.20989 2.23453 3.46328 2.05366 3.77063C1.8728 4.07797 1.7774 4.42808 1.77734 4.78469V12.6667C1.7784 13.5504 2.12993 14.3977 2.75482 15.0225C3.37972 15.6474 4.22695 15.999 5.11068 16H11.7773C12.6611 15.999 13.5083 15.6474 14.1332 15.0225C14.7581 14.3977 15.1096 13.5504 15.1107 12.6667V4.78469C15.1106 4.42808 15.0152 4.07797 14.8344 3.77063C14.6535 3.46328 14.3937 3.20989 14.082 3.03669ZM13.7773 12.6667C13.7773 13.1971 13.5666 13.7058 13.1916 14.0809C12.8165 14.456 12.3078 14.6667 11.7773 14.6667H5.11068C4.58024 14.6667 4.07154 14.456 3.69646 14.0809C3.32139 13.7058 3.11068 13.1971 3.11068 12.6667V4.78469C3.11038 4.66544 3.14208 4.54829 3.20247 4.44545C3.26285 4.34262 3.34972 4.25787 3.45401 4.20003L8.44401 1.42936L13.4347 4.20003C13.5388 4.25795 13.6256 4.34274 13.6858 4.44557C13.7461 4.5484 13.7777 4.66551 13.7773 4.78469V12.6667Z" fill="black"/>
<path d="M8.44434 5.66687C8.99662 5.66687 9.44434 5.21915 9.44434 4.66687C9.44434 4.11459 8.99662 3.66687 8.44434 3.66687C7.89205 3.66687 7.44434 4.11459 7.44434 4.66687C7.44434 5.21915 7.89205 5.66687 8.44434 5.66687Z" fill="black"/>
</g>
<defs>
<clipPath id="clip0_483_13687">
<rect width="16" height="16" fill="white" transform="translate(0.444336)"/>
</clipPath>
</defs>
</svg>
