<svg width="17" height="16" viewBox="0 0 17 16" fill="none" xmlns="http://www.w3.org/2000/svg">
<g clip-path="url(#clip0_482_18088)">
<path d="M16.6666 7.6667C16.665 7.21722 16.5619 6.77392 16.365 6.36988C16.168 5.96585 15.8823 5.61152 15.5293 5.33336C16.0177 4.9483 16.3738 4.42039 16.5479 3.82325C16.7219 3.22612 16.7052 2.58955 16.5001 2.00235C16.2951 1.41515 15.9118 0.906608 15.4039 0.547661C14.8959 0.188715 14.2886 -0.00273129 13.6666 2.94434e-05H3.66661C3.04463 -0.00273129 2.43731 0.188715 1.92935 0.547661C1.4214 0.906608 1.03815 1.41515 0.833071 2.00235C0.627991 2.58955 0.61131 3.22612 0.785353 3.82325C0.959397 4.42039 1.31548 4.9483 1.80394 5.33336C1.44964 5.61041 1.16308 5.96451 0.966 6.36879C0.768921 6.77308 0.666497 7.21693 0.666497 7.6667C0.666497 8.11646 0.768921 8.56032 0.966 8.9646C1.16308 9.36889 1.44964 9.72298 1.80394 10C1.31548 10.3851 0.959397 10.913 0.785353 11.5101C0.61131 12.1073 0.627991 12.7438 0.833071 13.331C1.03815 13.9182 1.4214 14.4268 1.92935 14.7857C2.43731 15.1447 3.04463 15.3361 3.66661 15.3334H13.6666C14.2886 15.3361 14.8959 15.1447 15.4039 14.7857C15.9118 14.4268 16.2951 13.9182 16.5001 13.331C16.7052 12.7438 16.7219 12.1073 16.5479 11.5101C16.3738 10.913 16.0177 10.3851 15.5293 10C15.8823 9.72187 16.168 9.36754 16.365 8.96351C16.5619 8.55947 16.665 8.11617 16.6666 7.6667ZM1.99994 3.00003C1.99994 2.558 2.17554 2.13408 2.4881 1.82152C2.80066 1.50896 3.22458 1.33336 3.66661 1.33336H3.99994V2.00003C3.99994 2.17684 4.07018 2.34641 4.1952 2.47143C4.32023 2.59646 4.4898 2.6667 4.66661 2.6667C4.84342 2.6667 5.01299 2.59646 5.13801 2.47143C5.26304 2.34641 5.33328 2.17684 5.33328 2.00003V1.33336H6.66661V2.00003C6.66661 2.17684 6.73685 2.34641 6.86187 2.47143C6.9869 2.59646 7.15646 2.6667 7.33328 2.6667C7.51009 2.6667 7.67966 2.59646 7.80468 2.47143C7.9297 2.34641 7.99994 2.17684 7.99994 2.00003V1.33336H13.6666C14.1086 1.33336 14.5326 1.50896 14.8451 1.82152C15.1577 2.13408 15.3333 2.558 15.3333 3.00003C15.3333 3.44206 15.1577 3.86598 14.8451 4.17854C14.5326 4.4911 14.1086 4.6667 13.6666 4.6667H3.66661C3.22458 4.6667 2.80066 4.4911 2.4881 4.17854C2.17554 3.86598 1.99994 3.44206 1.99994 3.00003ZM15.3333 12.3334C15.3333 12.7754 15.1577 13.1993 14.8451 13.5119C14.5326 13.8244 14.1086 14 13.6666 14H3.66661C3.22458 14 2.80066 13.8244 2.4881 13.5119C2.17554 13.1993 1.99994 12.7754 1.99994 12.3334C1.99994 11.8913 2.17554 11.4674 2.4881 11.1549C2.80066 10.8423 3.22458 10.6667 3.66661 10.6667H3.99994V11.3334C3.99994 11.5102 4.07018 11.6797 4.1952 11.8048C4.32023 11.9298 4.4898 12 4.66661 12C4.84342 12 5.01299 11.9298 5.13801 11.8048C5.26304 11.6797 5.33328 11.5102 5.33328 11.3334V10.6667H6.66661V11.3334C6.66661 11.5102 6.73685 11.6797 6.86187 11.8048C6.9869 11.9298 7.15646 12 7.33328 12C7.51009 12 7.67966 11.9298 7.80468 11.8048C7.9297 11.6797 7.99994 11.5102 7.99994 11.3334V10.6667H13.6666C14.1086 10.6667 14.5326 10.8423 14.8451 11.1549C15.1577 11.4674 15.3333 11.8913 15.3333 12.3334ZM3.66661 9.33336C3.22458 9.33336 2.80066 9.15777 2.4881 8.84521C2.17554 8.53265 1.99994 8.10872 1.99994 7.6667C1.99994 7.22467 2.17554 6.80075 2.4881 6.48818C2.80066 6.17562 3.22458 6.00003 3.66661 6.00003H3.99994V6.6667C3.99994 6.84351 4.07018 7.01308 4.1952 7.1381C4.32023 7.26312 4.4898 7.33336 4.66661 7.33336C4.84342 7.33336 5.01299 7.26312 5.13801 7.1381C5.26304 7.01308 5.33328 6.84351 5.33328 6.6667V6.00003H6.66661V6.6667C6.66661 6.84351 6.73685 7.01308 6.86187 7.1381C6.9869 7.26312 7.15646 7.33336 7.33328 7.33336C7.51009 7.33336 7.67966 7.26312 7.80468 7.1381C7.9297 7.01308 7.99994 6.84351 7.99994 6.6667V6.00003H13.6666C14.1086 6.00003 14.5326 6.17562 14.8451 6.48818C15.1577 6.80075 15.3333 7.22467 15.3333 7.6667C15.3333 8.10872 15.1577 8.53265 14.8451 8.84521C14.5326 9.15777 14.1086 9.33336 13.6666 9.33336H3.66661Z" fill="black"/>
</g>
<defs>
<clipPath id="clip0_482_18088">
<rect width="16" height="16" fill="white" transform="translate(0.666992)"/>
</clipPath>
</defs>
</svg>
