<svg width="17" height="16" viewBox="0 0 17 16" fill="none" xmlns="http://www.w3.org/2000/svg">
<g clip-path="url(#clip0_483_13761)">
<path d="M11.556 16H10.2226C10.0458 16 9.87626 15.9298 9.75123 15.8047C9.62621 15.6797 9.55597 15.5101 9.55597 15.3333C9.55597 15.1565 9.62621 14.987 9.75123 14.8619C9.87626 14.7369 10.0458 14.6667 10.2226 14.6667H11.556C11.7328 14.6667 11.9024 14.5964 12.0274 14.4714C12.1524 14.3464 12.2226 14.1768 12.2226 14C12.2226 13.8232 12.1524 13.6536 12.0274 13.5286C11.9024 13.4036 11.7328 13.3333 11.556 13.3333H8.88931C8.35887 13.3333 7.85016 13.1226 7.47509 12.7475C7.10002 12.3725 6.88931 11.8638 6.88931 11.3333C6.88931 10.8029 7.10002 10.2942 7.47509 9.91912C7.85016 9.54405 8.35887 9.33333 8.88931 9.33333H13.556C13.7328 9.33333 13.9024 9.2631 14.0274 9.13807C14.1524 9.01305 14.2226 8.84348 14.2226 8.66667C14.2226 8.48986 14.1524 8.32029 14.0274 8.19526C13.9024 8.07024 13.7328 8 13.556 8H4.8893C-0.398695 7.83133 -0.394695 0.166667 4.8893 0H14.2226C14.9299 0 15.6082 0.280952 16.1083 0.781049C16.6084 1.28115 16.8893 1.95942 16.8893 2.66667C16.8893 3.37391 16.6084 4.05219 16.1083 4.55229C15.6082 5.05238 14.9299 5.33333 14.2226 5.33333H4.8893C4.71249 5.33333 4.54292 5.2631 4.4179 5.13807C4.29288 5.01305 4.22264 4.84348 4.22264 4.66667C4.22264 4.48986 4.29288 4.32029 4.4179 4.19526C4.54292 4.07024 4.71249 4 4.8893 4H14.2226C14.5763 4 14.9154 3.85952 15.1654 3.60948C15.4155 3.35943 15.556 3.02029 15.556 2.66667C15.556 2.31304 15.4155 1.97391 15.1654 1.72386C14.9154 1.47381 14.5763 1.33333 14.2226 1.33333H4.8893C4.18206 1.33333 3.50378 1.61428 3.00369 2.11438C2.50359 2.61448 2.22264 3.29276 2.22264 4C2.22264 4.70724 2.50359 5.38552 3.00369 5.88562C3.50378 6.38572 4.18206 6.66667 4.8893 6.66667H13.556C14.0864 6.66667 14.5951 6.87738 14.9702 7.25245C15.3453 7.62753 15.556 8.13623 15.556 8.66667C15.556 9.1971 15.3453 9.70581 14.9702 10.0809C14.5951 10.456 14.0864 10.6667 13.556 10.6667H8.88931C8.71249 10.6667 8.54293 10.7369 8.4179 10.8619C8.29288 10.987 8.22264 11.1565 8.22264 11.3333C8.22264 11.5101 8.29288 11.6797 8.4179 11.8047C8.54293 11.9298 8.71249 12 8.88931 12H11.556C12.0864 12 12.5951 12.2107 12.9702 12.5858C13.3453 12.9609 13.556 13.4696 13.556 14C13.556 14.5304 13.3453 15.0391 12.9702 15.4142C12.5951 15.7893 12.0864 16 11.556 16Z" fill="black"/>
</g>
<defs>
<clipPath id="clip0_483_13761">
<rect width="16" height="16" fill="white" transform="translate(0.888672)"/>
</clipPath>
</defs>
</svg>
