<svg width="17" height="16" viewBox="0 0 17 16" fill="none" xmlns="http://www.w3.org/2000/svg">
<g clip-path="url(#clip0_483_13625)">
<path d="M15.0762 13.578C15.9268 12.7366 16.4472 11.6179 16.5428 10.4253C16.6435 9.21566 16.3264 8.00809 15.6445 7.00394C14.9626 5.9998 13.957 5.25978 12.7955 4.90729C12.6813 4.87166 12.5776 4.80834 12.4937 4.72297C12.4099 4.6376 12.3484 4.53282 12.3148 4.41796C12.0515 3.55469 11.5723 2.77286 10.9226 2.14638C10.2729 1.5199 9.47417 1.06947 8.6019 0.837688C7.72963 0.605905 6.81266 0.600425 5.93768 0.821765C5.0627 1.04311 4.25863 1.48395 3.60149 2.10262L1.69349 0.195289C1.56776 0.0738507 1.39936 0.00665445 1.22456 0.0081734C1.04976 0.00969234 0.882554 0.079805 0.758949 0.20341C0.635344 0.327016 0.565231 0.494224 0.563712 0.669022C0.562193 0.84382 0.629389 1.01222 0.750828 1.13796L15.4175 15.8046C15.5432 15.9261 15.7116 15.9933 15.8864 15.9917C16.0612 15.9902 16.2284 15.9201 16.352 15.7965C16.4756 15.6729 16.5458 15.5057 16.5473 15.3309C16.5488 15.1561 16.4816 14.9877 16.3602 14.862L15.0762 13.578ZM6.62216 2.04329C7.56796 1.89974 8.53387 2.10037 9.34426 2.60871C10.1547 3.11704 10.7557 3.89931 11.0382 4.81329C11.1368 5.13502 11.3124 5.42781 11.5499 5.66621C11.7874 5.90462 12.0795 6.08143 12.4008 6.18129C13.2718 6.44616 14.0257 7.00157 14.5368 7.75493C15.0479 8.5083 15.2853 9.41408 15.2095 10.3213C15.1407 11.1962 14.755 12.0159 14.1248 12.6266L4.54349 3.04529C5.12182 2.51274 5.84531 2.16399 6.62216 2.04329ZM11.8842 14.552C11.9028 14.7276 11.8511 14.9035 11.7402 15.041C11.6293 15.1784 11.4684 15.2663 11.2928 15.2853C11.0003 15.3167 10.7063 15.3323 10.4122 15.332H4.34549C3.45657 15.3165 2.5997 14.9973 1.91718 14.4276C1.23467 13.8579 0.76758 13.0718 0.593495 12.2C0.480193 11.4502 0.604497 10.6837 0.948962 10.0082C1.29343 9.33266 1.84076 8.78192 2.51416 8.43329C1.98096 7.45973 1.78012 6.33874 1.94216 5.24062C1.96674 5.06549 2.05988 4.9073 2.20109 4.80084C2.34231 4.69438 2.52003 4.64838 2.69516 4.67296C2.87029 4.69753 3.02849 4.79067 3.13495 4.93189C3.2414 5.0731 3.28741 5.25082 3.26283 5.42596C3.14441 6.24483 3.28423 7.08026 3.66283 7.81596C3.8297 8.12497 3.86791 8.48734 3.76918 8.82436C3.67044 9.16138 3.44273 9.44584 3.13549 9.61596C2.70668 9.83823 2.35827 10.1893 2.13921 10.6197C1.92015 11.0502 1.84145 11.5385 1.91416 12.016C2.03846 12.571 2.34553 13.0683 2.78616 13.4281C3.22678 13.7878 3.77543 13.9892 4.34416 14H10.4108C10.6574 14.0002 10.9037 13.987 11.1488 13.9606C11.3246 13.9426 11.5004 13.9946 11.6382 14.1053C11.7759 14.2159 11.8645 14.3764 11.8848 14.552H11.8842Z" fill="black"/>
</g>
<defs>
<clipPath id="clip0_483_13625">
<rect width="16" height="16" fill="white" transform="translate(0.555664)"/>
</clipPath>
</defs>
</svg>
