<svg width="17" height="16" viewBox="0 0 17 16" fill="none" xmlns="http://www.w3.org/2000/svg">
<g clip-path="url(#clip0_482_18048)">
<path d="M2.969 13.7708C2.29964 13.7705 1.65779 13.5044 1.18442 13.0312C0.711048 12.558 0.444866 11.9162 0.444336 11.2468V4.75348C0.444212 4.2873 0.573301 3.83021 0.817268 3.43296C1.06124 3.03571 1.41053 2.71386 1.82637 2.50315C2.24221 2.29243 2.70832 2.20109 3.17293 2.23928C3.63755 2.27747 4.08248 2.44369 4.45834 2.71948L6.97767 4.56881C7.0106 4.11962 7.16323 3.68745 7.41968 3.3172C7.67614 2.94695 8.02707 2.65213 8.436 2.46338C8.84494 2.27463 9.29696 2.19884 9.7451 2.24387C10.1932 2.28891 10.6211 2.45313 10.9843 2.71948L15.4117 5.96615C15.7308 6.2005 15.9903 6.50667 16.1692 6.85992C16.348 7.21316 16.4412 7.60354 16.4412 7.99948C16.4412 8.39542 16.348 8.7858 16.1692 9.13904C15.9903 9.49228 15.7308 9.79846 15.4117 10.0328L10.9843 13.2795C10.6212 13.5458 10.1934 13.71 9.74541 13.7551C9.29737 13.8002 8.84544 13.7245 8.43654 13.5359C8.02764 13.3473 7.67669 13.0527 7.42015 12.6826C7.16361 12.3126 7.01082 11.8806 6.97767 11.4315L4.45834 13.2808C4.02673 13.5986 3.50496 13.7702 2.969 13.7708ZM7.63967 9.45414C7.81648 9.45414 7.98605 9.52438 8.11107 9.64941C8.2361 9.77443 8.30634 9.944 8.30634 10.1208V11.2468C8.3065 11.4665 8.36749 11.6818 8.48253 11.8689C8.59757 12.056 8.76218 12.2076 8.95811 12.3068C9.15403 12.4061 9.37362 12.4492 9.59253 12.4313C9.81144 12.4134 10.0211 12.3352 10.1983 12.2055L14.625 8.95881C14.7756 8.84841 14.8981 8.70409 14.9825 8.53753C15.0669 8.37098 15.1109 8.18687 15.1109 8.00014C15.1109 7.81342 15.0669 7.62931 14.9825 7.46276C14.8981 7.2962 14.7756 7.15188 14.625 7.04148L10.1983 3.79481C10.0211 3.66505 9.81144 3.58689 9.59253 3.569C9.37362 3.55111 9.15403 3.59419 8.95811 3.69346C8.76218 3.79274 8.59757 3.94433 8.48253 4.13143C8.36749 4.31853 8.3065 4.53384 8.30634 4.75348V5.87948C8.30625 6.00261 8.27207 6.12332 8.20757 6.22821C8.14308 6.33311 8.05079 6.41809 7.94095 6.47374C7.8311 6.52938 7.70799 6.55352 7.58527 6.54347C7.46254 6.53343 7.345 6.48958 7.24567 6.41681L3.66967 3.79481C3.49246 3.66505 3.28278 3.58689 3.06387 3.569C2.84496 3.55111 2.62537 3.59419 2.42944 3.69346C2.23352 3.79274 2.06891 3.94433 1.95386 4.13143C1.83882 4.31853 1.77784 4.53384 1.77767 4.75348V11.2468C1.77784 11.4665 1.83882 11.6818 1.95386 11.8689C2.06891 12.056 2.23352 12.2076 2.42944 12.3068C2.62537 12.4061 2.84496 12.4492 3.06387 12.4313C3.28278 12.4134 3.49246 12.3352 3.66967 12.2055L7.24434 9.58348C7.35895 9.49931 7.49747 9.45399 7.63967 9.45414Z" fill="black"/>
</g>
<defs>
<clipPath id="clip0_482_18048">
<rect width="16" height="16" fill="white" transform="translate(0.444336)"/>
</clipPath>
</defs>
</svg>
