<svg width="17" height="16" viewBox="0 0 17 16" fill="none" xmlns="http://www.w3.org/2000/svg">
<g clip-path="url(#clip0_483_13674)">
<path d="M14.304 8.66614C14.8127 8.66561 15.3004 8.4633 15.6601 8.10359C16.0198 7.74389 16.2221 7.25618 16.2227 6.74748C16.2219 6.20976 16.0944 5.67978 15.8505 5.20058C15.6065 4.72138 15.253 4.30645 14.8187 3.98948L10.2287 0.652143C9.64636 0.226639 8.94385 -0.00268555 8.22266 -0.00268555C7.50146 -0.00268555 6.79895 0.226639 6.21666 0.652143L1.62666 3.98948C1.19229 4.30645 0.838788 4.72138 0.594843 5.20058C0.350898 5.67978 0.223385 6.20976 0.222656 6.74748C0.223186 7.25618 0.4255 7.74389 0.785205 8.10359C1.14491 8.4633 1.63262 8.66561 2.14132 8.66614H7.55599V15.3328C7.55599 15.5096 7.62623 15.6792 7.75125 15.8042C7.87628 15.9292 8.04585 15.9995 8.22266 15.9995C8.39947 15.9995 8.56904 15.9292 8.69406 15.8042C8.81909 15.6792 8.88932 15.5096 8.88932 15.3328V8.66614H14.304ZM10.556 5.38281C10.774 5.71043 10.89 6.0953 10.8893 6.48881V7.33281H8.88932V2.87481L10.556 5.38281ZM14.0347 5.06614C14.2994 5.25938 14.5147 5.51236 14.6632 5.80452C14.8117 6.09667 14.8892 6.41975 14.8893 6.74748C14.8891 6.90266 14.8274 7.05144 14.7177 7.16117C14.608 7.27091 14.4592 7.33263 14.304 7.33281H12.2227V6.48881C12.2233 5.83266 12.0296 5.19101 11.666 4.64481L9.99932 2.13148L14.0347 5.06614ZM1.55599 6.74748C1.55611 6.41975 1.63358 6.09667 1.78209 5.80452C1.9306 5.51236 2.14596 5.25938 2.41066 5.06614L6.44866 2.13281L4.78199 4.64614C4.4177 5.19167 4.22308 5.83284 4.22266 6.48881V7.33281H2.14132C1.98614 7.33263 1.83736 7.27091 1.72762 7.16117C1.61789 7.05144 1.55617 6.90266 1.55599 6.74748ZM5.55599 7.33281V6.48881C5.55534 6.0953 5.67134 5.71043 5.88932 5.38281L7.55599 2.87481V7.33281H5.55599Z" fill="black"/>
<path d="M2.88932 12.6667H1.55599V10.6667C1.55599 10.4899 1.48575 10.3203 1.36073 10.1953C1.2357 10.0702 1.06613 10 0.889323 10C0.712512 10 0.542943 10.0702 0.417918 10.1953C0.292894 10.3203 0.222656 10.4899 0.222656 10.6667L0.222656 15.3333C0.222656 15.5101 0.292894 15.6797 0.417918 15.8047C0.542943 15.9298 0.712512 16 0.889323 16C1.06613 16 1.2357 15.9298 1.36073 15.8047C1.48575 15.6797 1.55599 15.5101 1.55599 15.3333V14H2.88932C3.06613 14 3.2357 14.0702 3.36073 14.1953C3.48575 14.3203 3.55599 14.4899 3.55599 14.6667V15.3333C3.55599 15.5101 3.62623 15.6797 3.75125 15.8047C3.87628 15.9298 4.04585 16 4.22266 16C4.39947 16 4.56904 15.9298 4.69406 15.8047C4.81909 15.6797 4.88932 15.5101 4.88932 15.3333V14.6667C4.88932 14.1362 4.67861 13.6275 4.30354 13.2525C3.92846 12.8774 3.41976 12.6667 2.88932 12.6667Z" fill="black"/>
<path d="M15.5557 10C15.3789 10 15.2093 10.0702 15.0843 10.1953C14.9592 10.3203 14.889 10.4899 14.889 10.6667V12.6667H13.5557C13.0252 12.6667 12.5165 12.8774 12.1415 13.2525C11.7664 13.6275 11.5557 14.1362 11.5557 14.6667V15.3333C11.5557 15.5101 11.6259 15.6797 11.7509 15.8047C11.8759 15.9298 12.0455 16 12.2223 16C12.3991 16 12.5687 15.9298 12.6937 15.8047C12.8188 15.6797 12.889 15.5101 12.889 15.3333V14.6667C12.889 14.4899 12.9592 14.3203 13.0843 14.1953C13.2093 14.0702 13.3789 14 13.5557 14H14.889V15.3333C14.889 15.5101 14.9592 15.6797 15.0843 15.8047C15.2093 15.9298 15.3789 16 15.5557 16C15.7325 16 15.902 15.9298 16.0271 15.8047C16.1521 15.6797 16.2223 15.5101 16.2223 15.3333V10.6667C16.2223 10.4899 16.1521 10.3203 16.0271 10.1953C15.902 10.0702 15.7325 10 15.5557 10Z" fill="black"/>
</g>
<defs>
<clipPath id="clip0_483_13674">
<rect width="16" height="16" fill="white" transform="translate(0.222656)"/>
</clipPath>
</defs>
</svg>
