<svg width="17" height="16" viewBox="0 0 17 16" fill="none" xmlns="http://www.w3.org/2000/svg">
<path d="M12 5.30933V4.66667C11.9983 4.25449 11.8693 3.85291 11.6306 3.51687C11.3919 3.18082 11.0553 2.92672 10.6667 2.78933V1.33333H13.3333C13.5101 1.33333 13.6797 1.2631 13.8047 1.13807C13.9298 1.01305 14 0.843478 14 0.666667C14 0.489856 13.9298 0.320286 13.8047 0.195262C13.6797 0.0702379 13.5101 0 13.3333 0L8.66667 0C8.13624 0 7.62753 0.210714 7.25246 0.585786C6.87738 0.960859 6.66667 1.46957 6.66667 2V2.78933C6.27806 2.92672 5.9414 3.18082 5.70273 3.51687C5.46406 3.85291 5.33505 4.25449 5.33334 4.66667V5.30933C4.33221 5.80111 3.48912 6.56386 2.89987 7.5109C2.31063 8.45794 1.99886 9.55128 2 10.6667V12C2.00106 13.0605 2.42283 14.0773 3.17275 14.8273C3.92266 15.5772 4.93946 15.9989 6 16H11.3333C12.3939 15.9989 13.4107 15.5772 14.1606 14.8273C14.9105 14.0773 15.3323 13.0605 15.3333 12V10.6667C15.3345 9.55128 15.0227 8.45794 14.4335 7.5109C13.8442 6.56386 13.0011 5.80111 12 5.30933ZM8 2C8 1.82319 8.07024 1.65362 8.19527 1.5286C8.32029 1.40357 8.48986 1.33333 8.66667 1.33333H9.33334V2.66667H8V2ZM6.66667 4.66667C6.66667 4.48986 6.73691 4.32029 6.86193 4.19526C6.98696 4.07024 7.15653 4 7.33334 4H10C10.1768 4 10.3464 4.07024 10.4714 4.19526C10.5964 4.32029 10.6667 4.48986 10.6667 4.66667V5.33333H6.66667V4.66667ZM14 12C14 12.7072 13.7191 13.3855 13.219 13.8856C12.7189 14.3857 12.0406 14.6667 11.3333 14.6667H6C5.29276 14.6667 4.61448 14.3857 4.11439 13.8856C3.61429 13.3855 3.33334 12.7072 3.33334 12V10.6667C3.33121 9.86096 3.53868 9.06855 3.93538 8.36726C4.33207 7.66598 4.90435 7.07993 5.596 6.66667H11.7373C12.429 7.07993 13.0013 7.66598 13.398 8.36726C13.7947 9.06855 14.0021 9.86096 14 10.6667V12ZM10.6667 9.33333H6.66667C6.13624 9.33333 5.62753 9.54405 5.25246 9.91912C4.87738 10.2942 4.66667 10.8029 4.66667 11.3333C4.66667 11.8638 4.87738 12.3725 5.25246 12.7475C5.62753 13.1226 6.13624 13.3333 6.66667 13.3333H10.6667C11.1971 13.3333 11.7058 13.1226 12.0809 12.7475C12.456 12.3725 12.6667 11.8638 12.6667 11.3333C12.6667 10.8029 12.456 10.2942 12.0809 9.91912C11.7058 9.54405 11.1971 9.33333 10.6667 9.33333ZM10.6667 12H6.66667C6.48986 12 6.32029 11.9298 6.19527 11.8047C6.07024 11.6797 6 11.5101 6 11.3333C6 11.1565 6.07024 10.987 6.19527 10.8619C6.32029 10.7369 6.48986 10.6667 6.66667 10.6667H10.6667C10.8435 10.6667 11.0131 10.7369 11.1381 10.8619C11.2631 10.987 11.3333 11.1565 11.3333 11.3333C11.3333 11.5101 11.2631 11.6797 11.1381 11.8047C11.0131 11.9298 10.8435 12 10.6667 12Z" fill="black"/>
</svg>
