<svg width="17" height="16" viewBox="0 0 17 16" fill="none" xmlns="http://www.w3.org/2000/svg">
<g clip-path="url(#clip0_483_13728)">
<path d="M8.44434 16C6.86209 16 5.31537 15.5308 3.99978 14.6518C2.68418 13.7727 1.6588 12.5233 1.0533 11.0615C0.447802 9.59966 0.289376 7.99113 0.598057 6.43928C0.906739 4.88743 1.66867 3.46197 2.78749 2.34315C3.90631 1.22433 5.33177 0.462403 6.88362 0.153721C8.43547 -0.15496 10.044 0.00346629 11.5058 0.608967C12.9676 1.21447 14.217 2.23985 15.0961 3.55544C15.9751 4.87104 16.4443 6.41775 16.4443 8C16.442 10.121 15.5985 12.1545 14.0987 13.6543C12.5989 15.1541 10.5654 15.9977 8.44434 16ZM8.44434 1.33334C7.1258 1.33334 5.83687 1.72433 4.74054 2.45687C3.64421 3.18942 2.78973 4.23061 2.28514 5.44878C1.78056 6.66695 1.64854 8.0074 1.90577 9.30061C2.16301 10.5938 2.79794 11.7817 3.73029 12.714C4.66264 13.6464 5.85053 14.2813 7.14374 14.5386C8.43694 14.7958 9.77739 14.6638 10.9956 14.1592C12.2137 13.6546 13.2549 12.8001 13.9875 11.7038C14.72 10.6075 15.111 9.31855 15.111 8C15.1091 6.23249 14.4061 4.53792 13.1562 3.2881C11.9064 2.03828 10.2119 1.33528 8.44434 1.33334ZM12.2217 10.4973C12.3538 10.3798 12.4337 10.2145 12.444 10.038C12.4542 9.86146 12.3939 9.68808 12.2763 9.556C12.1588 9.42393 11.9935 9.34397 11.817 9.33371C11.6405 9.32346 11.4671 9.38376 11.335 9.50134C10.52 10.1875 9.50736 10.5958 8.44434 10.6667C7.38195 10.5958 6.36982 10.1881 5.55501 9.50267C5.42311 9.38491 5.24983 9.32438 5.07329 9.33438C4.89676 9.34438 4.73143 9.4241 4.61367 9.556C4.49592 9.68791 4.43538 9.86118 4.44538 10.0377C4.45539 10.2143 4.53511 10.3796 4.66701 10.4973C5.72558 11.4017 7.05382 11.9301 8.44434 12C9.83486 11.9301 11.1631 11.4017 12.2217 10.4973ZM4.44434 6.66667C4.44434 7.33334 5.04101 7.33334 5.77767 7.33334C6.51434 7.33334 7.11101 7.33334 7.11101 6.66667C7.11101 6.31305 6.97053 5.97391 6.72048 5.72386C6.47043 5.47381 6.1313 5.33334 5.77767 5.33334C5.42405 5.33334 5.08491 5.47381 4.83486 5.72386C4.58482 5.97391 4.44434 6.31305 4.44434 6.66667ZM9.77767 6.66667C9.77767 7.33334 10.3743 7.33334 11.111 7.33334C11.8477 7.33334 12.4443 7.33334 12.4443 6.66667C12.4443 6.31305 12.3039 5.97391 12.0538 5.72386C11.8038 5.47381 11.4646 5.33334 11.111 5.33334C10.7574 5.33334 10.4182 5.47381 10.1682 5.72386C9.91815 5.97391 9.77767 6.31305 9.77767 6.66667Z" fill="black"/>
</g>
<defs>
<clipPath id="clip0_483_13728">
<rect width="16" height="16" fill="white" transform="translate(0.444336)"/>
</clipPath>
</defs>
</svg>
