<svg width="17" height="16" viewBox="0 0 17 16" fill="none" xmlns="http://www.w3.org/2000/svg">
<g clip-path="url(#clip0_483_13629)">
<path d="M8.11133 0C6.52908 0 4.98236 0.469192 3.66677 1.34824C2.35118 2.22729 1.3258 3.47672 0.720295 4.93853C0.114794 6.40034 -0.0436323 8.00887 0.265049 9.56072C0.573731 11.1126 1.33566 12.538 2.45448 13.6569C3.5733 14.7757 4.99876 15.5376 6.55061 15.8463C8.10246 16.155 9.71099 15.9965 11.1728 15.391C12.6346 14.7855 13.884 13.7602 14.7631 12.4446C15.6421 11.129 16.1113 9.58225 16.1113 8C16.1113 5.87827 15.2685 3.84344 13.7682 2.34315C12.2679 0.842855 10.2331 0 8.11133 0V0ZM8.11133 14.6667C6.79279 14.6667 5.50386 14.2757 4.40753 13.5431C3.3112 12.8106 2.45672 11.7694 1.95213 10.5512C1.44755 9.33305 1.31553 7.99261 1.57276 6.6994C1.83 5.40619 2.46494 4.21831 3.39729 3.28596C4.32964 2.35361 5.51752 1.71867 6.81073 1.46143C8.10394 1.2042 9.44438 1.33622 10.6626 1.8408C11.8807 2.34539 12.9219 3.19987 13.6545 4.2962C14.387 5.39253 14.778 6.68146 14.778 8C14.778 9.76811 14.0756 11.4638 12.8254 12.714C11.5751 13.9643 9.87944 14.6667 8.11133 14.6667Z" fill="black"/>
</g>
<defs>
<clipPath id="clip0_483_13629">
<rect width="16" height="16" fill="white" transform="translate(0.111328)"/>
</clipPath>
</defs>
</svg>
