<svg width="17" height="16" viewBox="0 0 17 16" fill="none" xmlns="http://www.w3.org/2000/svg">
<g clip-path="url(#clip0_482_18066)">
<path d="M15.9957 0.782722C15.6722 0.45629 15.2693 0.219758 14.8266 0.0964279C14.3839 -0.0269018 13.9167 -0.0327742 13.4711 0.0793891C10.0161 0.986422 6.85195 2.76546 4.28172 5.24606C3.77612 5.75471 3.38185 6.36298 3.12396 7.0322C2.86607 7.70143 2.75021 8.41698 2.78372 9.13339C2.83147 10.1733 3.1965 11.1737 3.82972 12.0001L0.973057 14.8621C0.909383 14.9236 0.858595 14.9971 0.823656 15.0785C0.788716 15.1598 0.770326 15.2473 0.769556 15.3358C0.768787 15.4243 0.785655 15.5121 0.819176 15.594C0.852696 15.676 0.902198 15.7504 0.964793 15.813C1.02739 15.8756 1.10182 15.9251 1.18375 15.9586C1.26568 15.9921 1.35347 16.009 1.44199 16.0082C1.53051 16.0075 1.61799 15.9891 1.69933 15.9541C1.78066 15.9192 1.85423 15.8684 1.91572 15.8047L4.77172 12.9487C5.64712 13.6322 6.72644 14.0024 7.83706 14.0001C8.57198 13.9894 9.29761 13.8341 9.9725 13.543C10.6474 13.2519 11.2583 12.8306 11.7704 12.3034C14.7037 9.37006 16.3591 4.67272 16.6997 3.28672C16.8105 2.84418 16.8038 2.38038 16.6803 1.94122C16.5568 1.50205 16.3209 1.10272 15.9957 0.782722ZM4.11572 9.07206C4.09063 8.54055 4.17635 8.00963 4.36744 7.51302C4.55853 7.01642 4.85081 6.56498 5.22572 6.18739C5.51106 5.90406 5.80772 5.63806 6.11106 5.37806V9.72406L4.78439 11.0507C4.38013 10.467 4.14839 9.78131 4.11572 9.07206ZM10.8077 11.3781C10.1728 12.0681 9.31248 12.509 8.38151 12.6214C7.45055 12.7339 6.51002 12.5105 5.72906 11.9914L7.24839 10.4721L9.05372 8.66672H12.8951C12.2912 9.63769 11.592 10.546 10.8077 11.3781ZM15.4077 2.96472C15.0059 4.48474 14.424 5.95134 13.6744 7.33339H10.3871L12.5824 5.13806C12.6461 5.07656 12.6969 5.003 12.7318 4.92166C12.7667 4.84032 12.7851 4.75284 12.7859 4.66432C12.7867 4.5758 12.7698 4.48802 12.7363 4.40609C12.7028 4.32416 12.6532 4.24972 12.5907 4.18713C12.5281 4.12453 12.4536 4.07503 12.3717 4.04151C12.2898 4.00799 12.202 3.99112 12.1135 3.99189C12.0249 3.99266 11.9375 4.01105 11.8561 4.04599C11.7748 4.08093 11.7012 4.13172 11.6397 4.19539L8.30639 7.52872L7.44439 8.39072V4.34139C9.37173 2.99065 11.5199 1.98649 13.7924 1.37406C13.8979 1.3475 14.0063 1.33384 14.1151 1.33339C14.2898 1.33376 14.4627 1.36864 14.6239 1.43603C14.7851 1.50341 14.9314 1.60198 15.0544 1.72606C15.2168 1.88334 15.3347 2.08073 15.3963 2.29824C15.4578 2.51575 15.4609 2.74567 15.4051 2.96472H15.4077Z" fill="black"/>
</g>
<defs>
<clipPath id="clip0_482_18066">
<rect width="16" height="16" fill="white" transform="translate(0.777344)"/>
</clipPath>
</defs>
</svg>
