<svg width="17" height="16" viewBox="0 0 17 16" fill="none" xmlns="http://www.w3.org/2000/svg">
<g clip-path="url(#clip0_483_13813)">
<path d="M15.2224 0H12.5557C12.3789 0 12.2093 0.0702379 12.0843 0.195262C11.9593 0.320286 11.889 0.489856 11.889 0.666667C11.889 0.843478 11.9593 1.01305 12.0843 1.13807C12.2093 1.2631 12.3789 1.33333 12.5557 1.33333H14.2797L12.6797 2.93333C11.95 2.38232 11.0735 2.05983 10.1607 2.00655C9.24793 1.95328 8.33982 2.17161 7.55102 2.634C6.9565 2.29047 6.29341 2.08258 5.60918 2.02521C4.92494 1.96784 4.23649 2.06241 3.59307 2.30215C2.94965 2.54189 2.36716 2.92087 1.8873 3.41198C1.40743 3.9031 1.04204 4.4942 0.817267 5.143C0.592496 5.7918 0.513899 6.48226 0.587102 7.16498C0.660304 7.8477 0.883496 8.50581 1.24071 9.09221C1.59792 9.67861 2.08032 10.1788 2.6534 10.557C3.22648 10.9352 3.87607 11.1821 4.55569 11.28V12.6667H3.22235C3.04554 12.6667 2.87597 12.7369 2.75095 12.8619C2.62592 12.987 2.55569 13.1565 2.55569 13.3333C2.55569 13.5101 2.62592 13.6797 2.75095 13.8047C2.87597 13.9298 3.04554 14 3.22235 14H4.55569V15.3333C4.55569 15.5101 4.62592 15.6797 4.75095 15.8047C4.87597 15.9298 5.04554 16 5.22235 16C5.39916 16 5.56873 15.9298 5.69376 15.8047C5.81878 15.6797 5.88902 15.5101 5.88902 15.3333V14H7.22235C7.39916 14 7.56873 13.9298 7.69376 13.8047C7.81878 13.6797 7.88902 13.5101 7.88902 13.3333C7.88902 13.1565 7.81878 12.987 7.69376 12.8619C7.56873 12.7369 7.39916 12.6667 7.22235 12.6667H5.88902V11.2847C6.47506 11.1973 7.03885 10.9982 7.54969 10.698C8.47849 11.2413 9.56675 11.4461 10.6295 11.2778C11.6923 11.1095 12.664 10.5784 13.3795 9.7748C14.095 8.97116 14.5102 7.94455 14.5545 6.86945C14.5987 5.79435 14.2694 4.73708 13.6224 3.87733L15.2224 2.27733V4C15.2224 4.17681 15.2926 4.34638 15.4176 4.4714C15.5426 4.59643 15.7122 4.66667 15.889 4.66667C16.0658 4.66667 16.2354 4.59643 16.3604 4.4714C16.4854 4.34638 16.5557 4.17681 16.5557 4V1.33333C16.5557 0.979711 16.4152 0.640573 16.1652 0.390524C15.9151 0.140476 15.576 0 15.2224 0V0ZM1.88902 6.66667C1.88586 6.12523 2.01541 5.59127 2.26634 5.11148C2.51726 4.6317 2.88193 4.2207 3.32843 3.91443C3.77493 3.60817 4.28967 3.41597 4.82763 3.35465C5.36559 3.29333 5.91038 3.36475 6.41435 3.56267C5.64698 4.41441 5.22231 5.52022 5.22231 6.66667C5.22231 7.81311 5.64698 8.91892 6.41435 9.77067C5.91038 9.96859 5.36559 10.04 4.82763 9.97868C4.28967 9.91736 3.77493 9.72516 3.32843 9.4189C2.88193 9.11264 2.51726 8.70164 2.26634 8.22185C2.01541 7.74206 1.88586 7.2081 1.88902 6.66667ZM9.88902 10C9.22975 10 8.58528 9.8045 8.03712 9.43823C7.48896 9.07196 7.06171 8.55136 6.80942 7.94228C6.55713 7.33319 6.49112 6.66297 6.61974 6.01637C6.74835 5.36976 7.06582 4.77582 7.532 4.30964C7.99817 3.84347 8.59212 3.526 9.23872 3.39738C9.88532 3.26877 10.5555 3.33478 11.1646 3.58707C11.7737 3.83936 12.2943 4.2666 12.6606 4.81477C13.0269 5.36293 13.2224 6.0074 13.2224 6.66667C13.2213 7.5504 12.8698 8.39763 12.2449 9.02252C11.62 9.64741 10.7728 9.99894 9.88902 10Z" fill="black"/>
</g>
<defs>
<clipPath id="clip0_483_13813">
<rect width="16" height="16" fill="white" transform="translate(0.555664)"/>
</clipPath>
</defs>
</svg>
