<svg width="17" height="16" viewBox="0 0 17 16" fill="none" xmlns="http://www.w3.org/2000/svg">
<g clip-path="url(#clip0_483_13608)">
<path d="M12.8893 0.666565H3.55599C2.67226 0.667624 1.82503 1.01915 1.20014 1.64404C0.575244 2.26894 0.223715 3.11617 0.222656 3.9999L0.222656 9.33323C0.223715 10.217 0.575244 11.0642 1.20014 11.6891C1.82503 12.314 2.67226 12.6655 3.55599 12.6666H7.55599V13.9999H4.88932C4.71251 13.9999 4.54294 14.0701 4.41792 14.1952C4.29289 14.3202 4.22266 14.4898 4.22266 14.6666C4.22266 14.8434 4.29289 15.0129 4.41792 15.138C4.54294 15.263 4.71251 15.3332 4.88932 15.3332H11.556C11.7328 15.3332 11.9024 15.263 12.0274 15.138C12.1524 15.0129 12.2227 14.8434 12.2227 14.6666C12.2227 14.4898 12.1524 14.3202 12.0274 14.1952C11.9024 14.0701 11.7328 13.9999 11.556 13.9999H8.88932V12.6666H12.8893C13.7731 12.6655 14.6203 12.314 15.2452 11.6891C15.8701 11.0642 16.2216 10.217 16.2227 9.33323V3.9999C16.2216 3.11617 15.8701 2.26894 15.2452 1.64404C14.6203 1.01915 13.7731 0.667624 12.8893 0.666565ZM3.55599 1.9999H12.8893C13.4198 1.9999 13.9285 2.21061 14.3035 2.58568C14.6786 2.96076 14.8893 3.46947 14.8893 3.9999V8.66656H1.55599V3.9999C1.55599 3.46947 1.7667 2.96076 2.14178 2.58568C2.51685 2.21061 3.02556 1.9999 3.55599 1.9999ZM12.8893 11.3332H3.55599C3.14382 11.3315 2.74224 11.2025 2.40619 10.9638C2.07014 10.7252 1.81605 10.3885 1.67866 9.9999H14.7667C14.6293 10.3885 14.3752 10.7252 14.0391 10.9638C13.7031 11.2025 13.3015 11.3315 12.8893 11.3332Z" fill="black"/>
</g>
<defs>
<clipPath id="clip0_483_13608">
<rect width="16" height="16" fill="white" transform="translate(0.222656)"/>
</clipPath>
</defs>
</svg>
