<svg width="17" height="16" viewBox="0 0 17 16" fill="none" xmlns="http://www.w3.org/2000/svg">
<g clip-path="url(#clip0_483_13725)">
<path d="M0.444336 15.3328V10.6662C0.446101 9.07543 1.07881 7.55034 2.20364 6.4255C3.32848 5.30067 4.85358 4.66796 6.44434 4.6662H9.66434V3.60887C9.66439 3.3452 9.74262 3.08747 9.88913 2.86825C10.0356 2.64904 10.2439 2.47819 10.4875 2.3773C10.7311 2.2764 10.9991 2.25 11.2577 2.30142C11.5163 2.35285 11.7539 2.47979 11.9403 2.6662L15.8603 6.58553C16.2353 6.96058 16.4459 7.4692 16.4459 7.99953C16.4459 8.52985 16.2353 9.03847 15.8603 9.41352L11.9403 13.3329C11.7539 13.5193 11.5163 13.6462 11.2577 13.6976C10.9991 13.7491 10.7311 13.7226 10.4875 13.6218C10.2439 13.5209 10.0356 13.35 9.88913 13.1308C9.74262 12.9116 9.66439 12.6539 9.66434 12.3902V11.3329H5.77767C4.71713 11.3339 3.70033 11.7557 2.95041 12.5056C2.2005 13.2555 1.77873 14.2723 1.77767 15.3328C1.77767 15.5097 1.70743 15.6792 1.58241 15.8043C1.45738 15.9293 1.28781 15.9995 1.111 15.9995C0.934192 15.9995 0.764622 15.9293 0.639598 15.8043C0.514574 15.6792 0.444336 15.5097 0.444336 15.3328ZM10.9977 5.33286C10.9977 5.50967 10.9274 5.67924 10.8024 5.80427C10.6774 5.92929 10.5078 5.99953 10.331 5.99953H6.44434C5.20709 6.00094 4.02093 6.49306 3.14606 7.36792C2.2712 8.24278 1.77908 9.42895 1.77767 10.6662V11.8089C2.27738 11.2401 2.89266 10.7846 3.58244 10.4726C4.27221 10.1606 5.02061 9.9993 5.77767 9.99952H10.331C10.5078 9.99952 10.6774 10.0698 10.8024 10.1948C10.9274 10.3198 10.9977 10.4894 10.9977 10.6662V12.3902L14.917 8.47086C15.042 8.34584 15.1122 8.1763 15.1122 7.99953C15.1122 7.82275 15.042 7.65321 14.917 7.52819L10.9977 3.60887V5.33286Z" fill="black"/>
</g>
<defs>
<clipPath id="clip0_483_13725">
<rect width="16" height="16" fill="white" transform="translate(0.444336)"/>
</clipPath>
</defs>
</svg>
