<svg width="17" height="16" viewBox="0 0 17 16" fill="none" xmlns="http://www.w3.org/2000/svg">
<g clip-path="url(#clip0_483_13766)">
<path d="M10.0178 16H7.53645C5.97588 16.0069 4.47512 15.4002 3.35778 14.3107C2.19333 13.137 1.34339 11.6889 0.886449 10.1C0.768458 9.7016 0.744932 9.28119 0.817738 8.87211C0.890544 8.46304 1.05768 8.07655 1.30588 7.74333C1.55409 7.4101 1.87653 7.13931 2.24763 6.95242C2.61873 6.76553 3.02828 6.66769 3.44378 6.66667H14.1105C14.526 6.66762 14.9356 6.7654 15.3068 6.95224C15.678 7.13908 16.0006 7.40985 16.2489 7.74306C16.4973 8.07628 16.6645 8.46277 16.7375 8.87189C16.8104 9.28101 16.787 9.7015 16.6691 10.1C16.2125 11.6892 15.3622 13.1374 14.1971 14.3107C13.0798 15.4006 11.5786 16.0073 10.0178 16ZM3.44378 8C3.23662 7.99901 3.03212 8.04676 2.84682 8.13941C2.66152 8.23206 2.50062 8.367 2.37712 8.53333C2.25038 8.70166 2.16492 8.8974 2.12764 9.10478C2.09035 9.31216 2.10228 9.5254 2.16245 9.72733C2.56114 11.0986 3.2942 12.3494 4.29578 13.3673C5.16355 14.2091 6.32754 14.6758 7.53645 14.6667H10.0178C11.2258 14.675 12.3887 14.2078 13.2551 13.366C14.257 12.3483 14.9901 11.0974 15.3885 9.726C15.4486 9.52407 15.4605 9.31083 15.4233 9.10345C15.386 8.89606 15.3005 8.70033 15.1738 8.532C15.0506 8.36625 14.8902 8.23176 14.7055 8.13935C14.5208 8.04695 14.317 7.99922 14.1105 8H3.44378ZM11.4438 4C11.445 3.6134 11.3694 3.23041 11.2214 2.87324C11.0734 2.51607 10.856 2.19184 10.5818 1.91933C10.4316 1.76988 10.3126 1.59209 10.2317 1.39628C10.1508 1.20047 10.1096 0.990534 10.1104 0.778667V0.666667C10.1104 0.489856 10.0402 0.320286 9.91519 0.195262C9.79016 0.0702379 9.62059 0 9.44378 0C9.26697 0 9.0974 0.0702379 8.97238 0.195262C8.84735 0.320286 8.77712 0.489856 8.77712 0.666667V0.778667C8.776 1.16536 8.85161 1.54843 8.99958 1.9057C9.14754 2.26297 9.36492 2.58733 9.63912 2.86C9.78921 3.00938 9.90816 3.18706 9.98907 3.38275C10.07 3.57844 10.1112 3.78824 10.1104 4C10.1104 4.17681 10.1807 4.34638 10.3057 4.4714C10.4307 4.59643 10.6003 4.66667 10.7771 4.66667C10.9539 4.66667 11.1235 4.59643 11.2485 4.4714C11.3735 4.34638 11.4438 4.17681 11.4438 4ZM8.77712 4.66667V4.46133C8.77816 4.07481 8.70258 3.69191 8.55473 3.33478C8.40689 2.97764 8.18972 2.65336 7.91578 2.38067C7.76581 2.23158 7.64688 2.05425 7.56586 1.85892C7.48484 1.66359 7.44335 1.45413 7.44378 1.24267V0.666667C7.44378 0.489856 7.37355 0.320286 7.24852 0.195262C7.1235 0.0702379 6.95393 0 6.77712 0C6.60031 0 6.43074 0.0702379 6.30571 0.195262C6.18069 0.320286 6.11045 0.489856 6.11045 0.666667V1.24267C6.10946 1.62924 6.18513 2.01218 6.33309 2.36932C6.48105 2.72646 6.69836 3.05072 6.97245 3.32333C7.1223 3.47247 7.24111 3.64983 7.32201 3.84516C7.40291 4.04049 7.4443 4.24991 7.44378 4.46133V4.66667C7.44378 4.84348 7.51402 5.01305 7.63905 5.13807C7.76407 5.2631 7.93364 5.33333 8.11045 5.33333C8.28726 5.33333 8.45683 5.2631 8.58185 5.13807C8.70688 5.01305 8.77712 4.84348 8.77712 4.66667Z" fill="black"/>
</g>
<defs>
<clipPath id="clip0_483_13766">
<rect width="16" height="16" fill="white" transform="translate(0.777344)"/>
</clipPath>
</defs>
</svg>
