<svg width="17" height="16" viewBox="0 0 17 16" fill="none" xmlns="http://www.w3.org/2000/svg">
<g clip-path="url(#clip0_483_13732)">
<path d="M9.22266 15.9995C8.16212 15.9984 7.14531 15.5767 6.3954 14.8267C5.64548 14.0768 5.22372 13.06 5.22266 11.9995C5.22266 10.9595 6.02266 9.30281 7.59066 7.07415C7.77683 6.81482 8.02207 6.60356 8.30609 6.45783C8.59012 6.31209 8.90476 6.23608 9.22399 6.23608C9.54322 6.23608 9.85786 6.31209 10.1419 6.45783C10.4259 6.60356 10.6712 6.81482 10.8573 7.07415C12.426 9.30281 13.2227 10.9595 13.2227 11.9995C13.2216 13.06 12.7998 14.0768 12.0499 14.8267C11.3 15.5767 10.2832 15.9984 9.22266 15.9995ZM9.22266 7.56148C9.11623 7.56068 9.01122 7.58589 8.91676 7.63492C8.8223 7.68395 8.74125 7.75532 8.68066 7.84281C6.76332 10.5621 6.55599 11.6555 6.55599 11.9995C6.55599 12.7067 6.83694 13.385 7.33704 13.8851C7.83714 14.3852 8.51541 14.6661 9.22266 14.6661C9.9299 14.6661 10.6082 14.3852 11.1083 13.8851C11.6084 13.385 11.8893 12.7067 11.8893 11.9995C11.8893 11.6555 11.682 10.5621 9.76466 7.84281C9.70406 7.75532 9.62301 7.68395 9.52855 7.63492C9.43409 7.58589 9.32908 7.56068 9.22266 7.56148Z" fill="black"/>
<path d="M3.889 7.33394C3.00527 7.33289 2.15804 6.98136 1.53314 6.35646C0.908252 5.73157 0.556723 4.88434 0.555664 4.00061C0.555664 3.16061 1.117 2.09728 2.27166 0.749278C2.47194 0.516445 2.72012 0.329598 2.99925 0.20151C3.27838 0.0734211 3.58188 0.0071106 3.889 0.0071106C4.19611 0.0071106 4.49961 0.0734211 4.77874 0.20151C5.05787 0.329598 5.30606 0.516445 5.50633 0.749278C6.661 2.09594 7.22233 3.15928 7.22233 4.00061C7.22127 4.88434 6.86974 5.73157 6.24485 6.35646C5.61996 6.98136 4.77273 7.33289 3.889 7.33394ZM3.889 1.33394C3.77387 1.33338 3.66003 1.35824 3.55562 1.40676C3.45121 1.45528 3.35881 1.52625 3.285 1.61461C1.98966 3.12661 1.889 3.82194 1.889 4.00061C1.889 4.53104 2.09971 5.03975 2.47478 5.41482C2.84986 5.7899 3.35856 6.00061 3.889 6.00061C4.41943 6.00061 4.92814 5.7899 5.30321 5.41482C5.67828 5.03975 5.889 4.53104 5.889 4.00061C5.889 3.82328 5.78833 3.12794 4.493 1.61661C4.41944 1.52781 4.32713 1.45641 4.2227 1.40754C4.11826 1.35866 4.0043 1.33353 3.889 1.33394Z" fill="black"/>
<path d="M13.5557 6.64211C12.7603 6.64123 11.9977 6.32488 11.4353 5.76246C10.8729 5.20004 10.5565 4.43749 10.5557 3.64211C10.5557 2.91478 11.0223 1.97145 11.9863 0.758114C12.175 0.523353 12.4139 0.333912 12.6855 0.203748C12.9571 0.0735832 13.2545 0.00601196 13.5557 0.00601196C13.8568 0.00601196 14.1542 0.0735832 14.4258 0.203748C14.6974 0.333912 14.9363 0.523353 15.125 0.758114C16.089 1.97145 16.5557 2.91478 16.5557 3.64211C16.5548 4.43749 16.2384 5.20004 15.676 5.76246C15.1136 6.32488 14.351 6.64123 13.5557 6.64211ZM13.5557 1.33278C13.4547 1.33262 13.355 1.3554 13.2641 1.3994C13.1732 1.4434 13.0935 1.50747 13.031 1.58678C11.971 2.92278 11.889 3.49745 11.889 3.64211C11.889 4.08414 12.0646 4.50807 12.3772 4.82063C12.6897 5.13319 13.1136 5.30878 13.5557 5.30878C13.9977 5.30878 14.4216 5.13319 14.7342 4.82063C15.0467 4.50807 15.2223 4.08414 15.2223 3.64211C15.2223 3.49745 15.1403 2.92278 14.0803 1.58745C14.0179 1.50802 13.9382 1.44382 13.8473 1.3997C13.7564 1.35558 13.6567 1.3327 13.5557 1.33278Z" fill="black"/>
</g>
<defs>
<clipPath id="clip0_483_13732">
<rect width="16" height="16" fill="white" transform="translate(0.555664)"/>
</clipPath>
</defs>
</svg>
