<svg width="17" height="16" viewBox="0 0 17 16" fill="none" xmlns="http://www.w3.org/2000/svg">
<g clip-path="url(#clip0_483_13751)">
<path d="M15.8572 0.588014C15.6182 0.346099 15.3208 0.169918 14.9938 0.076492C14.6668 -0.0169339 14.3212 -0.0244462 13.9905 0.054681L3.32384 2.30135C2.70956 2.38559 2.13099 2.63967 1.65331 3.03496C1.17562 3.43025 0.817781 3.95105 0.620089 4.53872C0.422397 5.1264 0.392704 5.75759 0.534354 6.36123C0.676003 6.96486 0.98337 7.51696 1.42184 7.95535L2.56717 9.10001C2.62916 9.16199 2.67832 9.23557 2.71184 9.31656C2.74536 9.39756 2.76257 9.48436 2.76251 9.57201V11.684C2.76398 11.981 2.83234 12.2738 2.96251 12.5407L2.95717 12.5453L2.97451 12.5627C3.16985 12.9554 3.48889 13.2731 3.88251 13.4667L3.89984 13.484L3.90451 13.4787C4.17141 13.6089 4.46422 13.6772 4.76117 13.6787H6.87317C7.04987 13.6785 7.2194 13.7486 7.34451 13.8733L8.48917 15.018C8.79619 15.3284 9.1616 15.575 9.56436 15.7436C9.96711 15.9121 10.3992 15.9993 10.8358 16C11.1997 15.9996 11.561 15.9401 11.9058 15.824C12.4881 15.6328 13.0054 15.2827 13.3993 14.8132C13.7932 14.3436 14.0481 13.7734 14.1352 13.1667L16.3852 2.47668C16.4684 2.14311 16.4635 1.79363 16.3709 1.46252C16.2784 1.13142 16.1013 0.830061 15.8572 0.588014ZM3.51117 8.15868L2.36517 7.01401C2.09832 6.75359 1.91129 6.42245 1.82603 6.05945C1.74077 5.69646 1.76083 5.31668 1.88384 4.96468C2.0031 4.60356 2.22358 4.2843 2.51904 4.04486C2.8145 3.80541 3.17251 3.65587 3.55051 3.61401L14.1112 1.39068L4.09451 11.4087V9.57201C4.09552 9.30957 4.04448 9.04953 3.94435 8.80694C3.84423 8.56435 3.69699 8.34401 3.51117 8.15868ZM12.8252 12.9387C12.774 13.3069 12.6212 13.6536 12.3839 13.9398C12.1466 14.226 11.8343 14.4404 11.4819 14.5589C11.1296 14.6775 10.7511 14.6954 10.3891 14.6108C10.0271 14.5262 9.69585 14.3424 9.43251 14.08L8.28584 12.9333C8.10075 12.7472 7.8806 12.5997 7.63812 12.4992C7.39564 12.3987 7.13564 12.3474 6.87317 12.348H5.03651L15.0545 2.33335L12.8252 12.9387Z" fill="black"/>
</g>
<defs>
<clipPath id="clip0_483_13751">
<rect width="16" height="16" fill="white" transform="translate(0.444336)"/>
</clipPath>
</defs>
</svg>
