<svg width="16" height="16" viewBox="0 0 16 16" fill="none" xmlns="http://www.w3.org/2000/svg">
<g clip-path="url(#clip0_4024_19139)">
<path d="M8 6.66667C7.46957 6.66667 6.96086 6.45595 6.58579 6.08088C6.21071 5.70581 6 5.1971 6 4.66667C6 4.13623 6.21071 3.62753 6.58579 3.25245C6.96086 2.87738 7.46957 2.66667 8 2.66667C8.53043 2.66667 9.03914 2.87738 9.41421 3.25245C9.78929 3.62753 10 4.13623 10 4.66667C10 5.1971 9.78929 5.70581 9.41421 6.08088C9.03914 6.45595 8.53043 6.66667 8 6.66667ZM5.97867 10.166C6.11576 9.73769 6.38538 9.36401 6.74862 9.09888C7.11187 8.83375 7.54995 8.69087 7.99967 8.69087C8.44938 8.69087 8.88747 8.83375 9.25071 9.09888C9.61396 9.36401 9.88358 9.73769 10.0207 10.166C10.0649 10.3373 10.1753 10.4841 10.3277 10.574C10.4801 10.6639 10.662 10.6895 10.8333 10.6453C11.0047 10.6011 11.1514 10.4907 11.2413 10.3383C11.3312 10.1859 11.3569 10.004 11.3127 9.83267C10.4387 6.53467 5.55933 6.536 4.688 9.83267C4.66393 9.91811 4.65717 10.0075 4.66812 10.0956C4.67906 10.1837 4.70749 10.2687 4.75173 10.3457C4.79597 10.4226 4.85514 10.49 4.92576 10.5438C4.99639 10.5976 5.07704 10.6367 5.16299 10.6589C5.24894 10.6811 5.33846 10.6859 5.4263 10.673C5.51413 10.6602 5.59851 10.6299 5.67449 10.584C5.75047 10.5381 5.81651 10.4775 5.86874 10.4057C5.92098 10.3339 5.95835 10.2524 5.97867 10.166ZM8.006 15.7767C7.6771 15.7769 7.35961 15.6561 7.114 15.4373L4.61533 13.3333H2.66667C1.95942 13.3333 1.28115 13.0524 0.781049 12.5523C0.280952 12.0522 0 11.3739 0 10.6667V2.66667C0 1.95942 0.280952 1.28115 0.781049 0.781049C1.28115 0.280952 1.95942 0 2.66667 0L13.3333 0C14.0406 0 14.7189 0.280952 15.219 0.781049C15.719 1.28115 16 1.95942 16 2.66667V10.6667C16 11.3739 15.719 12.0522 15.219 12.5523C14.7189 13.0524 14.0406 13.3333 13.3333 13.3333H11.4313L8.86667 15.4533C8.62906 15.6629 8.32281 15.7779 8.006 15.7767ZM2.66667 1.33333C2.31304 1.33333 1.97391 1.47381 1.72386 1.72386C1.47381 1.97391 1.33333 2.31304 1.33333 2.66667V10.6667C1.33333 11.0203 1.47381 11.3594 1.72386 11.6095C1.97391 11.8595 2.31304 12 2.66667 12H4.85933C5.01643 12 5.16849 12.0555 5.28867 12.1567L7.986 14.43L10.7673 12.1527C10.8868 12.054 11.037 12 11.192 12H13.3333C13.687 12 14.0261 11.8595 14.2761 11.6095C14.5262 11.3594 14.6667 11.0203 14.6667 10.6667V2.66667C14.6667 2.31304 14.5262 1.97391 14.2761 1.72386C14.0261 1.47381 13.687 1.33333 13.3333 1.33333H2.66667Z" fill="#444444"/>
</g>
<defs>
<clipPath id="clip0_4024_19139">
<rect width="16" height="16" fill="white"/>
</clipPath>
</defs>
</svg>
