<svg width="16" height="16" viewBox="0 0 16 16" fill="none" xmlns="http://www.w3.org/2000/svg">
<path d="M7.99968 3.3335C7.0767 3.3335 6.17445 3.60719 5.40702 4.11997C4.63959 4.63275 4.04145 5.36158 3.68824 6.21431C3.33503 7.06703 3.24261 8.00534 3.42268 8.91058C3.60274 9.81583 4.0472 10.6473 4.69985 11.3C5.35249 11.9526 6.18401 12.3971 7.08926 12.5772C7.9945 12.7572 8.93281 12.6648 9.78553 12.3116C10.6383 11.9584 11.3671 11.3603 11.8799 10.5928C12.3926 9.82539 12.6663 8.92314 12.6663 8.00016C12.6663 6.76249 12.1747 5.5755 11.2995 4.70033C10.4243 3.82516 9.23735 3.3335 7.99968 3.3335ZM7.99968 11.3335C7.34041 11.3335 6.69594 11.138 6.14778 10.7717C5.59961 10.4055 5.17237 9.88486 4.92008 9.27577C4.66779 8.66669 4.60178 7.99647 4.73039 7.34986C4.85901 6.70326 5.17648 6.10932 5.64265 5.64314C6.10883 5.17697 6.70277 4.8595 7.34938 4.73088C7.99598 4.60226 8.6662 4.66827 9.27529 4.92056C9.88437 5.17286 10.405 5.6001 10.7712 6.14826C11.1375 6.69643 11.333 7.34089 11.333 8.00016C11.333 8.88422 10.9818 9.73206 10.3567 10.3572C9.73158 10.9823 8.88373 11.3335 7.99968 11.3335Z" fill="black"/>
</svg>
