<svg width="96" height="65" viewBox="0 0 96 65" fill="none" xmlns="http://www.w3.org/2000/svg">
<g clip-path="url(#clip0_3569_394579)">
<path d="M75.7932 0H56.6699V24.8912H75.7932V0Z" fill="#F4F4F4"/>
<path d="M75.7933 24.8906H76.4136V-0.000562668H75.7933V24.8906Z" fill="#F4F4F4"/>
<path opacity="0.05" d="M75.7933 24.8906H76.4136V-0.000562668H75.7933V24.8906Z" fill="#D4E4FC"/>
<path opacity="0.05" d="M72.3095 4.53516H60.1533V20.3579H72.3095V4.53516Z" fill="#D4E4FC"/>
<path opacity="0.03" d="M72.3098 4.53516H71.6763V20.3579H72.3098V4.53516Z" fill="#D4E4FC"/>
<path d="M91.4327 31.0117H75.793V46.795H91.4327V31.0117Z" fill="#F4F4F4"/>
<path opacity="0.05" d="M88.5838 33.8867H78.6421V43.9198H88.5838V33.8867Z" fill="#D4E4FC"/>
<path d="M91.4329 46.7949H92.0532V31.0116H91.4329V46.7949Z" fill="#F4F4F4"/>
<path opacity="0.05" d="M91.4329 46.7949H92.0532V31.0116H91.4329V46.7949Z" fill="#D4E4FC"/>
<path opacity="0.03" d="M88.5837 33.8867H87.9502V43.9198H88.5837V33.8867Z" fill="#D4E4FC"/>
<path d="M42.2987 2.31055H2.22119V42.388H42.2987V2.31055Z" fill="#F4F4F4"/>
<path d="M2.22159 2.31055H1.76221V42.388H2.22159V2.31055Z" fill="#F4F4F4"/>
<path opacity="0.05" d="M2.22159 2.31055H1.76221V42.388H2.22159V2.31055Z" fill="#D4E4FC"/>
<path opacity="0.05" d="M11.9304 29.9269V19.4414H20.5196V25.5332H33.8244V36.3197H39.4792V42.3877H33.8244H32.7351H4.14941V29.9269H11.9304Z" fill="#D4E4FC"/>
<path opacity="0.34" d="M19.4169 20.5801H13.1621V21.7185H19.4169V20.5801Z" fill="#FFFFFA"/>
<path opacity="0.34" d="M19.4169 22.9395H13.1621V24.0779H19.4169V22.9395Z" fill="#FFFFFA"/>
<path opacity="0.34" d="M19.4169 25.2988H13.1621V26.4373H19.4169V25.2988Z" fill="#FFFFFA"/>
<path opacity="0.34" d="M6.41119 31.0332H5.2583V32.1717H6.41119V31.0332Z" fill="#FFFFFA"/>
<path opacity="0.34" d="M6.41119 33.3926H5.2583V34.531H6.41119V33.3926Z" fill="#FFFFFA"/>
<path opacity="0.34" d="M6.41119 35.752H5.2583V36.8904H6.41119V35.752Z" fill="#FFFFFA"/>
<path opacity="0.34" d="M8.544 31.0332H7.39111V32.1717H8.544V31.0332Z" fill="#FFFFFA"/>
<path opacity="0.34" d="M8.544 33.3926H7.39111V34.531H8.544V33.3926Z" fill="#FFFFFA"/>
<path opacity="0.34" d="M8.544 35.752H7.39111V36.8904H8.544V35.752Z" fill="#FFFFFA"/>
<path opacity="0.34" d="M10.6192 31.0332H9.46631V32.1717H10.6192V31.0332Z" fill="#FFFFFA"/>
<path opacity="0.34" d="M10.6192 33.3926H9.46631V34.531H10.6192V33.3926Z" fill="#FFFFFA"/>
<path opacity="0.34" d="M10.6192 35.752H9.46631V36.8904H10.6192V35.752Z" fill="#FFFFFA"/>
<path d="M2.22119 22.1245H10.2855V2.31055H10.9524V22.1245H32.7349V2.31055H33.4017V22.1245H42.2988V22.7914H33.4017V42.388H32.7349V22.7914H10.9524V42.388H10.2855V22.7914H2.22119V22.1245Z" fill="white"/>
<path d="M43.8951 42.3398H0.624512V43.6726H43.8951V42.3398Z" fill="#F4F4F4"/>
<path opacity="0.1" d="M43.8951 42.3398H0.624512V43.6726H43.8951V42.3398Z" fill="#D4E4FC"/>
<path opacity="0.1" d="M0.624747 42.3398H0V43.6726H0.624747V42.3398Z" fill="#D4E4FC"/>
<path opacity="0.1" d="M0.624747 42.3398H0V43.6726H0.624747V42.3398Z" fill="#D4E4FC"/>
<path d="M29.246 22.1282C29.246 22.1282 30.9821 20.6249 31.2224 17.418C31.4084 14.9345 29.246 16.6802 29.246 16.6802C29.246 16.6802 29.3625 14.8908 28.0825 15.1532C26.8026 15.4157 26.2031 17.3277 26.2031 17.3277" fill="#0C0C0C"/>
<path d="M21.4165 15.8086C21.4165 15.8086 15.0503 16.9256 17.9505 25.4592H19.6774" fill="#0C0C0C"/>
<path d="M28.5863 34.3304C28.5579 34.3267 28.2444 39.5292 22.2005 39.0756C18.0165 38.7622 16.5246 34.323 16.4287 34.323C16.8798 34.2271 17.6395 34.0878 17.8399 33.9808C18.4986 33.6268 19.3139 33.2584 19.5262 31.9789C19.6487 31.2415 19.4411 27.4689 19.5049 26.7227L25.9275 28.1562C25.8378 29.732 25.2097 33.3851 27.4111 34.0317C27.7774 34.1387 28.172 34.237 28.5863 34.3304Z" fill="#E98862"/>
<path opacity="0.52" d="M26.0174 32.5384C25.9168 32.2142 25.852 31.88 25.8241 31.5416C25.7535 30.7696 25.7676 29.9922 25.8662 29.2232C24.5608 29.0469 23.331 28.5081 22.3164 27.668C22.1973 28.1084 21.5414 30.0329 21.723 30.4515C22.0662 31.2427 23.6793 32.5384 26.0174 32.5384Z" fill="#0C0C0C"/>
<path d="M24.8775 31.2816C22.3341 31.2243 19.2013 29.8298 18.9277 26.4009L18.6812 23.307C18.4077 19.8783 19.9874 16.9549 23.2152 16.6974C26.4436 16.4397 29.0784 19.0263 29.3517 22.4555L29.461 23.8253C29.4903 24.2962 29.4875 24.7686 29.4527 25.2392C29.3695 26.4837 29.2382 28.3757 28.4862 29.6999C27.7761 30.9506 26.5023 31.3183 24.8775 31.2816Z" fill="#E98862"/>
<path d="M28.394 24.5595C28.6143 24.5595 28.7929 24.3809 28.7929 24.1606C28.7929 23.9403 28.6143 23.7617 28.394 23.7617C28.1737 23.7617 27.9951 23.9403 27.9951 24.1606C27.9951 24.3809 28.1737 24.5595 28.394 24.5595Z" fill="#0C0C0C"/>
<path d="M24.7314 24.5829C24.9517 24.5829 25.1303 24.4043 25.1303 24.184C25.1303 23.9637 24.9517 23.7852 24.7314 23.7852C24.5111 23.7852 24.3325 23.9637 24.3325 24.184C24.3325 24.4043 24.5111 24.5829 24.7314 24.5829Z" fill="#0C0C0C"/>
<path d="M19.2116 27.4294C18.2304 27.5078 17.3509 26.5216 17.2731 25.5405C17.1954 24.5594 17.947 23.9548 18.9281 23.877L19.4861 24.4939L20.0551 27.3625L19.2116 27.4294Z" fill="#E98862"/>
<path d="M20.0828 25.7865C20.0828 25.7865 20.089 20.9085 21.5413 20.5099C22.5086 20.2445 24.98 21.4762 27.1545 20.9085C28.1059 20.66 29.0368 20.8372 29.1604 21.2863C29.2097 21.4641 29.636 18.8341 27.9952 16.9692C26.689 15.4846 22.7272 15.3057 20.9727 15.9393C16.1147 17.6922 18.74 24.1045 18.74 24.1045L19.0727 25.7639L20.0828 25.7865Z" fill="#0C0C0C"/>
<g opacity="0.52">
<path d="M26.4212 26.9639H26.4275C26.7437 26.9392 27.2714 26.8633 27.2531 26.6267C27.2377 26.4307 26.5384 24.3563 26.4582 24.1205C26.4507 24.1009 26.436 24.085 26.4171 24.0761C26.3982 24.0672 26.3765 24.0659 26.3567 24.0726C26.3369 24.0793 26.3204 24.0934 26.3108 24.112C26.3012 24.1306 26.2991 24.1522 26.3051 24.1722C26.6158 25.0909 27.0814 26.506 27.0919 26.6392C27.0652 26.6975 26.7422 26.7774 26.4142 26.8028C26.3929 26.8039 26.373 26.8132 26.3586 26.8289C26.3442 26.8445 26.3366 26.8652 26.3374 26.8865C26.3382 26.9077 26.3474 26.9277 26.3629 26.9423C26.3784 26.9568 26.399 26.9647 26.4202 26.9641L26.4212 26.9639Z" fill="#0C0C0C"/>
</g>
<path d="M27.1288 22.0993C27.4512 21.9863 27.7981 21.9622 28.133 22.0295C28.2977 22.0616 28.4567 22.1183 28.6046 22.1976C28.7509 22.2754 28.8869 22.3713 29.0094 22.483C29.0294 22.5005 29.0419 22.5251 29.0442 22.5516C29.0465 22.5781 29.0384 22.6044 29.0217 22.6251C29.0049 22.6458 28.9808 22.6591 28.9544 22.6623C28.928 22.6655 28.9013 22.6584 28.8801 22.6423L28.8736 22.6374C28.7601 22.5447 28.6354 22.4666 28.5024 22.4049C28.3714 22.3434 28.2319 22.3021 28.0886 22.2824C27.8054 22.2412 27.5163 22.2756 27.2507 22.3821L27.2406 22.3863C27.2218 22.3951 27.2015 22.4 27.1808 22.4008C27.1601 22.4016 27.1394 22.3982 27.12 22.3908C27.1007 22.3834 27.083 22.3721 27.0681 22.3577C27.0532 22.3434 27.0413 22.3261 27.0332 22.307C27.0251 22.2879 27.021 22.2674 27.021 22.2467C27.021 22.2259 27.0252 22.2054 27.0334 22.1864C27.0415 22.1673 27.0534 22.1501 27.0684 22.1357C27.0834 22.1214 27.1011 22.1102 27.1204 22.1029L27.1288 22.0993Z" fill="#0C0C0C"/>
<path d="M24.7871 22.4152C24.5214 22.3088 24.2323 22.2745 23.9492 22.3157C23.8058 22.3354 23.6663 22.3767 23.5354 22.4382C23.4024 22.4999 23.2777 22.578 23.1642 22.6707L23.1579 22.6755C23.1367 22.6915 23.1102 22.6986 23.0838 22.6953C23.0575 22.6921 23.0334 22.6788 23.0167 22.6583C22.9999 22.6377 22.9918 22.6114 22.994 22.585C22.9962 22.5586 23.0085 22.534 23.0284 22.5164C23.1508 22.4046 23.2868 22.3087 23.4332 22.2309C23.5811 22.1516 23.7401 22.0949 23.9049 22.0627C24.2398 21.9954 24.5866 22.0195 24.9089 22.1325C24.9466 22.1469 24.977 22.1755 24.9938 22.2122C25.0106 22.2488 25.0124 22.2906 24.9987 22.3285C24.9851 22.3664 24.9572 22.3975 24.9209 22.4151C24.8846 22.4327 24.8429 22.4354 24.8047 22.4226L24.7972 22.4197L24.7871 22.4152Z" fill="#0C0C0C"/>
<path d="M26.8088 27.7662C25.8889 27.8724 24.9598 27.6691 24.1684 27.1883C24.1409 27.1717 24.1093 27.1633 24.0773 27.1641C24.0452 27.1649 24.0141 27.1747 23.9875 27.1926C23.9608 27.2104 23.9398 27.2354 23.9269 27.2648C23.914 27.2941 23.9097 27.3265 23.9145 27.3582C24.0026 27.9004 24.3212 28.8898 25.4709 28.9617C26.2134 29.0082 26.7208 28.415 26.9722 28.0252C26.9897 27.9982 26.9991 27.9667 26.9993 27.9345C26.9995 27.9023 26.9905 27.8707 26.9733 27.8435C26.9561 27.8162 26.9315 27.7945 26.9024 27.7808C26.8732 27.7671 26.8408 27.762 26.8088 27.7662Z" fill="white"/>
<path d="M26.4228 18.7672C27.1394 18.5667 27.4811 17.549 27.1859 16.4942C26.8907 15.4393 26.0704 14.7468 25.3538 14.9474C24.6371 15.148 24.2955 16.1656 24.5907 17.2205C24.8859 18.2753 25.7061 18.9678 26.4228 18.7672Z" fill="#0C0C0C"/>
<path d="M22.0806 37.7787C17.8797 37.5807 17.7028 34.0149 17.7028 34.0149C17.7028 34.0149 15.6213 34.1495 14.2376 34.3367C11.9723 34.6431 10.4778 35.4113 9.28859 36.6007C8.18216 37.707 7.50861 38.904 8.22147 46.5461C8.73753 52.0796 8.37426 64.251 8.37426 64.251H33.7277C33.7277 64.251 35.2481 48.2977 35.46 45.8067C35.8645 41.0516 36.1929 36.9092 35.2056 35.9219C33.176 33.8923 29.1923 34.0149 27.4477 34.0152C27.4193 34.0152 27.8017 38.0483 22.0806 37.7787Z" fill="#2771C7"/>
<path d="M59.0824 64.0871L40.7713 64.1776C39.8928 64.1141 39.0507 63.8008 38.3443 63.2746C37.6379 62.7485 37.0966 62.0314 36.7841 61.2079L27.7528 41.1716C27.318 40.0258 27.3561 38.7542 27.8589 37.6365C28.3616 36.5189 29.2877 35.6467 30.4335 35.2119C32.8199 34.3063 35.1757 34.9151 36.0811 37.301L44.3784 55.1724L59.4532 55.417C59.4532 55.417 59.1958 64.0953 59.0824 64.0871Z" fill="#2771C7"/>
<path d="M35.1014 46.9192C35.1024 46.9028 35.1099 46.8876 35.1222 46.8768C35.1345 46.8659 35.1505 46.8604 35.1669 46.8615C35.1832 46.8625 35.1985 46.87 35.2093 46.8822C35.2201 46.8945 35.2256 46.9106 35.2246 46.9269L34.7092 55.1618C34.7082 55.1766 34.702 55.1906 34.6916 55.2011C34.6812 55.2117 34.6673 55.2182 34.6525 55.2193C34.6496 55.2195 34.6466 55.2195 34.6437 55.2193C34.6356 55.2188 34.6277 55.2167 34.6205 55.2132C34.6132 55.2096 34.6067 55.2046 34.6013 55.1986C34.596 55.1925 34.5919 55.1854 34.5892 55.1778C34.5866 55.1701 34.5855 55.162 34.5861 55.1539" fill="#0C0C0C"/>
<path d="M38.2239 55.7504L34.5105 54.4487L35.0436 54.4118C35.2154 54.3965 35.3751 54.3165 35.4902 54.188C35.6054 54.0595 35.6675 53.8921 35.6639 53.7196C35.659 53.6306 35.6361 53.5436 35.5964 53.4637C35.5568 53.3839 35.5013 53.313 35.4333 53.2553C35.3653 53.1977 35.2863 53.1545 35.2011 53.1284C35.1159 53.1023 35.0262 53.0938 34.9376 53.1035L28.3682 53.8017L28.5387 55.9129C28.5917 56.5686 28.8394 57.1936 29.2499 57.7076C29.6605 58.2217 30.2152 58.6014 30.843 58.7981L33.688 59.6843C33.8349 59.7332 33.9943 59.7299 34.139 59.6748C34.2838 59.6198 34.4051 59.5164 34.4823 59.3822C34.5495 59.2595 34.5757 59.1186 34.5572 58.9801C34.5387 58.8415 34.4763 58.7124 34.3793 58.6118C34.3879 58.6055 34.3947 58.5969 34.3989 58.5871C34.4023 58.5779 34.4034 58.568 34.4021 58.5583C34.4008 58.5486 34.3972 58.5393 34.3916 58.5313L34.9161 58.6957C35.0796 58.7506 35.2579 58.7414 35.4149 58.6699C35.5719 58.5984 35.6959 58.47 35.7619 58.3106C35.8158 58.1661 35.8171 58.0071 35.7654 57.8618C35.7138 57.7164 35.6125 57.5939 35.4794 57.5158C35.4855 57.5125 35.491 57.5081 35.4955 57.5029L35.7111 57.5704C35.858 57.6193 36.0174 57.616 36.1621 57.5609C36.3069 57.5058 36.4281 57.4024 36.5054 57.2682C36.587 57.1194 36.6078 56.9448 36.5634 56.781C36.519 56.6172 36.4129 56.4769 36.2673 56.3896C36.2685 56.3853 36.2692 56.3808 36.2694 56.3763L37.8158 56.9185C37.8927 56.9466 37.9744 56.9591 38.0562 56.9553C38.138 56.9515 38.2183 56.9316 38.2923 56.8965C38.3663 56.8615 38.4326 56.8121 38.4874 56.7513C38.5422 56.6904 38.5844 56.6193 38.6115 56.542C38.6386 56.4647 38.65 56.3828 38.6452 56.3011C38.6404 56.2194 38.6194 56.1394 38.5835 56.0658C38.5475 55.9922 38.4973 55.9265 38.4358 55.8725C38.3743 55.8185 38.3026 55.7772 38.225 55.7511L38.2239 55.7504Z" fill="#E98862"/>
<path opacity="0.2" d="M36.208 56.4356C36.2008 56.4356 36.1937 56.4344 36.187 56.4319L34.6911 55.888C34.6832 55.8855 34.6758 55.8814 34.6695 55.876C34.6632 55.8706 34.658 55.864 34.6543 55.8565C34.6506 55.8491 34.6485 55.8409 34.648 55.8326C34.6476 55.8243 34.6488 55.816 34.6517 55.8082C34.6545 55.8003 34.6589 55.7932 34.6646 55.7871C34.6703 55.781 34.6771 55.7762 34.6847 55.7728C34.6924 55.7694 34.7006 55.7677 34.7089 55.7676C34.7172 55.7675 34.7255 55.7691 34.7332 55.7723L36.2291 56.3162C36.2426 56.3212 36.254 56.3308 36.2612 56.3433C36.2684 56.3558 36.2709 56.3705 36.2684 56.3847C36.2659 56.3989 36.2585 56.4118 36.2475 56.4211C36.2364 56.4304 36.2225 56.4355 36.208 56.4356Z" fill="#D4E4FC"/>
<path opacity="0.2" d="M35.4511 57.5239C35.4441 57.5239 35.4371 57.5227 35.4305 57.5204L34.2515 57.1014C34.2366 57.0956 34.2246 57.0842 34.218 57.0696C34.2113 57.0551 34.2106 57.0385 34.2159 57.0234C34.2213 57.0084 34.2323 56.996 34.2466 56.9889C34.2609 56.9817 34.2774 56.9805 34.2927 56.9853L35.4717 57.4037C35.4854 57.4085 35.4969 57.4181 35.5042 57.4306C35.5115 57.4431 35.5142 57.4578 35.5117 57.4721C35.5093 57.4864 35.5018 57.4994 35.4908 57.5088C35.4797 57.5181 35.4656 57.5233 35.4511 57.5233V57.5239Z" fill="#D4E4FC"/>
<path opacity="0.2" d="M34.3417 58.6281C34.3341 58.628 34.3267 58.6267 34.3196 58.624L33.7674 58.4134C33.7526 58.4073 33.7408 58.3956 33.7345 58.3809C33.7282 58.3662 33.7278 58.3496 33.7335 58.3346C33.7392 58.3196 33.7505 58.3075 33.7651 58.3007C33.7796 58.2939 33.7962 58.2931 33.8113 58.2983L34.3636 58.5089C34.377 58.5141 34.3883 58.5237 34.3953 58.5363C34.4024 58.5488 34.4048 58.5635 34.4022 58.5776C34.3996 58.5918 34.3921 58.6046 34.381 58.6138C34.37 58.623 34.3561 58.6281 34.3417 58.6281Z" fill="#D4E4FC"/>
<path d="M31.1209 60.346L8.09794 64.1624C7.38817 64.2397 6.67015 64.1514 6.00023 63.9045C5.3303 63.6577 4.72669 63.2589 4.23675 62.7396C3.74681 62.2203 3.38388 61.5945 3.17642 60.9113C2.96897 60.2282 2.92264 59.5062 3.04106 58.8022L7.95044 39.1356C8.15377 37.927 8.82887 36.8487 9.82722 36.1379C10.8256 35.4271 12.0654 35.142 13.274 35.3453C14.4825 35.5486 15.5608 36.2237 16.2716 37.2221C16.9825 38.2204 17.2676 39.4603 17.0642 40.6688L13.2991 54.3757L30.0284 52.0904L31.1209 60.346Z" fill="#2771C7"/>
<path d="M10.2979 54.8049C10.2824 54.8048 10.2676 54.7988 10.2563 54.7883C10.245 54.7777 10.2381 54.7632 10.237 54.7478C10.2358 54.7324 10.2406 54.7171 10.2502 54.705C10.2598 54.6929 10.2736 54.6848 10.2889 54.6824L13.1586 54.2527C13.1666 54.2514 13.1748 54.2517 13.1827 54.2537C13.1906 54.2556 13.198 54.259 13.2045 54.2638C13.2111 54.2687 13.2166 54.2748 13.2207 54.2817C13.2249 54.2887 13.2276 54.2965 13.2287 54.3045C13.2311 54.3207 13.227 54.3371 13.2172 54.3502C13.2075 54.3634 13.193 54.3721 13.1768 54.3745L10.3072 54.8042C10.3041 54.8047 10.301 54.8049 10.2979 54.8049Z" fill="#0C0C0C"/>
<path d="M8.73902 64.2509C8.72268 64.2519 8.70659 64.2464 8.6943 64.2356C8.68201 64.2248 8.67451 64.2095 8.67347 64.1932C8.67242 64.1768 8.67791 64.1608 8.68872 64.1485C8.69954 64.1362 8.71479 64.1287 8.73114 64.1276L30.9921 60.2986L29.913 52.1658L13.2993 54.3749C13.2898 54.3761 13.2801 54.3751 13.271 54.3719C13.2619 54.3688 13.2537 54.3635 13.2469 54.3567C13.2402 54.3497 13.2352 54.3413 13.2323 54.3321C13.2295 54.3229 13.2288 54.3131 13.2304 54.3036L15.0281 46.5477C15.0294 46.5397 15.0322 46.532 15.0365 46.5251C15.0407 46.5181 15.0463 46.5121 15.053 46.5074C15.0596 46.5027 15.0671 46.4993 15.075 46.4976C15.0829 46.4958 15.0911 46.4956 15.0991 46.4971C15.1071 46.4984 15.1148 46.5013 15.1216 46.5056C15.1285 46.5099 15.1344 46.5155 15.1391 46.5221C15.1438 46.5287 15.1472 46.5362 15.149 46.5441C15.1508 46.552 15.151 46.5602 15.1496 46.5682L13.3657 54.2421L29.9592 52.0351C29.9674 52.0341 29.9757 52.0346 29.9836 52.0368C29.9915 52.0389 29.9989 52.0427 30.0054 52.0477C30.0119 52.0528 30.0172 52.0591 30.0212 52.0663C30.0252 52.0735 30.0277 52.0814 30.0286 52.0896L31.1211 60.3456C31.1229 60.3616 31.1183 60.3777 31.1083 60.3904C31.0984 60.403 31.0839 60.4113 31.0679 60.4134L8.74703 64.2504C8.74438 64.2507 8.7417 64.2509 8.73902 64.2509Z" fill="#0C0C0C"/>
<path d="M48.8169 61.9996L54.8455 43.468C54.9514 43.1423 55.1577 42.8586 55.4348 42.6573C55.7119 42.4561 56.0456 42.3477 56.388 42.3477H80.9488C81.2049 42.3477 81.4573 42.4083 81.6854 42.5245C81.9135 42.6408 82.1108 42.8094 82.2613 43.0166C82.4117 43.2237 82.511 43.4636 82.5509 43.7164C82.5909 43.9693 82.5705 44.2281 82.4912 44.4715L76.4627 63.0031C76.3568 63.3287 76.1506 63.6124 75.8736 63.8137C75.5966 64.0149 75.263 64.1233 74.9206 64.1234H50.3594C50.1034 64.1234 49.851 64.0628 49.6229 63.9465C49.3947 63.8303 49.1974 63.6617 49.0469 63.4546C48.8965 63.2474 48.7972 63.0076 48.7572 62.7547C48.7172 62.5018 48.7377 62.2431 48.8169 61.9996Z" fill="#D4E4FC"/>
<path d="M53.7344 62.6211H37.2936C36.8839 62.6211 36.5518 62.9532 36.5518 63.3629V63.3819C36.5518 63.7916 36.8839 64.1237 37.2936 64.1237H53.7344C54.1441 64.1237 54.4762 63.7916 54.4762 63.3819V63.3629C54.4762 62.9532 54.1441 62.6211 53.7344 62.6211Z" fill="#D4E4FC"/>
<path d="M65.6541 56.7165C67.0768 56.7165 68.2301 55.5631 68.2301 54.1405C68.2301 52.7178 67.0768 51.5645 65.6541 51.5645C64.2314 51.5645 63.0781 52.7178 63.0781 54.1405C63.0781 55.5631 64.2314 56.7165 65.6541 56.7165Z" fill="white"/>
<path d="M93.6725 35.4745H66.5549L63.0786 38.0787V24.6175C63.0786 24.0166 63.3173 23.4402 63.7423 23.0152C64.1673 22.5903 64.7436 22.3516 65.3446 22.3516H93.6725C94.2735 22.3516 94.8498 22.5903 95.2748 23.0152C95.6997 23.4402 95.9385 24.0166 95.9385 24.6175V33.2086C95.9384 33.8096 95.6997 34.3859 95.2747 34.8108C94.8498 35.2357 94.2735 35.4745 93.6725 35.4745Z" fill="white"/>
<path d="M63.0787 38.1394C63.0691 38.1394 63.0597 38.1371 63.0511 38.1329C63.0409 38.1278 63.0323 38.1199 63.0263 38.1102C63.0203 38.1004 63.0171 38.0892 63.0171 38.0778V24.6166C63.0178 23.9996 63.2633 23.4079 63.6996 22.9716C64.136 22.5352 64.7276 22.2898 65.3447 22.2891H93.6726C94.2897 22.2898 94.8813 22.5352 95.3176 22.9716C95.754 23.4079 95.9995 23.9996 96.0002 24.6166V33.2076C95.9995 33.8247 95.754 34.4163 95.3176 34.8527C94.8813 35.289 94.2897 35.5345 93.6726 35.5352H66.5756L63.1157 38.1271C63.105 38.1351 63.092 38.1394 63.0787 38.1394ZM65.3447 22.4123C64.7602 22.4129 64.1999 22.6454 63.7867 23.0586C63.3734 23.4719 63.141 24.0322 63.1403 24.6166V37.9547L66.5188 35.4243C66.5294 35.4163 66.5424 35.412 66.5557 35.412H93.6726C94.257 35.4113 94.8173 35.1789 95.2306 34.7656C95.6438 34.3523 95.8763 33.792 95.877 33.2076V24.6166C95.8763 24.0322 95.6438 23.4719 95.2306 23.0586C94.8173 22.6454 94.257 22.4129 93.6726 22.4123H65.3447Z" fill="#D4E4FC"/>
<path d="M93.5864 28.7621H75.8269C75.8038 28.7621 75.7816 28.753 75.7653 28.7366C75.7489 28.7203 75.7397 28.6981 75.7397 28.675C75.7397 28.6519 75.7489 28.6297 75.7653 28.6134C75.7816 28.5971 75.8038 28.5879 75.8269 28.5879H93.5864C93.6096 28.5879 93.6317 28.5971 93.6481 28.6134C93.6644 28.6297 93.6736 28.6519 93.6736 28.675C93.6736 28.6981 93.6644 28.7203 93.6481 28.7366C93.6317 28.753 93.6096 28.7621 93.5864 28.7621Z" fill="#2771C7"/>
<path d="M93.5864 30.9399H75.8269C75.8154 30.9399 75.8041 30.9376 75.7935 30.9332C75.783 30.9289 75.7734 30.9224 75.7653 30.9143C75.7572 30.9063 75.7508 30.8967 75.7464 30.8861C75.742 30.8755 75.7397 30.8642 75.7397 30.8527C75.7397 30.8413 75.742 30.83 75.7464 30.8194C75.7508 30.8088 75.7572 30.7992 75.7653 30.7911C75.7734 30.7831 75.783 30.7766 75.7935 30.7723C75.8041 30.7679 75.8154 30.7656 75.8269 30.7656H93.5864C93.5979 30.7656 93.6092 30.7679 93.6198 30.7723C93.6304 30.7766 93.64 30.7831 93.6481 30.7911C93.6561 30.7992 93.6626 30.8088 93.6669 30.8194C93.6713 30.83 93.6736 30.8413 93.6736 30.8527C93.6736 30.8642 93.6713 30.8755 93.6669 30.8861C93.6626 30.8967 93.6561 30.9063 93.6481 30.9143C93.64 30.9224 93.6304 30.9289 93.6198 30.9332C93.6092 30.9376 93.5979 30.9399 93.5864 30.9399Z" fill="#2771C7"/>
<path d="M85.4851 33.1176H75.8269C75.8038 33.1176 75.7816 33.1084 75.7653 33.0921C75.7489 33.0757 75.7397 33.0536 75.7397 33.0305C75.7397 33.0074 75.7489 32.9852 75.7653 32.9689C75.7816 32.9525 75.8038 32.9434 75.8269 32.9434H85.4851C85.4965 32.9434 85.5078 32.9456 85.5184 32.95C85.529 32.9544 85.5386 32.9608 85.5467 32.9689C85.5548 32.977 85.5612 32.9866 85.5656 32.9971C85.5699 33.0077 85.5722 33.019 85.5722 33.0305C85.5722 33.0419 85.5699 33.0532 85.5656 33.0638C85.5612 33.0744 85.5548 33.084 85.5467 33.0921C85.5386 33.1002 85.529 33.1066 85.5184 33.111C85.5078 33.1153 85.4965 33.1176 85.4851 33.1176Z" fill="#2771C7"/>
<path d="M69.4601 33.6654C71.8751 33.6654 73.8329 31.7077 73.8329 29.2927C73.8329 26.8777 71.8751 24.9199 69.4601 24.9199C67.0451 24.9199 65.0874 26.8777 65.0874 29.2927C65.0874 31.7077 67.0451 33.6654 69.4601 33.6654Z" fill="#D4E4FC"/>
<path d="M77.0819 24.5566L77.438 25.4779L78.4242 25.5317L77.658 26.1551L77.9114 27.1097L77.0819 26.5736L76.2524 27.1097L76.5058 26.1551L75.7397 25.5317L76.7259 25.4779L77.0819 24.5566Z" fill="#2771C7"/>
<path d="M80.6073 24.5566L80.9634 25.4779L81.9496 25.5317L81.1834 26.1551L81.4368 27.1097L80.6073 26.5736L79.7778 27.1097L80.0312 26.1551L79.2651 25.5317L80.2513 25.4779L80.6073 24.5566Z" fill="#2771C7"/>
<path d="M84.1327 24.5566L84.4888 25.4779L85.475 25.5317L84.7088 26.1551L84.9622 27.1097L84.1327 26.5736L83.3031 27.1097L83.5566 26.1551L82.7905 25.5317L83.7767 25.4779L84.1327 24.5566Z" fill="#2771C7"/>
<path d="M87.6581 24.5566L88.0142 25.4779L89.0004 25.5317L88.2343 26.1551L88.4876 27.1097L87.6581 26.5736L86.8285 27.1097L87.082 26.1551L86.3159 25.5317L87.3021 25.4779L87.6581 24.5566Z" fill="#2771C7"/>
<path d="M91.1835 24.5566L91.5396 25.4779L92.5257 25.5317L91.7597 26.1551L92.013 27.1097L91.1835 26.5736L90.3539 27.1097L90.6074 26.1551L89.8413 25.5317L90.8275 25.4779L91.1835 24.5566Z" fill="#2771C7"/>
<path d="M56.5515 15.0488H46.7601C46.072 15.0488 45.5142 15.6066 45.5142 16.2947V23.4607C45.5142 24.1488 46.072 24.7067 46.7601 24.7067H56.5515C57.2396 24.7067 57.7974 24.1488 57.7974 23.4607V16.2947C57.7974 15.6066 57.2396 15.0488 56.5515 15.0488Z" fill="#D4E4FC"/>
<path d="M54.7491 20.5831H54.7048C54.8425 20.6123 54.9658 20.6882 55.054 20.7979C55.1422 20.9076 55.1898 21.0443 55.1888 21.185C55.1854 21.3482 55.1177 21.5034 55.0005 21.6171C54.8833 21.7307 54.7261 21.7935 54.5629 21.7919H54.4605C54.5862 21.8349 54.6945 21.9177 54.7689 22.0278C54.8433 22.1378 54.8798 22.2692 54.8729 22.4019C54.8622 22.5601 54.7915 22.7082 54.6751 22.8159C54.5587 22.9236 54.4055 22.9827 54.2469 22.981H54.0583L50.2876 22.9777L50.293 18.1557C50.6627 17.5866 51.3128 16.6251 51.3128 16.6251C51.4134 16.4655 51.5733 16.3523 51.7573 16.3106C51.9413 16.2689 52.1344 16.3019 52.294 16.4025C52.4536 16.5031 52.5668 16.663 52.6085 16.847C52.6503 17.031 52.6172 17.224 52.5166 17.3837L52.0343 18.1494L52.603 18.1503H53.0073L54.8754 18.1524C55.0353 18.1511 55.1896 18.2116 55.3059 18.3214C55.4223 18.4311 55.4918 18.5815 55.5 18.7412C55.503 18.8232 55.4894 18.9048 55.4602 18.9814C55.4309 19.058 55.3866 19.1279 55.3297 19.187C55.2729 19.2461 55.2047 19.2931 55.1294 19.3253C55.054 19.3575 54.9729 19.3742 54.8909 19.3744C55.0285 19.4036 55.1519 19.4795 55.2401 19.5891C55.3284 19.6987 55.3761 19.8355 55.3753 19.9762C55.3717 20.1394 55.304 20.2946 55.1868 20.4082C55.0696 20.5218 54.9123 20.5846 54.7491 20.5831Z" fill="white"/>
<path d="M50.2928 18.1324V18.155L50.2891 22.977V22.9812L48.2749 22.9779L48.2787 18.1289L50.2928 18.1324Z" fill="#2771C7"/>
<path opacity="0.65" d="M49.2838 19.4026C49.5136 19.4026 49.6999 19.2163 49.6999 18.9864C49.6999 18.7566 49.5136 18.5703 49.2838 18.5703C49.054 18.5703 48.8677 18.7566 48.8677 18.9864C48.8677 19.2163 49.054 19.4026 49.2838 19.4026Z" fill="white"/>
<path d="M69.4607 17.3569C72.3093 17.3569 74.6186 15.0476 74.6186 12.1989C74.6186 9.3503 72.3093 7.04102 69.4607 7.04102C66.612 7.04102 64.3027 9.3503 64.3027 12.1989C64.3027 15.0476 66.612 17.3569 69.4607 17.3569Z" fill="#2771C7"/>
<path d="M72.0994 12.1895C72.1018 12.5375 72.0353 12.8826 71.9037 13.2048C71.7722 13.5271 71.5782 13.8201 71.3329 14.067C71.0877 14.314 70.796 14.51 70.4746 14.6437C70.1533 14.7775 69.8087 14.8463 69.4606 14.8463C69.1126 14.8463 68.768 14.7775 68.4466 14.6437C68.1253 14.51 67.8336 14.314 67.5883 14.067C67.343 13.8201 67.1491 13.5271 67.0175 13.2048C66.886 12.8826 66.8195 12.5375 66.8218 12.1895H72.0994Z" fill="white"/>
<path d="M67.5978 10.5785C67.846 10.5785 68.0472 10.3773 68.0472 10.1291C68.0472 9.88089 67.846 9.67969 67.5978 9.67969C67.3496 9.67969 67.1484 9.88089 67.1484 10.1291C67.1484 10.3773 67.3496 10.5785 67.5978 10.5785Z" fill="#0C0C0C"/>
<path d="M71.3229 10.5785C71.5711 10.5785 71.7723 10.3773 71.7723 10.1291C71.7723 9.88089 71.5711 9.67969 71.3229 9.67969C71.0747 9.67969 70.8735 9.88089 70.8735 10.1291C70.8735 10.3773 71.0747 10.5785 71.3229 10.5785Z" fill="#0C0C0C"/>
<path d="M69.4602 29.4898C70.4703 29.4898 71.2891 28.671 71.2891 27.6609C71.2891 26.6509 70.4703 25.832 69.4602 25.832C68.4502 25.832 67.6313 26.6509 67.6313 27.6609C67.6313 28.671 68.4502 29.4898 69.4602 29.4898Z" fill="white"/>
<path d="M72.93 31.9552C72.5215 32.4871 71.9961 32.918 71.3945 33.2145C70.793 33.511 70.1313 33.6652 69.4606 33.6652C68.7899 33.6652 68.1282 33.511 67.5266 33.2145C66.9251 32.918 66.3997 32.4871 65.9912 31.9552C66.4225 31.4585 66.9555 31.0602 67.554 30.7873C68.1526 30.5143 68.8027 30.373 69.4606 30.373C70.1184 30.373 70.7686 30.5143 71.3671 30.7873C71.9657 31.0602 72.4986 31.4585 72.93 31.9552Z" fill="white"/>
<path d="M69.4604 33.7261C68.5833 33.7262 67.726 33.4661 66.9967 32.9789C66.2675 32.4916 65.6991 31.7991 65.3635 30.9888C65.0278 30.1785 64.94 29.2869 65.1111 28.4268C65.2822 27.5666 65.7045 26.7764 66.3246 26.1563C66.9448 25.5361 67.7349 25.1137 68.5951 24.9426C69.4553 24.7715 70.3469 24.8593 71.1572 25.195C71.9674 25.5306 72.66 26.0989 73.1473 26.8282C73.6345 27.5574 73.8946 28.4147 73.8946 29.2918C73.8933 30.4674 73.4257 31.5945 72.5944 32.4258C71.7631 33.2572 70.636 33.7248 69.4604 33.7261ZM69.4604 24.9806C68.6077 24.9806 67.7742 25.2334 67.0652 25.7071C66.3562 26.1808 65.8036 26.8541 65.4773 27.6419C65.151 28.4296 65.0656 29.2965 65.2319 30.1328C65.3983 30.969 65.8088 31.7372 66.4118 32.3402C67.0147 32.9431 67.7828 33.3537 68.6191 33.5201C69.4554 33.6864 70.3222 33.601 71.11 33.2747C71.8978 32.9485 72.5711 32.3959 73.0448 31.6869C73.5185 30.978 73.7714 30.1444 73.7714 29.2918C73.7701 28.1488 73.3155 27.053 72.5073 26.2448C71.6991 25.4366 70.6033 24.982 69.4604 24.9806Z" fill="#D4E4FC"/>
<path d="M79.6443 62.2633C79.6269 62.2633 79.6098 62.2584 79.595 62.2492C79.5802 62.24 79.5683 62.2268 79.5607 62.2111L77.1075 57.1796C77.0971 57.1575 77.0958 57.1321 77.1039 57.109C77.112 57.086 77.1289 57.067 77.1509 57.0563C77.1729 57.0456 77.1982 57.0439 77.2214 57.0517C77.2445 57.0595 77.2637 57.0762 77.2747 57.098L79.7279 62.1295C79.7332 62.1405 79.7364 62.1524 79.7371 62.1646C79.7379 62.1768 79.7362 62.1891 79.7322 62.2006C79.7283 62.2122 79.722 62.2228 79.7139 62.232C79.7058 62.2411 79.696 62.2486 79.685 62.254C79.6723 62.2601 79.6584 62.2633 79.6443 62.2633Z" fill="#D4E4FC"/>
<path d="M83.7913 61.9695C83.7708 61.9695 83.7508 61.9627 83.7346 61.9502C83.7183 61.9376 83.7067 61.92 83.7015 61.9002L80.8628 51.063C80.8592 51.051 80.8581 51.0384 80.8595 51.026C80.8609 51.0136 80.8647 51.0016 80.8708 50.9908C80.877 50.9799 80.8852 50.9704 80.8951 50.9627C80.905 50.9551 80.9163 50.9495 80.9284 50.9464C80.9404 50.9432 80.953 50.9425 80.9654 50.9443C80.9777 50.9461 80.9896 50.9504 81.0003 50.9569C81.0109 50.9634 81.0202 50.9719 81.0275 50.9821C81.0347 50.9922 81.0399 51.0037 81.0427 51.0159L83.8814 61.8535C83.885 61.8672 83.8855 61.8817 83.8827 61.8956C83.8798 61.9096 83.8738 61.9227 83.8651 61.934C83.8564 61.9453 83.8452 61.9544 83.8324 61.9606C83.8196 61.9669 83.8056 61.9701 83.7913 61.97V61.9695Z" fill="#D4E4FC"/>
<path d="M89.2062 62.4515C89.1937 62.4515 89.1814 62.449 89.17 62.4441C89.1587 62.4393 89.1485 62.4324 89.14 62.4236C89.1314 62.4149 89.1246 62.4046 89.1201 62.3933C89.1155 62.382 89.1132 62.3698 89.1133 62.3576C89.1134 62.3454 89.1159 62.3333 89.1207 62.3221L92.0551 55.4112C92.0653 55.3893 92.0836 55.3722 92.1061 55.3636C92.1286 55.355 92.1536 55.3554 92.1758 55.3648C92.1981 55.3743 92.2157 55.3919 92.2251 55.4142C92.2345 55.4364 92.235 55.4614 92.2263 55.4839L89.2918 62.3948C89.2847 62.4116 89.2728 62.4259 89.2575 62.436C89.2423 62.4461 89.2245 62.4515 89.2062 62.4515Z" fill="#D4E4FC"/>
<path d="M83.8963 64.0516C83.8887 64.0516 83.8811 64.0506 83.8737 64.0487C83.8618 64.0458 83.8507 64.0405 83.8408 64.0332C83.831 64.026 83.8227 64.0168 83.8165 64.0064C83.8102 63.9959 83.806 63.9843 83.8042 63.9722C83.8024 63.9601 83.803 63.9478 83.806 63.936L87.2158 50.295C87.2218 50.2711 87.237 50.2505 87.2582 50.2378C87.2793 50.2252 87.3047 50.2214 87.3286 50.2274C87.3526 50.2334 87.3731 50.2487 87.3858 50.2698C87.3985 50.291 87.4023 50.3163 87.3963 50.3403L83.9864 63.9812C83.9814 64.0013 83.9698 64.0191 83.9535 64.0319C83.9371 64.0446 83.917 64.0515 83.8963 64.0516Z" fill="#D4E4FC"/>
<path d="M89.8044 55.173C91.4742 54.3787 92.0779 52.1582 91.1527 50.2133C90.2276 48.2685 88.124 47.3358 86.4541 48.1301C84.7843 48.9244 84.1806 51.145 85.1058 53.0898C86.0309 55.0346 88.1346 55.9673 89.8044 55.173Z" fill="#2771C7"/>
<path opacity="0.4" d="M89.8044 55.173C91.4742 54.3787 92.0779 52.1582 91.1527 50.2133C90.2276 48.2685 88.124 47.3358 86.4541 48.1301C84.7843 48.9244 84.1806 51.145 85.1058 53.0898C86.0309 55.0346 88.1346 55.9673 89.8044 55.173Z" fill="white"/>
<path d="M93.5362 59.0169C94.5402 58.6125 94.963 57.3134 94.4804 56.1152C93.9978 54.9171 92.7927 54.2736 91.7887 54.678C90.7846 55.0823 90.3619 56.3815 90.8444 57.5796C91.327 58.7778 92.5321 59.4213 93.5362 59.0169Z" fill="#2771C7"/>
<path d="M82.702 53.5292C83.2567 51.6987 82.4973 49.8483 81.0058 49.3963C79.5143 48.9444 77.8555 50.0619 77.3008 51.8925C76.7461 53.7231 77.5055 55.5734 78.997 56.0254C80.4885 56.4774 82.1473 55.3598 82.702 53.5292Z" fill="#2771C7"/>
<path d="M78.3112 58.0688C78.5075 56.897 77.9917 55.8341 77.1591 55.6946C76.3265 55.5552 75.4925 56.3921 75.2963 57.5638C75.1 58.7356 75.6158 59.7986 76.4484 59.938C77.281 60.0775 78.115 59.2406 78.3112 58.0688Z" fill="#2771C7"/>
<path d="M91.9433 60.5703H77.459V64.1798H91.9433V60.5703Z" fill="#D4E4FC"/>
<path opacity="0.3" d="M91.9433 60.5703H77.459V64.1798H91.9433V60.5703Z" fill="white"/>
<path d="M88.4329 61.401C89.6639 60.9049 90.1841 59.3173 89.5948 57.855C89.0055 56.3927 87.5298 55.6095 86.2988 56.1056C85.0678 56.6017 84.5476 58.1893 85.1369 59.6516C85.7262 61.1139 87.2019 61.8971 88.4329 61.401Z" fill="#2771C7"/>
<path d="M81.8631 61.0513C83.0886 61.0513 84.0821 60.0578 84.0821 58.8323C84.0821 57.6068 83.0886 56.6133 81.8631 56.6133C80.6375 56.6133 79.644 57.6068 79.644 58.8323C79.644 60.0578 80.6375 61.0513 81.8631 61.0513Z" fill="#2771C7"/>
<path opacity="0.68" d="M93.5362 59.0169C94.5402 58.6125 94.963 57.3134 94.4804 56.1152C93.9978 54.9171 92.7927 54.2736 91.7887 54.678C90.7846 55.0823 90.3619 56.3815 90.8444 57.5796C91.327 58.7778 92.5321 59.4213 93.5362 59.0169Z" fill="white"/>
<path opacity="0.68" d="M82.702 53.5292C83.2567 51.6987 82.4973 49.8483 81.0058 49.3963C79.5143 48.9444 77.8555 50.0619 77.3008 51.8925C76.7461 53.7231 77.5055 55.5734 78.997 56.0254C80.4885 56.4774 82.1473 55.3598 82.702 53.5292Z" fill="white"/>
<path opacity="0.68" d="M78.3112 58.0688C78.5075 56.897 77.9917 55.8341 77.1591 55.6946C76.3265 55.5552 75.4925 56.3921 75.2963 57.5638C75.1 58.7356 75.6158 59.7986 76.4484 59.938C77.281 60.0775 78.115 59.2406 78.3112 58.0688Z" fill="white"/>
<path opacity="0.68" d="M88.4329 61.401C89.6639 60.9049 90.1841 59.3173 89.5948 57.855C89.0055 56.3927 87.5298 55.6095 86.2988 56.1056C85.0678 56.6017 84.5476 58.1893 85.1369 59.6516C85.7262 61.1139 87.2019 61.8971 88.4329 61.401Z" fill="white"/>
<path opacity="0.4" d="M81.8631 61.0513C83.0886 61.0513 84.0821 60.0578 84.0821 58.8323C84.0821 57.6068 83.0886 56.6133 81.8631 56.6133C80.6375 56.6133 79.644 57.6068 79.644 58.8323C79.644 60.0578 80.6375 61.0513 81.8631 61.0513Z" fill="white"/>
<path d="M88.991 56.964C87.3068 57.4346 86.4204 56.0582 86.4204 56.0582L86.4214 56.0563C87.3198 55.7884 88.3158 56.1651 88.991 56.964Z" fill="#D4E4FC"/>
<path d="M78.3519 57.5267C77.5229 57.2092 76.8358 56.6039 76.4165 55.8215C76.6437 55.7002 76.9042 55.6561 77.1587 55.6959C77.8599 55.8126 78.3361 56.5855 78.3519 57.5267Z" fill="#D4E4FC"/>
<path d="M82.2592 56.6486C81.6132 57.2305 80.8062 57.603 79.9443 57.7172C80.1738 57.323 80.5191 57.009 80.9332 56.8178C81.3474 56.6267 81.8103 56.5676 82.2592 56.6486Z" fill="#D4E4FC"/>
<path d="M94.589 64.3754H0.183283C0.150602 64.3754 0.119259 64.3624 0.0961502 64.3393C0.0730411 64.3162 0.0600586 64.2848 0.0600586 64.2521C0.0600586 64.2194 0.0730411 64.1881 0.0961502 64.165C0.119259 64.1419 0.150602 64.1289 0.183283 64.1289H94.589C94.6217 64.1289 94.653 64.1419 94.6761 64.165C94.6992 64.1881 94.7122 64.2194 94.7122 64.2521C94.7122 64.2848 94.6992 64.3162 94.6761 64.3393C94.653 64.3624 94.6217 64.3754 94.589 64.3754Z" fill="#D4E4FC"/>
</g>
<defs>
<clipPath id="clip0_3569_394579">
<rect width="96" height="64.3753" fill="white"/>
</clipPath>
</defs>
</svg>
