<svg width="127" height="96" viewBox="0 0 126 100" fill="none" xmlns="http://www.w3.org/2000/svg">
<g clip-path="url(#clip0_2639_2691)">
<path opacity="0.2" d="M11.9789 96C5.82431 96 1.08959 91.2043 0.292199 85.1053C-3.21309 58.2926 25.8984 41.116 32.5949 28.9485C44.0888 8.06266 53.836 1.42082 70.2634 1.42082C94.4056 1.42082 92.8593 27.9555 104.228 44.693C112.698 57.1641 126.892 62.0349 126.892 83.9858C126.892 90.1358 119.022 96 112.868 96H11.9789Z" fill="#F4FBFC"/>
<path d="M113.106 96H107.055C106.003 94.6173 104.159 91.8282 105.351 90.6371C105.893 90.0964 106.489 90.6107 107.043 91.5324C106.853 89.7251 107.043 87.9989 108.301 87.4945C109.446 87.0365 109.959 88.4205 110.157 90.2774C110.721 89.2212 111.463 88.4781 112.43 88.5364C113.815 88.6193 113.481 90.4648 112.67 92.5081C113.285 92.0413 113.928 91.8117 114.554 92.0163C115.866 92.4464 114.641 94.2846 113.106 96Z" fill="#AAE5EA"/>
<path d="M100.381 94.6223L103.865 94.611C103.865 94.611 103.853 91.0154 103.853 90.6971H100.369C100.369 91.0164 100.381 94.6223 100.381 94.6223Z" fill="#FDBFA6"/>
<path d="M86.4981 94.2061L89.9579 93.7949C89.8021 92.4862 89.626 90.9141 89.6141 90.6565C89.6141 90.673 89.6141 90.6865 89.6141 90.6971H86.1299C86.1307 90.8014 86.1307 91.1191 86.4981 94.2061Z" fill="#FDBFA6"/>
<path d="M91.3503 93.1066L85.2114 93.0022C85.4998 85.7012 85.5174 78.043 85.6073 70.7245C86.8064 62.8362 87.4369 54.174 88.9157 46.3423L88.9601 46.3554L89.0897 45.4717L101.712 44.6924C101.712 44.6924 102.05 50.8732 102.164 52.9331C102.819 64.7711 104.013 81.4441 104.763 92.9078L98.6459 93.4243C97.5437 82.1847 95.8381 65.8077 94.789 54.0002C93.5843 59.7489 92.7649 65.7011 91.7173 71.4003C91.5077 78.5356 91.3307 85.9937 91.3503 93.1066Z" fill="#444444"/>
<path d="M96.1451 95.9692C96.0514 95.9687 95.9588 95.949 95.8731 95.9112C95.7874 95.8733 95.7104 95.8182 95.6469 95.7493C95.5834 95.6804 95.5349 95.5992 95.5042 95.5107C95.4736 95.4222 95.4616 95.3283 95.4689 95.235C95.479 95.1056 95.5258 94.9818 95.604 94.8781C95.6821 94.7744 95.7882 94.6952 95.9099 94.6498L99.9653 93.2925C100.044 93.2664 100.127 93.2577 100.209 93.2668C100.292 93.2759 100.371 93.3027 100.442 93.3454C100.999 93.7319 101.666 93.9295 102.345 93.9091C102.873 93.8716 103.38 93.6865 103.808 93.3749C103.846 93.3441 103.891 93.3246 103.939 93.3186C103.988 93.3127 104.037 93.3207 104.081 93.3415C104.125 93.3624 104.162 93.3953 104.188 93.4364C104.214 93.4776 104.227 93.5252 104.227 93.5739V95.5561C104.227 95.6146 104.216 95.6725 104.193 95.7265C104.171 95.7805 104.138 95.8295 104.097 95.8708C104.055 95.912 104.006 95.9447 103.952 95.9669C103.898 95.9891 103.84 96.0004 103.781 96.0002L96.1451 95.9692Z" fill="#D5FAFD"/>
<path d="M82.2526 95.9692C82.1589 95.9687 82.0662 95.949 81.9805 95.9112C81.8948 95.8733 81.8178 95.8182 81.7543 95.7493C81.6909 95.6804 81.6423 95.5992 81.6117 95.5107C81.581 95.4222 81.569 95.3283 81.5763 95.235C81.5864 95.1055 81.6333 94.9817 81.7114 94.878C81.7896 94.7744 81.8958 94.6952 82.0175 94.6498L86.0728 93.2925C86.1513 93.2664 86.2345 93.2577 86.3168 93.2668C86.3991 93.2759 86.4784 93.3027 86.5493 93.3454C87.1068 93.7319 87.7737 93.9295 88.452 93.9091C88.9803 93.8716 89.4874 93.6865 89.9155 93.3749C89.9531 93.3441 89.9988 93.3245 90.0471 93.3186C90.0954 93.3127 90.1444 93.3206 90.1883 93.3415C90.2323 93.3623 90.2694 93.3953 90.2953 93.4364C90.3213 93.4776 90.3349 93.5252 90.3348 93.5739V95.5561C90.3348 95.6146 90.3232 95.6725 90.3008 95.7265C90.2783 95.7805 90.2455 95.8295 90.204 95.8708C90.1625 95.912 90.1133 95.9447 90.0592 95.9669C90.0051 95.9891 89.9471 96.0004 89.8886 96.0002L82.2526 95.9692Z" fill="#D5FAFD"/>
<path d="M97.8442 26.6891C97.8442 26.6891 96.5612 26.0093 96.8477 22.518L94.1971 22.0267C94.1971 22.0267 94.4949 25.157 93.1538 26.1509L97.8442 26.6891Z" fill="#FDBFA6"/>
<g opacity="0.15">
<path d="M93.6973 25.4964L95.8988 23.8128L94.1693 23.7949C94.1193 24.3865 93.9592 24.9635 93.6973 25.4964Z" fill="black"/>
</g>
<path d="M98.352 21.1641C98.1685 22.2233 97.5901 23.2265 96.655 23.5684C95.6359 23.9725 94.5333 24.1214 93.4434 24.002C90.5415 23.7642 91.1156 17.1706 92.4932 15.8896C93.8708 14.6085 97.9141 15.4203 98.4061 17.5624C98.6604 18.6702 98.5267 20.1558 98.352 21.1641Z" fill="#FDBFA6"/>
<path d="M94.2009 20.3482C94.3336 20.3482 94.4413 20.2406 94.4413 20.1079C94.4413 19.9752 94.3336 19.8676 94.2009 19.8676C94.0681 19.8676 93.9604 19.9752 93.9604 20.1079C93.9604 20.2406 94.0681 20.3482 94.2009 20.3482Z" fill="#0F1011"/>
<path d="M92.3044 20.1928C92.4371 20.1928 92.5448 20.0852 92.5448 19.9525C92.5448 19.8198 92.4371 19.7123 92.3044 19.7123C92.1716 19.7123 92.064 19.8198 92.064 19.9525C92.064 20.0852 92.1716 20.1928 92.3044 20.1928Z" fill="#0F1011"/>
<path d="M91.8877 19.4405H91.8891L92.5261 19.4324C92.5553 19.431 92.5829 19.4182 92.6029 19.3969C92.6229 19.3756 92.6339 19.3474 92.6335 19.3181C92.6331 19.2889 92.6214 19.2609 92.6008 19.2402C92.5802 19.2194 92.5524 19.2074 92.5231 19.2067L91.8862 19.2147C91.8562 19.2149 91.8275 19.227 91.8065 19.2483C91.7854 19.2696 91.7737 19.2984 91.7739 19.3283C91.7741 19.3583 91.7862 19.3869 91.8075 19.408C91.8289 19.429 91.8577 19.4407 91.8877 19.4405Z" fill="#0F1011"/>
<path d="M94.7205 19.6727C94.7483 19.6728 94.7751 19.6627 94.7958 19.6443C94.8166 19.6259 94.8299 19.6005 94.8331 19.5729C94.8364 19.5454 94.8294 19.5176 94.8134 19.4949C94.7975 19.4722 94.7737 19.4562 94.7467 19.4498L94.1189 19.2989C94.1044 19.2952 94.0893 19.2945 94.0745 19.2967C94.0597 19.2988 94.0455 19.3039 94.0327 19.3117C94.0199 19.3194 94.0087 19.3296 93.9999 19.3416C93.991 19.3537 93.9847 19.3674 93.9812 19.3819C93.9777 19.3964 93.9771 19.4115 93.9795 19.4263C93.9818 19.441 93.9871 19.4552 93.995 19.4679C94.0029 19.4806 94.0132 19.4916 94.0254 19.5003C94.0376 19.509 94.0514 19.5151 94.066 19.5185L94.694 19.6695C94.7027 19.6715 94.7116 19.6726 94.7205 19.6727Z" fill="#0F1011"/>
<path d="M96.6925 23.442C96.7476 23.6183 96.7861 23.695 96.9448 23.6007C97.568 23.2306 98.8046 22.4254 99.2824 19.4087C99.7106 16.706 98.042 15.5908 96.7107 15.193C95.5638 14.8501 93.1757 15.0923 91.8871 15.7925C90.9312 16.312 91.6306 17.7052 91.6306 17.7052C92.1091 17.7272 92.0042 16.4579 93.1331 16.4579C94.0058 16.4579 94.7745 17.7484 95.5916 17.7828C96.3396 17.8143 96.4932 18.2699 96.4667 18.5621C96.3064 20.3332 96.4977 22.8194 96.6925 23.442Z" fill="#0F1011"/>
<path d="M95.4506 20.6959C95.4325 20.9629 95.5204 21.2263 95.6952 21.4291C95.87 21.6319 96.1176 21.7578 96.3845 21.7796C96.6514 21.8014 96.9162 21.7173 97.1216 21.5455C97.327 21.3737 97.4564 21.1281 97.482 20.8617C97.4953 20.7279 97.4815 20.5929 97.4415 20.4646C97.4014 20.3363 97.336 20.2173 97.2489 20.1148C97.1619 20.0123 97.0552 19.9284 96.935 19.868C96.8149 19.8076 96.6838 19.772 96.5496 19.7633C95.824 19.7403 95.4973 20.1353 95.4506 20.6959Z" fill="#FDBFA6"/>
<g opacity="0.15">
<path d="M93.1339 21.4405C93.1538 21.4405 93.173 21.4334 93.1881 21.4205C93.2031 21.4075 93.213 21.3896 93.216 21.3699C93.2189 21.3503 93.2147 21.3303 93.2042 21.3134C93.1936 21.2966 93.1773 21.2842 93.1583 21.2784L92.6693 21.1283L93.0115 20.3672C93.0205 20.3472 93.0212 20.3243 93.0133 20.3038C93.0055 20.2832 92.9898 20.2666 92.9697 20.2576C92.9496 20.2485 92.9268 20.2479 92.9062 20.2557C92.8856 20.2635 92.869 20.2792 92.86 20.2993L92.4795 21.1459C92.4747 21.1566 92.4722 21.1682 92.4722 21.18C92.4722 21.1918 92.4747 21.2034 92.4795 21.2142C92.4844 21.2249 92.4915 21.2345 92.5003 21.2423C92.5091 21.25 92.5195 21.2558 92.5308 21.2593L93.1095 21.4369C93.1174 21.4393 93.1256 21.4405 93.1339 21.4405Z" fill="black"/>
</g>
<path d="M94.0904 22.0001C94.0904 22.0001 93.2029 22.0936 92.5806 21.8764C92.5806 21.8764 92.5855 22.4606 93.2877 22.5181C93.9899 22.5757 94.0904 22.0001 94.0904 22.0001Z" fill="white"/>
<path d="M91.8085 15.8822C90.9483 16.4579 91.1177 17.5611 91.2791 18.5186H92.3439L92.7906 16.9696L93.3353 18.5186L97.4868 18.6622L96.9862 16.6047" fill="#0F1011"/>
<path d="M99.6158 24.349C100.899 24.349 101.94 23.3092 101.94 22.0266C101.94 20.7441 100.899 19.7043 99.6158 19.7043C98.3324 19.7043 97.292 20.7441 97.292 22.0266C97.292 23.3092 98.3324 24.349 99.6158 24.349Z" fill="#0F1011"/>
<path d="M79.7493 26.8789C79.7493 26.8789 79.7244 24.8875 78.3001 24.9912C77.4015 25.0565 73.1316 24.8585 73.0681 25.247C72.9108 26.2087 76.8165 26.4438 77.1708 27.34L79.7493 26.8789Z" fill="#FDBFA6"/>
<path d="M78.8047 25.055C78.8047 25.055 76.8222 24.4083 76.3349 24.5244C75.9035 24.6269 76.8028 25.3286 76.8028 25.3286L78.8047 25.055Z" fill="#FDBFA6"/>
<path d="M88.0936 45.1185C88.7886 46.7152 102.448 47.3785 102.631 44.5696C102.747 42.7822 101.171 41.2219 101.171 37.7383C101.171 34.2546 103.537 30.6466 100.924 28.0351C100.165 27.2773 99.6975 25.9476 98.1014 25.9459C97.982 26.8761 92.3309 26.8794 92.2878 25.9674C92.0721 25.9708 91.9045 25.9741 91.8 25.9791C86.2949 26.2162 88.7139 32.4771 88.767 37.0767C88.8317 42.459 87.3767 43.4736 88.0936 45.1185Z" fill="white"/>
<path d="M92.2881 25.9674C92.3312 26.8794 92.8273 28.2208 94.3587 28.3219C96.3995 28.4563 97.9823 26.8761 98.1017 25.9459H98.0968C96.0875 25.9459 93.4599 25.9492 92.2881 25.9674Z" fill="#FDBFA6"/>
<path d="M101.765 27.1939C101.007 26.4362 99.6683 25.9172 98.0722 25.9162C97.4486 25.9162 97.5806 25.8235 97.3319 27.1379C97.1376 28.5571 96.7142 31.2624 96.3945 34.437L94.4131 38.5806L92.7464 38.5297C92.7553 37.4685 92.7774 36.4169 92.8278 35.433C92.9937 32.1699 93.2341 26.2667 92.9007 25.9334C92.8456 25.8784 91.4882 25.9388 91.3978 25.9426C90.2082 25.9946 89.4305 26.3851 88.9369 27.0115L83.4682 32.3428L79.9166 25.7156L76.8452 27.3594L81.4908 36.0278C81.6184 36.2657 81.7995 36.4708 82.0199 36.6267C82.2403 36.7827 82.494 36.8853 82.761 36.9265C83.0279 36.9676 83.3007 36.9462 83.5579 36.8639C83.8152 36.7815 84.0497 36.6406 84.243 36.4521L88.333 32.4655C88.5046 34.0102 88.7505 35.6285 88.7672 37.077C88.7729 37.5488 88.7647 37.9908 88.7466 38.4086L85.1662 38.2995L85.056 41.9132L88.2801 42.0114C87.8869 43.8215 87.4651 44.8333 87.8947 45.8188C88.0981 46.2859 89.4929 46.7517 91.2818 47.0248C91.5981 47.0723 91.9203 46.9923 92.1775 46.8025C92.4348 46.6126 92.606 46.3284 92.6536 46.0123C92.6586 45.9792 92.6622 45.9457 92.6644 45.9119C92.7318 44.8981 92.7424 43.5844 92.7425 42.148L95.4818 42.2309C95.5002 42.2309 95.5186 42.2319 95.5372 42.2319C95.6909 42.231 95.8439 42.2105 95.9923 42.1707C95.9993 43.5199 96.0799 44.8677 96.2336 46.2082C96.276 46.5548 96.45 46.872 96.7197 47.0941C96.9893 47.3163 97.334 47.4265 97.6827 47.402C101.988 47.0994 102.56 45.687 102.631 44.5706C102.747 42.7832 101.171 41.2229 101.171 37.7393C101.171 34.2556 104.378 29.8054 101.765 27.1939Z" fill="#EB008B"/>
<path d="M85.9107 29.6799L87.9252 38.1316C87.9565 38.2631 87.9576 38.3999 87.9284 38.5319C87.8992 38.6639 87.8405 38.7875 87.7567 38.8936C87.6729 38.9997 87.5661 39.0854 87.4444 39.1444C87.3227 39.2033 87.1892 39.234 87.054 39.234H75.176C74.9797 39.234 74.789 39.1696 74.6329 39.0507C74.4769 38.9318 74.3642 38.765 74.3122 38.5759L71.9909 30.1245C71.9544 29.9916 71.9491 29.8521 71.9754 29.7169C72.0017 29.5817 72.0589 29.4543 72.1425 29.3448C72.226 29.2353 72.3338 29.1465 72.4573 29.0853C72.5808 29.0242 72.7168 28.9924 72.8546 28.9923H85.0381C85.2398 28.9921 85.4356 29.0598 85.5939 29.1846C85.7523 29.3094 85.8639 29.4839 85.9107 29.6799Z" fill="#165F66"/>
<path d="M92.1526 39.2332H77.7973C77.6577 39.2332 77.5238 39.1778 77.4251 39.0792C77.3264 38.9805 77.271 38.8467 77.271 38.7073C77.271 38.5678 77.3264 38.434 77.4251 38.3353C77.5238 38.2367 77.6577 38.1813 77.7973 38.1813H92.1521C92.2917 38.1813 92.4255 38.2367 92.5242 38.3353C92.6229 38.434 92.6784 38.5678 92.6784 38.7073C92.6784 38.8467 92.623 38.9804 92.5244 39.079C92.4258 39.1776 92.2921 39.2331 92.1526 39.2332Z" fill="#165F66"/>
<path d="M79.4715 35.4327C80.2473 35.4327 80.8762 34.8042 80.8762 34.029C80.8762 33.2537 80.2473 32.6252 79.4715 32.6252C78.6958 32.6252 78.0669 33.2537 78.0669 34.029C78.0669 34.8042 78.6958 35.4327 79.4715 35.4327Z" fill="white"/>
<path d="M82.1775 40.3425C82.9224 40.8018 84.0755 41.019 85.081 41.0986L85.1376 39.2681C84.6645 39.2548 83.9378 39.205 83.2262 39.2332C82.9045 38.9713 82.7194 38.8933 82.3892 38.5634C82.0378 38.2122 81.1156 38.0013 80.9414 38.5634C80.7672 39.1255 81.5229 39.9388 82.1775 40.3425Z" fill="#FDBFA6"/>
<path d="M19.4048 87.3842C18.1585 87.0267 17.2202 85.9123 16.8476 84.6712C16.4749 83.4301 16.6062 82.0834 16.9703 80.8398C17.2673 79.8249 17.717 78.8438 17.8286 77.7923C18.1981 74.2907 14.7995 70.713 16.3988 67.5756C16.9159 66.5611 17.9167 65.7682 18.0954 64.6436C18.2431 63.7137 17.7846 62.8099 17.5567 61.8961C17.2431 60.6387 17.402 59.212 18.2183 58.205C19.0347 57.198 20.5773 56.7581 21.7026 57.403C23.1737 58.2463 23.3013 60.3285 22.9232 61.9808C22.5451 63.6331 21.8448 65.333 22.3063 66.9639C22.7467 68.5184 24.1797 69.6888 24.4365 71.2837C24.6502 72.6102 24.0025 73.9025 23.7179 75.2151C23.27 77.2781 23.7259 79.4165 23.7455 81.5271C23.7651 83.6377 23.1683 86.0055 19.4048 87.3842Z" fill="#AAE5EA"/>
<path d="M17.4815 87.5847C16.7398 87.3491 16.0742 86.9204 15.5531 86.3428C15.032 85.7651 14.6741 85.0592 14.5162 84.2977C14.2723 83.0416 14.5718 81.6309 13.8839 80.552C12.952 79.0902 11.9955 78.9254 10.8357 77.6364C9.05164 75.6548 8.98892 74.7772 9.10656 71.1072C9.15633 69.5552 7.01204 67.8037 7.76729 66.3126C8.43261 64.9987 10.4551 64.9921 11.6021 65.9165C12.7491 66.8409 13.2528 68.3229 13.7525 69.7081C14.2522 71.0932 14.8824 72.5583 16.1492 73.3109C16.9089 73.7618 17.9035 73.9702 18.3226 74.7473C18.6598 75.3718 18.4899 76.134 18.3543 76.8304C18.0137 78.5814 18.099 80.717 19.5693 81.7283C20.233 82.1844 21.1014 82.3418 21.6466 82.9337C22.1858 83.5192 22.2728 84.3865 22.2363 85.1813C22.1645 86.7094 21.7432 88.2007 21.0047 89.5407" fill="#D5FAFD"/>
<path d="M19.2545 88.8039C18.6061 88.0319 18.2153 87.0767 18.1368 86.0719C18.0582 85.067 18.2958 84.0628 18.8163 83.1995C19.7164 81.7744 21.3938 80.7928 21.746 79.1446C22.0598 77.6767 21.1897 76.16 21.4502 74.6815C21.7334 73.074 23.2194 72.0191 24.3999 70.8909C24.7069 70.6169 24.9711 70.2983 25.1836 69.9458C25.7028 69.012 25.5581 67.8666 25.7343 66.8129C26.0718 64.7951 27.7354 63.0054 29.7551 62.6719C31.5264 62.3793 32.7952 63.3962 32.7952 65.269C32.7952 67.4877 31.1322 68.4385 30.2837 69.4429C29.0651 70.897 28.4183 72.745 28.4644 74.6412C28.5242 76.7593 29.4268 79.0143 28.4626 80.9015C27.755 82.2864 26.2438 83.0247 25.0564 84.0297C24.1591 84.798 23.4287 85.7417 22.9102 86.8027C22.3916 87.8637 22.0958 89.0196 22.041 90.1992" fill="#D5FAFD"/>
<path d="M24.9671 85.3253H14.2856V96H24.9671V85.3253Z" fill="#1A727A"/>
<g opacity="0.42">
<path d="M24.9671 87.4067H14.2856V89.4903H24.9671V87.4067Z" fill="white"/>
</g>
<path d="M42.7371 45.0442C55.1836 45.0442 65.2735 34.9607 65.2735 22.5221C65.2735 10.0835 55.1836 0 42.7371 0C30.2906 0 20.2007 10.0835 20.2007 22.5221C20.2007 34.9607 30.2906 45.0442 42.7371 45.0442Z" fill="#D5FAFD"/>
<path d="M42.737 40.5894C52.7216 40.5894 60.8158 32.5004 60.8158 22.5221C60.8158 12.5438 52.7216 4.4548 42.737 4.4548C32.7523 4.4548 24.6582 12.5438 24.6582 22.5221C24.6582 32.5004 32.7523 40.5894 42.737 40.5894Z" fill="white"/>
<path d="M42.7373 36.0442C50.2101 36.0442 56.268 29.9902 56.268 22.5221C56.268 15.054 50.2101 8.99998 42.7373 8.99998C35.2645 8.99998 29.2065 15.054 29.2065 22.5221C29.2065 29.9902 35.2645 36.0442 42.7373 36.0442Z" fill="#D5FAFD"/>
<path d="M42.7371 31.5128C47.7057 31.5128 51.7336 27.4875 51.7336 22.5221C51.7336 17.5567 47.7057 13.5314 42.7371 13.5314C37.7686 13.5314 33.7407 17.5567 33.7407 22.5221C33.7407 27.4875 37.7686 31.5128 42.7371 31.5128Z" fill="white"/>
<path d="M42.7371 27.1215C45.2789 27.1215 47.3394 25.0623 47.3394 22.5221C47.3394 19.9819 45.2789 17.9227 42.7371 17.9227C40.1953 17.9227 38.1348 19.9819 38.1348 22.5221C38.1348 25.0623 40.1953 27.1215 42.7371 27.1215Z" fill="#D5FAFD"/>
<path d="M58.5439 38.6821L58.321 40.5894L55.7793 38.0493L56.0023 36.142L58.5439 38.6821Z" fill="#FFB400"/>
<path d="M60.4087 38.503L58.5002 38.7258L55.9585 36.1858L57.867 35.963L60.4087 38.503Z" fill="#FFB400"/>
<path d="M43.1909 23.6338C43.2755 23.5493 43.3902 23.5018 43.5098 23.5018C43.6294 23.5018 43.7441 23.5493 43.8287 23.6338L58.7152 38.5108L58.0774 39.1482L43.1911 24.2713C43.1065 24.1868 43.059 24.0722 43.059 23.9526C43.059 23.8331 43.1064 23.7184 43.1909 23.6338Z" fill="#FFB400"/>
<path d="M65.1901 24.7454L66.1368 26.4166L62.5849 25.866L61.6382 24.1948L65.1901 24.7454Z" fill="#FFB400"/>
<path d="M66.5893 23.5009L65.1803 24.8068L61.6284 24.256L63.0374 22.9501L66.5893 23.5009Z" fill="#FFB400"/>
<path d="M43.9086 21.6569C43.9269 21.5388 43.9915 21.4328 44.088 21.3622C44.1846 21.2916 44.3052 21.2623 44.4234 21.2806L65.2275 24.5028L65.0891 25.3935L44.285 22.1712C44.1668 22.1529 44.0607 22.0884 43.9901 21.992C43.9196 21.8955 43.8902 21.775 43.9086 21.6569Z" fill="#FFB400"/>
</g>
<defs>
<clipPath id="clip0_2639_2691">
<rect width="126.893" height="96" fill="white"/>
</clipPath>
</defs>
</svg>
