<svg width="100%" height="auto" viewBox="0 0 96 96" fill="none" xmlns="http://www.w3.org/2000/svg">
<path d="M7.88111 82.996C5.02565 82.9991 2.47571 80.9231 1.50765 77.807C-0.568973 71.0989 -1.70471 59.3655 6.42361 45.9247C15.4113 31.063 25.0037 17.7386 47.3084 16.0107C66.9848 14.9227 72.5292 42.1128 86.5365 51.4569C100.082 60.4937 98.5046 82.1456 85.5118 82.9951L7.88111 82.996Z" fill="#F3F5FD"/>
<path d="M85.4479 82.9961H80.4416C79.5714 81.8516 78.0456 79.5425 79.0318 78.5564C79.4802 78.1089 79.9733 78.5343 80.4323 79.2981C80.2748 77.8023 80.4323 76.3728 81.4732 75.9554C82.4211 75.5762 82.8448 76.7219 83.0086 78.2591C83.4748 77.3848 84.089 76.7696 84.8898 76.8182C86.0354 76.8866 85.7589 78.4145 85.0887 80.1061C85.5973 79.7195 86.1288 79.5291 86.6461 79.6989C87.731 80.0543 86.7178 81.576 85.4479 82.9961Z" fill="#8DDBE0"/>
<path d="M69.7439 82.6343H78.7412V73.0116H69.7439V82.6343Z" fill="#D7E8F4"/>
<path d="M66.9568 82.6343H75.9541V73.0116H66.9568V82.6343Z" fill="white"/>
<path d="M69.5781 75.3057V77.1836V82.996H79.4258V77.1836V75.3057H69.5781Z" fill="#C1D8ED"/>
<path d="M76.4382 75.3057H66.5903V82.996H76.4382V75.3057Z" fill="#DEE8F5"/>
<path d="M76.4382 75.3057H66.5903V75.8821H76.4382V75.3057Z" fill="#C1D8ED"/>
<path d="M72.5836 76.8506H70.4456C70.3079 76.8506 70.1963 76.9622 70.1963 77.0999V77.756C70.1963 77.8937 70.3079 78.0053 70.4456 78.0053H72.5836C72.7213 78.0053 72.8329 77.8937 72.8329 77.756V77.0999C72.8329 76.9622 72.7213 76.8506 72.5836 76.8506Z" fill="white"/>
<path d="M69.5584 73.6479L79.3408 74.7808L79.5569 72.9153L69.7744 71.7824L69.5584 73.6479Z" fill="#C1D8ED"/>
<path d="M66.5901 73.3036L76.3726 74.4365L76.5886 72.5711L66.8062 71.4382L66.5901 73.3036Z" fill="#DEE8F5"/>
<path d="M70.1874 74.4692H66.9566C66.7836 74.6136 66.6563 74.8052 66.5903 75.0206C66.5903 75.0206 67.7052 74.6805 70.1874 74.4692Z" fill="#DEE8F5"/>
<path d="M72.4487 13H30.7588V67.082H72.4487V13Z" fill="#DEE8F5"/>
<path d="M67.9086 43.4849H42.1787V44.2594H67.9086V43.4849Z" fill="#C1D8ED"/>
<path d="M67.9086 51.6826H42.1787V52.4572H67.9086V51.6826Z" fill="#C1D8ED"/>
<path d="M67.9086 59.8809H42.1787V60.6554H67.9086V59.8809Z" fill="#C1D8ED"/>
<path d="M36.8505 46.1488C36.7427 46.1488 36.639 46.1076 36.5606 46.0337L35.1111 44.666C35.0703 44.6281 35.0373 44.5824 35.0142 44.5317C34.991 44.4809 34.9782 44.4261 34.9763 44.3704C34.9745 44.3146 34.9837 44.2591 35.0034 44.2069C35.0231 44.1548 35.053 44.107 35.0913 44.0665C35.1295 44.0259 35.1755 43.9933 35.2264 43.9706C35.2773 43.9479 35.3323 43.9355 35.388 43.9341C35.4438 43.9327 35.4992 43.9424 35.5512 43.9626C35.6032 43.9827 35.6507 44.013 35.6909 44.0516L36.8271 45.1237L39.2959 42.4034C39.3329 42.3614 39.3779 42.3271 39.4282 42.3027C39.4786 42.2782 39.5333 42.264 39.5892 42.2609C39.6451 42.2578 39.701 42.2658 39.7538 42.2845C39.8065 42.3032 39.8551 42.3322 39.8965 42.3698C39.938 42.4074 39.9716 42.4529 39.9953 42.5036C40.019 42.5543 40.0324 42.6092 40.0348 42.6651C40.0371 42.7211 40.0283 42.7769 40.0088 42.8294C39.9894 42.8819 39.9597 42.93 39.9215 42.9709L37.1632 46.0103C37.1255 46.0519 37.0799 46.0855 37.029 46.1092C36.9781 46.133 36.923 46.1463 36.8669 46.1485L36.8505 46.1488Z" fill="white"/>
<path d="M36.8505 54.2386C36.7427 54.2387 36.639 54.1975 36.5606 54.1235L35.1111 52.7558C35.0703 52.7179 35.0373 52.6722 35.0142 52.6215C34.991 52.5708 34.9782 52.516 34.9763 52.4602C34.9745 52.4045 34.9837 52.3489 35.0034 52.2968C35.0231 52.2446 35.053 52.1969 35.0913 52.1563C35.1295 52.1158 35.1755 52.0832 35.2264 52.0605C35.2773 52.0378 35.3323 52.0253 35.388 52.024C35.4438 52.0226 35.4992 52.0323 35.5512 52.0524C35.6032 52.0726 35.6507 52.1028 35.6909 52.1415L36.8271 53.2136L39.2959 50.4932C39.3329 50.4512 39.3779 50.417 39.4282 50.3925C39.4786 50.3681 39.5333 50.3539 39.5892 50.3508C39.6451 50.3476 39.701 50.3557 39.7538 50.3743C39.8065 50.393 39.8551 50.422 39.8965 50.4596C39.938 50.4972 39.9716 50.5427 39.9953 50.5934C40.019 50.6441 40.0324 50.699 40.0348 50.755C40.0371 50.8109 40.0283 50.8667 40.0088 50.9192C39.9894 50.9717 39.9597 51.0198 39.9215 51.0607L37.1632 54.1001C37.1255 54.1417 37.0799 54.1754 37.029 54.1991C36.9781 54.2228 36.923 54.2362 36.8669 54.2383L36.8505 54.2386Z" fill="white"/>
<path d="M36.8509 62.4362C36.7431 62.4362 36.6394 62.395 36.561 62.3211L35.1115 60.9533C35.03 60.8764 34.9824 60.7703 34.9792 60.6583C34.9759 60.5463 35.0173 60.4376 35.0942 60.3561C35.1711 60.2747 35.2772 60.2271 35.3892 60.2238C35.5011 60.2206 35.6098 60.2619 35.6913 60.3388L36.8275 61.4111L39.2963 58.6905C39.3334 58.6491 39.3784 58.6155 39.4287 58.5915C39.4789 58.5675 39.5334 58.5537 39.589 58.5508C39.6445 58.548 39.7001 58.5562 39.7526 58.5749C39.805 58.5936 39.8532 58.6225 39.8944 58.6599C39.9356 58.6973 39.9691 58.7424 39.9928 58.7928C40.0165 58.8432 40.03 58.8977 40.0325 58.9533C40.0351 59.0089 40.0266 59.0645 40.0076 59.1168C39.9887 59.1691 39.9595 59.2172 39.9219 59.2582L37.1637 62.2975C37.126 62.339 37.0803 62.3727 37.0294 62.3964C36.9785 62.4201 36.9234 62.4335 36.8673 62.4356L36.8509 62.4362Z" fill="white"/>
<path d="M69.2919 15.9795H33.9155V38.854H69.2919V15.9795Z" fill="#F3F5FD"/>
<path d="M66.7729 36.3539H36.3348C36.3007 36.3539 36.2679 36.3403 36.2438 36.3161C36.2196 36.292 36.2061 36.2592 36.2061 36.2251V18.7123C36.2061 18.6781 36.2196 18.6454 36.2438 18.6212C36.2679 18.5971 36.3007 18.5835 36.3348 18.5835C36.369 18.5835 36.4018 18.5971 36.4259 18.6212C36.4501 18.6454 36.4636 18.6781 36.4636 18.7123V36.0969H66.7729C66.7902 36.0964 66.8073 36.0994 66.8234 36.1056C66.8394 36.1119 66.8541 36.1213 66.8664 36.1333C66.8788 36.1453 66.8886 36.1596 66.8953 36.1755C66.902 36.1914 66.9055 36.2084 66.9055 36.2257C66.9055 36.2429 66.902 36.26 66.8953 36.2758C66.8886 36.2917 66.8788 36.3061 66.8664 36.3181C66.8541 36.3301 66.8394 36.3395 66.8234 36.3457C66.8073 36.352 66.7902 36.3549 66.7729 36.3544V36.3539Z" fill="#C1D8ED"/>
<path d="M37.3429 35.0664C37.3166 35.0665 37.291 35.0585 37.2694 35.0436C37.2478 35.0286 37.2313 35.0075 37.2221 34.9829C37.2129 34.9583 37.2114 34.9315 37.2178 34.9061C37.2242 34.8807 37.2383 34.8578 37.258 34.8405L45.4218 27.716C45.445 27.6958 45.4745 27.6845 45.5052 27.6842C45.5359 27.6839 45.5657 27.6946 45.5893 27.7143L48.032 29.7603L54.905 24.7817C54.9268 24.7659 54.9531 24.7573 54.9801 24.7572C55.0071 24.757 55.0334 24.7654 55.0554 24.7811L59.0804 27.6515L65.6838 22.3182C65.6969 22.3075 65.7121 22.2996 65.7283 22.2948C65.7445 22.29 65.7615 22.2885 65.7783 22.2903C65.7952 22.2921 65.8115 22.2971 65.8263 22.3052C65.8412 22.3133 65.8543 22.3242 65.8649 22.3374C65.8756 22.3506 65.8835 22.3657 65.8883 22.3819C65.8931 22.3981 65.8946 22.4151 65.8929 22.432C65.8911 22.4488 65.886 22.4651 65.8779 22.4799C65.8698 22.4948 65.8589 22.5079 65.8457 22.5185L59.1661 27.9132C59.1442 27.9309 59.1171 27.9409 59.089 27.9418C59.0609 27.9426 59.0333 27.9342 59.0104 27.9179L54.9811 25.0442L48.1018 30.0275C48.0785 30.0443 48.0503 30.0529 48.0217 30.0519C47.993 30.0509 47.9655 30.0403 47.9435 30.0219L45.5083 27.9822L37.4275 35.0343C37.4041 35.0549 37.374 35.0663 37.3429 35.0664Z" fill="#C1D8ED"/>
<path d="M65.5126 23.2049C65.8446 23.2049 66.1136 22.9359 66.1136 22.6039C66.1136 22.272 65.8446 22.0029 65.5126 22.0029C65.1807 22.0029 64.9116 22.272 64.9116 22.6039C64.9116 22.9359 65.1807 23.2049 65.5126 23.2049Z" fill="#C1D8ED"/>
<g opacity="0.77">
<path d="M66.7726 20.1602H36.2485V20.246H66.7726V20.1602Z" fill="#C1D8ED"/>
<path d="M66.7726 22.8076H36.2485V22.8934H66.7726V22.8076Z" fill="#C1D8ED"/>
<path d="M66.7726 25.4551H36.2485V25.5409H66.7726V25.4551Z" fill="#C1D8ED"/>
<path d="M66.7726 28.1025H36.2485V28.1884H66.7726V28.1025Z" fill="#C1D8ED"/>
<path d="M66.7726 30.7495H36.2485V30.8353H66.7726V30.7495Z" fill="#C1D8ED"/>
<path d="M66.7726 33.3965H36.2485V33.4823H66.7726V33.3965Z" fill="#C1D8ED"/>
</g>
<path d="M19.7351 81.8006L17.4316 81.5268C17.5354 80.655 17.6526 79.6077 17.6605 79.436C17.66 79.4471 17.6605 79.456 17.6605 79.4631H19.9801C19.9797 79.5326 19.9797 79.7442 19.7351 81.8006Z" fill="#E98862"/>
<path d="M10.4925 82.0778L8.17285 82.0703C8.17285 82.0703 8.18058 79.675 8.18058 79.4629H10.5002C10.5002 79.6756 10.4925 82.0778 10.4925 82.0778Z" fill="#E98862"/>
<path d="M16.5048 81.0684L20.5918 80.9988C20.4219 76.695 20.3929 71.7723 20.3473 67.318C20.3346 66.2138 20.2513 65.1117 20.0977 64.0182C19.4402 59.2991 19.0113 54.6072 18.1262 49.9151L18.0967 49.9238L18.0103 49.3351L9.60697 48.8159L9.16956 54.3063C9.16956 54.3063 8.07491 73.2998 7.5752 80.9366L11.6477 81.2808C12.3815 73.7933 13.517 62.8833 14.2154 55.0174C15.0175 58.8469 15.563 62.8122 16.2604 66.6089C16.4001 71.3615 16.5178 76.3299 16.5048 81.0684Z" fill="#262626"/>
<path d="M13.3123 82.9754C13.3747 82.9751 13.4363 82.9619 13.4934 82.9367C13.5505 82.9116 13.6018 82.8749 13.644 82.829C13.6863 82.7831 13.7186 82.729 13.739 82.67C13.7595 82.6111 13.7675 82.5486 13.7626 82.4864C13.7559 82.4002 13.7247 82.3177 13.6726 82.2486C13.6206 82.1796 13.5499 82.1268 13.4689 82.0965L10.769 81.1922C10.7167 81.1749 10.6613 81.1691 10.6065 81.1752C10.5518 81.1813 10.499 81.1992 10.4518 81.2276C10.0806 81.4851 9.63657 81.6167 9.18502 81.6031C8.83334 81.5781 8.49576 81.4548 8.21077 81.2472C8.18573 81.2267 8.15536 81.2137 8.1232 81.2097C8.09104 81.2058 8.05842 81.2111 8.02916 81.225C7.99989 81.2388 7.97518 81.2608 7.95791 81.2882C7.94065 81.3156 7.93153 81.3474 7.93164 81.3798V82.7C7.93164 82.7389 7.93933 82.7775 7.95426 82.8134C7.9692 82.8494 7.99109 82.8821 8.01867 82.9095C8.04626 82.937 8.079 82.9588 8.11501 82.9736C8.15103 82.9884 8.18961 82.9959 8.22855 82.9958L13.3123 82.9754Z" fill="#C1D8ED"/>
<path d="M22.5614 82.9754C22.6238 82.9751 22.6855 82.9619 22.7425 82.9367C22.7996 82.9116 22.8509 82.8749 22.8931 82.829C22.9354 82.7831 22.9677 82.729 22.9881 82.67C23.0085 82.6111 23.0165 82.5485 23.0117 82.4864C23.0049 82.4002 22.9737 82.3177 22.9217 82.2486C22.8697 82.1796 22.7991 82.1268 22.7181 82.0965L20.0181 81.1922C19.9658 81.1749 19.9104 81.1691 19.8556 81.1752C19.8009 81.1813 19.7481 81.1992 19.7009 81.2276C19.3297 81.4851 18.8857 81.6167 18.4342 81.6031C18.0824 81.5781 17.7448 81.4548 17.4598 81.2472C17.4348 81.2267 17.4044 81.2137 17.3722 81.2097C17.3401 81.2058 17.3074 81.2111 17.2782 81.225C17.2489 81.2388 17.2242 81.2608 17.2069 81.2882C17.1897 81.3156 17.1806 81.3474 17.1807 81.3798V82.7C17.1807 82.7389 17.1884 82.7775 17.2033 82.8135C17.2182 82.8494 17.2401 82.8821 17.2677 82.9096C17.2953 82.9371 17.3281 82.9588 17.3641 82.9736C17.4001 82.9884 17.4387 82.9959 17.4777 82.9958L22.5614 82.9754Z" fill="#C1D8ED"/>
<path d="M12.2778 37.378C12.2778 37.378 13.1319 36.9251 12.9412 34.5993L14.7059 34.272C14.7059 34.272 14.5077 36.3573 15.4004 37.0194L12.2778 37.378Z" fill="#E98862"/>
<g opacity="0.15">
<path d="M15.0389 36.5832L13.5728 35.4616L14.7243 35.4497C14.7576 35.8439 14.8643 36.2283 15.0389 36.5832Z" fill="black"/>
</g>
<path d="M11.94 33.697C12.0622 34.4026 12.4473 35.0709 13.0697 35.2986C13.8087 35.5691 14.356 35.5875 15.208 35.5875C16.3705 35.5875 16.3321 34.375 16.3648 33.1532C16.3979 31.9264 16.3 30.6105 15.8404 30.1831C14.9236 29.3299 12.2314 29.8702 11.904 31.2974C11.7347 32.0357 11.8237 33.0257 11.94 33.697Z" fill="#E98862"/>
<path d="M16.9881 30.893C16.9881 30.893 17.4642 30.7866 17.3339 30.3118C17.2475 29.9969 16.8441 30.0668 16.8441 30.0668C16.8441 30.0668 17.2261 29.9969 17.2261 29.6634C17.2261 29.4536 17.0646 29.0975 16.5776 29.3009C16.0061 29.5396 15.3542 29.5089 14.8587 29.4256C14.5783 29.3642 14.2937 29.3241 14.0073 29.3055H14.0059C13.6766 29.2997 13.3484 29.3436 13.0323 29.4357C12.1464 29.7008 10.8058 30.495 11.0908 32.2958C11.4089 34.3055 12.352 35.074 12.7669 35.3206C12.7914 35.3354 12.819 35.3444 12.8475 35.347C12.8761 35.3495 12.9048 35.3456 12.9316 35.3354C12.9584 35.3252 12.9826 35.3091 13.0022 35.2882C13.0218 35.2673 13.0365 35.2422 13.045 35.2149C13.1626 34.8382 13.3653 33.8905 13.3087 31.9362C16.0317 31.8027 16.8152 31.7622 16.8152 31.7622C16.8152 31.7622 17.4558 31.7862 17.4558 31.3179C17.4558 30.8496 16.9881 30.893 16.9881 30.893Z" fill="#0F1011"/>
<path d="M14.704 33.1541C14.7924 33.1541 14.8641 33.0824 14.8641 32.994C14.8641 32.9056 14.7924 32.834 14.704 32.834C14.6156 32.834 14.5439 32.9056 14.5439 32.994C14.5439 33.0824 14.6156 33.1541 14.704 33.1541Z" fill="#0F1011"/>
<path d="M15.9667 33.0501C16.0551 33.0501 16.1268 32.9784 16.1268 32.89C16.1268 32.8016 16.0551 32.73 15.9667 32.73C15.8783 32.73 15.8066 32.8016 15.8066 32.89C15.8066 32.9784 15.8783 33.0501 15.9667 33.0501Z" fill="#0F1011"/>
<path d="M16.2438 32.5493H16.2429L15.8189 32.5439C15.7989 32.5436 15.7799 32.5355 15.766 32.5212C15.7521 32.5069 15.7444 32.4877 15.7446 32.4678C15.7452 32.4479 15.7534 32.4291 15.7677 32.4152C15.7819 32.4013 15.801 32.3936 15.8209 32.3936L16.2448 32.3989C16.2647 32.399 16.2838 32.407 16.2978 32.4212C16.3118 32.4354 16.3196 32.4546 16.3195 32.4746C16.3194 32.4945 16.3113 32.5136 16.2971 32.5276C16.2829 32.5416 16.2637 32.5494 16.2438 32.5493Z" fill="#0F1011"/>
<path d="M14.3585 32.7038C14.3401 32.7037 14.3225 32.6968 14.3088 32.6846C14.2951 32.6724 14.2864 32.6555 14.2842 32.6373C14.2821 32.6191 14.2866 32.6007 14.2971 32.5856C14.3075 32.5705 14.3231 32.5598 14.3409 32.5553L14.759 32.4548C14.7782 32.4507 14.7983 32.4542 14.8149 32.4647C14.8316 32.4751 14.8435 32.4917 14.8481 32.5108C14.8527 32.5299 14.8496 32.55 14.8395 32.5669C14.8294 32.5838 14.8131 32.5961 14.7941 32.6011L14.3762 32.7017C14.3704 32.7031 14.3644 32.7038 14.3585 32.7038Z" fill="#0F1011"/>
<path d="M13.871 33.3851C13.8844 33.5639 13.8267 33.7407 13.7102 33.8769C13.5938 34.0132 13.4282 34.0979 13.2496 34.1125C13.0709 34.1271 12.8938 34.0704 12.7568 33.9548C12.6198 33.8392 12.5341 33.6741 12.5184 33.4956C12.5096 33.4065 12.5188 33.3165 12.5454 33.231C12.5721 33.1455 12.6157 33.0663 12.6736 32.998C12.7316 32.9297 12.8026 32.8738 12.8826 32.8336C12.9626 32.7933 13.0499 32.7696 13.1393 32.7638C13.6229 32.7486 13.8407 33.0116 13.871 33.3851Z" fill="#E98862"/>
<g opacity="0.15">
<path d="M15.4137 33.8811C15.4004 33.8811 15.3876 33.8764 15.3776 33.8677C15.3676 33.8591 15.361 33.8472 15.359 33.8341C15.357 33.821 15.3598 33.8076 15.3669 33.7965C15.3739 33.7853 15.3848 33.777 15.3974 33.7731L15.7231 33.6731L15.4953 33.1661C15.4895 33.1528 15.4892 33.1377 15.4944 33.1242C15.4997 33.1106 15.51 33.0997 15.5233 33.0937C15.5365 33.0878 15.5516 33.0873 15.5652 33.0923C15.5788 33.0974 15.5899 33.1076 15.596 33.1208L15.8494 33.6849C15.8526 33.6921 15.8543 33.6998 15.8543 33.7077C15.8543 33.7155 15.8526 33.7232 15.8494 33.7304C15.8461 33.7375 15.8414 33.7439 15.8356 33.749C15.8297 33.7542 15.8228 33.7581 15.8153 33.7604L15.4299 33.8787C15.4246 33.8803 15.4192 33.8811 15.4137 33.8811Z" fill="black"/>
</g>
<path d="M14.7778 34.2543C14.7778 34.2543 15.3686 34.3166 15.783 34.1719C15.783 34.1719 15.7798 34.5609 15.3122 34.5992C14.8447 34.6376 14.7778 34.2543 14.7778 34.2543Z" fill="white"/>
<path d="M31.3949 43.5426C31.3949 43.5426 32.3015 43.102 32.9826 43.2711C33.6637 43.4402 33.3445 43.7332 32.849 43.8375C32.3534 43.9418 31.2646 44.1113 31.2646 44.1113" fill="#E98862"/>
<path d="M31.9245 43.5218C31.9245 43.5218 33.6054 43.3451 33.623 43.7496C33.623 43.7496 33.6965 44.9978 33.4683 45.1902C33.1236 45.4814 31.416 45.2534 31.416 45.2534L31.9245 43.5218Z" fill="#E98862"/>
<path d="M27.4809 45.5837H20.911C20.7165 45.5837 20.5251 45.5347 20.3545 45.4414C20.1838 45.348 20.0394 45.2132 19.9345 45.0494L15.7832 38.569L17.7363 37.3179L21.5455 43.2641H27.4809V45.5837Z" fill="#2771C7"/>
<path d="M18.6095 49.5365C18.1468 50.6002 9.05272 51.042 8.93111 49.1709C8.85379 47.9801 9.90314 46.9407 9.90314 44.62C9.90314 42.2992 7.76798 39.3356 9.5077 37.5959C10.0125 37.0911 10.8841 36.7653 11.9466 36.7642C12.0262 37.3838 15.7885 37.386 15.8171 36.7785C15.9607 36.7807 16.0723 36.7829 16.1418 36.7863C19.8069 36.9442 18.1964 41.1151 18.161 44.1792C18.1179 47.7647 19.0867 48.4407 18.6095 49.5365Z" fill="#2771C7"/>
<path d="M15.8172 36.7785C15.7886 37.386 15.4583 38.2797 14.4387 38.347C13.0801 38.4365 12.0263 37.3838 11.9468 36.7642H11.9502C13.2877 36.7642 15.0374 36.7664 15.8172 36.7785Z" fill="#E98862"/>
<path d="M24.4399 52.6268C29.2213 52.6268 33.0975 48.7506 33.0975 43.9692C33.0975 39.1877 29.2213 35.3115 24.4399 35.3115C19.6584 35.3115 15.7822 39.1877 15.7822 43.9692C15.7822 48.7506 19.6584 52.6268 24.4399 52.6268Z" fill="#C1D8ED"/>
<path d="M24.4398 50.9143C28.2755 50.9143 31.385 47.8048 31.385 43.9691C31.385 40.1334 28.2755 37.0239 24.4398 37.0239C20.6041 37.0239 17.4946 40.1334 17.4946 43.9691C17.4946 47.8048 20.6041 50.9143 24.4398 50.9143Z" fill="white"/>
<path d="M24.4401 49.1669C27.3109 49.1669 29.6381 46.8397 29.6381 43.969C29.6381 41.0982 27.3109 38.771 24.4401 38.771C21.5694 38.771 19.2422 41.0982 19.2422 43.969C19.2422 46.8397 21.5694 49.1669 24.4401 49.1669Z" fill="#C1D8ED"/>
<path d="M24.4399 47.4248C26.3486 47.4248 27.8959 45.8774 27.8959 43.9687C27.8959 42.06 26.3486 40.5127 24.4399 40.5127C22.5312 40.5127 20.9839 42.06 20.9839 43.9687C20.9839 45.8774 22.5312 47.4248 24.4399 47.4248Z" fill="white"/>
<path d="M24.44 45.7374C25.4165 45.7374 26.2081 44.9458 26.2081 43.9693C26.2081 42.9928 25.4165 42.2012 24.44 42.2012C23.4635 42.2012 22.6719 42.9928 22.6719 43.9693C22.6719 44.9458 23.4635 45.7374 24.44 45.7374Z" fill="#C1D8ED"/>
<path d="M30.6517 37.8965L31.385 37.9822L30.4085 38.9585L29.6753 38.8729L30.6517 37.8965Z" fill="#0CBC8B"/>
<path d="M30.5828 37.1802L30.6685 37.9134L29.6922 38.8897L29.6064 38.1565L30.5828 37.1802Z" fill="#0CBC8B"/>
<path d="M24.8672 43.7949C24.8347 43.7624 24.8164 43.7183 24.8164 43.6724C24.8164 43.6264 24.8347 43.5823 24.8672 43.5498L30.586 37.8311L30.8311 38.0762L25.1123 43.7949C25.0798 43.8274 25.0357 43.8457 24.9897 43.8457C24.9438 43.8457 24.8997 43.8274 24.8672 43.7949Z" fill="#0CBC8B"/>
<path d="M33.4678 45.1911C33.4368 45.2157 33.4021 45.2354 33.3651 45.2494C33.167 45.2903 32.6675 45.1707 32.5874 45.0322C32.4571 44.8068 32.5379 43.9923 32.653 43.6967C32.7608 43.4205 33.2983 43.5362 33.3689 43.5492C33.3711 43.5501 33.3734 43.5507 33.3758 43.5511C33.5222 43.5913 33.6188 43.654 33.6228 43.7505C33.6228 43.7505 33.6968 44.9975 33.4678 45.1911Z" fill="#E98862"/>
<path d="M18.834 45.944C18.834 45.944 19.1001 44.4911 20.1279 44.7439C20.7765 44.9035 22.6612 44.6186 22.6899 45.4515C22.7147 46.1741 20.9446 46.3668 20.3592 46.3064C19.8337 46.2525 18.834 45.944 18.834 45.944Z" fill="#E98862"/>
<path d="M19.7515 44.7277C19.7515 44.7277 21.2804 44.5022 21.6221 44.6473C21.9245 44.7759 21.1802 45.1775 21.1802 45.1775L19.7515 44.7277Z" fill="#E98862"/>
<path d="M20.2405 46.7505L13.4054 46.5419C13.192 46.5354 12.9842 46.4724 12.8033 46.3591C12.6223 46.2459 12.4747 46.0866 12.3756 45.8975L9.00098 39.4629L11.1343 38.3442L14.1823 44.156L20.3144 44.3431L20.2405 46.7505Z" fill="#2771C7"/>
</svg>
