<svg width="96" height="59" viewBox="0 0 96 59" fill="none" xmlns="http://www.w3.org/2000/svg">
<g clip-path="url(#clip0_3569_394355)">
<path d="M89.3771 58.136C90.2715 58.136 91.1566 57.9548 91.9791 57.6034C92.8016 57.252 93.5443 56.7376 94.1626 56.0914C94.7809 55.4451 95.2618 54.6803 95.5765 53.843C95.8911 53.0058 96.0329 52.1135 95.9934 51.22C95.7758 46.292 93.2555 39.3332 83.3225 32.379C71.2096 23.8987 76.6724 -0.517753 50.9362 1.16702C25.2001 2.85179 27.6534 20.896 11.8725 29.1664C1.82761 34.4309 0.000652716 44.7315 0 51.5235C0.00164388 53.2785 0.700228 54.961 1.94213 56.201C3.18404 57.441 4.86759 58.137 6.62257 58.136H89.3771Z" fill="#F3F5FD"/>
<path d="M79.3389 2.125H60.1569C59.2256 2.125 58.4707 2.87993 58.4707 3.81118V27.5901C58.4707 28.5213 59.2256 29.2763 60.1569 29.2763H79.3389C80.2702 29.2763 81.0251 28.5213 81.0251 27.5901V3.81118C81.0251 2.87993 80.2702 2.125 79.3389 2.125Z" fill="#C1D8ED"/>
<path d="M79.3617 3.57617H60.4974C60.2443 3.57617 60.0391 3.78137 60.0391 4.03449V27.3655C60.0391 27.6186 60.2443 27.8238 60.4974 27.8238H79.3617C79.6149 27.8238 79.8201 27.6186 79.8201 27.3655V4.03449C79.8201 3.78137 79.6149 3.57617 79.3617 3.57617Z" fill="#DEE8F5"/>
<path d="M74.8523 0.716797H64.6427C64.1141 0.716797 63.6855 1.14531 63.6855 1.6739V4.09874C63.6855 4.62733 64.1141 5.05584 64.6427 5.05584H74.8523C75.3809 5.05584 75.8094 4.62733 75.8094 4.09874V1.6739C75.8094 1.14531 75.3809 0.716797 74.8523 0.716797Z" fill="#C1D8ED"/>
<path d="M78.7691 9.5332H61.252V10.1125H78.7691V9.5332Z" fill="white"/>
<path d="M70.9452 10.6738H61.252V11.2531H70.9452V10.6738Z" fill="white"/>
<path d="M78.7691 6.06445H61.252V6.64374H78.7691V6.06445Z" fill="white"/>
<path d="M70.9452 7.20508H61.252V7.78436H70.9452V7.20508Z" fill="white"/>
<path d="M63.5131 18.8126H61.1823C61.1285 18.8126 61.0769 18.7912 61.0389 18.7532C61.0009 18.7152 60.9795 18.6636 60.9795 18.6098V16.2789C60.9795 16.2252 61.0009 16.1736 61.0389 16.1356C61.0769 16.0975 61.1285 16.0762 61.1823 16.0762H63.5131C63.5398 16.0762 63.5661 16.0814 63.5907 16.0916C63.6154 16.1018 63.6377 16.1167 63.6566 16.1355C63.6754 16.1544 63.6904 16.1767 63.7006 16.2013C63.7108 16.2259 63.716 16.2523 63.716 16.2789V18.6098C63.716 18.6364 63.7108 18.6628 63.7006 18.6874C63.6904 18.712 63.6754 18.7344 63.6566 18.7532C63.6377 18.7721 63.6154 18.787 63.5907 18.7972C63.5661 18.8074 63.5398 18.8126 63.5131 18.8126ZM61.3852 18.407H63.3107V16.4815H61.3852V18.407Z" fill="#C1D8ED"/>
<path d="M75.3169 16.4648H64.4775V17.0874H75.3169V16.4648Z" fill="white"/>
<path d="M73.5599 17.8027H64.4775V18.4253H73.5599V17.8027Z" fill="white"/>
<path d="M63.5131 26.6153H61.1823C61.1285 26.6153 61.0769 26.5939 61.0389 26.5559C61.0009 26.5179 60.9795 26.4663 60.9795 26.4125V24.0817C60.9795 24.0279 61.0009 23.9764 61.0389 23.9383C61.0769 23.9003 61.1285 23.8789 61.1823 23.8789H63.5131C63.5669 23.8789 63.6185 23.9003 63.6565 23.9383C63.6946 23.9763 63.716 24.0279 63.716 24.0817V26.4125C63.716 26.4392 63.7108 26.4655 63.7006 26.4902C63.6904 26.5148 63.6754 26.5371 63.6566 26.556C63.6377 26.5748 63.6154 26.5897 63.5907 26.5999C63.5661 26.6101 63.5398 26.6153 63.5131 26.6153ZM61.3852 26.2098H63.3107V24.2842H61.3852V26.2098Z" fill="#C1D8ED"/>
<path d="M75.3169 24.2676H64.4775V24.8902H75.3169V24.2676Z" fill="white"/>
<path d="M73.5599 25.6055H64.4775V26.2281H73.5599V25.6055Z" fill="white"/>
<path d="M63.5131 14.9121H61.1823C61.1285 14.9121 61.0769 14.8907 61.0389 14.8527C61.0009 14.8147 60.9795 14.7631 60.9795 14.7093V12.3784C60.9795 12.3247 61.0009 12.2731 61.0389 12.2351C61.0769 12.1971 61.1285 12.1758 61.1823 12.1758H63.5131C63.5397 12.1758 63.5661 12.181 63.5907 12.1912C63.6153 12.2014 63.6377 12.2163 63.6565 12.2351C63.6754 12.2539 63.6903 12.2763 63.7005 12.3009C63.7107 12.3255 63.716 12.3518 63.716 12.3784V14.7093C63.716 14.7359 63.7108 14.7623 63.7006 14.7869C63.6904 14.8115 63.6754 14.8339 63.6566 14.8527C63.6377 14.8716 63.6154 14.8865 63.5907 14.8967C63.5661 14.9069 63.5398 14.9121 63.5131 14.9121ZM61.3852 14.5065H63.3107V12.581H61.3852V14.5065Z" fill="#C1D8ED"/>
<path d="M75.3169 12.5645H64.4775V13.187H75.3169V12.5645Z" fill="white"/>
<path d="M73.5599 13.9023H64.4775V14.5249H73.5599V13.9023Z" fill="white"/>
<path d="M63.5131 22.7147H61.1823C61.1285 22.7147 61.0769 22.6933 61.0389 22.6553C61.0009 22.6173 60.9795 22.5657 60.9795 22.5119V20.1813C60.9795 20.1275 61.0009 20.0759 61.0389 20.0379C61.0769 19.9999 61.1285 19.9785 61.1823 19.9785H63.5131C63.5398 19.9785 63.5661 19.9837 63.5907 19.9939C63.6154 20.0041 63.6377 20.019 63.6566 20.0379C63.6754 20.0567 63.6904 20.0791 63.7006 20.1037C63.7108 20.1283 63.716 20.1547 63.716 20.1813V22.5121C63.7159 22.5659 63.6945 22.6174 63.6565 22.6554C63.6184 22.6934 63.5669 22.7147 63.5131 22.7147ZM61.3852 22.3091H63.3107V20.3836H61.3852V22.3091Z" fill="#C1D8ED"/>
<path d="M75.3169 20.3672H64.4775V20.9898H75.3169V20.3672Z" fill="white"/>
<path d="M73.5599 21.7051H64.4775V22.3277H73.5599V21.7051Z" fill="white"/>
<path d="M62.2172 18.1285C62.2119 18.1285 62.2069 18.1285 62.2017 18.1285C62.1721 18.1264 62.1432 18.1182 62.1168 18.1045C62.0905 18.0908 62.0672 18.0719 62.0484 18.0488L61.5744 17.4672C61.5379 17.4224 61.5207 17.3651 61.5265 17.3077C61.5323 17.2503 61.5607 17.1975 61.6055 17.161C61.6502 17.1246 61.7076 17.1074 61.765 17.1132C61.8224 17.119 61.8751 17.1474 61.9116 17.1922L62.2397 17.5947L63.8574 16.1026C63.8785 16.0832 63.9031 16.0681 63.9299 16.0583C63.9567 16.0484 63.9852 16.0439 64.0138 16.0451C64.0423 16.0463 64.0704 16.053 64.0963 16.065C64.1222 16.077 64.1456 16.094 64.1649 16.115C64.1843 16.136 64.1993 16.1606 64.2092 16.1875C64.2191 16.2143 64.2235 16.2428 64.2224 16.2713C64.2212 16.2999 64.2145 16.3279 64.2025 16.3539C64.1905 16.3798 64.1735 16.4031 64.1525 16.4225L62.3647 18.0708C62.3245 18.1079 62.2718 18.1285 62.2172 18.1285Z" fill="white"/>
<path d="M44.749 31.7037C45.0654 31.7633 46.9791 32.0973 47.105 31.8428C47.1812 31.6905 46.4285 31.3516 46.4285 31.3516" fill="#E98862"/>
<path d="M45.2658 30.2873C45.2658 30.2873 48.0099 29.8969 49.0483 31.1281C49.0747 31.1595 49.0911 31.1981 49.0952 31.239C49.0993 31.2798 49.091 31.3209 49.0714 31.3569C49.0518 31.393 49.0217 31.4222 48.9852 31.4409C48.9487 31.4596 48.9073 31.4668 48.8666 31.4617C48.0304 31.3544 46.783 31.3376 46.3959 31.7836C46.1704 32.0433 45.0205 31.7542 45.0205 31.7542" fill="#E98862"/>
<path d="M28.6172 41.2194L24.1895 58.0527L24.8207 58.2188L29.2484 41.3855L28.6172 41.2194Z" fill="#C1D8ED"/>
<path d="M36.4642 41.2524L35.8193 41.3535L38.4587 58.187L39.1035 58.0859L36.4642 41.2524Z" fill="#C1D8ED"/>
<path d="M28.0248 25.1558C28.0248 25.1558 22.6328 24.8152 22.6328 29.5262C22.6328 34.2372 23.427 40.821 27.4005 41.5588C31.374 42.2966 37.2435 42.0742 38.6063 41.8433C40.2806 41.5595 41.0105 37.6756 38.7804 37.4157C32.4518 36.6778 35.5168 25.6667 28.0248 25.1558Z" fill="#C1D8ED"/>
<path d="M38.3331 54.8783L38.1279 57.5391L40.4057 57.7147L40.6108 55.054L38.3331 54.8783Z" fill="#E98862"/>
<path d="M43.2994 58.117C43.3581 58.1167 43.4161 58.1049 43.4702 58.0822C43.5243 58.0595 43.5734 58.0264 43.6147 57.9847C43.656 57.943 43.6887 57.8936 43.7109 57.8393C43.7331 57.785 43.7444 57.7268 43.7441 57.6682C43.7441 57.6573 43.7441 57.6464 43.7428 57.6355C43.7362 57.5506 43.7055 57.4694 43.6542 57.4014C43.603 57.3334 43.5334 57.2814 43.4537 57.2516L40.7945 56.3609C40.743 56.3438 40.6884 56.3381 40.6345 56.3441C40.5805 56.3501 40.5286 56.3677 40.4821 56.3957C40.1165 56.6493 39.6792 56.7789 39.2345 56.7656C38.8881 56.741 38.5556 56.6195 38.275 56.415C38.2503 56.3947 38.2204 56.3819 38.1887 56.378C38.1571 56.3742 38.125 56.3794 38.0961 56.393C38.0673 56.4067 38.043 56.4283 38.0259 56.4553C38.0089 56.4823 37.9999 56.5136 38 56.5455V57.8457C38 57.923 38.0307 57.9971 38.0853 58.0517C38.14 58.1063 38.2141 58.137 38.2913 58.137H38.2924L43.2994 58.117Z" fill="#C1D8ED"/>
<path d="M49.6601 54.7773L47.4072 55.1562L47.8547 57.8171L50.1076 57.4382L49.6601 54.7773Z" fill="#E98862"/>
<path d="M50.8246 55.3595L45.8081 36.0628C45.696 35.6316 45.444 35.2498 45.0916 34.9773C44.7392 34.7047 44.3064 34.5568 43.8608 34.5566H32.8682V34.5637H26.71V36.4509C26.7099 36.995 26.8171 37.5338 27.0253 38.0365C27.2335 38.5392 27.5387 38.996 27.9234 39.3807C28.3082 39.7655 28.7649 40.0707 29.2676 40.2789C29.7703 40.4872 30.3091 40.5944 30.8532 40.5944H33.8568V40.6062H39.1003L37.6564 55.9571L41.6639 56.334L43.06 41.4896L46.9284 56.3721L50.8246 55.3595Z" fill="#262626"/>
<path d="M38.4788 31.6435L45.6268 32.107L46.0338 29.962L39.0177 29.3115L35.9683 23.8582C35.8655 23.6743 35.7782 23.4825 35.6909 23.2909C35.3777 22.6021 34.7554 22.1513 33.6064 22.1018C33.5378 22.0997 33.428 22.0964 33.2865 22.0942C33.2582 22.6925 29.5519 22.6904 29.4736 22.0801C28.4271 22.0812 27.5676 22.4032 27.0716 22.8992C25.3582 24.6126 27.461 27.5324 27.461 29.8169C27.461 32.1015 26.4276 33.1262 26.5037 34.2989C26.6234 36.1418 35.5797 35.7066 36.0356 34.659C36.3412 33.9571 36.045 33.4297 35.8119 32.1747H39.7634V31.0733M35.5944 29.3818C35.5989 28.9975 35.6286 28.5953 35.6694 28.186L36.5723 29.8026H35.5944C35.593 29.6665 35.5925 29.5275 35.5944 29.3818Z" fill="#2771C7"/>
<path d="M33.2866 22.0942C33.2583 22.6925 32.9319 23.5726 31.9289 23.6379C30.5898 23.7271 29.552 22.6904 29.4736 22.0801H29.478C30.7943 22.0802 32.5175 22.0824 33.2866 22.0942Z" fill="#E98862"/>
<path d="M52.688 58.1171C52.7467 58.1169 52.8047 58.105 52.8588 58.0823C52.9129 58.0596 52.962 58.0264 53.0033 57.9847C53.0446 57.943 53.0773 57.8936 53.0995 57.8393C53.1217 57.7849 53.133 57.7268 53.1327 57.6681C53.1327 57.6572 53.1327 57.6463 53.1314 57.6354C53.1247 57.5505 53.094 57.4693 53.0427 57.4013C52.9915 57.3333 52.9219 57.2813 52.8421 57.2515L50.1832 56.3609C50.1316 56.3438 50.077 56.3381 50.0231 56.3441C49.9691 56.3501 49.9171 56.3677 49.8706 56.3957C49.5051 56.6493 49.0679 56.779 48.6232 56.7656C48.2768 56.741 47.9442 56.6195 47.6636 56.415C47.6389 56.3948 47.609 56.382 47.5773 56.3781C47.5457 56.3743 47.5136 56.3795 47.4848 56.3932C47.456 56.4068 47.4316 56.4284 47.4146 56.4554C47.3976 56.4824 47.3886 56.5136 47.3887 56.5455V57.8457C47.3887 57.923 47.4194 57.9971 47.474 58.0517C47.5286 58.1064 47.6027 58.137 47.68 58.137H47.6812L52.688 58.1171Z" fill="#C1D8ED"/>
<path d="M21.4991 33.2305H20.4775V58.1378H21.4991V33.2305Z" fill="#DEE8F5"/>
<path d="M70.7765 33.2305H69.7549V58.1378H70.7765V33.2305Z" fill="#C1D8ED"/>
<path d="M70.7771 32.918H61.5635V56.4344H70.7771V32.918Z" fill="#C1D8ED"/>
<path d="M60.7452 54.7305H59.7236V58.1367H60.7452V54.7305Z" fill="#C1D8ED"/>
<path d="M72.1891 32.2012H19.0654V33.6059H72.1891V32.2012Z" fill="#DEE8F5"/>
<path d="M62.0743 33.2305H61.0527V58.1378H62.0743V33.2305Z" fill="#DEE8F5"/>
<path d="M52.0421 33.2305H51.0205V58.1378H52.0421V33.2305Z" fill="#DEE8F5"/>
<path d="M61.5627 33.6074H51.5312V56.4337H61.5627V33.6074Z" fill="#DEE8F5"/>
<path d="M51.0263 25.9121L49.7054 31.4571C49.6849 31.5434 49.6842 31.6332 49.7033 31.7198C49.7224 31.8064 49.7609 31.8875 49.8159 31.9571C49.8708 32.0267 49.9408 32.0829 50.0206 32.1216C50.1004 32.1603 50.1879 32.1804 50.2766 32.1804H58.064C58.1926 32.1804 58.3177 32.1382 58.42 32.0602C58.5223 31.9822 58.5962 31.8727 58.6303 31.7487L60.1523 26.2037C60.1762 26.1166 60.1797 26.0251 60.1625 25.9363C60.1452 25.8476 60.1077 25.7641 60.0529 25.6922C59.9981 25.6203 59.9275 25.5621 59.8465 25.522C59.7655 25.4819 59.6764 25.461 59.586 25.4609H51.5977C51.4656 25.4609 51.3374 25.5054 51.2337 25.5873C51.13 25.6692 51.0569 25.7836 51.0263 25.9121Z" fill="#2771C7"/>
<path d="M46.933 32.1804H56.345C56.4365 32.1804 56.5243 32.144 56.589 32.0793C56.6537 32.0146 56.6901 31.9268 56.6901 31.8353C56.6901 31.7438 56.6537 31.656 56.589 31.5913C56.5243 31.5266 56.4365 31.4902 56.345 31.4902H46.933C46.8414 31.4902 46.7537 31.5266 46.689 31.5913C46.6242 31.656 46.5879 31.7438 46.5879 31.8353C46.5879 31.9268 46.6242 32.0146 46.689 32.0793C46.7537 32.144 46.8414 32.1804 46.933 32.1804Z" fill="#2771C7"/>
<path d="M55.2472 29.6877C55.7558 29.6877 56.1681 29.2753 56.1681 28.7667C56.1681 28.258 55.7558 27.8457 55.2472 27.8457C54.7385 27.8457 54.3262 28.258 54.3262 28.7667C54.3262 29.2753 54.7385 29.6877 55.2472 29.6877Z" fill="white"/>
<path d="M39.0186 32.1064C39.3405 32.1064 41.2827 32.0801 41.3595 31.8067C41.4056 31.6427 40.6037 31.4492 40.6037 31.4492" fill="#E98862"/>
<path d="M40.8145 32.22C40.8145 31.4761 41.5401 30.873 42.4354 30.873C43.3307 30.873 44.0563 31.4761 44.0563 32.22" fill="#DEE8F5"/>
<path d="M39.2637 30.6195C39.2637 30.6195 41.888 29.7275 43.1365 30.7451C43.1682 30.771 43.1914 30.806 43.203 30.8453C43.2146 30.8847 43.2141 30.9266 43.2015 30.9656C43.1889 31.0047 43.1648 31.039 43.1324 31.0641C43.0999 31.0892 43.0607 31.104 43.0197 31.1065C42.1781 31.156 40.9491 31.3706 40.6513 31.8806C40.4779 32.1776 39.2943 32.1064 39.2943 32.1064" fill="#E98862"/>
<path d="M39.7634 30.2578H36.5361V32.1741H39.7634V30.2578Z" fill="#2771C7"/>
<path d="M78.0398 45.5174L75.4989 57.9107C75.4827 57.9754 75.4453 58.0328 75.3927 58.0739C75.3401 58.1149 75.2753 58.1372 75.2086 58.1372C75.163 58.1372 75.1181 58.1268 75.0772 58.1068C75.0363 58.0868 75.0005 58.0578 74.9725 58.0219C74.9445 57.986 74.925 57.9442 74.9156 57.8996C74.9062 57.8551 74.9071 57.809 74.9182 57.7648L77.4952 45.2285L78.0398 45.5174Z" fill="#C1D8ED"/>
<path d="M84.0098 45.4979L86.5504 57.8912C86.5666 57.9559 86.604 58.0133 86.6566 58.0543C86.7092 58.0954 86.774 58.1177 86.8407 58.1176C86.8862 58.1177 86.9312 58.1073 86.9721 58.0873C87.013 58.0673 87.0488 58.0383 87.0768 58.0024C87.1048 57.9665 87.1242 57.9246 87.1336 57.8801C87.143 57.8355 87.1422 57.7894 87.1311 57.7453L84.5544 45.209L84.0098 45.4979Z" fill="#C1D8ED"/>
<path d="M86.6805 44.3047H75.3694C75.0834 44.3047 74.8516 44.5365 74.8516 44.8225V45.9625C74.8516 46.2485 75.0834 46.4803 75.3694 46.4803H86.6805C86.9665 46.4803 87.1983 46.2485 87.1983 45.9625V44.8225C87.1983 44.5365 86.9665 44.3047 86.6805 44.3047Z" fill="#DEE8F5"/>
<path d="M83.6202 38.2125C83.2606 38.0948 82.8914 38.2269 82.5385 38.4954C83.0035 37.3205 83.1955 36.2599 82.4004 36.2122C81.844 36.1788 81.4178 36.6057 81.094 37.2125C80.9801 36.1455 80.6863 35.3497 80.0279 35.6133C79.3053 35.9029 79.1955 36.8957 79.3051 37.9343C78.9867 37.4038 78.644 37.108 78.3328 37.4192C77.4041 38.3479 79.6837 40.9656 79.6837 40.9656H80.2494L80.5725 41.3164C80.5072 41.4546 80.4713 41.5369 80.4713 41.5369L80.8827 42.3717C80.8827 42.3717 85.1127 38.701 83.6202 38.2125Z" fill="#D4E4FC"/>
<path d="M82.6057 44.2423H79.4015L78.8652 40.502H83.1419L82.6057 44.2423Z" fill="#C1D8ED"/>
<path d="M11.5716 53.334C10.8773 53.1347 10.3547 52.5136 10.147 51.8219C9.93934 51.1302 10.0126 50.3794 10.2154 49.6861C10.3809 49.1204 10.6318 48.5735 10.6936 47.9874C10.8994 46.0355 9.00618 44.0412 9.89702 42.2923C10.1852 41.7267 10.7426 41.2849 10.8422 40.6579C10.9245 40.1396 10.6691 39.6354 10.5421 39.1265C10.3674 38.4255 10.456 37.6302 10.9107 37.069C11.3654 36.5078 12.2247 36.2624 12.8513 36.6219C13.6709 37.092 13.742 38.2527 13.5313 39.1737C13.3207 40.0946 12.9303 41.0423 13.1877 41.9513C13.433 42.8178 14.2313 43.4703 14.3743 44.3594C14.4933 45.0985 14.1326 45.8191 13.974 46.5508C13.7249 47.7008 13.9785 48.8927 13.9893 50.0692C14.0002 51.2458 13.6681 52.5654 11.5716 53.334Z" fill="#D4E4FC"/>
<path d="M10.5003 53.4455C10.0872 53.3142 9.71647 53.0753 9.42618 52.7533C9.1359 52.4314 8.93652 52.038 8.84852 51.6135C8.71265 50.9134 8.87952 50.1271 8.49638 49.5256C7.97714 48.7106 7.44464 48.6184 6.79834 47.9001C5.80436 46.7955 5.76944 46.3063 5.83504 44.2606C5.86278 43.3955 4.6682 42.4191 5.08887 41.5879C5.45951 40.8556 6.58621 40.8519 7.22511 41.3672C7.86401 41.8825 8.14468 42.7085 8.42317 43.4807C8.70166 44.2528 9.05249 45.0698 9.75819 45.489C10.1815 45.7403 10.7355 45.8564 10.9693 46.2896C11.1572 46.6378 11.0625 47.0626 10.987 47.4508C10.7972 48.4267 10.8449 49.6173 11.6638 50.1813C12.0337 50.4357 12.5172 50.5233 12.8211 50.8533C13.1214 51.1797 13.1698 51.6631 13.1495 52.1062C13.1095 52.958 12.8748 53.7893 12.4635 54.5363" fill="#DEE8F5"/>
<path d="M11.4883 54.126C11.1271 53.6956 10.9094 53.1632 10.8656 52.603C10.8218 52.0429 10.9542 51.4831 11.2442 51.0018C11.7456 50.2077 12.6802 49.6603 12.876 48.7416C13.0507 47.9233 12.566 47.0772 12.7112 46.2538C12.8689 45.3576 13.6967 44.7697 14.3538 44.1408C14.525 43.9879 14.6722 43.8102 14.7905 43.6135C15.0796 43.0931 14.999 42.4545 15.0972 41.8672C15.2853 40.7425 16.2119 39.7449 17.337 39.559C18.3238 39.3958 19.0307 39.9627 19.0307 41.0067C19.0307 42.2434 18.1041 42.7734 17.6316 43.3332C16.9527 44.1438 16.5924 45.1739 16.6181 46.2309C16.6514 47.4116 17.1541 48.6686 16.617 49.7206C16.2229 50.4929 15.381 50.9042 14.7196 51.4643C14.2197 51.8926 13.8128 52.4186 13.524 53.01C13.2351 53.6014 13.0703 54.2457 13.0398 54.9032" fill="white"/>
<path d="M14.6701 52.1855H8.71973V58.1359H14.6701V52.1855Z" fill="#2771C7"/>
<g opacity="0.42">
<path d="M14.6701 53.3457H8.71973V54.5072H14.6701V53.3457Z" fill="white"/>
</g>
<path d="M29.7939 22.6996C29.7939 22.6996 30.6351 22.2536 30.4473 19.963L32.1853 19.6406C32.1853 19.6406 31.9895 21.6944 32.8693 22.3465L29.7939 22.6996Z" fill="#E98862"/>
<g opacity="0.15">
<path d="M32.513 21.9171L31.0693 20.8125L32.2033 20.8008C32.2361 21.1889 32.3411 21.5676 32.513 21.9171Z" fill="black"/>
</g>
<path d="M29.461 19.0751C29.5813 19.77 29.9606 20.4282 30.5737 20.6525C31.3014 20.9189 31.8404 20.937 32.6795 20.937C33.8244 20.937 33.7866 19.7428 33.8188 18.5395C33.8514 17.3314 33.755 16.0354 33.3025 15.6144C32.3996 14.7741 29.7481 15.3063 29.4256 16.7118C29.2588 17.4389 29.3465 18.4136 29.461 19.0751Z" fill="#E98862"/>
<path d="M34.4324 16.3132C34.4324 16.3132 34.9014 16.2085 34.7729 15.7409C34.6879 15.4308 34.2906 15.4996 34.2906 15.4996C34.2906 15.4996 34.6668 15.4308 34.6668 15.1024C34.6668 14.8957 34.5077 14.5449 34.0281 14.7453C33.4652 14.9804 32.8234 14.9502 32.3353 14.8681C32.0592 14.8077 31.7789 14.7681 31.4968 14.7498H31.4954C31.1712 14.7441 30.8479 14.7873 30.5366 14.878C29.6641 15.1391 28.3437 15.9213 28.6243 17.6948C28.9377 19.6741 29.8665 20.431 30.2751 20.6738C30.2992 20.6884 30.3264 20.6973 30.3545 20.6998C30.3826 20.7023 30.411 20.6984 30.4374 20.6884C30.4637 20.6784 30.4875 20.6625 30.5068 20.6419C30.5262 20.6214 30.5406 20.5967 30.549 20.5697C30.6648 20.1988 30.8645 19.2654 30.8088 17.3407C33.4906 17.2092 34.2621 17.1693 34.2621 17.1693C34.2621 17.1693 34.893 17.193 34.893 16.7317C34.893 16.2705 34.4324 16.3132 34.4324 16.3132Z" fill="#0F1011"/>
<path d="M32.183 18.5399C32.2701 18.5399 32.3407 18.4693 32.3407 18.3822C32.3407 18.2952 32.2701 18.2246 32.183 18.2246C32.096 18.2246 32.0254 18.2952 32.0254 18.3822C32.0254 18.4693 32.096 18.5399 32.183 18.5399Z" fill="#0F1011"/>
<path d="M33.4262 18.4383C33.5132 18.4383 33.5838 18.3677 33.5838 18.2807C33.5838 18.1936 33.5132 18.123 33.4262 18.123C33.3391 18.123 33.2686 18.1936 33.2686 18.2807C33.2686 18.3677 33.3391 18.4383 33.4262 18.4383Z" fill="#0F1011"/>
<path d="M33.6997 17.9444H33.6987L33.2812 17.9392C33.2616 17.9389 33.2428 17.9308 33.2291 17.9168C33.2154 17.9027 33.2078 17.8838 33.208 17.8641C33.2085 17.8446 33.2166 17.826 33.2306 17.8123C33.2446 17.7987 33.2634 17.791 33.283 17.791L33.7006 17.7962C33.7202 17.7964 33.739 17.8043 33.7529 17.8182C33.7667 17.8322 33.7744 17.8511 33.7742 17.8708C33.7741 17.8904 33.7662 17.9092 33.7522 17.923C33.7383 17.9368 33.7194 17.9445 33.6997 17.9444Z" fill="#0F1011"/>
<path d="M31.8424 18.0965C31.8243 18.0965 31.8069 18.0898 31.7933 18.0778C31.7798 18.0657 31.7712 18.0491 31.7691 18.0311C31.7669 18.0131 31.7715 17.995 31.7819 17.9801C31.7922 17.9653 31.8077 17.9547 31.8253 17.9504L32.2369 17.8515C32.2559 17.8471 32.2758 17.8505 32.2924 17.8607C32.3089 17.871 32.3208 17.8874 32.3254 17.9063C32.3299 17.9253 32.3268 17.9453 32.3168 17.9619C32.3067 17.9786 32.2905 17.9907 32.2716 17.9955L31.8599 18.0945C31.8542 18.0959 31.8483 18.0966 31.8424 18.0965Z" fill="#0F1011"/>
<path d="M31.3635 18.7688C31.372 18.8569 31.3628 18.9459 31.3366 19.0305C31.3104 19.1151 31.2676 19.1936 31.2108 19.2615C31.1539 19.3294 31.0842 19.3854 31.0055 19.4261C30.9269 19.4668 30.841 19.4915 30.7527 19.4987C30.6644 19.5059 30.5756 19.4955 30.4914 19.4681C30.4072 19.4406 30.3293 19.3968 30.2622 19.339C30.1951 19.2812 30.1401 19.2106 30.1005 19.1314C30.061 19.0522 30.0375 18.9659 30.0315 18.8776C30.0228 18.7898 30.0319 18.7012 30.0581 18.617C30.0844 18.5328 30.1273 18.4548 30.1843 18.3875C30.2414 18.3203 30.3114 18.2652 30.3902 18.2256C30.469 18.186 30.5549 18.1626 30.6429 18.1569C31.1189 18.1419 31.333 18.4009 31.3635 18.7688Z" fill="#E98862"/>
<g opacity="0.15">
<path d="M32.8826 19.2575C32.8695 19.2575 32.8569 19.2528 32.847 19.2443C32.8372 19.2358 32.8307 19.2241 32.8287 19.2112C32.8268 19.1983 32.8295 19.1851 32.8365 19.1741C32.8434 19.1631 32.8541 19.1549 32.8666 19.1511L33.1872 19.0526L32.9628 18.5533C32.9569 18.5401 32.9565 18.5251 32.9616 18.5117C32.9667 18.4982 32.977 18.4873 32.9902 18.4813C33.0034 18.4754 33.0183 18.475 33.0318 18.4801C33.0453 18.4852 33.0562 18.4955 33.0622 18.5087L33.3116 19.0643C33.3148 19.0713 33.3164 19.0789 33.3164 19.0866C33.3164 19.0944 33.3147 19.102 33.3116 19.109C33.3084 19.116 33.3037 19.1223 33.298 19.1274C33.2922 19.1325 33.2854 19.1363 33.278 19.1386L32.8985 19.2551C32.8934 19.2567 32.888 19.2575 32.8826 19.2575Z" fill="black"/>
</g>
<path d="M32.2559 19.6241C32.2559 19.6241 32.8378 19.6855 33.2458 19.543C33.2458 19.543 33.2425 19.9261 32.7822 19.964C32.3218 20.0018 32.2559 19.6241 32.2559 19.6241Z" fill="white"/>
</g>
<defs>
<clipPath id="clip0_3569_394355">
<rect width="96" height="58.2192" fill="white"/>
</clipPath>
</defs>
</svg>
