<svg width="100%" height="auto" viewBox="0 0 264 159" fill="none" xmlns="http://www.w3.org/2000/svg">
<g clip-path="url(#clip0_3165_23038)">
<path d="M250.098 159C257.3 159 263.272 153.323 263.773 146.003C264.917 129.271 253.637 103.01 217.669 108.975C192.626 113.128 187.419 86.1146 179.583 71.5982C166.134 46.6796 145.82 35.4668 126.598 35.4668C95.2146 35.4668 72.3892 55.8162 58.718 75.5253C34.6567 110.214 15.803 98.4556 2.31226 129.548C0.205674 134.403 -0.0774308 140.57 0.277853 146.004C0.757498 153.325 6.75172 159.001 13.9525 159.001L250.098 159Z" fill="#F3F5FD"/>
<path d="M190.678 11H39.2285V120.678H190.678V11Z" fill="#DEE8F5"/>
<path d="M190.678 11H39.2285V20.0347H190.678V11Z" fill="#D4E4FC"/>
<path d="M185.606 17.7836C186.858 17.7836 187.872 16.7687 187.872 15.5168C187.872 14.2649 186.858 13.25 185.606 13.25C184.354 13.25 183.339 14.2649 183.339 15.5168C183.339 16.7687 184.354 17.7836 185.606 17.7836Z" fill="white"/>
<path d="M88.6127 25.1348H152.65C153.572 25.1348 154.457 25.5012 155.109 26.1535C155.762 26.8057 156.128 27.6904 156.128 28.6128V105.311C156.128 106.254 155.754 107.157 155.087 107.824C154.421 108.49 153.517 108.865 152.574 108.865H88.6885C87.746 108.865 86.8421 108.49 86.1756 107.824C85.5092 107.157 85.1348 106.254 85.1348 105.311V28.6124C85.1349 27.6901 85.5013 26.8056 86.1536 26.1534C86.8058 25.5012 87.6904 25.1348 88.6127 25.1348Z" fill="white"/>
<path d="M152.575 109H88.6888C87.7104 109 86.7722 108.611 86.0804 107.92C85.3886 107.228 85 106.29 85 105.311V28.4777C85.0001 27.5553 85.3665 26.6708 86.0188 26.0186C86.671 25.3664 87.5556 25 88.4779 25H152.785C153.708 25 154.592 25.3664 155.245 26.0187C155.897 26.6709 156.263 27.5555 156.263 28.4779V105.311C156.263 106.29 155.875 107.228 155.183 107.92C154.491 108.611 153.553 109 152.575 109ZM85.2701 28.6069V105.311C85.2701 105.76 85.3585 106.205 85.5303 106.62C85.7021 107.034 85.9539 107.411 86.2714 107.729C86.5888 108.046 86.9657 108.298 87.3805 108.47C87.7953 108.641 88.2398 108.73 88.6888 108.73H152.575C153.481 108.73 154.351 108.37 154.992 107.729C155.633 107.087 155.993 106.218 155.993 105.311V28.5732C155.993 28.1393 155.908 27.7098 155.742 27.309C155.576 26.9082 155.332 26.5441 155.025 26.2374C154.719 25.9307 154.354 25.6874 153.954 25.5214C153.553 25.3555 153.123 25.2701 152.689 25.2701H88.6072C87.7222 25.2701 86.8734 25.6217 86.2476 26.2474C85.6218 26.8732 85.2702 27.7219 85.2701 28.6069Z" fill="#292A2E"/>
<path d="M98.9065 41.7848H91.146C90.7136 41.7843 90.299 41.6123 89.9931 41.3065C89.6873 41.0008 89.5152 40.5862 89.5146 40.1537V32.3931C89.5151 31.9606 89.6872 31.5459 89.993 31.2401C90.2989 30.9343 90.7135 30.7622 91.146 30.7617H98.9065C99.339 30.7622 99.7537 30.9342 100.06 31.24C100.365 31.5459 100.538 31.9606 100.538 32.3931V40.1537C100.537 40.5862 100.365 41.0008 100.06 41.3066C99.7536 41.6124 99.339 41.7844 98.9065 41.7848ZM91.146 31.0316C90.7851 31.032 90.4392 31.1756 90.184 31.4308C89.9288 31.6859 89.7852 32.0319 89.7848 32.3928V40.1537C89.7852 40.5146 89.9288 40.8606 90.184 41.1158C90.4392 41.371 90.7851 41.5145 91.146 41.515H98.9065C99.2674 41.5146 99.6135 41.371 99.8687 41.1158C100.124 40.8606 100.267 40.5146 100.268 40.1537V32.3931C100.267 32.0322 100.124 31.6862 99.8687 31.431C99.6135 31.1758 99.2674 31.0322 98.9065 31.0318L91.146 31.0316Z" fill="#292A2E"/>
<path d="M98.9065 57.1621H91.146C90.7135 57.1615 90.2989 56.9895 89.993 56.6837C89.6872 56.3778 89.5151 55.9632 89.5146 55.5307V47.7702C89.5151 47.3377 89.6871 46.923 89.993 46.6171C90.2988 46.3112 90.7135 46.1392 91.146 46.1387H98.9065C99.3391 46.1392 99.7537 46.3112 100.06 46.6171C100.365 46.923 100.538 47.3376 100.538 47.7702V55.5307C100.538 55.9632 100.365 56.3779 100.06 56.6837C99.7537 56.9896 99.339 57.1616 98.9065 57.1621ZM91.146 46.4092C90.7851 46.4096 90.4391 46.5532 90.1839 46.8084C89.9287 47.0637 89.7852 47.4097 89.7848 47.7706V55.5311C89.7852 55.892 89.9287 56.238 90.1839 56.4932C90.4391 56.7484 90.7851 56.8919 91.146 56.8923H98.9065C99.2674 56.8919 99.6135 56.7484 99.8687 56.4932C100.124 56.238 100.267 55.892 100.268 55.5311V47.7702C100.267 47.4093 100.124 47.0632 99.8687 46.808C99.6135 46.5528 99.2674 46.4092 98.9065 46.4088L91.146 46.4092Z" fill="#292A2E"/>
<path d="M98.9065 72.533H91.146C90.7135 72.5325 90.2989 72.3605 89.993 72.0546C89.6872 71.7488 89.5151 71.3341 89.5146 70.9016V63.1412C89.5151 62.7086 89.6872 62.294 89.993 61.9881C90.2989 61.6823 90.7135 61.5103 91.146 61.5098H98.9065C99.339 61.5102 99.7537 61.6823 100.06 61.9881C100.365 62.2939 100.538 62.7086 100.538 63.1412V70.9016C100.538 71.3342 100.365 71.7488 100.06 72.0547C99.7537 72.3605 99.339 72.5325 98.9065 72.533ZM91.146 61.7799C90.7851 61.7803 90.4391 61.9238 90.1839 62.179C89.9287 62.4342 89.7852 62.7803 89.7848 63.1412V70.9016C89.7852 71.2625 89.9287 71.6085 90.1839 71.8637C90.4391 72.1189 90.7851 72.2625 91.146 72.2629H98.9065C99.2674 72.2625 99.6135 72.119 99.8687 71.8638C100.124 71.6086 100.267 71.2625 100.268 70.9016V63.1412C100.267 62.7802 100.124 62.4342 99.8687 62.179C99.6135 61.9238 99.2674 61.7803 98.9065 61.7799H91.146Z" fill="#292A2E"/>
<path d="M98.9065 87.6992H91.146C90.7135 87.6987 90.2989 87.5266 89.993 87.2208C89.6872 86.9149 89.5151 86.5003 89.5146 86.0678V78.3073C89.5151 77.8748 89.6871 77.4601 89.993 77.1542C90.2988 76.8483 90.7135 76.6763 91.146 76.6758H98.9065C99.3391 76.6763 99.7537 76.8483 100.06 77.1542C100.365 77.4601 100.538 77.8748 100.538 78.3073V86.0678C100.538 86.5003 100.365 86.915 100.06 87.2208C99.7537 87.5267 99.339 87.6987 98.9065 87.6992ZM91.146 76.9459C90.7851 76.9463 90.4391 77.0899 90.1839 77.3451C89.9287 77.6003 89.7851 77.9464 89.7848 78.3073V86.0678C89.7852 86.4287 89.9288 86.7747 90.184 87.0299C90.4392 87.285 90.7851 87.4286 91.146 87.429H98.9065C99.2674 87.4286 99.6135 87.2851 99.8687 87.0299C100.124 86.7747 100.267 86.4287 100.268 86.0678V78.3073C100.268 77.9464 100.124 77.6003 99.8687 77.3451C99.6135 77.0899 99.2674 76.9463 98.9065 76.9459H91.146Z" fill="#292A2E"/>
<path d="M98.9065 102.863H91.146C90.7135 102.863 90.2988 102.691 89.993 102.385C89.6871 102.079 89.5151 101.664 89.5146 101.232V93.4714C89.5151 93.0388 89.6871 92.6241 89.993 92.3183C90.2988 92.0124 90.7135 91.8403 91.146 91.8398H98.9065C99.3391 91.8403 99.7537 92.0124 100.06 92.3183C100.365 92.6241 100.538 93.0388 100.538 93.4714V101.232C100.537 101.664 100.365 102.079 100.06 102.385C99.7537 102.691 99.339 102.863 98.9065 102.863ZM91.146 92.1098C90.7851 92.1103 90.4391 92.2538 90.1839 92.5091C89.9287 92.7643 89.7852 93.1103 89.7848 93.4712V101.232C89.7852 101.593 89.9287 101.939 90.1839 102.194C90.4391 102.449 90.7851 102.593 91.146 102.593H98.9065C99.2674 102.593 99.6135 102.449 99.8687 102.194C100.124 101.939 100.267 101.593 100.268 101.232V93.4714C100.267 93.1104 100.124 92.7644 99.8687 92.5092C99.6135 92.254 99.2674 92.1104 98.9065 92.11L91.146 92.1098Z" fill="#292A2E"/>
<path d="M93.646 54.7529C93.5064 54.753 93.3722 54.6989 93.2716 54.6021L91.0096 52.4276C90.9585 52.3784 90.9175 52.3197 90.8891 52.2547C90.8606 52.1897 90.8453 52.1197 90.8439 52.0488C90.8425 51.9778 90.855 51.9073 90.8809 51.8412C90.9067 51.7752 90.9453 51.7148 90.9945 51.6637C91.0437 51.6125 91.1024 51.5716 91.1674 51.5431C91.2324 51.5147 91.3024 51.4993 91.3733 51.4979C91.4443 51.4965 91.5148 51.5091 91.5808 51.5349C91.6469 51.5608 91.7073 51.5994 91.7584 51.6486L93.6368 53.4545L98.3452 48.703C98.4464 48.6029 98.583 48.5468 98.7253 48.5469C98.8676 48.5469 99.0042 48.6032 99.1053 48.7033C99.2064 48.8035 99.2639 48.9395 99.2653 49.0818C99.2667 49.2242 99.2119 49.3613 99.1127 49.4634L94.0297 54.5923C93.9796 54.6432 93.9199 54.6836 93.854 54.7112C93.7881 54.7388 93.7174 54.7529 93.646 54.7529Z" fill="#0CBC8B"/>
<path d="M93.646 70.1279C93.5064 70.128 93.3722 70.074 93.2716 69.9771L91.0096 67.8027C90.9063 67.7034 90.8467 67.5671 90.8439 67.4238C90.841 67.2806 90.8952 67.1421 90.9945 67.0388C91.0938 66.9355 91.2301 66.8758 91.3733 66.873C91.5166 66.8702 91.6551 66.9243 91.7584 67.0236L93.6368 68.829L98.3452 64.078C98.446 63.9762 98.5832 63.9186 98.7265 63.918C98.8698 63.9173 99.0074 63.9736 99.1092 64.0745C99.211 64.1753 99.2686 64.3125 99.2692 64.4557C99.2699 64.599 99.2136 64.7367 99.1127 64.8385L94.0297 69.9674C93.9796 70.0183 93.9199 70.0587 93.854 70.0862C93.7881 70.1137 93.7174 70.1279 93.646 70.1279Z" fill="#0CBC8B"/>
<path opacity="0.5" d="M150.293 33.8691H104.779C104.571 33.8691 104.402 34.0379 104.402 34.2461C104.402 34.4543 104.571 34.623 104.779 34.623H150.293C150.501 34.623 150.67 34.4543 150.67 34.2461C150.67 34.0379 150.501 33.8691 150.293 33.8691Z" fill="#262626"/>
<path opacity="0.5" d="M134.086 37.9219H104.779C104.571 37.9219 104.402 38.0906 104.402 38.2988C104.402 38.507 104.571 38.6758 104.779 38.6758H134.086C134.294 38.6758 134.463 38.507 134.463 38.2988C134.463 38.0906 134.294 37.9219 134.086 37.9219Z" fill="#262626"/>
<path opacity="0.5" d="M150.293 49.2461H104.779C104.571 49.2461 104.402 49.4149 104.402 49.623C104.402 49.8312 104.571 50 104.779 50H150.293C150.501 50 150.67 49.8312 150.67 49.623C150.67 49.4149 150.501 49.2461 150.293 49.2461Z" fill="#262626"/>
<path opacity="0.5" d="M134.086 53.2969H104.779C104.571 53.2969 104.402 53.4656 104.402 53.6738C104.402 53.882 104.571 54.0508 104.779 54.0508H134.086C134.294 54.0508 134.463 53.882 134.463 53.6738C134.463 53.4656 134.294 53.2969 134.086 53.2969Z" fill="#262626"/>
<path opacity="0.5" d="M150.293 64.6211H104.779C104.571 64.6211 104.402 64.7899 104.402 64.998C104.402 65.2062 104.571 65.375 104.779 65.375H150.293C150.501 65.375 150.67 65.2062 150.67 64.998C150.67 64.7899 150.501 64.6211 150.293 64.6211Z" fill="#262626"/>
<path opacity="0.5" d="M134.086 68.6738H104.779C104.571 68.6738 104.402 68.8426 104.402 69.0508C104.402 69.259 104.571 69.4277 104.779 69.4277H134.086C134.294 69.4277 134.463 69.259 134.463 69.0508C134.463 68.8426 134.294 68.6738 134.086 68.6738Z" fill="#262626"/>
<path opacity="0.5" d="M150.293 79.7832H104.779C104.571 79.7832 104.402 79.952 104.402 80.1602C104.402 80.3683 104.571 80.5371 104.779 80.5371H150.293C150.501 80.5371 150.67 80.3683 150.67 80.1602C150.67 79.952 150.501 79.7832 150.293 79.7832Z" fill="#262626"/>
<path opacity="0.5" d="M134.086 83.8359H104.779C104.571 83.8359 104.402 84.0047 104.402 84.2129C104.402 84.4211 104.571 84.5898 104.779 84.5898H134.086C134.294 84.5898 134.463 84.4211 134.463 84.2129C134.463 84.0047 134.294 83.8359 134.086 83.8359Z" fill="#262626"/>
<path opacity="0.5" d="M150.293 94.9473H104.779C104.571 94.9473 104.402 95.116 104.402 95.3242C104.402 95.5324 104.571 95.7012 104.779 95.7012H150.293C150.501 95.7012 150.67 95.5324 150.67 95.3242C150.67 95.116 150.501 94.9473 150.293 94.9473Z" fill="#262626"/>
<path opacity="0.5" d="M134.086 98.998H104.779C104.571 98.998 104.402 99.1668 104.402 99.375C104.402 99.5832 104.571 99.752 104.779 99.752H134.086C134.294 99.752 134.463 99.5832 134.463 99.375C134.463 99.1668 134.294 98.998 134.086 98.998Z" fill="#262626"/>
<path d="M83.7089 156.361L78.624 155.756C78.853 153.831 79.1117 151.52 79.1293 151.141C79.1281 151.165 79.1293 151.185 79.1293 151.2H84.25C84.2491 151.354 84.2491 151.821 83.7089 156.361Z" fill="#E98862"/>
<path d="M63.3044 156.974L58.1836 156.957C58.1836 156.957 58.2007 151.669 58.2007 151.201H63.3214C63.3224 151.672 63.3044 156.974 63.3044 156.974Z" fill="#E98862"/>
<path d="M76.5775 154.744L85.5998 154.59C85.176 143.853 85.1499 132.591 85.018 121.828C83.2572 110.228 82.3298 96.312 80.1567 84.7945L61.2984 84.4141C61.2984 84.4141 60.8402 92.8524 60.6853 95.6651C59.7265 113.074 57.9679 137.594 56.8662 154.453L65.8563 155.213C67.4762 138.684 69.4952 114.599 71.0371 97.2345C72.8076 105.688 74.4997 114.442 76.0393 122.824C76.3461 133.316 76.6063 144.283 76.5775 154.744Z" fill="#262626"/>
<path d="M69.5308 158.954C69.6685 158.953 69.8046 158.924 69.9306 158.869C70.0566 158.813 70.1698 158.732 70.2631 158.631C70.3563 158.529 70.4277 158.41 70.4727 158.28C70.5178 158.15 70.5355 158.012 70.5247 157.874C70.5099 157.684 70.441 157.502 70.3262 157.349C70.2114 157.197 70.0554 157.08 69.8766 157.014L63.9163 155.018C63.8008 154.979 63.6785 154.966 63.5576 154.98C63.4367 154.993 63.3201 155.033 63.2159 155.095C62.3965 155.664 61.4163 155.954 60.4195 155.924C59.6431 155.869 58.8979 155.597 58.2688 155.139C58.2135 155.093 58.1464 155.065 58.0754 155.056C58.0044 155.047 57.9324 155.059 57.8678 155.09C57.8032 155.12 57.7486 155.169 57.7105 155.229C57.6723 155.29 57.6522 155.36 57.6523 155.431V158.346C57.6523 158.432 57.6693 158.517 57.7023 158.596C57.7353 158.676 57.7836 158.748 57.8446 158.809C57.9055 158.869 57.9778 158.917 58.0573 158.95C58.1369 158.983 58.2221 158.999 58.308 158.999L69.5308 158.954Z" fill="#D4E4FC"/>
<path d="M89.9488 158.954C90.0865 158.953 90.2226 158.924 90.3486 158.869C90.4746 158.813 90.5878 158.732 90.681 158.631C90.7743 158.529 90.8457 158.41 90.8907 158.28C90.9357 158.15 90.9534 158.012 90.9427 157.874C90.9279 157.684 90.859 157.502 90.7441 157.349C90.6292 157.197 90.4732 157.08 90.2943 157.014L84.3342 155.018C84.2188 154.979 84.0964 154.966 83.9755 154.98C83.8547 154.993 83.7381 155.033 83.6339 155.095C82.8145 155.664 81.8343 155.954 80.8375 155.924C80.061 155.869 79.3157 155.597 78.6865 155.139C78.6312 155.093 78.5642 155.065 78.4932 155.056C78.4222 155.047 78.3502 155.059 78.2856 155.09C78.221 155.12 78.1664 155.169 78.1283 155.229C78.0902 155.29 78.0701 155.36 78.0703 155.431V158.346C78.0703 158.432 78.0872 158.517 78.1202 158.596C78.1532 158.676 78.2015 158.748 78.2625 158.809C78.3234 158.869 78.3957 158.917 78.4753 158.95C78.5548 158.983 78.64 158.999 78.726 158.999L89.9488 158.954Z" fill="#D4E4FC"/>
<path d="M67.249 58.6048C67.249 58.6048 69.1344 57.605 68.7136 52.4706L72.6092 51.748C72.6092 51.748 72.1703 56.3516 74.1426 57.8132L67.249 58.6048Z" fill="#E98862"/>
<path d="M66.5028 50.4792C66.7725 52.0369 67.6225 53.5122 68.9966 54.015C70.6279 54.6124 71.8362 54.6529 73.717 54.6529C76.2834 54.6529 76.1986 51.9762 76.2708 49.2788C76.3439 46.5721 76.1276 43.6659 75.1132 42.7222C73.0893 40.8388 67.146 42.0317 66.4233 45.1819C66.0495 46.8118 66.246 48.9964 66.5028 50.4792Z" fill="#E98862"/>
<path d="M73.4256 53.7599C73.0355 54.4426 69.456 54.4092 68.5243 53.8574C67.6077 53.3144 65.5469 52.3729 64.8447 47.9363C64.2155 43.9616 66.6677 42.3215 68.6243 41.7366C70.31 41.2323 74.2442 41.1286 76.0906 42.2413C77.6817 43.2004 76.0906 45.4311 76.0906 45.4311C75.792 45.5021 75.4865 45.5403 75.1796 45.5452C74.0794 45.5452 73.8545 46.2616 73.8933 46.6913C74.1291 49.2955 73.9011 52.9264 73.4256 53.7599Z" fill="#0F1011"/>
<path d="M75.6356 49.7908C75.6529 49.9875 75.6311 50.1857 75.5715 50.374C75.5119 50.5623 75.4157 50.7369 75.2883 50.8879C75.161 51.0388 75.005 51.1631 74.8295 51.2535C74.6539 51.344 74.4622 51.3988 74.2654 51.4149C74.0685 51.431 73.8704 51.408 73.6825 51.3472C73.4946 51.2864 73.3206 51.1891 73.1704 51.0608C73.0203 50.9325 72.897 50.7758 72.8076 50.5997C72.7182 50.4236 72.6646 50.2315 72.6497 50.0346C72.6303 49.8379 72.6506 49.6393 72.7095 49.4506C72.7684 49.2619 72.8646 49.087 72.9925 48.9363C73.1204 48.7856 73.2773 48.6622 73.4539 48.5734C73.6305 48.4846 73.8231 48.4322 74.0204 48.4194C75.0879 48.3855 75.5678 48.9663 75.6356 49.7908Z" fill="#E98862"/>
<path d="M55.8891 92.332C55.8891 93.0589 56.2727 95.4881 55.6558 95.6617C55.2856 95.7659 54.8486 93.9548 54.8486 93.9548" fill="#E98862"/>
<path d="M52.9754 91.9512C52.9754 91.9512 50.9603 96.856 53.2588 99.6736C53.3174 99.7453 53.3963 99.7976 53.4851 99.8238C53.5739 99.8499 53.6686 99.8487 53.7567 99.8202C53.8448 99.7918 53.9223 99.7374 53.979 99.6642C54.0357 99.591 54.0691 99.5024 54.0747 99.41C54.1866 97.5102 54.5697 93.6065 55.8221 94.0637V91" fill="#E98862"/>
<path d="M98.4146 65.8182C98.4146 65.8182 101.229 63.5827 101.428 62.7797C101.627 61.9767 99.6451 60.3973 99.6451 60.3973C99.6451 60.3973 102.281 57.7394 101.755 57.3556C101.135 56.9008 98.0771 60.765 98.0771 60.765C98.0771 60.765 98.5092 59.3751 97.9708 59.2837C97.7497 59.2461 97.5743 59.4634 97.2281 60.4473C96.8335 61.569 96.0449 63.2552 96.0449 63.2552L98.4146 65.8182Z" fill="#E98862"/>
<path d="M95.4517 62.8456L87.1283 72.211L80.6176 60.5566C80.0011 58.7153 78.5978 57.482 75.735 57.3593C74.756 57.3171 69.9788 57.3105 66.4811 57.3105C64.1314 57.3105 62.2023 58.0316 61.0882 59.1457C60.5271 59.6987 60.1072 60.3786 59.8641 61.128L59.8304 61.1155L54.2334 76.3342C54.1706 76.5048 54.1255 76.6815 54.0988 76.8614L51.8398 92.081L57.0991 92.8613L59.3181 77.9121L61.5786 71.7657C61.8139 72.7105 61.9425 73.6787 61.9619 74.6521C61.9619 79.7729 59.6454 82.0694 59.816 84.6974C60.0843 88.8293 80.1599 87.8532 81.1828 85.5062C82.236 83.0856 80.0984 81.5944 80.1921 73.6772C80.2021 72.8157 80.2686 71.9142 80.3603 70.9966L84.3106 78.0682C84.5174 78.4386 84.8098 78.7541 85.1635 78.9884C85.5172 79.2227 85.9217 79.3689 86.3435 79.4148C86.7652 79.4608 87.1918 79.4051 87.5876 79.2525C87.9834 79.0999 88.3369 78.8548 88.6186 78.5376L99.5634 65.7357L95.4517 62.8456Z" fill="#2771C7"/>
<path d="M186.318 149.318L183.746 159H187.377L191.462 149.318H186.318Z" fill="#DEE8F5"/>
<path d="M233.216 149.318L235.788 159H232.157L228.072 149.318H233.216Z" fill="#DEE8F5"/>
<path d="M202.859 149.318L200.287 159H203.918L208.002 149.318H202.859Z" fill="#D4E4FC"/>
<path d="M249.757 149.318L252.329 159H248.698L244.613 149.318H249.757Z" fill="#D4E4FC"/>
<path d="M253.608 135.371H206.822L209.995 100.855C210.071 100.029 210.453 99.2617 211.065 98.7028C211.678 98.1438 212.478 97.834 213.307 97.834H253.413C253.876 97.834 254.333 97.9304 254.756 98.1171C255.179 98.3038 255.559 98.5767 255.87 98.9183C256.182 99.2599 256.419 99.6627 256.566 100.101C256.713 100.539 256.767 101.004 256.725 101.464L253.608 135.371Z" fill="#D4E4FC"/>
<path d="M212.065 119.236H180.258V151.044H212.065V119.236Z" fill="#D4E4FC"/>
<path d="M244.54 135.371H199.479L202.652 100.855C202.728 100.029 203.11 99.2617 203.723 98.7028C204.335 98.1438 205.135 97.834 205.964 97.834H244.345C244.808 97.834 245.265 97.9305 245.688 98.1172C246.111 98.3039 246.491 98.5767 246.802 98.9183C247.114 99.2599 247.351 99.6628 247.498 100.101C247.645 100.539 247.699 101.004 247.657 101.464L244.54 135.371Z" fill="#DEE8F5"/>
<g opacity="0.48">
<path d="M244.54 135.371H199.479L202.652 100.855C202.728 100.029 203.11 99.2617 203.723 98.7028C204.335 98.1438 205.135 97.834 205.964 97.834H244.345C244.808 97.834 245.265 97.9305 245.688 98.1172C246.111 98.3039 246.491 98.5767 246.802 98.9183C247.114 99.2599 247.351 99.6628 247.498 100.101C247.645 100.539 247.699 101.004 247.657 101.464L244.54 135.371Z" fill="#D4E4FC"/>
</g>
<path d="M228.637 119.236H255.727C256.978 119.236 258.178 119.733 259.062 120.618C259.947 121.503 260.444 122.703 260.444 123.954V147.749C260.444 149.001 259.947 150.201 259.062 151.085C258.178 151.97 256.978 152.467 255.727 152.467H228.637V119.236Z" fill="#D4E4FC"/>
<path d="M228.637 152.467H180.258C178.885 152.467 177.569 151.922 176.598 150.951C175.627 149.981 175.082 148.664 175.082 147.292V124.412C175.091 123.046 175.641 121.738 176.611 120.775C177.58 119.812 178.891 119.272 180.258 119.272C181.625 119.272 182.936 119.812 183.906 120.775C184.875 121.738 185.425 123.046 185.434 124.412V142.115H223.461V124.412C223.461 123.039 224.006 121.723 224.977 120.752C225.947 119.782 227.264 119.236 228.637 119.236C230.009 119.236 231.326 119.782 232.297 120.752C233.267 121.723 233.813 123.039 233.813 124.412V147.292C233.813 148.664 233.267 149.981 232.297 150.951C231.326 151.922 230.009 152.467 228.637 152.467Z" fill="#DEE8F5"/>
<path d="M182.724 131.898H223.531V142.971H182.724C181.847 142.971 181.005 142.622 180.385 142.002C179.765 141.381 179.416 140.54 179.416 139.662V135.206C179.416 134.329 179.765 133.488 180.385 132.867C181.005 132.247 181.847 131.898 182.724 131.898Z" fill="#F3F5FD"/>
<g opacity="0.15">
<path d="M182.724 131.898H223.531V142.971H182.724C181.847 142.971 181.005 142.622 180.385 142.002C179.765 141.381 179.416 140.54 179.416 139.662V135.206C179.416 134.329 179.765 133.488 180.385 132.867C181.005 132.247 181.847 131.898 182.724 131.898Z" fill="#D4E4FC"/>
</g>
<path d="M7.69088 137.076C8.99839 136.648 10.3403 137.13 11.6244 138.105C9.93305 133.834 9.23467 129.977 12.1264 129.803C14.1504 129.681 15.6993 131.234 16.8766 133.441C17.2911 129.561 18.3589 126.667 20.7518 127.626C23.379 128.68 23.7786 132.289 23.3802 136.066C24.5375 134.137 25.7838 133.061 26.9159 134.193C30.293 137.57 22.0039 147.086 22.0039 147.086H19.9446L18.77 148.362C19.0078 148.865 19.138 149.164 19.138 149.164L17.6457 152.201C17.6457 152.201 2.26409 138.852 7.69088 137.076Z" fill="#2771C7"/>
<path d="M11.3819 159.001H23.0321L24.9824 145.4H9.43164L11.3819 159.001Z" fill="#D4E4FC"/>
</g>
<defs>
<clipPath id="clip0_3165_23038">
<rect width="263.703" height="159" fill="white" transform="translate(0.148438)"/>
</clipPath>
</defs>
</svg>
