<svg width="100%" height="auto" viewBox="0 0 290 159" fill="none" xmlns="http://www.w3.org/2000/svg">
<g clip-path="url(#clip0_3165_24043)">
<path d="M289.408 158.999H0.592773C3.75756 150.93 9.60166 144.083 17.8403 142.052C29.892 139.084 42.6458 147.242 54.6708 144.175C61.5041 142.434 66.8809 137.361 72.5327 133.148C93.8542 117.251 123.073 112.552 148.303 120.966C161.491 125.363 173.508 133.05 187.018 136.32C204.488 140.547 222.756 137.041 240.721 136.463C258.217 135.9 283.286 143.029 289.408 158.999Z" fill="#F3F5FD"/>
<path d="M282.05 159H241.05C238.043 156.599 237.835 151.19 240.952 148.777C243.355 146.916 246.987 147.414 249.246 149.349C248.824 147.908 248.816 146.378 249.222 144.932C249.956 142.329 251.588 139.684 254.081 138.631C260.441 135.947 264.96 141.57 265.866 144.714C267.493 142.319 271.137 141.054 273.424 142.666C276.32 144.707 276.189 147.926 273.879 150.236C276.957 149.663 279.276 150.106 281.411 152.397C283.036 154.142 283.286 157.114 282.05 159Z" fill="#D4E4FC"/>
<path d="M226.819 25.2963C226.819 25.2963 224.303 23.9621 224.865 17.1103L219.666 16.1465C219.666 16.1465 220.25 22.2893 217.62 24.2397L226.819 25.2963Z" fill="#E98862"/>
<g opacity="0.15">
<path d="M218.685 22.9541L223.003 19.6504L219.611 19.6152C219.513 20.7762 219.199 21.9086 218.685 22.9541Z" fill="black"/>
</g>
<path d="M227.816 14.4527C227.456 16.5316 226.321 18.5 224.488 19.1709C222.311 19.9681 220.699 20.0218 218.189 20.0218C214.764 20.0218 214.877 16.4503 214.781 12.8508C214.683 9.23694 214.972 5.36083 216.325 4.10155C219.026 1.58788 226.957 3.17971 227.921 7.38381C228.419 9.55875 228.156 12.4743 227.816 14.4527Z" fill="#E98862"/>
<path d="M212.405 2.60548C212.405 0.886415 214.544 -1.92955 220.251 1.95469L220.256 1.95859C221.739 1.91707 223.221 2.07911 224.659 2.44018C227.269 3.22112 230.541 5.40875 229.703 10.7133C228.766 16.6336 226.341 18.214 225.118 18.9403C224.807 19.1251 224.732 18.9728 224.623 18.6289C224.285 17.3507 224.042 16.0488 223.898 14.7342C223.685 13.4549 223.588 12.1589 223.609 10.862C223.609 10.2874 223.606 8.19381 220.755 8.16973C219.151 8.15671 219.75 8.22049 218.039 8.22049C217.795 8.22049 217.579 8.20943 217.381 8.19186H217.379C211.468 8.19121 212.405 4.32421 212.405 2.60548Z" fill="#0F1011"/>
<path d="M219.674 12.8512C219.934 12.8512 220.145 12.6401 220.145 12.3797C220.145 12.1193 219.934 11.9082 219.674 11.9082C219.413 11.9082 219.202 12.1193 219.202 12.3797C219.202 12.6401 219.413 12.8512 219.674 12.8512Z" fill="#0F1011"/>
<path d="M215.954 12.5465C216.214 12.5465 216.425 12.3354 216.425 12.075C216.425 11.8146 216.214 11.6035 215.954 11.6035C215.694 11.6035 215.482 11.8146 215.482 12.075C215.482 12.3354 215.694 12.5465 215.954 12.5465Z" fill="#0F1011"/>
<path d="M215.137 11.0698C215.079 11.068 215.025 11.0441 214.985 11.0031C214.945 10.9621 214.922 10.9071 214.922 10.8498C214.922 10.7925 214.943 10.7372 214.983 10.6957C215.022 10.6541 215.076 10.6295 215.134 10.6269L216.383 10.6113C216.441 10.6133 216.496 10.6369 216.537 10.6773C216.579 10.7177 216.604 10.7722 216.607 10.83C216.607 10.8591 216.602 10.888 216.591 10.915C216.581 10.942 216.564 10.9666 216.544 10.9874C216.524 11.0083 216.5 11.0249 216.473 11.0363C216.446 11.0478 216.417 11.0539 216.388 11.0542L215.14 11.0698H215.137Z" fill="#0F1011"/>
<path d="M220.69 11.5256C220.672 11.5256 220.655 11.5235 220.637 11.5194L219.406 11.2229C219.35 11.2082 219.302 11.172 219.273 11.1223C219.243 11.0726 219.234 11.0133 219.247 10.957C219.261 10.9007 219.296 10.8519 219.345 10.8211C219.394 10.7903 219.453 10.7799 219.51 10.7921L220.741 11.0886C220.794 11.1013 220.84 11.1328 220.871 11.1773C220.902 11.2218 220.915 11.276 220.909 11.3299C220.903 11.3837 220.877 11.4333 220.836 11.4694C220.796 11.5054 220.744 11.5254 220.69 11.5256Z" fill="#0F1011"/>
<path d="M222.126 13.5331C222.09 14.0571 222.263 14.574 222.605 14.972C222.948 15.37 223.434 15.6171 223.957 15.6598C224.481 15.7026 225 15.5376 225.403 15.2005C225.806 14.8634 226.06 14.3813 226.11 13.8585C226.136 13.596 226.109 13.331 226.03 13.0792C225.952 12.8274 225.823 12.594 225.653 12.3929C225.482 12.1918 225.273 12.0271 225.037 11.9086C224.801 11.79 224.544 11.7201 224.281 11.7031C222.856 11.6578 222.216 12.4329 222.126 13.5331Z" fill="#E98862"/>
<g opacity="0.15">
<path d="M217.58 14.9957C217.619 14.9958 217.657 14.9818 217.686 14.9564C217.716 14.931 217.735 14.8958 217.741 14.8572C217.747 14.8187 217.738 14.7793 217.718 14.7464C217.697 14.7134 217.665 14.6889 217.628 14.6775L216.669 14.383L217.339 12.8895C217.348 12.8699 217.354 12.8488 217.354 12.8273C217.355 12.8058 217.352 12.7843 217.344 12.7641C217.337 12.7439 217.325 12.7254 217.311 12.7097C217.296 12.694 217.278 12.6813 217.259 12.6725C217.239 12.6637 217.218 12.6588 217.196 12.6583C217.175 12.6577 217.153 12.6614 217.133 12.6692C217.113 12.6769 217.095 12.6886 217.079 12.7035C217.064 12.7184 217.051 12.7363 217.043 12.756L216.297 14.4178C216.287 14.4389 216.282 14.4617 216.282 14.4848C216.282 14.5078 216.287 14.5306 216.297 14.5516C216.306 14.5727 216.32 14.5914 216.337 14.6067C216.355 14.6219 216.375 14.6333 216.397 14.6401L217.532 14.9886C217.548 14.9933 217.564 14.9958 217.58 14.9957Z" fill="black"/>
</g>
<path d="M219.455 16.0943C219.455 16.0943 217.715 16.2778 216.494 15.8516C216.494 15.8516 216.504 16.9979 217.881 17.1108C219.258 17.2238 219.455 16.0943 219.455 16.0943Z" fill="white"/>
<path d="M106.732 12.5013C106.875 12.1352 106.943 11.818 106.792 11.7334C106.114 11.3527 102.62 15.0199 101.996 15.6443L103.948 14.7934L102.745 15.9973L106.002 17.6243C106.002 17.6243 113.679 13.8032 112.173 11.1014C111.525 9.94011 108.9 11.1851 106.732 12.5013Z" fill="#E98862"/>
<path d="M81.779 155.478L74.9932 154.671C75.2987 152.103 75.644 149.018 75.6677 148.512C75.6661 148.544 75.6661 148.571 75.6661 148.591H82.4994C82.4987 148.796 82.4987 149.42 81.779 155.478Z" fill="#E98862"/>
<path d="M54.5501 156.295L47.7168 156.273C47.7168 156.273 47.7396 149.217 47.7396 148.592H54.5729C54.5729 149.219 54.5501 156.295 54.5501 156.295Z" fill="#E98862"/>
<path d="M72.261 153.321L84.2986 153.116C83.7331 138.789 83.6989 123.76 83.5222 109.397C81.1729 93.9169 79.9351 76.9176 77.0355 61.5482L76.9486 61.5739L76.6945 59.8396L51.9397 58.3105C51.9397 58.3105 47.4265 130.435 45.9561 152.932L57.953 153.946C60.1143 131.889 63.4594 99.7493 65.5168 76.5776C67.8795 87.859 69.4867 99.54 71.5415 110.725C71.9515 124.727 72.2991 139.363 72.261 153.321Z" fill="#262626"/>
<path d="M62.8578 158.939C63.0415 158.938 63.2231 158.899 63.3912 158.825C63.5594 158.751 63.7103 158.643 63.8348 158.508C63.9593 158.372 64.0545 158.213 64.1146 158.039C64.1747 157.866 64.1984 157.682 64.1841 157.498C64.1644 157.244 64.0724 157.001 63.9191 156.798C63.7658 156.594 63.5576 156.439 63.3189 156.35L55.3656 153.686C55.2115 153.635 55.0483 153.618 54.887 153.636C54.7257 153.654 54.5702 153.706 54.431 153.79C53.3377 154.549 52.0297 154.936 50.6994 154.896C49.6633 154.823 48.6687 154.459 47.8291 153.848C47.7553 153.787 47.6659 153.749 47.5711 153.737C47.4764 153.726 47.3803 153.741 47.2941 153.782C47.2079 153.823 47.1351 153.888 47.0842 153.968C47.0334 154.049 47.0065 154.143 47.0068 154.238V158.127C47.0068 158.242 47.0295 158.356 47.0735 158.462C47.1175 158.568 47.182 158.664 47.2633 158.745C47.3446 158.826 47.4411 158.89 47.5473 158.933C47.6534 158.977 47.7671 158.999 47.8818 158.999L62.8578 158.939Z" fill="#C1D8ED"/>
<path d="M90.1036 158.939C90.2873 158.938 90.4689 158.899 90.6371 158.825C90.8052 158.751 90.9562 158.643 91.0807 158.508C91.2052 158.372 91.3005 158.213 91.3606 158.039C91.4207 157.866 91.4444 157.682 91.4302 157.498C91.4104 157.244 91.3184 157.001 91.1651 156.798C91.0118 156.594 90.8036 156.439 90.565 156.35L82.6114 153.686C82.4573 153.635 82.294 153.618 82.1328 153.636C81.9715 153.654 81.8159 153.706 81.6768 153.79C80.5835 154.549 79.2754 154.936 77.9452 154.896C76.9092 154.823 75.9147 154.459 75.0752 153.848C75.0014 153.787 74.912 153.749 74.8172 153.737C74.7225 153.726 74.6264 153.741 74.5402 153.782C74.454 153.823 74.3812 153.888 74.3303 153.968C74.2795 154.049 74.2526 154.143 74.2529 154.238V158.127C74.2529 158.242 74.2756 158.356 74.3196 158.462C74.3636 158.567 74.428 158.664 74.5093 158.745C74.5906 158.826 74.687 158.89 74.7931 158.933C74.8992 158.977 75.0129 158.999 75.1276 158.999L90.1036 158.939Z" fill="#C1D8ED"/>
<path d="M60.0283 25.2373C60.0283 25.2373 62.5443 23.9032 61.9826 17.0517L67.1812 16.0879C67.1812 16.0879 66.5954 22.2307 69.2269 24.1811L60.0283 25.2373Z" fill="#E98862"/>
<g opacity="0.15">
<path d="M68.1627 22.8958L63.8438 19.5918L67.236 19.5566C67.3341 20.7177 67.6484 21.8502 68.1627 22.8958Z" fill="black"/>
</g>
<path d="M59.0339 14.3938C59.3938 16.4727 60.5281 18.4411 62.3617 19.112C64.3606 19.9052 66.5231 20.1973 68.6607 19.9629C74.3519 19.4963 73.226 6.55666 70.5239 4.04266C67.8219 1.52866 59.8917 3.12277 58.9272 7.32557C58.4284 9.50051 58.6906 12.4151 59.0339 14.3938Z" fill="#E98862"/>
<path d="M72.4005 4.4898C72.2307 4.22032 71.9929 4.00034 71.711 3.85202C69.1837 2.47788 64.4999 2.00248 62.2505 2.67539C59.6411 3.45634 56.3686 5.64397 57.2068 10.9486C57.2423 11.1721 57.2804 11.3872 57.3201 11.5993C56.4959 11.4585 55.6488 11.5472 54.8717 11.8557C54.0945 12.1642 53.4173 12.6807 52.9141 13.3485C52.411 14.0163 52.1014 14.8097 52.0191 15.6418C51.9369 16.4739 52.0853 17.3126 52.448 18.066C52.8108 18.8194 53.3738 19.4584 54.0756 19.913C54.7773 20.3677 55.5907 20.6204 56.4265 20.6435C57.2623 20.6667 58.0884 20.4594 58.8142 20.0442C59.54 19.6291 60.1376 19.0223 60.5415 18.2901C60.9285 18.6247 61.3467 18.9214 61.7904 19.1762C62.1018 19.3613 62.1773 19.2107 62.2853 18.8648C62.6624 17.6576 63.0337 12.8817 62.7373 9.41367L68.87 9.20184L69.9382 6.16167L70.8142 9.20184H72.9026C73.1828 7.55404 73.4717 5.68692 72.4005 4.4898Z" fill="#0F1011"/>
<path d="M67.1746 12.7926C67.435 12.7926 67.6461 12.5815 67.6461 12.3211C67.6461 12.0607 67.435 11.8496 67.1746 11.8496C66.9142 11.8496 66.7031 12.0607 66.7031 12.3211C66.7031 12.5815 66.9142 12.7926 67.1746 12.7926Z" fill="#0F1011"/>
<path d="M70.8944 12.4879C71.1548 12.4879 71.3658 12.2768 71.3658 12.0164C71.3658 11.756 71.1548 11.5449 70.8944 11.5449C70.6339 11.5449 70.4229 11.756 70.4229 12.0164C70.4229 12.2768 70.6339 12.4879 70.8944 12.4879Z" fill="#0F1011"/>
<path d="M71.7109 11.0112H71.7083L70.4594 10.9959C70.4006 10.9955 70.3444 10.9718 70.3031 10.93C70.2618 10.8882 70.2389 10.8316 70.2393 10.7729C70.2397 10.7141 70.2634 10.6579 70.3052 10.6166C70.347 10.5753 70.4035 10.5524 70.4623 10.5527H70.4649L71.7138 10.5684C71.7711 10.5709 71.8251 10.5955 71.8646 10.6371C71.9041 10.6786 71.9259 10.7339 71.9256 10.7912C71.9252 10.8485 71.9026 10.9035 71.8626 10.9445C71.8225 10.9855 71.7682 11.0094 71.7109 11.0112Z" fill="#0F1011"/>
<path d="M66.1566 11.467C66.1024 11.4668 66.0501 11.4468 66.0097 11.4108C65.9692 11.3747 65.9434 11.3251 65.9371 11.2713C65.9307 11.2175 65.9443 11.1632 65.9753 11.1187C66.0063 11.0742 66.0525 11.0427 66.1052 11.03L67.3368 10.7335C67.3934 10.7213 67.4525 10.7317 67.5015 10.7625C67.5506 10.7933 67.5856 10.8421 67.5991 10.8984C67.6127 10.9547 67.6036 11.014 67.5739 11.0637C67.5442 11.1134 67.4962 11.1496 67.4403 11.1644L66.2086 11.4608C66.1916 11.4649 66.1741 11.467 66.1566 11.467Z" fill="#0F1011"/>
<path d="M64.7216 13.4745C64.7613 14.001 64.5911 14.5218 64.2481 14.9233C63.9052 15.3247 63.4173 15.5742 62.891 15.6171C62.3648 15.6601 61.8429 15.4931 61.4394 15.1526C61.0358 14.8122 60.7833 14.3258 60.7371 13.7999C60.7111 13.5374 60.7382 13.2723 60.8168 13.0205C60.8953 12.7687 61.0238 12.5353 61.1945 12.3342C61.3651 12.1331 61.5745 11.9684 61.8102 11.8499C62.0458 11.7314 62.3029 11.6615 62.5662 11.6445C63.9907 11.5992 64.6308 12.3743 64.7216 13.4745Z" fill="#E98862"/>
<g opacity="0.15">
<path d="M69.2673 14.9362C69.2283 14.9362 69.1906 14.9222 69.1611 14.8968C69.1315 14.8714 69.1121 14.8362 69.1063 14.7977C69.1005 14.7591 69.1087 14.7198 69.1295 14.6868C69.1503 14.6538 69.1822 14.6294 69.2195 14.6179L70.1784 14.3235L69.5074 12.8296C69.4979 12.81 69.4924 12.7887 69.4913 12.7669C69.4901 12.7451 69.4934 12.7234 69.5008 12.7029C69.5082 12.6824 69.5197 12.6636 69.5346 12.6477C69.5494 12.6317 69.5673 12.6189 69.5872 12.6099C69.607 12.601 69.6285 12.5962 69.6503 12.5957C69.6721 12.5953 69.6938 12.5992 69.714 12.6073C69.7342 12.6153 69.7527 12.6274 69.7682 12.6427C69.7836 12.6581 69.7959 12.6763 69.8042 12.6965L70.5507 14.3583C70.5601 14.3793 70.565 14.4021 70.565 14.4252C70.5649 14.4483 70.56 14.4711 70.5505 14.4921C70.541 14.5131 70.5271 14.5319 70.5098 14.5471C70.4925 14.5624 70.4722 14.5737 70.4501 14.5805L69.3164 14.929C69.3005 14.9339 69.2839 14.9363 69.2673 14.9362Z" fill="black"/>
</g>
<path d="M67.3926 16.0357C67.3926 16.0357 69.1328 16.2192 70.3537 15.793C70.3537 15.793 70.3442 16.9393 68.9668 17.0522C67.5894 17.1652 67.3926 16.0357 67.3926 16.0357Z" fill="white"/>
<path d="M102.55 13.0996L90.3801 29.9821L74.4198 23.9297C73.4494 23.5843 72.4302 23.3952 71.4005 23.3694C71.1955 23.3596 70.8671 23.3531 70.4438 23.3466C70.3595 25.1363 59.2766 25.1298 59.042 23.3043C55.912 23.3076 53.3446 24.2675 51.8572 25.7545C46.7323 30.8795 53.0222 39.6131 53.0222 46.4464C53.0222 53.2797 49.9309 56.3449 50.1587 59.8527C50.5166 65.3649 77.3064 64.0633 78.6695 60.9297C80.0752 57.7018 77.2215 55.7104 77.3487 45.1481C77.3926 41.3159 78.2728 36.8967 78.4456 33.0434L90.4087 37.581C91.1387 37.858 91.9397 37.8864 92.6875 37.6618C93.4352 37.4372 94.088 36.9721 94.5445 36.3387L108.305 17.2484L102.55 13.0996Z" fill="#2771C7"/>
<path d="M70.4438 23.345C70.3596 25.1347 69.3863 27.7672 66.3829 27.9656C62.3805 28.2292 59.2766 25.1282 59.042 23.3027H59.0521C62.9923 23.3027 68.1452 23.3092 70.4438 23.345Z" fill="#E98862"/>
<path d="M59.5407 56.1876L40.7947 51.7548C40.2439 51.625 39.7323 51.3653 39.3024 50.9974C38.8725 50.6296 38.5368 50.1642 38.3234 49.6402C38.11 49.1161 38.0251 48.5487 38.0758 47.9851C38.1264 47.4216 38.3111 46.8783 38.6145 46.4007L51.4149 26.2461L57.4045 30.0496L47.2775 45.9972L61.1719 49.2837L59.5407 56.1876Z" fill="#2771C7"/>
<path d="M205.09 155.48C204.369 149.422 204.369 148.798 204.369 148.593H211.202C211.202 148.573 211.202 148.546 211.202 148.514C211.227 149.02 211.571 152.105 211.877 154.673L205.09 155.48Z" fill="#E98862"/>
<path d="M232.318 156.297C232.318 156.297 232.295 149.221 232.295 148.594H239.128C239.128 149.219 239.151 156.275 239.151 156.275L232.318 156.297Z" fill="#E98862"/>
<path d="M240.912 152.934C239.45 130.575 234.928 58.3125 234.928 58.3125L210.173 59.8406L209.919 61.5749L209.832 61.5492C206.929 76.9358 205.694 93.9299 203.341 109.426C203.176 123.776 203.13 138.807 202.568 153.117L214.608 153.322C214.57 139.184 215.25 124.381 215.668 110.215C215.668 110.215 218.311 91.7856 221.373 76.8112C223.438 100.029 226.749 131.829 228.916 153.948L240.912 152.934Z" fill="#262626"/>
<path d="M224.011 158.939C223.827 158.938 223.646 158.899 223.478 158.825C223.309 158.751 223.158 158.643 223.034 158.508C222.91 158.372 222.814 158.213 222.754 158.039C222.694 157.866 222.67 157.682 222.685 157.498C222.704 157.244 222.796 157.001 222.95 156.798C223.103 156.594 223.311 156.439 223.55 156.35L231.503 153.686C231.657 153.635 231.821 153.618 231.982 153.636C232.143 153.654 232.299 153.706 232.438 153.79C233.531 154.549 234.839 154.936 236.169 154.896C237.205 154.823 238.2 154.459 239.039 153.848C239.113 153.787 239.203 153.749 239.297 153.737C239.392 153.726 239.488 153.741 239.574 153.782C239.661 153.823 239.733 153.888 239.784 153.968C239.835 154.049 239.862 154.143 239.862 154.238V158.127C239.862 158.242 239.839 158.356 239.795 158.462C239.751 158.568 239.687 158.664 239.605 158.745C239.524 158.826 239.428 158.89 239.322 158.933C239.215 158.977 239.102 158.999 238.987 158.999L224.011 158.939Z" fill="#C1D8ED"/>
<path d="M196.764 158.939C196.58 158.938 196.399 158.899 196.231 158.825C196.062 158.751 195.911 158.643 195.787 158.508C195.662 158.372 195.567 158.213 195.507 158.039C195.447 157.866 195.423 157.681 195.438 157.498C195.457 157.244 195.549 157.001 195.703 156.798C195.856 156.594 196.064 156.439 196.303 156.35L204.256 153.686C204.41 153.635 204.574 153.618 204.735 153.636C204.896 153.654 205.052 153.706 205.191 153.79C206.284 154.549 207.592 154.936 208.922 154.896C209.958 154.823 210.953 154.459 211.793 153.848C211.866 153.787 211.956 153.749 212.051 153.737C212.145 153.726 212.241 153.741 212.328 153.782C212.414 153.823 212.487 153.888 212.538 153.968C212.588 154.049 212.615 154.143 212.615 154.238V158.127C212.615 158.242 212.592 158.356 212.548 158.462C212.504 158.568 212.44 158.664 212.358 158.745C212.277 158.826 212.181 158.89 212.074 158.933C211.968 158.977 211.855 158.999 211.74 158.999L196.764 158.939Z" fill="#C1D8ED"/>
<path d="M235.011 25.7549C233.523 24.2679 230.956 23.3079 227.826 23.3047C227.592 25.1302 216.509 25.1367 216.424 23.347C216.001 23.3535 215.672 23.36 215.467 23.3698C211.611 23.536 209.738 25.2112 208.927 27.7066L200.471 45.807L180.687 51.1923L182.55 58.0383L203.921 52.2212C204.418 52.086 204.88 51.844 205.274 51.5121C205.669 51.1803 205.986 50.7666 206.204 50.2998L209.446 43.3588C209.486 43.9663 209.513 44.5627 209.519 45.1484C209.646 55.7108 206.793 57.7022 208.199 60.9301C209.562 64.0637 236.352 65.3652 236.709 59.853C236.937 56.3453 233.846 53.2833 233.846 46.4468C233.846 39.6102 240.136 30.8809 235.011 25.7549Z" fill="#2771C7"/>
<path d="M216.424 23.347C216.508 25.1367 217.481 27.7691 220.485 27.9676C224.487 28.2312 227.591 25.1302 227.826 23.3047H227.816C223.875 23.3047 218.721 23.3112 216.424 23.347Z" fill="#E98862"/>
<path d="M66.1456 50.7997C66.6878 50.6298 67.2487 50.5272 67.8159 50.4941C68.9112 50.4941 69.3261 51.6047 68.277 52.003C67.4363 52.3098 66.5627 52.5173 65.6738 52.6212" fill="#E98862"/>
<path d="M181.421 50.7343C181.934 50.5736 182.465 50.4766 183.001 50.4453C184.037 50.4453 184.43 51.4957 183.437 51.8725C182.642 52.163 181.816 52.3596 180.976 52.4582" fill="#E98862"/>
<path d="M246.243 51.5703H39.207V112.98H246.243V51.5703Z" fill="#D4E4FC"/>
<path d="M228.231 52.6934C227.373 52.8941 222.413 53.9299 222.379 54.7056C222.358 55.1712 224.618 55.1865 224.618 55.1865" fill="#E98862"/>
<path d="M227.801 57.1395C227.801 57.1395 220.505 61.6466 219.004 58.9416C218.216 57.5203 222.049 55.482 224.518 54.3613L228.136 53.5137" fill="#E98862"/>
<path d="M228.489 58.5127L226.059 51.8479L237.502 47.6708L230.119 31.0464L236.603 28.166L245.528 48.2614C245.726 48.7058 245.83 49.1859 245.834 49.6721C245.838 50.1583 245.742 50.6402 245.552 51.0878C245.362 51.5353 245.082 51.9391 244.729 52.2739C244.377 52.6087 243.959 52.8674 243.502 53.034L228.489 58.5127Z" fill="#2771C7"/>
<path d="M176.525 51.8728C176.747 52.819 177.549 53.0029 179.883 53.0029C182.175 53.0029 182.783 52.1894 182.783 50.9171C182.783 49.6448 181.281 49.4883 179.583 49.4883C176.542 49.4883 176.261 50.7469 176.525 51.8728Z" fill="#E98862"/>
<path d="M60.9687 52.0036C61.2034 53.0038 62.051 53.1981 64.5188 53.1981C66.9417 53.1981 67.584 52.3394 67.584 50.9932C67.584 49.6471 65.9961 49.4824 64.2015 49.4824C60.9873 49.4824 60.6896 50.8133 60.9687 52.0036Z" fill="#E98862"/>
<path d="M28.3516 159.001H10.68C7.60766 154.96 2.2214 146.81 5.7015 143.328C7.28487 141.749 9.02541 143.251 10.6452 145.947C10.0895 140.666 10.6452 135.62 14.3202 134.147C17.6659 132.808 19.1618 136.853 19.7394 142.279C21.3849 139.193 23.5533 137.021 26.3797 137.193C30.424 137.434 29.4478 142.827 27.0819 148.799C28.8774 147.435 30.7533 146.762 32.5811 147.361C36.411 148.616 32.8349 153.987 28.3516 159.001Z" fill="#C1D8ED"/>
<path d="M59.6885 93.3246H54.9052V74.7481H48.7812V70.7676H65.8134V74.7481H59.6885V93.3246Z" fill="#2771C7"/>
<path d="M87.7666 93.3246H83.0009V83.5885H74.0675V93.3246H69.2842V70.7676H74.0675V79.6079H83.0002V70.7676H87.7666V93.3246Z" fill="#2771C7"/>
<path d="M107.269 93.3233L105.633 87.9542H97.4105L95.775 93.3233H90.6221L98.5825 70.6758H104.43L112.422 93.3233H107.269ZM104.492 83.9418C102.98 79.0769 102.128 76.3256 101.938 75.6878C101.748 75.0501 101.611 74.5461 101.529 74.1761C101.19 75.4928 100.218 78.7481 98.6134 83.9418H104.492Z" fill="#2771C7"/>
<path d="M135.27 93.3246H129.192L119.38 76.2609H119.241C119.436 79.2751 119.534 81.4248 119.534 82.7099V93.3246H115.26V70.7676H121.292L131.089 87.6627H131.197C131.043 84.7311 130.966 82.6587 130.966 81.4454V70.7676H135.27V93.3246Z" fill="#2771C7"/>
<path d="M159.093 93.3246H153.662L147.753 83.8208L145.732 85.2711V93.3246H140.948V70.7676H145.732V81.0898L147.614 78.4362L153.724 70.7676H159.03L151.162 80.7497L159.093 93.3246Z" fill="#2771C7"/>
<path d="M178.414 80.0553L183.12 70.7676H188.273L180.789 84.5448V93.3246H176.038V84.7016L168.554 70.7699H173.738L178.414 80.0553Z" fill="#2771C7"/>
<path d="M211.584 82.0144C211.584 85.7478 210.658 88.6174 208.807 90.6234C206.956 92.6293 204.302 93.6321 200.846 93.6316C197.39 93.6316 194.737 92.6289 192.885 90.6234C191.034 88.6178 190.108 85.7379 190.108 81.9835C190.108 78.2293 191.037 75.3622 192.893 73.3823C194.749 71.4024 197.41 70.4123 200.877 70.4121C204.343 70.4121 206.994 71.41 208.83 73.4057C210.666 75.4015 211.584 78.271 211.584 82.0144ZM195.122 82.0144C195.122 84.5347 195.601 86.4328 196.557 87.7088C197.514 88.9848 198.943 89.6226 200.846 89.6221C204.662 89.6221 206.57 87.0868 206.57 82.016C206.57 76.9349 204.672 74.3944 200.876 74.3946C198.973 74.3946 197.538 75.0346 196.571 76.3145C195.605 77.5943 195.122 79.4943 195.122 82.0144Z" fill="#2771C7"/>
<path d="M234.618 70.7676V85.3628C234.652 86.8981 234.265 88.4133 233.499 89.7443C232.74 91.0116 231.613 92.0179 230.268 92.6292C228.697 93.3315 226.989 93.6741 225.269 93.6321C222.368 93.6321 220.116 92.8889 218.511 91.4025C216.907 89.9161 216.104 87.8822 216.104 85.3007V70.7676H220.872V84.5757C220.872 86.3142 221.222 87.5896 221.921 88.402C222.62 89.2144 223.777 89.6207 225.392 89.621C226.955 89.621 228.089 89.2121 228.794 88.3942C229.499 87.5764 229.851 86.2933 229.851 84.5448V70.7676H234.618Z" fill="#2771C7"/>
</g>
<defs>
<clipPath id="clip0_3165_24043">
<rect width="288.815" height="159" fill="white" transform="translate(0.592773)"/>
</clipPath>
</defs>
</svg>
