<svg width="108" height="96" viewBox="0 0 108 96" fill="none" xmlns="http://www.w3.org/2000/svg">
<path d="M63.3679 34.8443C63.3679 34.8443 63.2064 26.2041 71.0168 26.2041C79.2509 26.2041 77.7261 20.3572 85.6694 20.8345C91.0384 21.1574 92.431 26.8285 95.5182 27.6665C98.6055 28.5044 101.512 29.5212 101.512 34.6808L63.3679 34.8443Z" fill="white"/>
<path d="M80.2453 77.9749C80.2453 77.9749 80.1262 71.6008 85.8882 71.6008C91.9632 71.6008 90.8382 67.2871 96.6981 67.6393C100.659 67.8777 101.686 72.0617 103.964 72.6799C106.242 73.2981 108.386 74.0483 108.386 77.855L80.2453 77.9749Z" fill="white"/>
<path d="M-0.00026295 48.7618C-0.00026295 48.7618 -0.143539 41.085 6.79563 41.085C14.1112 41.085 12.7565 35.8904 19.8132 36.315C24.5827 36.6019 25.8199 41.6404 28.5633 42.3849C31.3068 43.1294 33.8887 44.0328 33.8887 48.6168L-0.00026295 48.7618Z" fill="white"/>
<path d="M63.3679 34.8443C63.3679 34.8443 63.2064 26.2041 71.0168 26.2041C79.2509 26.2041 77.7261 20.3572 85.6694 20.8345C91.0384 21.1574 92.431 26.8285 95.5182 27.6665C98.6055 28.5044 101.512 29.5212 101.512 34.6808L63.3679 34.8443Z" fill="#F4FBFC"/>
<path d="M80.2453 77.9749C80.2453 77.9749 80.1262 71.6008 85.8882 71.6008C91.9632 71.6008 90.8382 67.2871 96.6981 67.6393C100.659 67.8777 101.686 72.0617 103.964 72.6799C106.242 73.2981 108.386 74.0483 108.386 77.855L80.2453 77.9749Z" fill="#F4FBFC"/>
<path d="M-0.00026295 48.7618C-0.00026295 48.7618 -0.143539 41.085 6.79563 41.085C14.1112 41.085 12.7565 35.8904 19.8132 36.315C24.5827 36.6019 25.8199 41.6404 28.5633 42.3849C31.3068 43.1294 33.8887 44.0328 33.8887 48.6168L-0.00026295 48.7618Z" fill="#F4FBFC"/>
<path d="M81.154 16.2195C81.0938 16.1228 81.054 16.0148 81.0368 15.9022C81.0197 15.7896 81.0258 15.6747 81.0545 15.5644C81.0833 15.4542 81.1342 15.351 81.2042 15.2611C81.2741 15.1712 81.3617 15.0965 81.4614 15.0416C81.6583 14.9419 81.8856 14.9208 82.0975 14.9824C82.3094 15.0439 82.4899 15.1837 82.6027 15.3733L83.2012 16.3348L82.9117 12.9558C82.8498 12.5225 83.0488 11.9519 83.5388 11.9136C83.9327 11.8565 84.2538 11.3269 84.7254 11.5598C84.7297 11.5586 88.4292 14.4737 88.4874 14.8751L88.7153 20.2238C88.9629 21.927 83.1761 21.5856 83.1761 21.5856L81.154 16.2195Z" fill="#FCBEA6"/>
<g opacity="0.1">
<path d="M81.154 16.2195C81.0938 16.1228 81.054 16.0148 81.0368 15.9022C81.0197 15.7896 81.0258 15.6747 81.0545 15.5644C81.0833 15.4542 81.1342 15.351 81.2042 15.2611C81.2741 15.1712 81.3617 15.0965 81.4614 15.0416C81.6583 14.9419 81.8856 14.9208 82.0975 14.9824C82.3094 15.0439 82.4899 15.1837 82.6027 15.3733L83.2012 16.3348L82.9117 12.9558C82.8498 12.5225 83.0488 11.9519 83.5388 11.9136C83.9327 11.8565 84.2538 11.3269 84.7254 11.5598C84.7297 11.5586 88.4292 14.4737 88.4874 14.8751L88.7153 20.2238C88.9629 21.927 83.1761 21.5856 83.1761 21.5856L81.154 16.2195Z" fill="#0C0C0C"/>
</g>
<path d="M41.6057 42.4575C41.6057 42.4575 41.2735 47.4428 40.1521 49.2508C36.9237 54.4577 35.9884 60.3151 39.2214 63.3755C42.4544 66.4359 63.0755 66.4788 64.6378 59.44C65.953 53.5142 63.1305 52.877 62.4438 47.9889C62.1331 45.7769 61.2782 41.1389 61.2782 41.1389" fill="#0A0A0A"/>
<path d="M59.3004 58.408C59.2646 58.4034 58.8698 64.9584 51.2555 64.3869C45.9843 63.992 44.1049 58.3983 43.9834 58.3983C44.5519 58.2774 45.5088 58.1018 45.7612 57.9671C46.5913 57.521 47.6179 57.0569 47.8858 55.4448C48.0405 54.5163 47.7784 49.7622 47.859 48.8217L55.9502 50.6279C55.8371 52.6133 55.0459 57.2162 57.8193 58.0307C58.2814 58.1664 58.7785 58.2902 59.3004 58.408Z" fill="#FCBEA6"/>
<path opacity="0.5" d="M56.0642 56.1506C55.9375 55.7421 55.8559 55.3209 55.8209 54.8947C55.7319 53.9219 55.7496 52.9423 55.8738 51.9734C54.2294 51.7514 52.6801 51.0725 51.4022 50.014C51.2519 50.5689 50.4257 52.9938 50.6545 53.5212C51.0865 54.518 53.1186 56.1506 56.0642 56.1506Z" fill="#0C0C0C"/>
<path d="M55.0181 54.1083C51.828 54.4177 47.7005 53.1408 46.8455 48.8921L46.074 45.0584C45.2188 40.8098 46.757 36.9164 50.7569 36.1111C54.7569 35.3064 58.4397 38.1484 59.2947 42.3971L59.6364 44.0944C59.9644 45.7246 60.7097 53.5575 55.0181 54.1083Z" fill="#FCBEA6"/>
<path d="M57.2868 49.0272C56.2503 49.5543 55.0678 49.721 53.926 49.5009C53.8865 49.4934 53.8456 49.4973 53.8082 49.5122C53.7708 49.527 53.7384 49.5523 53.7149 49.5849C53.6913 49.6175 53.6775 49.6562 53.6752 49.6964C53.6728 49.7366 53.6819 49.7766 53.7015 49.8118C54.0419 50.4117 54.8493 51.4366 56.2342 51.0188C57.1287 50.7489 57.4668 49.8286 57.5921 49.2595C57.6006 49.2201 57.5978 49.1791 57.5838 49.1413C57.5699 49.1036 57.5454 49.0705 57.5134 49.0461C57.4813 49.0218 57.443 49.007 57.4029 49.0037C57.3627 49.0003 57.3225 49.0085 57.2868 49.0272Z" fill="white"/>
<path d="M57.3519 44.4169C57.6285 44.4169 57.8528 44.1926 57.8528 43.9159C57.8528 43.6393 57.6285 43.415 57.3519 43.415C57.0753 43.415 56.8511 43.6393 56.8511 43.9159C56.8511 44.1926 57.0753 44.4169 57.3519 44.4169Z" fill="#0C0C0C"/>
<path d="M52.5389 45.2596C52.8155 45.2596 53.0398 45.0353 53.0398 44.7587C53.0398 44.482 52.8155 44.2578 52.5389 44.2578C52.2623 44.2578 52.0381 44.482 52.0381 44.7587C52.0381 45.0353 52.2623 45.2596 52.5389 45.2596Z" fill="#0C0C0C"/>
<path opacity="0.1" d="M52.99 48.5409C53.5149 48.4783 53.9033 48.1153 53.8573 47.7302C53.8114 47.3451 53.3486 47.0837 52.8236 47.1464C52.2986 47.209 51.9103 47.572 51.9562 47.9571C52.0022 48.3422 52.465 48.6036 52.99 48.5409Z" fill="#0C0C0C"/>
<path opacity="0.1" d="M58.5373 47.0011C58.5837 47.3856 59.047 47.6467 59.5721 47.5848C59.6628 47.5739 59.7522 47.5536 59.8387 47.5243C59.8632 47.0658 59.8646 46.6246 59.8511 46.2162C59.7053 46.1798 59.554 46.171 59.405 46.1901C58.8799 46.2521 58.4918 46.6149 58.5373 47.0011Z" fill="#0C0C0C"/>
<path opacity="0.5" d="M56.2175 48.1897L56.2254 48.1885C56.3875 48.1547 56.5476 48.112 56.705 48.0605C56.9399 47.9819 57.2466 47.8528 57.2045 47.6404C57.1559 47.3982 55.9667 44.9198 55.8316 44.6383C55.8198 44.6137 55.7986 44.5948 55.7728 44.5857C55.747 44.5767 55.7187 44.5783 55.6941 44.5901C55.6695 44.6019 55.6506 44.6231 55.6415 44.6489C55.6325 44.6746 55.6341 44.703 55.6459 44.7276C56.153 45.7831 56.9696 47.5184 57.0024 47.6815C56.9767 47.7575 56.5871 47.9059 56.185 47.987C56.1584 47.9917 56.1347 48.0067 56.119 48.0287C56.1034 48.0507 56.097 48.078 56.1013 48.1047C56.1056 48.1313 56.1202 48.1553 56.1419 48.1713C56.1637 48.1873 56.1909 48.1941 56.2176 48.1902L56.2175 48.1897Z" fill="#0C0C0C"/>
<path d="M42.8822 46.4346L46.4682 45.7341C49.177 44.6012 49.9454 39.8797 49.9454 39.8797C49.9454 39.8797 53.2885 43.0638 61.2783 41.1384C61.2783 41.1384 59.5427 29.9835 47.7451 33.3694C43.941 34.4612 41.2466 38.3391 41.6474 43.4754C41.9282 47.0749 42.8822 46.4346 42.8822 46.4346Z" fill="#0A0A0A"/>
<path d="M47.3543 50.1366C46.1388 50.3812 44.8916 49.279 44.6466 48.063C44.4017 46.847 45.2525 45.9784 46.4681 45.7338L47.2584 46.4222L48.3991 49.9258L47.3543 50.1366Z" fill="#FCBEA6"/>
<path d="M56.6934 42.6616C56.9975 42.4464 57.3532 42.3158 57.7243 42.2829C57.9105 42.2652 58.0982 42.2756 58.2813 42.3139C58.4662 42.3516 58.6455 42.4124 58.8153 42.4948L58.8207 42.4973C58.8395 42.5056 58.8608 42.5062 58.8801 42.499C58.8993 42.4918 58.915 42.4773 58.9237 42.4587C58.9325 42.4401 58.9336 42.4188 58.9269 42.3994C58.9201 42.3799 58.9061 42.3639 58.8877 42.3547C58.7078 42.2597 58.5167 42.1877 58.3189 42.1406C58.1197 42.0921 57.9144 42.0739 57.7097 42.0866C57.2953 42.1095 56.8946 42.2431 56.5493 42.4734C56.5234 42.4911 56.5055 42.5183 56.4996 42.5491C56.4938 42.5799 56.5004 42.6118 56.518 42.6378C56.5357 42.6637 56.5629 42.6816 56.5937 42.6874C56.6245 42.6933 56.6564 42.6867 56.6824 42.669L56.6852 42.667L56.6934 42.6616Z" fill="#0C0C0C"/>
<path d="M53.4176 43.1144C53.0104 43.0335 52.5889 43.0633 52.1972 43.2007C52.0035 43.2674 51.821 43.3628 51.6556 43.4838C51.4909 43.6031 51.342 43.7427 51.2122 43.8992C51.1985 43.9147 51.1914 43.935 51.1925 43.9557C51.1936 43.9763 51.2028 43.9957 51.2181 44.0097C51.2333 44.0236 51.2535 44.031 51.2742 44.0302C51.2948 44.0294 51.3144 44.0205 51.3285 44.0054L51.3327 44.0011C51.4579 43.86 51.6003 43.7352 51.7567 43.6297C51.9113 43.5241 52.0811 43.4426 52.2601 43.3878C52.6156 43.2763 52.9942 43.2609 53.3575 43.3431L53.3664 43.3453C53.3969 43.3526 53.4291 43.3476 53.4558 43.3313C53.4826 43.315 53.5018 43.2887 53.5092 43.2582C53.5166 43.2277 53.5115 43.1956 53.4952 43.1688C53.4789 43.142 53.4526 43.1229 53.4221 43.1155L53.4176 43.1144Z" fill="#0C0C0C"/>
<path d="M46.4703 45.6753C48.8809 44.7777 49.6807 43.113 49.9272 41.8741C50.0866 41.0479 50.0717 40.1974 49.8834 39.3773L49.8088 39.3977C49.9942 40.2072 50.0085 41.0465 49.8507 41.8619C49.6077 43.0805 48.819 44.7186 46.4434 45.6028L46.4703 45.6753Z" fill="#0C0C0C"/>
<path d="M19.0263 27.5388L17.4435 22.4806C17.4087 22.3695 17.3511 22.2668 17.2745 22.1792C17.1978 22.0915 17.1038 22.0207 16.9983 21.9714C16.8928 21.9221 16.7782 21.8952 16.6618 21.8926C16.5454 21.89 16.4297 21.9117 16.3222 21.9562C16.1261 22.0446 15.9698 22.2027 15.8837 22.3998C15.7976 22.597 15.7877 22.819 15.856 23.023L16.1954 24.1076L13.5626 21.1868C13.2756 20.8569 12.7116 20.6358 12.3636 20.9822C12.2207 21.1068 12.1243 21.276 12.09 21.4625C12.0557 21.6489 12.0855 21.8414 12.1747 22.0087C12.1709 22.0106 12.1673 22.0129 12.164 22.0156C12.1619 22.0181 12.1599 22.0207 12.1582 22.0234L11.7156 21.5147C11.6336 21.4205 11.5316 21.3458 11.417 21.2961C11.3025 21.2463 11.1782 21.2228 11.0534 21.2271C10.9286 21.2315 10.8063 21.2637 10.6955 21.3213C10.5847 21.3789 10.4881 21.4605 10.4128 21.5602C10.2974 21.7195 10.2403 21.9136 10.2509 22.11C10.2614 22.3065 10.3392 22.4933 10.471 22.6393L10.6593 22.8559C10.6556 22.8643 10.6534 22.8732 10.6528 22.8824C10.4916 22.7656 10.2941 22.71 10.0957 22.7255C9.89729 22.741 9.71085 22.8266 9.56974 22.967C9.41989 23.1251 9.33516 23.3339 9.33246 23.5517C9.32977 23.7695 9.4093 23.9804 9.5552 24.1421L10.0231 24.6797C10.0111 24.6768 9.99861 24.6768 9.98662 24.6796C9.97462 24.6825 9.96347 24.6881 9.95408 24.6961C9.94342 24.7062 9.93595 24.7192 9.93257 24.7334C9.76016 24.6694 9.5715 24.6638 9.39558 24.7174C9.21967 24.7711 9.06624 24.881 8.95888 25.0304C8.84931 25.1896 8.79668 25.3811 8.80951 25.5739C8.82235 25.7667 8.89989 25.9496 9.02959 26.0929L12.9771 30.6289C13.5295 31.2634 14.2586 31.7184 15.0712 31.9358C15.8837 32.1533 16.7427 32.1231 17.538 31.8492C18.2237 31.6129 18.7903 31.1185 19.1174 30.4711C19.4445 29.8236 19.5063 29.0741 19.2897 28.3818L19.0263 27.5388Z" fill="#FCBEA6"/>
<g opacity="0.2">
<path d="M14.7661 24.9128C14.7507 24.9261 14.7308 24.9328 14.7105 24.9315C14.6903 24.9302 14.6713 24.921 14.6578 24.9058L12.158 22.1249C12.1443 22.1096 12.1372 22.0895 12.1383 22.069C12.1394 22.0485 12.1486 22.0293 12.1638 22.0156C12.1791 22.0018 12.1992 21.9947 12.2197 21.9958C12.2402 21.9969 12.2594 22.0061 12.2731 22.0214L14.7732 24.8023C14.7869 24.8176 14.794 24.8376 14.793 24.8581C14.7919 24.8786 14.7827 24.8978 14.7675 24.9116L14.7661 24.9128Z" fill="#0C0C0C"/>
</g>
<g opacity="0.2">
<path d="M13.5702 26.0494C13.5549 26.0627 13.5349 26.0694 13.5146 26.0681C13.4944 26.0668 13.4754 26.0576 13.4619 26.0424L10.6722 22.9389C10.6585 22.9236 10.6514 22.9035 10.6524 22.883C10.6535 22.8626 10.6627 22.8433 10.6779 22.8296C10.6935 22.8165 10.7135 22.8098 10.7338 22.8109C10.7541 22.812 10.7732 22.8208 10.7873 22.8355L13.5773 25.9389C13.5911 25.9542 13.5982 25.9742 13.5971 25.9947C13.596 26.0152 13.5869 26.0344 13.5716 26.0482L13.5702 26.0494Z" fill="#0C0C0C"/>
</g>
<g opacity="0.2">
<path d="M12.2821 27.288C12.2668 27.3012 12.2468 27.3079 12.2265 27.3066C12.2063 27.3053 12.1873 27.296 12.1738 27.2808L9.94856 24.8058C9.93483 24.7906 9.92773 24.7705 9.92882 24.75C9.92991 24.7295 9.9391 24.7102 9.95436 24.6965C9.96963 24.6828 9.98972 24.6757 10.0102 24.6768C10.0307 24.6779 10.0499 24.6871 10.0637 24.7023L12.2894 27.1782C12.3031 27.1935 12.3102 27.2136 12.3091 27.2341C12.308 27.2546 12.2988 27.2738 12.2835 27.2875L12.2821 27.288Z" fill="#0C0C0C"/>
</g>
<path d="M80.5838 18.3849L75.5173 42.8451L58.2651 60.275L67.3236 68.7119L84.4283 49.1806L84.5309 49.0651C85.1339 48.3711 85.5545 47.5377 85.7544 46.6403L91.5618 20.7537L80.5838 18.3849Z" fill="#EB008B"/>
<path d="M50.9975 62.7564C45.7229 62.5077 45.5009 58.0297 45.5009 58.0297C45.5009 58.0297 42.8872 58.1985 41.1498 58.4337C38.3051 58.8186 36.4288 59.7832 34.9354 61.2767C33.5462 62.6661 33.9403 67.0004 33.9403 67.0004L35.3346 95.9997H67.1697L68.6748 67.1599C68.6748 67.1599 70.385 63.5002 67.4782 60.4242C65.37 58.194 59.9278 58.0297 57.7369 58.0297C57.7012 58.0297 58.1813 63.0951 50.9975 62.7564Z" fill="#EB008B"/>
<path d="M26.2152 47.6976L20.511 27.2951L9.72461 30.4231L16.3186 52.3887C16.6202 53.3843 17.1927 54.2763 17.9723 54.9649L18.0806 55.0598L35.4547 70.3331L43.3035 60.7604L26.2152 47.6976Z" fill="#EB008B"/>
<path d="M81.8152 12.2692L81.5542 12.4471C80.8911 12.8995 80.1454 13.2168 79.3597 13.3809C78.574 13.5451 77.7637 13.5528 76.975 13.4037C76.1863 13.2546 75.4347 12.9516 74.7631 12.512C74.0915 12.0723 73.513 11.5047 73.0608 10.8415L70.6172 7.25773C70.585 7.21046 70.5624 7.15731 70.5507 7.10131C70.539 7.0453 70.5385 6.98754 70.5491 6.93133C70.5597 6.87512 70.5813 6.82155 70.6127 6.77368C70.644 6.72582 70.6845 6.68459 70.7317 6.65237L80.3709 0.0760028C80.4663 0.0109191 80.5837 -0.0135948 80.6973 0.00784848C80.8108 0.0292918 80.9112 0.0949377 80.9763 0.19036L83.421 3.77472C83.8733 4.43791 84.1906 5.1837 84.3546 5.96952C84.5187 6.75533 84.5264 7.56578 84.3773 8.35458C84.2282 9.14337 83.9252 9.89507 83.4856 10.5667C83.046 11.2384 82.4784 11.8169 81.8152 12.2692Z" fill="#FFB400"/>
<path d="M76.9946 5.36813L78.4588 6.19447C78.4688 6.20011 78.48 6.20324 78.4914 6.20359C78.5029 6.20395 78.5143 6.20151 78.5246 6.19649L80.0353 5.45851C80.0472 5.45277 80.0604 5.45045 80.0735 5.45181C80.0866 5.45316 80.099 5.45813 80.1094 5.46616C80.1199 5.47419 80.1278 5.48497 80.1325 5.49728C80.1371 5.5096 80.1383 5.52296 80.1357 5.53588L79.8025 7.18392C79.8002 7.19517 79.8006 7.20681 79.8038 7.21784C79.8071 7.22887 79.8129 7.23895 79.8209 7.24721L80.9894 8.45608C80.9986 8.46556 81.0049 8.47742 81.0077 8.49033C81.0105 8.50323 81.0096 8.51666 81.0052 8.52909C81.0007 8.54152 80.9929 8.55246 80.9825 8.56067C80.9722 8.56888 80.9598 8.57403 80.9467 8.57554L79.2764 8.76804C79.265 8.76934 79.2541 8.77341 79.2446 8.77988C79.2351 8.78635 79.2273 8.79503 79.2219 8.80518L78.4328 10.2907C78.4266 10.3024 78.4172 10.312 78.4058 10.3186C78.3944 10.3252 78.3814 10.3285 78.3682 10.3281C78.355 10.3277 78.3422 10.3237 78.3312 10.3164C78.3202 10.3091 78.3115 10.2989 78.3059 10.2869L77.607 8.75767C77.6023 8.74722 77.595 8.73808 77.586 8.73104C77.5769 8.72401 77.5662 8.71929 77.5549 8.71729L75.8993 8.42621C75.8863 8.42393 75.8742 8.41806 75.8644 8.40925C75.8545 8.40045 75.8474 8.38906 75.8437 8.37639C75.84 8.36372 75.8399 8.35026 75.8434 8.33754C75.847 8.32482 75.854 8.31335 75.8637 8.30443L77.1016 7.16705C77.1099 7.15927 77.1163 7.14958 77.1202 7.13881C77.124 7.12803 77.1252 7.11649 77.1237 7.10515L76.8888 5.44025C76.8867 5.42699 76.8885 5.41343 76.8938 5.40112C76.8991 5.38881 76.9078 5.37827 76.9189 5.37071C76.93 5.36316 76.943 5.35891 76.9564 5.35845C76.9698 5.358 76.9831 5.36135 76.9946 5.36813Z" fill="#F4FBFC"/>
<path d="M82.2137 10.5086L80.9914 11.3421L80.7438 11.5104L79.769 12.1758C79.769 12.1758 86.4105 18.2463 86.0939 25.6149L89.0074 23.6275L89.255 23.4591L92.4153 21.3033C85.4399 18.9083 82.2137 10.5086 82.2137 10.5086Z" fill="#FFB400"/>
<path d="M93.275 18.9545L83.5945 25.5578C83.3339 25.7356 83.2667 26.0911 83.4444 26.3517L85.6294 29.5557C85.8072 29.8164 86.1626 29.8836 86.4232 29.7058L96.1037 23.1024C96.3643 22.9246 96.4315 22.5691 96.2538 22.3085L94.0688 19.1045C93.891 18.8439 93.5356 18.7767 93.275 18.9545Z" fill="#FFB400"/>
<path d="M74.7986 13.6642C74.3306 13.9845 73.7858 14.1744 73.2201 14.2143C72.6544 14.2543 72.0883 14.1429 71.58 13.8915C71.0716 13.6402 70.6393 13.258 70.3276 12.7842C70.0158 12.3104 69.8359 11.7622 69.8061 11.1958C69.7764 10.6294 69.8981 10.0653 70.1585 9.56154C70.419 9.05774 70.8089 8.63241 71.2882 8.32924C71.7675 8.02608 72.3189 7.85604 72.8856 7.83658C73.4524 7.81713 74.0141 7.94896 74.513 8.21855C74.9949 8.47869 75.4017 8.8584 75.6945 9.32118C75.9872 9.78397 76.1561 10.3143 76.1847 10.8612C76.2134 11.408 76.101 11.9531 75.8583 12.444C75.6155 12.9349 75.2506 13.3551 74.7986 13.6642ZM71.8231 9.31584C71.4492 9.57128 71.169 9.94197 71.0252 10.3714C70.8815 10.8009 70.8821 11.2656 71.0269 11.6947C71.1717 12.1238 71.4529 12.4938 71.8275 12.7483C72.202 13.0028 72.6495 13.1278 73.1018 13.1043C73.554 13.0808 73.9861 12.9101 74.3324 12.6182C74.6786 12.3263 74.9199 11.9292 75.0195 11.4874C75.1192 11.0457 75.0717 10.5834 74.8842 10.1711C74.6968 9.75884 74.3798 9.41915 73.9814 9.20381C73.6459 9.02308 73.2672 8.93795 72.8866 8.95771C72.506 8.97747 72.1381 9.10135 71.8231 9.31584Z" fill="#FFB400"/>
<path d="M85.6074 6.29259C85.4917 6.37152 85.3709 6.4428 85.2458 6.50598C84.4898 6.88789 83.613 6.95377 82.8083 6.68913C82.0037 6.4245 81.3371 5.85102 80.9553 5.09486C80.5734 4.3387 80.5075 3.4618 80.7721 2.65706C81.0367 1.85233 81.6102 1.18568 82.3662 0.803773C83.0898 0.438518 83.9253 0.362093 84.7031 0.58999C85.481 0.817888 86.1431 1.33306 86.5553 2.03108C86.9675 2.7291 87.0989 3.55774 86.9229 4.34906C86.7469 5.14038 86.2766 5.83516 85.6074 6.29259ZM82.633 1.94239C82.304 2.16774 82.0469 2.48309 81.8925 2.85072C81.738 3.21835 81.6927 3.6227 81.762 4.01541C81.8313 4.40811 82.0122 4.77255 82.2831 5.06512C82.554 5.35769 82.9035 5.56602 83.2897 5.66518C83.6759 5.76435 84.0825 5.75015 84.4608 5.62428C84.8391 5.49842 85.1732 5.26622 85.4231 4.95546C85.6729 4.6447 85.828 4.26854 85.8697 3.87196C85.9114 3.47538 85.8381 3.07517 85.6583 2.71921C85.5355 2.4759 85.3659 2.25918 85.1593 2.08141C84.9527 1.90365 84.7131 1.76832 84.4542 1.68317C84.1953 1.59801 83.9222 1.5647 83.6504 1.58512C83.3787 1.60554 83.1136 1.6793 82.8703 1.80219C82.7882 1.84369 82.7089 1.89052 82.633 1.94239Z" fill="#FFB400"/>
<path d="M84.938 16.1711C84.8499 16.0501 84.8037 15.9036 84.8064 15.7539C84.8092 15.6042 84.8609 15.4596 84.9535 15.3419C84.943 15.3361 84.9131 15.3292 84.9242 15.311L84.4092 15.5617C84.259 15.6389 84.0859 15.6591 83.922 15.6186C83.7581 15.5781 83.6144 15.4796 83.5175 15.3413C83.4262 15.2017 83.39 15.0332 83.4159 14.8684C83.4418 14.7036 83.528 14.5543 83.6577 14.4494C83.6513 14.4474 83.6479 14.4404 83.6422 14.4364L83.4303 14.5394C83.2886 14.6116 83.1262 14.6325 82.9708 14.5986C82.8153 14.5648 82.6763 14.4783 82.5773 14.3537C82.5169 14.2744 82.4748 14.1825 82.4541 14.0849C82.4334 13.9873 82.4347 13.8863 82.4577 13.7892C82.4808 13.6921 82.5251 13.6014 82.5875 13.5235C82.6499 13.4456 82.7288 13.3826 82.8186 13.3389L83.307 13.1011C83.3053 13.0988 83.3021 13.0984 83.3007 13.0957C83.2993 13.0929 83.3007 13.0884 83.2998 13.0848C83.1513 13.1196 82.9954 13.1029 82.8577 13.0374C82.72 12.972 82.6085 12.8618 82.5416 12.7247C82.3459 12.3818 82.6352 11.9911 82.951 11.8374L83.9837 11.4304C84.143 11.3677 84.3154 11.3454 84.4854 11.3654C84.6555 11.3854 84.818 11.4471 84.9584 11.5451C86.1749 12.3922 89.2993 14.6804 88.2911 15.1711L85.809 16.379C85.6613 16.4461 85.4955 16.4621 85.3378 16.4244C85.1801 16.3867 85.0394 16.2976 84.938 16.1711Z" fill="#FCBEA6"/>
<path d="M8.5766 96.0003H99.2662C99.3072 96.0003 99.3466 95.984 99.3756 95.955C99.4046 95.9259 99.4209 95.8866 99.4209 95.8455C99.4209 95.8045 99.4046 95.7651 99.3756 95.7361C99.3466 95.7071 99.3072 95.6908 99.2662 95.6908H8.5766C8.53557 95.6908 8.49621 95.7071 8.46719 95.7361C8.43818 95.7651 8.42188 95.8045 8.42188 95.8455C8.42188 95.8866 8.43818 95.9259 8.46719 95.955C8.49621 95.984 8.53557 96.0003 8.5766 96.0003Z" fill="#1A727A"/>
<path d="M4.80533 62.242L3.65234 62.6924L5.2795 66.8528L6.43248 66.4024L4.80533 62.242Z" fill="#FFFBDF"/>
<path d="M98.3189 49.4986L95.3389 52.8264L96.2609 53.6524L99.241 50.3246L98.3189 49.4986Z" fill="#FFFBDF"/>
<path d="M84.6562 64.3928L83.9141 65.3837L87.4891 68.0619L88.2313 67.071L84.6562 64.3928Z" fill="#FFE12E"/>
<path d="M30.9289 29.0167L27.6758 32.0783L28.524 32.9799L31.7772 29.9183L30.9289 29.0167Z" fill="#FFFBDF"/>
<path d="M66.9608 23.8236L65.8877 24.4406L68.114 28.3137L69.1871 27.6967L66.9608 23.8236Z" fill="#FFFBDF"/>
<path d="M23.1905 77.0942L20.8066 80.8722L21.8534 81.5329L24.2373 77.7549L23.1905 77.0942Z" fill="#FFE12E"/>
<path d="M83.1716 86.1723L81.1753 90.1686L82.2826 90.7219L84.2789 86.7255L83.1716 86.1723Z" fill="#FFE12E"/>
<path d="M99.3725 75.6573L98.187 76.0128L99.4697 80.2919L100.655 79.9365L99.3725 75.6573Z" fill="#FFFBDF"/>
<path d="M12.6436 87.4393L11.9541 88.468L15.666 90.9563L16.3555 89.9276L12.6436 87.4393Z" fill="#FFFBDF"/>
<path d="M52.2758 14.1988L51.2026 14.8158L53.4288 18.6888L54.5019 18.0718L52.2758 14.1988Z" fill="#FFE12E"/>
</svg>
