<svg width="209" height="128" viewBox="0 0 209 128" fill="none" xmlns="http://www.w3.org/2000/svg">
<path d="M208.516 3.06318C171.273 61.119 79.4676 164.74 10.1947 114.78C-25.4194 70.3709 30.3062 -17.4761 208.516 3.06318Z" fill="#F4FBFC"/>
<mask id="mask0_1586_264" style="mask-type:alpha" maskUnits="userSpaceOnUse" x="0" y="0" width="209" height="128">
<path d="M208.516 3.06318C171.273 61.119 79.4676 164.74 10.1947 114.78C-25.4194 70.3709 30.3062 -17.4761 208.516 3.06318Z" fill="#FFF3AA"/>
</mask>
<g mask="url(#mask0_1586_264)">
<g opacity="0.5">
<path d="M21.6596 107.274C21.4951 106.064 21.5295 104.574 22.5804 103.955C24.1245 103.045 25.739 104.904 27.2502 105.87C27.597 106.091 27.9962 106.274 28.4043 106.229C28.8108 106.184 29.1636 105.916 29.4282 105.604C30.358 104.511 30.3984 102.93 30.2489 101.502C30.0994 100.075 29.8109 98.6007 30.2414 97.233C30.6704 95.8652 32.1518 94.6918 33.4927 95.1925C36.5107 96.3211 36.6109 92.1745 37.9861 90.5466C38.5661 89.8605 39.4645 89.3746 40.348 89.5286C41.215 89.6811 41.8727 90.3971 42.3226 91.1535C43.3466 92.8755 43.7308 95.3091 42.9804 97.215C42.2748 99.0073 40.1267 100.094 40.2643 102.269C40.3599 103.765 41.6858 105.029 41.5782 106.523C41.4885 107.772 40.4212 108.752 40.1895 109.981C39.8786 111.637 41.1447 113.319 40.7306 114.953C40.4616 116.014 39.5303 116.806 39.2343 117.862C38.8696 119.162 39.5408 120.5 39.7336 121.836C40.1462 124.699 38.0758 127.843 35.0906 128.176C32.539 128.462 30.7945 125.82 29.2757 124.062C25.2068 119.349 22.4982 113.45 21.6596 107.274Z" fill="#D5FAFD"/>
<path d="M34.0535 120.979C34.049 120.979 34.043 120.979 34.037 120.979C33.883 120.97 33.7649 120.838 33.7739 120.683L34.632 105.474C34.6394 105.32 34.7575 105.207 34.9279 105.211C35.0819 105.22 35.2 105.352 35.191 105.507L34.333 120.715C34.3255 120.863 34.2014 120.979 34.0535 120.979Z" fill="white"/>
<path d="M34.5582 112.086C34.4925 112.086 34.4267 112.063 34.3744 112.017L30.5237 108.651C30.4071 108.549 30.3951 108.373 30.4968 108.256C30.5984 108.14 30.7763 108.128 30.8914 108.229L34.7421 111.596C34.8587 111.697 34.8707 111.874 34.769 111.99C34.7137 112.054 34.636 112.086 34.5582 112.086Z" fill="white"/>
<path d="M32.988 129.75C31.7473 129.497 30.4662 128.633 29.2135 127.97C26.4765 126.52 25.8965 124.056 14.4924 124.433C9.19175 124.608 11.869 118.336 8.14985 114.533C6.97492 113.332 5.80297 111.978 5.53988 110.319C5.27679 108.66 6.33961 106.689 8.01681 106.6C9.02433 106.546 9.9317 107.145 10.8705 107.513C11.8092 107.881 13.0768 107.923 13.6254 107.076C12.881 106.075 11.8167 105.366 10.9198 104.498C10.0244 103.629 9.25454 102.468 9.38309 101.227C9.5819 99.3093 11.443 100.111 11.9856 99.2316C12.7136 98.0522 11.9408 95.4527 12.3518 93.9474C13.3145 90.4181 18.6899 88.0488 21.4868 91.0967C24.7231 94.626 24.2671 100.451 24.0041 105.253C23.6378 111.929 30.4034 112.788 33.3527 116.754C35.4799 119.612 38.8283 124.89 36.1705 128.399C35.172 129.716 34.0957 129.976 32.988 129.75Z" fill="#AAE5EA"/>
<path d="M35.8165 130.64C35.7343 130.64 35.6536 130.604 35.5982 130.535L20.7441 112.152C20.6469 112.032 20.6649 111.854 20.7859 111.757C20.907 111.66 21.0819 111.68 21.1791 111.799L36.0332 130.184C36.1304 130.304 36.1125 130.482 35.9914 130.579C35.9421 130.621 35.8793 130.64 35.8165 130.64Z" fill="white"/>
<path d="M28.5014 122.023C28.47 122.023 28.4371 122.017 28.4057 122.006L19.5982 118.801C19.4532 118.749 19.3784 118.588 19.4308 118.443C19.4831 118.298 19.643 118.221 19.7895 118.275L28.5971 121.48C28.7421 121.532 28.8168 121.694 28.7645 121.839C28.7241 121.952 28.6165 122.023 28.5014 122.023Z" fill="white"/>
<path d="M24.3217 116.487C24.2903 116.487 24.2574 116.481 24.226 116.47L15.4185 113.266C15.2735 113.213 15.1987 113.052 15.2511 112.907C15.3034 112.762 15.4633 112.687 15.6098 112.739L24.4174 115.944C24.5624 115.997 24.6371 116.158 24.5848 116.303C24.5429 116.415 24.4353 116.487 24.3217 116.487Z" fill="white"/>
<path d="M31.5725 125.822C31.4171 125.822 31.2915 125.697 31.293 125.541L31.3139 117.795C31.3139 117.641 31.4395 117.516 31.5934 117.516C31.7489 117.516 31.873 117.641 31.873 117.797L31.852 125.543C31.852 125.697 31.7265 125.822 31.5725 125.822Z" fill="white"/>
</g>
<g opacity="0.5">
<path d="M184.068 32.6726C181.966 33.8856 188.999 27.9444 186.898 29.1568C187.163 25.595 182.031 27.9483 182.15 24.3974C178.691 25.5275 173.288 22.9067 173.936 25.8061C177.395 11.7458 168.815 16.9329 163.914 10.0458C163.313 9.20003 162.275 8.32127 161.081 8.71666C160.281 8.98283 159.802 9.72653 159.545 10.4193C157.398 16.1978 164.585 20.6136 164.75 26.4303C163.562 27.0672 162.253 26.3198 161.226 25.7142C160.198 25.1085 158.452 24.7758 157.718 25.7953C157.212 26.4977 157.639 27.3136 158.1 27.9358C160.313 30.9125 163.282 33.4359 166.782 35.3147C165.913 36.3001 164.24 36.031 162.967 35.7469C161.694 35.4629 159.813 35.5688 159.392 36.7113C159.153 37.3647 159.591 37.9772 160.063 38.4518C161.465 39.8597 163.34 40.9101 165.461 41.4759C168.948 42.4057 165.209 43.8175 165.899 45.5039C166.665 47.3758 168.354 47.1371 168.74 49.5068C169.226 52.4952 167.308 55.2857 172.393 53.9274C175.736 53.0348 178.935 49.5011 180.512 47.0067C181.915 44.7887 182.774 42.1923 183.357 39.8109C183.549 39.0257 183.779 32.8386 184.068 32.6726Z" fill="#D5FAFD"/>
<path d="M172.035 57.541C181.35 52.3205 189.722 45.5575 196.606 37.6915C197.273 36.9289 197.948 36.1142 198.16 35.167C198.371 34.2199 197.955 33.1141 196.989 32.835C196.224 32.6149 195.382 32.9557 194.63 33.2875C192.405 34.2691 190.181 35.2521 187.957 36.2331C189.689 33.0848 191.253 29.8611 192.641 26.5829C192.989 25.7592 193.216 24.6139 192.4 24.234C191.952 24.0248 191.396 24.1784 190.902 24.3327C189.662 24.7239 188.42 25.1136 187.18 25.5048C187.888 23.368 188.302 21.1623 188.406 18.9588C188.45 17.9963 188.426 16.9883 187.918 16.1765C187.411 15.3661 186.279 14.841 185.319 15.2491C184.809 15.4661 184.435 15.8967 184.108 16.324C181.426 19.8412 180.485 24.4073 181.62 28.4085C182.086 30.0489 182.715 32.1547 181.213 33.2415C180.675 33.6308 179.985 33.7592 179.377 34.0386C177.04 35.1125 176.511 38.0332 176.923 40.3497C177.337 42.6642 178.352 44.9548 177.84 47.3005C177.622 48.2973 177.137 49.2424 176.898 50.2352C176.661 51.2294 176.718 52.3591 177.453 53.0594C178.187 53.7597 179.739 53.685 180.202 52.7509" fill="#AAE5EA"/>
<path d="M174.891 49.3448C174.882 49.3482 174.872 49.3516 174.86 49.3541C174.708 49.3873 174.559 49.2933 174.526 49.1419L168.818 23.5234C168.785 23.3719 168.881 23.2235 169.031 23.1894C169.182 23.1562 169.331 23.2502 169.365 23.4016L175.072 49.0201C175.104 49.1592 175.024 49.299 174.891 49.3448Z" fill="white"/>
<path d="M172.763 39.8046C172.703 39.8251 172.636 39.8263 172.571 39.8009C172.428 39.7461 172.354 39.5833 172.41 39.439L176.143 29.6769C176.199 29.5326 176.36 29.4596 176.505 29.5158C176.648 29.5706 176.722 29.7334 176.666 29.8777L172.933 39.6398C172.902 39.7219 172.837 39.7788 172.763 39.8046Z" fill="white"/>
<path d="M171.352 33.4678C171.273 33.495 171.181 33.4856 171.105 33.4357L165.432 29.632C165.304 29.5468 165.27 29.3718 165.356 29.2442C165.441 29.1167 165.614 29.0809 165.744 29.1675L171.416 32.9712C171.545 33.0564 171.579 33.2315 171.493 33.359C171.458 33.4123 171.407 33.4488 171.352 33.4678Z" fill="white"/>
<path d="M182.814 50.3841C182.773 50.3982 182.727 50.4029 182.682 50.3963C182.529 50.3746 182.424 50.2325 182.445 50.0796L185.248 30.8334C185.271 30.68 185.413 30.5741 185.565 30.5962C185.718 30.6178 185.824 30.76 185.802 30.9129L182.999 50.1591C182.984 50.267 182.91 50.351 182.814 50.3841Z" fill="white"/>
<path d="M184.375 39.6556C184.268 39.6926 184.143 39.6612 184.067 39.5675L181.621 36.5571C181.524 36.4371 181.542 36.2601 181.662 36.1634C181.782 36.0653 181.959 36.0848 182.056 36.2048L184.502 39.2151C184.599 39.3352 184.58 39.5122 184.46 39.6089C184.434 39.629 184.405 39.6454 184.375 39.6556Z" fill="white"/>
<path d="M184.068 42.8882C183.922 42.9384 183.763 42.862 183.713 42.7164C183.661 42.5699 183.737 42.4108 183.884 42.3587L190.735 39.9413C190.736 39.9408 190.736 39.9408 190.736 39.9408C190.882 39.8906 191.041 39.967 191.091 40.1126C191.143 40.2591 191.067 40.4182 190.92 40.4703L184.069 42.8877C184.069 42.8877 184.069 42.8877 184.068 42.8882Z" fill="white"/>
</g>
<path d="M86.3896 54.9191L82.8634 65.3644L73.6699 66.2511C73.6699 66.2511 80.6967 60.3403 81.6641 53.6018C82.6315 46.8634 86.3896 54.9191 86.3896 54.9191Z" fill="#D4A79A"/>
<path d="M99.8549 35.2858C99.8549 35.2858 100.995 38.1855 97.1846 45.038C93.3739 51.8905 88.7625 57.3644 86.6713 56.3047C80.8913 53.3756 79.9508 48.4515 78.8642 44.1475C77.5316 38.8697 85.7936 29.206 85.7936 29.206L91.4084 27.9336L99.8549 35.2858Z" fill="#EAC2AB"/>
<path d="M107.398 35.261C108.038 33.5159 107.936 31.5567 106.661 29.6706C106.292 29.1248 105.755 28.6942 105.13 28.584C104.66 28.5008 104.148 28.5981 103.715 28.3944C102.415 27.7871 102.812 25.7305 101.66 24.9694C100.8 24.4018 99.6572 25.004 98.6309 24.9617C97.8557 24.9297 97.1599 24.5248 96.4718 24.1673C94.5345 23.1615 92.9034 21.6418 90.8648 20.7987C89.1439 20.0876 87.2335 19.7698 85.3832 20.185C83.4523 20.618 81.7853 21.9391 80.6077 23.674C79.9043 24.7119 79.4264 25.9522 79.4071 27.2105C79.4225 26.1764 77.4006 26.7274 77.0123 27.0298C75.494 28.2112 74.4061 31.3902 74.5086 33.2852C74.5894 34.7857 75.016 36.2143 75.0519 37.7237C75.1301 41.0257 74.7752 46.5226 79.6647 46.6123C79.5353 44.9312 79.4187 43.2181 79.7736 41.5498C80.4079 38.5784 81.7289 34.6511 84.4735 32.9623C90.2689 29.399 92.2191 38.6681 96.6025 40.4222C100.684 42.0585 105.946 39.2126 107.398 35.261Z" fill="black"/>
<path d="M81.2746 36.2134C81.2746 36.2134 79.7306 33.0382 78.8926 36.9937C78.0559 40.9504 79.8677 42.3202 79.8677 42.3202L81.2746 36.2134Z" fill="#EAC2AB"/>
<path d="M91.0562 92.1604C90.6372 86.7404 89.8876 81.0077 88.6332 75.5826C87.6633 71.3888 86.7522 65.6459 82.6264 63.2563C74.8987 58.7793 69.9259 69.832 68.5613 75.6492C67.0057 82.2763 67.203 89.2582 67.1313 96.0223C67.0672 102.088 66.2139 108.773 67.039 114.735C67.1851 115.787 67.5695 116.866 68.3934 117.536C70.4884 119.24 72.6487 116.981 74.4118 115.976C76.0609 115.036 77.8073 115.191 79.5589 114.559C81.0977 114.004 81.855 112.854 83.1427 111.959C86.5203 109.612 90.1567 113.388 93.8175 112.681C101.775 111.143 95.6997 113.313 92.4977 97.3267C92.171 95.6981 91.2048 94.0901 91.0562 92.1604Z" fill="#EB008B"/>
<path d="M111.742 80.2135C114.764 78.2646 115.935 73.8901 118.731 71.5453C119.87 70.5907 121.221 70.0244 122.56 69.5003C124.472 68.7507 126.403 68.0601 128.348 67.4297C128.226 68.424 127.46 69.1608 126.664 69.6003C125.868 70.0397 124.988 70.2896 124.247 70.8406C123.921 71.0827 123.621 71.3928 123.452 71.7913C123.071 72.687 123.44 73.7633 123.28 74.7409C122.979 76.5745 121.098 77.3228 119.656 78.2197C116.68 80.0713 114.757 83.7192 111.654 85.2824C111.654 85.2824 88.3754 104.611 85.5052 104.077C82.635 103.543 78.6744 77.1793 78.6744 77.1793C78.6744 77.1793 75.9426 63.5921 83.1194 70.1013C90.2961 76.6104 85.878 98.2328 89.4248 96.0007C92.9689 93.7673 111.742 80.2135 111.742 80.2135Z" fill="#EAC2AB"/>
<path d="M88.2867 80.8635C88.2867 80.8635 87.4628 64.1165 80.5167 65.4991C73.5707 66.8816 78.031 85.68 78.031 85.68L89.3656 83.2531L88.2867 80.8635Z" fill="#BC006F"/>
<path d="M103.951 121.835H57.0701C54.9841 121.835 53.2773 120.128 53.2773 118.042V112.695C53.2773 110.609 54.9841 108.902 57.0701 108.902H103.951C106.037 108.902 107.744 110.609 107.744 112.695V118.042C107.743 120.128 106.036 121.835 103.951 121.835Z" fill="#AAE5EA"/>
<path d="M79.3859 125.06H48.0357C46.6404 125.06 45.5 123.919 45.5 122.525V118.95C45.5 117.554 46.6417 116.414 48.0357 116.414H79.3859C80.7813 116.414 81.9217 117.556 81.9217 118.95V122.525C81.9217 123.92 80.78 125.06 79.3859 125.06Z" fill="#1E858E"/>
<path d="M77.7662 120.95L77.6508 121.091C77.606 121.146 77.524 121.154 77.4689 121.109L74.8537 118.979C74.7986 118.934 74.7909 118.852 74.8358 118.797L74.9511 118.656C74.9959 118.601 75.0779 118.594 75.133 118.638L77.7482 120.768C77.802 120.813 77.811 120.895 77.7662 120.95Z" fill="white"/>
<path d="M77.7662 120.836L77.6508 120.696C77.606 120.64 77.524 120.633 77.4689 120.678L74.8537 122.807C74.7986 122.852 74.7909 122.934 74.8358 122.989L74.9511 123.13C74.9959 123.185 75.0779 123.193 75.133 123.148L77.7482 121.018C77.802 120.972 77.811 120.89 77.7662 120.836Z" fill="white"/>
<path d="M74.1138 120.95L73.9985 121.091C73.9536 121.146 73.8716 121.154 73.8165 121.109L71.2014 118.979C71.1463 118.934 71.1386 118.852 71.1834 118.797L71.2987 118.656C71.3436 118.601 71.4256 118.594 71.4807 118.638L74.0959 120.768C74.151 120.813 74.1587 120.895 74.1138 120.95Z" fill="white"/>
<path d="M74.1138 120.836L73.9985 120.696C73.9536 120.64 73.8716 120.633 73.8165 120.678L71.2014 122.807C71.1463 122.852 71.1386 122.934 71.1834 122.989L71.2987 123.13C71.3436 123.185 71.4256 123.193 71.4807 123.148L74.0959 121.018C74.151 120.972 74.1587 120.89 74.1138 120.836Z" fill="white"/>
<path d="M70.1294 120.95L70.0141 121.091C69.9693 121.146 69.8873 121.154 69.8322 121.109L67.217 118.979C67.1619 118.934 67.1542 118.852 67.199 118.797L67.3144 118.656C67.3592 118.601 67.4412 118.594 67.4963 118.638L70.1115 120.768C70.1666 120.813 70.1743 120.895 70.1294 120.95Z" fill="white"/>
<path d="M70.1294 120.836L70.0141 120.696C69.9693 120.64 69.8873 120.633 69.8322 120.678L67.217 122.807C67.1619 122.852 67.1542 122.934 67.199 122.989L67.3144 123.13C67.3592 123.185 67.4412 123.193 67.4963 123.148L70.1115 121.018C70.1666 120.972 70.1743 120.89 70.1294 120.836Z" fill="white"/>
<path opacity="0.26" d="M152.839 66.626L105.382 83.0796C102.371 83.0796 99.9297 80.6386 99.9297 77.6275V54.1946C99.9297 51.1835 102.371 48.7426 105.382 48.7426L152.839 32.2891C155.851 32.2891 158.292 34.73 158.292 37.7411V61.174C158.292 64.1851 155.851 66.626 152.839 66.626Z" fill="#AAE5EA"/>
<path opacity="0.13" d="M149.91 65.2419L102.452 81.6954C99.4409 81.6954 97 79.2545 97 76.2434V52.8118C97 49.8007 99.4409 47.3598 102.452 47.3598L149.91 30.9062C152.921 30.9062 155.362 33.3472 155.362 36.3583V59.7899C155.362 62.801 152.921 65.2419 149.91 65.2419Z" fill="#AAE5EA"/>
<path opacity="0.39" d="M121.355 58.2359L106.712 63.3125C105.783 63.3125 105.029 62.5591 105.029 61.6301V54.3996C105.029 53.4707 105.783 52.7172 106.712 52.7172L121.355 47.6406C122.284 47.6406 123.037 48.394 123.037 49.323V56.5535C123.037 57.4825 122.284 58.2359 121.355 58.2359Z" fill="white"/>
<path d="M154.548 24.4468L139.905 29.5235C138.976 29.5235 138.223 28.77 138.223 27.8411V20.6106C138.223 19.6816 138.976 18.9282 139.905 18.9282L154.548 13.8516C155.477 13.8516 156.23 14.605 156.23 15.5339V22.7645C156.23 23.6934 155.477 24.4468 154.548 24.4468Z" fill="#AAE5EA"/>
<path d="M148.998 22.5302L135.134 27.3365C134.253 27.3365 133.541 26.6228 133.541 25.7438V18.8989C133.541 18.0187 134.255 17.3063 135.134 17.3063L148.998 12.5C149.878 12.5 150.59 13.2137 150.59 14.0927V20.9375C150.59 21.8178 149.877 22.5302 148.998 22.5302Z" fill="#D5FAFD"/>
<path d="M153.767 78.3271L139.903 83.1333C139.023 83.1333 138.311 82.4197 138.311 81.5407V74.6958C138.311 73.8155 139.024 73.1031 139.903 73.1031L153.767 68.2969C154.647 68.2969 155.36 69.0106 155.36 69.8896V76.7344C155.36 77.6147 154.647 78.3271 153.767 78.3271Z" fill="#D5FAFD"/>
<path d="M130.761 80.6565L116.118 85.7331C115.189 85.7331 114.436 84.9797 114.436 84.0507V76.8215C114.436 75.8925 115.189 75.1391 116.118 75.1391L130.761 70.0625C131.69 70.0625 132.443 70.8159 132.443 71.7449V78.9754C132.443 79.9031 131.69 80.6565 130.761 80.6565Z" fill="#AAE5EA"/>
<path opacity="0.51" d="M121.355 71.4547L106.712 76.5313C105.783 76.5313 105.029 75.7779 105.029 74.8489V67.6184C105.029 66.6894 105.783 65.936 106.712 65.936L121.355 60.8594C122.284 60.8594 123.037 61.6128 123.037 62.5418V69.7723C123.037 70.7012 122.284 71.4547 121.355 71.4547Z" fill="white"/>
<path opacity="0.51" d="M128.389 66.9662C128.032 66.9662 127.738 66.6727 127.738 66.3152V55.4009C127.738 55.0434 128.032 54.75 128.389 54.75C128.747 54.75 129.04 55.0434 129.04 55.4009V66.3152C129.04 66.6727 128.748 66.9662 128.389 66.9662Z" fill="white"/>
<path opacity="0.51" d="M131.885 45.6194C131.765 45.2824 131.943 44.9083 132.28 44.7878L149.598 38.608C149.935 38.4875 150.31 38.6657 150.43 39.0026C150.55 39.3396 150.372 39.7138 150.035 39.8342L132.717 46.0141C132.38 46.1345 132.006 45.9564 131.885 45.6194Z" fill="white"/>
<path opacity="0.51" d="M131.885 47.9788C131.765 47.6418 131.943 47.2676 132.28 47.1472L149.598 40.9674C149.935 40.8469 150.31 41.025 150.43 41.362C150.55 41.699 150.372 42.0732 150.035 42.1936L132.717 48.3734C132.38 48.4926 132.006 48.3158 131.885 47.9788Z" fill="white"/>
<path opacity="0.51" d="M131.885 50.3382C131.765 50.0012 131.943 49.627 132.28 49.5066L149.598 43.3267C149.935 43.2063 150.31 43.3844 150.43 43.7214C150.55 44.0584 150.372 44.4325 150.035 44.553L132.717 50.7328C132.38 50.8533 132.006 50.6751 131.885 50.3382Z" fill="white"/>
<path opacity="0.51" d="M131.885 52.6975C131.765 52.3605 131.943 51.9864 132.28 51.866L149.598 45.6861C149.935 45.5657 150.31 45.7438 150.43 46.0808C150.55 46.4178 150.372 46.7919 150.035 46.9123L132.717 53.0922C132.38 53.2113 132.006 53.0345 131.885 52.6975Z" fill="white"/>
<path opacity="0.51" d="M131.885 55.0569C131.765 54.7199 131.943 54.3458 132.28 54.2253L149.598 48.0455C149.935 47.925 150.31 48.1032 150.43 48.4401C150.55 48.7771 150.372 49.1513 150.035 49.2717L132.717 55.4516C132.38 55.572 132.006 55.3939 131.885 55.0569Z" fill="white"/>
<path opacity="0.51" d="M131.885 57.4163C131.765 57.0793 131.943 56.7051 132.28 56.5847L149.598 50.4049C149.935 50.2844 150.31 50.4625 150.43 50.7995C150.55 51.1365 150.372 51.5107 150.035 51.6311L132.717 57.8109C132.38 57.9314 132.006 57.7533 131.885 57.4163Z" fill="white"/>
<path opacity="0.51" d="M131.885 59.7757C131.765 59.4387 131.943 59.0645 132.28 58.9441L149.598 52.7642C149.935 52.6438 150.31 52.8219 150.43 53.1589C150.55 53.4959 150.372 53.87 150.035 53.9905L132.717 60.1703C132.38 60.2895 132.006 60.1126 131.885 59.7757Z" fill="white"/>
<path opacity="0.51" d="M131.885 62.135C131.765 61.798 131.943 61.4239 132.28 61.3035L149.598 55.1236C149.935 55.0032 150.31 55.1813 150.43 55.5183C150.55 55.8553 150.372 56.2294 150.035 56.3498L132.717 62.5297C132.38 62.6501 132.006 62.472 131.885 62.135Z" fill="white"/>
<path opacity="0.51" d="M131.885 64.4944C131.765 64.1574 131.943 63.7833 132.28 63.6628L149.598 57.483C149.935 57.3625 150.31 57.5407 150.43 57.8776C150.55 58.2146 150.372 58.5888 150.035 58.7092L132.717 64.8891C132.38 65.0082 132.006 64.8314 131.885 64.4944Z" fill="white"/>
<path opacity="0.51" d="M131.885 66.8538C131.765 66.5168 131.943 66.1426 132.28 66.0222L149.598 59.8424C149.935 59.7219 150.31 59.9 150.43 60.237C150.55 60.574 150.372 60.9482 150.035 61.0686L132.717 67.2484C132.38 67.3689 132.006 67.1908 131.885 66.8538Z" fill="white"/>
<path opacity="0.36" d="M129.093 70.3696C130.939 70.3696 132.436 68.8729 132.436 67.0266C132.436 65.1803 130.939 63.6836 129.093 63.6836C127.247 63.6836 125.75 65.1803 125.75 67.0266C125.75 68.8729 127.247 70.3696 129.093 70.3696Z" fill="#EB008B"/>
<path d="M129.092 68.6958C130.016 68.6958 130.764 67.9472 130.764 67.0237C130.764 66.1002 130.016 65.3516 129.092 65.3516C128.169 65.3516 127.42 66.1002 127.42 67.0237C127.42 67.9472 128.169 68.6958 129.092 68.6958Z" fill="#EB008B"/>
<path opacity="0.36" d="M129.095 69.3922C130.4 69.3922 131.459 68.3337 131.459 67.0281C131.459 65.7225 130.4 64.6641 129.095 64.6641C127.789 64.6641 126.73 65.7225 126.73 67.0281C126.73 68.3337 127.789 69.3922 129.095 69.3922Z" fill="#EB008B"/>
</g>
</svg>
