<svg width="24" height="24" viewBox="0 0 24 24" fill="none" xmlns="http://www.w3.org/2000/svg">
<path d="M7.29278 9.32282C7.38565 9.22048 7.49591 9.13929 7.61728 9.0839C7.73864 9.02851 7.86873 9 8.0001 9C8.13147 9 8.26156 9.02851 8.38292 9.0839C8.50429 9.13929 8.61455 9.22048 8.70742 9.32282L11.7647 12.6892C11.8272 12.758 11.912 12.7967 12.0004 12.7967C12.0887 12.7967 12.1735 12.758 12.236 12.6892L15.2926 9.32282C15.4801 9.11622 15.7345 9.00011 15.9997 9.00004C16.2649 8.99997 16.5193 9.11595 16.7069 9.32245C16.8945 9.52896 16.9999 9.80909 17 10.1012C17.0001 10.3933 16.8948 10.6735 16.7073 10.8801L13.65 14.2472C13.4333 14.4859 13.1761 14.6752 12.893 14.8044C12.6099 14.9335 12.3064 15 12 15C11.6936 15 11.3902 14.9335 11.1071 14.8044C10.824 14.6752 10.5667 14.4859 10.3501 14.2472L7.29278 10.8801C7.10531 10.6736 7 10.3935 7 10.1015C7 9.80943 7.10531 9.52935 7.29278 9.32282Z" fill="white"/>
</svg>
