<svg width="10" height="6" viewBox="0 0 10 6" fill="none" xmlns="http://www.w3.org/2000/svg">
<path d="M0.29278 0.322822C0.385645 0.220479 0.495911 0.139292 0.617275 0.0839013C0.738641 0.0285101 0.868727 0 1.0001 0C1.13147 0 1.26156 0.0285101 1.38292 0.0839013C1.50429 0.139292 1.61455 0.220479 1.70742 0.322822L4.76469 3.68922C4.8272 3.75805 4.91196 3.79671 5.00035 3.79671C5.08874 3.79671 5.1735 3.75805 5.23601 3.68922L8.29262 0.322822C8.48012 0.116216 8.73447 0.000107356 8.9997 3.85114e-05C9.26493 -3.0333e-05 9.51933 0.115946 9.70692 0.322455C9.89451 0.528963 9.99994 0.809087 10 1.1012C10.0001 1.39332 9.89476 1.6735 9.70725 1.8801L6.64998 5.24724C6.43332 5.48589 6.17609 5.6752 5.89298 5.80436C5.60988 5.93352 5.30645 6 5.00002 6C4.69359 6 4.39016 5.93352 4.10705 5.80436C3.82395 5.6752 3.56672 5.48589 3.35005 5.24724L0.29278 1.8801C0.105312 1.67357 0 1.3935 0 1.10146C0 0.809429 0.105312 0.529352 0.29278 0.322822Z" fill="white"/>
</svg>
