<svg width="22" height="22" viewBox="0 0 13 15" fill="none" xmlns="http://www.w3.org/2000/svg">
<path d="M3.33333 4.83301C3.15652 4.83301 2.98695 4.90325 2.86193 5.02827C2.7369 5.15329 2.66667 5.32286 2.66667 5.49967C2.66667 5.67649 2.7369 5.84605 2.86193 5.97108C2.98695 6.0961 3.15652 6.16634 3.33333 6.16634H4C4.17681 6.16634 4.34638 6.0961 4.4714 5.97108C4.59643 5.84605 4.66667 5.67649 4.66667 5.49967C4.66667 5.32286 4.59643 5.15329 4.4714 5.02827C4.34638 4.90325 4.17681 4.83301 4 4.83301H3.33333ZM6.66667 12.833H2C1.82319 12.833 1.65362 12.7628 1.5286 12.6377C1.40357 12.5127 1.33333 12.3432 1.33333 12.1663V2.83301C1.33333 2.6562 1.40357 2.48663 1.5286 2.3616C1.65362 2.23658 1.82319 2.16634 2 2.16634H5.33333V4.16634C5.33333 4.69677 5.54405 5.20548 5.91912 5.58055C6.29419 5.95563 6.8029 6.16634 7.33333 6.16634H9.33333V7.49967C9.33333 7.67649 9.40357 7.84606 9.52859 7.97108C9.65362 8.0961 9.82319 8.16634 10 8.16634C10.1768 8.16634 10.3464 8.0961 10.4714 7.97108C10.5964 7.84606 10.6667 7.67649 10.6667 7.49967V5.49967C10.6667 5.49967 10.6667 5.49967 10.6667 5.45967C10.6597 5.39843 10.6463 5.3381 10.6267 5.27967V5.21967C10.5946 5.15113 10.5519 5.08812 10.5 5.03301L6.5 1.03301C6.44489 0.981152 6.38188 0.938395 6.31333 0.906341C6.29128 0.902481 6.26872 0.902481 6.24667 0.906341C6.18184 0.871677 6.11217 0.846956 6.04 0.833008H2C1.46957 0.833008 0.960859 1.04372 0.585786 1.41879C0.210714 1.79387 0 2.30257 0 2.83301V12.1663C0 12.6968 0.210714 13.2055 0.585786 13.5806C0.960859 13.9556 1.46957 14.1663 2 14.1663H6.66667C6.84348 14.1663 7.01305 14.0961 7.13807 13.9711C7.26309 13.8461 7.33333 13.6765 7.33333 13.4997C7.33333 13.3229 7.26309 13.1533 7.13807 13.0283C7.01305 12.9032 6.84348 12.833 6.66667 12.833ZM6.66667 3.10634L8.39333 4.83301H7.33333C7.15652 4.83301 6.98695 4.76277 6.86193 4.63775C6.7369 4.51272 6.66667 4.34315 6.66667 4.16634V3.10634ZM7.33333 7.49967H3.33333C3.15652 7.49967 2.98695 7.56991 2.86193 7.69494C2.7369 7.81996 2.66667 7.98953 2.66667 8.16634C2.66667 8.34315 2.7369 8.51272 2.86193 8.63775C2.98695 8.76277 3.15652 8.83301 3.33333 8.83301H7.33333C7.51014 8.83301 7.67971 8.76277 7.80474 8.63775C7.92976 8.51272 8 8.34315 8 8.16634C8 7.98953 7.92976 7.81996 7.80474 7.69494C7.67971 7.56991 7.51014 7.49967 7.33333 7.49967ZM11.8067 11.693C11.7447 11.6305 11.671 11.5809 11.5897 11.5471C11.5085 11.5132 11.4213 11.4958 11.3333 11.4958C11.2453 11.4958 11.1582 11.5132 11.0769 11.5471C10.9957 11.5809 10.922 11.6305 10.86 11.693L10.6667 11.893V10.1663C10.6667 9.98953 10.5964 9.81996 10.4714 9.69494C10.3464 9.56991 10.1768 9.49967 10 9.49967C9.82319 9.49967 9.65362 9.56991 9.52859 9.69494C9.40357 9.81996 9.33333 9.98953 9.33333 10.1663V11.893L9.14 11.693C9.01446 11.5675 8.8442 11.4969 8.66667 11.4969C8.48913 11.4969 8.31887 11.5675 8.19333 11.693C8.0678 11.8185 7.99727 11.9888 7.99727 12.1663C7.99727 12.3439 8.0678 12.5141 8.19333 12.6397L9.52667 13.973C9.59007 14.0337 9.66483 14.0813 9.74667 14.113C9.82647 14.1483 9.91275 14.1665 10 14.1665C10.0872 14.1665 10.1735 14.1483 10.2533 14.113C10.3352 14.0813 10.4099 14.0337 10.4733 13.973L11.8067 12.6397C11.8692 12.5777 11.9187 12.504 11.9526 12.4227C11.9864 12.3415 12.0039 12.2543 12.0039 12.1663C12.0039 12.0783 11.9864 11.9912 11.9526 11.91C11.9187 11.8287 11.8692 11.755 11.8067 11.693ZM6 11.4997C6.17681 11.4997 6.34638 11.4294 6.4714 11.3044C6.59643 11.1794 6.66667 11.0098 6.66667 10.833C6.66667 10.6562 6.59643 10.4866 6.4714 10.3616C6.34638 10.2366 6.17681 10.1663 6 10.1663H3.33333C3.15652 10.1663 2.98695 10.2366 2.86193 10.3616C2.7369 10.4866 2.66667 10.6562 2.66667 10.833C2.66667 11.0098 2.7369 11.1794 2.86193 11.3044C2.98695 11.4294 3.15652 11.4997 3.33333 11.4997H6Z" fill="#EB008B"/>
</svg>
