<svg width="16" height="16" viewBox="0 0 16 16" fill="none" xmlns="http://www.w3.org/2000/svg">
<path d="M7.9999 3.33331C8.92037 3.33331 9.66655 2.58712 9.66655 1.66666C9.66655 0.746187 8.92037 0 7.9999 0C7.07944 0 6.33325 0.746187 6.33325 1.66666C6.33325 2.58712 7.07944 3.33331 7.9999 3.33331Z" fill="#444444"/>
<path d="M7.9999 9.6668C8.92037 9.6668 9.66655 8.92061 9.66655 8.00015C9.66655 7.07968 8.92037 6.3335 7.9999 6.3335C7.07944 6.3335 6.33325 7.07968 6.33325 8.00015C6.33325 8.92061 7.07944 9.6668 7.9999 9.6668Z" fill="#444444"/>
<path d="M7.9999 15.9998C8.92037 15.9998 9.66655 15.2536 9.66655 14.3332C9.66655 13.4127 8.92037 12.6665 7.9999 12.6665C7.07944 12.6665 6.33325 13.4127 6.33325 14.3332C6.33325 15.2536 7.07944 15.9998 7.9999 15.9998Z" fill="#444444"/>
</svg>
